<svg width="260" height="181" viewBox="0 0 260 181" fill="none" xmlns="http://www.w3.org/2000/svg">
<g clip-path="url(#clip0)">
<path d="M150.863 176.984C148.932 178.359 146.838 179.493 144.628 180.362C144.049 180.591 143.467 180.805 142.875 181H112.668C112.545 180.789 112.426 180.575 112.304 180.362C109.854 176.007 107.631 171.484 107.001 166.565C106.245 160.659 108.365 153.971 113.603 151.07C114.29 150.69 115.017 150.388 115.771 150.169C116.083 150.074 116.401 149.997 116.723 149.93C118.687 149.497 120.731 149.592 122.646 150.203C124.561 150.815 126.277 151.922 127.618 153.41C128.959 154.898 129.877 156.714 130.276 158.671C130.676 160.628 130.543 162.655 129.892 164.544C134.334 160.024 133.504 152.694 131.973 146.569C130.439 140.443 128.58 133.624 131.703 128.121C133.436 125.059 136.488 123.16 139.91 122.394C140.016 122.371 140.122 122.349 140.225 122.33C144.305 121.51 148.546 122.247 152.102 124.395C158.649 128.488 162.01 136.254 163.1 143.858C164.859 156.097 160.968 169.754 150.863 176.984Z" fill="#F2F2F2"/>
<path d="M119.093 153.831C121.511 158.705 122.283 164.222 121.293 169.565C120.546 173.483 118.9 177.177 116.482 180.362C116.318 180.579 116.151 180.793 115.98 181H114.787C114.97 180.793 115.15 180.579 115.321 180.362C117.517 177.646 119.109 174.5 119.992 171.13C120.876 167.76 121.031 164.243 120.447 160.809C119.754 156.946 118.152 153.301 115.771 150.169C116.083 150.074 116.401 149.997 116.723 149.93C117.629 151.158 118.422 152.463 119.093 153.831Z" fill="white"/>
<path d="M147.992 157.365C147.733 160.064 147.08 162.712 146.052 165.224C145.105 167.447 143.828 169.517 142.264 171.366C139.071 175.181 134.845 178.05 130.256 179.959C129.921 180.1 129.583 180.234 129.243 180.362C128.651 180.591 128.053 180.802 127.451 181H124.194C124.962 180.808 125.728 180.595 126.483 180.362C128.28 179.807 130.033 179.12 131.729 178.309C136.037 176.282 139.779 173.236 142.624 169.438C145.676 165.256 147.024 160.228 147.255 155.117C147.5 149.649 146.782 144.082 145.525 138.76C144.242 133.306 142.29 128.028 139.714 123.045C139.656 122.932 139.644 122.802 139.681 122.68C139.717 122.559 139.799 122.457 139.91 122.394C140.003 122.333 140.116 122.31 140.225 122.33C140.279 122.344 140.328 122.369 140.371 122.404C140.413 122.44 140.447 122.484 140.469 122.534C140.788 123.15 141.1 123.766 141.399 124.389C143.896 129.579 145.736 135.056 146.876 140.695C147.979 146.134 148.57 151.826 147.992 157.365Z" fill="white"/>
<path d="M13.6602 90.3404C10.9888 90.3404 8.37736 89.5541 6.15614 88.0808C3.93493 86.6076 2.2037 84.5137 1.18139 82.0638C0.159078 79.6139 -0.108401 76.9181 0.412769 74.3173C0.933939 71.7166 2.22035 69.3276 4.10934 67.4525C5.99833 65.5775 8.40504 64.3005 11.0251 63.7832C13.6452 63.2659 16.3611 63.5314 18.8291 64.5462C21.2972 65.5609 23.4067 67.2794 24.8909 69.4842C26.3751 71.6891 27.1672 74.2813 27.1672 76.933C27.1632 80.4876 25.7388 83.8955 23.2066 86.409C20.6745 88.9225 17.2413 90.3364 13.6602 90.3404ZM13.6602 64.164C11.116 64.164 8.62892 64.9129 6.51348 66.316C4.39804 67.7191 2.74925 69.7133 1.77562 72.0465C0.801992 74.3797 0.547245 76.9472 1.0436 79.4241C1.53995 81.901 2.76511 84.1762 4.56415 85.962C6.36318 87.7478 8.65529 88.9639 11.1506 89.4566C13.646 89.9493 16.2324 89.6964 18.583 88.73C20.9335 87.7635 22.9426 86.1269 24.3561 84.027C25.7696 81.9272 26.524 79.4585 26.524 76.933C26.5202 73.5476 25.1637 70.302 22.7521 67.9082C20.3405 65.5144 17.0707 64.1679 13.6602 64.164Z" fill="#3F3D56"/>
<path d="M68.3293 47.2451C65.6578 47.2451 63.0464 46.4588 60.8252 44.9856C58.604 43.5124 56.8727 41.4184 55.8504 38.9685C54.8281 36.5186 54.5606 33.8229 55.0818 31.2221C55.603 28.6213 56.8894 26.2323 58.7784 24.3573C60.6674 22.4822 63.0741 21.2053 65.6942 20.688C68.3143 20.1706 71.0301 20.4361 73.4982 21.4509C75.9662 22.4657 78.0757 24.1841 79.5599 26.389C81.0441 28.5938 81.8363 31.186 81.8363 33.8377C81.8322 37.3924 80.4078 40.8003 77.8757 43.3138C75.3435 45.8273 71.9103 47.2411 68.3293 47.2451ZM68.3293 21.0688C65.785 21.0688 63.298 21.8177 61.1825 23.2207C59.0671 24.6238 57.4183 26.618 56.4447 28.9513C55.471 31.2845 55.2163 33.8519 55.7126 36.3288C56.209 38.8058 57.4341 41.081 59.2332 42.8668C61.0322 44.6525 63.3243 45.8687 65.8197 46.3613C68.315 46.854 70.9015 46.6012 73.252 45.6347C75.6026 44.6683 77.6116 43.0316 79.0251 40.9318C80.4386 38.8319 81.1931 36.3632 81.1931 33.8377C81.1892 30.4524 79.8327 27.2068 77.4211 24.8129C75.0095 22.4191 71.7398 21.0726 68.3293 21.0688Z" fill="#3F3D56"/>
<path d="M126.86 26.8148C124.188 26.8148 121.577 26.0285 119.356 24.5553C117.134 23.082 115.403 20.9881 114.381 18.5382C113.358 16.0883 113.091 13.3925 113.612 10.7918C114.133 8.19098 115.42 5.802 117.309 3.92694C119.198 2.05188 121.604 0.774953 124.225 0.257625C126.845 -0.259702 129.56 0.00581008 132.029 1.02059C134.497 2.03536 136.606 3.75382 138.09 5.95865C139.574 8.16349 140.367 10.7557 140.367 13.4074C140.363 16.962 138.938 20.3699 136.406 22.8834C133.874 25.3969 130.441 26.8108 126.86 26.8148ZM126.86 0.638452C124.315 0.638452 121.828 1.38734 119.713 2.79041C117.597 4.19348 115.949 6.18772 114.975 8.52094C114.001 10.8542 113.747 13.4216 114.243 15.8985C114.739 18.3755 115.964 20.6507 117.763 22.4364C119.563 24.2222 121.855 25.4383 124.35 25.931C126.845 26.4237 129.432 26.1708 131.782 25.2044C134.133 24.2379 136.142 22.6013 137.555 20.5015C138.969 18.4016 139.723 15.9329 139.723 13.4074C139.72 10.022 138.363 6.77643 135.951 4.38261C133.54 1.9888 130.27 0.642272 126.86 0.638452Z" fill="#3F3D56"/>
<path d="M189.249 47.8836C186.578 47.8836 183.966 47.0973 181.745 45.6241C179.524 44.1508 177.793 42.0569 176.77 39.607C175.748 37.1571 175.48 34.4613 176.002 31.8605C176.523 29.2598 177.809 26.8708 179.698 24.9957C181.587 23.1207 183.994 21.8437 186.614 21.3264C189.234 20.8091 191.95 21.0746 194.418 22.0894C196.886 23.1041 198.996 24.8226 200.48 27.0274C201.964 29.2323 202.756 31.8245 202.756 34.4762C202.752 38.0308 201.328 41.4387 198.795 43.9522C196.263 46.4657 192.83 47.8796 189.249 47.8836ZM189.249 21.7072C186.705 21.7072 184.218 22.4561 182.102 23.8592C179.987 25.2623 178.338 27.2565 177.364 29.5897C176.391 31.923 176.136 34.4904 176.632 36.9673C177.129 39.4442 178.354 41.7194 180.153 43.5052C181.952 45.291 184.244 46.5071 186.739 46.9998C189.235 47.4925 191.821 47.2396 194.172 46.2732C196.522 45.3067 198.531 43.6701 199.945 41.5703C201.358 39.4704 202.113 37.0017 202.113 34.4762C202.109 31.0908 200.752 27.8452 198.341 25.4514C195.929 23.0576 192.66 21.7111 189.249 21.7072Z" fill="#3F3D56"/>
<path d="M246.493 80.1252C243.822 80.1252 241.21 79.3389 238.989 77.8657C236.768 76.3924 235.036 74.2985 234.014 71.8486C232.992 69.3987 232.724 66.7029 233.245 64.1022C233.767 61.5014 235.053 59.1124 236.942 57.2373C238.831 55.3623 241.238 54.0853 243.858 53.568C246.478 53.0507 249.194 53.3162 251.662 54.331C254.13 55.3458 256.239 57.0642 257.724 59.2691C259.208 61.4739 260 64.0661 260 66.7178C259.996 70.2724 258.572 73.6803 256.039 76.1938C253.507 78.7073 250.074 80.1212 246.493 80.1252ZM246.493 53.9489C243.949 53.9489 241.462 54.6977 239.346 56.1008C237.231 57.5039 235.582 59.4981 234.608 61.8313C233.635 64.1646 233.38 66.732 233.876 69.2089C234.373 71.6859 235.598 73.9611 237.397 75.7468C239.196 77.5326 241.488 78.7487 243.983 79.2414C246.479 79.7341 249.065 79.4812 251.416 78.5148C253.766 77.5483 255.775 75.9117 257.189 73.8119C258.602 71.712 259.357 69.2433 259.357 66.7178C259.353 63.3324 257.996 60.0868 255.585 57.693C253.173 55.2992 249.903 53.9527 246.493 53.9489Z" fill="#3F3D56"/>
<path d="M76.0475 30.1659L77.6555 29.8467C77.6555 29.8467 76.3048 31.3471 76.0475 31.4428C76.0235 31.7616 76.0235 32.0817 76.0475 32.4005C72.9602 45.5525 61.5757 39.7426 61.5757 39.7426C65.7243 39.8384 66.0781 38.1465 66.0781 38.1465C63.6661 37.7954 63.1837 36.2312 63.1837 36.2312C63.4001 36.3445 63.651 36.3746 63.8884 36.3157C64.1257 36.2568 64.3329 36.113 64.4701 35.912C61.8652 35.2416 62.2189 32.7197 62.2189 32.7197C62.6832 33.0525 63.2258 33.2613 63.7947 33.3262C63.5053 32.9751 61.0612 30.0702 62.5405 28.5698C62.5405 28.5698 64.3415 31.7621 69.0689 32.0494L69.3905 31.9855C69.3358 31.7556 69.3142 31.5192 69.3262 31.2832C69.3262 30.3943 69.682 29.5417 70.3152 28.9131C70.9485 28.2845 71.8074 27.9314 72.7029 27.9314C74.9541 27.9314 75.4365 29.2083 75.4365 29.2083L77.0445 28.2506C77.0123 28.2506 76.8515 29.8467 76.0475 30.1659Z" fill="#3F3D56"/>
<path d="M178.742 172.264L182.283 173.986L190.661 161.252L185.436 158.709L178.742 172.264Z" fill="#FFB8B8"/>
<path d="M178.406 170.677L185.378 174.069L185.378 174.07C185.962 174.354 186.483 174.749 186.913 175.233C187.342 175.717 187.672 176.28 187.882 176.89C188.092 177.5 188.179 178.146 188.138 178.79C188.097 179.433 187.929 180.063 187.643 180.642L187.572 180.785L176.157 175.231L178.406 170.677Z" fill="#2F2E41"/>
<path d="M213.826 178.268L217.769 178.268L219.645 163.173H213.826L213.826 178.268Z" fill="#FFB8B8"/>
<path d="M212.821 175.714L220.585 175.713H220.586C221.235 175.713 221.879 175.84 222.479 176.087C223.079 176.334 223.625 176.696 224.084 177.152C224.544 177.608 224.908 178.15 225.157 178.745C225.406 179.341 225.534 179.98 225.534 180.625V180.785L212.821 180.785L212.821 175.714Z" fill="#2F2E41"/>
<path d="M205.357 74.0885C209.72 74.0885 213.256 70.5782 213.256 66.248C213.256 61.9178 209.72 58.4075 205.357 58.4075C200.995 58.4075 197.459 61.9178 197.459 66.248C197.459 70.5782 200.995 74.0885 205.357 74.0885Z" fill="#FFB8B8"/>
<path d="M213.223 173.289C212.85 173.289 212.492 173.146 212.223 172.89C211.954 172.634 211.795 172.285 211.779 171.915L208.726 131.578C208.722 131.472 208.684 131.371 208.616 131.289C208.548 131.208 208.455 131.15 208.351 131.127C208.247 131.103 208.138 131.115 208.042 131.159C207.945 131.203 207.866 131.278 207.816 131.371L188.285 168.383C188.108 168.715 187.807 168.965 187.447 169.081C187.087 169.196 186.695 169.168 186.356 169.001L180.911 166.299C180.57 166.129 180.31 165.831 180.188 165.472C180.066 165.112 180.092 164.719 180.261 164.379L191.915 140.937L199.634 123.378C202.614 117.553 205.778 114.551 209.307 114.2C212.927 113.842 216.794 116.313 221.129 121.756L221.164 121.8L221.164 121.857L220.521 171.131C220.522 171.489 220.387 171.834 220.144 172.099C219.902 172.363 219.568 172.528 219.208 172.559L213.365 173.283C213.317 173.287 213.27 173.289 213.223 173.289Z" fill="#2F2E41"/>
<path d="M197.021 126.214C197.451 125.951 197.817 125.597 198.094 125.178C198.372 124.759 198.553 124.285 198.626 123.789C198.698 123.293 198.66 122.787 198.515 122.307C198.369 121.827 198.119 121.384 197.783 121.01L198.974 89.7725L193.185 90.4886L192.697 120.878C192.102 121.481 191.75 122.28 191.709 123.123C191.667 123.966 191.938 124.795 192.471 125.453C193.004 126.11 193.762 126.551 194.6 126.692C195.439 126.832 196.3 126.662 197.021 126.214Z" fill="#FFB8B8"/>
<path d="M200.683 95.2954L192.909 94.4185C192.688 94.3935 192.475 94.3216 192.284 94.2075C192.093 94.0934 191.93 93.9398 191.804 93.7573C191.679 93.5748 191.595 93.3675 191.557 93.1497C191.519 92.9319 191.53 92.7087 191.587 92.4951L193.594 85.0133C193.729 83.8908 194.307 82.8673 195.201 82.1671C196.095 81.4669 197.233 81.1473 198.364 81.2782C199.495 81.4091 200.528 81.98 201.236 82.8656C201.944 83.7512 202.269 84.8792 202.14 86.0025L202.406 93.7155C202.413 93.9363 202.373 94.1562 202.287 94.3601C202.201 94.564 202.072 94.7471 201.909 94.897C201.745 95.047 201.551 95.1602 201.339 95.2289C201.128 95.2976 200.904 95.3203 200.683 95.2953V95.2954Z" fill="#6C63FF"/>
<path d="M234.169 75.6312C234.13 75.8034 234.104 75.9785 234.092 76.1547L220.277 84.0657L216.919 82.1469L213.34 86.7987L218.952 90.7691C219.405 91.0898 219.951 91.256 220.508 91.2425C221.064 91.229 221.601 91.0367 222.038 90.6944L236.284 79.5389C236.927 79.7751 237.627 79.8115 238.291 79.6431C238.955 79.4747 239.552 79.1096 240.002 78.5963C240.452 78.083 240.734 77.4459 240.811 76.7696C240.887 76.0934 240.754 75.4101 240.43 74.8106C240.105 74.2112 239.605 73.724 238.995 73.4138C238.384 73.1036 237.694 72.9852 237.014 73.0743C236.334 73.1634 235.698 73.4557 235.19 73.9124C234.682 74.3692 234.326 74.9687 234.169 75.6312Z" fill="#FFB8B8"/>
<path d="M219.816 84.4404L215.351 90.1845C215.224 90.348 215.062 90.4823 214.878 90.5784C214.694 90.6745 214.492 90.7301 214.284 90.7414C214.076 90.7527 213.869 90.7194 213.675 90.6438C213.482 90.5683 213.307 90.4522 213.162 90.3035L208.108 85.0934C207.268 84.4437 206.723 83.49 206.591 82.4416C206.459 81.3931 206.752 80.3356 207.404 79.501C208.057 78.6663 209.017 78.1228 210.073 77.9896C211.129 77.8564 212.195 78.1445 213.037 78.7906L219.376 82.3093C219.558 82.4101 219.715 82.5485 219.838 82.7152C219.961 82.8819 220.046 83.0728 220.088 83.2751C220.129 83.4773 220.127 83.6861 220.08 83.8872C220.033 84.0883 219.943 84.277 219.816 84.4404H219.816Z" fill="#6C63FF"/>
<path d="M223.458 124.198L214.886 82.7538C214.479 80.784 213.318 79.0476 211.648 77.9095C209.977 76.7714 207.928 76.3203 205.93 76.6509L203.071 77.1238C202.078 77.2881 201.127 77.6449 200.273 78.1739C199.419 78.703 198.678 79.3938 198.093 80.207C197.163 81.4991 196.537 82.9815 196.26 84.5454C195.983 86.1093 196.063 87.7149 196.493 89.2442L201.225 106.053L197.714 124.061C197.674 124.261 197.684 124.467 197.741 124.662C197.799 124.858 197.902 125.036 198.043 125.184C198.185 125.331 198.359 125.443 198.553 125.51C198.747 125.577 198.954 125.597 199.156 125.568C200.914 125.318 203.812 124.962 207.14 124.768L208.943 117.864L209.676 124.658C213.765 124.544 218.203 124.743 221.864 125.687C222.076 125.744 222.298 125.745 222.511 125.692C222.723 125.639 222.919 125.533 223.078 125.383C223.238 125.234 223.357 125.047 223.423 124.84C223.49 124.632 223.501 124.412 223.458 124.198Z" fill="#6C63FF"/>
<path d="M208.397 64.5036C210.427 65.8828 213.093 67.3005 215.166 65.8318C216.528 64.8674 216.956 63.0815 216.404 61.5143C215.412 58.696 212.684 57.4553 210.075 56.5042C206.684 55.2679 202.992 54.2843 199.491 55.1697C195.99 56.0551 192.897 59.4195 193.529 62.9501C194.037 65.7894 196.735 68.1519 196.352 71.0104C195.966 73.8873 192.707 75.4016 189.829 75.9158C186.952 76.43 183.732 76.5952 181.664 78.6468C179.026 81.2641 179.685 85.9421 182.167 88.7054C184.649 91.4687 188.395 92.7213 192.025 93.5728C196.834 94.701 202.036 95.2939 206.604 93.4216C211.171 91.5492 214.726 86.509 213.403 81.7827C212.844 79.7864 211.527 78.0992 210.255 76.4566C208.982 74.8141 207.694 73.0965 207.208 71.0813C206.804 69.4019 207.103 67.4521 208.225 66.1924C208.429 65.9719 208.558 65.6929 208.592 65.3954C208.626 65.098 208.565 64.7974 208.416 64.5368L208.397 64.5036Z" fill="#2F2E41"/>
<path d="M130.538 6.77481C131.438 6.77748 132.3 7.13344 132.936 7.76496C133.573 8.39648 133.931 9.25224 133.934 10.1453V16.8857C133.931 17.7788 133.573 18.6345 132.936 19.2661C132.3 19.8976 131.438 20.2535 130.538 20.2562H123.748C122.848 20.2535 121.986 19.8976 121.35 19.2661C120.714 18.6345 120.355 17.7788 120.352 16.8857V10.1453C120.355 9.25224 120.714 8.39648 121.35 7.76496C121.986 7.13344 122.848 6.77748 123.748 6.77481H130.538ZM130.538 5.42682H123.748C122.488 5.43046 121.281 5.92876 120.391 6.81286C119.5 7.69697 118.998 8.89503 118.994 10.1453V16.8857C118.998 18.136 119.5 19.3341 120.391 20.2182C121.281 21.1023 122.488 21.6006 123.748 21.6042H130.538C131.798 21.6006 133.005 21.1023 133.896 20.2182C134.786 19.3341 135.288 18.136 135.292 16.8857V10.1453C135.288 8.89503 134.786 7.69697 133.896 6.81286C133.005 5.92876 131.798 5.43046 130.538 5.42682Z" fill="#3F3D56"/>
<path d="M131.557 10.1453C131.288 10.1448 131.029 10.0381 130.839 9.84868C130.649 9.6593 130.542 9.40272 130.543 9.13533C130.543 8.86794 130.65 8.61159 130.841 8.42262C131.031 8.23365 131.29 8.1275 131.559 8.1275C131.829 8.1275 132.087 8.23365 132.277 8.42262C132.468 8.61159 132.575 8.86794 132.576 9.13533C132.576 9.40272 132.469 9.6593 132.279 9.84868C132.089 10.0381 131.831 10.1448 131.561 10.1453C131.56 10.1453 131.558 10.1453 131.557 10.1453Z" fill="#3F3D56"/>
<path d="M127.143 10.8191C127.68 10.8191 128.206 10.9773 128.652 11.2735C129.099 11.5698 129.447 11.9909 129.653 12.4836C129.858 12.9763 129.912 13.5185 129.807 14.0415C129.703 14.5645 129.444 15.045 129.064 15.4221C128.684 15.7992 128.2 16.056 127.673 16.16C127.146 16.264 126.6 16.2106 126.104 16.0066C125.607 15.8025 125.183 15.4569 124.885 15.0135C124.586 14.5701 124.427 14.0488 124.427 13.5155C124.427 12.8004 124.713 12.1145 125.222 11.6089C125.732 11.1032 126.423 10.8191 127.143 10.8191ZM127.143 9.47113C126.337 9.47113 125.55 9.70832 124.88 10.1527C124.21 10.5971 123.687 11.2288 123.379 11.9678C123.071 12.7068 122.99 13.5199 123.147 14.3045C123.304 15.089 123.692 15.8096 124.262 16.3752C124.832 16.9409 125.558 17.326 126.348 17.4821C127.139 17.6382 127.958 17.5581 128.702 17.252C129.447 16.9458 130.083 16.4275 130.531 15.7624C130.979 15.0973 131.218 14.3154 131.218 13.5155C131.218 12.4428 130.788 11.4142 130.024 10.6557C129.26 9.89724 128.224 9.47114 127.143 9.47114V9.47113Z" fill="#3F3D56"/>
<path d="M52.474 176.764L48.6364 175.867L50.2975 160.747L55.9614 162.071L52.474 176.764Z" fill="#FFB8B8"/>
<path d="M52.5763 180.686L40.2023 177.792L40.2391 177.637C40.3881 177.009 40.6602 176.416 41.0399 175.893C41.4196 175.369 41.8995 174.925 42.4521 174.586C43.0047 174.246 43.6192 174.018 44.2605 173.915C44.9019 173.811 45.5576 173.834 46.1901 173.982L46.1904 173.982L53.748 175.749L52.5763 180.686Z" fill="#2F2E41"/>
<path d="M67.4289 176.892H63.4861L61.6105 161.796L67.4295 161.797L67.4289 176.892Z" fill="#FFB8B8"/>
<path d="M68.4343 180.686L55.7215 180.685V180.526C55.7214 179.881 55.8494 179.242 56.0981 178.646C56.3468 178.05 56.7112 177.509 57.1707 177.053C57.6302 176.596 58.1757 176.235 58.7761 175.988C59.3764 175.741 60.0198 175.614 60.6697 175.614H60.67L68.4345 175.614L68.4343 180.686Z" fill="#2F2E41"/>
<path d="M88.7229 117.192C88.987 116.765 89.1535 116.285 89.2107 115.787C89.2678 115.289 89.2143 114.784 89.0538 114.309C88.8933 113.834 88.6297 113.399 88.2817 113.036C87.9337 112.672 87.5096 112.389 87.0394 112.206L75.496 83.1495L69.0736 87.0195L82.4399 114.364C82.1825 115.169 82.2313 116.039 82.5771 116.81C82.9229 117.581 83.5416 118.2 84.3161 118.548C85.0905 118.897 85.9669 118.951 86.7791 118.701C87.5913 118.451 88.2829 117.914 88.7229 117.192Z" fill="#FFB8B8"/>
<path d="M77.9493 87.9549L70.6121 90.6508C70.4034 90.7275 70.1804 90.7587 69.9584 90.7421C69.7364 90.7256 69.5206 90.6617 69.3258 90.555C69.1309 90.4482 68.9615 90.3009 68.8291 90.1233C68.6967 89.9457 68.6044 89.7418 68.5585 89.5256L66.952 81.9491C66.5628 80.8867 66.6138 79.7144 67.094 78.6893C67.5742 77.6642 68.4442 76.8699 69.5134 76.4805C70.5826 76.0912 71.7638 76.1386 72.7978 76.6123C73.8319 77.0861 74.6345 77.9475 75.0298 79.0077L78.7698 85.7736C78.8768 85.9673 78.9405 86.1817 78.9565 86.4021C78.9726 86.6225 78.9406 86.8437 78.8627 87.0507C78.7848 87.2577 78.6629 87.4456 78.5053 87.6016C78.3477 87.7577 78.158 87.8781 77.9493 87.9549V87.9549Z" fill="#6C63FF"/>
<path d="M67.1669 171.473C67.1477 171.473 67.1283 171.473 67.1089 171.472L61.5204 171.25C61.1428 171.237 60.7854 171.077 60.5254 170.805C60.2655 170.533 60.1239 170.17 60.1313 169.795L60.5601 139.149C60.5618 139.026 60.5157 138.907 60.4312 138.817C60.3466 138.726 60.2303 138.672 60.1063 138.664C59.9823 138.657 59.8603 138.698 59.7656 138.777C59.6709 138.857 59.6109 138.97 59.5979 139.093L56.356 169.772C56.3223 170.084 56.1867 170.377 55.9698 170.606C55.7529 170.834 55.4667 170.987 55.1546 171.039L55.1353 171.042L49.8888 170.633C49.6821 170.664 49.4709 170.65 49.2699 170.593C49.0689 170.535 48.8829 170.435 48.7246 170.3C48.5663 170.164 48.4396 169.996 48.3532 169.806C48.2667 169.617 48.2226 169.412 48.2238 169.204L48.5375 117.241L74.2815 118.859L68.6054 170.193C68.5654 170.545 68.3968 170.869 68.1316 171.105C67.8664 171.341 67.523 171.472 67.1669 171.473Z" fill="#2F2E41"/>
<path d="M62.4612 71.8797C66.8236 71.8797 70.3599 68.3694 70.3599 64.0392C70.3599 59.709 66.8236 56.1987 62.4612 56.1987C58.0989 56.1987 54.5625 59.709 54.5625 64.0392C54.5625 68.3694 58.0989 71.8797 62.4612 71.8797Z" fill="#FFB8B8"/>
<path d="M73.0015 121.147C72.9652 121.147 72.9288 121.145 72.8922 121.143L49.0994 119.415C48.7295 119.388 48.3841 119.221 48.1345 118.949C47.8849 118.677 47.7501 118.32 47.758 117.952L48.3854 88.2945C48.3433 86.4748 48.6758 84.6657 49.3625 82.9779C50.0492 81.2902 51.0756 79.7593 52.3789 78.4789C53.6823 77.1985 55.2351 76.1956 56.9424 75.5316C58.6497 74.8675 60.4756 74.5562 62.3083 74.6168C64.141 74.6774 65.942 75.1086 67.601 75.884C69.26 76.6594 70.7422 77.7626 71.9568 79.1263C73.1714 80.4899 74.0929 82.0852 74.6649 83.8146C75.2369 85.5439 75.4473 87.371 75.2834 89.1839C74.8674 93.7547 74.5364 113.723 74.4449 119.734C74.439 120.11 74.2845 120.469 74.0145 120.733C73.7445 120.998 73.3807 121.146 73.0015 121.147Z" fill="#6C63FF"/>
<path d="M30.6006 72.8442C30.6401 73.0165 30.6659 73.1915 30.6776 73.3678L44.4925 81.2788L47.8504 79.36L51.4302 84.0118L45.8182 87.9822C45.3648 88.3029 44.8189 88.469 44.2623 88.4556C43.7057 88.4421 43.1686 88.2498 42.7315 87.9075L28.4859 76.752C27.843 76.9882 27.1429 77.0245 26.4787 76.8561C25.8145 76.6878 25.2177 76.3226 24.7676 75.8093C24.3175 75.2961 24.0356 74.6589 23.9592 73.9827C23.8829 73.3064 24.0157 72.6231 24.3401 72.0237C24.6645 71.4242 25.1651 70.937 25.7753 70.6268C26.3855 70.3167 27.0763 70.1982 27.7559 70.2873C28.4356 70.3764 29.0718 70.6688 29.5799 71.1255C30.0881 71.5822 30.4441 72.1817 30.6006 72.8442Z" fill="#FFB8B8"/>
<path d="M44.6823 80.4881C44.7239 80.2858 44.809 80.0948 44.9317 79.9282C45.0544 79.7615 45.2119 79.6231 45.3935 79.5224L51.7331 76.0037C52.5754 75.3588 53.6409 75.0717 54.6961 75.2053C55.7514 75.3389 56.7102 75.8823 57.3625 76.7164C58.0148 77.5505 58.3073 78.6073 58.176 79.6551C58.0447 80.7029 57.5003 81.6564 56.662 82.3065L51.6074 87.5166C51.4631 87.6653 51.2883 87.7813 51.0948 87.8569C50.9012 87.9324 50.6936 87.9657 50.4859 87.9544C50.2783 87.9431 50.0755 87.8876 49.8914 87.7915C49.7074 87.6954 49.5463 87.561 49.4193 87.3976L44.9544 81.6535C44.8272 81.4901 44.7371 81.3014 44.6902 81.1003C44.6432 80.8991 44.6405 80.6903 44.6823 80.4881Z" fill="#6C63FF"/>
<path d="M66.5431 70.2465C65.3275 70.2375 64.1339 69.9229 63.074 69.3321C62.014 68.7413 61.1221 67.8935 60.4816 66.8678C60.4121 66.7596 60.0319 66.2054 59.5917 65.5638C58.3546 63.7607 58.0646 63.3317 58.04 63.2687C57.7052 62.4115 56.6426 62.0804 55.8102 61.9535C55.6549 61.9298 55.4974 61.9089 55.3394 61.8877C54.167 61.7319 52.9548 61.5707 52.2901 60.2916C51.8025 59.353 51.0052 55.5307 51.6176 54.5967C52.3852 53.4252 53.8593 53.8055 55.2849 54.1737C56.1971 54.4087 57.1401 54.6522 57.8917 54.4969C61.1491 53.8242 64.8413 53.0617 68.1019 55.0328C70.6971 56.6012 72.258 59.5634 72.1756 62.7634C72.0871 66.1997 70.5772 68.9122 68.1367 70.0195L67.6286 70.1664L67.3428 70.2013C67.0773 70.2313 66.8103 70.2464 66.5431 70.2465Z" fill="#2F2E41"/>
<path d="M246.966 58.0345C244.932 58.0347 242.96 58.7296 241.382 60.0024C239.803 61.2753 238.714 63.0487 238.297 65.0246C237.88 67.0005 238.161 69.0587 239.092 70.8535C240.023 72.6482 241.548 74.0701 243.411 74.8805C243.374 74.2042 243.426 73.526 243.565 72.863C243.735 72.1487 244.704 68.0707 244.704 68.0707C244.511 67.6329 244.414 67.1592 244.42 66.6812C244.42 65.3781 245.179 64.4047 246.128 64.4047C246.934 64.4047 247.322 65.0053 247.322 65.7235C247.322 66.5281 246.804 67.7292 246.539 68.8439C246.486 69.0504 246.483 69.2663 246.53 69.4742C246.577 69.6822 246.672 69.8763 246.808 70.0409C246.944 70.2055 247.118 70.3361 247.314 70.422C247.51 70.5079 247.724 70.5468 247.939 70.5355C249.615 70.5355 250.746 68.3964 250.746 65.8609C250.746 63.9337 249.437 62.4933 247.061 62.4933C244.376 62.4933 242.699 64.4832 242.699 66.7048C242.673 67.3312 242.882 67.9451 243.285 68.4278C243.355 68.4858 243.406 68.5645 243.429 68.6527C243.451 68.7408 243.445 68.8339 243.411 68.9185C243.368 69.0794 243.273 69.468 243.229 69.625C243.222 69.6724 243.203 69.7174 243.174 69.7562C243.146 69.795 243.108 69.8264 243.065 69.8479C243.022 69.8694 242.974 69.8803 242.925 69.8798C242.877 69.8792 242.829 69.8672 242.786 69.8447C241.549 69.3424 240.972 68 240.972 66.485C240.972 63.9887 243.095 60.9939 247.302 60.9939C250.683 60.9939 252.909 63.4235 252.909 66.0297C252.909 69.4797 250.975 72.0545 248.129 72.0545C247.172 72.0545 246.274 71.5403 245.966 70.9594C245.966 70.9594 245.452 72.9847 245.341 73.3772C245.136 74.0441 244.837 74.6785 244.451 75.2612C245.669 75.6184 246.951 75.7113 248.208 75.5337C249.466 75.3561 250.67 74.9121 251.74 74.2319C252.809 73.5516 253.719 72.651 254.407 71.5911C255.095 70.5312 255.546 69.3368 255.728 68.089C255.91 66.8411 255.82 65.569 255.463 64.3588C255.106 63.1487 254.492 62.0288 253.661 61.0752C252.83 60.1216 251.802 59.3565 250.647 58.8319C249.491 58.3072 248.236 58.0353 246.966 58.0345Z" fill="#3F3D56"/>
<path d="M197.089 29.1984L185.696 25.7193C185.552 25.6675 185.399 25.6445 185.245 25.6516C185.092 25.6588 184.942 25.6959 184.803 25.7608C184.664 25.8258 184.54 25.9173 184.437 26.0301C184.334 26.143 184.254 26.2749 184.203 26.4183L180.69 37.7518C180.603 38.0591 180.639 38.3877 180.789 38.6699C180.939 38.9521 181.192 39.1666 181.497 39.2691L192.886 42.7471C193.189 42.827 193.512 42.785 193.784 42.6303C194.056 42.4755 194.256 42.2205 194.34 41.9205L197.853 30.587C197.9 30.4461 197.916 30.2973 197.902 30.1497C197.889 30.0021 197.845 29.8588 197.773 29.7288C197.701 29.5987 197.604 29.4845 197.486 29.3933C197.368 29.3021 197.233 29.2358 197.089 29.1984ZM185.261 37.9497L183.305 37.3525L185.176 31.3171L187.131 31.9143L185.261 37.9497ZM186.505 30.7187L186.491 30.7144C186.211 30.6267 185.976 30.432 185.84 30.1731C185.703 29.9142 185.676 29.6121 185.763 29.3331C185.851 29.0541 186.046 28.8209 186.307 28.6845C186.567 28.5482 186.871 28.5199 187.153 28.6059C187.434 28.6918 187.67 28.8849 187.808 29.1429C187.946 29.401 187.975 29.7028 187.89 29.9824C187.804 30.262 187.61 30.4965 187.351 30.6345C187.091 30.7725 186.787 30.8028 186.505 30.7187ZM192.408 40.1323L190.452 39.5351L191.475 36.2351C191.72 35.4445 191.603 34.8174 190.895 34.6013C190.673 34.5355 190.436 34.5396 190.217 34.6131C189.998 34.6865 189.807 34.8258 189.67 35.0116C189.571 35.149 189.498 35.3037 189.455 35.4676L188.389 38.9052L186.434 38.308L188.305 32.2726L190.26 32.8698L190 33.7097C190.273 33.4584 190.609 33.2847 190.972 33.2068C191.336 33.1289 191.715 33.1498 192.067 33.2672C193.351 33.6592 194.062 34.7957 193.501 36.6064L192.408 40.1323Z" fill="#3F3D56"/>
<path fill-rule="evenodd" clip-rule="evenodd" d="M22.4879 76.9856C22.4875 75.3107 22.0038 73.6709 21.0938 72.2605C20.1838 70.85 18.8858 69.7279 17.3533 69.027C15.8208 68.326 14.1181 68.0756 12.4467 68.3054C10.7753 68.5352 9.20521 69.2355 7.92235 70.3235C6.63948 71.4115 5.69754 72.8416 5.20803 74.4445C4.71851 76.0474 4.70193 77.7559 5.16025 79.3679C5.61857 80.9798 6.53259 82.4276 7.7941 83.54C9.05561 84.6523 10.6118 85.3825 12.2784 85.6442V79.5199H10.0359V76.9856H12.2784V75.0542C12.2784 72.858 13.597 71.6439 15.6136 71.6439C16.2759 71.653 16.9366 71.7103 17.5905 71.8152V73.9724H16.4765C15.3803 73.9724 15.0373 74.6477 15.0373 75.3418V76.986H17.486L17.095 79.5203H15.0373V85.645C17.1145 85.3185 19.006 84.2669 20.3718 82.6795C21.7376 81.0922 22.4879 79.0731 22.4878 76.9856L22.4879 76.9856Z" fill="#3F3D56"/>
<path d="M259.849 180.681C259.849 180.765 259.815 180.846 259.754 180.906C259.694 180.966 259.613 181 259.527 181H0.321595C0.236303 181 0.154504 180.966 0.0941928 180.907C0.033882 180.847 0 180.765 0 180.681C0 180.596 0.033882 180.515 0.0941928 180.455C0.154504 180.395 0.236303 180.362 0.321595 180.362H259.527C259.613 180.362 259.694 180.396 259.754 180.455C259.815 180.515 259.849 180.596 259.849 180.681Z" fill="#3F3D56"/>
</g>
<defs>
<clipPath id="clip0">
<rect width="260" height="181" fill="white"/>
</clipPath>
</defs>
</svg>
