<svg width="120" height="107" viewBox="0 0 120 107" fill="none" xmlns="http://www.w3.org/2000/svg">
<g clip-path="url(#clip0)">
<path opacity="0.1" d="M69.722 18.8703C62.029 18.5394 54.6962 15.4662 47.7048 12.1044C40.7133 8.74269 33.7838 5.0173 26.2709 3.23595C21.4405 2.08894 15.9163 1.92762 12.0251 5.13214C8.27965 8.21498 7.06985 13.5372 6.4191 18.4752C5.92966 22.191 5.64571 26.1009 6.98367 29.5803C7.91505 31.9946 9.56789 34.0247 10.7114 36.3379C14.6888 44.3861 11.877 54.3114 7.56592 62.1764C5.54407 65.8676 3.19849 69.3797 1.63846 73.3047C0.0784228 77.2297 -0.644142 81.7261 0.72144 85.729C2.07487 89.6937 5.29879 92.6767 8.7923 94.7725C15.8876 99.0256 24.2479 100.242 32.4005 100.94C50.447 102.467 68.5907 101.805 86.6846 101.143C93.3811 100.897 100.107 100.65 106.694 99.366C110.353 98.6537 114.13 97.5245 116.786 94.7985C120.157 91.3369 120.993 85.4775 118.734 81.1369C114.944 73.8584 104.467 72.0497 101.818 64.238C100.36 59.9384 101.857 55.148 103.976 51.1602C108.521 42.6061 116.14 35.1007 116.541 25.3217C116.817 18.6051 113.154 11.8802 107.491 8.70167C101.556 5.36728 93.3247 5.78835 88.9462 11.2992C84.4374 16.9768 76.5135 19.1615 69.722 18.8703Z" fill="#6C63FF"/>
<path d="M26.7648 99.1213C26.7648 99.1213 20.6881 93.4369 19.5402 86.2062C19.0747 83.1693 17.826 80.4011 15.9815 78.3166C15.0991 77.336 14.1461 76.4574 13.1343 75.6917" stroke="#535461" stroke-width="2" stroke-miterlimit="10"/>
<path d="M12.3908 71.1365C12.9233 72.0278 13.1642 75.8052 13.1642 75.8052C13.1642 75.8052 10.317 74.4176 9.78336 73.5276C9.52711 73.0997 9.41871 72.5634 9.48201 72.0367C9.54531 71.51 9.77512 71.0359 10.1209 70.7188C10.4666 70.4018 10.9 70.2676 11.3257 70.3459C11.7514 70.4243 12.1345 70.7086 12.3908 71.1365Z" fill="#6C63FF"/>
<path d="M17.4974 74.1004C17.5526 75.2064 16.0975 78.5394 16.0975 78.5394C16.0975 78.5394 14.3154 75.4579 14.2591 74.3519C14.2376 73.8247 14.385 73.3082 14.6692 72.9144C14.9533 72.5206 15.3515 72.2812 15.7773 72.2482C16.2031 72.2151 16.6223 72.3909 16.944 72.7376C17.2658 73.0843 17.4642 73.5739 17.4963 74.1004H17.4974Z" fill="#6C63FF"/>
<path d="M22.447 82.6203C22.0449 83.61 19.4275 85.5787 19.4275 85.5787C19.4275 85.5787 19.148 81.8054 19.5501 80.8157C19.7481 80.3502 20.0858 79.9995 20.4907 79.8391C20.8955 79.6786 21.335 79.7212 21.7147 79.9577C22.0944 80.1943 22.3839 80.6058 22.5208 81.1037C22.6578 81.6017 22.6313 82.1462 22.447 82.6203Z" fill="#6C63FF"/>
<path d="M25.0202 90.1066C24.7584 91.1661 22.4481 93.6529 22.4481 93.6529C22.4481 93.6529 21.656 89.9931 21.9178 88.9322C22.0437 88.4231 22.3278 87.9968 22.7077 87.7469C23.0876 87.4971 23.5321 87.4442 23.9435 87.6C24.3549 87.7557 24.6995 88.1073 24.9014 88.5773C25.1033 89.0474 25.1461 89.5975 25.0202 90.1066Z" fill="#6C63FF"/>
<path d="M13.4636 81.219C14.3475 81.3666 17.1416 79.8054 17.1416 79.8054C17.1416 79.8054 14.7839 77.3883 13.8956 77.2407C13.4692 77.1698 13.0376 77.3114 12.6956 77.6343C12.3536 77.9572 12.1293 78.435 12.072 78.9625C12.0148 79.4901 12.1292 80.0242 12.3901 80.4474C12.6511 80.8705 13.0372 81.1481 13.4636 81.219Z" fill="#6C63FF"/>
<path d="M16.5626 89.9289C17.4465 89.7416 19.7302 87.2192 19.7302 87.2192C19.7302 87.2192 16.8952 85.7865 16.0124 85.9738C15.8011 86.0167 15.5987 86.1109 15.4169 86.2511C15.2352 86.3913 15.0776 86.5746 14.9534 86.7905C14.8292 87.0064 14.7408 87.2506 14.6933 87.509C14.6458 87.7674 14.6401 88.0349 14.6766 88.2961C14.7131 88.5572 14.791 88.8068 14.9058 89.0305C15.0207 89.2542 15.1702 89.4475 15.3458 89.5993C15.5213 89.7512 15.7194 89.8584 15.9287 89.915C16.1379 89.9715 16.3541 89.9763 16.5649 89.9289H16.5626Z" fill="#6C63FF"/>
<path d="M20.5125 97.8841C21.4085 97.8841 24.0049 95.8758 24.0049 95.8758C24.0049 95.8758 21.4074 93.8702 20.5114 93.8702C20.0812 93.8702 19.6687 94.0817 19.3645 94.4581C19.0603 94.8344 18.8895 95.3449 18.8895 95.8772C18.8895 96.4094 19.0603 96.9199 19.3645 97.2963C19.6687 97.6726 20.0812 97.8841 20.5114 97.8841H20.5125Z" fill="#6C63FF"/>
<path d="M85.7964 49.9557C85.7964 49.9557 89.5418 41.7462 95.1875 39.3811C97.5582 38.4069 99.6097 36.5078 101.034 33.9687C101.702 32.7548 102.279 31.4675 102.757 30.123" stroke="#535461" stroke-width="2" stroke-miterlimit="10"/>
<path d="M106.301 28.6192C105.658 29.3902 102.665 30.1886 102.665 30.1886C102.665 30.1886 103.4 26.5111 104.043 25.7387C104.353 25.3791 104.765 25.1847 105.19 25.1974C105.615 25.21 106.019 25.4287 106.315 25.8063C106.611 26.1839 106.776 26.6903 106.773 27.2164C106.77 27.7425 106.601 28.2462 106.301 28.6192Z" fill="#6C63FF"/>
<path d="M104.608 35.2675C103.725 35.4835 100.866 34.141 100.866 34.141C100.866 34.141 103.098 31.5434 103.977 31.3315C104.187 31.2736 104.406 31.2684 104.618 31.3163C104.831 31.3641 105.033 31.464 105.214 31.61C105.395 31.7561 105.551 31.9454 105.672 32.1669C105.793 32.3884 105.877 32.6375 105.919 32.8997C105.961 33.1619 105.96 33.4318 105.917 33.6937C105.873 33.9556 105.788 34.2041 105.666 34.4247C105.544 34.6452 105.388 34.8334 105.206 34.9781C105.024 35.1228 104.821 35.2212 104.608 35.2675Z" fill="#6C63FF"/>
<path d="M98.4479 42.4695C97.6016 42.1072 95.678 39.1597 95.678 39.1597C95.678 39.1597 98.6611 38.3148 99.5096 38.6771C99.7135 38.7608 99.9019 38.8937 100.064 39.0682C100.226 39.2427 100.358 39.4553 100.453 39.6937C100.548 39.932 100.604 40.1913 100.618 40.4566C100.631 40.7218 100.602 40.9878 100.532 41.2389C100.461 41.49 100.351 41.7214 100.208 41.9195C100.065 42.1177 99.8914 42.2787 99.6976 42.3931C99.5037 42.5076 99.2934 42.5733 99.0789 42.5864C98.8644 42.5995 98.6499 42.5598 98.4479 42.4695Z" fill="#6C63FF"/>
<path d="M92.7867 46.62C91.9028 46.4395 89.6092 43.9308 89.6092 43.9308C89.6092 43.9308 92.4364 42.4735 93.3192 42.654C93.7441 42.7404 94.1238 43.0322 94.3748 43.4651C94.6258 43.898 94.7276 44.4366 94.6577 44.9623C94.5878 45.4881 94.352 45.9579 94.0022 46.2685C93.6523 46.5791 93.2171 46.7051 92.7922 46.6186L92.7867 46.62Z" fill="#6C63FF"/>
<path d="M98.3705 31.2659C98.3694 32.3747 99.9947 35.5915 99.9947 35.5915C99.9947 35.5915 101.618 32.3788 101.618 31.2714C101.623 31.0035 101.586 30.737 101.507 30.4874C101.428 30.2379 101.309 30.0105 101.158 29.8186C101.007 29.6266 100.826 29.4741 100.627 29.3699C100.427 29.2658 100.213 29.2121 99.9963 29.2121C99.7798 29.2121 99.5654 29.2658 99.3659 29.3699C99.1664 29.4741 98.9857 29.6266 98.8346 29.8186C98.6835 30.0105 98.565 30.2379 98.486 30.4874C98.4071 30.737 98.3693 31.0035 98.375 31.2714L98.3705 31.2659Z" fill="#6C63FF"/>
<path d="M91.8045 36.2231C92.0718 37.2812 94.3964 39.7489 94.3964 39.7489C94.3964 39.7489 95.1698 36.0823 94.9002 35.0241C94.7604 34.5339 94.4724 34.1299 94.0966 33.8972C93.7209 33.6645 93.2869 33.6214 92.886 33.7767C92.485 33.9321 92.1485 34.274 91.9472 34.7303C91.7458 35.1866 91.6955 35.7218 91.8067 36.2231H91.8045Z" fill="#6C63FF"/>
<path d="M85.9632 42.1249C86.0825 43.2186 88.0359 46.1402 88.0359 46.1402C88.0359 46.1402 89.2965 42.6882 89.1772 41.5904C89.1535 41.3244 89.0871 41.067 88.9818 40.8332C88.8766 40.5995 88.7346 40.3941 88.5642 40.2293C88.3939 40.0644 88.1986 39.9434 87.9899 39.8733C87.7812 39.8032 87.5633 39.7854 87.349 39.821C87.1346 39.8567 86.9282 39.945 86.7419 40.0808C86.5555 40.2166 86.393 40.3972 86.2639 40.6118C86.1348 40.8265 86.0417 41.071 85.99 41.3308C85.9384 41.5907 85.9293 41.8607 85.9632 42.1249Z" fill="#6C63FF"/>
<path opacity="0.25" d="M106.301 28.6192C105.658 29.3902 102.665 30.1886 102.665 30.1886C102.665 30.1886 103.4 26.5111 104.043 25.7387C104.353 25.3791 104.765 25.1847 105.19 25.1974C105.615 25.21 106.019 25.4287 106.315 25.8063C106.611 26.1839 106.776 26.6903 106.773 27.2164C106.77 27.7425 106.601 28.2462 106.301 28.6192Z" fill="black"/>
<path opacity="0.25" d="M104.608 35.2675C103.725 35.4835 100.866 34.141 100.866 34.141C100.866 34.141 103.098 31.5434 103.977 31.3315C104.187 31.2736 104.406 31.2684 104.618 31.3163C104.831 31.3641 105.033 31.464 105.214 31.61C105.395 31.7561 105.551 31.9454 105.672 32.1669C105.793 32.3884 105.877 32.6375 105.919 32.8997C105.961 33.1619 105.96 33.4318 105.917 33.6937C105.873 33.9556 105.788 34.2041 105.666 34.4247C105.544 34.6452 105.388 34.8334 105.206 34.9781C105.024 35.1228 104.821 35.2212 104.608 35.2675Z" fill="black"/>
<path opacity="0.25" d="M98.4479 42.4695C97.6016 42.1072 95.678 39.1597 95.678 39.1597C95.678 39.1597 98.6611 38.3148 99.5096 38.6771C99.7135 38.7608 99.9019 38.8937 100.064 39.0682C100.226 39.2427 100.358 39.4553 100.453 39.6937C100.548 39.932 100.604 40.1913 100.618 40.4566C100.631 40.7218 100.602 40.9878 100.532 41.2389C100.461 41.49 100.351 41.7214 100.208 41.9195C100.065 42.1177 99.8914 42.2787 99.6976 42.3931C99.5037 42.5076 99.2934 42.5733 99.0789 42.5864C98.8644 42.5995 98.6499 42.5598 98.4479 42.4695Z" fill="black"/>
<path opacity="0.25" d="M92.7867 46.62C91.9028 46.4395 89.6092 43.9308 89.6092 43.9308C89.6092 43.9308 92.4364 42.4735 93.3192 42.654C93.7441 42.7404 94.1238 43.0322 94.3748 43.4651C94.6258 43.898 94.7276 44.4366 94.6577 44.9623C94.5878 45.4881 94.352 45.9579 94.0022 46.2685C93.6523 46.5791 93.2171 46.7051 92.7922 46.6186L92.7867 46.62Z" fill="black"/>
<path opacity="0.25" d="M98.3705 31.2659C98.3694 32.3747 99.9947 35.5915 99.9947 35.5915C99.9947 35.5915 101.618 32.3788 101.618 31.2714C101.623 31.0035 101.586 30.737 101.507 30.4874C101.428 30.2379 101.309 30.0105 101.158 29.8186C101.007 29.6266 100.826 29.4741 100.627 29.3699C100.427 29.2658 100.213 29.2121 99.9963 29.2121C99.7798 29.2121 99.5654 29.2658 99.3659 29.3699C99.1664 29.4741 98.9857 29.6266 98.8346 29.8186C98.6835 30.0105 98.565 30.2379 98.486 30.4874C98.4071 30.737 98.3693 31.0035 98.375 31.2714L98.3705 31.2659Z" fill="black"/>
<path opacity="0.25" d="M91.8045 36.2231C92.0718 37.2812 94.3964 39.7489 94.3964 39.7489C94.3964 39.7489 95.1698 36.0823 94.9002 35.0241C94.7604 34.5339 94.4724 34.1299 94.0966 33.8972C93.7209 33.6645 93.2869 33.6214 92.886 33.7767C92.485 33.9321 92.1485 34.274 91.9472 34.7303C91.7458 35.1866 91.6955 35.7218 91.8067 36.2231H91.8045Z" fill="black"/>
<path opacity="0.25" d="M85.9632 42.1249C86.0825 43.2186 88.0359 46.1402 88.0359 46.1402C88.0359 46.1402 89.2965 42.6882 89.1772 41.5904C89.1535 41.3244 89.0871 41.067 88.9818 40.8332C88.8766 40.5995 88.7346 40.3941 88.5642 40.2293C88.3939 40.0644 88.1986 39.9434 87.9899 39.8733C87.7812 39.8032 87.5633 39.7854 87.349 39.821C87.1346 39.8567 86.9282 39.945 86.7419 40.0808C86.5555 40.2166 86.393 40.3972 86.2639 40.6118C86.1348 40.8265 86.0417 41.071 85.99 41.3308C85.9384 41.5907 85.9293 41.8607 85.9632 42.1249Z" fill="black"/>
<path d="M86.0118 49.793C86.0118 49.793 86.7476 40.4092 91.1294 35.4192C92.9776 33.3396 94.2313 30.5747 94.7025 27.5391C94.9169 26.0961 95.0238 24.6316 95.0218 23.1644" stroke="#535461" stroke-width="2" stroke-miterlimit="10"/>
<path d="M97.7684 19.9981C97.437 21.0262 94.9577 23.2573 94.9577 23.2573C94.9577 23.2573 94.4252 19.5265 94.7599 18.4984C94.9211 18.0048 95.2341 17.6105 95.6302 17.4025C96.0263 17.1944 96.4729 17.1896 96.8718 17.389C97.2708 17.5884 97.5894 17.9758 97.7575 18.4658C97.9257 18.9559 97.9296 19.5086 97.7684 20.0022V19.9981Z" fill="#6C63FF"/>
<path d="M98.3993 26.9322C97.6668 27.5693 94.6096 27.7784 94.6096 27.7784C94.6096 27.7784 95.8007 24.2868 96.5332 23.6497C96.7069 23.4889 96.9049 23.3728 97.1156 23.3083C97.3262 23.2438 97.5452 23.2323 97.7595 23.2744C97.9738 23.3165 98.1791 23.4114 98.3632 23.5535C98.5473 23.6956 98.7065 23.8819 98.8314 24.1015C98.9563 24.321 99.0443 24.5694 99.0902 24.8318C99.1361 25.0942 99.139 25.3654 99.0987 25.6292C99.0584 25.893 98.9758 26.1441 98.8556 26.3677C98.7355 26.5913 98.5803 26.7828 98.3993 26.9308V26.9322Z" fill="#6C63FF"/>
<path d="M95.1223 36.6086C94.2296 36.7016 91.5051 34.9681 91.5051 34.9681C91.5051 34.9681 93.9578 32.6987 94.8505 32.6057C95.2792 32.5611 95.7047 32.729 96.0333 33.0726C96.3619 33.4162 96.5668 33.9072 96.6028 34.4376C96.6388 34.9681 96.5031 35.4945 96.2255 35.9012C95.9478 36.3078 95.551 36.5613 95.1223 36.6059V36.6086Z" fill="#6C63FF"/>
<path d="M91.3095 43.2378C90.4422 43.5112 87.521 42.3806 87.521 42.3806C87.521 42.3806 89.6279 39.6313 90.4952 39.3524C90.9116 39.2188 91.3538 39.2953 91.7246 39.5652C92.0954 39.835 92.3644 40.2761 92.4723 40.7913C92.5803 41.3065 92.5185 41.8537 92.3004 42.3125C92.0823 42.7713 91.7259 43.1041 91.3095 43.2378Z" fill="#6C63FF"/>
<path d="M91.3868 26.4017C91.7492 27.4147 94.2837 29.5461 94.2837 29.5461C94.2837 29.5461 94.7146 25.7947 94.3522 24.7817C94.1717 24.3077 93.8484 23.9399 93.4516 23.7569C93.0548 23.5739 92.6159 23.5902 92.2287 23.8023C91.8415 24.0144 91.5367 24.4054 91.3793 24.8919C91.222 25.3784 91.2247 25.9217 91.3868 26.4058V26.4017Z" fill="#6C63FF"/>
<path d="M87.0073 34.2244C87.5984 35.0569 90.5306 36.1479 90.5306 36.1479C90.5306 36.1479 90.0357 32.4088 89.4446 31.5762C89.305 31.374 89.1344 31.2081 88.9426 31.0881C88.7508 30.9681 88.5417 30.8965 88.3273 30.8774C88.113 30.8583 87.8977 30.8922 87.694 30.9769C87.4903 31.0617 87.3023 31.1956 87.1408 31.3711C86.9793 31.5466 86.8476 31.76 86.7533 31.999C86.6591 32.2379 86.6042 32.4977 86.5917 32.7632C86.5793 33.0286 86.6096 33.2945 86.681 33.5454C86.7523 33.7962 86.8632 34.027 87.0073 34.2244Z" fill="#6C63FF"/>
<path d="M83.5944 42.5528C84.0629 43.4961 86.804 45.1845 86.804 45.1845C86.804 45.1845 86.8272 41.3962 86.362 40.4516C86.1305 40.0154 85.7708 39.708 85.3591 39.5945C84.9474 39.481 84.5163 39.5704 84.157 39.8437C83.7977 40.117 83.5386 40.5528 83.4346 41.0585C83.3306 41.5643 83.3899 42.1003 83.5999 42.5528H83.5944Z" fill="#6C63FF"/>
<path d="M80.3771 13.0436C80.5605 12.2111 80.7815 11.3744 80.9361 10.5309C80.7505 11.3744 80.5285 12.2138 80.3771 13.0436Z" fill="url(#paint0_linear)"/>
<path d="M79.5551 21.0631C79.5396 21.0303 79.5286 20.9975 79.5164 20.9674C79.5164 20.9538 79.5054 20.9428 79.501 20.9292C79.4769 20.9432 79.4522 20.9555 79.4269 20.9661C79.3783 20.9893 79.3286 21.0112 79.2778 21.029C79.227 21.0467 79.206 21.0563 79.1673 21.0672C79.1352 21.0809 79.1024 21.0914 79.069 21.0987L79.0778 21.1233C79.1187 21.1124 79.1585 21.1028 79.1993 21.0891L79.2104 21.2586C79.2568 21.2586 79.2999 21.2504 79.3419 21.2504C79.3617 21.2491 79.3817 21.2491 79.4015 21.2504C79.4877 21.2504 79.5628 21.2504 79.6225 21.2504C79.5993 21.1889 79.575 21.1247 79.5551 21.0631ZM101.983 65.2387C101.464 64.3734 100.428 55.0852 100.428 55.0852C100.428 55.0852 98.3893 48.4806 98.945 45.8448C99.5008 43.209 97.427 36.4651 97.427 36.4651C97.427 36.4651 96.057 35.7282 95.983 34.6345C95.983 34.6345 90.3892 32.4471 90.1273 30.8066C89.9152 29.4613 86.446 28.4962 85.1997 28.1913C84.8197 26.2937 84.4374 24.5233 84.1557 23.5568C84.0794 23.256 84.0076 22.9962 83.9413 22.7912C83.4651 21.2874 81.9935 21.1506 80.9262 21.2709C80.88 21.0146 80.794 20.7718 80.6732 20.5559C80.6556 20.4817 80.6206 20.4156 80.5727 20.3659C80.5498 20.3418 80.5254 20.3198 80.4997 20.3003C80.4804 20.256 80.455 20.2162 80.4246 20.1827C80.3943 20.1489 80.3609 20.1196 80.3252 20.0952C80.2995 20.078 80.2729 20.063 80.2456 20.0501C80.1816 20.0199 80.1154 19.9975 80.0479 19.9831C79.9692 19.9631 79.8894 19.9503 79.8092 19.9448C80.0042 19.8393 80.1781 19.682 80.3185 19.4841C80.4141 19.3452 80.4852 19.1832 80.5274 19.0084C80.5624 18.863 80.578 18.7116 80.5738 18.56C80.5451 18.6224 80.5118 18.6815 80.4743 18.7363C80.5207 18.1307 80.2622 17.5155 80.1142 16.9126C79.9348 16.1277 79.9015 15.3027 80.0169 14.4996C80.165 13.2884 80.5318 12.0634 80.7804 10.8303C80.781 10.8235 80.781 10.8166 80.7804 10.8098C80.9107 10.1974 80.9914 9.57041 81.0212 8.9382C81.0643 7.66268 80.8003 6.38989 80.376 5.22785C79.9992 4.19841 79.4435 3.18538 78.5928 2.76704C77.9608 2.45124 77.2526 2.50182 76.572 2.44987C75.0451 2.3323 73.589 1.66788 72.1372 1.06361C70.6854 0.459349 69.1917 -0.090232 67.6637 0.0150359C66.1357 0.120304 64.5635 1.03217 63.8664 2.70552C63.6454 3.22776 63.5184 3.80878 63.2543 4.29958C62.7593 5.22511 61.8732 5.68856 61.1341 6.32701C60.395 6.96545 59.7442 7.87185 59.4768 8.95324C59.3308 9.53585 59.3103 10.1555 59.4172 10.751C59.4412 10.8855 59.4722 11.0179 59.51 11.1475C59.6149 11.5087 59.7784 11.8395 59.9906 12.1195C60.1506 12.3264 60.3346 12.5029 60.5364 12.6431C60.7898 12.8169 61.0611 12.9475 61.3429 13.0313C61.333 13.0724 61.323 13.1161 61.312 13.1585C61.2943 13.2282 61.2788 13.2952 61.2623 13.3704C61.2258 13.5385 61.1916 13.7094 61.1628 13.8817C61.1617 13.8939 61.1617 13.9063 61.1628 13.9186C61.0271 14.6962 60.959 15.4895 60.9595 16.2851C60.9593 16.6613 60.9748 17.0373 61.0059 17.4116C61.4479 22.9593 65.1491 27.3355 69.722 27.6198C69.8789 27.6294 70.0369 27.6349 70.1971 27.6349C70.27 27.6349 70.3418 27.6349 70.4181 27.6349C70.4899 27.7524 70.5606 27.8727 70.628 27.9903C70.6954 28.1079 70.7573 28.2282 70.8158 28.3458L70.6556 28.1407L70.4954 27.9589C70.452 28.0326 70.4036 28.1017 70.3507 28.1653C70.2462 28.1198 70.1396 28.0824 70.0314 28.0532C69.5729 27.9274 68.8746 27.8809 67.9554 28.2241C67.1102 28.5372 66.0772 29.1811 64.8685 30.4046L58.9786 34.7794L55.7922 37.1773L54.6443 40.6498C54.6443 40.6498 53.7814 44.7758 52.8213 49.5032C52.7837 49.5169 52.7473 49.5306 52.7108 49.547C52.633 49.536 52.5548 49.5306 52.4766 49.5306C51.9195 49.529 51.3837 49.7945 50.9815 50.2715C50.5794 50.7485 50.3422 51.3997 50.3199 52.0885C48.4108 54.9594 48.3025 57.8303 48.7511 59.1482C48.7917 59.2717 48.8428 59.3895 48.9035 59.4996C49.1974 60.0246 49.7465 61.378 50.3034 62.8203C50.289 62.9393 50.2802 63.0391 50.2757 63.1142C50.2747 63.1388 50.2747 63.1635 50.2757 63.1881C50.2757 63.1881 50.6072 69.3825 49.5023 71.1583C49.2604 71.5452 49.2969 72.0538 49.5023 72.6171C50.2426 74.6431 53.1693 77.3487 53.1693 77.3487C53.1693 77.3487 56.6794 77.3254 58.635 77.0616C58.6294 77.3049 58.625 77.5469 58.6206 77.7834C58.5764 80.1731 58.5764 82.1759 58.5764 82.1759L58.5035 84.6819C58.5035 84.6819 57.8406 89.963 57.5091 91.419C57.3003 92.3322 57.5412 100.788 57.7511 107.004H92.3348C92.7414 103.327 92.1679 92.1531 92.1679 92.1531C92.1679 92.1531 91.6233 89.2644 91.6034 86.7462C91.6023 86.7434 91.6017 86.7404 91.6017 86.7373C91.6017 86.7342 91.6023 86.7312 91.6034 86.7284C91.6034 86.5083 91.6034 86.2937 91.61 86.0832L91.8608 86.0722L92.3116 86.0531H92.3525C92.3525 86.0531 92.3635 86.0011 92.3889 85.9164C92.4486 85.7052 92.5299 85.5044 92.6309 85.3189C92.8231 84.9676 93.1236 84.6231 93.5755 84.5998C93.8252 84.5875 94.2119 84.3373 94.6483 83.9682C94.6512 83.969 94.6543 83.969 94.6572 83.9682C95.8316 82.9853 97.3839 81.1711 97.7607 80.8731C98.2788 80.4629 100.76 77.7287 100.76 77.7287C100.76 77.7287 101.13 77.1491 101.525 76.4505L101.539 76.4258C102.03 75.5509 102.551 74.5051 102.423 74.1756C102.202 73.585 102.571 72.1728 102.571 72.1728C103.723 69.5629 102.503 66.1041 101.983 65.2387ZM80.6191 23.189C80.6297 23.2298 80.6363 23.272 80.6389 23.3148C80.6113 23.2697 80.5837 23.2218 80.5561 23.1781L80.5296 23.1343L80.5108 23.1015L80.5528 23.0304C80.5528 23.0304 80.5528 23.0304 80.5528 23.04C80.5819 23.0843 80.6044 23.1348 80.6191 23.189ZM80.2478 21.9777C80.1274 22.0078 80.0324 22.0352 79.9705 22.0557C79.8921 21.8834 79.8169 21.7112 79.7496 21.5362C79.9267 21.6633 80.0935 21.8112 80.2478 21.9777ZM80.0401 22.1938C80.0398 22.191 80.0398 22.1883 80.0401 22.1855L80.049 22.1938C80.0943 22.2307 80.1385 22.2662 80.1793 22.3031C80.2158 22.3359 80.2489 22.3674 80.2821 22.4002C80.26 22.448 80.2357 22.4972 80.2114 22.5369C80.1727 22.4617 80.1362 22.3892 80.1009 22.3141C80.0788 22.284 80.0589 22.243 80.0401 22.1938ZM79.3772 20.5067C79.5907 20.4807 79.8057 20.4807 80.0191 20.5067C80.049 20.5067 80.0755 20.5136 80.102 20.519C80.1619 20.5305 80.2207 20.5493 80.2777 20.5751C80.4082 20.8011 80.4886 21.0656 80.5108 21.342L80.4511 21.353L80.3926 21.3666C80.2821 21.3899 80.1716 21.4131 80.0854 21.435L79.9749 21.4637C79.828 21.5034 79.7429 21.5334 79.7396 21.5348C79.7252 21.4979 79.7109 21.4637 79.6954 21.4282C79.6711 21.3694 79.6457 21.3092 79.6236 21.2504C79.6015 21.1917 79.5728 21.1247 79.5496 21.0631C79.5341 21.0303 79.5231 20.9975 79.5109 20.9674C79.5109 20.9538 79.4999 20.9428 79.4954 20.9292C79.489 20.9147 79.4835 20.8996 79.4789 20.8841C79.4115 20.7145 79.3496 20.545 79.2899 20.3782C79.2833 20.3618 79.2778 20.344 79.2723 20.3276L79.3562 20.3208V20.3563L79.3772 20.5067ZM53.0168 105.314C53.008 103.279 52.8887 101.076 52.5572 99.0092C52.4158 98.1302 52.27 97.2511 52.1219 96.3871C52.0844 96.1711 52.0479 95.9578 52.0114 95.7446L51.6712 95.8006H51.6402C50.7122 90.3855 49.7421 85.6142 49.7421 85.6142C49.7421 85.6142 47.8153 76.5106 48.0384 75.7847C48.0672 75.6903 48.0307 75.4361 47.9489 75.0628C47.4827 72.993 45.536 67.2894 44.8554 65.3399C44.8554 65.3317 44.8499 65.3221 44.8477 65.3153C44.7372 64.9886 44.6576 64.7685 44.6333 64.7042L44.7935 61.795L44.8024 61.62L44.8234 61.2481L44.8145 61.2386L44.8234 61.0663C44.8234 61.0663 43.1418 59.3601 40.2935 58.1284C40.183 58.0792 40.0659 58.0313 39.9499 57.9848C40.0924 56.8077 40.2814 55.4789 40.5277 54.1842C40.5509 54.0544 40.5764 53.9286 40.6029 53.8015C40.6261 53.6743 40.6526 53.5513 40.6791 53.4269C40.7211 53.2245 40.7664 53.0249 40.8128 52.8281C40.9664 52.7679 41.1177 52.7009 41.2669 52.6298L41.3243 52.6025C43.1618 51.7178 44.6779 50.0392 45.592 47.8776C46.5061 45.7159 46.7562 43.2176 46.2961 40.8453C46.0337 39.4999 45.5492 38.2361 44.8731 37.1336C44.8222 37.0488 44.7681 36.9641 44.714 36.8807C44.6598 36.7973 44.5947 36.7043 44.5339 36.6195C44.8532 35.7214 45.2299 34.8669 45.2609 33.9933C45.2664 33.8827 45.2664 33.7717 45.2609 33.6611V33.6474C45.22 33.0856 45.0189 32.5168 44.5505 31.9194C43.8666 31.0431 42.8932 30.5988 41.9198 30.3855C40.9465 30.1722 39.9543 30.1668 38.9754 30.0232C37.3524 29.7826 35.7714 29.1633 34.1484 28.9733C32.1493 28.7442 30.1366 29.1685 28.3115 30.2037C27.1039 30.8872 25.8809 32.0821 25.808 33.7213C25.7483 35.0761 26.5106 36.3748 26.3184 37.7132C26.1273 39.0284 25.0445 40.0633 25.1395 41.3935C25.176 41.913 25.3914 42.3778 25.661 42.7921C25.7538 42.9288 25.8522 43.0655 25.9538 43.2022C26.3471 43.7176 26.7802 44.2125 27.0001 44.8619C27.0089 44.8892 27.0178 44.9166 27.0255 44.9439C27.2122 45.5851 27.1282 46.3958 26.6664 46.7635C26.669 46.766 26.6709 46.7693 26.6719 46.7731C26.6786 46.7841 26.6852 46.7923 26.6907 46.8032C26.6914 46.801 26.6914 46.7986 26.6907 46.7964C26.8545 47.0366 27.0752 47.2069 27.3216 47.2831L27.4155 47.3186C27.3393 47.4211 27.2674 47.5278 27.1945 47.6399L27.147 47.7178C27.0253 47.9204 26.9145 48.1327 26.8156 48.3535C26.7592 48.4765 26.7051 48.5996 26.6598 48.7226C26.5083 49.0977 26.3987 49.4964 26.3339 49.9079C26.2156 50.8129 26.3825 51.7563 26.2035 52.6421C25.9825 53.7358 25.2832 54.5752 24.8887 55.591C24.1419 57.505 24.565 59.7511 24.7153 61.8647C24.9197 64.7356 24.5882 67.6189 24.2579 70.4707C24.0826 71.9873 23.9073 73.5052 23.732 75.0246C23.29 78.8379 22.8481 82.6512 22.4062 86.4646C22.2448 87.8618 22.0537 89.3355 21.3013 90.4142H21.309C21.309 90.4142 21.309 90.4224 21.3013 90.4251C21.5272 90.5473 21.7674 90.6239 22.0128 90.6521C22.995 90.7737 24.0358 90.1859 24.9197 89.5433C25.6196 89.0428 26.2825 88.4669 26.9006 87.8221C26.81 88.2323 26.7128 88.6793 26.609 89.1605C26.6093 89.1651 26.6093 89.1697 26.609 89.1742C25.3616 95.0528 23.3552 105.83 23.3552 105.83C23.3552 105.83 23.1729 106.299 22.9365 106.997H54.093C53.7284 106.45 53.3892 105.927 53.124 105.504L53.0168 105.314ZM29.9478 50.9579C29.9555 50.9415 29.961 50.9264 29.9688 50.9114C29.9688 50.9551 29.9688 50.9975 29.9688 51.0385C29.9688 51.0795 29.9688 51.1164 29.9688 51.1547C29.9688 51.193 29.9688 51.1889 29.9688 51.208C29.9688 51.2272 29.9688 51.208 29.9688 51.208C29.9688 51.2641 29.9588 51.3201 29.9511 51.3762C29.9511 51.3762 29.9511 51.383 29.9511 51.3885L30.0616 51.4391L30.1898 51.5047C30.9469 51.8747 31.7137 52.2097 32.49 52.5095C32.5696 52.541 32.6502 52.5711 32.7309 52.5998L32.7475 52.7693C32.7673 52.9429 32.7861 53.1193 32.8038 53.2956C32.8038 53.2956 32.8038 53.3038 32.8038 53.3093C32.8535 53.7974 32.9021 54.284 32.9452 54.7598C32.9452 54.7598 30.9167 53.8028 30.9421 55.2561C30.941 55.282 30.941 55.308 30.9421 55.334C30.9399 55.3686 30.9399 55.4033 30.9421 55.4379C30.9609 56.5699 31.2471 57.2411 31.3045 57.5856C31.3011 57.5999 31.295 57.613 31.2869 57.6239C31.2378 57.7559 31.2209 57.9027 31.2382 58.0463C31.2363 58.2909 31.2518 58.5352 31.2846 58.7764C31.225 58.8215 31.1664 58.8666 31.1079 58.9131C31.0637 58.9473 31.0217 58.9856 30.9786 59.0238C30.7076 57.8605 30.353 56.7295 29.9191 55.6443C29.6152 54.8705 29.2738 54.0639 29.2772 53.215C29.2772 53.1603 29.2772 53.1042 29.2827 53.0482C29.295 52.8021 29.3329 52.5591 29.3954 52.325C29.4208 52.2361 29.4484 52.1486 29.4793 52.0625C29.5515 51.8578 29.6323 51.658 29.7213 51.4637C29.7788 51.3352 29.8395 51.208 29.8981 51.0795C29.9169 51.0413 29.9345 51.0016 29.9522 50.9633L29.9478 50.9579ZM79.5551 21.0631C79.5396 21.0303 79.5286 20.9975 79.5164 20.9674C79.5164 20.9538 79.5054 20.9428 79.501 20.9292C79.4769 20.9432 79.4522 20.9555 79.4269 20.9661C79.3783 20.9893 79.3286 21.0112 79.2778 21.029C79.227 21.0467 79.206 21.0563 79.1673 21.0672L79.069 21.0987L79.0778 21.1233C79.1187 21.1124 79.1585 21.1028 79.1993 21.0891L79.2104 21.2586C79.2568 21.2586 79.2999 21.2504 79.3419 21.2504H79.4015C79.4877 21.2504 79.5628 21.2504 79.6225 21.2504C79.5993 21.1889 79.575 21.1247 79.5551 21.0631Z" fill="url(#paint1_linear)"/>
<path d="M55.4144 41.1433L54.7515 41.5056C54.7515 41.5056 50.4304 62.2775 50.4304 63.9564C50.4304 65.6352 59.5929 74.9767 59.5929 74.9767L61.0225 63.0363C61.0225 63.0363 58.9697 35.6543 55.4144 41.1433Z" fill="#E8F5FF"/>
<path d="M75.5125 34.5361L71.6843 32.0643C71.4698 30.9332 71.0893 29.8605 70.5617 28.8995C70.0016 27.8987 69.2569 26.9158 68.3289 26.4031C65.9833 25.1016 78.2503 18.2701 78.2503 18.2701C78.4435 19.0908 78.6711 19.8985 78.932 20.6899C79.564 22.6203 80.6125 25.1167 81.9637 25.8276C84.2606 27.0374 75.5125 34.5361 75.5125 34.5361Z" fill="#FFC1C7"/>
<path opacity="0.1" d="M78.932 20.6899C78.4079 22.971 77.3179 24.9906 75.816 26.4637C74.3141 27.9367 72.4761 28.7888 70.5617 28.8995C70.0016 27.8987 69.2569 26.9158 68.3289 26.4031C65.9833 25.1016 78.2503 18.2701 78.2503 18.2701C78.4435 19.0908 78.6711 19.8985 78.932 20.6899Z" fill="black"/>
<path d="M79.2767 17.2407C79.2772 19.4778 78.7414 21.6648 77.7373 23.5252C76.7332 25.3855 75.3057 26.8356 73.6355 27.692C71.9653 28.5484 70.1274 28.7727 68.3541 28.3365C66.5809 27.9003 64.952 26.8232 63.6736 25.2414C62.3951 23.6596 61.5244 21.6442 61.1717 19.4501C60.819 17.256 61 14.9817 61.6919 12.9149C62.3838 10.8481 63.5555 9.08165 65.0589 7.83892C66.5622 6.59618 68.3296 5.93302 70.1375 5.93329C71.3391 5.92641 72.53 6.21418 73.6412 6.77998C74.7525 7.34578 75.7622 8.17839 76.6119 9.22973C77.4617 10.2811 78.1347 11.5303 78.592 12.9053C79.0494 14.2803 79.2821 15.7538 79.2767 17.2407Z" fill="#FFC1C7"/>
<path d="M80.5959 33.0842L78.1033 40.2807L75.9047 45.0574H68.8669L66.8141 38.5267L67.646 31.754H73.0211L76.4914 31.512L77.6636 31.0281L78.4193 31.5585L80.5959 33.0842Z" fill="#575A89"/>
<path opacity="0.1" d="M79.7374 23.4911C79.7374 23.4911 81.2919 23.9013 79.8998 25.3135C78.5077 26.7257 73.705 31.2167 73.705 31.2167C73.705 31.2167 75.3921 33.076 75.0429 35.2538L80.6323 31.3985L81.6267 25.2301C81.6267 25.2301 81.7383 23.3763 79.7374 23.4911Z" fill="black"/>
<path opacity="0.1" d="M74.8043 31.2167L71.2489 31.9427C71.2489 31.9427 71.9826 35.2989 71.6158 36.2518C71.6047 36.2814 71.5954 36.3121 71.5881 36.3434L70.1375 41.1953L71.2246 45.0055L74.9877 38.6552L73.705 36.2518C73.705 36.2518 75.0606 34.0289 75.8672 33.2578C76.6737 32.4868 74.8043 31.2167 74.8043 31.2167Z" fill="black"/>
<path d="M74.8043 31.0294L71.2489 31.754C71.2489 31.754 71.9826 35.1103 71.6158 36.0631C71.6047 36.0927 71.5954 36.1234 71.5881 36.1547L70.1375 41.0066L71.2246 44.8168L74.9877 38.4624L73.705 36.059C73.705 36.059 75.0606 33.8361 75.8672 33.065C76.6737 32.294 74.8043 31.0294 74.8043 31.0294Z" fill="#DCE6F2"/>
<path d="M79.8866 23.1288C79.8866 23.1288 81.4411 23.539 80.0479 24.9512C78.6547 26.3634 73.705 31.2167 73.705 31.2167C73.705 31.2167 75.5379 32.7137 75.1899 34.8901L80.7793 31.0362L81.7736 24.8678C81.7736 24.8678 81.8841 23.014 79.8866 23.1288Z" fill="#575A89"/>
<path opacity="0.1" d="M70.8059 29.3273C70.8059 29.3273 71.1451 30.1121 72.6421 31.527C72.6421 31.527 70.1496 33.1676 71.1031 35.4739L67.2903 34.2435L66.7036 31.9754L70.8059 29.3273Z" fill="black"/>
<path d="M70.659 29.1469C70.659 29.1469 70.9982 29.9316 72.4952 31.3466C72.4952 31.3466 70.0027 32.9789 70.9562 35.2921L67.1445 34.0617L66.5578 31.795L70.659 29.1469Z" fill="#575A89"/>
<path opacity="0.1" d="M80.5959 33.0842L78.1033 40.2807L75.9091 45.0574H68.8669L66.8141 38.5267L67.6449 31.754H69.1398C69.1155 33.3344 69.5817 35.1909 69.5519 35.8813C69.5011 37.016 70.9197 43.1379 70.9197 43.1379C70.9197 43.1379 73.8884 37.1965 75.0606 36.6674C75.7975 36.3352 77.3587 33.5709 78.4182 31.5585L80.5959 33.0842Z" fill="black"/>
<path d="M90.4146 70.9546L90.1616 71.3484C90.1616 71.3484 91.9945 82.7323 91.4874 85.3175C91.4012 85.7835 91.352 86.2588 91.3404 86.7366V86.7571C91.2509 89.3874 91.8929 92.8011 91.8929 92.8011C91.8929 92.8011 92.4055 102.863 92.1138 107.001H57.7953C57.5942 100.882 57.3777 92.9542 57.5743 92.0752C57.9058 90.6247 58.5687 85.3627 58.5687 85.3627L58.6416 82.869C58.6416 82.869 58.6416 80.4588 58.7013 77.7738C58.7267 76.5666 58.7642 75.2993 58.8184 74.1755C58.888 72.762 58.9852 71.5712 59.1189 70.9861C59.2012 70.5426 59.2486 70.0902 59.2603 69.6354C59.2603 69.593 59.2603 69.5492 59.2669 69.5055C59.2669 69.3688 59.278 69.2211 59.2824 69.0694C59.2824 69.027 59.2824 68.9846 59.2824 68.9327C59.3034 68.0522 59.2957 67.0078 59.2725 65.925C59.2725 65.8662 59.2725 65.8061 59.2725 65.7459C59.2537 64.9339 59.2261 64.1054 59.1951 63.3179C59.099 60.8571 58.9741 58.7764 58.9741 58.7764L54.7592 41.496L55.895 38.0345L59.0471 35.6448L64.8751 31.2905C67.7179 28.3991 69.5895 28.7463 70.3032 29.0635C70.3725 29.0928 70.4404 29.127 70.5065 29.166C70.5286 29.1797 70.5462 29.1906 70.5628 29.2029C70.5855 29.2162 70.6073 29.2318 70.628 29.2494C70.4326 29.3658 70.2628 29.5388 70.133 29.7539C69.9869 29.9986 69.8827 30.2778 69.827 30.5741C69.7897 30.7579 69.7634 30.9448 69.7485 31.1333C69.7342 31.3315 69.7287 31.5366 69.7287 31.743C69.7365 32.1957 69.7679 32.6474 69.8226 33.0951C69.8226 33.1033 69.8226 33.1142 69.8226 33.1252C69.859 33.4451 69.9043 33.7582 69.9485 34.0521C69.948 34.0571 69.948 34.0621 69.9485 34.0671C69.9993 34.4103 70.0502 34.7274 70.0844 35.0009C70.0911 35.0501 70.0966 35.0952 70.1021 35.1376C70.1265 35.3183 70.1379 35.5013 70.1363 35.6844C70.1488 36.1267 70.1969 36.5664 70.28 36.9969C70.3087 37.1773 70.3419 37.3701 70.3783 37.571C70.428 37.8445 70.4822 38.1425 70.5407 38.446C70.5728 38.6128 70.607 38.785 70.6424 38.9559C70.6556 39.0243 70.67 39.0926 70.6832 39.1624L70.7053 39.2704C70.9407 40.4283 71.1959 41.5808 71.3528 42.278C71.4456 42.6882 71.5041 42.9411 71.5041 42.9411C71.5041 42.9411 73.168 39.6121 74.4961 37.7173C74.5159 37.69 74.5336 37.664 74.5524 37.6394C74.6839 37.4521 74.8131 37.2812 74.9369 37.1308C75.2076 36.7973 75.4506 36.5594 75.6462 36.4719C75.6879 36.453 75.7282 36.4296 75.7666 36.4022C76.3102 36.0207 77.1874 34.6358 78.0083 33.1853C78.089 33.0486 78.1674 32.8996 78.247 32.7588C78.4293 32.4334 78.6061 32.1067 78.7729 31.7936C78.901 31.5544 79.0237 31.322 79.1397 31.1005C79.6921 30.0369 80.081 29.2439 80.081 29.2439L80.8478 29.2016L80.9815 29.1934H81.0709L84.5523 28.9938C84.5523 28.9938 84.7026 29.0252 84.95 29.0867C84.9633 29.0867 84.9766 29.0867 84.9909 29.0977C86.2261 29.4012 89.6578 30.3622 89.8677 31.6952C90.124 33.3275 95.6593 35.5053 95.6593 35.5053C95.7322 36.599 97.0878 37.3195 97.0878 37.3195C97.0878 37.3195 99.1406 44.032 98.5915 46.6624C98.049 49.2599 100.003 55.6853 100.055 55.8658L99.6809 56.4509L90.4146 70.9546Z" fill="#E8F5FF"/>
<path opacity="0.1" d="M79.7363 23.014C79.7363 23.014 83.1249 21.8247 83.8949 24.2732C84.665 26.7217 86.3875 36.61 86.3875 36.61C86.3875 36.61 81.9151 37.6531 80.7428 36.61C80.0552 35.9909 79.2042 35.7156 78.3597 35.8389L75.8307 37.9703L75.0838 37.6969C75.0838 37.6969 79.1298 30.2543 80.0092 27.7251C80.8887 25.196 81.1859 24.0654 79.7363 23.014Z" fill="black"/>
<path d="M79.5894 22.4672C79.5894 22.4672 82.9801 21.2778 83.7535 23.7263C84.5269 26.1748 86.246 36.0631 86.246 36.0631C86.246 36.0631 81.7747 37.1062 80.6014 36.0631C79.9142 35.444 79.0635 35.1686 78.2194 35.2921L75.6882 37.4234L74.9413 37.15C74.9413 37.15 78.9872 29.7074 79.8667 27.1782C80.7461 24.6491 81.0389 23.5212 79.5894 22.4672Z" fill="#E8F5FF"/>
<path opacity="0.1" d="M56.844 61.9153C56.844 61.9153 59.373 62.6863 59.8503 64.4554C60.3276 66.2244 57.9809 66.2695 57.9809 66.2695C57.9809 66.2695 56.5513 63.1402 56.844 61.9153Z" fill="black"/>
<path opacity="0.1" d="M66.2639 74.9767C66.2639 74.9767 60.0702 90.6698 61.4998 92.1668C62.9295 93.6638 66.2639 74.9767 66.2639 74.9767Z" fill="black"/>
<path opacity="0.1" d="M74.8043 63.4123C74.8043 63.4123 79.7529 78.6556 78.763 81.0098C77.773 83.364 80.8887 81.0098 80.8887 81.0098L74.8043 63.4123Z" fill="black"/>
<path d="M81.6952 78.4697C81.6952 78.4697 64.9812 79.4677 69.8568 85.9081C74.7325 92.3486 84.7379 86.1816 84.7379 86.1816L81.6952 78.4697Z" fill="#FFC1C7"/>
<path opacity="0.1" d="M79.2767 17.2407C79.2782 18.7241 79.0428 20.1931 78.584 21.5635C78.4304 21.5854 78.2768 21.5991 78.1288 21.6073C77.9078 21.0071 78.026 20.314 78.0304 19.6537C78.0349 18.9934 77.8382 18.2168 77.3244 18.0391C76.3003 17.6823 75.5932 20.0515 74.5833 19.6236C73.81 19.2982 74.0121 17.8463 73.5669 17.0083C73.2144 16.3453 72.5085 16.158 71.9593 15.7424C70.7915 14.8551 70.8269 13.436 70.2844 12.0935C69.7165 10.6868 68.5167 11.1024 67.4748 11.9322C66.6837 12.5638 66.0009 13.4101 65.1546 13.9132C64.4221 14.3506 63.599 14.5092 62.787 14.5325C62.287 14.5564 61.7869 14.491 61.3021 14.3383C61.8724 11.6853 63.203 9.37949 65.0459 7.85092C66.8888 6.32234 69.1181 5.67536 71.3181 6.03061C73.518 6.38586 75.5385 7.7191 77.0026 9.78169C78.4667 11.8443 79.2746 14.4954 79.2756 17.2407H79.2767Z" fill="black"/>
<path d="M67.4781 11.5699C66.6859 12.2015 66.0042 13.0464 65.1579 13.5522C64.4254 13.9883 63.6023 14.1469 62.7903 14.1701C61.7959 14.1975 60.7253 13.9815 60.0458 13.0928C59.4216 12.2726 59.2724 11.0107 59.5365 9.93481C59.8006 8.85889 60.4336 7.96617 61.1772 7.31952C61.9207 6.67288 62.7836 6.22583 63.2764 5.30029C63.5371 4.81087 63.6631 4.23394 63.8796 3.71307C64.5724 2.04656 66.1302 1.14426 67.6361 1.03216C69.142 0.920055 70.6346 1.4751 72.0687 2.07663C73.5028 2.67817 74.9479 3.33985 76.4616 3.46426C77.1355 3.51621 77.836 3.46426 78.4613 3.78006C79.3021 4.2025 79.8534 5.2128 80.2291 6.24087C80.65 7.40018 80.9119 8.66613 80.8677 9.93208C80.7749 12.6349 79.3319 15.2871 79.9661 17.8764C80.1341 18.5668 80.4489 19.2749 80.281 19.9653C80.0357 20.9729 78.985 21.2026 78.1354 21.2504C77.9144 20.6503 78.0326 19.9558 78.0371 19.2968C78.0415 18.6379 77.8448 17.86 77.3322 17.6823C76.3069 17.3282 75.5998 19.6933 74.5922 19.2667C73.8243 18.94 74.0232 17.4895 73.5768 16.6515C73.2244 15.987 72.5173 15.8011 71.9693 15.3855C70.8015 14.4982 70.8368 13.0792 70.2943 11.7367C69.722 10.3231 68.5211 10.7387 67.4781 11.5699Z" fill="#99607E"/>
<path d="M51.2712 63.5927L50.4282 63.9564C50.4282 63.9564 50.7597 70.1248 49.6548 71.8938C48.55 73.6629 53.2831 78.0609 53.2831 78.0609C53.2831 78.0609 59.7708 78.0158 59.9542 77.3773C60.1376 76.7389 59.6227 65.9482 59.6227 65.9482C59.6227 65.9482 56.1402 64.2694 56.433 61.594C56.433 61.594 55.3702 67.8978 53.7947 67.6257C52.2192 67.3536 50.4304 65.7254 51.2712 63.5927Z" fill="#E8F5FF"/>
<path opacity="0.1" d="M54.083 69.5342C55.3113 69.5342 56.3071 68.4074 56.3071 67.0174C56.3071 65.6273 55.3113 64.5005 54.083 64.5005C52.8547 64.5005 51.859 65.6273 51.859 67.0174C51.859 68.4074 52.8547 69.5342 54.083 69.5342Z" fill="black"/>
<path d="M56.5148 63.7746C56.5148 63.7746 56.0728 47.0848 52.2258 50.8034C48.3787 54.5219 48.3412 58.9691 49.0737 60.2829C49.8062 61.5967 52.1551 68.1739 52.1551 68.1739C52.5225 68.4374 52.9351 68.5894 53.3592 68.6175C53.7832 68.6457 54.2066 68.549 54.5947 68.3356C54.9828 68.1222 55.3244 67.7981 55.5917 67.3898C55.859 66.9814 56.0444 66.5006 56.1325 65.9865L56.5148 63.7746Z" fill="#FFC1C7"/>
<path opacity="0.1" d="M80.513 21.4992C80.4951 21.4259 80.4606 21.3605 80.4136 21.3106C80.2236 21.0959 79.8148 21.0207 79.1983 21.0864L79.2237 21.4473C80.0457 21.3598 80.2081 21.5621 80.2291 21.5963V21.6305L80.2545 21.6756C80.357 21.846 80.4296 22.0411 80.4676 22.2483C80.5057 22.4554 80.5084 22.6701 80.4755 22.8787C80.2954 23.9929 79.1894 24.8801 79.1784 24.8897L79.1519 24.9088L79.1353 24.9403C78.658 25.8166 75.9589 28.2897 75.2529 28.9295L75.191 28.842C74.875 29.1811 72.0975 32.1901 71.9472 33.3426C71.85 34.0658 71.1915 34.346 70.9528 34.4239C70.7009 34.1874 69.8834 33.3822 69.458 32.4799C69.0591 31.6309 70.6645 29.974 70.8059 29.3273L70.5849 29.0471C70.5617 29.151 68.5001 31.5352 69.0735 32.7533C69.5331 33.7308 70.3728 34.5675 70.6667 34.8436C70.5728 35.8991 69.9883 42.0962 69.0901 43.5645C67.9742 45.3896 67.0362 54.5875 67.14 57.7989C67.2317 60.6521 66.6296 66.0412 64.6188 68.3557C64.2707 68.774 63.8507 69.0896 63.3902 69.279C62.9297 69.4683 62.4407 69.5266 61.9594 69.4494H61.9351H61.9108C61.8821 69.4494 58.9653 69.8186 56.5148 67.262C54.5095 65.1745 53.3737 61.7676 53.1373 57.1331H53.0887L53.0688 55.7838C53.6125 55.6787 54.1022 55.3171 54.4349 54.7747C54.7676 54.2323 54.9175 53.5515 54.853 52.8753C54.7886 52.1991 54.5148 51.5801 54.0892 51.1484C53.6637 50.7167 53.1195 50.5058 52.5709 50.5602C52.0224 50.6146 51.5123 50.93 51.1477 51.44C50.7831 51.9501 50.5925 52.6152 50.6159 53.2955C50.6393 53.9758 50.8749 54.6184 51.2732 55.0882C51.6715 55.5581 52.2014 55.8187 52.7517 55.8152H52.776L52.7959 57.1563L52.6987 57.1645C52.9417 61.9494 54.135 65.4889 56.2342 67.6749C57.8297 69.3109 59.8678 70.1362 61.9362 69.984C62.083 70.0038 62.2305 70.0139 62.3782 70.014C63.3263 70.0201 64.2386 69.5661 64.9193 68.7495C67.0373 66.3092 67.6814 60.7218 67.5809 57.7715C67.4704 54.3688 68.4548 45.5017 69.4425 43.8871C70.4104 42.3026 70.997 36.1287 71.0998 34.9325C71.45 34.8108 72.2422 34.4267 72.377 33.4287C72.4742 32.7068 74.3292 30.4826 75.4705 29.2508L75.4363 29.2016C76.0506 28.6465 77.9608 26.8966 78.9077 25.7728C79.2016 25.4242 79.4933 25.0756 79.7982 24.7434C80.165 24.3415 80.6312 23.703 80.7539 22.9484C80.7957 22.6993 80.7959 22.4422 80.7545 22.193C80.7131 21.9438 80.6309 21.7077 80.513 21.4992Z" fill="black"/>
<path d="M70.6291 34.7576C70.5827 34.7179 69.4823 33.7432 68.931 32.5702C68.3587 31.3521 70.4203 28.9692 70.4424 28.8653L70.6634 29.1456C70.523 29.7908 68.9177 31.4491 69.3166 32.2968C69.8193 33.3672 70.8777 34.3037 70.8887 34.3132L70.6291 34.7576Z" fill="#353146"/>
<path d="M75.1092 29.1947L74.9369 28.9008C74.9722 28.8694 78.4425 25.7633 78.9894 24.7584L79.0071 24.7284L79.0325 24.7079C79.0436 24.6983 80.1495 23.8124 80.3296 22.6968C80.3628 22.4885 80.3603 22.274 80.3223 22.0669C80.2842 21.8599 80.2114 21.6651 80.1086 21.4951L80.0832 21.4487V21.4158C80.0611 21.3803 79.8987 21.1793 79.0767 21.2668L79.0513 20.9045C79.6689 20.8389 80.0766 20.9141 80.2666 21.1288C80.3139 21.1791 80.3488 21.245 80.3672 21.3188C80.4866 21.5266 80.5704 21.7626 80.6134 22.012C80.6563 22.2615 80.6575 22.5192 80.6169 22.7693C80.4942 23.5253 80.0291 24.1637 79.6612 24.5643C79.3574 24.8965 79.0646 25.2479 78.7718 25.5938C77.6614 26.9103 75.2308 29.0867 75.1092 29.1947Z" fill="#E8F5FF"/>
<path d="M52.9262 55.3078L52.6335 55.3145L52.6661 57.5165L52.9588 57.5099L52.9262 55.3078Z" fill="#E8F5FF"/>
<path d="M52.6092 55.6416C53.7899 55.6416 54.747 54.4572 54.747 52.9962C54.747 51.5352 53.7899 50.3508 52.6092 50.3508C51.4285 50.3508 50.4713 51.5352 50.4713 52.9962C50.4713 54.4572 51.4285 55.6416 52.6092 55.6416Z" fill="#6C63FF"/>
<path d="M52.6092 55.1932C53.5898 55.1932 54.3847 54.2096 54.3847 52.9962C54.3847 51.7829 53.5898 50.7993 52.6092 50.7993C51.6286 50.7993 50.8337 51.7829 50.8337 52.9962C50.8337 54.2096 51.6286 55.1932 52.6092 55.1932Z" fill="#E8F5FF"/>
<path d="M62.239 69.8377C62.0913 69.838 61.9438 69.8284 61.797 69.809C59.7287 69.9597 57.6911 69.1346 56.0949 67.4999C53.9957 65.3125 52.8047 61.7772 52.5594 56.9882L53.0014 56.954C53.2378 61.5885 54.3736 64.9967 56.38 67.083C58.8305 69.6326 61.7462 69.2703 61.7749 69.2703H61.7992H61.8235C62.3049 69.3471 62.7941 69.2887 63.2547 69.0993C63.7153 68.91 64.1355 68.5946 64.484 68.1766C66.4937 65.8621 67.0958 60.473 67.0041 57.6198C66.8936 54.4057 67.8317 45.2078 68.9486 43.384C69.9264 41.7859 70.533 34.5825 70.5396 34.5101L70.5562 34.305L70.7197 34.2695C70.7297 34.2695 71.6842 34.0453 71.8036 33.1621C71.9582 32.011 74.7314 29.002 75.0463 28.6616L75.3346 29.0717C74.1889 30.3021 72.3339 32.5278 72.2411 33.251C72.1063 34.2517 71.3141 34.6345 70.965 34.7548C70.8545 35.9524 70.2722 42.1249 69.3077 43.7094C68.32 45.324 67.3356 54.1911 67.4461 57.5938C67.5411 60.544 66.9036 66.1328 64.7856 68.5717C64.1036 69.3904 63.1891 69.845 62.239 69.8377Z" fill="#353146"/>
<g opacity="0.1">
<path opacity="0.1" d="M80.218 14.0088C80.3992 13.1804 80.618 12.3464 80.7704 11.507C80.5881 12.3505 80.3683 13.1804 80.218 14.0088Z" fill="black"/>
<path opacity="0.1" d="M78.3696 20.519C78.1487 19.9189 78.2669 19.2244 78.2713 18.5654C78.2757 17.9065 78.0791 17.1354 77.5664 16.9509C76.5411 16.5968 75.834 18.9633 74.8264 18.5354C74.053 18.2086 74.2574 16.7581 73.8111 15.9201C73.4586 15.2556 72.7526 15.0697 72.2046 14.6541C71.0357 13.7669 71.0711 12.3478 70.5297 11.0053C69.9607 9.59715 68.7619 10.0128 67.719 10.844C66.9268 11.4756 66.2451 12.3218 65.3988 12.8263C64.6663 13.2624 63.8432 13.421 63.0311 13.4442C62.0423 13.4729 60.9662 13.2556 60.2867 12.3669C59.763 11.6834 59.5741 10.6813 59.6824 9.74207C59.6636 9.80632 59.647 9.87057 59.6304 9.93483C59.3653 11.0107 59.52 12.2753 60.1398 13.0929C60.8192 13.9815 61.8954 14.1975 62.8842 14.1702C63.6974 14.1469 64.5194 13.9883 65.253 13.5522C66.1015 13.0464 66.7832 12.2015 67.5731 11.5699C68.6161 10.7387 69.816 10.3231 70.3839 11.7312C70.9252 13.0737 70.891 14.4928 72.0588 15.38C72.6112 15.7902 73.3128 15.9816 73.6663 16.646C74.1083 17.4868 73.9127 18.9345 74.6817 19.2613C75.6882 19.6878 76.3953 17.3227 77.4206 17.6768C77.9332 17.8545 78.131 18.6338 78.1255 19.2914C78.1199 19.9489 78.005 20.6448 78.2238 21.245C79.0734 21.1971 80.1241 20.9716 80.3705 19.9599C80.4044 19.8147 80.4201 19.6639 80.4169 19.5128C80.0578 20.2798 79.1342 20.4767 78.3696 20.519Z" fill="black"/>
</g>
<path opacity="0.1" d="M98.3374 54.2047L99.6201 55.8836C99.6201 55.8836 100.646 65.1348 101.159 66.0002C101.672 66.8656 102.883 70.308 101.746 72.8932C101.746 72.8932 101.379 74.3 101.599 74.8892C101.819 75.4784 99.9504 78.4273 99.9504 78.4273C99.9504 78.4273 97.4944 81.1479 96.9806 81.5566C96.4669 81.9654 93.7556 85.2301 92.8397 85.2752C91.9238 85.3203 91.6244 86.7271 91.6244 86.7271L86.4559 86.954C86.4559 86.954 83.601 86.7694 82.9801 87.2684C82.9801 87.2684 83.3116 81.8711 80.1219 78.333L84.1899 76.5188C84.1899 76.5188 85.7301 75.6985 86.2062 74.8414C86.5058 74.3158 86.9308 73.9195 87.4216 73.708C87.4216 73.708 88.5573 72.71 88.5938 72.1659C88.6303 71.6218 89.9826 70.9546 89.9826 70.9546L89.2169 62.8682L89.6202 49.4431C89.6202 49.4431 90.9029 38.1945 93.6153 38.8302C96.3277 39.4659 98.3374 54.2047 98.3374 54.2047Z" fill="black"/>
<path d="M98.7793 54.2047L100.062 55.8836C100.062 55.8836 101.088 65.1348 101.601 66.0002C102.114 66.8656 103.325 70.308 102.188 72.8932C102.188 72.8932 101.822 74.3 102.042 74.8892C102.262 75.4784 100.392 78.4273 100.392 78.4273C100.392 78.4273 97.9363 81.1479 97.4226 81.5566C96.9088 81.9654 94.1976 85.2301 93.2817 85.2752C92.3657 85.3203 92.0663 86.7271 92.0663 86.7271L86.8979 86.954C86.8979 86.954 84.0408 86.7694 83.4221 87.2684C83.4221 87.2684 83.7535 81.8711 80.5638 78.333L84.6319 76.5188C84.6319 76.5188 86.172 75.6985 86.6482 74.8414C86.9478 74.3158 87.3727 73.9195 87.8635 73.708C87.8635 73.708 88.9993 72.71 89.0358 72.1659C89.0722 71.6218 90.4245 70.9546 90.4245 70.9546L89.6589 62.8682L90.0622 49.4431C90.0622 49.4431 91.3449 38.1945 94.0573 38.8302C96.7696 39.4659 98.7793 54.2047 98.7793 54.2047Z" fill="#E8F5FF"/>
<path opacity="0.1" d="M94.0109 67.7665C94.0109 67.7665 97.7861 66.5361 98.776 68.0399C99.766 69.5437 94.0109 67.7665 94.0109 67.7665Z" fill="black"/>
<path opacity="0.1" d="M93.1314 69.8295C94.4141 70.941 98.3728 70.9861 98.3728 70.9861L93.1314 69.8295Z" fill="black"/>
<path opacity="0.1" d="M95.0737 75.3855C95.1842 75.4306 97.7949 78.8785 98.8909 77.8354C99.9869 76.7923 95.0737 75.3855 95.0737 75.3855Z" fill="black"/>
<path opacity="0.1" d="M59.9133 46.4491C59.9133 46.4491 60.68 52.9812 60.3022 55.6416C59.9243 58.302 61.3032 61.5981 61.3032 61.5981L59.9133 46.4491Z" fill="black"/>
<path d="M42.9385 49.1054C42.0546 49.9626 41.4094 51.9914 40.9421 54.2211C40.1267 58.1106 39.8604 62.6207 39.8604 62.6207C39.8604 62.6207 32.8226 60.6247 33.3352 59.7183C33.6579 59.1482 33.2248 54.8528 32.8635 51.7385C32.648 49.8983 32.4558 48.4697 32.4558 48.4697C32.4558 48.4697 45.3581 46.7458 42.9385 49.1054Z" fill="#FFCCD0"/>
<path opacity="0.1" d="M42.9385 48.9236C42.0546 49.7822 41.4094 51.8096 40.9421 54.0394C39.5399 54.5662 38.0486 54.6137 36.6263 54.1769C35.204 53.74 33.9038 52.8351 32.8635 51.558C32.648 49.7165 32.4558 48.2879 32.4558 48.2879C32.4558 48.2879 45.3581 46.5653 42.9385 48.9236Z" fill="black"/>
<path d="M46.7215 44.0375C46.7222 46.4153 46.0431 48.7168 44.8043 50.5347C43.5655 52.3525 41.847 53.5695 39.9528 53.9702C38.0586 54.3709 36.1109 53.9295 34.4544 52.7241C32.798 51.5187 31.5395 49.6271 30.9018 47.384C30.2641 45.1409 30.2883 42.6909 30.9701 40.4677C31.6518 38.2446 32.9472 36.3915 34.6269 35.2365C36.3067 34.0815 38.2625 33.6991 40.1482 34.1568C42.0339 34.6146 43.728 35.8831 44.9305 37.7378C46.0894 39.5244 46.7211 41.7466 46.7215 44.0375Z" fill="#FFCCD0"/>
<path opacity="0.1" d="M53.1384 107.001H50.8182L50.6227 101.931L50.4183 96.6824C50.4183 96.6824 50.9453 96.5853 51.785 96.4404L52.1241 96.3843H52.1518C52.3352 97.4493 52.5164 98.543 52.6909 99.6353C52.9815 101.575 53.1327 103.542 53.1428 105.514C53.1428 105.651 53.1428 105.787 53.1428 105.916C53.1494 106.281 53.1428 106.646 53.1384 107.001Z" fill="black"/>
<path d="M52.6931 107.001H23.5961C23.722 106.647 23.806 106.433 23.806 106.433C23.806 106.433 26.1339 93.8305 27.3172 88.4988C27.3175 88.4943 27.3175 88.4897 27.3172 88.4851C27.465 87.7609 27.6435 87.0467 27.8519 86.3456C27.8654 86.2979 27.8828 86.2521 27.9038 86.2089C28.4894 85.0304 29.223 83.7604 28.1966 81.9462C27.1702 80.1321 27.5337 72.1495 27.5337 72.1495C27.5337 72.1495 28.78 65.3453 30.0992 61.717C30.2994 61.155 30.5835 60.6448 30.9366 60.2132C31.0514 60.0742 31.174 59.9454 31.3034 59.8277C31.4018 59.7362 31.5044 59.6517 31.6106 59.5747L31.6316 59.5583C32.1857 59.1696 32.8011 58.9331 33.4358 58.8652C33.8866 58.8069 34.3417 58.8225 34.7892 58.9117C36.9282 59.2999 38.6407 59.9493 40.0018 60.6889C43.6909 62.6945 44.8079 65.3822 44.83 65.4383L44.8388 65.4615C44.9869 65.8894 47.1524 72.1454 47.9324 75.0642C48.1346 75.8243 48.2451 76.3588 48.2009 76.5051C47.9799 77.2297 49.8868 86.3005 49.8868 86.3005C49.8868 86.3005 50.7707 90.6752 51.6546 95.8033C51.6933 96.0166 51.7297 96.2298 51.7651 96.4458C51.9231 97.3768 52.08 98.3256 52.2313 99.273C52.5246 101.226 52.6758 103.207 52.6832 105.193C52.6994 105.811 52.7027 106.414 52.6931 107.001Z" fill="#FF748E"/>
<path opacity="0.1" d="M33.2623 55.7455C33.2623 55.7455 31.2548 54.7885 31.2791 56.2404C31.3034 57.6923 31.7686 58.3867 31.6216 58.5986C31.4747 58.8106 31.6945 60.0806 31.6945 60.0806C31.6945 60.0806 34.4069 60.0806 35.6532 60.7751C36.8994 61.4696 41.4934 62.8613 42.08 63.2851C42.6667 63.7089 44.8421 65.6092 44.8421 65.6092L45.0377 62.011C45.0377 62.011 42.7893 59.7128 39.1003 58.5344C35.4112 57.3559 33.2623 55.7455 33.2623 55.7455Z" fill="black"/>
<path d="M33.2623 55.5637C33.2623 55.5637 31.2548 54.6067 31.2791 56.0586C31.3034 57.5104 31.7686 58.2049 31.6216 58.4168C31.4747 58.6287 31.6945 59.8988 31.6945 59.8988C31.6945 59.8988 34.4069 59.8988 35.6532 60.5946C36.8994 61.2905 41.4934 62.6809 42.08 63.1033C42.6667 63.5257 44.8421 65.4274 44.8421 65.4274L45.0399 61.8401C45.0399 61.8401 42.7916 59.542 39.1025 58.3635C35.4134 57.1851 33.2623 55.5637 33.2623 55.5637Z" fill="#FF748E"/>
<path opacity="0.1" d="M39.3224 64.223C39.3224 64.223 43.1584 69.362 42.9628 70.7851C42.7673 72.2083 39.3224 64.223 39.3224 64.223Z" fill="black"/>
<path opacity="0.1" d="M33.0911 82.787C33.0911 82.787 30.2793 85.9929 29.4506 86.1748C28.622 86.3566 30.0859 86.9609 31.0383 86.4783C31.9906 85.9957 34.0213 84.7256 34.0213 84.7256L33.0911 82.787Z" fill="black"/>
<path d="M53.8355 107.001H47.2783C46.3613 106.017 45.494 105.105 44.9416 104.557C44.0577 103.679 43.4202 102.387 43.0136 101.348C42.9219 101.112 42.8424 100.89 42.775 100.689C42.6543 100.343 42.5481 99.9896 42.4568 99.6299L47.3126 96.0617C47.5809 96.3441 47.8331 96.6492 48.0672 96.9749L48.1257 97.0583C48.3953 97.4521 48.6328 97.8991 48.6538 98.2655C48.6781 98.692 49.6371 100.342 50.6171 101.927C51.6115 103.538 52.6301 105.079 52.6975 105.183C52.6975 105.183 52.8655 105.466 53.1395 105.901C53.3328 106.215 53.5715 106.593 53.8355 107.001Z" fill="#FFCCD0"/>
<path opacity="0.1" d="M44.9305 37.7379C44.6974 38.3886 44.4886 39.064 44.4577 39.7885C44.3704 41.8802 44.5118 46.5571 42.6402 47.6071C41.7132 48.1238 40.7211 46.9891 39.7046 46.9618C38.9732 46.9427 38.3026 47.5168 37.8562 48.2346C37.4099 48.9523 37.1326 49.804 36.8089 50.6161C36.5142 51.3532 36.1748 52.0615 35.7935 52.7351C35.6796 52.9413 35.554 53.1372 35.4179 53.3216C34.2766 52.7257 33.2604 51.8154 32.4466 50.6599C31.6327 49.5044 31.0428 48.1343 30.7217 46.654C30.4006 45.1737 30.3569 43.6222 30.5937 42.1178C30.8306 40.6133 31.3419 39.1957 32.0887 37.9728C32.8354 36.7499 33.7979 35.7541 34.9027 35.0612C36.0076 34.3683 37.2257 33.9966 38.4643 33.9745C39.7028 33.9524 40.9291 34.2804 42.0497 34.9335C43.1703 35.5866 44.1556 36.5476 44.9305 37.7433V37.7379Z" fill="black"/>
<path d="M44.3107 39.4194C44.2223 41.5111 44.3649 46.188 42.4922 47.2365C41.5652 47.7533 40.573 46.62 39.5566 46.5926C38.8252 46.5721 38.1557 47.1477 37.7082 47.864C37.2607 48.5804 36.9856 49.4335 36.6608 50.2469C36.366 50.984 36.0266 51.6923 35.6455 52.366C35.4179 52.7652 35.166 53.1657 34.8157 53.3899C34.2059 53.7837 33.4667 53.5622 32.8126 53.3093C31.9641 52.9784 31.1281 52.6057 30.3047 52.191C30.3236 52.0371 30.3332 51.8818 30.3334 51.7261C30.3091 51.7836 30.2826 51.8369 30.256 51.8943L30.2041 52.0064C30.1102 52.2115 30.0185 52.4165 29.9345 52.6271C29.9025 52.7077 29.8716 52.7911 29.8439 52.8745C29.7328 53.1849 29.6631 53.5154 29.6373 53.8534C29.581 54.7652 29.9445 55.6306 30.2671 56.4509C31.5078 59.624 32.2746 63.3343 31.341 66.6633C30.9366 68.111 30.2362 69.3975 29.7246 70.796C28.8304 73.2731 28.5672 76.0285 28.97 78.6952C29.2252 80.3522 29.7368 81.9927 29.6108 83.6729C29.3899 86.5644 27.3746 88.7162 25.3561 90.1954C24.2656 90.9911 22.931 91.6992 21.7731 91.0704C22.5111 90.004 22.7012 88.5289 22.8603 87.1372C23.2956 83.3411 23.732 79.5433 24.1695 75.7436C24.3441 74.2316 24.5182 72.7196 24.6921 71.2075C25.0169 68.3667 25.3461 65.4944 25.1428 62.6357C24.9948 60.529 24.5772 58.2924 25.3152 56.3853C25.7052 55.375 26.4002 54.5383 26.6167 53.4501C26.7946 52.5656 26.6289 51.625 26.746 50.7241C26.8101 50.3142 26.9186 49.9168 27.0686 49.5429C27.2596 49.0354 27.5089 48.5648 27.8088 48.1457C27.5127 48.039 27.2365 47.8928 27.0686 47.5865C27.5437 47.2037 27.6155 46.3411 27.4 45.6931C27.1846 45.0451 26.7537 44.5515 26.3659 44.0402C25.9781 43.5289 25.6047 42.9329 25.5561 42.2356C25.4621 40.9082 26.5338 39.8801 26.7228 38.5704C26.9139 37.2375 26.1582 35.9414 26.219 34.5921C26.2897 32.9611 27.5006 31.7758 28.696 31.0882C30.5 30.0548 32.4927 29.6303 34.4721 29.8578C36.083 30.0464 37.6419 30.663 39.2483 30.9022C40.2173 31.039 41.1995 31.0526 42.1618 31.2632C43.1241 31.4737 44.0886 31.918 44.7659 32.7916C46.5513 35.0952 44.4124 36.9914 44.3107 39.4194Z" fill="#FFE0D0"/>
<path opacity="0.1" d="M42.817 101.35C42.2535 101.048 41.2282 101.228 39.4682 100.565C37.7082 99.9019 37.369 96.9052 37.369 96.9052V96.8956C37.348 96.8273 37.1845 96.3816 36.0775 94.8204C34.8544 93.0964 32.2105 84.3893 32.2105 84.3893C32.2105 84.3893 29.866 81.2736 29.9401 80.1252C30.0141 78.9769 29.5235 75.9214 29.5722 72.5036C29.6208 69.0858 34.85 66.8191 34.85 66.8191C44.9184 64.6112 42.5474 78.9741 42.2789 80.0624C42.0104 81.1506 43.4036 84.0899 43.4036 84.0899C43.207 85.3695 44.2102 87.3504 44.2102 87.3504C44.2102 87.3504 44.4532 89.1031 44.503 89.7689C44.5057 89.7996 44.5113 89.8299 44.5195 89.8591C44.6808 90.4866 45.9956 91.0553 46.5303 91.4012C47.0927 91.7649 48.9013 94.9393 48.9013 94.9393C49.2913 97.2702 43.3782 101.656 42.817 101.35Z" fill="black"/>
<path d="M43.1098 100.803C42.5474 100.499 41.521 100.681 39.7621 100.017C38.0032 99.3523 37.6629 96.3583 37.6629 96.3583V96.3488C37.643 96.279 37.4784 95.8347 36.3713 94.2735C35.1483 92.5496 32.5044 83.841 32.5044 83.841C32.5044 83.841 30.1599 80.7267 30.2328 79.5784C30.3058 78.43 29.8174 75.3745 29.866 71.9594C29.9146 68.5444 35.1405 66.2791 35.1405 66.2791C45.209 64.0712 42.838 78.4341 42.5695 79.5223C42.301 80.6105 43.6942 83.5498 43.6942 83.5498C43.4976 84.8295 44.5008 86.8104 44.5008 86.8104C44.5008 86.8104 44.7438 88.5631 44.7946 89.2288C44.7965 89.2596 44.8017 89.29 44.8101 89.3191C44.9714 89.9466 46.2862 90.5153 46.822 90.8612C47.3833 91.2235 49.193 94.3993 49.193 94.3993C49.5852 96.7261 43.6721 101.112 43.1098 100.803Z" fill="#FF748E"/>
<path opacity="0.1" d="M35.3394 73.7777C35.3394 73.7777 39.7378 79.5196 40.8857 79.5196C42.0336 79.5196 35.3394 73.7777 35.3394 73.7777Z" fill="black"/>
<path d="M43.1098 100.803C42.5474 100.499 41.521 100.681 39.7621 100.017C38.0032 99.3524 37.6629 96.3584 37.6629 96.3584V96.3488C38.8285 95.3918 41.7806 92.6891 42.944 91.7006C43.7627 91.0075 44.4311 89.989 44.8223 89.3137C44.9836 89.9412 46.2983 90.5099 46.8342 90.8558C47.3954 91.218 49.2052 94.3939 49.2052 94.3939C49.5852 96.7261 43.6721 101.112 43.1098 100.803Z" fill="#FF748E"/>
<g opacity="0.1">
<path opacity="0.1" d="M27.0752 47.6015C27.0807 47.6125 27.0885 47.622 27.0951 47.633C27.1282 47.581 27.1625 47.5291 27.1978 47.4799C27.1602 47.5252 27.1191 47.5659 27.0752 47.6015Z" fill="black"/>
<path opacity="0.1" d="M29.6384 53.8684C29.6848 53.1097 30.013 52.4411 30.3201 51.774C30.119 51.6783 29.918 51.5812 29.7191 51.4801C29.738 51.3267 29.7476 51.1718 29.7478 51.0166C29.4374 51.7002 29.0993 52.3728 29.0518 53.1425C28.9954 54.0557 29.3589 54.9197 29.6815 55.74C30.9234 58.9117 31.689 62.622 30.7554 65.9523C30.35 67.3987 29.6506 68.6866 29.1391 70.0851C28.2452 72.5618 27.9823 75.3168 28.3856 77.983C28.6386 79.6413 29.1512 81.2804 29.0253 82.9606C28.8043 85.8521 26.7902 88.0039 24.7705 89.4818C23.9452 90.086 22.9807 90.6397 22.0581 90.6001C21.9727 90.7702 21.8775 90.9324 21.7731 91.0854C22.9321 91.7184 24.2656 91.0061 25.3561 90.2077C27.3768 88.7312 29.3954 86.5848 29.6163 83.6879C29.7423 82.0077 29.2297 80.3686 28.9755 78.7103C28.5722 76.0443 28.8342 73.2896 29.7268 70.8124C30.2351 69.4152 30.9422 68.1261 31.3432 66.6796C32.2768 63.3494 31.51 59.639 30.2693 56.4673C29.9478 55.6416 29.5821 54.7816 29.6384 53.8684Z" fill="black"/>
<path opacity="0.1" d="M44.7637 32.808C44.655 32.6701 44.5383 32.5421 44.4146 32.4252C45.7536 34.5743 43.8202 36.4008 43.7241 38.714C43.6379 40.8056 43.7793 45.4839 41.9066 46.5311C40.9807 47.0493 39.9875 45.9146 38.9721 45.8872C38.2396 45.8681 37.5701 46.4436 37.1226 47.16C36.6752 47.8764 36.4001 48.7294 36.0764 49.5415C35.781 50.2784 35.4413 50.9868 35.0599 51.6605C34.8389 52.0611 34.5804 52.4603 34.2291 52.6859C33.6214 53.0782 32.8823 52.8581 32.2271 52.6038C31.59 52.3559 30.9587 52.0825 30.3334 51.7836C30.3321 51.926 30.3225 52.0681 30.3047 52.2087C31.1289 52.6243 31.9652 52.9971 32.8138 53.327C33.4678 53.5813 34.207 53.8014 34.8157 53.4091C35.166 53.1835 35.4201 52.7829 35.6466 52.3824C36.0282 51.7096 36.3676 51.0016 36.6619 50.2647C36.9867 49.4526 37.2607 48.5982 37.7093 47.8818C38.1579 47.1655 38.8263 46.5913 39.5577 46.6104C40.5742 46.6378 41.5674 47.7725 42.4933 47.2543C44.366 46.2071 44.2234 41.5288 44.3107 39.4372C44.4124 37.0051 46.5513 35.1102 44.7637 32.808Z" fill="black"/>
</g>
<path opacity="0.1" d="M30.2052 52.0078C30.1113 52.2129 30.0196 52.4179 29.9356 52.6285C29.9036 52.7091 29.8727 52.7925 29.845 52.8759C29.2661 52.1541 27.8563 50.4383 27.0697 49.9065C27.261 49.3992 27.5103 48.9287 27.8099 48.5093C27.8099 48.5093 29.6848 49.7356 30.2052 52.0078Z" fill="black"/>
<path d="M30.2571 51.8957C29.8229 49.4636 27.8099 48.1471 27.8099 48.1471C27.51 48.5662 27.2607 49.0368 27.0697 49.5443C27.8994 50.1062 29.4285 51.9901 29.9356 52.6285L30.2571 51.8957Z" fill="#FF748E"/>
</g>
<defs>
<linearGradient id="paint0_linear" x1="80.6566" y1="13.0436" x2="80.6566" y2="10.5309" gradientUnits="userSpaceOnUse">
<stop stop-color="#808080" stop-opacity="0.25"/>
<stop offset="0.54" stop-color="#808080" stop-opacity="0.12"/>
<stop offset="1" stop-color="#808080" stop-opacity="0.1"/>
</linearGradient>
<linearGradient id="paint1_linear" x1="50687" y1="90025.1" x2="50687" y2="6276.74" gradientUnits="userSpaceOnUse">
<stop stop-color="#808080" stop-opacity="0.25"/>
<stop offset="0.54" stop-color="#808080" stop-opacity="0.12"/>
<stop offset="1" stop-color="#808080" stop-opacity="0.1"/>
</linearGradient>
<clipPath id="clip0">
<rect width="120" height="107" fill="white"/>
</clipPath>
</defs>
</svg>
