<svg width="149" height="115" viewBox="0 0 149 115" fill="none" xmlns="http://www.w3.org/2000/svg">
<g clip-path="url(#clip0)">
<path d="M124.495 17.683L113.001 17.8071C112.461 14.858 110.645 7.11979 112.28 5.00912C112.355 4.21472 112.703 3.4828 113.251 2.96571C113.8 2.44862 114.508 2.18622 115.227 2.23312C117.009 -0.85904 119.976 -0.394773 121.982 1.53641C124 2.30867 124.761 3.68063 124.495 5.54244C125.99 6.99328 126.266 8.75842 125.595 10.7677L124.495 17.683Z" fill="#2F2E41"/>
<path d="M123.388 25.5342L115.096 24.261L113.437 21.5732C115.722 19.8928 116.53 17.5458 115.478 14.3586L121.22 14.2171C120.951 17.0553 121.797 19.2529 124.154 20.583L123.388 25.5342Z" fill="#FFB9B9"/>
<path d="M113.135 108.472L112.818 113.279C112.804 113.496 112.831 113.715 112.899 113.919C112.968 114.124 113.074 114.31 113.212 114.466C113.351 114.621 113.517 114.741 113.701 114.819C113.885 114.897 114.081 114.931 114.278 114.918L116.504 114.768C116.608 114.761 116.708 114.729 116.799 114.674C116.89 114.619 116.968 114.543 117.029 114.451C117.091 114.358 117.133 114.252 117.152 114.139C117.172 114.027 117.17 113.911 117.145 113.8L115.909 108.318L113.135 108.472Z" fill="#E6E6E6"/>
<path d="M120.344 108.318L119.108 113.8C119.083 113.911 119.08 114.027 119.1 114.139C119.12 114.252 119.162 114.358 119.223 114.451C119.284 114.543 119.363 114.619 119.453 114.674C119.544 114.729 119.645 114.761 119.748 114.768L121.974 114.918C122.171 114.931 122.368 114.897 122.551 114.819C122.735 114.741 122.902 114.621 123.04 114.466C123.178 114.31 123.285 114.124 123.353 113.919C123.421 113.715 123.449 113.496 123.434 113.279L123.117 108.472L120.344 108.318Z" fill="#E6E6E6"/>
<path d="M123.261 109.139L120.256 108.805L117.265 73.3491L116.134 108.691L113.182 108.574L108.206 59.627H127.216L123.261 109.139Z" fill="#6C63FF"/>
<path d="M118.668 16.622C121.839 16.622 124.409 13.7719 124.409 10.2561C124.409 6.74036 121.839 3.89026 118.668 3.89026C115.497 3.89026 112.927 6.74036 112.927 10.2561C112.927 13.7719 115.497 16.622 118.668 16.622Z" fill="#FFB9B9"/>
<path d="M130.023 60.7587L106.803 61.0417C110.249 46.4959 112.31 32.9842 108.717 23.6952L114.458 20.583C117.226 23.7846 120.309 23.4545 123.644 20.3001L129.13 21.8562C128.19 34.0373 128.611 47.0832 130.023 60.7587Z" fill="#6C63FF"/>
<path d="M100.424 45.7635L114.841 52.1294L118.064 53.1805C118.208 53.2276 118.359 53.2418 118.508 53.2223C118.658 53.2029 118.802 53.1502 118.932 53.0674C119.063 52.9847 119.177 52.8735 119.267 52.7406C119.358 52.6078 119.424 52.456 119.46 52.2943C119.524 52.0109 119.495 51.7115 119.379 51.4492C119.263 51.187 119.067 50.9789 118.825 50.8618L115.478 49.7245L105.4 43.2172L107.505 37.0635L103.103 34.4464L100.424 45.7635Z" fill="#FFB9B9"/>
<path d="M100.552 34.1635C103.294 35.35 105.476 37.375 107.186 40.105L112.544 31.4757L108.717 23.6952L100.552 34.1635Z" fill="#6C63FF"/>
<path d="M125.139 9.22443C122.808 8.55871 120.517 8.46731 118.29 9.31172C116.872 10.0736 115.168 10.0034 113.274 9.37565V3.02441L123.502 3.32685L125.139 9.22443Z" fill="#2F2E41"/>
<path d="M114.793 38.3465C114.342 38.3471 113.91 38.5459 113.591 38.8993C113.272 39.2528 113.093 39.732 113.092 40.2319L113.764 55.8105C113.764 56.3104 113.943 56.7896 114.262 57.1431C114.581 57.4966 115.013 57.6954 115.464 57.6959H123.137C123.588 57.6954 124.02 57.4966 124.339 57.1431C124.658 56.7896 124.837 56.3104 124.838 55.8105L125.509 40.2319C125.508 39.732 125.329 39.2528 125.01 38.8993C124.692 38.5459 124.259 38.3471 123.809 38.3465H114.793Z" fill="#3F3D56"/>
<path d="M136.565 44.5867L123.999 50.1348L123.051 50.5534C123.021 50.5664 122.99 50.5776 122.959 50.5887L119.782 51.625C119.376 51.7571 118.814 51.1506 118.485 50.732C118.322 50.5302 118.23 50.2705 118.225 49.9998C118.22 49.7291 118.303 49.4655 118.458 49.2566C118.502 49.2005 118.551 49.1488 118.603 49.1022C118.725 48.9965 118.869 48.9262 119.022 48.8975L122.195 48.2054C122.309 48.1806 122.418 48.1354 122.519 48.0714L123.999 47.1151L131.682 42.155C131.896 42.0173 132.058 41.7999 132.141 41.5417C132.224 41.2834 132.221 41.001 132.133 40.7447L130.667 36.4562C130.577 36.1938 130.576 35.9041 130.665 35.6411C130.754 35.3782 130.925 35.16 131.149 35.0273L133.578 33.5836C133.717 33.5009 133.871 33.4543 134.028 33.4472C134.186 33.4401 134.343 33.4727 134.487 33.5425C134.632 33.6124 134.76 33.7177 134.862 33.8505C134.965 33.9833 135.038 34.1401 135.078 34.3092L137.187 43.2173C137.252 43.4905 137.225 43.7805 137.11 44.0328C136.995 44.285 136.802 44.482 136.565 44.5867Z" fill="#FFB9B9"/>
<path d="M137.295 32.6075C134.552 33.794 132.37 35.819 130.661 38.5489L125.302 29.9196L129.13 21.8562L137.295 32.6075Z" fill="#6C63FF"/>
<path d="M122.489 15.9221C119.977 17.0805 117.344 17.0334 114.602 15.9221C115.4 14.4124 114.208 13.2301 113.596 11.7062L123.831 11.3689C123.048 12.6928 121.893 14.2569 122.489 15.9221Z" fill="white"/>
<path d="M123.723 11.6209L123.604 11.4893L123.772 11.3033L124.774 10.0061L124.902 10.127L123.895 11.4294L123.723 11.6209Z" fill="white"/>
<path d="M112.894 10.8323L112.787 10.9753L113.794 11.9055L113.901 11.7625L112.894 10.8323Z" fill="white"/>
<path d="M124.012 12.7146L122.25 15.7842L122.391 15.8841L124.153 12.8145L124.012 12.7146Z" fill="white"/>
<path d="M113.079 12.7144L112.938 12.8143L114.699 15.8841L114.841 15.7842L113.079 12.7144Z" fill="white"/>
<path d="M124.334 46.8519V50.2225L123.276 50.6898C123.243 50.7044 123.209 50.7168 123.173 50.7293L119.628 51.886C119.174 52.0335 118.547 51.3565 118.18 50.8892C117.998 50.664 117.895 50.374 117.89 50.0719C117.884 49.7698 117.976 49.4754 118.15 49.2423C118.199 49.1797 118.253 49.122 118.311 49.0699C118.448 48.952 118.609 48.8735 118.779 48.8415L122.321 48.0689C122.448 48.0413 122.57 47.9908 122.683 47.9194L124.334 46.8519Z" fill="white"/>
<path d="M125.868 34.8294H125.262C125.262 25.3201 123.496 18.6933 121.775 18.6933L121.624 18.0209C123.167 18.0209 124.151 20.779 124.704 23.0928C125.455 26.2295 125.868 30.3976 125.868 34.8294Z" fill="#3F3D56"/>
<path d="M111.922 32.4762H111.316C111.316 23.7672 113.094 18.3571 115.712 18.3571L115.56 19.0295C113.749 19.0295 111.922 23.1873 111.922 32.4762Z" fill="#3F3D56"/>
<path d="M125.565 36.6783C126.402 36.6783 127.081 35.9257 127.081 34.9974C127.081 34.0691 126.402 33.3166 125.565 33.3166C124.728 33.3166 124.049 34.0691 124.049 34.9974C124.049 35.9257 124.728 36.6783 125.565 36.6783Z" fill="#3F3D56"/>
<path d="M109.497 36.5102H108.89C108.89 34.1005 110.114 32.14 111.619 32.14V32.8124C110.449 32.8124 109.497 34.4712 109.497 36.5102Z" fill="#3F3D56"/>
<path d="M114.347 36.5102H113.741C113.741 34.4712 112.789 32.8124 111.619 32.8124V32.14C113.123 32.14 114.347 34.1005 114.347 36.5102Z" fill="#3F3D56"/>
<path d="M114.044 37.3506C114.379 37.3506 114.651 37.0496 114.651 36.6783C114.651 36.3069 114.379 36.0059 114.044 36.0059C113.709 36.0059 113.438 36.3069 113.438 36.6783C113.438 37.0496 113.709 37.3506 114.044 37.3506Z" fill="#3F3D56"/>
<path d="M109.193 37.3506C109.528 37.3506 109.8 37.0496 109.8 36.6783C109.8 36.3069 109.528 36.0059 109.193 36.0059C108.858 36.0059 108.587 36.3069 108.587 36.6783C108.587 37.0496 108.858 37.3506 109.193 37.3506Z" fill="#3F3D56"/>
<path d="M36.1209 14.0837L25.4717 16.0833C25.2086 16.133 24.9383 16.0728 24.7129 15.9143C24.4876 15.7558 24.3233 15.5102 24.2518 15.2251C23.4825 12.146 21.8739 8.12926 23.4356 6.11286C23.5152 5.26458 23.8868 4.483 24.473 3.93083C25.0592 3.37866 25.8148 3.09845 26.5827 3.14853C28.4851 -0.153403 31.6538 0.342361 33.7954 2.40456C35.9508 3.22921 36.7634 4.69425 36.4792 6.68237C37.4103 7.5861 37.8985 8.60405 38.0014 9.72132C38.0502 10.3431 37.9789 10.9692 37.7922 11.558C37.6054 12.1467 37.3076 12.6845 36.9185 13.1355L36.1209 14.0837Z" fill="#2F2E41"/>
<path d="M34.4652 23.3798L26.2097 22.8414C27.0188 20.7823 27.342 18.7996 27.0191 16.9183H33.1702C33.1563 18.3628 33.8046 20.8614 34.4652 23.3798Z" fill="#9F616A"/>
<path d="M24.5279 107.964L24.1893 113.097C24.1739 113.329 24.2036 113.562 24.2762 113.781C24.3489 114 24.4628 114.198 24.6105 114.364C24.7581 114.53 24.936 114.659 25.1322 114.742C25.3284 114.825 25.5384 114.861 25.7481 114.847L28.1257 114.687C28.2359 114.68 28.3433 114.646 28.4401 114.587C28.537 114.528 28.6211 114.447 28.6863 114.348C28.7516 114.249 28.7965 114.136 28.8177 114.016C28.839 113.896 28.8361 113.772 28.8093 113.653L27.4896 107.8L24.5279 107.964Z" fill="#E6E6E6"/>
<path d="M32.2254 107.8L30.9056 113.653C30.8788 113.772 30.876 113.896 30.8972 114.016C30.9185 114.136 30.9634 114.249 31.0286 114.348C31.0939 114.447 31.1779 114.528 31.2748 114.587C31.3717 114.646 31.479 114.68 31.5892 114.687L33.9669 114.847C34.1766 114.861 34.3866 114.825 34.5828 114.742C34.779 114.659 34.9569 114.53 35.1045 114.364C35.2521 114.198 35.3661 114 35.4387 113.781C35.5113 113.562 35.541 113.329 35.5257 113.097L35.1871 107.964L32.2254 107.8Z" fill="#E6E6E6"/>
<path d="M35.3405 108.677L32.132 108.32L28.9376 70.4582L27.7303 108.198L24.578 108.072L19.2648 55.8052H39.5639L35.3405 108.677Z" fill="#6C63FF"/>
<path d="M30.2569 19.0971C33.6428 19.0971 36.3875 16.0537 36.3875 12.2994C36.3875 8.5451 33.6428 5.50165 30.2569 5.50165C26.8711 5.50165 24.1263 8.5451 24.1263 12.2994C24.1263 16.0537 26.8711 19.0971 30.2569 19.0971Z" fill="#9F616A"/>
<path d="M37.1664 9.05199C34.6782 8.5715 32.2318 8.50553 29.8537 9.11499C28.3389 9.66486 26.5197 9.6142 24.4965 9.16113V4.57703L35.4188 4.79532L37.1664 9.05199Z" fill="#2F2E41"/>
<path d="M34.3369 17.7537C31.6549 18.9906 28.8428 18.9404 25.9156 17.7537C26.7674 16.1416 25.4942 14.8791 24.8406 13.2518L35.7703 12.8916C34.9345 14.3053 33.7012 15.9755 34.3369 17.7537Z" fill="white"/>
<path d="M24.088 12.3234L23.9805 12.4664L25.0555 13.4597L25.163 13.3167L24.088 12.3234Z" fill="white"/>
<path d="M35.9684 14.3319L34.0865 17.6097L34.2281 17.7097L36.1099 14.4318L35.9684 14.3319Z" fill="white"/>
<path d="M24.284 14.3317L24.1424 14.4316L26.0237 17.7098L26.1653 17.6099L24.284 14.3317Z" fill="white"/>
<path d="M18.6017 43.3029L13.9074 40.0721L17.9108 27.071C18.3573 25.7294 19.2126 24.603 20.3287 23.8866L21.6773 23.0208L21.7945 36.1365L18.6017 43.3029Z" fill="#6C63FF"/>
<path d="M38.8925 49.6172L38.198 43.0212C38.1609 39.5397 38.6951 36.1736 39.9688 33.0721L40.6163 23.3798L33.4939 20.149C33.4721 20.31 33.4535 20.4708 33.4327 20.6317L30.0946 22.4824L26.8392 21.662L26.8572 20.508L20.3823 23.7388C22.5235 34.7769 21.3557 46.2395 17.6735 59.7788L26.2036 62.365L26.2745 57.8234L33.8766 57.2213C33.9549 58.6948 34.0178 60.1421 34.0544 61.5573C38.344 63.3085 38.4914 63.2794 42.3998 60.7722C40.8433 57.1436 39.6109 53.3677 38.8925 49.6172Z" fill="#6C63FF"/>
<path d="M49.843 41.6874L45.4725 40.0721L38.4816 31.048L40.6163 23.3799L50.3286 38.4568L49.843 41.6874Z" fill="#6C63FF"/>
<path d="M36.1458 48.6738C36.2173 49.0217 36.4104 49.3241 36.6826 49.5144C36.9548 49.7048 37.284 49.7678 37.5981 49.6894L41.3081 48.7578L40.7719 46.132L37.0618 47.0635C36.7478 47.1424 36.4748 47.3563 36.3031 47.6583C36.1313 47.9603 36.0747 48.3255 36.1458 48.6738V48.6738Z" fill="#E6E6E6"/>
<path d="M39.4832 45.6362L41.5876 49.9439C45.127 48.8493 48.1945 45.3985 51.138 41.3285L50.3287 38.4567L45.3106 39.8926L39.4832 45.6362Z" fill="#6C63FF"/>
<path d="M12.0458 32.124L16.0856 32.9238L25.3194 47.4818L20.414 46.202L12.0458 32.124Z" fill="#E6E6E6"/>
<path d="M11.3293 31.9457C11.2678 31.9468 11.2076 31.9661 11.1551 32.0018C11.1026 32.0374 11.0597 32.088 11.0309 32.1484C11.002 32.2087 10.9884 32.2765 10.9913 32.3447C10.9942 32.4129 11.0136 32.479 11.0474 32.536L19.6786 47.0567C19.7267 47.1379 19.8011 47.1955 19.8864 47.2177L23.9022 48.2653C23.97 48.283 24.0409 48.2774 24.1057 48.2494C24.1705 48.2213 24.226 48.172 24.265 48.1081C24.304 48.0442 24.3245 47.9687 24.3238 47.8916C24.3232 47.8145 24.3014 47.7394 24.2614 47.6763L14.7849 32.7356C14.7592 32.6949 14.7265 32.6602 14.6887 32.6336C14.6509 32.6069 14.6088 32.5887 14.5646 32.5801L11.3941 31.9522C11.3727 31.948 11.351 31.9458 11.3293 31.9457Z" fill="#3F3D56"/>
<path d="M16.7135 42.3279L16.9534 45.0071L20.7387 44.5904C21.0591 44.5552 21.3538 44.3802 21.5578 44.104C21.7619 43.8279 21.8587 43.4732 21.8269 43.1179C21.7951 42.7626 21.6373 42.4359 21.3883 42.2096C21.1392 41.9833 20.8193 41.876 20.4989 41.9112L16.7135 42.3279Z" fill="#E6E6E6"/>
<path d="M13.4219 42.0175C13.4274 42.9311 13.7583 43.8052 14.3425 44.4494C14.9267 45.0936 15.7168 45.4557 16.5407 45.4567H17.1631L17.6163 41.2695L13.8644 39.7719L13.4219 42.0175Z" fill="#6C63FF"/>
<path d="M35.4712 13.3548L35.3526 13.2233L35.5318 13.0246L36.6025 11.639L36.7298 11.76L35.6548 13.1507L35.4712 13.3548Z" fill="white"/>
<path d="M149 114.628H0V115H149V114.628Z" fill="#3F3D56"/>
<path d="M56.8817 114.442H92.1182V67.0513C92.1182 64.5419 89.8891 62.5004 87.1492 62.5004H61.8508C59.1108 62.5004 56.8817 64.5419 56.8817 67.0513V114.442Z" fill="#E6E6E6"/>
<path d="M59.5664 112.482H89.4335V72.313C89.4335 70.186 87.5441 68.4556 85.2217 68.4556H63.7783C61.4558 68.4556 59.5664 70.186 59.5664 72.313V112.482Z" fill="white"/>
<path d="M56.6156 58.8123C55.7446 58.8123 55.036 59.4612 55.036 60.2589V64.4346C55.036 65.2322 55.7446 65.8812 56.6156 65.8812H92.3845C93.2554 65.8812 93.964 65.2322 93.964 64.4346V60.2589C93.964 59.4612 93.2554 58.8123 92.3845 58.8123H56.6156Z" fill="#3F3D56"/>
<path d="M63.9594 107.331C63.5505 107.333 63.1587 107.513 62.8696 107.834C62.5804 108.155 62.4175 108.589 62.4163 109.042C62.4175 109.496 62.5804 109.93 62.8695 110.251C63.1587 110.572 63.5505 110.752 63.9594 110.754H66.8478V107.331H63.9594Z" fill="#3F3D56"/>
<path d="M69.4988 107.331H66.6895V110.754H69.4988C69.9077 110.752 70.2995 110.572 70.5887 110.251C70.8778 109.93 71.0408 109.496 71.042 109.042C71.0408 108.589 70.8778 108.155 70.5887 107.834C70.2995 107.513 69.9077 107.333 69.4988 107.331Z" fill="#6C63FF"/>
<path opacity="0.2" d="M70.5058 107.75C70.7491 108.06 70.8834 108.456 70.8837 108.867C70.8825 109.32 70.7195 109.755 70.4304 110.075C70.1413 110.396 69.7495 110.577 69.3406 110.578H66.6895V110.754H69.4988C69.9077 110.752 70.2995 110.571 70.5887 110.251C70.8778 109.93 71.0408 109.496 71.042 109.042C71.0416 108.797 70.9935 108.555 70.901 108.332C70.8084 108.109 70.6737 107.91 70.5058 107.75Z" fill="black"/>
<path d="M76.9936 81.5583C76.7123 81.2293 76.325 81.0371 75.9162 81.0238C75.5075 81.0104 75.1106 81.1769 74.8123 81.4869C74.5155 81.7989 74.3422 82.2284 74.3302 82.6816C74.3181 83.1348 74.4683 83.5748 74.7479 83.9057L76.7291 86.2362L78.9749 83.8889L76.9936 81.5583Z" fill="#3F3D56"/>
<path d="M80.7933 86.0279L78.8664 83.7612L76.6206 86.1085L78.5476 88.3752C78.8289 88.7042 79.2162 88.8964 79.625 88.9098C80.0337 88.9232 80.4306 88.7567 80.7289 88.4466C81.0257 88.1347 81.199 87.7052 81.211 87.252C81.2231 86.7988 81.0729 86.3587 80.7933 86.0279Z" fill="#6C63FF"/>
<path opacity="0.2" d="M81.209 87.1278C81.1729 87.5364 81.0047 87.9167 80.7355 88.1985C80.4372 88.5086 80.0403 88.6751 79.6316 88.6617C79.2229 88.6483 78.8355 88.4561 78.5542 88.1271L76.7357 85.9882L76.6206 86.1085L78.5476 88.3752C78.8289 88.7042 79.2162 88.8964 79.625 88.9098C80.0337 88.9232 80.4306 88.7567 80.7289 88.4466C80.8898 88.278 81.0159 88.0729 81.0987 87.8453C81.1816 87.6177 81.2192 87.3729 81.209 87.1278Z" fill="black"/>
<path d="M68.7718 86.9538C68.4904 86.6248 68.1031 86.4326 67.6944 86.4193C67.2857 86.4059 66.8888 86.5724 66.5904 86.8824C66.2937 87.1944 66.1204 87.6239 66.1083 88.0771C66.0962 88.5303 66.2464 88.9703 66.526 89.3012L68.5073 91.6317L70.7531 89.2844L68.7718 86.9538Z" fill="#3F3D56"/>
<path d="M72.5715 91.4234L70.6445 89.1567L68.3987 91.504L70.3257 93.7707C70.6071 94.0997 70.9944 94.2919 71.4031 94.3053C71.8118 94.3186 72.2087 94.1521 72.5071 93.8421C72.8038 93.5302 72.9771 93.1007 72.9892 92.6475C73.0013 92.1943 72.8511 91.7542 72.5715 91.4234Z" fill="#6C63FF"/>
<path opacity="0.2" d="M72.9872 92.5233C72.9511 92.9319 72.7829 93.3122 72.5137 93.594C72.2153 93.9041 71.8185 94.0706 71.4097 94.0572C71.001 94.0438 70.6137 93.8516 70.3323 93.5226L68.5139 91.3837L68.3987 91.504L70.3257 93.7707C70.6071 94.0997 70.9944 94.2919 71.4031 94.3053C71.8118 94.3187 72.2087 94.1522 72.5071 93.8421C72.6679 93.6735 72.794 93.4684 72.8769 93.2408C72.9597 93.0132 72.9974 92.7684 72.9872 92.5233Z" fill="black"/>
<path d="M76.9936 91.9773C76.7123 91.6483 76.325 91.4561 75.9162 91.4427C75.5075 91.4293 75.1106 91.5958 74.8123 91.9059C74.5155 92.2178 74.3422 92.6473 74.3302 93.1005C74.3181 93.5537 74.4683 93.9938 74.7479 94.3246L76.7291 96.6551L78.9749 94.3078L76.9936 91.9773Z" fill="#3F3D56"/>
<path d="M80.7933 96.4468L78.8664 94.1801L76.6206 96.5275L78.5476 98.7941C78.8289 99.1231 79.2162 99.3153 79.625 99.3287C80.0337 99.3421 80.4306 99.1756 80.7289 98.8656C81.0257 98.5536 81.199 98.1241 81.211 97.6709C81.2231 97.2177 81.0729 96.7776 80.7933 96.4468Z" fill="#6C63FF"/>
<path opacity="0.2" d="M81.209 97.5466C81.1729 97.9552 81.0047 98.3355 80.7355 98.6174C80.4372 98.9274 80.0403 99.094 79.6316 99.0806C79.2229 99.0672 78.8355 98.875 78.5542 98.546L76.7357 96.407L76.6206 96.5274L78.5476 98.7941C78.8289 99.1231 79.2162 99.3153 79.625 99.3287C80.0337 99.342 80.4306 99.1755 80.7289 98.8655C80.8898 98.6969 81.0159 98.4917 81.0987 98.2641C81.1816 98.0365 81.2192 97.7918 81.209 97.5466Z" fill="black"/>
<path d="M82.0094 102.669C82.3027 102.353 82.4713 101.921 82.4784 101.468C82.4855 101.015 82.3305 100.577 82.0473 100.25C81.7624 99.9244 81.373 99.7375 80.9641 99.7296C80.5553 99.7218 80.1603 99.8936 79.8653 100.208L77.7877 102.433L79.9318 104.894L82.0094 102.669Z" fill="#3F3D56"/>
<path d="M78.025 106.936L80.0457 104.772L77.9016 102.311L75.8809 104.475C75.5876 104.791 75.419 105.223 75.4119 105.676C75.4048 106.129 75.5598 106.567 75.843 106.894C76.1279 107.219 76.5174 107.406 76.9262 107.414C77.335 107.422 77.7301 107.25 78.025 106.936Z" fill="#6C63FF"/>
<path opacity="0.2" d="M77.0382 107.411C76.6693 107.375 76.3243 107.194 76.0668 106.899C75.7836 106.572 75.6286 106.134 75.6357 105.68C75.6428 105.227 75.8114 104.795 76.1047 104.479L78.0115 102.437L77.9016 102.311L75.8809 104.475C75.5876 104.791 75.419 105.223 75.4119 105.676C75.4048 106.129 75.5598 106.567 75.843 106.894C75.9971 107.071 76.1836 107.208 76.3898 107.297C76.5961 107.386 76.8172 107.425 77.0382 107.411Z" fill="black"/>
<path d="M70.9351 97.2736C71.2283 96.9576 71.3969 96.5258 71.404 96.0725C71.4111 95.6192 71.2562 95.1812 70.9729 94.8541C70.688 94.5289 70.2986 94.342 69.8898 94.3341C69.4809 94.3262 69.0859 94.4981 68.791 94.8121L66.7134 97.0371L68.8575 99.4986L70.9351 97.2736Z" fill="#3F3D56"/>
<path d="M66.9507 101.541L68.9713 99.3767L66.8272 96.9153L64.8066 99.0793C64.5133 99.3953 64.3447 99.8271 64.3376 100.28C64.3305 100.734 64.4855 101.172 64.7687 101.499C65.0536 101.824 65.443 102.011 65.8519 102.019C66.2607 102.027 66.6557 101.855 66.9507 101.541Z" fill="#6C63FF"/>
<path opacity="0.2" d="M65.9638 102.015C65.595 101.98 65.2499 101.798 64.9925 101.503C64.7093 101.176 64.5543 100.738 64.5614 100.285C64.5685 99.8314 64.7371 99.3996 65.0304 99.0837L66.9372 97.0415L66.8272 96.9153L64.8066 99.0793C64.5133 99.3953 64.3447 99.8271 64.3376 100.28C64.3305 100.734 64.4855 101.172 64.7687 101.499C64.9227 101.675 65.1092 101.812 65.3155 101.901C65.5217 101.991 65.7429 102.029 65.9638 102.015Z" fill="black"/>
<path d="M86.7076 90.7617C87.0009 90.4458 87.1695 90.014 87.1766 89.5607C87.1837 89.1074 87.0287 88.6693 86.7455 88.3423C86.4606 88.0171 86.0712 87.8302 85.6623 87.8223C85.2535 87.8144 84.8585 87.9862 84.5635 88.3003L82.4859 90.5253L84.63 92.9868L86.7076 90.7617Z" fill="#3F3D56"/>
<path d="M82.7232 95.029L84.7439 92.8649L82.5998 90.4034L80.5791 92.5675C80.2858 92.8834 80.1172 93.3152 80.1101 93.7686C80.103 94.2219 80.258 94.6599 80.5412 94.9869C80.8261 95.3121 81.2155 95.4991 81.6244 95.507C82.0332 95.5148 82.4282 95.343 82.7232 95.029Z" fill="#6C63FF"/>
<path opacity="0.2" d="M81.7364 95.5032C81.3675 95.4681 81.0225 95.2863 80.765 94.9912C80.4818 94.6642 80.3268 94.2262 80.3339 93.7729C80.341 93.3195 80.5096 92.8877 80.8029 92.5718L82.7097 90.5297L82.5997 90.4034L80.5791 92.5675C80.2858 92.8834 80.1172 93.3152 80.1101 93.7686C80.103 94.2219 80.258 94.6599 80.5412 94.9869C80.6952 95.1632 80.8817 95.3005 81.088 95.3896C81.2942 95.4787 81.5154 95.5175 81.7364 95.5032Z" fill="black"/>
<path d="M83.202 104.257C82.9206 103.928 82.5333 103.736 82.1246 103.722C81.7158 103.709 81.319 103.875 81.0206 104.185C80.7239 104.497 80.5506 104.927 80.5385 105.38C80.5264 105.833 80.6766 106.273 80.9562 106.604L82.9375 108.935L85.1832 106.587L83.202 104.257Z" fill="#3F3D56"/>
<path d="M87.0017 108.726L85.0747 106.46L82.8289 108.807L84.7559 111.074C85.0372 111.403 85.4246 111.595 85.8333 111.608C86.242 111.622 86.6389 111.455 86.9373 111.145C87.234 110.833 87.4073 110.404 87.4194 109.95C87.4314 109.497 87.2813 109.057 87.0017 108.726Z" fill="#6C63FF"/>
<path opacity="0.2" d="M87.4174 109.826C87.3812 110.235 87.213 110.615 86.9439 110.897C86.6455 111.207 86.2486 111.373 85.8399 111.36C85.4312 111.347 85.0439 111.155 84.7625 110.825L82.9441 108.687L82.8289 108.807L84.7559 111.074C85.0372 111.403 85.4246 111.595 85.8333 111.608C86.242 111.622 86.6389 111.455 86.9372 111.145C87.0981 110.976 87.2242 110.771 87.307 110.544C87.3899 110.316 87.4275 110.071 87.4174 109.826Z" fill="black"/>
<path d="M72.2954 104.071C72.0141 103.742 71.6268 103.549 71.218 103.536C70.8093 103.523 70.4124 103.689 70.1141 103.999C69.8173 104.311 69.644 104.741 69.632 105.194C69.6199 105.647 69.7701 106.087 70.0497 106.418L72.0309 108.748L74.2767 106.401L72.2954 104.071Z" fill="#3F3D56"/>
<path d="M76.0951 108.54L74.1681 106.273L71.9224 108.621L73.8493 110.888C74.1307 111.217 74.518 111.409 74.9267 111.422C75.3355 111.435 75.7324 111.269 76.0307 110.959C76.3274 110.647 76.5008 110.217 76.5128 109.764C76.5249 109.311 76.3747 108.871 76.0951 108.54Z" fill="#6C63FF"/>
<path opacity="0.2" d="M76.5108 109.64C76.4747 110.049 76.3065 110.429 76.0373 110.711C75.739 111.021 75.3421 111.187 74.9334 111.174C74.5246 111.161 74.1373 110.968 73.856 110.639L72.0375 108.5L71.9224 108.621L73.8494 110.888C74.1307 111.217 74.518 111.409 74.9268 111.422C75.3355 111.435 75.7324 111.269 76.0307 110.959C76.1915 110.79 76.3177 110.585 76.4005 110.358C76.4834 110.13 76.521 109.885 76.5108 109.64Z" fill="black"/>
<path d="M75.3654 97.9322C75.3656 98.501 75.1884 99.0525 74.864 99.4932C74.5395 99.9338 74.0877 100.237 73.5851 100.35C73.2913 100.416 72.9887 100.416 72.6949 100.35C72.1923 100.237 71.7405 99.9337 71.4161 99.493C71.0917 99.0524 70.9145 98.501 70.9145 97.9322C70.9145 97.3633 71.0917 96.812 71.4161 96.3713C71.7405 95.9306 72.1923 95.6278 72.6949 95.5139C72.9887 95.4481 73.2913 95.4481 73.5851 95.5139C74.0877 95.6277 74.5395 95.9305 74.864 96.3712C75.1884 96.8119 75.3656 97.3633 75.3654 97.9322Z" fill="#6C63FF"/>
<path opacity="0.2" d="M73.5851 95.5139V100.35C73.2913 100.416 72.9887 100.416 72.6949 100.35V95.5139C72.9887 95.4481 73.2913 95.4481 73.5851 95.5139Z" fill="black"/>
<path d="M76.3722 88.0714C76.3723 88.6403 76.1951 89.1917 75.8707 89.6324C75.5463 90.073 75.0945 90.3759 74.5918 90.4897C74.2981 90.5555 73.9954 90.5555 73.7016 90.4897C73.199 90.3758 72.7473 90.0729 72.4229 89.6322C72.0985 89.1916 71.9213 88.6402 71.9213 88.0714C71.9213 87.5025 72.0985 86.9512 72.4229 86.5105C72.7473 86.0699 73.199 85.767 73.7016 85.6531C73.9954 85.5873 74.2981 85.5873 74.5918 85.6531C75.0945 85.7669 75.5463 86.0697 75.8707 86.5104C76.1951 86.9511 76.3723 87.5025 76.3722 88.0714Z" fill="#6C63FF"/>
<path opacity="0.2" d="M74.5919 85.6531V90.4897C74.2981 90.5555 73.9954 90.5555 73.7017 90.4897V85.6531C73.9954 85.5873 74.2981 85.5873 74.5919 85.6531Z" fill="black"/>
<path d="M76.3722 102.211C76.3723 102.78 76.1951 103.332 75.8707 103.772C75.5463 104.213 75.0945 104.516 74.5918 104.63C74.2981 104.695 73.9954 104.695 73.7016 104.63C73.199 104.516 72.7473 104.213 72.4229 103.772C72.0985 103.332 71.9213 102.78 71.9213 102.211C71.9213 101.643 72.0985 101.091 72.4229 100.65C72.7473 100.21 73.199 99.9069 73.7016 99.7931C73.9954 99.7273 74.2981 99.7273 74.5918 99.7931C75.0945 99.9068 75.5463 100.21 75.8707 100.65C76.1951 101.091 76.3723 101.642 76.3722 102.211Z" fill="#6C63FF"/>
<path opacity="0.2" d="M74.5919 99.7931V104.63C74.2981 104.695 73.9954 104.695 73.7017 104.63V99.7931C73.9954 99.7273 74.2981 99.7273 74.5919 99.7931Z" fill="black"/>
<path d="M81.9094 109.095C81.9095 109.664 81.7323 110.216 81.4079 110.656C81.0834 111.097 80.6317 111.4 80.129 111.514C79.8352 111.579 79.5326 111.579 79.2388 111.514C78.7362 111.4 78.2845 111.097 77.9601 110.656C77.6356 110.215 77.4585 109.664 77.4585 109.095C77.4585 108.526 77.6356 107.975 77.9601 107.534C78.2845 107.094 78.7362 106.791 79.2388 106.677C79.5326 106.611 79.8352 106.611 80.129 106.677C80.6317 106.791 81.0834 107.094 81.4079 107.534C81.7323 107.975 81.9095 108.526 81.9094 109.095Z" fill="#6C63FF"/>
<path opacity="0.2" d="M80.129 106.677V111.514C79.8353 111.579 79.5326 111.579 79.2388 111.514V106.677C79.5326 106.611 79.8353 106.611 80.129 106.677Z" fill="black"/>
<path d="M86.8008 96.4296C87.1703 96.8243 87.4054 97.3485 87.4664 97.9133C87.5274 98.4781 87.4105 99.049 87.1356 99.5292C86.9744 99.8094 86.7644 100.051 86.5178 100.24C86.0951 100.562 85.5849 100.713 85.0736 100.666C84.5624 100.619 84.0814 100.378 83.712 99.983C83.3426 99.5883 83.1076 99.0642 83.0466 98.4994C82.9856 97.9346 83.1024 97.3637 83.3772 96.8834C83.5384 96.6033 83.7484 96.3616 83.995 96.1728C84.4177 95.8504 84.9279 95.6999 85.4392 95.7467C85.9505 95.7935 86.4315 96.0348 86.8008 96.4296Z" fill="#6C63FF"/>
<path opacity="0.2" d="M83.995 96.1728L87.1356 99.5292C86.9744 99.8094 86.7644 100.051 86.5178 100.24L83.3772 96.8835C83.5384 96.6033 83.7484 96.3617 83.995 96.1728Z" fill="black"/>
<path d="M87.472 101.825C87.8415 102.22 88.0766 102.744 88.1376 103.309C88.1986 103.874 88.0817 104.444 87.8067 104.925C87.6456 105.205 87.4356 105.447 87.189 105.635C86.7662 105.958 86.2561 106.108 85.7448 106.061C85.2335 106.015 84.7525 105.773 84.3831 105.379C84.0138 104.984 83.7787 104.46 83.7177 103.895C83.6567 103.33 83.7735 102.759 84.0484 102.279C84.2095 101.999 84.4196 101.757 84.6662 101.568C85.0889 101.246 85.5991 101.095 86.1104 101.142C86.6217 101.189 87.1027 101.43 87.472 101.825Z" fill="#6C63FF"/>
<path opacity="0.2" d="M84.6662 101.568L87.8067 104.925C87.6456 105.205 87.4356 105.447 87.189 105.635L84.0484 102.279C84.2095 101.999 84.4196 101.757 84.6662 101.568Z" fill="black"/>
<path d="M67.5046 103.128C67.8741 103.522 68.1092 104.046 68.1702 104.611C68.2312 105.176 68.1143 105.747 67.8394 106.227C67.6783 106.507 67.4682 106.749 67.2216 106.938C66.7989 107.26 66.2887 107.41 65.7774 107.364C65.2662 107.317 64.7852 107.076 64.4158 106.681C64.0464 106.286 63.8114 105.762 63.7504 105.197C63.6894 104.632 63.8062 104.062 64.0811 103.581C64.2422 103.301 64.4522 103.06 64.6988 102.871C65.1215 102.548 65.6317 102.398 66.143 102.445C66.6543 102.491 67.1353 102.733 67.5046 103.128Z" fill="#6C63FF"/>
<path opacity="0.2" d="M64.6988 102.871L67.8394 106.227C67.6783 106.507 67.4682 106.749 67.2216 106.938L64.0811 103.581C64.2422 103.301 64.4522 103.06 64.6988 102.871Z" fill="black"/>
<path opacity="0.2" d="M60.3215 58.8123H59.4825V65.6962H60.3215V58.8123Z" fill="black"/>
<path opacity="0.2" d="M65.1875 58.8123H64.3485V65.6962H65.1875V58.8123Z" fill="black"/>
<path opacity="0.2" d="M70.0535 58.8123H69.2145V65.6962H70.0535V58.8123Z" fill="black"/>
<path opacity="0.2" d="M74.9195 58.8123H74.0805V65.6962H74.9195V58.8123Z" fill="black"/>
<path opacity="0.2" d="M79.7855 58.8123H78.9465V65.6962H79.7855V58.8123Z" fill="black"/>
<path opacity="0.2" d="M84.6515 58.8123H83.8125V65.6962H84.6515V58.8123Z" fill="black"/>
<path opacity="0.2" d="M89.5174 58.8123H88.6785V65.6962H89.5174V58.8123Z" fill="black"/>
</g>
<defs>
<clipPath id="clip0">
<rect width="149" height="115" fill="white"/>
</clipPath>
</defs>
</svg>
