<svg width="60" height="60" viewBox="0 0 60 60" fill="none" xmlns="http://www.w3.org/2000/svg">
<rect width="60" height="60" rx="30" fill="white"/>
<path d="M36.9236 18H36.8517C33.9888 18 31.4569 19.5754 30.0005 21.9C28.5441 19.5754 26.0122 18 23.1493 18H23.0773C20.9288 18.0213 18.8752 18.9235 17.3627 20.5105C15.8502 22.0975 15.0012 24.2411 15 26.4755C15 29.2501 16.1686 33.1871 18.4472 36.4266C22.7885 42.5994 30.0005 48 30.0005 48C30.0005 48 37.2124 42.6004 41.5528 36.4266C43.8324 33.1871 45 29.2501 45 26.4755C44.9988 24.2413 44.1499 22.0978 42.6376 20.5108C41.1254 18.9239 39.072 18.0216 36.9236 18ZM35.8942 36.9015C35.5681 36.9002 35.2501 36.7964 34.9818 36.6038C34.7135 36.4111 34.5074 36.1386 34.3908 35.822H32.6792C32.5665 35.8213 32.4568 35.784 32.3654 35.7153C32.2741 35.6466 32.2057 35.55 32.1697 35.4389L31.644 33.7917L29.9803 39.8368C29.9479 39.9531 29.8801 40.0554 29.787 40.1283C29.694 40.2012 29.5807 40.2407 29.4642 40.2408H29.4306C29.309 40.2347 29.1932 40.1854 29.1024 40.1012C29.0116 40.0169 28.9513 39.9028 28.9317 39.7779L27.2172 29.0546L25.9642 35.4C25.9355 35.5205 25.8688 35.6276 25.7747 35.7041C25.6806 35.7806 25.5646 35.8221 25.4452 35.822H23.0342C22.9619 35.8252 22.8897 35.8131 22.8221 35.7866C22.7544 35.76 22.6926 35.7195 22.6403 35.6674C22.5881 35.6154 22.5466 35.5528 22.5182 35.4837C22.4898 35.4145 22.4752 35.34 22.4752 35.2648C22.4752 35.1896 22.4898 35.1151 22.5182 35.0459C22.5466 34.9767 22.5881 34.9142 22.6403 34.8622C22.6926 34.8101 22.7544 34.7696 22.8221 34.743C22.8897 34.7164 22.9619 34.7044 23.0342 34.7076H25.023L26.7979 26.1762C26.8271 26.0501 26.8974 25.9384 26.997 25.8602C27.0966 25.7821 27.2191 25.7423 27.3438 25.7477C27.4684 25.7531 27.5874 25.8034 27.6803 25.8899C27.7732 25.9765 27.8344 26.0939 27.8533 26.2221L29.6042 37.1609L31.0952 31.7524C31.1262 31.6385 31.1919 31.538 31.2823 31.4661C31.3727 31.3942 31.4831 31.3546 31.5969 31.3533H31.6075C31.7203 31.3533 31.8301 31.3904 31.9214 31.4592C32.0127 31.528 32.0808 31.625 32.116 31.7364L33.0668 34.7106H34.3697C34.4623 34.4179 34.6309 34.1575 34.8568 33.9582C35.0828 33.7589 35.3573 33.6284 35.65 33.5811C35.9428 33.5337 36.2425 33.5714 36.5159 33.69C36.7894 33.8086 37.026 34.0035 37.1997 34.2531C37.3734 34.5027 37.4774 34.7973 37.5002 35.1045C37.5231 35.4117 37.4638 35.7195 37.3291 35.9939C37.1943 36.2683 36.9893 36.4987 36.7366 36.6595C36.4839 36.8204 36.1933 36.9055 35.8971 36.9055L35.8942 36.9015Z" fill="#3F3D56"/>
</svg>
