<svg width="197" height="149" viewBox="0 0 197 149" fill="none" xmlns="http://www.w3.org/2000/svg">
<g clip-path="url(#clip0)">
<path d="M164.284 23.4241H84.3439V46.0572H164.284V23.4241Z" stroke="#3F3D56" stroke-miterlimit="10"/>
<path d="M36.6393 55.5738C38.9189 50.6722 43.2349 47.3652 48.1839 47.3652C55.5096 47.3652 61.4482 54.611 61.4482 63.5491C61.4482 69.2638 59.0206 74.2867 55.355 77.1663" stroke="#3F3D56" stroke-miterlimit="10"/>
<path d="M158.624 27.8047H78.6845V50.4378H158.624V27.8047Z" fill="#6C63FF"/>
<path d="M28.1507 6.20589C28.8344 6.20589 29.3887 5.44316 29.3887 4.5023C29.3887 3.56143 28.8344 2.79871 28.1507 2.79871C27.467 2.79871 26.9127 3.56143 26.9127 4.5023C26.9127 5.44316 27.467 6.20589 28.1507 6.20589Z" fill="#6C63FF"/>
<path d="M32.3953 6.20589C33.079 6.20589 33.6333 5.44316 33.6333 4.5023C33.6333 3.56143 33.079 2.79871 32.3953 2.79871C31.7115 2.79871 31.1573 3.56143 31.1573 4.5023C31.1573 5.44316 31.7115 6.20589 32.3953 6.20589Z" fill="#6C63FF"/>
<path d="M36.6399 6.20589C37.3236 6.20589 37.8779 5.44316 37.8779 4.5023C37.8779 3.56143 37.3236 2.79871 36.6399 2.79871C35.9561 2.79871 35.4019 3.56143 35.4019 4.5023C35.4019 5.44316 35.9561 6.20589 36.6399 6.20589Z" fill="#6C63FF"/>
<path d="M173.351 0.122437H24.7905V133.001H173.351V0.122437Z" stroke="#3F3D56" stroke-miterlimit="10"/>
<path d="M24.7905 7.50427H173.351" stroke="#3F3D56" stroke-miterlimit="10"/>
<path d="M28.5044 5.47579C29.1882 5.47579 29.7424 4.71306 29.7424 3.77219C29.7424 2.83133 29.1882 2.0686 28.5044 2.0686C27.8207 2.0686 27.2664 2.83133 27.2664 3.77219C27.2664 4.71306 27.8207 5.47579 28.5044 5.47579Z" stroke="#3F3D56" stroke-miterlimit="10"/>
<path d="M32.749 5.47579C33.4327 5.47579 33.987 4.71306 33.987 3.77219C33.987 2.83133 33.4327 2.0686 32.749 2.0686C32.0653 2.0686 31.511 2.83133 31.511 3.77219C31.511 4.71306 32.0653 5.47579 32.749 5.47579Z" stroke="#3F3D56" stroke-miterlimit="10"/>
<path d="M36.9936 5.47579C37.6773 5.47579 38.2316 4.71306 38.2316 3.77219C38.2316 2.83133 37.6773 2.0686 36.9936 2.0686C36.3099 2.0686 35.7556 2.83133 35.7556 3.77219C35.7556 4.71306 36.3099 5.47579 36.9936 5.47579Z" stroke="#3F3D56" stroke-miterlimit="10"/>
<path d="M5.69772 49.7803C6.23928 49.4508 6.71782 48.9526 7.09561 48.3252C7.4734 47.6977 7.74012 46.9581 7.87474 46.1646C8.00936 45.3711 8.00821 44.5454 7.87138 43.7526C7.73454 42.9598 7.46576 42.2216 7.08623 41.5962C6.70669 40.9707 6.22677 40.4751 5.6843 40.1484C5.14182 39.8217 4.55161 39.6729 3.9602 39.7136C3.36879 39.7543 2.79233 39.9835 2.27627 40.3831C1.76021 40.7827 1.31865 41.3418 0.986398 42.0163L2.4184 43.8785L0.578687 43.0917C0.216888 44.3888 0.244124 45.8305 0.654408 47.1C0.796925 47.5462 0.984682 47.9624 1.21208 48.3362C1.74398 49.2153 2.46962 49.8319 3.27906 50.0925C4.0885 50.3531 4.93761 50.2435 5.69772 49.7803Z" fill="#57B894"/>
<path d="M24.8291 68.0463C23.4329 66.6982 23.4326 63.8681 23.7795 61.57C24.1263 59.272 24.6557 56.7649 23.8684 54.6828C22.7369 51.6905 19.7627 51.5105 17.3225 51.1907C15.5117 50.9531 13.7279 50.421 12.0082 49.6055C11.3187 49.2784 10.6283 48.8965 10.0637 48.2613C9.25061 47.3465 8.77367 45.9974 8.3283 44.6885C6.84464 40.3284 5.43631 35.9217 4.1033 31.4685" stroke="#3F3D56" stroke-miterlimit="10"/>
<path d="M5.4604 49.1274C6.00196 48.7978 6.4805 48.2997 6.85829 47.6722C7.23608 47.0448 7.5028 46.3051 7.63742 45.5116C7.77204 44.7181 7.77089 43.8925 7.63406 43.0997C7.49722 42.3069 7.22845 41.5687 6.84891 40.9432C6.46937 40.3178 5.98945 39.8222 5.44698 39.4955C4.9045 39.1688 4.31429 39.0199 3.72288 39.0607C3.13147 39.1014 2.55501 39.3306 2.03895 39.7302C1.52289 40.1298 1.08133 40.6888 0.749079 41.3633L2.18108 43.2256L0.341367 42.4388C-0.0204315 43.7359 0.00680327 45.1775 0.417087 46.447C0.559604 46.8933 0.747362 47.3095 0.97476 47.6832C1.50666 48.5623 2.2323 49.1789 3.04174 49.4395C3.85118 49.7001 4.70029 49.5905 5.4604 49.1274V49.1274Z" stroke="#3F3D56" stroke-miterlimit="10"/>
<path d="M0.800204 34.5361C0.540395 33.7298 0.432241 32.8465 0.485708 31.9676C0.539175 31.0886 0.752544 30.2423 1.10615 29.5067L2.62898 31.0638L1.68913 28.5571C2.28202 27.7967 3.03518 27.3153 3.83987 27.1823C4.64456 27.0493 5.45913 27.2717 6.166 27.8173C6.87286 28.3629 7.43543 29.2035 7.77248 30.2177C8.10953 31.232 8.20363 32.3674 8.04118 33.46C7.87874 34.5526 7.46816 35.5459 6.86872 36.2965C6.26928 37.0471 5.512 37.5161 4.70622 37.6359C3.90043 37.7556 3.08784 37.5199 2.38576 36.9627C1.68368 36.4056 1.12844 35.5558 0.800204 34.5361Z" fill="#57B894"/>
<path d="M0.48378 33.6654C0.223973 32.8591 0.11582 31.9758 0.169287 31.0968C0.222754 30.2179 0.436122 29.3716 0.789729 28.636L2.31255 30.1931L1.37272 27.6864C1.96561 26.926 2.71876 26.4446 3.52345 26.3116C4.32814 26.1786 5.14272 26.401 5.84958 26.9466C6.55645 27.4922 7.11901 28.3328 7.45607 29.347C7.79312 30.3612 7.88722 31.4966 7.72477 32.5892C7.56233 33.6819 7.15175 34.6752 6.55231 35.4258C5.95287 36.1764 5.19559 36.6454 4.3898 36.7651C3.58402 36.8849 2.77143 36.6492 2.06935 36.092C1.36726 35.5349 0.812023 34.6851 0.483788 33.6654L0.48378 33.6654Z" stroke="#3F3D56" stroke-miterlimit="10"/>
<path d="M16.8646 51.8681C17.723 51.3447 18.4114 50.4051 18.7986 49.2282C19.1859 48.0513 19.2449 46.7194 18.9644 45.4865C18.6839 44.2536 18.0835 43.2058 17.2777 42.5429C16.4718 41.88 15.5169 41.6483 14.5949 41.8919L15.3172 43.8181L13.7768 42.2423C13.7735 42.2438 13.7703 42.2457 13.7672 42.2479C13.3081 42.5277 12.8936 42.9293 12.5474 43.4295C12.2011 43.9298 11.9298 44.5191 11.749 45.1636C11.3839 46.4654 11.4096 47.9133 11.8203 49.1891C12.2311 50.4648 12.9933 51.4637 13.9392 51.9661C14.8852 52.4686 15.9375 52.4333 16.8646 51.8681Z" fill="#57B894"/>
<path d="M16.5219 51.0155C17.3803 50.4922 18.0687 49.5525 18.4559 48.3756C18.8432 47.1987 18.9022 45.8669 18.6217 44.634C18.3412 43.4011 17.7408 42.3533 16.935 41.6904C16.1291 41.0274 15.1742 40.7957 14.2522 41.0394L14.9745 42.9656L13.4341 41.3897C13.4308 41.3912 13.4276 41.3931 13.4245 41.3953C12.9653 41.675 12.5506 42.0765 12.2042 42.5768C11.8577 43.077 11.5863 43.6663 11.4054 44.311C11.2245 44.9556 11.1377 45.643 11.1498 46.3338C11.162 47.0247 11.273 47.7055 11.4764 48.3373C11.6798 48.9691 11.9717 49.5395 12.3354 50.0161C12.6991 50.4927 13.1274 50.8659 13.596 51.1147C14.0645 51.3634 14.5641 51.4826 15.0661 51.4656C15.5681 51.4486 16.0628 51.2957 16.5219 51.0155V51.0155Z" stroke="#3F3D56" stroke-miterlimit="10"/>
<path d="M18.3909 61.9643C19.0983 62.6768 19.9624 63.0328 20.838 62.9728C21.7136 62.9127 22.5476 62.4402 23.2001 61.6344C23.8526 60.8286 24.2839 59.7386 24.4217 58.5472C24.5595 57.3558 24.3954 56.1354 23.9569 55.0907C23.5184 54.046 22.8323 53.2406 22.0134 52.8094C21.1946 52.3783 20.293 52.3477 19.4597 52.7227C18.6264 53.0978 17.9122 53.8557 17.4368 54.8694C16.9614 55.8831 16.7538 57.0908 16.8487 58.2902L19.8533 59.2117L17.2318 60.0792C17.5028 60.8262 17.9003 61.4728 18.3909 61.9643Z" fill="#57B894"/>
<path d="M18.1535 61.3113C18.861 62.0238 19.725 62.3799 20.6007 62.3198C21.4763 62.2598 22.3103 61.7872 22.9628 60.9814C23.6153 60.1757 24.0466 59.0857 24.1844 57.8943C24.3222 56.7028 24.1581 55.4825 23.7196 54.4378C23.2811 53.3931 22.5949 52.5876 21.7761 52.1565C20.9573 51.7253 20.0556 51.6947 19.2223 52.0698C18.3891 52.4449 17.6749 53.2028 17.1995 54.2164C16.7241 55.2301 16.5165 56.4379 16.6114 57.6372L19.616 58.5588L16.9944 59.4262C17.2655 60.1733 17.663 60.8198 18.1535 61.3113V61.3113Z" stroke="#3F3D56" stroke-miterlimit="10"/>
<path d="M184.208 111.557C184.711 111.926 185.269 112.129 185.839 112.15C186.409 112.171 186.975 112.009 187.491 111.678C188.008 111.347 188.462 110.855 188.817 110.242C189.172 109.628 189.419 108.909 189.538 108.142C189.657 107.375 189.644 106.58 189.502 105.82C189.359 105.061 189.091 104.357 188.717 103.765C188.343 103.173 187.874 102.708 187.348 102.408C186.821 102.107 186.251 101.979 185.682 102.033L185.508 104.632L184.848 102.247C183.919 102.641 183.142 103.526 182.687 104.708C182.526 105.121 182.408 105.564 182.338 106.024C182.17 107.1 182.261 108.223 182.599 109.221C182.936 110.22 183.501 111.04 184.208 111.557Z" fill="#57B894"/>
<path d="M185.519 142.351C185.432 140.094 186.99 138.413 188.461 137.409C189.932 136.405 191.626 135.467 192.305 133.41C193.28 130.453 191.612 127.246 190.338 124.512C189.393 122.483 188.626 120.308 188.053 118.031C187.824 117.118 187.624 116.171 187.638 115.205C187.658 113.814 188.118 112.516 188.574 111.274C190.092 107.137 191.681 103.051 193.341 99.0156" stroke="#3F3D56" stroke-miterlimit="10"/>
<path d="M184.426 110.922C184.929 111.29 185.488 111.493 186.058 111.514C186.628 111.535 187.193 111.374 187.71 111.043C188.227 110.712 188.681 110.22 189.036 109.606C189.391 108.993 189.637 108.274 189.756 107.507C189.875 106.739 189.863 105.945 189.72 105.185C189.578 104.426 189.309 103.722 188.935 103.13C188.562 102.537 188.093 102.073 187.566 101.772C187.04 101.472 186.47 101.344 185.901 101.398L185.727 103.997L185.067 101.612C184.138 102.006 183.36 102.891 182.905 104.072C182.744 104.486 182.627 104.929 182.556 105.388C182.388 106.465 182.48 107.588 182.817 108.586C183.155 109.585 183.72 110.405 184.426 110.922V110.922Z" stroke="#3F3D56" stroke-miterlimit="10"/>
<path d="M189.69 97.3951C189.979 96.6453 190.401 96.0078 190.917 95.5413C191.432 95.0748 192.025 94.7944 192.64 94.726L192.687 97.2383L193.509 94.7694C194.28 94.9357 194.992 95.4347 195.544 96.1944C196.095 96.9542 196.456 97.9354 196.576 98.9963C196.696 100.057 196.567 101.143 196.209 102.097C195.851 103.051 195.282 103.824 194.584 104.303C193.886 104.783 193.095 104.945 192.326 104.767C191.557 104.588 190.849 104.077 190.304 103.308C189.759 102.539 189.406 101.552 189.296 100.49C189.185 99.4267 189.323 98.3431 189.69 97.3951Z" fill="#57B894"/>
<path d="M189.981 96.548C190.27 95.7981 190.692 95.1606 191.208 94.6941C191.723 94.2277 192.316 93.9473 192.931 93.8788L192.979 96.3912L193.8 93.9223C194.571 94.0885 195.284 94.5875 195.835 95.3472C196.386 96.107 196.748 97.0882 196.867 98.1491C196.987 99.2101 196.858 100.296 196.5 101.25C196.142 102.204 195.573 102.976 194.875 103.456C194.177 103.936 193.387 104.098 192.617 103.919C191.848 103.74 191.14 103.23 190.595 102.461C190.05 101.692 189.697 100.705 189.587 99.6424C189.477 98.5796 189.615 97.4959 189.981 96.548Z" stroke="#3F3D56" stroke-miterlimit="10"/>
<path d="M189.693 124.437C190.491 125.021 191.417 125.18 192.295 124.884C193.173 124.589 193.941 123.859 194.453 122.834C194.965 121.809 195.186 120.561 195.072 119.327C194.958 118.093 194.518 116.96 193.836 116.144L193.205 118.041L193.157 115.5C193.154 115.497 193.151 115.495 193.148 115.493C192.722 115.18 192.254 114.986 191.773 114.922C191.292 114.858 190.806 114.925 190.343 115.12C189.881 115.314 189.451 115.632 189.078 116.055C188.705 116.478 188.396 116.998 188.169 117.586C187.942 118.174 187.801 118.817 187.755 119.479C187.709 120.141 187.758 120.81 187.899 121.446C188.041 122.082 188.272 122.674 188.58 123.187C188.888 123.7 189.266 124.125 189.693 124.437V124.437Z" fill="#57B894"/>
<path d="M189.959 123.573C190.757 124.157 191.683 124.316 192.561 124.021C193.439 123.725 194.207 122.995 194.719 121.971C195.231 120.946 195.451 119.697 195.337 118.464C195.224 117.23 194.784 116.097 194.102 115.28L193.471 117.178L193.423 114.636C193.42 114.633 193.417 114.631 193.414 114.629C192.987 114.317 192.52 114.123 192.039 114.059C191.557 113.995 191.072 114.062 190.609 114.256C190.147 114.451 189.717 114.769 189.344 115.192C188.971 115.615 188.662 116.135 188.435 116.723C188.208 117.31 188.067 117.953 188.021 118.616C187.975 119.278 188.024 119.946 188.165 120.582C188.307 121.219 188.538 121.81 188.846 122.323C189.154 122.837 189.532 123.261 189.959 123.573V123.573Z" stroke="#3F3D56" stroke-miterlimit="10"/>
<path d="M185.042 132.026C185.07 133.187 185.388 134.299 185.941 135.176C186.494 136.053 187.25 136.642 188.081 136.843C188.912 137.045 189.769 136.847 190.506 136.282C191.244 135.718 191.818 134.822 192.133 133.744C192.447 132.667 192.483 131.473 192.234 130.363C191.985 129.253 191.466 128.295 190.764 127.65C190.063 127.004 189.221 126.71 188.381 126.817C187.54 126.923 186.752 127.424 186.148 128.236L187.426 131.915L185.391 129.698C185.141 130.425 185.021 131.223 185.042 132.026Z" fill="#57B894"/>
<path d="M185.261 131.391C185.289 132.552 185.606 133.664 186.159 134.541C186.713 135.418 187.468 136.007 188.3 136.208C189.131 136.409 189.987 136.211 190.725 135.647C191.462 135.083 192.037 134.187 192.351 133.109C192.666 132.031 192.702 130.837 192.452 129.728C192.203 128.618 191.684 127.66 190.983 127.014C190.281 126.369 189.44 126.075 188.599 126.181C187.759 126.288 186.971 126.789 186.367 127.601L187.645 131.28L185.61 129.063C185.359 129.789 185.24 130.588 185.261 131.391Z" stroke="#3F3D56" stroke-miterlimit="10"/>
<path d="M20.377 28.8508C20.9185 28.5212 21.3971 28.0231 21.7748 27.3956C22.1526 26.7682 22.4194 26.0285 22.554 25.235C22.6886 24.4415 22.6874 23.6158 22.5506 22.8231C22.4138 22.0303 22.145 21.2921 21.7655 20.6666C21.3859 20.0411 20.906 19.5455 20.3635 19.2188C19.8211 18.8922 19.2308 18.7433 18.6394 18.784C18.048 18.8248 17.4716 19.054 16.9555 19.4536C16.4394 19.8532 15.9979 20.4122 15.6656 21.0867L17.0976 22.9489L15.2579 22.1622C14.8961 23.4593 14.9234 24.9009 15.3336 26.1704C15.4762 26.6167 15.6639 27.0329 15.8913 27.4066C16.4232 28.2857 17.1489 28.9023 17.9583 29.1629C18.7677 29.4235 19.6168 29.3139 20.377 28.8508Z" fill="#57B894"/>
<path d="M24.7429 27.3318C23.9298 26.417 23.4529 25.0679 23.0075 23.7591C21.5239 19.399 20.1155 14.9923 18.7825 10.5391" stroke="#3F3D56" stroke-miterlimit="10"/>
<path d="M20.1396 28.1978C20.6812 27.8683 21.1597 27.3701 21.5375 26.7427C21.9153 26.1152 22.182 25.3756 22.3166 24.5821C22.4513 23.7886 22.4501 22.9629 22.3133 22.1701C22.1764 21.3773 21.9077 20.6391 21.5281 20.0137C21.1486 19.3882 20.6687 18.8926 20.1262 18.5659C19.5837 18.2392 18.9935 18.0904 18.4021 18.1311C17.8107 18.1718 17.2342 18.401 16.7182 18.8006C16.2021 19.2002 15.7606 19.7593 15.4283 20.4338L16.8603 22.296L15.0206 21.5092C14.6588 22.8063 14.686 24.248 15.0963 25.5174C15.2388 25.9637 15.4266 26.3799 15.654 26.7537C16.1859 27.6328 16.9115 28.2493 17.721 28.5099C18.5304 28.7705 19.3795 28.661 20.1396 28.1978V28.1978Z" stroke="#3F3D56" stroke-miterlimit="10"/>
<path d="M15.4794 13.6065C15.2196 12.8002 15.1115 11.9169 15.1649 11.038C15.2184 10.1591 15.4318 9.31278 15.7854 8.57713L17.3082 10.1342L16.3684 7.62753C16.9613 6.86715 17.7144 6.38572 18.5191 6.25274C19.3238 6.11977 20.1384 6.34213 20.8452 6.88773C21.5521 7.43332 22.1147 8.27392 22.4517 9.28816C22.7888 10.3024 22.8829 11.4378 22.7204 12.5304C22.558 13.623 22.1474 14.6163 21.5479 15.3669C20.9485 16.1175 20.1912 16.5866 19.3855 16.7063C18.5797 16.8261 17.7671 16.5903 17.065 16.0332C16.3629 15.476 15.8077 14.6262 15.4794 13.6065V13.6065Z" fill="#57B894"/>
<path d="M15.163 12.7358C14.9032 11.9295 14.795 11.0462 14.8485 10.1673C14.902 9.28833 15.1153 8.44206 15.469 7.70641L16.9918 9.26348L16.0519 6.75681C16.6448 5.99643 17.398 5.51499 18.2027 5.38202C19.0074 5.24904 19.8219 5.4714 20.5288 6.017C21.2357 6.5626 21.7982 7.4032 22.1353 8.41743C22.4723 9.43167 22.5664 10.5671 22.404 11.6597C22.2416 12.7523 21.831 13.7456 21.2315 14.4962C20.6321 15.2468 19.8748 15.7158 19.069 15.8356C18.2632 15.9553 17.4507 15.7196 16.7486 15.1625C16.0465 14.6053 15.4912 13.7555 15.163 12.7358L15.163 12.7358Z" stroke="#3F3D56" stroke-miterlimit="10"/>
<path d="M71.4326 7.50427V133.189" stroke="#3F3D56" stroke-miterlimit="10"/>
<path d="M114.145 69.2987H88.1464V74.166H114.145V69.2987Z" fill="#F2F2F2"/>
<path d="M154.999 69.2987H129.001V74.166H154.999V69.2987Z" fill="#F2F2F2"/>
<path d="M115.559 66.8651H89.5612V71.7325H115.559V66.8651Z" stroke="#3F3D56" stroke-miterlimit="10"/>
<path d="M114.145 107.021H88.1464V111.888H114.145V107.021Z" fill="#F2F2F2"/>
<path d="M115.559 104.587H89.5612V109.454H115.559V104.587Z" stroke="#3F3D56" stroke-miterlimit="10"/>
<path d="M155.087 87.673H88.2348V92.5403H155.087V87.673Z" fill="#F2F2F2"/>
<path d="M156.502 85.7261H89.6497V90.5934H156.502V85.7261Z" stroke="#3F3D56" stroke-miterlimit="10"/>
<path d="M156.414 66.8651H130.415V71.7325H156.414V66.8651Z" stroke="#3F3D56" stroke-miterlimit="10"/>
<path d="M164.667 52.6128C164.722 52.8753 164.793 53.1312 164.879 53.3777C165.835 56.4676 165.876 59.9486 164.995 63.0799C165.629 63.0252 166.263 63.1664 166.897 63.2339C167.531 63.3014 168.187 63.2903 168.777 62.9488C169.366 62.6074 169.879 61.876 169.965 60.9735C170.081 59.755 169.436 58.6922 168.871 57.7674C168.294 56.825 167.737 55.7856 167.566 54.5566C167.379 53.2055 167.646 51.6214 167.026 50.5689C166.971 50.4676 166.901 50.3848 166.819 50.3269C166.486 50.1168 165.619 50.1235 165.284 50.3837C164.767 50.7841 164.54 51.8403 164.667 52.6128Z" fill="#3F3D56"/>
<path d="M182.229 140.746C182.189 141.153 182.119 141.553 182.021 141.94C182.021 141.94 181.379 143.975 178.736 143.426C177.009 143.068 177.021 141.954 177.307 141.092C177.437 140.733 177.595 140.395 177.778 140.082C178.035 139.605 178.01 137.782 178.1 136.12C178.189 134.456 178.736 134.371 178.736 134.371L178.768 136.243C179.797 134.385 180.517 136.561 180.517 136.561C180.517 136.561 181.98 136.603 181.801 135.571C181.611 134.471 181.326 132.73 181.326 132.73C181.326 132.73 182.034 133.182 182.162 133.501C182.291 133.819 182.137 138.084 182.021 138.49C181.905 138.897 182.021 139.994 182.189 140.313C182.236 140.447 182.25 140.599 182.229 140.746Z" fill="#3F3D56"/>
<path d="M181.741 135.462C181.741 135.883 181.643 136.293 181.462 136.633C181.281 136.973 181.026 137.224 180.734 137.351C180.45 137.474 180.15 137.506 179.856 137.445C179.562 137.383 179.283 137.229 179.039 136.996C178.891 136.854 178.774 136.66 178.7 136.434C178.627 136.208 178.599 135.958 178.62 135.712L178.661 135.242L178.809 133.527L179.013 131.166C179.013 131.166 181.203 129.631 181.057 130.21C181.002 130.427 181.123 131.401 181.297 132.537C181.42 133.349 181.57 134.243 181.702 135.001C181.728 135.152 181.741 135.306 181.741 135.462Z" fill="#FBBEBE"/>
<path opacity="0.1" d="M178.485 135.332C178.485 135.332 180.382 132.267 181.934 135.611L181.674 137.753H178.485V135.332Z" fill="black"/>
<path d="M178.485 135.544C178.485 135.544 180.382 132.479 181.934 135.823L181.674 137.965H178.485V135.544Z" fill="#3F3D56"/>
<path d="M180.951 137.434C181.057 137.434 181.144 137.316 181.144 137.169C181.144 137.023 181.057 136.904 180.951 136.904C180.844 136.904 180.758 137.023 180.758 137.169C180.758 137.316 180.844 137.434 180.951 137.434Z" fill="#F2F2F2"/>
<path d="M178.485 137.009C178.592 137.009 178.678 136.89 178.678 136.744C178.678 136.597 178.592 136.478 178.485 136.478C178.379 136.478 178.293 136.597 178.293 136.744C178.293 136.89 178.379 137.009 178.485 137.009Z" fill="#F2F2F2"/>
<path d="M180.285 139.233C180.392 139.233 180.478 139.114 180.478 138.968C180.478 138.821 180.392 138.703 180.285 138.703C180.179 138.703 180.093 138.821 180.093 138.968C180.093 139.114 180.179 139.233 180.285 139.233Z" fill="#F2F2F2"/>
<path d="M178.602 138.921C178.709 138.921 178.795 138.803 178.795 138.656C178.795 138.509 178.709 138.391 178.602 138.391C178.496 138.391 178.409 138.509 178.409 138.656C178.409 138.803 178.496 138.921 178.602 138.921Z" fill="#F2F2F2"/>
<path d="M180.658 138.391C180.765 138.391 180.851 138.272 180.851 138.125C180.851 137.979 180.765 137.86 180.658 137.86C180.552 137.86 180.465 137.979 180.465 138.125C180.465 138.272 180.552 138.391 180.658 138.391Z" fill="#F2F2F2"/>
<path d="M178.485 137.965C178.592 137.965 178.678 137.846 178.678 137.7C178.678 137.553 178.592 137.434 178.485 137.434C178.379 137.434 178.293 137.553 178.293 137.7C178.293 137.846 178.379 137.965 178.485 137.965Z" fill="#F2F2F2"/>
<path d="M180.093 140.22C180.199 140.22 180.285 140.101 180.285 139.955C180.285 139.808 180.199 139.689 180.093 139.689C179.986 139.689 179.9 139.808 179.9 139.955C179.9 140.101 179.986 140.22 180.093 140.22Z" fill="#F2F2F2"/>
<path d="M178.602 139.877C178.709 139.877 178.795 139.759 178.795 139.612C178.795 139.465 178.709 139.347 178.602 139.347C178.496 139.347 178.409 139.465 178.409 139.612C178.409 139.759 178.496 139.877 178.602 139.877Z" fill="#F2F2F2"/>
<path d="M165.782 143.957L163.16 145.178C163.16 145.178 161.771 143.267 162.157 142.683C162.321 142.434 162.464 141.606 162.574 140.737C162.61 140.463 162.641 140.184 162.669 139.919C162.76 139.056 162.812 138.331 162.812 138.331C162.812 138.331 165.86 136.314 165.358 138.331C165.233 138.902 165.185 139.5 165.214 140.095C165.235 140.689 165.29 141.279 165.377 141.862C165.479 142.571 165.615 143.271 165.782 143.957Z" fill="#FBBEBE"/>
<path opacity="0.1" d="M165.782 143.957L163.16 145.178C163.16 145.178 161.771 143.267 162.157 142.683C162.321 142.434 162.464 141.606 162.574 140.737C162.723 141.103 162.826 141.501 162.88 141.914C165.146 143.626 165.185 142.604 165.185 142.604C165.21 142.341 165.276 142.088 165.377 141.862C165.479 142.571 165.615 143.271 165.782 143.957Z" fill="black"/>
<path d="M166.361 146.744C166.361 146.744 165.907 147.208 164.577 147.274C164.229 147.292 163.882 147.346 163.54 147.435C162.138 147.81 160.7 147.864 159.285 147.593C158.921 147.526 158.559 147.428 158.203 147.301C156.834 146.783 157.875 145.59 157.875 145.59C157.875 145.59 157.941 145.511 158.054 145.393C158.344 145.094 158.946 144.542 159.563 144.408C160.421 144.222 161.212 142.126 161.212 142.126L161.752 140.785C162.59 139.791 162.88 142.126 162.88 142.126C165.146 143.838 165.185 142.816 165.185 142.816C165.31 141.9 165.542 141.9 165.542 141.9C165.542 141.9 166.106 143.992 166.311 144.514C166.324 144.552 166.341 144.588 166.361 144.621C166.496 144.806 166.361 146.744 166.361 146.744Z" fill="#3F3D56"/>
<path d="M162.87 143.267C162.977 143.267 163.063 143.148 163.063 143.002C163.063 142.855 162.977 142.736 162.87 142.736C162.764 142.736 162.677 142.855 162.677 143.002C162.677 143.148 162.764 143.267 162.87 143.267Z" fill="#F2F2F2"/>
<path d="M161.766 144.01C161.872 144.01 161.959 143.891 161.959 143.745C161.959 143.598 161.872 143.479 161.766 143.479C161.659 143.479 161.573 143.598 161.573 143.745C161.573 143.891 161.659 144.01 161.766 144.01Z" fill="#F2F2F2"/>
<path d="M162.359 143.63C162.466 143.63 162.552 143.511 162.552 143.364C162.552 143.218 162.466 143.099 162.359 143.099C162.253 143.099 162.167 143.218 162.167 143.364C162.167 143.511 162.253 143.63 162.359 143.63Z" fill="#F2F2F2"/>
<path d="M161.144 144.448C161.251 144.448 161.337 144.329 161.337 144.183C161.337 144.036 161.251 143.917 161.144 143.917C161.038 143.917 160.951 144.036 160.951 144.183C160.951 144.329 161.038 144.448 161.144 144.448Z" fill="#F2F2F2"/>
<path opacity="0.1" d="M165.358 138.331C165.233 138.902 165.185 139.5 165.214 140.095C164.53 139.779 163.409 139.834 162.669 139.919C162.76 139.056 162.812 138.331 162.812 138.331C162.812 138.331 165.86 136.314 165.358 138.331Z" fill="black"/>
<path opacity="0.1" d="M181.297 132.537C180.349 133.816 179.442 133.896 178.809 133.527L179.013 131.165C179.013 131.165 181.203 129.631 181.057 130.21C181.002 130.427 181.123 131.401 181.297 132.537Z" fill="black"/>
<path d="M164.664 88.9692C164.664 88.9692 163.16 90.1369 162.89 92.4193C162.62 94.7016 162.157 97.6208 161.81 98.1516C161.462 98.6824 160.382 100.381 160.807 101.283C161.231 102.185 161.308 105.264 161.308 105.264C161.308 105.264 161.154 108.024 161.578 108.926C162.002 109.829 162.35 115.561 161.424 117.259C161.424 117.259 161.115 121.187 161.231 121.559C161.347 121.93 160.73 122.886 160.922 123.682C161.115 124.478 162.041 139.127 161.925 139.711C161.925 139.711 164.857 139.127 165.628 140.083C165.628 140.083 165.782 138.49 165.628 137.376C165.474 136.261 165.744 131.856 166.091 130.741C166.438 129.626 166.515 125.38 166.4 124.956C166.4 124.956 167.017 121.187 166.785 120.444C166.554 119.701 167.788 112.854 167.788 112.854C167.788 112.854 168.405 111.209 168.251 110.996C168.251 110.996 169.254 110.094 169.138 109.404C169.022 108.714 170.064 107.918 170.064 107.918C170.064 107.918 170.99 111.049 171.298 111.527C171.607 112.005 171.619 115.083 171.999 115.72C172.378 116.357 172.88 119.701 173.381 120.603C173.883 121.506 175.888 123.894 176.197 126.601C176.197 126.601 178.01 130.476 177.933 131.696C177.855 132.917 179.977 135.146 182.021 131.006C181.679 130.657 181.402 130.2 181.215 129.674C181.027 129.148 180.933 128.567 180.941 127.981C180.941 125.911 179.321 119.276 179.321 119.276C179.321 119.276 178.395 117.419 178.743 116.516C179.09 115.614 178.781 112.96 178.781 112.96L179.514 111.315C179.514 111.315 179.63 109.722 179.745 108.077C179.861 106.432 179.051 104.627 179.437 103.831C179.823 103.035 179.283 99.0568 179.283 99.0568C179.283 99.0568 178.803 92.2 178.087 91.7823C177.371 91.3647 164.664 88.9692 164.664 88.9692Z" fill="#3F3D56"/>
<path d="M168.178 79.3622C168.178 79.3622 167.386 79.4864 166.424 79.6117C165.033 79.7921 163.285 79.9747 163.077 79.7868C162.725 79.4684 163.077 75.4345 163.077 75.4345C163.077 75.4345 163.198 71.0291 163.082 67.9506C162.988 65.4528 164.19 63.6185 164.646 63.0155C164.753 62.8754 164.818 62.8021 164.818 62.8021L165.204 63.2267L167.402 68.3752L168.178 79.3622Z" fill="#FBBEBE"/>
<path d="M176.775 62.4306L174.615 64.2352L171.067 67.9506C171.067 67.9506 167.402 65.2968 168.328 63.7576C168.501 63.4532 168.617 63.0959 168.667 62.7162C168.945 60.9434 168.328 58.3968 168.328 58.3968C168.328 58.3968 173.156 49.4257 172.88 56.3798C172.769 59.1738 173.376 60.6993 174.142 61.5251C175.283 62.7544 176.775 62.4306 176.775 62.4306Z" fill="#FBBEBE"/>
<path opacity="0.1" d="M176.775 62.4306L174.615 64.2352L171.067 67.9506C171.067 67.9506 167.402 65.2968 168.328 63.7576C168.501 63.4532 168.617 63.0959 168.667 62.7162C168.945 60.9434 168.328 58.3968 168.328 58.3968C168.328 58.3968 173.156 49.4257 172.88 56.3798C172.769 59.1738 173.376 60.6993 174.142 61.5251C175.283 62.7544 176.775 62.4306 176.775 62.4306Z" fill="black"/>
<path opacity="0.1" d="M170.148 60.9653C172.615 60.9653 174.615 58.0496 174.615 54.4529C174.615 50.8562 172.615 47.9406 170.148 47.9406C167.681 47.9406 165.681 50.8562 165.681 54.4529C165.681 58.0496 167.681 60.9653 170.148 60.9653Z" fill="black"/>
<path d="M170.148 60.7531C172.615 60.7531 174.615 57.8374 174.615 54.2407C174.615 50.644 172.615 47.7283 170.148 47.7283C167.681 47.7283 165.681 50.644 165.681 54.2407C165.681 57.8374 167.681 60.7531 170.148 60.7531Z" fill="#FBBEBE"/>
<path opacity="0.1" d="M176.775 62.4306L174.615 64.2353L171.067 67.9507C171.067 67.9507 167.402 65.2968 168.328 63.7576C168.501 63.4532 168.617 63.0959 168.667 62.7162C172.709 67.4719 173.937 62.5495 174.142 61.5251C175.283 62.7544 176.775 62.4306 176.775 62.4306Z" fill="black"/>
<path opacity="0.1" d="M168.179 79.3622C168.179 79.3622 167.386 79.4864 166.424 79.6116C166.386 78.4694 166.261 77.1775 166.284 76.3899C166.322 75.0629 166.322 74.9037 166.014 74.1606C165.705 73.4175 165.744 72.8337 165.782 71.8783C165.819 70.9632 165.644 70.7785 165.018 69.3168C164.991 69.2531 164.963 69.1873 164.934 69.1183C164.627 68.3901 164.539 67.0727 164.536 65.8286C164.537 65.824 164.537 65.8193 164.536 65.8148C164.535 65.5186 164.539 65.2267 164.547 64.9486C164.547 64.9369 164.547 64.9252 164.547 64.9135C164.57 64.0728 164.62 63.3562 164.646 63.0155C164.753 62.8754 164.818 62.8021 164.818 62.8021L165.204 63.2267L167.402 68.3752L168.179 79.3622Z" fill="black"/>
<path d="M179.582 63.2146C179.579 63.2124 180.048 63.7002 180.045 63.6992C178.648 62.8701 177.856 67.0462 177.644 68.3604C177.605 68.6024 177.585 68.7468 177.585 68.7468C177.585 68.7468 177.61 69.0992 177.641 69.6597C177.745 71.5365 177.924 75.7392 177.508 76.7614C177.466 76.8693 177.432 76.9837 177.409 77.1022C177.278 77.7232 177.293 78.6563 177.361 79.5629C177.436 80.4949 177.549 81.4203 177.701 82.3345C177.701 82.3345 178.627 85.5722 178.241 87.6953C178.114 88.4851 178.076 89.2972 178.128 90.1029C178.168 90.8427 178.25 91.577 178.373 92.2992C178.409 92.5105 178.434 92.6315 178.434 92.6315C177.852 92.9054 177.284 93.1325 176.728 93.313C175.647 93.67 174.541 93.8759 173.43 93.9276C168.214 94.1559 164.741 90.7165 163.921 89.7791C163.856 89.7048 163.808 89.6464 163.777 89.6061C163.237 88.9161 164.278 88.3853 164.162 87.9076C164.047 87.43 164.69 86.3684 164.69 86.3684C164.69 86.3684 164.548 84.6169 165.127 84.2453C165.705 83.8738 166.13 82.5999 166.456 81.5384C166.781 80.4768 166.4 77.7168 166.438 76.3899C166.477 75.063 166.477 74.9038 166.168 74.1607C165.86 73.4176 165.898 72.8337 165.937 71.8783C165.974 70.9633 165.798 70.7786 165.172 69.3169C165.145 69.2532 165.117 69.1873 165.088 69.1183C164.781 68.3901 165.26 67.1357 165.257 65.8916C165.257 65.8873 165.434 65.8958 165.433 65.8916C165.433 65.5954 165.072 65.1963 165.08 64.9181C165.08 64.9064 164.903 64.6864 164.903 64.6748C164.929 64.0482 164.9 63.4195 164.818 62.8022C167.904 60.626 168.637 62.8935 168.637 62.8935C173.15 68.2383 174.174 61.5591 174.174 61.5591C176.63 60.4041 179.861 63.5155 180.046 63.696C180.051 63.7013 179.582 63.2146 179.582 63.2146Z" fill="#55536E"/>
<path d="M163.025 78.821C163.025 78.821 162.638 81.6556 163.755 83.2371C163.94 83.4977 164.18 83.6712 164.441 83.7329C164.702 83.7946 164.97 83.7413 165.208 83.5806C165.578 83.3297 165.993 82.9574 166.149 82.4797C166.456 81.5384 165.493 76.9368 163.025 78.821Z" fill="#FBBEBE"/>
<path opacity="0.1" d="M177.508 76.7615C177.466 76.8694 177.432 76.9838 177.409 77.1023L177.585 70.8965L177.641 69.6598C177.745 71.5366 177.924 75.7392 177.508 76.7615Z" fill="black"/>
<path opacity="0.1" d="M178.241 87.6954C178.114 88.4852 178.076 89.2972 178.129 90.1029C177.879 90.7261 177.665 91.2547 177.526 91.5986C177.417 91.8661 177.354 92.0211 177.354 92.0211C177.121 92.4289 176.912 92.8608 176.728 93.313C176.585 93.6316 176.496 93.9904 176.467 94.3629C176.467 95.1792 175.869 100.62 173.034 99.2661C171.203 98.3925 172.372 95.7153 173.43 93.9276C173.782 93.3336 174.158 92.768 174.558 92.2334C174.558 92.2334 174.885 91.6602 175.199 91.0604C175.413 90.682 175.599 90.2748 175.753 89.845C175.888 89.3142 176.779 86.9788 176.779 86.9788C176.779 86.9788 177.663 84.4046 177.47 83.2103C177.362 82.5416 177.35 80.8887 177.361 79.5629C177.436 80.4949 177.55 81.4203 177.701 82.3346C177.701 82.3346 178.627 85.5723 178.241 87.6954Z" fill="black"/>
<path d="M180.054 63.7045C180.054 63.7045 181.443 65.0314 181.404 68.4814C181.365 71.9314 180.903 77.9026 180.903 77.9026L180.613 81.618C180.613 81.618 180.247 83.1307 180.305 83.5819C180.363 84.033 177.277 91.5965 177.277 91.5965C177.277 91.5965 176.39 93.1228 176.39 93.9387C176.39 94.7546 175.792 100.195 172.957 98.8415C170.122 97.4881 174.48 91.8088 174.48 91.8088C174.48 91.8088 175.541 89.9511 175.676 89.4204C175.811 88.8896 176.702 86.5542 176.702 86.5542C176.702 86.5542 177.585 83.98 177.393 82.7857C177.2 81.5915 177.315 77.2557 177.315 77.2557L177.508 70.4718L177.585 68.7468C177.585 68.7468 178.299 63.0145 180.054 63.7045Z" fill="#FBBEBE"/>
<path d="M165.324 76.3683L167.429 75.3163C167.603 75.2295 167.791 75.2108 167.971 75.2624C168.152 75.3139 168.319 75.4336 168.453 75.6081L171.247 79.2384C171.247 79.2384 171.401 79.8211 171.195 79.7951C170.99 79.7692 167.981 75.6291 167.981 75.6291L164.998 77.0091C164.998 76.8692 165.029 76.7326 165.088 76.6179C165.146 76.5033 165.229 76.4161 165.324 76.3683Z" fill="#6C63FF"/>
<path d="M168.302 81.2375L171.195 79.7951L167.981 75.6292L164.998 77.009L168.302 81.2375Z" fill="#4B4B5B"/>
<path d="M163.957 93.1623C164.099 93.1623 164.214 93.0039 164.214 92.8084C164.214 92.613 164.099 92.4546 163.957 92.4546C163.815 92.4546 163.7 92.613 163.7 92.8084C163.7 93.0039 163.815 93.1623 163.957 93.1623Z" fill="#F2F2F2"/>
<path d="M162.208 97.7089C162.35 97.7089 162.465 97.5505 162.465 97.3551C162.465 97.1596 162.35 97.0012 162.208 97.0012C162.066 97.0012 161.951 97.1596 161.951 97.3551C161.951 97.5505 162.066 97.7089 162.208 97.7089Z" fill="#F2F2F2"/>
<path d="M176.177 99.3619C176.319 99.3619 176.434 99.2034 176.434 99.008C176.434 98.8126 176.319 98.6542 176.177 98.6542C176.034 98.6542 175.919 98.8126 175.919 99.008C175.919 99.2034 176.034 99.3619 176.177 99.3619Z" fill="#F2F2F2"/>
<path d="M177.631 105.785C177.773 105.785 177.888 105.627 177.888 105.431C177.888 105.236 177.773 105.077 177.631 105.077C177.489 105.077 177.374 105.236 177.374 105.431C177.374 105.627 177.489 105.785 177.631 105.785Z" fill="#F2F2F2"/>
<path d="M177.064 103.977C177.206 103.977 177.322 103.819 177.322 103.624C177.322 103.428 177.206 103.27 177.064 103.27C176.922 103.27 176.807 103.428 176.807 103.624C176.807 103.819 176.922 103.977 177.064 103.977Z" fill="#F2F2F2"/>
<path d="M176.573 101.67C176.715 101.67 176.83 101.511 176.83 101.316C176.83 101.12 176.715 100.962 176.573 100.962C176.431 100.962 176.316 101.12 176.316 101.316C176.316 101.511 176.431 101.67 176.573 101.67Z" fill="#F2F2F2"/>
<path d="M163.024 95.3148C163.166 95.3148 163.282 95.1563 163.282 94.9609C163.282 94.7655 163.166 94.6071 163.024 94.6071C162.882 94.6071 162.767 94.7655 162.767 94.9609C162.767 95.1563 162.882 95.3148 163.024 95.3148Z" fill="#F2F2F2"/>
<path d="M161.188 100.07C161.33 100.07 161.445 99.9111 161.445 99.7157C161.445 99.5202 161.33 99.3618 161.188 99.3618C161.046 99.3618 160.931 99.5202 160.931 99.7157C160.931 99.9111 161.046 100.07 161.188 100.07Z" fill="#F2F2F2"/>
<path d="M180.046 63.696L180.045 63.6992C178.648 62.8701 177.856 67.0462 177.644 68.3604L175.451 64.041C175.451 64.041 174.551 66.0218 171.645 66.3233C168.739 66.6237 168.033 63.2799 168.033 63.2799C167.634 63.2374 165.828 67.7107 165.172 69.3169C165.145 69.2532 165.117 69.1873 165.088 69.1183C164.781 68.3901 164.693 67.0728 164.69 65.8286C164.691 65.8241 164.691 65.8194 164.69 65.8148C164.692 65.5261 164.696 65.2363 164.701 64.9486C164.702 64.9369 164.702 64.9253 164.702 64.9136C164.733 63.7353 164.818 62.8022 164.818 62.8022C167.904 60.626 168.637 62.8935 168.637 62.8935C173.15 68.2383 174.174 61.5591 174.174 61.5591C176.63 60.4041 179.861 63.5155 180.046 63.696Z" fill="#6C63FF"/>
<path opacity="0.1" d="M162.928 102.504C162.967 102.637 166.207 107.785 167.402 108.05C168.598 108.316 162.928 102.504 162.928 102.504Z" fill="black"/>
<path opacity="0.1" d="M165.248 94.6071C165.248 94.6071 165.281 98.237 164.471 99.0568C163.661 99.8766 165.248 94.6071 165.248 94.6071Z" fill="black"/>
<path opacity="0.1" d="M166.747 95.8958C166.747 95.8958 166.67 100.168 167.827 101.177C167.827 101.177 165.705 98.3373 166.747 95.8958Z" fill="black"/>
<path opacity="0.1" d="M165.32 117.843C165.32 117.843 163.16 120.046 162.562 120.205C161.964 120.364 165.32 117.843 165.32 117.843Z" fill="black"/>
<path opacity="0.1" d="M164.78 50.443C164.315 50.9826 164.483 52.1027 164.958 52.6254C165.433 53.148 166.084 53.2283 166.692 53.2499C167.863 53.2914 169.053 53.198 170.188 53.5943C170.689 53.7372 171.153 54.0639 171.529 54.5397C171.879 55.0813 172.119 55.7391 172.226 56.4478C172.425 57.4907 172.506 58.5696 172.465 59.6463C172.437 60.3701 172.355 61.0983 172.43 61.8155C172.524 62.4887 172.69 63.139 172.922 63.7453C173.815 66.3526 174.81 68.8917 175.902 71.3515C175.988 71.5932 176.123 71.796 176.29 71.9361C176.569 72.1212 176.896 71.9336 177.174 71.7475C177.012 70.9985 176.92 70.2238 176.902 69.4426C177.046 69.4951 177.199 69.4869 177.34 69.4191C177.481 69.3513 177.604 69.227 177.693 69.0622C177.867 68.728 177.99 68.3485 178.054 67.9468L178.573 65.4861C178.733 64.7251 178.971 63.8518 179.523 63.6277C179.721 63.5888 179.916 63.5262 180.107 63.4407C180.232 63.3386 180.333 63.1884 180.397 63.0086C180.461 62.8287 180.485 62.6271 180.467 62.4284C180.425 62.031 180.305 61.6571 180.119 61.3477C179.338 59.9021 178.036 59.0448 177.426 57.4507C176.903 56.0818 176.994 54.4345 177.166 52.906C177.339 51.3776 177.579 49.8062 177.314 48.3032C177.045 46.9319 176.436 45.7327 175.594 44.9127C174.753 44.1023 173.792 43.5587 172.78 43.321C172.313 43.1575 171.824 43.1621 171.358 43.3343C171.008 43.4973 170.707 43.8193 170.365 44.0133C169.587 44.4539 168.691 44.1907 167.875 44.4711C167.125 44.7675 166.473 45.4152 166.033 46.3023C165.599 47.1852 165.273 48.1604 165.068 49.1888C164.918 49.8637 165.159 50.1336 164.721 50.5006" fill="black"/>
<path d="M164.857 50.2307C164.392 50.7703 164.56 51.8904 165.035 52.4131C165.511 52.9358 166.161 53.016 166.769 53.0376C167.94 53.0792 169.13 52.9857 170.265 53.382C170.766 53.5249 171.23 53.8516 171.607 54.3275C171.956 54.869 172.196 55.5268 172.304 56.2355C172.503 57.2784 172.583 58.3573 172.542 59.4341C172.514 60.1578 172.432 60.886 172.508 61.6033C172.601 62.2764 172.767 62.9268 172.999 63.533C173.893 66.1403 174.887 68.6794 175.979 71.1392C176.065 71.381 176.2 71.5838 176.367 71.7238C176.646 71.9089 176.973 71.7213 177.252 71.5352C177.089 70.7862 176.998 70.0115 176.979 69.2304C177.123 69.2828 177.276 69.2746 177.417 69.2068C177.558 69.139 177.681 69.0147 177.77 68.8499C177.944 68.5157 178.067 68.1362 178.131 67.7346L178.65 65.2738C178.81 64.5128 179.048 63.6395 179.6 63.4154C179.798 63.3765 179.994 63.3139 180.184 63.2284C180.309 63.1263 180.41 62.9761 180.474 62.7963C180.538 62.6165 180.562 62.4148 180.544 62.2161C180.502 61.8187 180.382 61.4448 180.196 61.1355C179.415 59.6898 178.113 58.8325 177.503 57.2384C176.98 55.8695 177.071 54.2222 177.244 52.6938C177.416 51.1653 177.656 49.5939 177.391 48.0909C177.122 46.7196 176.514 45.5205 175.671 44.7004C174.83 43.89 173.869 43.3464 172.857 43.1087C172.39 42.9452 171.901 42.9498 171.435 43.122C171.085 43.2851 170.784 43.607 170.442 43.801C169.664 44.2416 168.768 43.9784 167.952 44.2588C167.202 44.5552 166.55 45.2029 166.11 46.09C165.676 46.9729 165.35 47.9481 165.146 48.9765C164.995 49.6514 165.236 49.9213 164.798 50.2883" fill="#3F3D56"/>
<path d="M164.375 79.15C164.375 79.15 167.904 75.9123 168.907 77.9027C169.91 79.8931 165.802 82.3346 165.802 82.3346L164.375 79.15Z" fill="#FBBEBE"/>
<path d="M165.528 63.7643C165.515 64.0765 165.472 64.4591 165.345 64.5157C165.675 64.5049 165.999 64.8384 166.326 64.7388C166.569 64.6646 166.798 64.3397 166.945 63.8601C166.96 63.7885 166.989 63.7236 167.028 63.6727C167.062 63.645 167.1 63.6726 167.134 63.7005C167.772 64.2252 168.368 64.8435 168.909 65.5446C169.09 65.7764 169.291 66.0274 169.489 65.9064C169.498 65.0274 169.369 64.1562 169.11 63.3525C168.901 62.7081 168.547 62.1741 168.099 61.8304C167.727 61.5806 167.323 61.4358 166.91 61.4046C166.732 61.3996 166.557 61.3397 166.398 61.2292C166.222 61.0874 165.663 60.1669 165.537 60.8372C165.476 61.1609 165.554 61.8503 165.556 62.2083C165.559 62.7277 165.55 63.2475 165.528 63.7643Z" fill="#3F3D56"/>
<g opacity="0.1">
<path opacity="0.1" d="M176.698 71.1929C176.53 71.0529 176.396 70.8501 176.309 70.6084C175.217 68.1485 174.223 65.6094 173.33 63.0021C173.097 62.3959 172.932 61.7455 172.838 61.0724C172.762 60.3551 172.845 59.6269 172.872 58.9032C172.913 57.8264 172.833 56.7475 172.634 55.7046C172.526 54.9959 172.286 54.3381 171.937 53.7966C171.56 53.3207 171.096 52.994 170.596 52.8511C169.46 52.4548 168.27 52.5483 167.099 52.5067C166.491 52.4851 165.841 52.4049 165.365 51.8822C165.181 51.6773 165.045 51.4018 164.975 51.0906C164.904 50.7794 164.902 50.4464 164.969 50.1337C164.939 50.1734 164.906 50.2097 164.871 50.242C164.417 50.7856 164.585 51.8937 165.057 52.413C165.532 52.9356 166.182 53.0159 166.791 53.0375C167.962 53.079 169.152 52.9856 170.287 53.3819C170.788 53.5248 171.251 53.8514 171.628 54.3273C171.977 54.8689 172.218 55.5267 172.325 56.2354C172.524 57.2783 172.605 58.3572 172.564 59.4339C172.536 60.1577 172.454 60.8859 172.529 61.6031C172.623 62.2763 172.789 62.9266 173.021 63.5329C173.914 66.1402 174.909 68.6793 176.001 71.1391C176.087 71.3808 176.222 71.5836 176.389 71.7237C176.668 71.9088 176.995 71.7211 177.273 71.5351C177.25 71.4284 177.229 71.3209 177.209 71.2131C177.042 71.2946 176.86 71.2874 176.698 71.1929Z" fill="black"/>
<path opacity="0.1" d="M164.82 50.2886C164.839 50.2729 164.855 50.2575 164.871 50.2421C164.874 50.2384 164.876 50.2342 164.879 50.2306L164.82 50.2886Z" fill="black"/>
<path opacity="0.1" d="M165.179 49.7113C165.163 49.7266 165.147 49.7419 165.128 49.7575L165.188 49.6998C165.185 49.7034 165.182 49.7076 165.179 49.7113C165.545 49.367 165.332 49.0918 165.476 48.4457C165.678 47.4362 165.995 46.4776 166.417 45.6062C166.316 45.7601 166.22 45.9216 166.132 46.0899C165.697 46.9728 165.372 47.948 165.167 48.9764C165.122 49.2592 165.097 49.5473 165.092 49.8367C165.118 49.7915 165.148 49.7496 165.179 49.7113Z" fill="black"/>
<path opacity="0.1" d="M180.514 62.6975C180.324 62.7831 180.129 62.8457 179.931 62.8846C179.649 63.0178 179.417 63.2998 179.285 63.6685C179.384 63.5527 179.498 63.4665 179.622 63.4153C179.82 63.3764 180.015 63.3138 180.205 63.2283C180.282 63.1719 180.35 63.0952 180.404 63.0026C180.459 62.91 180.5 62.8034 180.525 62.689C180.521 62.6917 180.518 62.6949 180.514 62.6975Z" fill="black"/>
<path opacity="0.1" d="M177.309 68.6996C177.313 68.8836 177.322 69.0672 177.335 69.2506C177.514 69.1875 177.674 69.0471 177.792 68.8498C177.851 68.7485 177.903 68.6384 177.945 68.5216C177.858 68.6211 177.754 68.6894 177.643 68.7204C177.532 68.7514 177.417 68.7443 177.309 68.6996Z" fill="black"/>
</g>
<path opacity="0.1" d="M163.521 78.5182C163.521 78.5182 164.452 77.9998 164.998 78.115L163.521 78.5182Z" fill="black"/>
<path opacity="0.1" d="M166.204 84.3514C166.204 84.3514 166.676 85.3599 169.064 85.7845C171.452 86.2091 166.204 84.3514 166.204 84.3514Z" fill="black"/>
<path opacity="0.1" d="M165.345 88.12C165.345 88.12 167.493 90.7208 170.939 89.7654C174.384 88.81 165.345 88.12 165.345 88.12Z" fill="black"/>
<path d="M155.706 148.88L191.078 141.335" stroke="#3F3D56" stroke-miterlimit="10"/>
<path d="M32.0662 66.9558C32.0662 73.3155 35.1026 78.811 39.5055 81.4156L33.209 60.4173C32.4598 62.4428 32.0682 64.683 32.0662 66.9558ZM54.1768 66.1451C54.1768 64.1595 53.5909 62.7844 53.0883 61.7141C52.4192 60.3907 51.7923 59.2699 51.7923 57.9465C51.7923 56.4696 52.7123 55.0949 54.0086 55.0949C54.0671 55.0949 54.1226 55.1037 54.1799 55.1077C51.6464 52.3407 48.5003 50.8521 45.266 50.8901C40.6546 50.8901 36.5975 53.7699 34.2373 58.1318C34.547 58.1431 34.8391 58.1507 35.0867 58.1507C36.4674 58.1507 38.6046 57.9468 38.6046 57.9468C39.3161 57.8958 39.4 59.1678 38.6895 59.2703C38.6895 59.2703 37.9741 59.3727 37.1785 59.4234L41.9853 76.826L44.8742 66.2811L42.8174 59.4231C42.1066 59.3724 41.4332 59.27 41.4332 59.27C40.7219 59.2192 40.8053 57.8955 41.5166 57.9465C41.5166 57.9465 43.6964 58.1504 44.9935 58.1504C46.3739 58.1504 48.5113 57.9465 48.5113 57.9465C49.2233 57.8955 49.307 59.1675 48.5959 59.27C48.5959 59.27 47.8794 59.3724 47.0852 59.4231L51.8553 76.694L53.1717 71.3388C53.7426 69.1166 54.1768 67.5205 54.1768 66.1451H54.1768Z" fill="#6C63FF"/>
<path d="M45.4975 68.3612L41.5372 82.3683C44.206 83.3212 47.015 83.2326 49.6493 82.1124C49.6128 82.043 49.5813 81.9689 49.5554 81.8911L45.4975 68.3612ZM56.8482 59.2477C56.9082 59.7945 56.9379 60.3468 56.9371 60.8997C56.9371 62.5301 56.687 64.3628 55.9335 66.6544L51.9015 80.8434C55.8257 78.0581 58.4652 72.8833 58.4652 66.9559C58.4619 64.2287 57.9015 61.5578 56.8482 59.2477L56.8482 59.2477Z" fill="#6C63FF"/>
</g>
<defs>
<clipPath id="clip0">
<rect width="197" height="149" fill="white"/>
</clipPath>
</defs>
</svg>
