<?xml version="1.0" encoding="utf-8"?>
<!-- Generator: Adobe Illustrator 16.0.3, SVG Export Plug-In . SVG Version: 6.00 Build 0)  -->
<!DOCTYPE svg PUBLIC "-//W3C//DTD SVG 1.1//EN" "http://www.w3.org/Graphics/SVG/1.1/DTD/svg11.dtd">
<svg version="1.1" id="Capa_1" xmlns="http://www.w3.org/2000/svg" xmlns:xlink="http://www.w3.org/1999/xlink" x="0px" y="0px"
	 width="1178px" height="928px" viewBox="0 0 1178 928" enable-background="new 0 0 1178 928" xml:space="preserve">
<title>time management</title>
<title>forgot password</title>
<path fill="#8CC63F" d="M918.336,628.167c0,0-78.32-10.17-19.91,116.59c0,0,53.23-22.811,55.351-74.26
	c0.892-20.725-13.856-38.841-34.33-42.17L918.336,628.167z"/>
<path fill="#006837" stroke="#535461" stroke-miterlimit="10" d="M919.486,627.977c0,0,17.729,70.68-21,116.79"/>
<path fill="#006837" stroke="#535461" stroke-width="2" stroke-miterlimit="10" d="M897.426,751.297c0,0,28.2-69.5,80.86-95.28
	c22.174-10.672,40.284-28.253,51.61-50.1c5.292-10.406,9.62-21.274,12.93-32.471"/>
<path fill="#006837" d="M1075.916,557.017c-5.49,6.9-33.9,17-33.9,17s3.42-30,8.91-36.85c5.069-7.238,15.047-8.996,22.284-3.928
	c7.238,5.069,8.996,15.047,3.927,22.284c-0.372,0.532-0.776,1.041-1.211,1.523L1075.916,557.017z"/>
<path fill="#006837" d="M1066.166,611.667c-8.36,2.81-37.68-4.181-37.68-4.181s19.149-23.279,27.51-26.09
	c8.177-3.351,17.521,0.562,20.872,8.737c3.351,8.177-0.561,17.521-8.737,20.873C1067.491,611.269,1066.834,611.489,1066.166,611.667
	z"/>
<path fill="#006837" d="M1013.306,676.276c-8.63-1.79-30.42-22.63-30.42-22.63s28.28-10.43,36.92-8.64
	c8.513,2.372,13.489,11.195,11.117,19.708c-2.151,7.719-9.681,12.655-17.617,11.552V676.276z"/>
<path fill="#006837" d="M962.306,716.156c-8.81-0.31-33.81-17.159-33.81-17.159s26.12-15.08,34.93-14.761
	c8.791,0.895,15.192,8.747,14.298,17.538c-0.812,7.978-7.403,14.122-15.418,14.372V716.156z"/>
<path fill="#006837" d="M1001.186,587.917c1.131,8.75,20.221,32.069,20.221,32.069s12.569-27.399,11.449-36.149
	c-0.554-8.819-8.152-15.52-16.972-14.965s-15.52,8.153-14.965,16.973C1000.963,586.54,1001.052,587.232,1001.186,587.917
	L1001.186,587.917z"/>
<path fill="#006837" d="M942.126,635.356c3.69,8,28.89,24.55,28.89,24.55s3.801-29.909,0.11-37.909
	c-3.176-8.247-12.435-12.357-20.681-9.182c-8.246,3.175-12.357,12.435-9.182,20.681c0.247,0.642,0.535,1.267,0.862,1.87V635.356z"/>
<path fill="#006837" d="M891.046,689.297c2.28,8.52,24.33,29.08,24.33,29.08s8.8-28.83,6.51-37.351
	c-1.718-8.668-10.137-14.302-18.805-12.584s-14.303,10.138-12.585,18.806C890.634,687.942,890.817,688.627,891.046,689.297
	L891.046,689.297z"/>
<path opacity="0.25" fill="#006837" enable-background="new    " d="M1075.916,557.017c-5.49,6.9-33.9,17-33.9,17
	s3.42-30,8.91-36.85c5.069-7.238,15.047-8.996,22.284-3.928c7.238,5.069,8.996,15.047,3.927,22.284
	c-0.372,0.532-0.776,1.041-1.211,1.523L1075.916,557.017z"/>
<path opacity="0.25" fill="#006837" enable-background="new    " d="M1066.166,611.667c-8.36,2.81-37.68-4.181-37.68-4.181
	s19.149-23.279,27.51-26.09c8.177-3.351,17.521,0.562,20.872,8.737c3.351,8.177-0.561,17.521-8.737,20.873
	C1067.491,611.269,1066.834,611.489,1066.166,611.667z"/>
<path opacity="0.25" fill="#006837" enable-background="new    " d="M1013.306,676.276c-8.63-1.79-30.42-22.63-30.42-22.63
	s28.28-10.43,36.92-8.64c8.513,2.372,13.489,11.195,11.117,19.708c-2.151,7.719-9.681,12.655-17.617,11.552V676.276z"/>
<path opacity="0.25" fill="#006837" enable-background="new    " d="M962.306,716.156c-8.81-0.31-33.81-17.159-33.81-17.159
	s26.12-15.08,34.93-14.761c8.791,0.895,15.192,8.747,14.298,17.538c-0.812,7.978-7.403,14.122-15.418,14.372V716.156z"/>
<path opacity="0.25" fill="#006837" enable-background="new    " d="M1001.186,587.917c1.131,8.75,20.221,32.069,20.221,32.069
	s12.569-27.399,11.449-36.149c-0.554-8.819-8.152-15.52-16.972-14.965s-15.52,8.153-14.965,16.973
	C1000.963,586.54,1001.052,587.232,1001.186,587.917L1001.186,587.917z"/>
<path opacity="0.25" fill="#006837" enable-background="new    " d="M942.126,635.356c3.69,8,28.89,24.55,28.89,24.55
	s3.801-29.909,0.11-37.909c-3.176-8.247-12.435-12.357-20.681-9.182c-8.246,3.175-12.357,12.435-9.182,20.681
	c0.247,0.642,0.535,1.267,0.862,1.87V635.356z"/>
<path opacity="0.25" fill="#006837" enable-background="new    " d="M891.046,689.297c2.28,8.52,24.33,29.08,24.33,29.08
	s8.8-28.83,6.51-37.351c-1.718-8.668-10.137-14.302-18.805-12.584s-14.303,10.138-12.585,18.806
	C890.634,687.942,890.817,688.627,891.046,689.297L891.046,689.297z"/>
<path fill="#006837" stroke="#535461" stroke-width="2" stroke-miterlimit="10" d="M934.986,782.917c0,0,28.199-69.5,80.859-95.28
	c22.164-10.68,40.264-28.264,51.58-50.11c5.293-10.405,9.621-21.274,12.931-32.47"/>
<path fill="#006837" d="M1113.426,588.616c-5.49,6.9-33.899,17-33.899,17s3.42-30,8.909-36.85
	c5.911-6.569,16.027-7.104,22.597-1.193c6.011,5.408,7.042,14.45,2.403,21.073L1113.426,588.616z"/>
<path fill="#39B54A" d="M1103.696,643.267c-8.36,2.81-37.681-4.18-37.681-4.18s19.15-23.28,27.511-26.09
	c8.541-2.267,17.302,2.82,19.567,11.362C1115.154,632.127,1111.133,640.219,1103.696,643.267z"/>
<path fill="#006837" d="M1050.836,707.917c-8.63-1.79-30.42-22.631-30.42-22.631s28.28-10.43,36.92-8.64
	c8.512,2.372,13.489,11.196,11.117,19.708c-2.151,7.719-9.681,12.656-17.617,11.552V707.917z"/>
<path fill="#006837" d="M999.826,747.747c-8.811-0.311-33.811-17.16-33.811-17.16s26.12-15.061,34.931-14.75
	c8.791,0.895,15.192,8.746,14.298,17.537C1014.432,741.352,1007.841,747.496,999.826,747.747z"/>
<path fill="#009245" d="M1038.706,619.557c1.13,8.75,20.22,32.07,20.22,32.07s12.57-27.4,11.45-36.15
	c-0.555-8.819-8.153-15.519-16.973-14.964s-15.519,8.153-14.964,16.973C1038.482,618.181,1038.572,618.873,1038.706,619.557
	L1038.706,619.557z"/>
<path fill="#39B54A" d="M979.656,666.917c3.689,8,28.89,24.55,28.89,24.55s3.8-29.91,0.11-37.91
	c-4.209-7.77-13.92-10.657-21.689-6.448c-7.071,3.83-10.201,12.313-7.311,19.818V666.917z"/>
<path fill="#39B54A" d="M928.576,720.917c2.28,8.52,24.33,29.08,24.33,29.08s8.8-28.83,6.51-37.351
	c-2.85-8.364-11.94-12.835-20.305-9.985C931.521,705.247,927.018,713.051,928.576,720.917z"/>
<path opacity="0.1" fill="#B3B3B3" enable-background="new    " d="M53.857,487.989c17.36,74.2,54.11,138.341,112.19,169.431
	c120.7,64.609,392.91,31.29,596.07-7c102.649-19.276,195.826-72.535,264.529-151.2L53.857,487.989z"/>
<path opacity="0.1" fill="#CCCCCC" enable-background="new    " d="M1119.207,138.73h-111.471c-5.32,0-9.635-4.313-9.635-9.635
	s4.314-9.635,9.635-9.635l0,0h19.271c-5.321,0-9.635-4.314-9.635-9.636s4.313-9.635,9.635-9.635l0,0h-13.76
	c-5.321,0-9.636-4.313-9.636-9.635s4.314-9.635,9.636-9.635h58.18c-12.91-6-28-10.271-45.38-12.511
	c-158.64-20.38-215.28-6.899-235.26,7c-24.65,17.101-52.15,29.681-81.54,35.74c-97.891,20.17-280.94,44.47-446.85-7.8
	c-82.46-26-143.75,17.92-180.48,91.28h1056.64c-1.38-21.32-5.51-41-13.09-58.24C1123.729,137.896,1121.507,138.727,1119.207,138.73z
	"/>
<path opacity="0.1" fill="#E6E6E6" enable-background="new    " d="M44.397,333.12c-4.28,43.155-2.824,86.688,4.33,129.46
	l978.68,35.789c27.243-31.339,50.117-66.221,68-103.699L44.397,333.12z M431.477,425.47h-19.27c5.321,0,9.635,4.313,9.635,9.635
	s-4.313,9.635-9.635,9.635h-111.47c-5.321,0-9.635-4.313-9.635-9.635s4.314-9.635,9.635-9.635h19.27
	c-5.321,0-9.635-4.313-9.635-9.635s4.313-9.636,9.635-9.636h-13.76c-5.321,0-9.635-4.313-9.635-9.635s4.314-9.635,9.635-9.635
	h111.47c5.321,0,9.635,4.313,9.635,9.635s-4.314,9.635-9.635,9.635l0,0h13.76c5.321,0,9.635,4.314,9.635,9.636
	S436.798,425.47,431.477,425.47L431.477,425.47L431.477,425.47z"/>
<path opacity="0.1" fill="#C7B299" enable-background="new    " d="M1138.607,195.3l-1068.491,26
	c-12.99,33.41-21.56,71.18-25.56,110.33h1075.33c7.021-22.998,12.214-46.515,15.53-70.33
	C1138.617,238.29,1139.896,216.03,1138.607,195.3z M261.477,280.47h-19.27c5.321,0,9.635,4.313,9.635,9.635
	s-4.313,9.635-9.635,9.635h-111.47c-5.321,0-9.635-4.313-9.635-9.635s4.313-9.635,9.635-9.635h19.27
	c-5.321,0-9.635-4.313-9.635-9.635s4.313-9.636,9.635-9.636h-13.76c-5.321,0-9.635-4.313-9.635-9.635s4.314-9.635,9.635-9.635
	h111.47c5.321,0,9.635,4.313,9.635,9.635s-4.314,9.635-9.635,9.635h13.76c5.321,0,9.635,4.314,9.635,9.636
	S266.798,280.47,261.477,280.47z"/>
<linearGradient id="SVGID_1_" gradientUnits="userSpaceOnUse" x1="506.1069" y1="1059.4004" x2="506.1069" y2="1847.3896" gradientTransform="matrix(1 0 0 -1 77.5898 1929.2402)">
	<stop  offset="0" style="stop-color:#808080;stop-opacity:0.25"/>
	<stop  offset="0.54" style="stop-color:#808080;stop-opacity:0.12"/>
	<stop  offset="1" style="stop-color:#808080;stop-opacity:0.1"/>
</linearGradient>
<path fill="url(#SVGID_1_)" d="M980.687,869.319c0,0-44.56-244.399-129.529-284.06c-72-33.63-149.86-56.3-172-62.45
	c-3.307-5.325-7.128-10.313-11.41-14.89c-30.261-31.591-48.44-31-51.38-30.61c-1.396-6.265-2.397-12.61-3-19
	c-0.091-1-0.181-1.93-0.261-2.92l0.261-0.13c-0.181-1.891-0.341-3.84-0.48-5.85c12.353-6.593,23.726-14.875,33.79-24.609
	c0.13,0.43,0.24,0.859,0.38,1.3c21.807-18.434,43.163-37.367,64.07-56.8c6-5.61,12.3-11.7,14.34-19.61
	c0.653-2.722,0.906-5.524,0.75-8.32c0.271-6-1.15-12.13-1.39-18.21c0-1,0.109-1.93,0.239-2.88c1.4-9.95,8.32-18.12,14-26.47
	c14.191-21.102,21.598-46.033,21.23-71.46c0.155-12.184-1.53-24.32-5-36c-4.43-14.82-13.65-30.39-29-33.63
	c-5.94-1.25-12.11-0.47-18.17-0.86c-25.09-1.6-43.87-22-63.88-36.95c-24.422-18.157-53.303-29.367-83.58-32.439
	c-9.45-1-19.21-1.07-28.2,1.93c-20.19,6.72-32.45,27.47-51.9,36c-14.38,6.34-31,5.311-46,10.07c-22.33,7.1-41.28,30-41.78,53.53
	c0,0.869,0,1.739,0,2.609c0,0.15,0,0.3,0,0.44c-0.25,11.89,4,24,4.34,36.17c0,1.1,0.017,2.203,0.05,3.31
	c-0.11,13.141-1.68,26.32-6.47,38.67c-2.58,6.65-5.9,14.351-5.36,21c-0.3,4.07,0.49,7.891,3.32,11l4.83-4.26
	c-1.62,8.768-2.434,17.664-2.43,26.58c0,44.94,20.44,85.18,52.68,112.26c0.187,2.993,0.366,6.2,0.54,9.62
	c0.76,14.82,1.36,33.41,1.19,53.669l-47.16,43.351l-121.24,55c0,0-110.88,23.42-87,179.189l11.4,96.721h101.23l-0.23,0.51h150.25
	l0.09-0.51h357.48l-0.07,0.51h14v-0.51L980.687,869.319z M617.257,479.789c3.064,6.34,5.477,12.974,7.2,19.801
	c-3.538-6.569-6.153-13.596-7.771-20.88l0.15,0.27L617.257,479.789z M445.437,499.789c0,1.907-0.034,3.83-0.1,5.771l-0.24,0.34
	c-0.016-2.059,0.098-4.116,0.34-6.16V499.789z"/>
<path fill="#FDC2CC" d="M656.807,524.319l-20,191l-107,34c0,0-139-26-103-101c25.61-53.35,24.9-148.689,22.36-199.29
	c-1-20.54-2.36-33.71-2.36-33.71s182-159,167-16c-2.899,27.69-3.07,49.34-1.46,66.26
	C619.097,536.02,656.807,524.319,656.807,524.319z"/>
<path opacity="0.03" enable-background="new    " d="M656.807,524.319l-20,191l-107,34c0,0-139-26-103-101
	c25.61-53.35,24.9-148.689,22.36-199.29c-1-20.54-2.36-33.71-2.36-33.71s182-159,167-16c-2.899,27.69-3.07,49.34-1.46,66.26
	C619.097,536.02,656.807,524.319,656.807,524.319z"/>
<path opacity="0.1" enable-background="new    " d="M613.807,396.32c-2.899,27.69-3.07,49.34-1.46,66.259
	c-52.591,28.713-117.424,22.137-163.18-16.549c-1-20.54-2.36-33.71-2.36-33.71S628.807,253.32,613.807,396.32z"/>
<circle fill="#FDC2CC" cx="542.807" cy="329.329" r="145"/>
<circle opacity="0.03" enable-background="new    " cx="542.807" cy="329.329" r="145"/>
<path fill="#D9E021" d="M966.807,869.319h-752l-11-95c-23-153,84-176,84-176l117-54l46.5-43.5c-15,57,98.5,175.5,98.5,175.5l0,0
	c0.729-0.678,1.42-1.396,2.07-2.149c3.06-3.341,10.37-11.7,27.49-32.44c6.12-7.43,13.51-16.44,22.41-27.38
	c42.801-52.6,20.841-114.75,14.28-127.6l-0.41-0.801c-0.25-0.46-0.439-0.83-0.59-1.09l0,0c-0.041-0.095-0.092-0.185-0.149-0.27
	c-0.042-0.064-0.079-0.131-0.11-0.2l55,43c0,0,2.11,0.56,6,1.66c21.4,6,96.58,28.31,166,61.34
	C923.807,629.319,966.807,869.319,966.807,869.319z"/>
<path fill="#FCEE21" d="M710.807,640.319c-9-9-70-20-70-20c2,24-72,61-72,61l5.5,188h-35.48l-6-169l17-24l0,0l2.07-2.149
	c9.851-10.212,19.034-21.047,27.49-32.44c6.12-7.43,13.51-16.44,22.41-27.38c42.8-52.6,20.84-114.75,14.28-127.6l-0.41-0.801
	c-0.24-0.47-0.43-0.83-0.59-1.09l0,0c-0.042-0.095-0.092-0.185-0.15-0.27c-0.041-0.064-0.078-0.131-0.11-0.2l0,0c0,0,18-4,50,30
	c4.137,4.516,7.821,9.426,11,14.66C701.816,570.77,718.736,648.25,710.807,640.319z"/>
<path opacity="0.1" enable-background="new    " d="M303.807,717.319c0,0,47,96,49.5,152.5"/>
<polygon opacity="0.1" enable-background="new    " points="815.807,772.329 802.307,869.829 815.807,869.829 "/>
<path opacity="0.1" enable-background="new    " d="M314.307,869.819l74.5-169.5c0,0,21-40,26-80s32-103,32-103s67-85,98-73
	c31,12-27,57-27,57s85,33,27,131s-59,80-59,80l-28.5,157.5H314.307z"/>
<path fill="#FDC2CC" d="M312.307,869.819l74.5-169.5c0,0,21-40,26-80c3.18-25.43,15.25-60.16,23.62-82.09
	c5.463-14.337,13.502-27.555,23.72-39c21.66-24.24,61-63.33,82.66-54.929c31,12-27,57-27,57s85,33,27,131s-59,80-59,80l-28.5,157.5
	L312.307,869.819z"/>
<circle opacity="0.15" fill="#FFFFFF" enable-background="new    " cx="587.307" cy="247.83" r="3"/>
<circle opacity="0.15" fill="#FFFFFF" enable-background="new    " cx="573.307" cy="253.83" r="3"/>
<path opacity="0.1" enable-background="new    " d="M439.797,146.6c14.47-4.68,30.53-3.67,44.41-9.89
	c18.77-8.421,30.6-28.801,50.08-35.4c8.68-2.94,18.1-2.83,27.21-1.89c29.294,3.049,57.192,14.071,80.66,31.869
	c19.31,14.69,37.43,34.721,61.64,36.29c5.85,0.381,11.8-0.39,17.53,0.841c14.84,3.18,23.729,18.47,28,33
	c9.996,34.847,4.276,72.321-15.66,102.6c-5.48,8.2-12.16,16.23-13.51,26c-1.32,9.58,2.76,19.51,0.38,28.89
	c-2,7.771-8,13.75-13.84,19.261c-20.167,19.073-40.777,37.656-61.83,55.75c-10.94-34.761,5.109-72.19,2.609-108.54
	c-1-14.16-6-29.62-18.49-36.301c-11.689-6.239-26.63-3-38.459-9c-13.2-6.649-18.62-22.399-28.6-33.3c-17-18.6-46.51-21-70.28-12.6
	c-23.77,8.399-43.2,25.68-62,42.53l-34.17,30.649c-6.67-7.52-1.61-19.06,2-28.46c5.38-14.09,6.56-29.28,6.2-44.24
	c-0.29-12-4.43-23.85-4.19-35.529C399.967,176.09,418.247,153.57,439.797,146.6z"/>
<path fill="#4D4D4D" d="M439.797,143.6c14.47-4.68,30.53-3.67,44.41-9.89c18.77-8.421,30.6-28.801,50.08-35.4
	c8.68-2.94,18.1-2.83,27.21-1.89c29.294,3.049,57.192,14.071,80.66,31.869c19.31,14.69,37.43,34.721,61.64,36.29
	c5.85,0.381,11.8-0.39,17.53,0.841c14.84,3.18,23.729,18.47,28,33c9.996,34.847,4.276,72.321-15.66,102.6
	c-5.48,8.2-12.16,16.23-13.51,26c-1.32,9.58,2.76,19.51,0.38,28.89c-2,7.771-8,13.75-13.84,19.261
	c-20.167,19.073-40.777,37.656-61.83,55.75c-10.94-34.761,5.109-72.19,2.609-108.54c-1-14.16-6-29.62-18.49-36.301
	c-11.689-6.239-26.63-3-38.459-9c-13.2-6.649-18.62-22.399-28.6-33.3c-17-18.6-46.51-21-70.28-12.6
	c-23.77,8.399-43.2,25.68-62,42.53l-34.17,30.649c-6.67-7.52-1.61-19.06,2-28.46c5.38-14.09,6.56-29.28,6.2-44.24
	c-0.29-12-4.43-23.85-4.19-35.529C399.967,173.09,418.247,150.57,439.797,143.6z"/>
</svg>
