<?xml version="1.0" encoding="utf-8"?>
<!-- Generator: Adobe Illustrator 16.0.3, SVG Export Plug-In . SVG Version: 6.00 Build 0)  -->
<!DOCTYPE svg PUBLIC "-//W3C//DTD SVG 1.1//EN" "http://www.w3.org/Graphics/SVG/1.1/DTD/svg11.dtd">
<svg version="1.1" id="Capa_1" xmlns="http://www.w3.org/2000/svg" xmlns:xlink="http://www.w3.org/1999/xlink" x="0px" y="0px"
	 width="1178px" height="928px" viewBox="0 0 1178 928" enable-background="new 0 0 1178 928" xml:space="preserve">
<title>time management</title>
<title>forgot password</title>
<title>reading list</title>
<title>gardening</title>
<path opacity="0.1" fill="#4829B2" enable-background="new    " d="M360.725,814.794c-8,2-16.28-0.33-24.47-0.43
	s-17.75,3.35-19.76,11.291c-2.7,10.67,9.78,18.719,20.46,21.369c41.45,10.32,85.33-3.07,127.7,2.391
	c17.85,2.299,35.22,7.93,53.17,9.279c41.09,3.07,81.23-16.469,122.38-14.26c20.61,1.1,40.65,7.65,61.26,8.701
	c49.32,2.51,98-26.441,146.271-16.07c13.67,2.898,26.43,8.898,39.94,12.359c34.159,8.75,70.109,1,104.5-6.85
	c6.83-1.551,15.06-4.561,15.899-11.51c0.931-7.67-7.88-12.48-15.2-14.93c-80.109-26.791-165.89-41-249.449-28.602
	c-19,2.82-38,7-57.2,6.73c-42.54-0.609-81.641-22.811-123.41-30.92c-79.14-15.379-158.27,20.5-230.92,55.461"/>
<g opacity="0.1">
	<path fill="#4829B2" d="M66.549,101.653c12,17.23,8.88,41.53-0.3,60.41s-23.45,34.561-33.87,52.73
		c-20.78,36.25-21.5,90.18,12,114.689c7.22,5.29,15.86,9.17,20.72,16.811c6.7,10.54,4,24.41,1,36.58l-0.24,1
		c-11.25,46.069,17.17,92.879,62.32,102.28c25,5.209,48.1,15.449,66.35,34c15.95,16.2,26.36,37.159,37.83,56.999
		c20.72,35.83,46.15,69.531,79,93.762c32.85,24.229,73.91,38.318,113.73,32.68c91-12.881,147.899-119.43,238.6-134.131
		c6.53-1.061,13.57-1.529,19.45,1.65c8.31,4.49,11.77,14.631,16,23.311c22.229,46,76.55,62.66,124.86,74.59l90.84,22.41
		c49.319,12.17,101,24.34,149.949,11.26c48.95-13.08,93.08-60.4,85.53-112.24c-6.21-42.59-44.35-76.681-44.27-119.7
		c0.05-29.74,18.77-56.65,19.29-86.38c0.54-30.939-18.641-58.609-39.7-80.739c-60.62-63.71-141.51-101.471-220.38-137.771
		c-55.57-25.59-111.41-51.279-170.08-67.7c-144.62-40.359-297.07-22.159-446.6-21.77c-25.72,0.07-52.64-0.2-77.18-9.43
		c-18.83-7.08-35-26.29-55.07-28.641c-15.32-1.779-36.75,7.4-49,16.29C44.829,70.853,52.588,81.664,66.549,101.653z"/>
</g>
<linearGradient id="SVGID_1_" gradientUnits="userSpaceOnUse" x1="856.1191" y1="1098.5146" x2="856.1191" y2="1710.8691" gradientTransform="matrix(1 0 0 -1 95.71 1935.3984)">
	<stop  offset="0" style="stop-color:#808080;stop-opacity:0.25"/>
	<stop  offset="0.54" style="stop-color:#808080;stop-opacity:0.12"/>
	<stop  offset="1" style="stop-color:#808080;stop-opacity:0.1"/>
</linearGradient>
<path fill="url(#SVGID_1_)" d="M1052.659,324.153c0.026-0.393,0.026-0.787,0-1.18c-0.36-4.88-5-8.41-9.601-10.29
	c-4.6-1.88-9.74-2.8-13.81-5.649c-6.881-4.82-9-13.83-9.62-22.07c-0.19-2.561-0.271-5.12-0.28-7.69c-0.01-2.569,0.16-5.41,0.4-8.109
	c0.399-4.48,1.06-9.12,1-13.61c0.233-4.284-0.591-8.56-2.4-12.45c-4.08-8.06-13.24-12.18-21.72-15.689
	c-3.261-1.351-6.601-2.721-10.141-2.87c-3.739-0.16-7.38,1.05-10.92,2.25c-5.62,1.899-11.319,4.37-17.13,5.66
	c-3.26,0.72-6.83,0.18-10,1.33c-6.22,2.279-7.55,7.869-7.45,14c0,0.39,0,0.77,0,1.159c-0.62-0.569-1.26-1.109-1.909-1.63l-0.381-0.3
	c-0.666-0.54-1.376-1.05-2.13-1.53l-0.359-0.229c-1.528-0.99-3.13-1.863-4.79-2.61l-0.25-0.109c-0.834-0.367-1.681-0.7-2.54-1
	l-0.16-0.061c-1.78-0.62-3.605-1.102-5.46-1.439l0,0c-11.862-2.21-24.049,1.607-32.53,10.189l-6.87,7l0,0
	c-31.229-7-32.63,20.13-32.63,20.13l0.23-0.05l-0.08,0.19c1,4.689,37.279,76.13,37.279,76.13
	c16.761,11.91,34.181,27.87,34.181,27.87s-10.78,5.71-6.78,31.859c4.89,32-2.46,77.55-2.46,77.55v29.459l1.38-0.379
	c-0.17,1-0.35,1.999-0.521,3.149c-2.277,14.803-2.566,29.842-0.859,44.721c3.7,31.26,18.479,73.939,18.479,73.939
	s5.54,15,6.78,27.051c0.195,2.379,0.727,4.719,1.58,6.949c2.78,6.611,4.248,13.699,4.32,20.871c0,13.08,1.71,32.709,9.5,52.74
	c6.25,16.078,8.56,25.5,9.25,31c-4.431,5.859-10.221,12.25-14.79,12.889c-8.62,1.201-25.261,2.4-14.17,16.83
	c0.387,0.496,0.818,0.955,1.29,1.371c-8.42,1.359-17.681,4.359-8.681,16.059c11.091,14.43,76.391,7.82,76.391,7.82s0.42-8,0-16.82
	c4.58-0.32,7.41-0.609,7.41-0.609s1.85-34.869-6.16-39.08c-1.48,0.162-2.934,0.518-4.32,1.061c-0.86-4.82-1.52-10.811-1.93-15.25
	l3.17-0.24v-52.281c0,0-3.7-32.459-17.25-46.889c-1.728-1.803-3.217-3.818-4.431-6c0.101-4.17,0.11-10,0.061-16.73
	c0.539-0.91,1.18-1.756,1.91-2.52c0,0,7.39-9,32.649-66.131c14.9-33.689,11.58-53.14,6.351-63.44c-1-3.66-3.601-14.109-7-33.35
	c-4.311-24.65,0.62-48.7,0.62-48.7s16-41.479,23.409-58.31c1.717-4.055,2.43-8.462,2.08-12.851c1.931-1.41,2.86-3.76,3.69-6
	l7.59-20.25c0.82-2.189,1.66-4.47,1.479-6.8L1052.659,324.153z M949.579,287.744c0.824,1.286,1.743,2.51,2.75,3.659l0,0
	c0,0-1.131-1.18-3-3.079C949.429,288.153,949.479,287.933,949.579,287.744z M912.259,329.313l20.89-21.34
	c7.22,6.601,14.95,13.34,21.41,18.89c-0.615,2.845-1.431,5.642-2.44,8.37c-2.8,1.391-6.5,1.841-11-0.609
	C933.999,330.763,920.809,329.624,912.259,329.313L912.259,329.313z"/>
<path fill="#CBCDDA" d="M904.479,247.563c0,0-15.49,8.94-10.729,21.45c0,0,16.09,4.771,22.64,16.69s57.21,54.819,57.21,54.819
	l36.88-18.479c0,0-12.85-17.16-53.5-29.141c0,0-24-25.689-32.31-30.449C916.358,257.693,904.479,247.563,904.479,247.563z"/>
<path opacity="0.05" enable-background="new    " d="M904.479,247.563c0,0-15.49,8.94-10.729,21.45c0,0,16.09,4.771,22.64,16.69
	s57.21,54.819,57.21,54.819l36.88-18.479c0,0-12.85-17.16-53.5-29.141c0,0-24-25.689-32.31-30.449
	C916.358,257.693,904.479,247.563,904.479,247.563z"/>
<linearGradient id="SVGID_2_" gradientUnits="userSpaceOnUse" x1="470.5884" y1="1121.2148" x2="470.5883" y2="1857.8848" gradientTransform="matrix(1 0 0 -1 95.71 1935.3984)">
	<stop  offset="0" style="stop-color:#808080;stop-opacity:0.25"/>
	<stop  offset="0.54" style="stop-color:#808080;stop-opacity:0.12"/>
	<stop  offset="1" style="stop-color:#808080;stop-opacity:0.1"/>
</linearGradient>
<path fill="url(#SVGID_2_)" d="M871.729,706.883c-3.92-4.615-8.367-8.758-13.25-12.34c1.021-0.74,2.021-1.482,3-2.23
	c12.62-9.379,23.43-19,25.75-25.908c6.2-18.33,69.771-51.932,69.771-51.932s-65.12,12.221-99.23-7.639
	c-20.35-11.852-51.74-13.91-73.75-13.641l0.16-0.381l0.3-0.658c0.17-0.371,0.34-0.73,0.521-1.102c0.18-0.369,0.289-0.6,0.449-0.898
	l0.131-0.24c0.229-0.441,0.47-0.881,0.72-1.32c0.609-1.08,1.26-2.16,1.95-3.24v-0.061c1.774-2.732,3.7-5.363,5.77-7.879l0.08-0.102
	c1.65-2,3.37-4,5.1-5.83l0.101-0.109l1.22-1.289l0.2-0.201c1.649-1.729,3.3-3.369,4.899-4.9l0.37-0.35l1-0.91l0.46-0.43l0.891-0.83
	l0.47-0.43l1.33-1.199l0.72-0.641l0.54-0.471l0.79-0.689l0.4-0.34l1-0.881l0.09-0.08c3.229-2.76,5.359-4.369,5.359-4.369h-0.05l0,0
	c-1.025,0.734-2.098,1.402-3.21,2l-0.149,0.07l-1,0.5l-0.28,0.129l-0.891,0.4l-0.5,0.201l-0.699,0.289l-0.681,0.25l-0.55,0.201
	l-0.859,0.289l-0.4,0.131l-1.1,0.33l-0.181,0.049l-1.3,0.35l0,0c-22.62,5.83-54.77-2.789-57.72-3.609l-0.19-0.051l0,0
	c0,0-12.92-2.67-29.66-5.068l0,0c7.761-15.881,15.53-30.821,22.73-44.12c6.21,13.6,16.763,24.749,30,31.7
	c0.5-0.561,1-1.141,1.42-1.721c1.5,0.859,2.39,1.27,2.39,1.27c4.188-4.801,7.1-10.578,8.471-16.8
	c4.306,4.083,9.171,7.53,14.45,10.239c0.433-0.486,0.85-0.982,1.25-1.49c0.609,0.32,0.939,0.48,0.939,0.48
	c8.37-9.429,10.59-21.61,9.65-33.999c15.56,5.922,32.739,5.996,48.35,0.209c0-0.061,0-0.129,0-0.189c1.44-0.49,2.23-0.83,2.23-0.83
	c-1.261-9.27-6-17-12.44-23.42c29.88,0.619,46-17.9,46-17.9l-0.17-0.23c1.229-1.148,1.85-1.859,1.85-1.859
	c-3.949-5.564-8.934-10.318-14.68-14c13.64-8.07,19.55-18.52,19.55-18.52c-0.34-0.319-0.7-0.63-1-0.939
	c0.75-1.08,1.12-1.73,1.12-1.73c-0.75-0.71-1.53-1.38-2.31-2c0.51-0.77,0.76-1.21,0.76-1.21c-12-11.29-27.92-15.36-43.71-15.83
	c9.542-10.604,15.415-23.998,16.75-38.2c-12-3.909-24.26-1.21-35.42,4.41c0.912-10.375-0.587-20.82-4.38-30.52
	c3.06,2.357,6.354,4.395,9.83,6.08c0.426-0.494,0.836-0.997,1.229-1.511c0.61,0.311,1,0.46,1,0.46c8.22-9.56,10.24-21.77,9.11-34.1
	c15.65,5.682,32.83,5.489,48.35-0.54v-0.19c1.43-0.51,2.21-0.859,2.21-0.859c-1.41-9.25-6.229-16.91-12.81-23.23
	c29.88,0.16,45.71-18.609,45.71-18.609l-0.181-0.23c1.211-1.17,1.82-1.89,1.82-1.89c-4.042-5.485-9.101-10.143-14.9-13.721
	c13.511-8.279,19.25-18.819,19.25-18.819c-0.35-0.32-0.709-0.62-1.06-0.931c0.73-1.1,1.09-1.75,1.09-1.75
	c-0.76-0.699-1.55-1.359-2.34-2c0.5-0.779,0.75-1.22,0.75-1.22c-12.17-11.1-28.16-14.93-44-15.149
	c9.315-10.76,14.925-24.229,16-38.42c-12.1-3.73-24.27-0.83-35.34,5c0.858-11.291-1.208-22.611-6-32.87
	c-0.82,0.17-1.62,0.37-2.41,0.58c-0.19-0.4-0.3-0.601-0.3-0.601l0,0c-0.32-0.7-0.521-1.08-0.521-1.08
	c-13.729,2.771-23.58,12.66-30.58,24.54c-0.52,0.88-1,1.771-1.51,2.67c-5.206-12.845-14.251-23.77-25.899-31.279
	c-10.23,9.649-13.181,23.37-12.62,37.25c0,0.939,0.1,1.88,0.159,2.819c-11.707-9.146-26.065-14.248-40.92-14.54
	c-2.109,8.24-1.109,16.351,1.79,24c-10.014-1.54-20.246-0.826-29.949,2.091c0,0.13,0,0.26,0,0.39c-1.431,0.38-2.221,0.66-2.221,0.66
	c0.78,11.62,7,21.229,15.57,29c-13.144,1.954-25.432,7.698-35.36,16.529c0.334,0.587,0.667,1.157,1,1.71c-0.699,0.61-1.06,1-1.06,1
	c6.11,10.79,16.8,16.931,28.729,20.261c-12.117,7.253-21.639,18.143-27.21,31.12c0.29,0.199,0.58,0.39,0.87,0.59
	c-0.609,1.319-0.89,2.09-0.89,2.09c10.19,7.26,22.55,8.37,34.82,6.4c-1.982,7.057-2.813,14.388-2.46,21.71
	c-7.53,10.569-15.17,21.63-22.711,32.819c-1.359-0.08-2.119-0.069-2.119-0.069c-0.41,1.515-0.721,3.055-0.931,4.609
	c-4.159,6.2-8.279,12.42-12.33,18.59c-5.187,0.174-10.331,1.003-15.31,2.471c0,0.13,0,0.26,0,0.39c-1.43,0.36-2.23,0.62-2.23,0.62
	c0,0.16,0,0.32,0,0.479c-6.699-9.05-16.08-15.819-26.189-20.869c13.205-5.595,24.287-15.247,31.64-27.561
	c-9.21-8.58-21.439-11.25-34-10.83c5.803-9.73,8.999-20.794,9.28-32.12c-0.81-0.21-1.62-0.37-2.43-0.52c0-0.44,0-0.67,0-0.67l0,0
	c0-0.771,0-1.19,0-1.19c-13.57-3.46-26.82,1.17-38.42,8.811c-0.86,0.569-1.71,1.149-2.551,1.75
	c1.064-13.755-2.194-27.498-9.319-39.311c-13.5,4.25-22.261,15.29-27.94,28c-0.39,0.86-0.75,1.73-1.109,2.61
	c-6.454-13.294-17.092-24.104-30.28-30.771c-5.57,6.49-8.28,14.21-9.1,22.351c-8.337-5.725-17.85-9.511-27.84-11.08l-0.14,0.37
	c-1.45-0.28-2.29-0.37-2.29-0.37c-4.48,10.78-3.14,22.12,1,32.81c-12.755-3.938-26.379-4.09-39.22-0.439c0,0.67,0.09,1.33,0.17,2
	c-0.9,0.25-1.38,0.41-1.38,0.41c0.68,12.34,7.54,22.479,16.78,30.63c-14.083,1.325-27.408,6.985-38.14,16.199
	c0.17,0.311,0.35,0.601,0.52,0.9c-1.13,0.92-1.73,1.49-1.73,1.49c5.92,10.93,16.53,17.28,28.42,20.819
	c-6.896,7.559-11.939,16.617-14.73,26.461c0.9,0.479,1.8,0.909,2.72,1.319c-0.2,0.69-0.29,1.08-0.29,1.08
	c12.75,6.89,27.34,5.26,40.9,0.26c-4.11,28.471,12.82,48.561,12.82,48.561c0.69-0.301,1.37-0.621,2-1c1,1.398,1.61,2.148,1.61,2.148
	c5.893-2.582,11.048-6.592,15-11.67c2.138,5.498,5.058,10.658,8.67,15.32c0.606-0.26,1.2-0.537,1.78-0.83
	c0.41,0.541,0.65,0.83,0.65,0.83c5.888-2.566,11.043-6.561,15-11.619c1.33,29.16,2.47,77.26-0.83,126.87
	c-2,30.279-5.67,61.129-12,88.59c-11.47-47.451-26.26-104.93-41.23-152.741c-16.32-52.129-47.76-101.909-76.93-148.279
	c-20.81-33.07-47.17-73.641-71.89-107.83c22.94,7.62,41-0.38,41-0.38s0-0.19-0.06-0.28c1.61-0.521,2.48-0.91,2.48-0.91
	c-1.183-6.672-3.652-13.051-7.27-18.78c15.83-1.59,25.69-8.58,25.69-8.58c-0.17-0.439-0.36-0.859-0.54-1.29
	c1.15-0.67,1.76-1.1,1.76-1.1c-0.38-1-0.79-1.89-1.22-2.81c0.8-0.48,1.22-0.78,1.22-0.78c-6-15.24-18.65-25.6-32.74-32.63
	c13.202-5.589,24.284-15.234,31.64-27.54c-9.21-8.58-21.44-11.25-34-10.83c5.803-9.731,8.999-20.794,9.28-32.12
	c-0.81-0.21-1.62-0.37-2.43-0.52c0-0.44,0-0.671,0-0.671l0,0c0-0.77,0-1.189,0-1.189c-13.57-3.46-26.82,1.17-38.42,8.81
	c-0.86,0.57-1.71,1.15-2.55,1.75c1.064-13.754-2.194-27.497-9.32-39.31c-13.5,4.25-22.26,15.29-27.94,28
	c-0.39,0.86-0.75,1.729-1.11,2.61c-6.454-13.294-17.091-24.104-30.28-30.771c-5.57,6.49-8.28,14.21-9.1,22.35
	c-8.337-5.724-17.849-9.51-27.84-11.079l-0.14,0.369c-1.45-0.279-2.29-0.369-2.29-0.369c-4.48,10.779-3.14,22.119,1,32.81
	c-12.755-3.938-26.379-4.091-39.22-0.44c0,0.671,0.09,1.33,0.17,2c-0.9,0.25-1.38,0.41-1.38,0.41c0.68,12.34,7.54,22.48,16.78,30.63
	c-14.104,1.304-27.455,6.954-38.21,16.17c0.17,0.311,0.35,0.601,0.52,0.9c-1.13,0.92-1.73,1.49-1.73,1.49
	c5.92,10.93,16.53,17.28,28.42,20.82c-6.896,7.558-11.939,16.616-14.73,26.46c0.9,0.479,1.8,0.909,2.72,1.319
	c-0.2,0.69-0.29,1.08-0.29,1.08c12.75,6.891,27.34,5.26,40.9,0.26c-4.11,28.471,12.82,48.561,12.82,48.561c0.69-0.3,1.37-0.62,2-1
	c1,1.399,1.61,2.149,1.61,2.149c5.893-2.582,11.048-6.593,15-11.67c2.137,5.498,5.058,10.657,8.67,15.32
	c0.606-0.26,1.2-0.537,1.78-0.83c0.41,0.54,0.65,0.83,0.65,0.83c11.64-5,18.9-15.12,23.39-26.69
	c16.33,17.131,37.1,19.921,42.4,20.36c30.4,42.94,67.31,98.74,90.76,146.92c0,0,48.25,93.231,79,190.951
	c-15.63-16.5-37-40.441-41.79-52.711c-7.75-19.859-103.88,0-103.88,0l0,0l-0.19,0.051c-3,0.82-35.1,9.439-57.72,3.609l0,0
	l-1.28-0.35l-0.18-0.051l-1.1-0.33l-0.4-0.129l-0.86-0.291l-0.55-0.199l-0.68-0.25l-0.7-0.291l-0.5-0.199l-0.89-0.4l-0.28-0.129
	l-1-0.5l-0.15-0.07c-1.112-0.598-2.184-1.266-3.21-2l0,0h-0.05c8.721,6.828,16.759,14.488,24,22.869l0.23,0.281l1.26,1.539
	l0.33,0.41c0.413,0.52,0.82,1.041,1.22,1.561l0.24,0.309c0.46,0.615,0.913,1.23,1.36,1.852l0.33,0.479
	c0.313,0.441,0.62,0.885,0.92,1.33l0.52,0.781l0.67,1l0.55,0.879l0.56,1c0.18,0.311,0.37,0.621,0.54,0.93l0.07,0.131
	c0.29,0.529,0.58,1.051,0.85,1.58l0.28,0.57c0.233,0.467,0.453,0.93,0.66,1.391l0.23,0.51l0.18,0.43
	c-22-0.27-53.4,1.789-73.75,13.641c-34.11,19.859-99.23,7.639-99.23,7.639s63.57,33.6,69.77,51.93
	c2.48,7.32,14.57,17.791,28.23,27.74l2.94,2.121c-4.011,3.164-7.696,6.723-11,10.619c-31.06,36.67-105.44,73.279-105.44,73.279h0.22
	l0.64,0.061l1.1,0.1l2,0.191h0.34c15.92,1.5,72,7.27,104,16.889c1.15,0.352,2.271,0.701,3.35,1.051c9.3,3.051,62-1.529,97.68-12.221
	c1-0.299,2-0.57,3-0.83l0.89-0.219c0.747-0.18,1.497-0.35,2.25-0.51l0.89-0.191c1-0.199,2-0.389,3-0.549h0.06
	c1-0.17,2-0.311,3-0.441l0.91-0.109l2.19-0.24l0.95-0.09c0.907-0.08,1.81-0.143,2.71-0.189h0.29c1-0.051,1.93-0.09,2.9-0.109h1h3
	h2.06l1.4,0.049l2,0.1l1.43,0.102l1.24,0.1l1.59,0.139l0.75,0.08l1.71,0.182l1.22,0.148l0.92,0.121l1.35,0.189l0.75,0.109l0,0
	c0,0.211-0.08,0.441-0.12,0.66c0,0,1.29,7.191,9.75,14.221c-14.33,4.119-26.22,8.859-35.1,14c-0.53,0.289-1,0.6-1.52,0.9
	c0.36,0,0.71-0.08,1.09-0.111c0.38-0.029,0.67,0,1,0h364.56c0.34,0,0.67,0,1,0s0.71,0.061,1.07,0.111
	c0.295,0.031,0.589,0.078,0.88,0.139c0.314,0.043,0.625,0.111,0.93,0.201c-0.667-0.428-1.333-0.84-2-1.24
	c-11.1-6.48-26.9-12.23-46.25-17c5.81-3,9.05-6.4,10.4-10c1.14-0.26,2.3-0.51,3.51-0.75c4.731-0.963,9.512-1.668,14.32-2.109l2-0.16
	l1-0.08c11.109-0.852,22.282,0.271,33,3.32c35.659,10.689,88.369,15.27,97.68,12.219c1.08-0.359,2.2-0.709,3.35-1.049
	c31.931-9.611,88-15.391,104-16.891h0.341l2-0.189l1.1-0.102l0.64-0.059h0.22C977.118,780.094,902.738,743.543,871.729,706.883z
	 M828.979,329.083l-0.5,0.069c0-0.159,0.07-0.319,0.1-0.479L828.979,329.083z M678.089,412.433c-2.19,1.18-4.12,2.36-5.74,3.45
	c-1.383-4.791-3.43-9.366-6.08-13.59c7.875-0.765,15.528-3.044,22.54-6.71C685.118,401.333,681.538,406.973,678.089,412.433z
	 M684.818,440.544c3.071,1.447,6.251,2.65,9.51,3.6c-7.666,4.432-14.382,10.334-19.76,17.369c3.16-6.93,6.601-13.939,10.26-20.969
	H684.818z M586.038,567.152c2.82-46.589,4.54-96.999,2.141-132.489c9.668,6.335,20.784,10.119,32.31,11l0.05-0.189
	c1.511,0.16,2.37,0.189,2.37,0.189c2.851-8.92,1.94-17.879-1.159-26.41c13.761,6.877,29.546,8.543,44.439,4.689
	c0.719,1.277,1.514,2.51,2.38,3.69c-19.35,31-32.52,53.25-32.52,53.25c-13.41,20.17-35.511,90.7-55.601,161.54
	C582.299,621.264,584.358,594.863,586.038,567.152z M645.368,554.934c-3.699,9.48-17.289,25.91-30.489,40.51
	c17.319-43.609,34.68-80.55,44.37-100.421c2.75-5.629,5.39-11.309,8-17c9.949,7,22,8.211,34,6.48
	c-2.981,9.754-3.64,20.068-1.92,30.121c1,0.059,2,0.068,3,0.049c0.119,0.711,0.199,1.09,0.199,1.09
	c4.57,0.281,9.153-0.264,13.53-1.609c-5.34,10.819-10.69,21.999-15.94,33.329l0,0c-24.979-2.51-50.88-2.488-54.75,7.42V554.934z
	 M829.858,330.753c-0.18-0.4-0.29-0.61-0.29-0.61l0,0c-0.2-0.45-0.35-0.77-0.43-0.939c0.526,0.467,1.05,0.913,1.57,1.34
	L829.858,330.753z M760.738,323.483c8.521-2.92,16.07-8.59,22.591-15.37c4.463,13.18,12.961,24.62,24.289,32.7
	c-3.656,3.722-6.858,7.864-9.54,12.34c-0.529,0.87-1,1.761-1.55,2.65c-5-12.925-13.871-23.989-25.399-31.68
	c-10.391,9.489-13.551,23.16-13.21,37c0,0.939,0.069,1.88,0.119,2.83c-5.672-4.617-12.068-8.267-18.93-10.801
	C746.479,342.673,753.788,332.713,760.738,323.483L760.738,323.483z"/>
<path fill="#7FB72B" d="M542.199,628.152c0,0-49.7-49.699-57.23-69.27c-7.53-19.57-100.9,0-100.9,0s-46.68,13.551-67.77-1.51
	c0,0,33.13,25.6,36.14,46.68c3.01,21.08,120.48,75.301,120.48,75.301l69.28,64.799l24.1-13.549L542.199,628.152z"/>
<path opacity="0.1" enable-background="new    " d="M568.299,730.594l-24.1,13.559l-19.34-18.068l-49.94-46.682
	c0,0-117.44-54.25-120.44-75.309c-0.722-4.23-2.203-8.297-4.37-12c-9.5-17.24-30.62-33.811-31.73-34.68
	c21.1,15,67.72,1.479,67.72,1.479s93.37-19.58,100.9,0s57.2,69.26,57.2,69.26L568.299,730.594z"/>
<path opacity="0.1" enable-background="new    " d="M534.668,726.074h-11.8l-49.94-46.682c0,0-117.45-54.24-120.45-75.299
	c-0.722-4.23-2.203-8.297-4.37-12c9.506-0.037,19.006,0.441,28.46,1.43c33.13,33.129,79.81,49.699,79.81,49.699
	C503.049,613.152,534.668,726.074,534.668,726.074z"/>
<path fill="#7FB72B" d="M533.168,730.594h-57.23l-155.11-6c0,0-23.35-13.631-43.35-28.441c-13.27-9.799-25-20.129-27.42-27.35
	c-6-18.07-67.77-51.199-67.77-51.199s63.25,12,96.38-7.529c33.13-19.531,96.38-12,96.38-12c33.13,33.129,79.81,49.699,79.81,49.699
	c25.89-16.699,47.14,10.59,60.95,38.209C522.833,700.342,528.641,715.264,533.168,730.594z"/>
<path fill="#7FB72B" d="M585.879,628.152c0,0,49.7-49.699,57.229-69.27c7.53-19.57,100.9,0,100.9,0s46.68,13.551,67.77-1.51
	c0,0-33.13,25.6-36.14,46.68s-120.48,75.301-120.48,75.301l-69.279,64.799l-24.1-13.549L585.879,628.152z"/>
<path opacity="0.1" enable-background="new    " d="M814.719,557.434c-1.11,0.869-22.23,17.449-31.73,34.699
	c-2.171,3.703-3.651,7.77-4.37,12c-3,21.08-120.479,75.301-120.479,75.301l-49.94,46.68l-19.319,18.039l-24.1-13.549l24.1-102.451
	c0,0,49.7-49.699,57.229-69.27c7.53-19.57,100.9,0,100.9,0S793.618,572.453,814.719,557.434z"/>
<path opacity="0.1" enable-background="new    " d="M536.729,712.152c-2.1,1.951-5.63,3.57-5,6.371
	c0.278,0.938,0.845,1.764,1.62,2.359c3.92,3.48,10.27,6.191,9.74,11.41c-0.3,3-2.92,5.131-4.2,7.83
	c-2.67,5.641,1.54,12.83,7.47,14.77c5.93,1.941,12.57-0.34,17.46-4.229c1.05-0.84,2.17-1.791,3.51-1.791
	c1.023,0.143,2.016,0.449,2.94,0.91c4,1.381,8.51-1.68,10.22-5.59s1.4-8.369,1.05-12.619c2.271,1.93,6,0.879,7.931-1.41
	c1.93-2.291,2.489-5.381,3-8.32l3.569-20.611c2.86-0.83,4-4.689,2.69-7.359s-4.36-4.129-7.32-4.41
	c-2.96-0.279-5.92,0.391-8.84,0.951c-7.64,1.469-15.411,2.141-23.19,2c-6.45-0.131-14.73-8.09-18.29-1
	C537.849,697.723,542.619,706.664,536.729,712.152z"/>
<path opacity="0.1" enable-background="new    " d="M779.988,592.152c-2.171,3.703-3.651,7.77-4.37,12
	c-3,21.08-120.479,75.301-120.479,75.301l-49.94,46.68h-13.3c0,0,31.58-112.98,78.311-82.889c0,0,46.68-16.57,79.81-49.701
	C759.975,592.521,769.98,592.057,779.988,592.152z"/>
<path fill="#7FB72B" d="M945.799,617.643c0,0-61.74,33.131-67.771,51.201c-2.26,6.779-12.76,16.289-25,25.539
	c-20.45,15.451-45.77,30.18-45.77,30.18l-155.11,6h-57.24c4.015-13.604,9.028-26.893,15-39.76
	c13.67-29.119,35.891-60.75,63.29-43.07c0,0,46.681-16.568,79.811-49.699c0,0,63.25-7.529,96.38,12S945.799,617.643,945.799,617.643
	z"/>
<path fill="#7FB72B" d="M802.729,270.523c0,0-93.479,108.63-133.33,201.031c-4.1,9.51-8.33,19-12.81,28.289
	c-23.9,49.741-95.811,208.001-93.3,307.001l-27.11,5.77c0,0,69.3-283.07,97.89-326.739c0,0,126.5-216.861,168.67-237.941
	L802.729,270.523z"/>
<path fill="#7FB72B" d="M585.479,570.963c-1.63,27.361-3.63,53.4-5.41,74.211c-0.35,4.279-0.71,8.33-1,12.139
	c-1.84,20.861-3.21,34.08-3.21,34.08v0.08c-0.35,6.521-2.38,16.432-5.66,28.76c-1.08,4.08-2.32,8.432-3.66,13
	c-0.26,0.83-0.5,1.672-0.75,2.512c-1.146,3.854-2.376,7.854-3.69,12c-0.54,1.689-1.08,3.398-1.64,5.139
	c-3,9.381-6.36,19.381-10,29.801c-3.25,9.41-6.7,19.16-10.27,29.09l-0.59,1.609c-0.09,0.24-0.18,0.5-0.27,0.75h-18.85
	c0.08-0.26,0.15-0.51,0.21-0.75c2.88-10.199,5.53-20.189,8-29.889c2.47-9.701,4.79-19.281,6.9-28.342
	c0.86-3.686,1.687-7.289,2.48-10.809c0.26-1.141,0.51-2.27,0.75-3.391c0.12-0.5,0.23-1,0.33-1.48c0.54-2.389,1.05-4.74,1.54-7
	c0.2-0.84,0.38-1.689,0.56-2.51l0.45-2.109c1.13-5.27,2.17-10.27,3.12-14.939c0.78-3.83,1.49-7.42,2.15-10.801
	c0.93-4.801,1.76-9.131,2.45-12.881c2-10.689,3-16.85,3-16.85c0.045-0.137,0.083-0.277,0.11-0.42c1.22-4.439,2.35-9,3.39-13.66
	c6.11-27.08,9.68-57.5,11.63-87.359c5.14-78.399-0.81-153-0.81-153l13.33-18.239C591.358,421.723,589.658,500.724,585.479,570.963z"
	/>
<path fill="#7FB72B" d="M770.019,452.692c0,0-27.54,44.461-54.83,101.222c-2.667,5.572-5.333,11.238-8,17
	c-10.378,22.391-19.626,45.291-27.71,68.609c-0.77,2.24-1.52,4.49-2.24,6.721c-1.359,4.17-2.649,8.33-3.859,12.439
	c-0.48,1.609-0.95,3.219-1.391,4.82c-0.859,3.039-1.673,6.057-2.439,9.049c-1.11,4.381-2.12,8.721-3,13c0,0-5.66,17.41-13.33,45
	c-0.48,1.781-1,3.58-1.49,5.441c-0.35,1.279-0.71,2.59-1.07,3.92c-2.739,10.199-5.689,21.5-8.67,33.639c-1,4.16-2,8.4-3.06,12.76
	c-2.061,8.721-4.13,17.801-6.13,27.121c0,0.26-0.11,0.5-0.15,0.75h-18.899c0-0.26,0.08-0.51,0.109-0.75c1.3-9.939,2.61-19.65,4-29
	c0.95-6.701,1.93-13.24,2.91-19.52c1.72-11.051,3.48-21.381,5.23-30.691c0.239-1.219,0.47-2.42,0.689-3.6c0,0,0-0.09,0-0.141
	c1.941-10.648,4.476-21.182,7.59-31.549c0.774-2.447,1.68-4.85,2.71-7.201c0,0,2.55-6.539,7-17.539l2.261-5.65
	c3-7.299,6.52-16.049,10.569-25.84c0.561-1.369,1.141-2.77,1.73-4.189c8.239-19.83,18.27-43.43,29-67.531
	c2.88-6.459,5.8-13,8.76-19.408c25.36-55.421,53.04-108.94,70.17-121.181L770.019,452.692z"/>
<path fill="#7FB72B" d="M310.289,208.784c0,0,94.12,121.229,138.55,213.84c0,0,103.91,203.8,100.9,322.519l27.11,5.771
	c0,0-30.12-143.121-61-243.21c-15.85-51.4-46.39-100.471-74.72-146.191c-40.78-65.79-103.52-161.66-130.84-175.36V208.784z"/>
<path opacity="0.1" fill="#4829B2" enable-background="new    " d="M746.479,814.633c-0.294-0.09-0.596-0.156-0.9-0.199
	c-0.283-0.063-0.57-0.109-0.859-0.141c-0.351,0-0.69-0.09-1-0.109c-0.311-0.02-0.65,0-1,0h-354.09c-0.33,0-0.66,0-1,0
	c-0.34,0-0.71,0.061-1.05,0.109c0.48-0.299,1-0.6,1.48-0.891c8.63-5.109,20.18-9.77,34.09-13.84
	c27.69-8.1,64.74-13.869,106.52-16.049c4.91-0.27,9.89-0.471,14.92-0.631l6.85-0.18c4.47-0.09,9-0.15,13.55-0.15
	c0.771,0,1.521,0,2.29,0c17.83,0,35.101,0.65,51.521,1.85c7.2,0.527,14.217,1.16,21.05,1.9c20.452,2.064,40.74,5.525,60.72,10.361
	c18.79,4.699,34.141,10.379,44.92,16.76C745.148,813.811,745.812,814.213,746.479,814.633z"/>
<path opacity="0.1" enable-background="new    " d="M533.168,730.594h-57.23l-155.11-6c0,0-23.35-13.631-43.35-28.441
	c31.7-28.059,83.61-27.5,96.06-20.568c13.55,7.568,39.15,4.568,39.15,4.568c18.81-42.559,70.13-16.818,103.11,5.83
	C522.827,700.342,528.637,715.264,533.168,730.594z"/>
<path fill="#7FB72B" d="M545.219,713.273c0,0-103.91-93.371-132.53-28.621c0,0-25.6,3-39.15-4.52s-73.79-7.529-103.91,28.611
	c-30.12,36.139-102.4,72.289-102.4,72.289s73.05,6.279,108.42,18.119c9,3,60.24-1.51,94.87-12c34.63-10.488,72.29,6,72.29,6
	l106.92-43.67L545.219,713.273z"/>
<path opacity="0.1" enable-background="new    " d="M554.729,747.414l-106.92,43.67c-10.927-4.426-22.4-7.363-34.11-8.73
	c-11.72-1.391-25.16-1.25-38.18,2.709c-34.64,10.541-85.84,15.061-94.87,12c-35.37-11.789-108.43-18.068-108.43-18.068
	s72.26-36.102,102.41-72.24c30.15-36.141,90.35-36.141,103.91-28.602c13.56,7.541,39.15,4.521,39.15,4.521
	c28.61-64.76,132.52,28.609,132.52,28.609l2.17,17.41L554.729,747.414z"/>
<path opacity="0.1" enable-background="new    " d="M853.009,694.383c-20.45,15.451-45.771,30.18-45.771,30.18l-155.109,6h-57.221
	c4.015-13.604,9.028-26.893,15-39.76c32.23-23.42,89.811-56.34,110-10.689c0,0,25.601,3,39.15-4.52
	C771.238,668.844,821.179,668.152,853.009,694.383z"/>
<path fill="#7FB72B" d="M587.379,713.273c0,0,103.91-93.371,132.52-28.609c0,0,25.601,3,39.15-4.521
	c13.55-7.52,73.79-7.529,103.91,28.611c30.12,36.139,102.399,72.289,102.399,72.289s-73.04,6.27-108.42,18.109
	c-9,3-60.24-1.51-94.87-12c-34.63-10.488-72.29,6-72.29,6l-106.92-43.738L587.379,713.273z"/>
<path opacity="0.1" enable-background="new    " d="M964.368,781.033c0,0-73.05,6.279-108.43,18.119c-9,3-60.24-1.51-94.87-12
	c-17.26-5.26-35.25-3.779-49-1c-7.977,1.58-15.783,3.924-23.31,7l-106.9-43.738l2.73-21.791l1.79-14.35
	c0,0,103.909-93.369,132.52-28.609c0,0,25.601,3,39.15-4.521c13.55-7.52,73.79-7.529,103.91,28.611
	C892.078,744.893,964.368,781.033,964.368,781.033z"/>
<path opacity="0.1" enable-background="new    " d="M713.099,786.094c-7.977,1.578-15.783,3.922-23.311,7l-106.93-43.68l2.73-21.791
	c33.31-4.199,96.67,17.27,96.67,17.27S724.209,768.313,713.099,786.094z"/>
<path opacity="0.1" enable-background="new    " d="M549.729,749.414l-106.92,43.67c-10.927-4.426-22.4-7.363-34.11-8.73
	c-0.223-0.59-0.4-1.193-0.53-1.811c10.88-61.59,103.12-56.391,139.21-51.859L549.729,749.414z"/>
<path fill="#7FB72B" d="M709.688,786.824L709.688,786.824c-1.31,3.51-4.46,6.85-10.1,9.818c-3.14,1.627-6.42,2.965-9.8,4
	c-12.891,4.051-21.631,8.461-27.48,12.801c-0.35,0.26-0.66,0.5-1,0.75h-195c-0.15-0.301-0.3-0.541-0.41-0.75
	c-0.29-0.5-0.47-0.75-0.47-0.75c-22.83-0.711-35.86-6.84-43.24-13.09c-8.22-6.93-9.47-14-9.47-14c0-0.211,0.08-0.439,0.12-0.65l0,0
	c9.41-50.33,73.67-55.49,116-53.25c4.2,0.23,8.18,0.51,11.87,0.84l2.29,0.211l4.71,0.5l2,0.229c2.35,0.271,4.49,0.561,6.4,0.83
	c1.07,0.141,2,0.291,3,0.41c3.37,0.51,5.69,0.92,6.69,1.1l0.56,0.111c0.694-0.553,1.43-1.051,2.2-1.49
	c0.963-0.559,1.965-1.043,3-1.449c0.44-0.182,0.89-0.33,1.34-0.48c4.021-1.279,8.194-2.014,12.41-2.18
	c1.37-0.09,2.771-0.141,4.22-0.15c1.79,0,3.641,0,5.54,0.08c1.9,0.08,3.601,0.18,5.45,0.33c0.33,0,0.66,0,1,0.08
	c8.222,0.764,16.396,1.967,24.49,3.6c8.67,1.699,17.15,3.73,24.65,5.709c15.71,4.141,27.14,8,27.14,8
	S716.229,769.383,709.688,786.824z"/>
<ellipse transform="matrix(-0.2462 -0.9692 0.9692 -0.2462 357.8237 997.7927)" fill="#4829B2" cx="566.941" cy="359.743" rx="27.11" ry="42.13"/>
<path fill="#FEEA59" d="M598.908,341.543c0,0,60.36-34.391,89.57-6.8c0,0-26.37,50.88-91.45,24.899L598.908,341.543z"/>
<path opacity="0.05" enable-background="new    " d="M589.398,341.673c0,0,36.18-59.32,75.09-49.28c0,0,1.53,57.28-68,66
	L589.398,341.673z"/>
<path fill="#FEEA59" d="M587.038,340.494c0,0,36.181-59.32,75.091-49.28c0,0,1.529,57.28-68,66L587.038,340.494z"/>
<path fill="#FEEA59" d="M594.148,356.074l-1-2.36l-6.1-14.39c0,0,15.819-25.931,37.77-40.591c11.261-7.529,24.13-12.1,37.311-8.689
	C662.139,290.034,663.669,347.324,594.148,356.074z"/>
<path opacity="0.05" enable-background="new    " d="M624.818,298.723c-0.859,16.25-8.26,35.95-31.569,55.061l-0.11-0.07l-6.1-14.39
	C587.039,339.324,602.868,313.393,624.818,298.723z"/>
<path fill="#FEEA59" d="M590.889,353.784l-3.36-2.351l-11.569-8.05c0,0-0.41-30,10.189-54.08c5.521-12.53,14-23.43,27.14-27.61
	C613.288,261.693,645.089,309.363,590.889,353.784z"/>
<path opacity="0.05" enable-background="new    " d="M587.979,351.463h-0.45l-11.569-8.05c0,0-0.41-30,10.189-54.08
	C593.599,303.494,597.288,323.733,587.979,351.463z"/>
<path fill="#4829B2" d="M567.479,350.583c0,0-37.72-58.351-11.78-89c0,0,52.27,23.5,30,89.92L567.479,350.583z"/>
<path opacity="0.05" enable-background="new    " d="M558.479,353.733c0,0-53.87-43.89-38.65-81.069c0,0,57,6.239,56.209,76.31
	L558.479,353.733z"/>
<path fill="#FEEA59" d="M556.079,353.733c0,0-53.87-43.89-38.6-81.069c0,0,57,6.239,56.21,76.31L556.079,353.733z"/>
<path opacity="0.05" enable-background="new    " d="M550.009,361.273c0,0-67.48-16.58-69.65-56.699c0,0,54.15-18.761,83.48,44.88
	L550.009,361.273z"/>
<path fill="#4829B2" d="M548.829,363.633c0,0-67.48-16.58-69.65-56.7c0,0,54.15-18.76,83.48,44.88L548.829,363.633z"/>
<path opacity="0.05" enable-background="new    " d="M545.329,375.093c0,0-68.17,13.45-87.08-22c0,0,41.17-39.86,94.62,5.44
	L545.329,375.093z"/>
<path fill="#FEEA59" d="M544.148,377.454c0,0-68.17,13.449-87.08-22c0,0,41.17-39.86,94.62,5.439L544.148,377.454z"/>
<path opacity="0.05" enable-background="new    " d="M555.289,372.793c0,0-49.68,48.58-84.92,29.26c0,0,12.63-55.9,82.16-47.25
	L555.289,372.793z"/>
<path fill="#4829B2" d="M557.648,375.153c0,0-49.68,48.58-84.92,29.261c0,0,12.63-55.9,82.16-47.25L557.648,375.153z"/>
<path opacity="0.05" enable-background="new    " d="M553.479,367.403c0,0,8.2,69-28.6,85.141c0,0-36.6-44.101,12.67-93.931
	L553.479,367.403z"/>
<path fill="#FEEA59" d="M557.049,368.583c0,0,8.2,69-28.6,85.14c0,0-36.6-44.1,12.67-93.93L557.049,368.583z"/>
<path opacity="0.05" enable-background="new    " d="M580.028,372.153c0,0,8.2,69-28.6,85.141c0,0-36.6-44.101,12.67-93.931
	L580.028,372.153z"/>
<path fill="#4829B2" d="M582.389,372.153c0,0,8.2,69-28.6,85.141c0,0-36.6-44.101,12.67-93.931L582.389,372.153z"/>
<path opacity="0.05" enable-background="new    " d="M573.679,373.574c0,0,57.33,39.26,45.25,77.58c0,0-57.29-1.49-62.36-71.38
	L573.679,373.574z"/>
<path fill="#FEEA59" d="M576.038,373.574c0,0,57.33,39.26,45.25,77.58c0,0-57.29-1.49-62.359-71.38L576.038,373.574z"/>
<path opacity="0.05" enable-background="new    " d="M589.328,364.454c0,0,70.851,17.1,78.78,63.699c0,0-52.28,23.551-91.13-49.489
	L589.328,364.454z"/>
<path fill="#4829B2" d="M591.688,363.273c0,0,70.85,17.101,78.78,63.681c0,0-52.28,23.549-91.13-49.49L591.688,363.273z"/>
<path fill="#4829B2" d="M567.479,350.583c0,0-37.72-58.351-11.78-89c0,0,52.27,23.5,30,89.92L567.479,350.583z"/>
<path fill="#FEEA59" d="M567.479,350.583c0,0-37.72-58.351-11.78-89c0,0,52.27,23.5,30,89.92L567.479,350.583z"/>
<path fill="#4829B2" d="M548.829,363.633c0,0-67.48-16.58-69.65-56.7c0,0,54.15-18.76,83.48,44.88L548.829,363.633z"/>
<path fill="#FEEA59" d="M548.829,363.633c0,0-67.48-16.58-69.65-56.7c0,0,54.15-18.76,83.48,44.88L548.829,363.633z"/>
<path fill="#4829B2" d="M557.648,375.153c0,0-49.68,48.58-84.92,29.261c0,0,12.63-55.9,82.16-47.25L557.648,375.153z"/>
<path fill="#FEEA59" d="M557.648,375.153c0,0-49.68,48.58-84.92,29.261c0,0,12.63-55.9,82.16-47.25L557.648,375.153z"/>
<path fill="#4829B2" d="M582.389,372.153c0,0,8.2,69-28.6,85.141c0,0-36.6-44.101,12.67-93.931L582.389,372.153z"/>
<path fill="#FEEA59" d="M582.389,372.153c0,0,8.2,69-28.6,85.141c0,0-36.6-44.101,12.67-93.931L582.389,372.153z"/>
<path fill="#4829B2" d="M591.688,363.273c0,0,70.85,17.101,78.78,63.681c0,0-52.28,23.549-91.13-49.49L591.688,363.273z"/>
<path fill="#FEEA59" d="M591.688,363.273c0,0,70.85,17.101,78.78,63.681c0,0-52.28,23.549-91.13-49.49L591.688,363.273z"/>
<path opacity="0.05" enable-background="new    " d="M598.479,353.253c0,0,72.83,2.66,89.88,46.729c0,0-46.54,33.49-99.149-30.359
	L598.479,353.253z"/>
<path opacity="0.05" enable-background="new    " d="M599.658,347.363c0,0,72.83,2.66,89.88,46.73c0,0-46.539,33.49-99.149-30.36
	L599.658,347.363z"/>
<path fill="#FEEA59" d="M599.658,350.893c0,0,72.83,2.66,89.88,46.73c0,0-46.539,33.489-99.149-30.36L599.658,350.893z"/>
<path fill="#8C6239" d="M617.688,369.723c-5.744,22.97-29.021,36.933-51.99,31.188c-22.969-5.743-36.933-29.021-31.188-51.989
	c5.74-22.953,28.99-36.916,51.949-31.199c22.979,5.729,36.963,29,31.235,51.979C617.692,369.708,617.69,369.716,617.688,369.723z"/>
<ellipse transform="matrix(-0.2462 -0.9692 0.9692 -0.2462 205.5413 532.7242)" fill="#4829B2" cx="309.94" cy="186.43" rx="27.11" ry="42.13"/>
<path fill="#FEEA59" d="M341.898,168.233c0,0,60.36-34.409,89.56-6.8c0,0-26.37,50.88-91.45,24.9L341.898,168.233z"/>
<path opacity="0.05" enable-background="new    " d="M332.389,168.363c0,0,36.18-59.319,75.09-49.279c0,0,1.53,57.279-68,66
	L332.389,168.363z"/>
<path fill="#FEEA59" d="M330.028,167.153c0,0,36.18-59.319,75.09-49.279c0,0,1.53,57.279-68,66L330.028,167.153z"/>
<path fill="#FEEA59" d="M337.128,182.763l-1-2.36l-6.1-14.39c0,0,15.82-25.93,37.771-40.59c11.26-7.53,24.13-12.1,37.31-8.69
	C405.119,116.733,406.659,174.013,337.128,182.763z"/>
<path opacity="0.05" enable-background="new    " d="M367.809,125.423c-0.86,16.25-8.26,35.95-31.57,55.06l-0.11-0.069l-6.1-14.391
	C330.028,166.023,345.858,140.083,367.809,125.423z"/>
<path fill="#FEEA59" d="M333.878,180.473l-3.4-2.32l-11.57-8.05c0,0-0.41-30,10.19-54.08c5.52-12.529,14-23.43,27.14-27.609
	C356.278,88.393,388.079,136.053,333.878,180.473z"/>
<path opacity="0.05" enable-background="new    " d="M330.969,178.153h-0.45l-11.57-8.05c0,0-0.41-30,10.19-54.08
	C336.588,130.153,340.278,150.423,330.969,178.153z"/>
<path fill="#4829B2" d="M310.479,177.273c0,0-37.72-58.35-11.78-89c0,0,52.27,23.5,30,89.92L310.479,177.273z"/>
<path opacity="0.05" enable-background="new    " d="M301.429,180.423c0,0-53.87-43.88-38.65-81.07c0,0,57,6.24,56.21,76.311
	L301.429,180.423z"/>
<path fill="#FEEA59" d="M299.068,180.423c0,0-53.87-43.89-38.65-81.07c0,0,57,6.24,56.21,76.311L299.068,180.423z"/>
<path opacity="0.05" enable-background="new    " d="M292.999,187.973c0,0-67.48-16.58-69.65-56.7c0,0,54.15-18.76,83.48,44.88
	L292.999,187.973z"/>
<path fill="#4829B2" d="M291.818,190.333c0,0-67.48-16.58-69.65-56.7c0,0,54.15-18.76,83.48,44.88L291.818,190.333z"/>
<path opacity="0.05" enable-background="new    " d="M288.318,201.784c0,0-68.17,13.449-87.08-22c0,0,41.17-39.86,94.62,5.439
	L288.318,201.784z"/>
<path fill="#FEEA59" d="M287.139,204.153c0,0-68.17,13.45-87.08-22c0,0,41.17-39.859,94.62,5.44L287.139,204.153z"/>
<path opacity="0.05" enable-background="new    " d="M298.278,199.494c0,0-49.68,48.58-84.92,29.26c0,0,12.63-55.9,82.16-47.25
	L298.278,199.494z"/>
<path fill="#4829B2" d="M300.639,201.853c0,0-49.68,48.58-84.92,29.3c0,0,12.63-55.899,82.16-47.25L300.639,201.853z"/>
<path opacity="0.05" enable-background="new    " d="M296.479,194.103c0,0,8.2,69-28.6,85.141c0,0-36.6-44.101,12.67-93.931
	L296.479,194.103z"/>
<path fill="#FEEA59" d="M300.028,195.284c0,0,8.2,69-28.6,85.14c0,0-36.6-44.1,12.67-93.93L300.028,195.284z"/>
<path opacity="0.05" enable-background="new    " d="M323.019,198.883c0,0,8.2,69-28.6,85.14c0,0-36.6-44.1,12.67-93.93
	L323.019,198.883z"/>
<path fill="#4829B2" d="M325.378,198.883c0,0,8.2,69-28.6,85.14c0,0-36.6-44.1,12.67-93.93L325.378,198.883z"/>
<path opacity="0.05" enable-background="new    " d="M316.668,200.273c0,0,57.33,39.261,45.25,77.58c0,0-57.29-1.49-62.36-71.38
	L316.668,200.273z"/>
<path fill="#FEEA59" d="M319.019,200.273c0,0,57.33,39.261,45.25,77.58c0,0-57.29-1.49-62.36-71.38L319.019,200.273z"/>
<path opacity="0.05" enable-background="new    " d="M332.318,191.153c0,0,70.85,17.101,78.78,63.681c0,0-52.28,23.55-91.13-49.49
	L332.318,191.153z"/>
<path fill="#4829B2" d="M334.679,189.973c0,0,70.8,17.101,78.8,63.68c0,0-52.28,23.551-91.13-49.489L334.679,189.973z"/>
<path fill="#4829B2" d="M310.479,177.273c0,0-37.72-58.35-11.78-89c0,0,52.27,23.5,30,89.92L310.479,177.273z"/>
<path fill="#FEEA59" d="M310.479,177.273c0,0-37.72-58.35-11.78-89c0,0,52.27,23.5,30,89.92L310.479,177.273z"/>
<path fill="#4829B2" d="M291.818,190.333c0,0-67.48-16.58-69.65-56.7c0,0,54.15-18.76,83.48,44.88L291.818,190.333z"/>
<path fill="#FEEA59" d="M291.818,190.333c0,0-67.48-16.58-69.65-56.7c0,0,54.15-18.76,83.48,44.88L291.818,190.333z"/>
<path fill="#4829B2" d="M300.639,201.853c0,0-49.68,48.58-84.92,29.3c0,0,12.63-55.899,82.16-47.25L300.639,201.853z"/>
<path fill="#FEEA59" d="M300.639,201.853c0,0-49.68,48.58-84.92,29.3c0,0,12.63-55.899,82.16-47.25L300.639,201.853z"/>
<path fill="#4829B2" d="M325.378,198.883c0,0,8.2,69-28.6,85.14c0,0-36.6-44.1,12.67-93.93L325.378,198.883z"/>
<path fill="#FEEA59" d="M325.378,198.883c0,0,8.2,69-28.6,85.14c0,0-36.6-44.1,12.67-93.93L325.378,198.883z"/>
<path fill="#4829B2" d="M334.679,189.973c0,0,70.8,17.101,78.8,63.68c0,0-52.28,23.551-91.13-49.489L334.679,189.973z"/>
<path fill="#FEEA59" d="M334.679,189.973c0,0,70.8,17.101,78.8,63.68c0,0-52.28,23.551-91.13-49.489L334.679,189.973z"/>
<path opacity="0.05" enable-background="new    " d="M341.479,179.943c0,0,72.83,2.66,89.88,46.73c0,0-46.54,33.49-99.15-30.36
	L341.479,179.943z"/>
<path opacity="0.05" enable-background="new    " d="M342.648,174.053c0,0,72.83,2.66,89.83,46.73c0,0-46.54,33.489-99.15-30.36
	L342.648,174.053z"/>
<path fill="#FEEA59" d="M342.648,177.593c0,0,72.83,2.66,89.83,46.73c0,0-46.54,33.489-99.15-30.36L342.648,177.593z"/>
<path fill="#8C6239" d="M360.679,196.414c-5.744,22.969-29.021,36.933-51.99,31.188s-36.933-29.021-31.189-51.989
	c5.74-22.953,28.99-36.917,51.949-31.199c22.979,5.728,36.963,28.999,31.235,51.978
	C360.682,196.399,360.681,196.406,360.679,196.414z"/>
<ellipse transform="matrix(-0.6469 -0.7626 0.7626 -0.6469 1136.3173 1028.5637)" fill="#4829B2" cx="806.28" cy="251.214" rx="27.11" ry="42.13"/>
<path fill="#FEEA59" d="M827.028,220.914c0,0,39.12-57.431,77.471-45.44c0,0-1.351,57.29-71.221,62.53L827.028,220.914z"/>
<path opacity="0.05" enable-background="new    " d="M818.549,225.153c0,0,6.45-69.189,45.819-77.25c0,0,26.53,50.79-32.08,89.181
	L818.549,225.153z"/>
<path fill="#FEEA59" d="M815.908,225.153c0,0,6.45-69.189,45.82-77.25c0,0,26.53,50.79-32.08,89.181L815.908,225.153z"/>
<path fill="#FEEA59" d="M829.139,236.053l-1.94-1.68l-11.8-10.221c0,0,2.83-30.239,16.11-53.06c6.81-11.71,16.37-21.47,29.71-24.19
	C861.219,146.874,887.749,197.664,829.139,236.053z"/>
<path opacity="0.05" enable-background="new    " d="M831.479,171.063c6.36,15,8.36,35.92-4.18,63.33h-0.13l-11.771-10.24
	C815.398,224.153,818.229,193.883,831.479,171.063z"/>
<path fill="#FEEA59" d="M825.209,235.433l-4-0.63l-13.931-2.15c0,0-13.56-26.81-14.6-53.06c-0.55-13.68,2.32-27.21,12.26-36.72
	C804.889,142.863,854.389,171.723,825.209,235.433z"/>
<path opacity="0.05" enable-background="new    " d="M821.568,234.624l-0.41,0.18l-13.93-2.15c0,0-13.56-26.81-14.6-53.06
	C805.559,189.053,817.759,205.624,821.568,234.624z"/>
<path fill="#4829B2" d="M802.738,242.853c0,0-59.52-35.859-49.689-74.819c0,0,57.279-1.851,66.399,67.63L802.738,242.853z"/>
<path opacity="0.05" enable-background="new    " d="M796.028,249.643c0,0-67.67-15.76-70.33-55.859c0,0,53.92-19.41,84,43.869
	L796.028,249.643z"/>
<path fill="#FEEA59" d="M793.908,250.673c0,0-67.67-15.76-70.33-55.86c0,0,53.921-19.41,84,43.87L793.908,250.673z"/>
<path opacity="0.05" enable-background="new    " d="M791.769,260.153c0,0-67.9,14.74-87.48-20.35c0,0,40.41-40.63,94.711,3.65
	L791.769,260.153z"/>
<path fill="#4829B2" d="M791.749,262.753c0,0-67.9,14.74-87.48-20.351c0,0,40.41-40.63,94.71,3.65L791.749,262.753z"/>
<path opacity="0.05" enable-background="new    " d="M793.639,274.583c0,0-55.33,42-87.89,18.479c0,0,19.479-53.89,87.399-36.67
	L793.639,274.583z"/>
<path fill="#FEEA59" d="M793.608,277.223c0,0-55.33,42-87.89,18.48c0,0,19.479-53.891,87.399-36.67L793.608,277.223z"/>
<path opacity="0.05" enable-background="new    " d="M801.578,268.153c0,0-23.3,65.46-63.439,63.58c0,0-13.2-55.76,53.07-78.529
	L801.578,268.153z"/>
<path fill="#4829B2" d="M804.729,269.233c0,0-23.3,65.46-63.44,63.58c0,0-13.199-55.76,53.07-78.529L804.729,269.233z"/>
<path opacity="0.05" enable-background="new    " d="M797.608,264.093c0,0,37.67,58.39,11.7,89c0,0-52.25-23.54-29.87-89.95
	L797.608,264.093z"/>
<path fill="#FEEA59" d="M801.299,263.593c0,0,37.67,58.39,11.7,89c0,0-52.25-23.54-29.87-89.95L801.299,263.593z"/>
<path opacity="0.05" enable-background="new    " d="M823.538,256.733c0,0,37.671,58.391,11.7,89c0,0-52.25-23.54-29.87-89.949
	L823.538,256.733z"/>
<path fill="#4829B2" d="M825.658,255.704c0,0,37.67,58.39,11.7,89c0,0-52.25-23.54-29.87-89.95L825.658,255.704z"/>
<path opacity="0.05" enable-background="new    " d="M818.479,260.773c0,0,68.75,10.09,74.73,49.82c0,0-52.12,23.82-87.37-36.74
	L818.479,260.773z"/>
<path fill="#FEEA59" d="M820.559,259.744c0,0,68.75,10.09,74.729,49.819c0,0-52.119,23.82-87.369-36.739L820.559,259.744z"/>
<path fill="#FEEA59" d="M828.479,245.704c0,0,71.16-15.75,98.74,22.609c0,0-36.62,44.12-103.601-4.439L828.479,245.704z"/>
<path fill="#4829B2" d="M830.089,243.613c0,0,71.16-15.75,98.74,22.61c0,0-36.62,44.12-103.601-4.439L830.089,243.613z"/>
<path fill="#4829B2" d="M802.738,242.853c0,0-59.52-35.859-49.689-74.819c0,0,57.279-1.851,66.399,67.63L802.738,242.853z"/>
<path fill="#FEEA59" d="M802.738,242.853c0,0-59.52-35.859-49.689-74.819c0,0,57.279-1.851,66.399,67.63L802.738,242.853z"/>
<path fill="#4829B2" d="M791.749,262.753c0,0-67.9,14.74-87.48-20.351c0,0,40.41-40.63,94.71,3.65L791.749,262.753z"/>
<path fill="#FEEA59" d="M791.749,262.753c0,0-67.9,14.74-87.48-20.351c0,0,40.41-40.63,94.71,3.65L791.749,262.753z"/>
<path fill="#4829B2" d="M804.729,269.233c0,0-23.3,65.46-63.44,63.58c0,0-13.199-55.76,53.07-78.529L804.729,269.233z"/>
<path fill="#FEEA59" d="M804.729,269.233c0,0-23.3,65.46-63.44,63.58c0,0-13.199-55.76,53.07-78.529L804.729,269.233z"/>
<path fill="#4829B2" d="M825.658,255.704c0,0,37.67,58.39,11.7,89c0,0-52.25-23.54-29.87-89.95L825.658,255.704z"/>
<path fill="#FEEA59" d="M825.658,255.704c0,0,37.67,58.39,11.7,89c0,0-52.25-23.54-29.87-89.95L825.658,255.704z"/>
<path fill="#4829B2" d="M830.089,243.613c0,0,71.16-15.75,98.74,22.61c0,0-36.62,44.12-103.601-4.439L830.089,243.613z"/>
<path fill="#FEEA59" d="M830.089,243.613c0,0,71.16-15.75,98.74,22.61c0,0-36.62,44.12-103.601-4.439L830.089,243.613z"/>
<path opacity="0.05" enable-background="new    " d="M831.788,231.624c0,0,66.601-29.601,101.271,2.51c0,0-27.11,50.52-102.41,16.27
	L831.788,231.624z"/>
<path opacity="0.05" enable-background="new    " d="M830.259,225.813c0,0,66.6-29.6,101.27,2.511c0,0-27.109,50.52-102.41,16.27
	L830.259,225.813z"/>
<path fill="#FEEA59" d="M831.818,228.983c0,0,66.601-29.6,101.271,2.511c0,0-27.11,50.52-102.41,16.27L831.818,228.983z"/>
<path fill="#8C6239" d="M856.278,237.983c4.929,23.158-9.85,45.927-33.008,50.854c-23.157,4.929-45.926-9.85-50.854-33.008
	c-4.926-23.144,9.832-45.901,32.972-50.847c23.16-4.943,45.942,9.824,50.887,32.984
	C856.276,237.972,856.277,237.978,856.278,237.983z"/>
<ellipse transform="matrix(-0.6347 -0.7727 0.7727 -0.6347 910.6628 1310.1243)" fill="#4829B2" cx="764.975" cy="439.83" rx="27.11" ry="42.13"/>
<path fill="#FEEA59" d="M786.169,409.744c0,0,40-56.811,78.18-44.221c0,0-2.25,57.261-72.2,61.4L786.169,409.744z"/>
<path fill="#FEEA59" d="M777.618,413.903c0,0,7.54-69.079,47-76.52c0,0,25.73,51.2-33.479,88.67L777.618,413.903z"/>
<path fill="#FEEA59" d="M774.979,413.833c0,0,7.54-69.08,47-76.521c0,0,25.73,51.2-33.479,88.67L774.979,413.833z"/>
<path opacity="0.05" enable-background="new    " d="M791.429,359.973c6.13,15.07,7.8,36.05-5.18,63.26h-0.131l-11.64-10.46
	C774.479,412.773,777.788,382.583,791.429,359.973z"/>
<path fill="#FEEA59" d="M784.108,424.233l-4-0.699l-13.93-2.381c0,0-13.141-27-13.76-53.279c-0.33-13.69,2.739-27.17,12.83-36.53
	C765.249,331.353,814.288,360.983,784.108,424.233z"/>
<path opacity="0.05" enable-background="new    " d="M780.479,423.363l-0.42,0.171l-13.88-2.381c0,0-13.141-27-13.76-53.279
	C765.188,377.553,777.139,394.303,780.479,423.363z"/>
<path fill="#4829B2" d="M761.479,431.293c0,0-58.95-36.79-48.51-75.59c0,0,57.3-0.94,65.33,68.659L761.479,431.293z"/>
<path opacity="0.05" enable-background="new    " d="M754.719,437.974c0,0-67.42-16.831-69.44-57c0,0,54.221-18.56,83.311,45.19
	L754.719,437.974z"/>
<path fill="#FEEA59" d="M752.578,438.983c0,0-67.42-16.831-69.439-57c0,0,54.22-18.56,83.31,45.19L752.578,438.983z"/>
<path opacity="0.05" enable-background="new    " d="M750.288,448.394c0,0-68.13,13.67-87.149-21.73c0,0,41-40,94.64,5.149
	L750.288,448.394z"/>
<path fill="#4829B2" d="M750.229,451.022c0,0-68.13,13.67-87.15-21.729c0,0,41-40,94.641,5.149L750.229,451.022z"/>
<path opacity="0.05" enable-background="new    " d="M751.929,462.884c0,0-56,41.15-88.17,17.09c0,0,20.32-53.581,88-35.291
	L751.929,462.884z"/>
<path fill="#FEEA59" d="M751.858,465.513c0,0-56,41.15-88.17,17.09c0,0,20.32-53.58,88-35.289L751.858,465.513z"/>
<path opacity="0.05" enable-background="new    " d="M759.969,456.573c0,0-24.33,65.091-64.431,62.58c0,0-12.319-56,54.301-77.689
	L759.969,456.573z"/>
<path fill="#4829B2" d="M763.108,457.704c0,0-24.33,65.089-64.43,62.568c0,0-12.32-56,54.3-77.689L763.108,457.704z"/>
<path opacity="0.05" enable-background="new    " d="M756.059,452.454c0,0,36.75,59,10.3,89.22c0,0-51.87-24.36-28.45-90.411
	L756.059,452.454z"/>
<path fill="#FEEA59" d="M759.769,452.013c0,0,36.75,59,10.3,89.22c0,0-51.87-24.358-28.45-90.409L759.769,452.013z"/>
<path opacity="0.05" enable-background="new    " d="M782.108,445.503c0,0,36.75,59,10.3,89.22c0,0-51.87-24.36-28.449-90.409
	L782.108,445.503z"/>
<path fill="#4829B2" d="M784.238,444.503c0,0,36.75,59,10.3,89.22c0,0-51.869-24.36-28.449-90.409L784.238,444.503z"/>
<path opacity="0.05" enable-background="new    " d="M776.938,449.464c0,0,68.58,11.17,73.93,51c0,0-52.489,22.999-86.779-38.111
	L776.938,449.464z"/>
<path fill="#FEEA59" d="M779.078,448.464c0,0,68.58,11.17,73.931,51c0,0-52.49,22.999-86.78-38.111L779.078,448.464z"/>
<path opacity="0.05" enable-background="new    " d="M787.229,434.553c0,0,71.4-14.63,98.38,24.161c0,0-37.31,43.539-103.52-6.07
	L787.229,434.553z"/>
<path fill="#4829B2" d="M788.868,432.483c0,0,71.4-14.63,98.381,24.161c0,0-37.311,43.539-103.521-6.07L788.868,432.483z"/>
<path fill="#4829B2" d="M761.479,431.293c0,0-58.95-36.79-48.51-75.59c0,0,57.3-0.94,65.33,68.659L761.479,431.293z"/>
<path fill="#FEEA59" d="M761.479,431.293c0,0-58.95-36.79-48.51-75.59c0,0,57.3-0.94,65.33,68.659L761.479,431.293z"/>
<path fill="#4829B2" d="M750.229,451.022c0,0-68.13,13.67-87.15-21.729c0,0,41-40,94.641,5.149L750.229,451.022z"/>
<path fill="#FEEA59" d="M750.229,451.022c0,0-68.13,13.67-87.15-21.729c0,0,41-40,94.641,5.149L750.229,451.022z"/>
<path fill="#4829B2" d="M763.108,457.704c0,0-24.33,65.089-64.43,62.568c0,0-12.32-56,54.3-77.689L763.108,457.704z"/>
<path fill="#FEEA59" d="M763.108,457.704c0,0-24.33,65.089-64.43,62.568c0,0-12.32-56,54.3-77.689L763.108,457.704z"/>
<path fill="#4829B2" d="M784.238,444.503c0,0,36.75,59,10.3,89.22c0,0-51.869-24.36-28.449-90.409L784.238,444.503z"/>
<path fill="#FEEA59" d="M784.238,444.503c0,0,36.75,59,10.3,89.22c0,0-51.869-24.36-28.449-90.409L784.238,444.503z"/>
<path fill="#4829B2" d="M788.868,432.483c0,0,71.4-14.63,98.381,24.161c0,0-37.311,43.539-103.521-6.07L788.868,432.483z"/>
<path fill="#FEEA59" d="M788.868,432.483c0,0,71.4-14.63,98.381,24.161c0,0-37.311,43.539-103.521-6.07L788.868,432.483z"/>
<path opacity="0.05" enable-background="new    " d="M790.759,420.523c0,0,67.06-28.54,101.22,4.11c0,0-27.9,50.09-102.65,14.649
	L790.759,420.523z"/>
<path opacity="0.05" enable-background="new    " d="M789.318,414.693c0,0,67.061-28.54,101.22,4.101
	c0,0-27.899,50.09-102.649,14.649L789.318,414.693z"/>
<path fill="#FEEA59" d="M790.818,417.893c0,0,67.061-28.54,101.221,4.11c0,0-27.9,50.089-102.65,14.65L790.818,417.893z"/>
<path fill="#8C6239" d="M815.139,427.273c4.572,23.232-10.553,45.769-33.783,50.343c-23.231,4.572-45.771-10.553-50.343-33.783
	c-4.571-23.225,10.544-45.758,33.766-50.339C788.013,388.916,810.56,404.039,815.139,427.273z"/>
<path fill="#FEEA59" d="M318.269,405.153c3.44,12.471,15.37,20.051,15.37,20.051s6.37-12.63,2.93-25.101
	c-3.44-12.47-15.37-20.05-15.37-20.05S314.838,392.704,318.269,405.153z"/>
<path fill="#FEEA59" d="M382.579,474.603c-3.7,12.391,2.4,25.15,2.4,25.15s12.09-7.33,15.79-19.719c3.7-12.391-2.4-25.15-2.4-25.15
	S386.278,462.204,382.579,474.603z"/>
<path fill="#FEEA59" d="M846.479,554.313c-9.08,9.211-9.67,23.34-9.67,23.34s14.12-0.799,23.2-10c9.08-9.199,9.67-23.34,9.67-23.34
	S855.479,545.152,846.479,554.313z"/>
<path fill="#FFB9B9" d="M1000.988,755.854c0,0,1.79,26.221,4.771,29.199c2.979,2.98-26.82,4.771-26.82,4.771l4.17-34
	L1000.988,755.854z"/>
<path opacity="0.05" enable-background="new    " d="M1000.988,755.854c0,0,1.79,26.221,4.771,29.199
	c2.979,2.98-26.82,4.771-26.82,4.771l4.17-34L1000.988,755.854z"/>
<path fill="#CBCDDA" d="M1007.538,776.152c0,0-4.17,0-19.069,7.75c0,0-10.13-1.789-14.3-16.09c0,0-12.511,21.451-20.86,22.641
	s-24.43,2.35-13.7,16.699c10.73,14.352,73.87,7.701,73.87,7.701S1015.289,780.293,1007.538,776.152z"/>
<path opacity="0.05" enable-background="new    " d="M1007.538,776.152c0,0-4.17,0-19.069,7.75c0,0-10.13-1.789-14.3-16.09
	c0,0-12.511,21.451-20.86,22.641s-24.43,2.35-13.7,16.699c10.73,14.352,73.87,7.701,73.87,7.701S1015.289,780.293,1007.538,776.152z
	"/>
<path fill="#FFB9B9" d="M998.599,796.373l-4.12,11.33l-27.41-7.75l1.561-11.24l0.38-2.709l1-7.5c0,0,23.24-6,23.24-3
	c0.314,2.457,0.826,4.885,1.529,7.26c1,3.66,2.15,7.84,3,10.59C998.249,795.152,998.599,796.373,998.599,796.373z"/>
<path fill="#4C4C78" d="M983.648,640.973c-1.88,3.18-4,9.141-0.05,16.58c1.169,2.154,2.607,4.15,4.28,5.941
	c13.109,14.299,16.689,46.479,16.689,46.479v51.84l-8.939,0.691l-14.3,1.1l-21.45-88.189c0,0-12.511-64.361-6.55-75.682
	c5.96-11.318,11.319-82.229,11.319-82.229l4.95-5.119l11.74-12.16h34c2.718,1.949,4.975,4.473,6.609,7.389
	c5.7,9.441,10.82,29.071-4.819,65.312c-24.431,56.609-31.58,65.549-31.58,65.549C984.821,639.23,984.185,640.07,983.648,640.973z"/>
<path fill="#0071BC" d="M983.648,640.973c-1.88,3.18-4,9.141-0.05,16.58c1.169,2.154,2.607,4.15,4.28,5.941
	c13.109,14.299,16.689,46.479,16.689,46.479v51.84l-8.939,0.691l-14.3,1.1l-21.45-88.189c0,0-12.511-64.361-6.55-75.682
	c5.96-11.318,11.319-82.229,11.319-82.229l4.95-5.119l11.74-12.16h34c2.718,1.949,4.975,4.473,6.609,7.389
	c5.7,9.441,10.82,29.071-4.819,65.312c-24.431,56.609-31.58,65.549-31.58,65.549C984.821,639.23,984.185,640.07,983.648,640.973z"/>
<path opacity="0.1" enable-background="new    " d="M994.769,782.783l-25.81,3.221l1-7.5c0,0,23.239-6,23.239-3
	C993.525,777.969,994.05,780.402,994.769,782.783z"/>
<path fill="#0071BC" d="M981.919,564.574c0,0,1.479,46.908,1.729,76.389c0.05,6.67,0,12.451-0.05,16.58
	c0.035,2.189-0.125,4.379-0.48,6.541c-1.789,5.359,1.79,17.279,1.79,17.279c14.9,39.33,10.73,73.891,10.73,73.891v26.219
	l-28.601,3.58c0,0,4.771-3.58-8.34-38.139c-7.529-19.861-9.16-39.311-9.189-52.281c-0.069-7.096-1.488-14.113-4.18-20.68
	c-0.827-2.215-1.342-4.533-1.53-6.891c-1.19-11.92-6.55-26.818-6.55-26.818s-14.301-42.311-17.881-73.301
	c-1.651-14.75-1.373-29.652,0.83-44.33c0.527-3.731,1.245-7.433,2.15-11.091c0,0,58.25-36.66,80.25-11.318
	c2.129,2.475,3.82,5.295,5,8.34c1.208,3.004,2.148,6.109,2.811,9.279C1017.198,551.473,981.919,564.574,981.919,564.574z"/>
<circle fill="#FFB9B9" cx="980.139" cy="273.184" r="30.39"/>
<path fill="#FFB9B9" d="M963.479,292.253c0,0,12.51,35.16,0,53.63s39.92,12.51,39.92,12.51l20.26-24.43c0,0-23.84,0-25-41.71
	C997.499,250.543,963.479,292.253,963.479,292.253z"/>
<path opacity="0.1" enable-background="new    " d="M1023.629,514.522c-4.321,1.496-8.765,2.611-13.28,3.33
	c-7.42,1.141-16.17,1.191-21.29-3.33c-3-2.68-10.51-3-19.49-2.148c-18.909,1.809-44.51,8.87-49.409,10.259
	c0.527-3.731,1.244-7.433,2.149-11.089c0,0,58.25-36.66,80.25-11.32h12.71c2.718,1.949,4.975,4.473,6.61,7.389
	C1022.988,512.353,1023.629,514.522,1023.629,514.522z"/>
<path opacity="0.1" enable-background="new    " d="M998.599,796.373l-4.12,11.33l-27.41-7.75l1.561-11.24
	c4.71,10.42,12.739,11.83,12.739,11.83c8.66-4.5,13.7-6.391,16.4-7.18C998.249,795.152,998.599,796.373,998.599,796.373z"/>
<path fill="#CBCDDA" d="M1000.389,793.402c0,0-4.17,0-19.07,7.75c0,0-10.13-1.789-14.3-16.09c0,0-12.51,21.451-20.86,22.641
	c-8.35,1.189-24.43,2.381-13.71,16.689c10.721,14.311,73.891,7.75,73.891,7.75S1008.139,797.574,1000.389,793.402z"/>
<path fill="#FFB9B9" d="M859.019,279.003c0,0,1.16-23.21,25.55-20.94c2.293,0.22,3.974,2.255,3.755,4.548
	c-0.052,0.543-0.21,1.07-0.465,1.553l-5,9.41L859.019,279.003z"/>
<path fill="#3FA9F5" d="M999.799,341.153c0,0-29.2-4.77-36.95-10.729c0,0-6,11.32-16.69,5.36c-10.689-5.961-35.75-5.36-35.75-5.36
	s-20.859-11.32-25-36.95c0,0-4.17-15.49-3-19.66c0,0-15.489-16.09-23.239,5.36c3,14.899,5.359,13.71,4.77,25.62l9.54,26.189
	c0,0,0.6,8.94,17.88,20.86s36.95,30.39,36.95,30.39s-10.43,5.66-6.55,31.58c4.729,31.68-2.38,76.87-2.38,76.87v29.201
	c0,0,59.59-17.281,69.72-8.34c10.13,8.939,34.561,0,34.561,0s-3-10.131-7.15-34.561s0.6-48.27,0.6-48.27s15.49-41.12,22.641-57.8
	c7.149-16.681-5.36-39.33-17.881-47.67c-12.52-8.34-17.17-3.33-17.17-3.33S1026.608,335.753,999.799,341.153z"/>
<path opacity="0.1" enable-background="new    " d="M947.259,265.753c-0.01,1.24,0.2,2.473,0.62,3.64
	c0.694,1.328,1.643,2.507,2.79,3.47c4.46,4.36,8.38,9.54,9.949,15.58c1.061,4.091,1,8.37,0.94,12.601c-0.26,17.109-1,35.58-11.54,49
	c-3.88,4.95-8.88,8.88-13.57,13.069c-0.655,0.48-1.153,1.146-1.43,1.91c-0.13,0.814,0.025,1.648,0.44,2.36
	c2.18,4.53,6.77,7.31,11.12,9.83c2,1.149,4.08,2.34,6.38,2.41c5.42,0.18,9-5.55,13.93-7.8c7.18-3.28,15.229,1.279,22.36,4.68
	c5.159,2.456,10.571,4.344,16.14,5.63c7.63,1.76,16.25,2.19,22.67-2.28c3.712-2.614,6.247-6.583,7.061-11.05
	c0.52-2.91,0.439-6.29,2.64-8.26c1.14-1,2.689-1.44,3.91-2.34c1.91-1.4,2.81-3.75,3.62-6l7.34-20.07
	c0.946-2.121,1.433-4.418,1.43-6.74c-0.35-4.83-4.81-8.34-9.28-10.2c-4.47-1.859-9.42-2.77-13.359-5.6
	c-6.65-4.78-8.71-13.71-9.311-21.88c-0.41-5.611-0.369-11.246,0.12-16.851c0.73-8.31,2.351-17.17-1.35-24.649
	c-3.95-8-12.811-12.07-21-15.55c-3.15-1.34-6.39-2.69-9.811-2.84c-3.62-0.16-7.14,1-10.56,2.229c-5.44,1.89-11,4.33-16.57,5.61
	c-3.149,0.72-6.609,0.18-9.649,1.319C942.129,241.213,947.259,256.753,947.259,265.753z"/>
<path fill="#42210B" d="M947.259,264.563c-0.01,1.24,0.2,2.473,0.62,3.641c0.694,1.327,1.643,2.506,2.79,3.47
	c4.46,4.36,8.38,9.54,9.949,15.58c1.061,4.09,1,8.37,0.94,12.6c-0.26,17.11-1,35.58-11.54,49c-3.88,4.95-8.88,8.88-13.57,13.07
	c-0.655,0.48-1.153,1.146-1.43,1.91c-0.13,0.813,0.025,1.647,0.44,2.359c2.18,4.53,6.77,7.311,11.12,9.83
	c2,1.15,4.08,2.34,6.38,2.41c5.42,0.18,9-5.55,13.93-7.8c7.18-3.28,15.229,1.28,22.36,4.68c5.159,2.457,10.571,4.345,16.14,5.63
	c7.63,1.761,16.25,2.19,22.67-2.279c3.712-2.615,6.247-6.584,7.061-11.051c0.52-2.909,0.439-6.289,2.64-8.26
	c1.14-1,2.689-1.439,3.91-2.34c1.91-1.4,2.81-3.75,3.62-6l7.34-20.07c0.946-2.12,1.433-4.417,1.43-6.739
	c-0.35-4.83-4.81-8.341-9.28-10.2c-4.47-1.86-9.42-2.771-13.359-5.601c-6.65-4.779-8.71-13.71-9.311-21.88
	c-0.41-5.61-0.369-11.245,0.12-16.85c0.73-8.311,2.351-17.17-1.35-24.65c-3.95-8-12.811-12.069-21-15.55
	c-3.15-1.34-6.39-2.689-9.811-2.84c-3.62-0.16-7.14,1-10.56,2.229c-5.44,1.891-11,4.33-16.57,5.61
	c-3.149,0.72-6.609,0.18-9.649,1.32C942.129,240.023,947.259,255.563,947.259,264.563z"/>
<path opacity="0.05" enable-background="new    " d="M923.238,427.153c0,0,4.75-1.149,28.591-4.729
	c23.84-3.58,65.55,4.77,65.55,4.77"/>
<path fill="#FEEA59" d="M268.269,525.152c3.44,12.471,15.37,20.051,15.37,20.051s6.37-12.629,2.93-25.101
	c-3.44-12.469-15.37-20.049-15.37-20.049S264.838,512.704,268.269,525.152z"/>
</svg>
