<?xml version="1.0" encoding="utf-8"?>
<!-- Generator: Adobe Illustrator 16.0.3, SVG Export Plug-In . SVG Version: 6.00 Build 0)  -->
<!DOCTYPE svg PUBLIC "-//W3C//DTD SVG 1.1//EN" "http://www.w3.org/Graphics/SVG/1.1/DTD/svg11.dtd">
<svg version="1.1" id="Capa_1" xmlns="http://www.w3.org/2000/svg" xmlns:xlink="http://www.w3.org/1999/xlink" x="0px" y="0px"
	 width="1178px" height="928px" viewBox="0 0 1178 928" enable-background="new 0 0 1178 928" xml:space="preserve">
<title>time management</title>
<title>forgot password</title>
<title>reading list</title>
<g>
	<path fill="#E6E6E6" d="M712.186,48.675c-9.33,7.66-13.5,19.8-17.141,31.31c-8.16,25.827-15.79,51.827-22.89,78
		c-10.35,38.021-19.749,76.88-38.699,111.47c-18.95,34.591-46.561,63.261-73.87,91.591l-98.38,102
		c-30.4,31.529-62.83,67.92-62.25,111.72c0.5,38,27.06,71.71,59.56,91.33s70.48,27.649,107.65,35.37c18.87,3.92,38.899,7.77,57,1.25
		c21.74-7.82,35.91-28.771,55.779-40.561c35.651-21.17,80.821-9.26,120.76,1.84c39.939,11.101,87,19.521,119.391-6.34
		c47-37.53,26.74-113.14,47.729-169.5c19.92-53.489,75-84.25,111.15-128.41c80.76-98.63,45.451-235.63-66-290.93
		c-36.52-18.07-72.52-17.14-112.129-19.99C850.455,45.284,754.756,13.704,712.186,48.675z"/>
</g>
<g opacity="0.5">
	<path fill="#009245" d="M407.866,619.185c0,0-165.2-83.6-94.601-270.33c70.601-186.73-185.01-251.5-185.01-251.5
		s-50.07,181.82,44,302.9C266.326,521.335,302.616,722.354,407.866,619.185z"/>
	<path fill="#009245" stroke="#FFFFFF" stroke-miterlimit="10" d="M128.255,97.354c0,0,69.7,120.77,104.871,277.87
		c35.17,157.1,92.43,286.74,173.89,241"/>
</g>
<g opacity="0.5">
	<path fill="#D9E021" d="M372.375,649.725c0,0-66.061-94.83,21.58-186.24c87.64-91.41-31.83-199.82-31.83-199.82
		s-75.351,94.12-57.36,191.69S288.525,682.055,372.375,649.725z"/>
	<path fill="#D9E021" stroke="#FFFFFF" stroke-miterlimit="10" d="M362.135,263.664c0,0,5,90.721-18.1,193.521
		c-23.101,102.8-27.131,195.38,28.67,190.57"/>
</g>
<linearGradient id="SVGID_1_" gradientUnits="userSpaceOnUse" x1="555.5513" y1="1116.3555" x2="555.5512" y2="1870.3633" gradientTransform="matrix(1 0 0 -1 32.5601 1952.3398)">
	<stop  offset="0" style="stop-color:#808080;stop-opacity:0.25"/>
	<stop  offset="0.54" style="stop-color:#808080;stop-opacity:0.12"/>
	<stop  offset="1" style="stop-color:#808080;stop-opacity:0.1"/>
</linearGradient>
<path fill="url(#SVGID_1_)" d="M964.574,685.185l-145.85-191c-11.389-53.62-28.49-53.62-28.49-53.62
	c-116.219-15.64-148.119-35.75-148.119-35.75l-26-10.18l-2.171-1.28c-0.1-0.57-0.21-1.14-0.31-1.73c-0.1-0.59-0.2-1.369-0.28-2.06
	c28.396-17.068,48.887-44.678,57-76.8c0.21-0.84,0.4-1.7,0.6-2.55c5.581-2.676,10.292-6.874,13.59-12.11
	c11.17-18.31,0.561-41.49,0.801-62.82c0.148-13.479,4.799-26.689,4.27-40.16c-0.439-11.279-4.48-22.109-8.891-32.529
	c-2.139-5.07-4.5-10.25-8.599-14c-10.87-9.87-28.47-5.641-42.431-10.5c-18.06-6.29-26.47-25.891-36.909-41.65
	c-4-6.08-11.28-12.5-17.851-9.17c-7.71,3.9-5.62,17.25-13.41,21c-4.72,2.271-10.489-0.59-13.859-4.55s-5.3-8.93-8.62-12.93
	c-6.063-7.051-15.502-10.214-24.59-8.24c-1.77,0.286-3.403,1.122-4.67,2.39c-2.49,2.9-0.931,7.22-0.761,11
	c0.591,12.73-15,19.8-27.88,21.15c-12.88,1.35-28.06,1.51-35.77,11.76c-4.08,5.43-4.95,12.5-7.7,18.68
	c-6.38,14.33-21.81,22.181-35.37,30.41c-13.56,8.23-27.52,20.23-27.4,35.87c0.12,15,13.36,27.15,15.69,42
	c1.24,7.87-0.69,16,0.85,23.83c2.83,14.36,16.25,24,28.631,32.15c0.84,0.55,1.689,1.1,2.56,1.619c0.22,0.881,0.44,1.75,0.68,2.62
	c9.611,33.852,32.95,62.137,64.36,78c0.2,0.84,0.39,1.69,0.58,2.561c0.59,2.68,1.14,5.47,1.63,8.33l-0.38,0.1v-0.28l-144.05,36.73
	c-0.867-0.313-1.793-0.429-2.71-0.34c-5.9-0.48-24.351,5.88-45.88,92.13l-92.281,163.09c0,0-53.55,51.39-12.53,95
	c20.91,22.21,44.49,27.58,62.58,27.51c10.505,0.149,20.95-1.619,30.82-5.22c0,0-0.74-1.14-1.88-3.16l12.199,1.49
	c24,26.68,64.881,17.31,64.881,17.31s58.149-0.66,60.289-31.069l104.511,32.06l0.42,5.71h54.88l-0.09-3.64l115.459-34.78
	c9,16.64,31,24.87,31,24.87s67.76,2.85,89.061-9.49c8.949-5.252,18.697-9.005,28.859-11.109l0.59-0.061l-0.141,0.14l130.461-14
	C1035.215,736.564,964.574,685.185,964.574,685.185z M307.906,730.604l-2.87-1.66c5.128-1.959,10.4-3.517,15.77-4.66l25.38-31.33
	l4.391,30.9C336.014,720.496,320.718,722.916,307.906,730.604z M798.775,730.354c-9.449-7.139-21.01-10.921-32.85-10.75l1-76.06
	c9.529,6.09,17.529,12.81,19.898,19.29c6.842,19,39.881,49.149,39.881,49.149l-17.16,14.101l0,0l-2.67,2.189
	c-0.721,0.17-1.439,0.34-2.16,0.53L798.775,730.354z"/>
<polygon fill="#EFB7B9" points="281.215,814.354 307.845,817.685 323.375,741.124 293.416,723.364 254.585,765.534 "/>
<polygon fill="#AA7C4F" points="281.215,814.354 307.845,817.685 323.375,741.124 293.416,723.364 254.585,765.534 "/>
<path fill="#C69C6D" d="M638.456,438.215l-64.351,57.699c0,0-124.27,27.74-93.199-11.1c17.6-22,15.26-55.39,9.92-80.21
	c-2.389-11.255-5.707-22.293-9.92-33c0,0,159.8-96.49,137.609-23.25c-6.58,21.72-7.5,38.47-5.55,51.27
	C617.625,429.984,638.456,438.215,638.456,438.215z"/>
<path opacity="0.1" enable-background="new    " d="M618.515,348.354c-6.58,21.72-7.5,38.47-5.55,51.27
	c-37.026,22.926-83.344,24.822-122.12,5c-2.389-11.255-5.707-22.293-9.92-33C480.925,371.624,640.706,275.114,618.515,348.354z"/>
<path fill="#C69C6D" d="M671.775,291.755c0,68.632-55.637,124.27-124.27,124.27s-124.271-55.638-124.271-124.27
	c0-68.613,55.607-124.243,124.221-124.271c68.433-0.227,124.093,55.065,124.319,123.499
	C671.776,291.24,671.776,291.497,671.775,291.755z"/>
<polygon fill="#E1E7EF" points="462.065,452.645 462.065,680.095 680.645,662.345 644.036,430.454 547.505,488.145 "/>
<path opacity="0.1" enable-background="new    " d="M580.786,592.444l-24.33-68.79h1c25.52-27.74,14.42-44.38,14.42-44.38h-35.42
	c-22.55,16-6.9,36.73-1.59,42.7l-10.62,70.47H580.786z"/>
<path fill="#0071BC" d="M580.786,590.225l-24.33-68.79h1c25.52-27.74,14.42-44.38,14.42-44.38h-35.42
	c-22.55,16-6.9,36.729-1.59,42.7l-10.62,70.47H580.786z"/>
<path opacity="0.1" enable-background="new    " d="M613.265,403.555c0,0-7,32.439-55.77,75.71c0,0,15,5,17.199,44.939l18.311,25
	c0,0,14.42-52.149,39.939-69.899c25.521-17.75,0-64.351,0-64.351L613.265,403.555z"/>
<path fill="#E1E7EF" d="M613.265,401.354c0,0-7,32.44-55.77,75.71c0,0,15,5,17.199,44.94l18.311,25c0,0,14.42-52.15,39.939-69.9
	c25.521-17.75,0-64.35,0-64.35L613.265,401.354z"/>
<path opacity="0.1" enable-background="new    " d="M547.456,479.265c0,0-21,16.649-22.141,43.28
	c-1.14,26.63-12.199,26.63-12.199,26.63s-27.74-85.431-36.61-93.2c-8.87-7.771,16-40.54,16-40.54S506.456,461.515,547.456,479.265z"
	/>
<path fill="#E1E7EF" d="M547.456,477.055c0,0-21,16.64-22.141,43.3c-1.14,26.66-12.199,26.63-12.199,26.63
	s-27.75-85.47-36.66-93.229c-8.91-7.761,16-40.54,16-40.54S506.456,459.295,547.456,477.055z"/>
<path opacity="0.1" enable-background="new    " d="M611.855,401.604l27.74,11.1c0,0,31.07,20,144.241,35.511
	c0,0,16.639,0,27.738,53.26l142,189.729c0,0,68.791,51,11.102,102.08l-127,13.87c0,0,73.229-69.899-37.721-72.12l20.5-17.21
	c0,0-32.18-30-38.83-48.819c-6.65-18.82-61-39.94-61-39.94l6.66,159.771l-99.9,15.52l-14.4-297.3
	c-0.692-14.022,0.112-28.079,2.4-41.931C619.145,442.574,623.116,406.854,611.855,401.604z"/>
<path fill="#333333" d="M612.965,401.604l27.74,11.1c0,0,31.069,20,144.24,35.511c0,0,16.641,0,27.74,53.26l142,189.729
	c0,0,68.789,51,11.1,102.08l-127,13.87c0,0,73.23-69.899-37.721-72.12l20.531-17.199c0,0-32.18-30-38.83-48.82s-61-39.94-61-39.94
	l6.66,159.771l-99.97,15.51l-14.4-297.3c-0.693-14.022,0.111-28.079,2.4-41.931C620.255,442.574,624.225,406.854,612.965,401.604z"
	/>
<path opacity="0.1" enable-background="new    " d="M493.135,412.694l-140.91,36.66c0,0-21.08-13.31-46.6,91l-89.871,162
	c0,0-52.15,51-12.2,94.31c39.95,43.311,89.9,22.12,89.9,22.12s-45.49-71,34.399-88.76l30-37.72l135.36,15.53l-3.41-195.28
	l3.79-22.76c4.101-24.601,4.101-49.71,0-74.311L493.135,412.694z"/>
<path fill="#333333" d="M492.025,412.694l-140.909,36.66c0,0-21.08-13.31-46.601,91l-89.87,162c0,0-52.19,51-12.19,94.24
	c40,43.24,89.871,22.189,89.871,22.189s-45.49-71,34.399-88.76l30-37.72l135.36,15.53l-3.391-195.28l3.761-22.76
	c4.1-24.601,4.1-49.71,0-74.311L492.025,412.694z"/>
<polygon fill="#E4E6ED" points="353.335,521.435 340.015,531.414 540.845,582.454 540.845,562.484 "/>
<polygon fill="#E4E6ED" points="741.676,518.104 754.984,528.095 540.845,582.454 540.845,562.484 "/>
<polygon fill="#22B573" points="327.815,521.435 514.215,564.704 527.525,835.435 364.425,784.395 "/>
<polygon fill="#22B573" points="763.865,521.435 565.255,566.925 576.345,838.765 760.535,782.175 "/>
<path fill="#4829B2" d="M507.555,564.704c0,0,32.54,20,66.75,0l6.66,276.28h-53.43L507.555,564.704z"/>
<path fill="#00A99D" d="M507.555,564.704c0,0,32.54,20,66.75,0l6.66,276.28h-53.43L507.555,564.704z"/>
<path fill="#D8D9E5" d="M357.775,518.104v7.77l183.07,36.61C540.845,562.484,447.645,528.085,357.775,518.104z"/>
<path fill="#D8D9E5" d="M738.346,513.664v7.771l-197.5,41.05C540.845,562.484,648.456,523.654,738.346,513.664z"/>
<path fill="#C69C6D" d="M799.035,734.534l-5.791,1.561c0,0-37.709-33-85.779,17c-48.07,50,16,74.47,16,74.47s66,2.83,86.73-9.43
	c8.922-5.351,18.691-9.135,28.891-11.19c6.234-1.223,11.908-4.425,16.18-9.13l0,0c7.861-8.61,11.412-20.313,9.66-31.84l0,0
	c-2.293-15.271-13.463-27.708-28.4-31.62l0,0C824.225,731.157,811.305,731.22,799.035,734.534z"/>
<path fill="#C69C6D" d="M310.065,740.015c0,0,44.38-39.94,98.75,26.63s-42.17,67.71-42.17,67.71s-52.189,12.17-72.12-31.1
	C274.595,759.984,310.065,740.015,310.065,740.015z"/>
<path opacity="0.1" enable-background="new    " d="M803.734,731.824c0,0,51.59,15.061,40.531,74.59l31.18-3.399l6.58-30.271
	l-13.311-42.16l-25.52-10L803.734,731.824z"/>
<path fill="#67647E" d="M804.846,731.824c0,0,51.59,15.061,40.529,74.59l31.18-3.399l6.58-30.271l-13.311-42.16l-25.52-10
	L804.846,731.824z"/>
<path opacity="0.1" enable-background="new    " d="M671.775,291.755c0.009,9.946-1.18,19.857-3.54,29.52
	c-7.797,3.705-16.526,4.987-25.06,3.68c-14.7-2.25-27.68-11-38.43-21.27c-10.75-10.271-19.771-22.22-30.141-32.9
	c-9.399-9.68-21-18.729-34.479-19.12c-12.24-0.359-23.391,6.48-35.19,9.721c-12.359,3.399-37.26-5.88-43.29,4.6
	c-3.54,6.16-2.29,19.71-4.38,27c-2.272,7.963-5.471,15.632-9.53,22.851c-3,5.27-7.409,10.859-13.46,10.81
	c-2.359-0.118-4.647-0.849-6.64-2.12c-18.122-66.202,20.854-134.561,87.057-152.683c66.203-18.123,134.562,20.854,152.684,87.057
	c2.928,10.696,4.411,21.736,4.409,32.826L671.775,291.755z"/>
<path fill="#333333" d="M504.925,259.185c11.81-3.24,23-10.08,35.19-9.72c13.479,0.39,25.09,9.439,34.479,19.12
	c10.36,10.67,19.38,22.619,30.14,32.899c10.761,10.28,23.73,19,38.431,21.271c14.7,2.27,31.249-3.261,38.879-16
	c10.869-18.181,0.551-41.21,0.779-62.391c0.15-13.39,4.67-26.51,4.16-39.89c-0.43-11.2-4.359-22-8.649-32.311
	c-2.091-5-4.381-10.18-8.381-13.89c-10.59-9.8-27.72-5.6-41.319-10.43c-17.58-6.25-25.78-25.721-35.94-41.37
	c-3.92-6-11-12.41-17.38-9.11c-7.51,3.88-5.47,17.141-13.06,20.86c-4.601,2.25-10.22-0.59-13.5-4.521
	c-3.28-3.93-5.17-8.869-8.391-12.84c-5.841-6.999-15.098-10.158-24-8.189c-1.729,0.286-3.323,1.116-4.55,2.37
	c-2.42,2.88-0.91,7.17-0.739,10.93c0.579,12.64-14.57,19.66-27.15,21s-27.33,1.5-34.83,11.689c-4,5.391-4.82,12.41-7.5,18.551
	c-6.22,14.239-21.24,22-34.45,30.21s-26.8,20.1-26.68,35.63c0.12,14.93,13,27,15.28,41.729c1.199,7.82-0.67,15.9,0.83,23.67
	c2.75,14.261,15.819,23.83,27.88,31.931c3,2,6.199,4.09,9.8,4.12c6,0.05,10.49-5.54,13.46-10.811
	c4.059-7.218,7.257-14.887,9.53-22.85c2.09-7.311,0.84-20.86,4.38-27C467.666,253.305,492.565,262.574,504.925,259.185z"/>
</svg>
