<?xml version="1.0" encoding="utf-8"?>
<!-- Generator: Adobe Illustrator 16.0.3, SVG Export Plug-In . SVG Version: 6.00 Build 0)  -->
<!DOCTYPE svg PUBLIC "-//W3C//DTD SVG 1.1//EN" "http://www.w3.org/Graphics/SVG/1.1/DTD/svg11.dtd">
<svg version="1.1" id="Capa_1" xmlns="http://www.w3.org/2000/svg" xmlns:xlink="http://www.w3.org/1999/xlink" x="0px" y="0px"
	 width="1280px" height="800px" viewBox="0 0 1280 800" enable-background="new 0 0 1280 800" xml:space="preserve">
<title>time management</title>
<path opacity="0.1" fill="#CCCCCC" enable-background="new    " d="M225.393,92.326c-6.46,2.68-13.09,6.12-16.64,12.15
	c-3.76,6.369-3.31,14.279-2.61,21.649c6.1,63.92,22.17,131.9-5.58,189.8c-13.47,28.09-36,50.601-53.92,76.11
	c-17.92,25.51-31.45,57.361-23.13,87.371c10.16,36.67,48.08,57,73.64,85.22c16.73,18.45,28.46,40.87,44.07,60.28
	s37,36.51,61.92,37.65c35.84,1.649,65-29.301,100.14-36.471c36-7.34,72.25,11.34,101.44,33.7s55.74,49.45,89.75,63.41
	c37.561,15.43,79.901,13.07,119.441,22.34c36,8.45,69.14,26.42,104.88,36s77.63,9,105.32-15.47c36.09-32,33.25-89,56.3-131.33
	c21.41-39.33,63.32-62.811,91.53-97.58c50.76-62.58,49.1-158.231,6-226.291s-121.17-109.271-201-120
	c-36-4.83-73.07-4.17-107.68-15.16c-92.641-29.4-147.771-134.74-242.351-156.66c-60.12-13.91-118.59,10.181-169.8,39.83
	C312.663,84.616,271.653,73.135,225.393,92.326z"/>
<path fill="none" stroke="#535461" stroke-width="2" stroke-miterlimit="10" d="M315.673,298.826c0,0-34.13,32.21-70.76,33.17
	c-15.382,0.307-30.25,5.594-42.37,15.07c-5.729,4.528-11.031,9.573-15.84,15.069"/>
<path fill="#D9E021" d="M163.603,362.925c4.92-2.5,23.7-0.84,23.7-0.84s-9.74,16.15-14.66,18.65
	c-4.75,2.816-10.885,1.248-13.702-3.503c-2.816-4.751-1.248-10.885,3.503-13.701c0.386-0.229,0.786-0.432,1.199-0.606H163.603z"/>
<path fill="#8CC63F" d="M183.373,334.375c5.49,0.58,20.35,12.18,20.35,12.18s-17,8.261-22.44,7.69
	c-5.461-0.825-9.219-5.921-8.394-11.382C173.662,337.749,178.208,334.067,183.373,334.375z"/>
<path fill="#D9E021" d="M230.252,311.366c4.44,3.27,11.42,20.79,11.42,20.79s-18.81-1.43-23.25-4.69
	c-4.296-3.471-4.965-9.767-1.494-14.063C220.176,309.382,225.952,308.5,230.252,311.366z"/>
<path fill="#8CC63F" d="M269.643,301.956c4.93,2.47,14.77,18.56,14.77,18.56s-18.78,1.771-23.71-0.699
	c-5.062-2.21-7.373-8.105-5.163-13.166c2.21-5.062,8.104-7.373,13.166-5.163C269.026,301.626,269.339,301.783,269.643,301.956
	L269.643,301.956z"/>
<path fill="#D9E021" d="M214.173,364.765c1.64-5.27-3.16-23.51-3.16-23.51s-14.28,12.32-15.92,17.59
	c-1.886,5.191,0.793,10.928,5.984,12.814c5.191,1.886,10.928-0.794,12.814-5.984C213.999,365.376,214.093,365.073,214.173,364.765z"
	/>
<path fill="#8CC63F" d="M260.103,353.135c0-5.52-10.05-21.479-10.05-21.479s-9.94,16-9.93,21.54c0.017,5.522,4.507,9.986,10.03,9.97
	c5.522-0.017,9.986-4.507,9.97-10.03H260.103z"/>
<path fill="#D9E021" d="M303.193,335.776c0.92-5.44-6.28-22.87-6.28-22.87s-12.51,14.12-13.42,19.56
	c-0.66,5.483,3.25,10.464,8.733,11.124c5.121,0.617,9.871-2.764,10.967-7.804V335.776z"/>
<path fill="none" stroke="#535461" stroke-width="2" stroke-miterlimit="10" d="M360.022,213.526c0,0-41.11-22.58-53.33-57.17
	c-5.021-14.546-14.625-27.069-27.37-35.69c-6.082-4.047-12.522-7.528-19.24-10.4"/>
<path fill="#8CC63F" d="M252.283,88.515c3.89,3.91,8.08,22.301,8.08,22.301s-18.36-4.301-22.25-8.221
	c-3.696-4.104-3.365-10.427,0.739-14.122C242.674,85.032,248.483,85.05,252.283,88.515z"/>
<path fill="#39B54A" d="M285.533,98.545c1.14,5.4-5.33,23.11-5.33,23.11s-13.07-13.59-14.21-19
	c-1.383-5.347,1.831-10.803,7.178-12.186c5.347-1.383,10.802,1.831,12.185,7.178c0.076,0.293,0.138,0.589,0.187,0.888
	L285.533,98.545z"/>
<path fill="#39B54A" d="M321.833,136.135c-1.74,5.23-16.27,17.261-16.27,17.261s-4.42-18.33-2.68-23.57
	c1.742-5.247,7.408-8.088,12.655-6.345c5.247,1.742,8.087,7.408,6.345,12.654l0,0H321.833z"/>
<path fill="#009245" d="M342.913,170.686c-0.83,5.449-13.12,19.76-13.12,19.76s-7.46-17.32-6.63-22.771
	c0.564-5.494,5.475-9.49,10.969-8.926c5.494,0.563,9.49,5.475,8.926,10.969c-0.033,0.321-0.082,0.641-0.146,0.957V170.686z"/>
<path fill="#009245" d="M266.073,137.206c5.52-0.06,21.4-10.24,21.4-10.24s-16.11-9.8-21.63-9.739
	c-5.523,0.063-9.949,4.592-9.885,10.114c0.063,5.523,4.592,9.949,10.115,9.886l0,0V137.206z"/>
<path fill="#009245" d="M291.233,177.345c5.24-1.71,17.35-16.17,17.35-16.17s-18.31-4.529-23.55-2.819
	c-5.311,1.516-8.388,7.049-6.872,12.36c1.516,5.311,7.05,8.387,12.36,6.871c0.24-0.068,0.478-0.146,0.712-0.231V177.345z"/>
<path fill="#39B54A" d="M321.033,213.005c5.46-0.8,19.84-13,19.84-13s-17.28-7.56-22.73-6.76c-5.494,0.566-9.488,5.479-8.922,10.973
	s5.479,9.488,10.973,8.922c0.285-0.029,0.568-0.071,0.849-0.125L321.033,213.005z"/>
<linearGradient id="SVGID_1_" gradientUnits="userSpaceOnUse" x1="423.8931" y1="940.9336" x2="423.893" y2="1664.9336" gradientTransform="matrix(1 0 0 -1 219.04 1702.3398)">
	<stop  offset="0" style="stop-color:#808080;stop-opacity:0.25"/>
	<stop  offset="0.54" style="stop-color:#808080;stop-opacity:0.12"/>
	<stop  offset="1" style="stop-color:#808080;stop-opacity:0.1"/>
</linearGradient>
<circle fill="url(#SVGID_1_)" cx="642.934" cy="399.406" r="362"/>
<circle fill="#8CC63F" cx="642.934" cy="399.406" r="356"/>
<circle fill="#DDE1EC" cx="642.934" cy="399.406" r="283"/>
<rect x="634.933" y="166.406" opacity="0.3" fill="#535461" enable-background="new    " width="16" height="250"/>
<g opacity="0.1">
	<rect x="659.934" y="393.406" width="226" height="20"/>
	<rect x="556.836" y="284.412" transform="matrix(-0.4639 0.8859 -0.8859 -0.4639 1152.8547 31.6988)" width="20" height="160.52"/>
	<circle cx="642.934" cy="403.406" r="30"/>
</g>
<rect x="659.934" y="389.406" fill="#535461" width="226" height="20"/>
<rect x="486.641" y="350.695" transform="matrix(-0.8859 -0.4639 0.4639 -0.8859 901.7788 943.2207)" fill="#535461" width="160.52" height="20.001"/>
<circle fill="#535461" cx="642.934" cy="399.406" r="30"/>
<g opacity="0.1">
	<path d="M381.913,433.406c0-156.3,126.7-283,283-283c88.945-0.079,172.735,41.728,226.16,112.84
		c-48.16-87.52-141.16-146.84-248.16-146.84c-156.3,0-283,126.7-283,283c-0.092,61.402,19.878,121.153,56.87,170.161
		C393.842,527.854,381.845,481.01,381.913,433.406z"/>
</g>
<linearGradient id="SVGID_2_" gradientUnits="userSpaceOnUse" x1="650.4297" y1="1091.0898" x2="650.4297" y2="1508.084" gradientTransform="matrix(1 0 0 -1 137.96 1638.4805)">
	<stop  offset="0" style="stop-color:#808080;stop-opacity:0.25"/>
	<stop  offset="0.54" style="stop-color:#808080;stop-opacity:0.12"/>
	<stop  offset="1" style="stop-color:#808080;stop-opacity:0.1"/>
</linearGradient>
<path fill="url(#SVGID_2_)" d="M904.413,191.226c-3.36-3.23-31.64,18-31.64,18s-10.07,1.84-7.67,8.75
	c2.399,6.909-10.551,45.609-10.551,45.609l-5.27-7.37c0.51-8.649-1.87-14.779-4.19-18.6c-0.189-0.311-0.38-0.61-0.569-0.89
	l0.92-0.32c-0.351-4.72-7.9-11.91-11.91-15.43c0-0.511,0-1,0-1.521c0.25-5.64,2.51-11.59,0-16.7c-2.84-5.83-11.15-8.76-11.85-15.16
	c-0.42-3.819,2.159-7.27,3.3-10.949c2.72-8.801-2.931-17.78-8.33-25.36c-1.829-2.842-4.055-5.408-6.61-7.62
	c-2.434-1.779-5.107-3.207-7.939-4.24c-7.91-3.199-16-4.81-24.16-7c-7.83-2.08-15.05-3.069-23-0.46c-1.887,0.509-3.609,1.498-5,2.87
	c-1.891,2.12-2.141,5.141-3.38,7.67c-2,4.07-6.311,6.5-10.12,9.11c-3.811,2.61-7.63,6.189-7.65,10.689c0,6.391,7.3,10.41,9.74,16.36
	c2.28,5.54,0,11.71-1.271,17.55c-0.53,1.888-0.582,3.878-0.149,5.79c0.503,1.426,1.263,2.747,2.24,3.9c1.51,2,3.13,3.859,4.739,5.76
	l-0.739,0.29c-13.42-1.38-22.051,15.66-22.051,15.66c0.62,0.13,1.21,0.28,1.79,0.45l-0.569,0.739
	c-4.056,5.267-7.369,11.064-9.851,17.23l-11,14.74c0,0-2.399-36.86,3.36-45.15s-5.271-13.36-5.271-13.36s-24-26.72-27.33-24.42
	c-3.329,2.301,8.15,31.33,18.221,35.94c0,0,1,9.21-1,15.2c-1.21,3.79-7.67,43.77-7.67,43.77s-5.75,33.63,20.62,17
	c17.13-10.779,28.199-29.34,33.84-41c0.393-0.819,0.763-1.604,1.109-2.35c0.261,1.236,0.438,2.489,0.53,3.75l1,38.53
	c0.253,9.529-1.827,18.978-6.06,27.52l-11.75,23.83l1.31,0.4l-0.79,1.14c-7.74,11.39-20.899,37,6.19,50.05l36,4.61l-1.92,9.21
	c0,0-14.86,28.1-19.181,47.45c-2.683,11.849-6.874,23.306-12.47,34.09l1.11,0.59c-0.23,0.26-0.471,0.53-0.7,0.81
	c-2.183,2.455-3.625,5.479-4.16,8.721l-4.88,6.92c0,0-1.92,28.56,1.92,35.479c2.1,3.78,9.07,6.18,15,7.58
	c8.8,2.09,15.9-7,11.23-14.49l-0.061-0.1h-0.09c-1-4.65-4.061-19.08-3.061-24.56c0.28-1.561,0.54-3.11,0.671-4.69
	c0.24-2.076,0.871-4.088,1.859-5.93c0.16-0.311,0.33-0.61,0.5-0.91l0.521,0.22c1.609,0.69,3.199,1.34,4.71,1.91
	c-2.34,2.13-4,6.54-2,15.61c0,0,0.189,22.689,1.92,26.26c1.729,3.57,21.09,8.29,24.45,4.609c3.359-3.68-2.16-16.359-2.16-16.359
	l-0.17,0.12c-1.11-7.351-2.48-20.511,0.89-25.69c1.36-2.09,2.68-4.25,3.86-6.27l0.729-1.25l0,0c6.261,3.119,12.88,5.47,16.5,3.84
	c0,0,15.82-36.86,14.86-41.46c-0.96-4.601,24.45-56.67,24.45-56.67s21.569-24-4.79-40.541c-8.37-5.271-14.471-8.811-18.9-11.2
	l-3.71-19.4c-1.907-10.17-1.566-20.635,1-30.659l4-15.261l0,0l0.33-1.3c0,0,10.07-20.729,9.59-30.41
	c-0.037-0.752,0.048-1.505,0.25-2.229c0.11,0.46,0.23,0.939,0.36,1.439c2.646,10.062,6.131,19.883,10.42,29.36
	c7.65,17.26,19,15.89,25.22,13.439c2.705-1.046,4.7-3.384,5.311-6.22c2.239-10.74,8.39-40.83,8.779-49.14
	c0.349-6.498,1.151-12.964,2.4-19.351C894.354,210.576,907.773,194.456,904.413,191.226z"/>
<path fill="#F8BDC5" d="M787.023,486.446c0,0-2.11,4.229-5,9.31c-1.13,2-2.391,4.15-3.681,6.221c-4.569,7.31,0,30.6,0,30.6l-10,1.37
	l-10-5l-1.83-16.9v-12.359l11.4-12.75l5-5.521L787.023,486.446z"/>
<g opacity="0.1">
	<path d="M787.023,486.446c0,0-2.11,4.229-5,9.31c-4.415-2.359-8.684-4.984-12.78-7.859l-0.88-0.62l-0.47-0.34l5-5.521
		L787.023,486.446z"/>
</g>
<path fill="#009245" d="M835.913,401.026c0,0-24.21,51.609-23.29,56.18s-14.16,41.11-14.16,41.11c-3.439,1.62-9.76-0.71-15.72-3.801
	c-4.494-2.395-8.836-5.066-13-8l-0.88-0.619l-0.53-0.381l39.74-110.08l-35.16-25.79l-2.6-1.91l-15.721-11.601l48,8.681
	c0,0,1.67-0.21,10.5,4.729c4.24,2.37,10.13,5.92,18.271,11.26C856.453,377.276,835.913,401.026,835.913,401.026z"/>
<path fill="#5D3E53" d="M762.363,495.576c0,0-11.88-1.83-7.76,17.36c0,0,0.18,22.5,1.83,26c1.649,3.5,20.1,8.22,23.289,4.569
	c3.19-3.649-2.06-16.21-2.06-16.21s-13.47,9.82-17.13-0.689C756.873,516.096,762.363,495.576,762.363,495.576z"/>
<path fill="#F8BDC5" d="M754.133,491.926c-1.296,1.234-2.351,2.699-3.109,4.32c-0.944,1.836-1.544,3.828-1.771,5.88
	c-0.12,1.561-0.37,3.11-0.63,4.65c-1.14,6.51,3.23,25.8,3.23,25.8l-17.36,2.74l-6.39-6.851l-1.37-15.069
	c1.705-5.167,2.629-10.561,2.739-16c0-3.931,2-7.44,4-10c1.356-1.709,2.91-3.249,4.631-4.591
	C738.104,482.806,757.793,488.727,754.133,491.926z"/>
<g opacity="0.1">
	<path d="M754.133,491.926c-1.296,1.234-2.351,2.699-3.109,4.32c-7.11-3.21-14.58-7.26-17.301-8.76l-0.21-0.11
		c1.356-1.708,2.91-3.249,4.631-4.59C738.144,482.786,757.793,488.727,754.133,491.926z"/>
</g>
<path fill="#009245" d="M810.323,387.326c0,0-11.41,21.47-18.73,39.281c-4.8,11.699-14.72,39.56-21,57.3l-0.92,2.62
	c-2.76,7.85-4.6,13.16-4.6,13.16c-1.217,0.008-2.428-0.171-3.59-0.53c-1.08-0.29-2.29-0.68-3.58-1.16l-1.45-0.55
	c-1.44-0.561-3-1.21-4.49-1.891c-7.26-3.239-15-7.46-17.81-9l-1.061-0.59c5.36-10.738,9.36-22.103,11.91-33.83
	c4.11-19.18,18.271-47,18.271-47l1.83-9.14l-34.261-4.57c-25.81-12.899-13.27-38.33-5.899-49.62c1.257-1.959,2.615-3.852,4.069-5.67
	l27.41,6c0,0,4.32,1.38,13.92,5.63l4.41,2c5.38,2.471,12,5.65,20,9.73C821.733,373.135,810.323,387.326,810.323,387.326z"/>
<path fill="#5D3E53" d="M751.684,531.206c2.734,4.606,1.216,10.558-3.391,13.292c-2.2,1.307-4.828,1.69-7.31,1.068
	c-5.61-1.391-12.261-3.771-14.261-7.521c-3.649-6.85-1.829-35.17-1.829-35.17l4.8-7.08c0,0-2.51,31.29,3.43,34
	c5.94,2.71,18.5,1.271,18.5,1.271L751.684,531.206z"/>
<path fill="#85555C" d="M756.543,133.996c-1.824,0.508-3.48,1.491-4.8,2.85c-1.8,2.101-2,5.101-3.22,7.61c-1.9,4-6,6.45-9.641,9
	c-3.64,2.55-7.27,6.14-7.29,10.6c0,6.341,7,10.32,9.28,16.21c2.17,5.5,0,11.61-1.21,17.4c-0.505,1.875-0.553,3.843-0.14,5.74
	c0.477,1.407,1.201,2.718,2.14,3.87c4.41,6,9.89,11.319,12.84,18.149c2.24,5.19,2.86,10.92,3.45,16.551
	c0.85,8.1,1.7,16.35,0.16,24.35c-0.15,0.479-0.15,0.991,0,1.47c0.262,0.459,0.676,0.813,1.17,1
	c11.922,5.793,26.283,0.823,32.075-11.099c0.145-0.298,0.282-0.598,0.415-0.901c2-4.53,2.77-10,6.729-12.939
	c0.462-0.383,1.019-0.635,1.61-0.73c0.934,0.026,1.839,0.329,2.6,0.87c5.141,2.78,11.37,2.86,17.101,1.72
	c3.46-0.689,7-1.92,9.29-4.62c4.51-5.359,2-13.369,2.3-20.359c0.239-5.59,2.39-11.49,0-16.55c-2.7-5.78-10.63-8.681-11.29-15
	c-0.4-3.78,2.06-7.21,3.149-10.851c2.591-8.729-2.79-17.63-7.93-25.14c-1.729-2.802-3.847-5.344-6.29-7.55
	c-2.305-1.756-4.852-3.171-7.56-4.2c-7.53-3.17-15.21-4.771-23-6.931C771.023,132.385,764.153,131.396,756.543,133.996z"/>
<path fill="#F8BDC5" d="M794.793,264.456h-26.5v-42.94c0.787-4.123,1.249-8.303,1.38-12.5c0-1.409,0-2.85,0-4.3
	c-0.25-5.12-1.31-10.229-4.09-13.35c-7.31-8.22,23.75-6.851,23.75-6.851c0.953,3.775,2.19,7.473,3.7,11.061
	c2.25,5.599,5.244,10.869,8.9,15.67c3.217,4.271,7.338,7.778,12.069,10.27C832.243,230.656,794.793,264.456,794.793,264.456z"/>
<g opacity="0.1">
	<path d="M793.003,195.576c-5.483,7.15-14.479,10.67-23.359,9.14c-0.25-5.12-1.311-10.229-4.091-13.35
		c-7.31-8.22,23.75-6.851,23.75-6.851C790.256,188.291,791.493,191.988,793.003,195.576z"/>
</g>
<circle fill="#F8BDC5" cx="773.773" cy="179.505" r="24.21"/>
<path fill="#F8BDC5" d="M874.263,221.066c-1.188,6.335-1.95,12.742-2.279,19.18c-0.37,8.23-6.23,38.07-8.37,48.72
	c-0.549,2.774-2.447,5.09-5.061,6.17c-5.939,2.431-16.739,3.79-24-13.319c-4.093-9.415-7.414-19.147-9.93-29.101
	c-0.89-3.346-1.558-6.746-2-10.18l16-8.68c1.506,1.408,2.781,3.045,3.78,4.85c2.21,3.79,4.479,9.87,4,18.44l5,7.31
	c0,0,12.33-38.37,10-45.22c-2.33-6.851,7.31-8.681,7.31-8.681s26.95-21,30.15-17.81S889.333,211.925,874.263,221.066z"/>
<path fill="#F8BDC5" d="M743.173,239.335c-1.248,3.573-2.684,7.078-4.3,10.5c-5.38,11.57-15.92,30-32.24,40.66
	c-25.119,16.44-19.64-16.9-19.64-16.9s6.15-39.64,7.31-43.39c1.83-5.94,0.91-15.07,0.91-15.07c-9.59-4.569-20.55-33.34-17.359-35.63
	c3.189-2.29,26,24.21,26,24.21s10.51,5,5,13.25c-5.511,8.25-3.2,44.761-3.2,44.761l10.569-14.591
	c2.352-6.088,5.51-11.832,9.391-17.08c2-2.729,3.4-4.38,3.4-4.38L743.173,239.335z"/>
<g opacity="0.1">
	<path d="M842.413,238.706c-3.36,1.24-16.37,6.49-17.81,14c-0.891-3.346-1.559-6.746-2-10.18l16-8.681
		C840.121,235.255,841.406,236.896,842.413,238.706z"/>
</g>
<g opacity="0.1">
	<path d="M743.173,239.335c-1.248,3.573-2.684,7.078-4.3,10.5c-0.62-4.52-3.17-16.08-13.26-19.81c2-2.73,3.4-4.38,3.4-4.38
		L743.173,239.335z"/>
</g>
<g opacity="0.1">
	<path d="M794.793,264.456h-26.5v-42.94c0.787-4.123,1.249-8.303,1.38-12.5c5.45,5.261,4.101,13.41,4.101,13.41l14.16,32
		l6.859-28.29l-2.28-3.649l9.4-11.181c3.217,4.271,7.339,7.779,12.07,10.271C832.243,230.656,794.793,264.456,794.793,264.456z"/>
</g>
<g opacity="0.1">
	<path d="M813.513,352.135c0,0-20.76-1.649-38.77-2.43l-1.81-0.08c-2.561-0.1-5-0.18-7.391-0.24
		c-17.479-0.42-37.25-6.529-40.609-7.6c1.26-1.953,2.622-3.839,4.079-5.65l27.41,6c0,0,4.32,1.38,13.92,5.63l-15.75-11.63l48,8.681
		c0,0,1.67-0.21,10.5,4.729L813.513,352.135z"/>
</g>
<path fill="#C1272D" d="M794.793,227.916l-2.28-3.65l10.141-12.13c0,0,20.91,10.25,26.39,8c0,0,13.25,11,13.7,17.36
	c0,0-19.18,6.39-18.729,16c0.449,9.61-9.101,30.14-9.101,30.14l-4,16.42c-2.462,9.951-2.802,20.31-1,30.4l3.65,20.33
	c0,0-28.78-2.28-48-2.74c-19.221-0.46-41.11-7.76-41.11-7.76l11.21-23.59c4.042-8.514,6.022-17.859,5.78-27.28l-1-38.189
	c0,0-0.91-19.181-16-22.381c0,0,8.22-16.899,21-15.529c0,0,18.62-7.771,24.15-2.521c5.529,5.25,4.17,13.48,4.17,13.48l14.159,32
	L794.793,227.916z"/>
<g opacity="0.1">
	<path d="M756.303,174.515c3.67,0,6.551-3.89,10.221-3.689c1.899,0.1,3.529,1.31,5.1,2.4c5.933,4.107,12.534,7.153,19.51,9
		c2.71,0.72,5.58,1.26,8.301,0.6c2.72-0.66,5.27-2.8,5.579-5.59c0.076-1.229-0.087-2.463-0.479-3.63
		c-3.079-10.728-10.046-19.923-19.54-25.79c-3.8-2.33-8.44-4.11-12.65-2.65c-3.8,1.311-6.25,4.87-9,7.8
		c-2.072,2.194-4.426,4.104-7,5.681c-2,1.21-5,2-6.149,4.22C748.023,167.005,751.434,174.476,756.303,174.515z"/>
</g>
<path fill="#85555C" d="M756.303,173.606c3.67,0,6.551-3.891,10.221-3.69c1.899,0.1,3.529,1.311,5.1,2.4
	c5.933,4.107,12.534,7.153,19.51,9c2.71,0.72,5.58,1.26,8.301,0.6c2.72-0.66,5.27-2.8,5.579-5.59
	c0.076-1.229-0.087-2.463-0.479-3.63c-3.079-10.728-10.046-19.923-19.54-25.79c-3.8-2.33-8.44-4.11-12.65-2.65
	c-3.8,1.311-6.25,4.87-9,7.8c-2.072,2.194-4.426,4.104-7,5.681c-2,1.21-5,2-6.149,4.22
	C748.023,166.135,751.434,173.555,756.303,173.606z"/>
<path opacity="0.05" enable-background="new    " d="M745.233,277.925c0,0,22.38,8.221,37,1.83l7.31,0.46c0,0,12.15,8.521,25,4.71"
	/>
<path opacity="0.05" enable-background="new    " d="M851.203,264.226c0,0-3.65,8.68-1.83,11.42"/>
<path opacity="0.05" enable-background="new    " d="M705.493,261.486c0,0,1.83,8.68,0,11.42"/>
<path fill="#39B54A" d="M1084.313,459.276c0,0-41.841,41.84-18.22,103.92c23.619,62.08-40.48,165.319-40.48,165.319
	s0.689-0.1,2-0.319c85.93-15.17,128.62-113.44,80.84-186.45C1090.644,514.596,1076.063,482.756,1084.313,459.276z"/>
<path fill="none" stroke="#535461" stroke-miterlimit="10" d="M1084.313,459.276c0,0-23.62,51.28,0,93.12s4,159.25-58.71,176.119"/>
<path fill="#8CC63F" d="M1158.833,628.496c0,0-47.739-7.6-52.09,35.18c-4.35,42.78-91.83,48.71-91.83,48.71l1.64,1.091
	c72.2,47.399,141.23,30.189,130.82-32.75C1143.533,657.336,1143.854,633.836,1158.833,628.496z"/>
<path fill="none" stroke="#535461" stroke-miterlimit="10" d="M1158.833,628.496c0,0-37.06,8.13-34,41.83
	c3.061,33.7-55,74.09-109.88,42.07"/>
<path fill="#A8A8A8" d="M1116.833,713.946c0,0-37.6-7.521-47.63-17.55c-10.03-10.03-55.15-27.57-60.16-15
	c-5.01,12.569-67.68,55.149-25.069,62.67c42.609,7.52,100.27,10,112.8,5S1116.833,713.946,1116.833,713.946z"/>
<path opacity="0.2" enable-background="new    " d="M983.973,739.376c42.62,7.521,100.271,10,112.801,5
	c9.55-3.82,16.18-22.16,18.8-30.7l1.25,0.261c0,0-7.521,30.079-20.05,35.09c-12.53,5.01-70.19,2.51-112.801-5
	c-12.3-2.17-15.819-7.271-14.489-13.72C970.523,734.516,974.813,737.756,983.973,739.376z"/>
</svg>
