<?xml version="1.0" encoding="utf-8"?>
<!-- Generator: Adobe Illustrator 16.0.3, SVG Export Plug-In . SVG Version: 6.00 Build 0)  -->
<!DOCTYPE svg PUBLIC "-//W3C//DTD SVG 1.1//EN" "http://www.w3.org/Graphics/SVG/1.1/DTD/svg11.dtd">
<svg version="1.1" id="Capa_1" xmlns="http://www.w3.org/2000/svg" xmlns:xlink="http://www.w3.org/1999/xlink" x="0px" y="0px"
	 width="1178px" height="928px" viewBox="0 0 1178 928" enable-background="new 0 0 1178 928" xml:space="preserve">
<title>time management</title>
<title>forgot password</title>
<title>reading list</title>
<title>gardening</title>
<title>accept_terms</title>
<path opacity="0.1" fill="#009245" enable-background="new    " d="M174.895,504.486c2.74,30.35,19.91,57.83,30.41,86.74
	c14.854,41.053,16.255,85.768,4,127.67c-2.5,8.609-5.58,17.25-5.59,26.07c0,30.41,34.65,50.59,66.13,64
	c80.009,33.967,163.458,59.18,248.89,75.199c27.94,5.271,62.83,7.561,80.51-12.289c8.48-9.529,10.54-22,16.771-32.66
	c15.89-27.26,54.55-37.85,89.25-43.92c41.84-7.313,84.072-12.174,126.479-14.561c42.689-2.4,91.17-4.479,119.459-32.52
	c18-17.82,23.221-42.41,23.932-65.631c2.35-76.189-34.061-158.639,12.67-224.629c19.6-27.68,51.58-47.89,71-75.64
	c28.148-40.22,25.719-91.3,6.66-134.16c-19.061-42.86-52.83-79.3-86.102-115c-11-11.81-22.74-24.09-39.279-29.57
	c-17.199-5.699-36.699-3.08-55.141-0.39c-83.879,12.25-170.999,25.59-241.309,67.65c-34.94,20.89-64.12,48-95.29,72.89
	c-67.33,53.83-145.34,103.56-234.25,124.81C241.864,385.827,168.395,432.407,174.895,504.486z"/>
<path fill="#FFBEC7" d="M449.404,288.447c0,0-58-10.24,0,68.28V288.447z"/>
<linearGradient id="SVGID_1_" gradientUnits="userSpaceOnUse" x1="683.1328" y1="1071.7627" x2="683.1328" y2="1619.2158" gradientTransform="matrix(1 0 0 -1 -18.2598 1917.1699)">
	<stop  offset="0" style="stop-color:#808080;stop-opacity:0.25"/>
	<stop  offset="0.54" style="stop-color:#808080;stop-opacity:0.12"/>
	<stop  offset="1" style="stop-color:#808080;stop-opacity:0.1"/>
</linearGradient>
<path fill="url(#SVGID_1_)" d="M847.604,686.027c0,0-8.4-9.541-31.589-3.791c-11.351-10.82-25.49-26.5-26-37.869
	c-4.721,1.549-9.33,3.299-13.86,5.219c-19.64-21.939-44.81-56.76-43.74-90.279c1.771-54.699-35.789-149.28-35.789-149.28
	s3.1-38.57-2.711-70.45c-3.939-21.6-12-40.12-27.83-41.53c-2.445-0.254-4.917,0.016-7.25,0.79c-29.25,10-11.08,103.37-11.08,103.37
	l-25.31,78.12l-148.37,79c0,0,89.89,118.051,133.53,122.391c0,0,32.15,33.721,55.31,63.32c-8.18,11-12.55,18.279-12.55,18.279
	l22.42,31.92c-9.21,12.371-22.17,36.57,6.38,47.93c39.271,15.621,125.67-55.549,125.67-55.549S879.895,738.117,847.604,686.027z"/>
<path fill="#FFE2AC" d="M447.454,288.027c0,0-59.35-10.42,0,69.439V288.027z"/>
<linearGradient id="SVGID_2_" gradientUnits="userSpaceOnUse" x1="452.2266" y1="1506.8936" x2="452.2266" y2="1554.9131" gradientTransform="matrix(1 0 0 -1 -18.2598 1917.1699)">
	<stop  offset="0" style="stop-color:#808080;stop-opacity:0.25"/>
	<stop  offset="0.54" style="stop-color:#808080;stop-opacity:0.12"/>
	<stop  offset="1" style="stop-color:#808080;stop-opacity:0.1"/>
</linearGradient>
<path fill="url(#SVGID_2_)" d="M433.924,362.256c0,0-21.7,0-21.22,26.82c0.093,9.22,6.031,17.362,14.78,20.271
	c4.616,1.521,9.646,1.162,14-1c12.124-5.884,17.183-20.481,11.299-32.604c-1.048-2.16-2.409-4.153-4.04-5.916
	C444.82,365.676,439.587,363.003,433.924,362.256z"/>
<linearGradient id="SVGID_3_" gradientUnits="userSpaceOnUse" x1="455.8237" y1="1455.707" x2="455.8237" y2="1501.9629" gradientTransform="matrix(1 0 0 -1 -18.2598 1917.1699)">
	<stop  offset="0" style="stop-color:#808080;stop-opacity:0.25"/>
	<stop  offset="0.54" style="stop-color:#808080;stop-opacity:0.12"/>
	<stop  offset="1" style="stop-color:#808080;stop-opacity:0.1"/>
</linearGradient>
<path fill="url(#SVGID_3_)" d="M444.424,416.697c-1.91-0.948-4.008-1.457-6.14-1.49c0,0-20.95,5.21-17.45,30.38
	c0,0,1.75,18.23,20.07,15.621c12.56-1.791,14.05-18.26,13.75-28.44C454.514,425.919,450.569,419.722,444.424,416.697z"/>
<linearGradient id="SVGID_4_" gradientUnits="userSpaceOnUse" x1="455.3159" y1="1375.2227" x2="455.3159" y2="1435.123" gradientTransform="matrix(1 0 0 -1 -18.2598 1917.1699)">
	<stop  offset="0" style="stop-color:#808080;stop-opacity:0.25"/>
	<stop  offset="0.54" style="stop-color:#808080;stop-opacity:0.12"/>
	<stop  offset="1" style="stop-color:#808080;stop-opacity:0.1"/>
</linearGradient>
<path fill="url(#SVGID_4_)" d="M445.304,483.537c-1.61-0.908-3.413-1.418-5.26-1.49c-2.267,1.434-4.426,3.031-6.46,4.779
	c-3.41,2.855-6.435,6.139-9,9.771c-7.9,11.439-10.47,28.25,19,45.35v-22.58c3.659-3.402,6.739-7.377,9.12-11.77
	C457.275,498.906,453.969,488.156,445.304,483.537z"/>
<path fill="#DFE5EE" d="M647.834,755.717c0,0,53.77-89.609,136.55-116.92l-4.271,48.65l-68.6,68.279L647.834,755.717z"/>
<path opacity="0.05" enable-background="new    " d="M647.834,755.717c0,0,53.77-89.609,136.55-116.92l-4.271,48.65l-68.6,68.279
	L647.834,755.717z"/>
<path fill="#333333" d="M675.994,779.617c0,0-38.41,39.26,0,54.619c38.41,15.361,122.9-54.619,122.9-54.619
	s73.398-48.65,41.82-99.859C840.715,679.756,804.874,638.787,675.994,779.617z"/>
<path fill="#FFE2AC" d="M792.925,666.098c0,0-111.811,129.729-110.101,110.93c0.5-5.461-5.8-16.34-15-29
	c-22.35-30.91-61.82-72.531-61.82-72.531c-42.67-4.27-130.58-120.34-130.58-120.34l145.09-77.67l24.75-76.809
	c0,0-17.76-91.82,10.84-101.65c2.28-0.764,4.698-1.029,7.09-0.78c1.049,0.091,2.09,0.269,3.11,0.53c13.39,3.37,20.45,20.34,24,40
	c0,0.11,0.05,0.229,0.07,0.34c5.68,31.35,2.649,69.271,2.649,69.271s36.7,93,35,146.8c-1.14,36,28.31,73.52,47.91,94.389
	C785.654,659.857,792.925,666.098,792.925,666.098z"/>
<path opacity="0.05" enable-background="new    " d="M638.444,596.967c0,0,1.71-81.08-12.8-101.561
	c-14.51-20.479-131.46,64.871-131.46,64.871S615.404,574.777,638.444,596.967z"/>
<path opacity="0.05" enable-background="new    " d="M675.994,626.027c0,0,52.7-31.16,52-81.301"/>
<path opacity="0.05" enable-background="new    " d="M647.834,655.857c0,0-14.51,20.479-41.82,19.629"/>
<path opacity="0.05" enable-background="new    " d="M792.925,666.098c0,0-111.811,129.729-110.101,110.93
	c0.5-5.461-5.8-16.34-15-29c61.931-21.24,95.55-74.23,108.13-98.471C785.654,659.857,792.925,666.098,792.925,666.098z"/>
<path fill="#DFE5EE" d="M823.284,689.746c-0.001,0.25-0.028,0.498-0.08,0.74c-1.72,8.641-3,17.35-4.41,26.061
	c-0.438,2.768-1.107,5.494-2,8.15c-2.454,7.074-6.119,13.668-10.83,19.49c-34,43.08-120.579,65.289-120.579,65.289l-0.32-0.471
	l-37.23-53.299c98.15-18.77,136.55-116.92,136.55-116.92c0.739,16.391,30.09,41.869,37.55,48.09c0.846,0.713,1.336,1.764,1.34,2.869
	H823.284z"/>
<path opacity="0.5" fill="#EFF4F8" enable-background="new    " d="M690.344,338.747c-24.779-3.17-26.79-24.37-24.85-39.71
	c0.26-0.09,0.54-0.18,0.81-0.25C679.694,302.157,686.754,319.126,690.344,338.747z"/>
<path opacity="0.05" enable-background="new    " d="M823.284,689.746c-0.001,0.25-0.028,0.498-0.08,0.74
	c-1.72,8.641-3,17.35-4.41,26.061c-0.438,2.768-1.107,5.494-2,8.15l-2.109,5.84l-5.12,8.49l-3.6,5.119
	c-34,43.08-120.58,65.291-120.58,65.291l-0.32-0.471c2.71-1.119,61.06-25.23,84.39-46.9c22.141-20.549,49.4-67.469,53.301-74.279
	C823.106,688.379,823.29,689.057,823.284,689.746z"/>
<path d="M811.185,734.877"/>
<linearGradient id="SVGID_5_" gradientUnits="userSpaceOnUse" x1="566.0742" y1="1347.9922" x2="566.0742" y2="1763.5723" gradientTransform="matrix(1 0 0 -1 -18.2598 1917.1699)">
	<stop  offset="0" style="stop-color:#808080;stop-opacity:0.25"/>
	<stop  offset="0.54" style="stop-color:#808080;stop-opacity:0.12"/>
	<stop  offset="1" style="stop-color:#808080;stop-opacity:0.1"/>
</linearGradient>
<path fill="url(#SVGID_5_)" d="M634.854,153.597h-174.08c-9.51-0.017-17.233,7.68-17.25,17.189l0,0v381.2
	c0.017,9.512,7.74,17.207,17.25,17.191l0,0h174.08c9.51,0.016,17.233-7.68,17.25-17.191l0,0V170.777
	C652.082,161.27,644.361,153.581,634.854,153.597z"/>
<path fill="#535461" d="M456.114,156.777h183.39c6.075,0,11,4.925,11,11v388.79c0,6.076-4.925,11-11,11h-183.39
	c-6.075,0-11-4.924-11-11v-388.79C445.114,161.702,450.039,156.777,456.114,156.777z"/>
<rect x="460.244" y="194.997" fill="#F1F1F4" width="175.14" height="334.361"/>
<circle fill="#FFFFFF" cx="527.114" cy="175.887" r="1.59"/>
<path fill="#FFFFFF" d="M536.074,174.296h33.03c0.552,0,1,0.448,1,1v1.181c0,0.552-0.448,1-1,1h-33.03c-0.552,0-1-0.448-1-1v-1.181
	C535.074,174.745,535.522,174.296,536.074,174.296z"/>
<circle fill="#FFFFFF" cx="547.014" cy="545.277" r="11.15"/>
<path fill="#FFE2AC" d="M436.185,361.417c0,0-21.23,0-20.75,26.37c0.077,9.044,5.878,17.045,14.45,19.93
	c4.51,1.483,9.424,1.123,13.67-1c11.886-5.866,16.766-20.257,10.899-32.143C450.926,367.426,444.081,362.497,436.185,361.417z"/>
<path opacity="0.5" fill="#EFF4F8" enable-background="new    " d="M436.185,375.027c0,0-19.63,13.66-2.56,25.6
	C433.614,400.677,431.904,376.777,436.185,375.027z"/>
<path fill="#FFE2AC" d="M440.444,413.477c0,0-20.48,5.12-17.07,29.87c0,0,1.71,17.92,19.63,15.36c12.29-1.76,13.74-18,13.45-28
	c-0.122-6.721-3.978-12.813-10-15.8C444.583,413.986,442.529,413.498,440.444,413.477z"/>
<path opacity="0.5" fill="#EFF4F8" enable-background="new    " d="M439.584,424.567c0,0-19.63,7.68,0,29
	C439.584,453.586,430.185,433.107,439.584,424.567z"/>
<path fill="#FFE2AC" d="M445.564,515.896v22.189c-28.8-16.799-26.29-33.34-18.56-44.58c2.516-3.566,5.484-6.795,8.83-9.6
	c1.989-1.719,4.102-3.289,6.32-4.699c1.81,0.072,3.575,0.576,5.15,1.471c8.463,4.594,11.663,15.137,7.18,23.658
	C452.157,508.648,449.144,512.553,445.564,515.896z"/>
<path opacity="0.5" fill="#EFF4F8" enable-background="new    " d="M431.054,504.797c0,0-2.22-5.34-4.05-11.301
	c2.516-3.568,5.484-6.795,8.83-9.6C441.464,493.156,431.054,504.797,431.054,504.797z"/>
<path opacity="0.05" enable-background="new    " d="M690.084,408.787c0,0-22.189,24.75-29,27.311"/>
<linearGradient id="SVGID_6_" gradientUnits="userSpaceOnUse" x1="563.4502" y1="1575.2461" x2="563.4502" y2="1621.9189" gradientTransform="matrix(1 0 0 -1 -18.2598 1917.1699)">
	<stop  offset="0" style="stop-color:#808080;stop-opacity:0.25"/>
	<stop  offset="0.54" style="stop-color:#808080;stop-opacity:0.12"/>
	<stop  offset="1" style="stop-color:#808080;stop-opacity:0.1"/>
</linearGradient>
<path fill="url(#SVGID_6_)" d="M604.694,310.417h-84v0.91c-4.01-12.245-17.187-18.921-29.432-14.911
	c-12.245,4.009-18.921,17.187-14.912,29.432c4.01,12.245,17.187,18.921,29.432,14.911c7.062-2.313,12.599-7.85,14.912-14.911v0.909
	h84l10.5-8.119L604.694,310.417z M498.524,337.417c-10.394,0-18.82-8.426-18.82-18.819c0-10.395,8.426-18.82,18.82-18.82
	s18.82,8.426,18.82,18.82c-0.005,10.388-8.431,18.805-18.82,18.8l0,0V337.417z"/>
<path fill="#00DD90" d="M499.284,295.626c-12.702,0-23,10.298-23,23c0,12.703,10.298,23,23,23c12.703,0,23-10.297,23-23l0,0
	C522.284,305.924,511.987,295.626,499.284,295.626z M499.284,300.067c10.223,0,18.51,8.287,18.51,18.51s-8.287,18.51-18.51,18.51
	c-10.223,0-18.51-8.287-18.51-18.51c-0.028-10.217,8.232-18.522,18.45-18.55c0.02,0,0.04,0,0.06,0"/>
<polygon fill="#00DD90" points="603.714,326.617 521.084,326.617 521.084,310.546 603.714,310.546 614.034,318.626 "/>
<linearGradient id="SVGID_7_" gradientUnits="userSpaceOnUse" x1="563.4502" y1="1514.4258" x2="563.4502" y2="1561.0996" gradientTransform="matrix(1 0 0 -1 -18.2598 1917.1699)">
	<stop  offset="0" style="stop-color:#808080;stop-opacity:0.25"/>
	<stop  offset="0.54" style="stop-color:#808080;stop-opacity:0.12"/>
	<stop  offset="1" style="stop-color:#808080;stop-opacity:0.1"/>
</linearGradient>
<path fill="url(#SVGID_7_)" d="M604.694,371.237h-84v0.91c-4.01-12.245-17.187-18.922-29.432-14.912s-18.921,17.187-14.912,29.432
	c4.01,12.245,17.187,18.922,29.432,14.912c7.062-2.313,12.599-7.851,14.912-14.912v0.91h84l10.5-8.12L604.694,371.237z
	 M498.524,398.237c-10.394,0-18.82-8.426-18.82-18.82c0-10.394,8.426-18.819,18.82-18.819s18.82,8.426,18.82,18.819
	c-0.005,10.389-8.431,18.806-18.82,18.8l0,0V398.237z"/>
<path fill="#FF5288" d="M499.284,356.447c-12.702,0-23,10.298-23,23s10.298,23,23,23c12.703,0,23-10.298,23-23l0,0
	C522.284,366.745,511.987,356.447,499.284,356.447z M499.284,360.887c10.223,0,18.51,8.287,18.51,18.51s-8.287,18.51-18.51,18.51
	c-10.223,0-18.51-8.287-18.51-18.51c-0.005-10.218,8.272-18.505,18.49-18.51C499.271,360.887,499.278,360.887,499.284,360.887"/>
<polygon fill="#FF5288" points="603.714,387.437 521.084,387.437 521.084,371.367 603.714,371.367 614.034,379.447 "/>
<linearGradient id="SVGID_8_" gradientUnits="userSpaceOnUse" x1="522.4595" y1="1586.7676" x2="522.4595" y2="1618.6176" gradientTransform="matrix(1 0 0 -1 -18.2598 1917.1699)">
	<stop  offset="0" style="stop-color:#808080;stop-opacity:0.25"/>
	<stop  offset="0.54" style="stop-color:#808080;stop-opacity:0.12"/>
	<stop  offset="1" style="stop-color:#808080;stop-opacity:0.1"/>
</linearGradient>
<path fill="url(#SVGID_8_)" d="M524.685,302.367l-3.3-3.34c-0.682-0.685-1.79-0.688-2.475-0.005
	c-0.002,0.001-0.003,0.003-0.005,0.005l-20.66,20.5l-8.74-8.811c-0.682-0.685-1.79-0.687-2.475-0.005
	c-0.001,0.002-0.003,0.004-0.005,0.005l-3.31,3.311c-0.685,0.682-0.687,1.79-0.005,2.475c0.002,0.002,0.004,0.004,0.005,0.005
	l13.27,13.381c0.682,0.685,1.79,0.687,2.475,0.005c0.002-0.002,0.004-0.004,0.005-0.005l25.22-25
	c0.685-0.683,0.687-1.79,0.005-2.476c-0.001-0.001-0.003-0.003-0.005-0.005V302.367z"/>
<path fill="#00DD90" d="M523.704,301.947l-3.14-3.16c-0.652-0.65-1.708-0.65-2.36,0l-19.68,19.521l-8.34-8.41
	c-0.652-0.651-1.708-0.651-2.36,0l-3.14,3.13c-0.651,0.652-0.651,1.708,0,2.36l12.64,12.739c0.652,0.651,1.708,0.651,2.36,0
	l24-23.83c0.651-0.651,0.651-1.708,0-2.359L523.704,301.947z"/>
</svg>
