<?xml version="1.0" encoding="utf-8"?>
<!-- Generator: Adobe Illustrator 16.0.3, SVG Export Plug-In . SVG Version: 6.00 Build 0)  -->
<!DOCTYPE svg PUBLIC "-//W3C//DTD SVG 1.1//EN" "http://www.w3.org/Graphics/SVG/1.1/DTD/svg11.dtd">
<svg version="1.1" id="Capa_1" xmlns="http://www.w3.org/2000/svg" xmlns:xlink="http://www.w3.org/1999/xlink" x="0px" y="0px"
	 width="1178px" height="928px" viewBox="0 0 1178 928" enable-background="new 0 0 1178 928" xml:space="preserve">
<title>time management</title>
<title>forgot password</title>
<title>reading list</title>
<title>gardening</title>
<title>credit card payment</title>
<path opacity="0.1" fill="#CCCCCC" enable-background="new    " d="M141.136,432.609c-15,4.9-29,16.761-32.78,33.21
	c-4.29,18.9,5.59,38,7,57.381c4.61,63.609-79.13,108.489-67.19,171c4.75,24.81,23.93,43.1,42.84,58.149
	c30.27,24.11,63.85,45.4,101,51.42c56.44,9.13,115.42-17.729,170.29-0.75c44.25,13.69,78.11,53.83,122.06,68.641
	c33.46,11.279,69.49,6.83,104.28,2.27c18.71-2.45,38.37-5.29,53.5-17.439c28.17-22.62,29.87-67.28,48.71-99.29
	c29.07-49.41,92.811-59.061,146.26-49.46c53.45,9.6,105.32,33.27,159.471,31.27c11.569-0.41,23.439-2.12,33.52-8.25
	c12.271-7.46,20.57-20.59,27.9-33.59c45.68-81,71.13-175.221,72.939-270.07c0.311-16.39-0.22-33.49-7.35-48
	c-9-18.31-27-29.24-45-36.62c-43.08-17.62-90.67-20.47-132.9-40.47c-40.729-19.27-73.729-53.08-109.189-82
	c-70.33-57.45-153-97.21-239.521-115.26c-20.37-4.25-41.51-7.29-61.75-2.38c-23.32,5.659-43.42,21.37-61.49,38.27
	c-48.09,45-86.62,100.48-130.92,149.78c-30.351,33.753-63.646,64.739-99.49,92.59c-16.43,12.77-33.83,27.93-52.1,37.37
	C174.516,429.01,158.806,426.84,141.136,432.609z"/>
<linearGradient id="SVGID_1_" gradientUnits="userSpaceOnUse" x1="555.4438" y1="1059.8301" x2="555.4438" y2="1889.8594" gradientTransform="matrix(1 0 0 -1 71.04 1938.5898)">
	<stop  offset="0" style="stop-color:#808080;stop-opacity:0.25"/>
	<stop  offset="0.54" style="stop-color:#808080;stop-opacity:0.12"/>
	<stop  offset="1" style="stop-color:#808080;stop-opacity:0.1"/>
</linearGradient>
<path fill="url(#SVGID_1_)" d="M1061.556,465.01c-22-4.6-63.649-13.23-110.79-22.79c-69.79-14.15-88,39.41-88,39.41
	c0,27.28-91,140.439-91,140.439l-27.14-60.8c4.171,0.644,8.433,0.357,12.479-0.84c15.54-4.64,23.221-22.17,25.71-38.18
	c3.717-24.113,0.321-48.787-9.77-71c-4.63-10.141-10.63-19.681-14.35-30.181c-15.69-44.06,11.489-95.06-4.95-138.949
	c-6.79-18.11-20.33-32.801-29.69-49.721c-21-38.05-20.1-85.649-43-122.609c-21.479-34.65-63.81-55.19-104.36-50.61
	c-23.91,2.7-41,11.24-63.28,1c-18.81-8.62-41.39-18.26-60.76-4.68c-16.52,11.58-19.33,34.39-28.35,52.42
	c-15.84,31.67-53.42,52.34-57.84,87.47c-1.09,8.66,0,17.64-2.53,26c-7.22,23.63-38.66,30.61-51.54,51.7
	c-12.61,20.64,0.13,51.85,23.59,57.8c10,2.54,20.76,1,30.75,3.69c9.37,2.5,18.46,11.26,16.84,20.41l-20.78,3.779l-59.79,6.641
	l-9.25,0.58c0,0,0,0.159,0,0.449l-0.5,0.061l0.49,0.399c0,0.71,0,1.82,0,3.28c-16.83,6.59-44.1,24.18-54.4,70.32
	c-2.359,10.53-7.127,20.371-13.93,28.75c-15.33,18.899-40.77,55.81-39.35,91.24c2,50.52,2,70.729,68.78,56.579
	c16.87-3.569,35.22-10.89,53.23-19.829c1.05,21.06,3.78,41.71,9.48,57.21c18.21,49.51-20.23,224.31-20.23,224.31h371.23
	c0,0-31.359-103.06-61.7-155.6c-21.49-37.221-13.55-59.73-7.09-69.7c5.603-8.474,9.787-17.802,12.391-27.62
	c1.1-4.311,2.17-9.2,3.09-14.62c6.83,5.59,14.12,10.61,22.37,13.61c7.64,2.77,16.33,3.529,24.06,1.39
	c15.82,19.34,33.49,40.55,52.4,62.59c72.83,84.87,93.06,32.33,93.06,32.33s73.84-140.439,84-182.88
	c10.16-42.439,32.37-40.42,32.37-40.42c60.88,15.39,114.84-6.95,139.91-20.39c3.254-1.728,4.491-5.766,2.765-9.019
	C1065.235,466.65,1063.535,465.393,1061.556,465.01z M310.436,490.399c5.079-5.789,9.444-12.168,13-19h0.19
	c-1.844,7.063-4.221,13.977-7.11,20.681c-5.67,1.09-9.09,1.66-9.09,1.66L310.436,490.399z"/>
<path fill="#FFF27D" d="M450.006,64.49c-16.33,11.46-19.11,34-28,51.88c-15.66,31.34-52.81,51.81-57.18,86.569
	c-1.08,8.57,0,17.46-2.5,25.721c-7.13,23.39-38.22,30.3-51,51.17c-12.47,20.42,0.13,51.31,23.32,57.199
	c9.91,2.521,20.52,1,30.4,3.65s19.45,12.33,16.18,22c-2.43,7.2-11,11.3-12.56,18.74c-1.36,6.399,3,12.5,7.22,17.479
	c5.36,6.301,11.08,12.5,18.25,16.63c19.72,11.36,44.32,4.54,67.06,3.79c27.511-0.816,54.481,7.758,76.47,24.311
	c6.29,4.77,12.21,10.28,16.11,17.149c12.71,22.381,0.69,50.471,3.39,76.061c3.06,29.08,24.78,52.42,46.71,71.75
	c8.76,7.72,18,15.33,29,19.32c11,3.989,24.15,3.77,33.4-3.351c9.72-7.479,13.1-20.729,13.159-33
	c0.061-12.27-2.52-24.479-1.899-36.729c0.3-6,2.49-13.13,8.34-14.311c2.93-0.59,5.9,0.601,8.57,1.94
	c18.659,9.38,36.56,27.75,56.56,21.79c15.37-4.59,23-21.94,25.42-37.79c3.668-23.854,0.312-48.262-9.66-70.24
	c-4.58-10-10.51-19.47-14.189-29.87c-15.46-43.689,11.39-94.18-4.851-137.59c-6.71-17.92-20.1-32.46-29.35-49.21
	c-20.8-37.66-19.87-84.77-42.521-121.35c-21.229-34.301-63.09-54.62-103.169-50.091c-23.64,2.671-40.53,11.131-62.56,1
	C491.526,60.6,469.206,51.01,450.006,64.49z"/>
<path fill="#FFE8D9" d="M608.506,381.26c0,0,65-20,91,96l66,148c0,0,90-112,90-139c0,0,18-53,87-39
	c46.61,9.46,87.74,18,109.53,22.55c3.568,0.742,5.859,4.237,5.117,7.806c-0.396,1.906-1.614,3.54-3.327,4.465
	c-24.78,13.3-78.13,35.41-138.32,20.18c0,0-22-2-32,40s-83,181-83,181s-20,52-92-32s-126-156-126-156L608.506,381.26z"/>
<path fill="#FFE8D9" d="M608.506,395.26l-8.62,28.39l-8.52,28.08l-16.86,55.53l-80,15l-26.07-16.63l-31.93-20.37l-27.53-19
	l-40.47-28l-33-69c0,0,9.1-1.61,37.47-6.77l39.53-7.23c27.3-5,37.62-25.32,40.77-46c3.77-24.76-2.77-50-2.77-50h101
	c0,0,11.3,17,9.53,46.36c-0.556,8.688-2.075,17.287-4.53,25.64c-8.88,30.74,11.17,41,24.77,44.33c3.678,0.934,7.44,1.492,11.23,1.67
	L608.506,395.26z"/>
<path opacity="0.1" fill="#FF7BAC" enable-background="new    " d="M561.006,305.62c-31.688,23.443-74.555,24.899-107.76,3.659
	c3.77-24.76-2.771-50-2.771-50h101C551.476,259.279,562.806,276.21,561.006,305.62z"/>
<circle fill="#FFE8D9" cx="504.506" cy="226.26" r="95"/>
<path opacity="0.1" fill="#FF7BAC" enable-background="new    " d="M608.506,395.26l-8.62,28.39l-8.52,28.08l-16.86,55.53l-80,15
	l-26.07-16.63l-31.93-20.37l-27.53-19l-40.47-28l-33-69c0,0,9.1-1.61,37.47-6.77c20,55.649,45.3,76.369,68.13,83.09
	c13.65,4,26.41,3,36.58,1.5c13.072-2.092,26.438-1.41,39.23,2c30.7,8.54,46.86-7.811,55.35-28.561c6.28-15.35,8.36-33.12,9-45
	c3.678,0.934,7.44,1.493,11.23,1.67L608.506,395.26z"/>
<path fill="#ED1C24" d="M296.506,879.26c0,0,38-173,20-222c-5.15-14-7.85-32.32-9.06-51.28c-3-47.27,3.06-98.72,3.06-98.72
	c0.86-1.67,1.67-3.33,2.45-5c2-4.267,3.76-8.44,5.28-12.52c21.43-57.66-5.23-96.051-18.75-110.73c-2.168-2.409-4.508-4.658-7-6.73
	l76.5-8.5c20.11,57.711,45.9,79,69.1,85.82c13.65,4,26.41,3,36.58,1.5c13.072-2.092,26.438-1.41,39.23,2
	c30.7,8.54,46.86-7.81,55.35-28.56c10.54-25.761,9.24-58.29,9.24-58.29l44,13c0,0-3.88,24.1-7.39,55.77
	c-0.83,7.431-1.64,15.271-2.37,23.32c-3,33.58-4.779,70.71-1.24,95.91c3.598,24.902,2.316,50.267-3.77,74.68
	c-2.569,9.717-6.703,18.951-12.24,27.34c-6.39,9.86-14.24,32.15,7,69c30,52,61,154,61,154L296.506,879.26z"/>
<path fill="#ED1C24" d="M622.006,379.76c0,0,36.33,57-11.34,106c-47.67,49-28.66-20-28.66-20l12-80L622.006,379.76z"/>
<path opacity="0.1" enable-background="new    " d="M299.486,379.01c2.711-0.857,5.492-1.48,8.31-1.86
	c13,6.2,20.2,23.41,24.11,41.38c5.273,24.625,0.341,50.335-13.67,71.261C339.666,432.08,313.006,393.689,299.486,379.01z"/>
<path opacity="0.1" enable-background="new    " d="M612.746,458.35c-21.35,1.41-49.24-1.09-49.24-1.09c3.76,17.2-4,30.64-12,39.4
	c-6.216,6.885-15.507,10.136-24.66,8.63c-46.14-8-116.3,34-116.3,34s-50.18,40.529-103.1,66.72c-3-47.27,3.06-98.72,3.06-98.72
	c0.86-1.67,1.67-3.33,2.45-5c21.38-4,99.06-19.8,114.55-43c2.3-3.45,6-6.681,10.6-9.681c13.23-8.56,34.4-15.27,54.53-20.17
	c25.054-6.146,51-7.791,76.63-4.859c11.003,1.26,21.89,3.384,32.561,6.35c4.659,1.29,9.159,2.68,13.29,4.13
	c11.319,4,19.899,8.47,21.39,13.23C638.516,454.689,627.105,457.41,612.746,458.35z"/>
<path opacity="0.1" fill="#FF7BAC" enable-background="new    " d="M591.366,451.729c-15.39-0.26-28.86-1.47-28.86-1.47
	c3.76,17.2-4,30.64-12,39.4c-6.216,6.885-15.507,10.136-24.66,8.63c-17.39-3-38.2,1.09-57.37,7.34l-31.97-20.37l-27.53-19
	c8-4.29,14.19-9,17.53-14c8.88-13.32,38-23.23,65.13-29.85c35.604-8.779,72.856-8.353,108.25,1.239l0.94,0.25
	c17.39,4.851,32.649,10.86,34.68,17.36C638.426,450.609,613.006,452.109,591.366,451.729z"/>
<path fill="#FFE8D9" d="M306.796,372.13c0,0-52.31,5.32-67.56,73.13c-2.357,10.541-7.114,20.396-13.9,28.8
	c-15.16,18.73-40.23,55.2-38.83,90.21c2,50,2,70,68,56s155-86,155-86s70.16-41.93,116.3-34c9.153,1.503,18.442-1.748,24.66-8.63
	c8-8.76,15.81-22.2,12-39.399c0,0,78,7,73-9c-2-6.5-17.29-12.511-34.68-17.351c-35.669-9.834-73.265-10.35-109.19-1.5
	c-27.18,6.63-56.25,16.54-65.13,29.851c-18,27-120,44-120,44l3-3.37c19.645-22.186,27.6-52.375,21.44-81.36
	C327.006,395.54,319.836,378.33,306.796,372.13z"/>
<path fill="#ED1C24" d="M293.006,371.76c0,0-3,121,42,103s10-103,10-103l-20-2L293.006,371.76z"/>
<path opacity="0.1" fill="#FF7BAC" enable-background="new    " d="M427.676,227.89c29.669-3.293,58.928-9.582,87.33-18.77
	c7.3-2.36,15.23-5.5,18.64-12.36c0.88-1.77,1.54-3.87,3.27-4.84c1.47-0.83,3.29-0.57,4.94-0.19c9.75,2.311,18.12,8.42,27.41,12.17
	c9.29,3.75,21.12,4.63,28.26-2.409c8.43-8.32,5.64-22.62,0.09-33.07c-20.61-38.88-68.89-56.63-112.81-53.41
	c-6.17,0.45-12.44,1.28-18,4c-11.76,5.65-18.2,18.22-24.57,29.61C429.846,170.71,364.336,234.899,427.676,227.89z"/>
<path fill="#FFF27D" d="M427.676,224.89c29.669-3.293,58.928-9.582,87.33-18.77c7.3-2.36,15.23-5.5,18.64-12.36
	c0.88-1.77,1.54-3.87,3.27-4.84c1.47-0.83,3.29-0.57,4.94-0.19c9.75,2.311,18.12,8.42,27.41,12.17c9.29,3.75,21.12,4.63,28.26-2.409
	c8.43-8.32,5.64-22.62,0.09-33.07c-20.61-38.88-68.89-56.63-112.81-53.41c-6.17,0.45-12.44,1.28-18,4
	c-11.76,5.65-18.2,18.22-24.57,29.61C429.846,167.71,364.336,231.899,427.676,224.89z"/>
<linearGradient id="SVGID_2_" gradientUnits="userSpaceOnUse" x1="899.7061" y1="1470.3301" x2="899.7061" y2="1607.8301" gradientTransform="matrix(1 0 0 -1 71.04 1938.5898)">
	<stop  offset="0" style="stop-color:#808080;stop-opacity:0.25"/>
	<stop  offset="0.54" style="stop-color:#808080;stop-opacity:0.12"/>
	<stop  offset="1" style="stop-color:#808080;stop-opacity:0.1"/>
</linearGradient>
<path fill="url(#SVGID_2_)" d="M1072.246,330.76h-203c-5.108,0-9.25,4.142-9.25,9.25l0,0v119c0,5.108,4.142,9.25,9.25,9.25l0,0h203
	c5.108,0,9.25-4.142,9.25-9.25l0,0v-119C1081.496,334.901,1077.354,330.76,1072.246,330.76L1072.246,330.76z"/>
<path fill="#1A1A1A" d="M874.476,332.38h192.51c6.578,0,11.91,5.332,11.91,11.91v110.45c0,6.577-5.332,11.909-11.91,11.909h-192.51
	c-6.577,0-11.91-5.332-11.91-11.909V344.29C862.565,337.712,867.898,332.38,874.476,332.38z"/>
<rect x="862.565" y="355.88" fill="#808080" width="216.33" height="24.62"/>
<rect x="883.076" y="398.77" fill="#D6D6E3" width="175.3" height="11.94"/>
<circle fill="#4829B2" cx="897.626" cy="440.54" r="17.16"/>
<circle opacity="0.3" enable-background="new    " cx="897.626" cy="440.54" r="17.16"/>
<path opacity="0.05" fill="#FF7BAC" enable-background="new    " d="M300.006,498.76c0,0-19,10.09-22.15,22.42
	s-6.85,14.58-6.85,14.58"/>
<path opacity="0.05" enable-background="new    " d="M766.006,624.76c0,0-9,31,0,35"/>
<path opacity="0.05" enable-background="new    " d="M317.006,659.76c0,0,78,17,136-18h25c0,0,75,38,111,27"/>
<rect x="878.002" y="594.853" transform="matrix(-0.4 0.9165 -0.9165 -0.4 1834.6404 62.366)" fill="#8ED16F" width="37.81" height="73.68"/>
<ellipse transform="matrix(-0.9165 -0.4 0.4 -0.9165 1465.6479 1570.2075)" fill="#8ED16F" cx="896.702" cy="632.138" rx="15.51" ry="7.76"/>
<ellipse transform="matrix(-0.9165 -0.4 0.4 -0.9165 1465.6479 1570.2075)" opacity="0.1" enable-background="new    " cx="896.702" cy="632.138" rx="15.51" ry="7.76"/>
<rect x="977.031" y="471.394" transform="matrix(-0.4 0.9165 -0.9165 -0.4 1860.1333 -201.2414)" fill="#8ED16F" width="37.81" height="73.68"/>
<ellipse transform="matrix(-0.9165 -0.4 0.4 -0.9165 1704.8262 1373.2124)" fill="#8ED16F" cx="995.731" cy="508.678" rx="15.51" ry="7.76"/>
<ellipse transform="matrix(-0.9165 -0.4 0.4 -0.9165 1704.8262 1373.2124)" opacity="0.1" enable-background="new    " cx="995.731" cy="508.678" rx="15.51" ry="7.76"/>
<rect x="1059.312" y="604.536" transform="matrix(-0.9813 0.1923 -0.1923 -0.9813 2259.6648 1063.3865)" fill="#8ED16F" width="37.81" height="73.68"/>
<ellipse transform="matrix(-0.1923 -0.9813 0.9813 -0.1923 655.5633 1822.473)" fill="#8ED16F" cx="1077.747" cy="641.466" rx="15.51" ry="7.76"/>
<ellipse transform="matrix(-0.1923 -0.9813 0.9813 -0.1923 655.5633 1822.473)" opacity="0.1" enable-background="new    " cx="1077.747" cy="641.466" rx="15.51" ry="7.76"/>
<rect x="963.492" y="764.482" transform="matrix(-0.4 0.9165 -0.9165 -0.4 2109.7949 221.4971)" fill="#8ED16F" width="37.81" height="73.68"/>
<ellipse transform="matrix(-0.9165 -0.4 0.4 -0.9165 1561.668 1929.5138)" fill="#8ED16F" cx="982.212" cy="801.77" rx="15.51" ry="7.76"/>
<ellipse transform="matrix(-0.9165 -0.4 0.4 -0.9165 1561.668 1929.5138)" opacity="0.1" enable-background="new    " cx="982.212" cy="801.77" rx="15.51" ry="7.76"/>
<rect x="796.641" y="731.732" transform="matrix(-0.4 0.9165 -0.9165 -0.4 1846.1847 328.5675)" fill="#8ED16F" width="37.81" height="73.681"/>
<ellipse transform="matrix(-0.9165 -0.4 0.4 -0.9165 1255.0089 1799.9877)" fill="#8ED16F" cx="815.351" cy="769.021" rx="15.51" ry="7.76"/>
<ellipse transform="matrix(-0.9165 -0.4 0.4 -0.9165 1255.0089 1799.9877)" opacity="0.1" enable-background="new    " cx="815.351" cy="769.021" rx="15.51" ry="7.76"/>
</svg>
