<svg width="2278" height="1362" viewBox="0 0 2278 1362" fill="none" xmlns="http://www.w3.org/2000/svg">
<g clip-path="url(#clip0)">
<path d="M1221.86 1087V1362.08H-0.162598V979.093C-0.162598 979.093 137.126 1095.41 524.213 1140.98C911.299 1186.55 1221.86 1087 1221.86 1087Z" fill="url(#paint0_linear)"/>
<g filter="url(#filter0_d)">
<path d="M2278 944.132V1362.08C2278 1362.08 1597.98 1362.08 1153.12 1362.08C708.263 1362.08 -0.264893 1362.08 -0.264893 1362.08V1293.35C-0.264893 1293.35 128.931 1316.29 415.684 1316.29C702.436 1316.29 1058.08 1161.61 1206.62 1085.41C1398.84 986.806 1723.4 897.822 1931.38 897.822C2139.35 897.822 2278 944.132 2278 944.132Z" fill="white"/>
</g>
<path d="M1837.89 1278.67C1833.9 1286.14 1828.4 1292.05 1821.38 1296.4C1814.36 1300.74 1806.46 1302.92 1797.68 1302.92C1788.9 1302.92 1781 1300.74 1773.98 1296.4C1766.96 1292.05 1761.48 1286.14 1757.55 1278.67C1753.61 1271.2 1751.64 1262.98 1751.64 1254.02C1751.64 1245.06 1753.61 1236.84 1757.55 1229.37C1761.48 1221.9 1766.96 1215.99 1773.98 1211.64C1781 1207.3 1788.9 1205.12 1797.68 1205.12C1806.46 1205.12 1814.36 1207.3 1821.38 1211.64C1828.4 1215.99 1833.9 1221.9 1837.89 1229.37C1841.87 1236.84 1843.86 1245.06 1843.86 1254.02C1843.86 1262.98 1841.87 1271.2 1837.89 1278.67ZM1822.54 1237.52C1820.09 1232.58 1816.7 1228.67 1812.35 1225.77C1808.01 1222.87 1803.12 1221.42 1797.68 1221.42C1792.16 1221.42 1787.24 1222.85 1782.95 1225.7C1778.64 1228.55 1775.29 1232.47 1772.89 1237.45C1770.49 1242.43 1769.29 1247.95 1769.29 1254.02C1769.29 1260.09 1770.49 1265.61 1772.89 1270.59C1775.29 1275.57 1778.64 1279.49 1782.95 1282.34C1787.24 1285.19 1792.16 1286.62 1797.68 1286.62C1803.11 1286.62 1808.01 1285.17 1812.35 1282.27C1816.7 1279.37 1820.09 1275.46 1822.54 1270.52C1824.98 1265.59 1826.2 1260.09 1826.2 1254.02C1826.21 1247.95 1824.98 1242.45 1822.54 1237.52Z" fill="#0F0F0F"/>
<path d="M1932.96 1289.06C1934.05 1290.51 1934.59 1292.18 1934.59 1294.09C1934.59 1296.44 1933.73 1298.39 1932.01 1299.93C1930.29 1301.47 1928.43 1302.24 1926.44 1302.24C1923.82 1302.24 1921.6 1301.06 1919.79 1298.71L1895.61 1266.52L1872.11 1298.43C1870.3 1300.97 1868.04 1302.24 1865.32 1302.24C1863.33 1302.24 1861.61 1301.51 1860.16 1300.06C1858.71 1298.62 1857.99 1296.94 1857.99 1295.04C1857.99 1293.05 1858.67 1291.19 1860.03 1289.47L1886.24 1254.02L1860.03 1219.25C1858.85 1217.8 1858.26 1216.17 1858.26 1214.36C1858.26 1212.09 1859.12 1210.15 1860.84 1208.52C1862.56 1206.89 1864.46 1206.07 1866.55 1206.07C1869.17 1206.07 1871.39 1207.25 1873.2 1209.6L1897.11 1241.39L1920.47 1210.28C1921.37 1209.02 1922.41 1208.04 1923.59 1207.36C1924.77 1206.68 1925.95 1206.34 1927.12 1206.34C1929.11 1206.34 1930.88 1207.14 1932.42 1208.72C1933.96 1210.31 1934.73 1212.05 1934.73 1213.95C1934.73 1215.67 1934.14 1217.3 1932.96 1218.84L1906.48 1253.75L1932.96 1289.06Z" fill="#0F0F0F"/>
<path d="M2038.27 1294.22C2038.27 1296.58 2037.5 1298.5 2035.96 1300C2034.42 1301.49 2032.66 1302.24 2030.67 1302.24C2029.04 1302.24 2027.57 1301.74 2026.25 1300.74C2024.94 1299.75 2023.92 1298.39 2023.2 1296.67L2016.13 1280.23H1975.66L1968.6 1296.8C1967.96 1298.52 1966.99 1299.86 1965.67 1300.81C1964.36 1301.76 1962.94 1302.24 1961.4 1302.24C1959.04 1302.24 1957.26 1301.6 1956.03 1300.33C1954.81 1299.07 1954.2 1297.35 1954.2 1295.17C1954.2 1294.36 1954.33 1293.5 1954.6 1292.59L1988.42 1211.37C1989.15 1209.56 1990.24 1208.16 1991.68 1207.16C1993.13 1206.16 1994.76 1205.76 1996.58 1205.94C1998.21 1205.94 1999.72 1206.41 2001.12 1207.36C2002.53 1208.31 2003.55 1209.65 2004.18 1211.37L2037.59 1290.96C2038.04 1292.14 2038.27 1293.23 2038.27 1294.22ZM1982.31 1264.61H2009.48L1995.76 1232.83L1982.31 1264.61Z" fill="#0F0F0F"/>
<path d="M2074.99 1300.47C2069.92 1298.84 2065.16 1296.08 2060.73 1292.19C2058.28 1290.01 2057.06 1287.61 2057.06 1284.99C2057.06 1282.91 2057.83 1281.07 2059.37 1279.49C2060.91 1277.9 2062.76 1277.11 2064.94 1277.11C2066.66 1277.11 2068.2 1277.65 2069.55 1278.74C2073.18 1281.73 2076.71 1283.9 2080.15 1285.26C2083.59 1286.62 2087.66 1287.3 2092.37 1287.3C2097.44 1287.3 2101.81 1286.17 2105.48 1283.9C2109.15 1281.64 2110.98 1278.83 2110.98 1275.48C2110.98 1271.4 2109.17 1268.21 2105.55 1265.91C2101.93 1263.6 2096.18 1261.85 2088.3 1260.67C2068.47 1257.78 2058.56 1248.54 2058.56 1232.97C2058.56 1227.26 2060.05 1222.3 2063.04 1218.09C2066.03 1213.88 2070.1 1210.67 2075.26 1208.45C2080.42 1206.23 2086.17 1205.12 2092.51 1205.12C2098.21 1205.12 2103.58 1205.99 2108.61 1207.7C2113.63 1209.42 2117.82 1211.69 2121.17 1214.5C2123.79 1216.58 2125.11 1218.98 2125.11 1221.69C2125.11 1223.78 2124.34 1225.61 2122.8 1227.19C2121.26 1228.78 2119.45 1229.57 2117.37 1229.57C2116.01 1229.57 2114.79 1229.16 2113.7 1228.35C2111.34 1226.45 2108.06 1224.71 2103.85 1223.12C2099.64 1221.54 2095.86 1220.74 2092.51 1220.74C2086.81 1220.74 2082.39 1221.81 2079.27 1223.93C2076.14 1226.06 2074.58 1228.85 2074.58 1232.29C2074.58 1236.18 2076.19 1239.13 2079.4 1241.12C2082.62 1243.11 2087.67 1244.74 2094.55 1246.01C2102.33 1247.36 2108.56 1249.11 2113.22 1251.24C2117.89 1253.37 2121.39 1256.26 2123.75 1259.93C2126.1 1263.6 2127.28 1268.47 2127.28 1274.53C2127.28 1280.23 2125.67 1285.24 2122.46 1289.54C2119.25 1293.84 2114.97 1297.14 2109.62 1299.45C2104.28 1301.76 2098.53 1302.92 2092.37 1302.92C2085.85 1302.92 2080.06 1302.1 2074.99 1300.47Z" fill="#0F0F0F"/>
<path d="M2012.58 1105.1C2012.77 1109.88 2012.32 1116.32 2009.83 1123.14C2009.53 1122.96 2009.2 1122.79 2008.86 1122.67C2005.81 1121.55 2002.44 1123.12 2001.34 1126.17C1999.73 1130.56 1996.02 1135.18 1990.87 1139.2C1985.06 1143.72 1973.54 1148.85 1964.69 1151.93C1946.98 1158.09 1932.26 1161.28 1913.7 1158.14C1895.7 1155.08 1880.93 1142.7 1877.8 1128.02C1877.12 1124.85 1874.01 1122.83 1870.83 1123.51C1870.66 1123.55 1870.49 1123.62 1870.32 1123.67L1867.39 1114.91C1872.5 1113.02 1877.63 1111.24 1882.79 1109.52L1880.54 1097.92C1874.89 1099.78 1869.27 1101.71 1863.69 1103.78L1861.13 1096.12C1863.83 1095.02 1865.36 1092.08 1864.58 1089.19L1845.39 1018.15C1843.49 1011.14 1842.73 1003.77 1843.28 997.934C1843.72 993.315 1847.94 988.195 1853.09 986.027C1857.8 984.045 1864.32 983.852 1868.48 989.263C1872.39 994.351 1874.08 1002.87 1875.58 1010.39C1875.78 1011.41 1875.98 1012.42 1876.18 1013.39C1879.88 1031.32 1883.15 1049.46 1886.04 1067.65H1897.9C1897.51 1065.2 1897.14 1062.74 1896.74 1060.29C1898.94 1057.47 1902.09 1053.87 1906.16 1050.3C1906.22 1050.38 1906.25 1050.47 1906.31 1050.55C1908.23 1053.16 1911.91 1053.72 1914.51 1051.81C1929.57 1040.76 1950.38 1037.66 1967.53 1043.92C1969.18 1044.52 1970.99 1044.36 1972.49 1043.48C1974 1042.61 1975.04 1041.11 1975.33 1039.4C1976.06 1035.1 1976.74 1030.76 1977.42 1026.37C1979.21 1014.81 1981.06 1002.87 1984.11 991.553C1984.34 990.697 1984.58 989.784 1984.83 988.832C1986.11 983.885 1987.86 977.117 1990.32 973.663C1992.46 970.645 1995.96 968.722 1999.06 968.722C1999.53 968.722 1999.99 968.767 2000.43 968.857C2010.15 970.826 2011.75 972.048 2013.63 978.905C2015.54 985.872 2013.17 996.596 2011.27 1005.22C2010.83 1007.15 2010.42 1009.02 2010.08 1010.76C2008.43 1018.94 2006.42 1027.36 2004.48 1035.49C2002.51 1043.72 2000.48 1052.24 1998.79 1060.62C1998.15 1063.8 2000.21 1066.9 2003.39 1067.53C2003.4 1067.54 2003.42 1067.54 2003.44 1067.54L2001.58 1076.76C1998.79 1076.28 1995.49 1076.1 1991.65 1076.32L1995.16 1087.96C1999.13 1088 2004.14 1088.65 2005.35 1091.56C2006.13 1093.43 2004.98 1096.44 2002.74 1098.41C2001.01 1099.94 1998.77 1101.02 1996.37 1101.95L1995.11 1114.8C1999.9 1113.27 2005.81 1111.35 2010.5 1107.21C2011.26 1106.55 2011.95 1105.84 2012.58 1105.1Z" fill="url(#paint1_linear)"/>
<path d="M1917.3 1137.42C1912.26 1137.42 1907.43 1136.23 1903.1 1133.06C1894.16 1126.52 1892.7 1114.91 1891.73 1107.23C1891.71 1107.04 1891.68 1106.84 1891.66 1106.65C1876.72 1111.25 1862 1116.64 1847.54 1122.83C1844.57 1124.1 1841.12 1122.72 1839.84 1119.74C1838.57 1116.76 1839.95 1113.31 1842.93 1112.04C1858.38 1105.43 1874.13 1099.7 1890.11 1094.85C1886.4 1067.59 1881.73 1040.25 1876.19 1013.39C1875.99 1012.41 1875.79 1011.41 1875.59 1010.39C1874.09 1002.87 1872.4 994.352 1868.48 989.263C1864.32 983.852 1857.81 984.044 1853.1 986.025C1847.95 988.195 1843.73 993.316 1843.29 997.937C1842.73 1003.77 1843.5 1011.14 1845.4 1018.15L1864.59 1089.19C1865.43 1092.32 1863.58 1095.54 1860.46 1096.38C1857.32 1097.22 1854.11 1095.38 1853.26 1092.25L1834.07 1021.22C1831.79 1012.77 1830.91 1004.11 1831.61 996.824C1832.46 987.94 1839.42 979.052 1848.55 975.211C1859.53 970.587 1871.01 973.297 1877.79 982.109C1883.37 989.374 1885.44 999.756 1887.09 1008.1C1887.29 1009.1 1887.49 1010.07 1887.68 1011.02C1893.15 1037.58 1897.79 1064.6 1901.5 1091.56C1930.63 1083.55 1960.51 1078.46 1990.85 1076.35C2007.65 1075.18 2013.91 1081.54 2016.2 1087.07C2018.9 1093.59 2016.56 1101.88 2010.51 1107.22C2005.76 1111.41 1999.75 1113.33 1994.92 1114.87L1935.04 1133.98C1929.12 1135.87 1923.06 1137.42 1917.3 1137.42ZM1903.06 1103.3C1903.17 1104.13 1903.27 1104.95 1903.37 1105.77C1904.32 1113.29 1905.54 1120.31 1910.03 1123.59C1915.08 1127.29 1923.32 1125.4 1931.47 1122.8L1991.35 1103.69C1995.52 1102.36 1999.84 1100.98 2002.75 1098.41C2004.99 1096.44 2006.14 1093.43 2005.36 1091.57C2003.74 1087.66 1995.24 1087.82 1991.66 1088.06C1961.56 1090.15 1931.93 1095.26 1903.06 1103.3Z" fill="#0F0F0F"/>
<path d="M2004.56 1067.65C2004.17 1067.65 2003.78 1067.61 2003.39 1067.54C2000.22 1066.9 1998.16 1063.8 1998.8 1060.63C2000.49 1052.24 2002.52 1043.72 2004.49 1035.49C2006.43 1027.36 2008.44 1018.95 2010.08 1010.76C2010.43 1009.02 2010.84 1007.16 2011.27 1005.22C2013.18 996.598 2015.55 985.871 2013.64 978.906C2011.76 972.045 2010.15 970.824 2000.44 968.856C1997.05 968.16 1992.79 970.189 1990.33 973.663C1987.87 977.115 1986.12 983.885 1984.83 988.831C1984.59 989.782 1984.35 990.695 1984.12 991.552C1981.07 1002.87 1979.22 1014.81 1977.43 1026.37C1976.75 1030.75 1976.07 1035.11 1975.34 1039.4C1975.05 1041.11 1974.01 1042.61 1972.5 1043.48C1971 1044.36 1969.18 1044.52 1967.55 1043.92C1950.39 1037.66 1929.58 1040.76 1914.52 1051.81C1911.91 1053.72 1908.24 1053.16 1906.32 1050.55C1904.4 1047.94 1904.97 1044.26 1907.58 1042.35C1924.07 1030.25 1945.45 1026.08 1964.85 1030.86C1965.18 1028.77 1965.51 1026.67 1965.83 1024.57C1967.67 1012.7 1969.58 1000.44 1972.79 988.5C1973.01 987.677 1973.24 986.8 1973.47 985.887C1975.07 979.734 1977.05 972.078 1980.76 966.864C1985.95 959.559 1994.8 955.734 2002.77 957.354C2013.39 959.507 2021.19 962.09 2024.95 975.802C2027.63 985.566 2024.91 997.867 2022.73 1007.75C2022.32 1009.61 2021.92 1011.4 2021.59 1013.08C2019.9 1021.47 2017.87 1029.98 2015.9 1038.21C2013.96 1046.35 2011.95 1054.76 2010.3 1062.94C2009.74 1065.73 2007.29 1067.65 2004.56 1067.65Z" fill="#0F0F0F"/>
<path d="M1927.82 1171.09C1922.68 1171.09 1917.36 1170.66 1911.75 1169.71C1889.12 1165.87 1870.44 1149.74 1866.33 1130.47C1865.65 1127.31 1867.67 1124.19 1870.84 1123.51C1874.01 1122.83 1877.13 1124.85 1877.8 1128.03C1880.94 1142.7 1895.7 1155.09 1913.71 1158.14C1932.27 1161.28 1946.98 1158.09 1964.7 1151.93C1973.54 1148.85 1985.06 1143.72 1990.88 1139.2C1996.02 1135.19 1999.74 1130.56 2001.34 1126.17C2002.45 1123.12 2005.82 1121.56 2008.86 1122.67C2011.91 1123.78 2013.47 1127.15 2012.36 1130.19C2009.36 1138.43 2002.94 1144.67 1998.09 1148.45C1988.63 1155.82 1971.83 1161.88 1968.56 1163.01C1954.69 1167.84 1941.9 1171.09 1927.82 1171.09Z" fill="#0F0F0F"/>
</g>
<defs>
<filter id="filter0_d" x="-10.2649" y="882.822" width="2298.26" height="484.26" filterUnits="userSpaceOnUse" color-interpolation-filters="sRGB">
<feFlood flood-opacity="0" result="BackgroundImageFix"/>
<feColorMatrix in="SourceAlpha" type="matrix" values="0 0 0 0 0 0 0 0 0 0 0 0 0 0 0 0 0 0 127 0"/>
<feOffset dy="-5"/>
<feGaussianBlur stdDeviation="5"/>
<feColorMatrix type="matrix" values="0 0 0 0 0 0 0 0 0 0 0 0 0 0 0 0 0 0 0.25 0"/>
<feBlend mode="normal" in2="BackgroundImageFix" result="effect1_dropShadow"/>
<feBlend mode="normal" in="SourceGraphic" in2="effect1_dropShadow" result="shape"/>
</filter>
<linearGradient id="paint0_linear" x1="1331.75" y1="1283.13" x2="46.6103" y2="1070.6" gradientUnits="userSpaceOnUse">
<stop stop-color="#EDDD1D"/>
<stop offset="0.510417" stop-color="#8ED825"/>
<stop offset="1" stop-color="#32EBFF"/>
</linearGradient>
<linearGradient id="paint1_linear" x1="1863.83" y1="1121.34" x2="2011.59" y2="973.577" gradientUnits="userSpaceOnUse">
<stop stop-color="#32EBFF"/>
<stop offset="0.5" stop-color="#8ED825"/>
<stop offset="1" stop-color="#EDDD1D"/>
</linearGradient>
<clipPath id="clip0">
<rect width="2278" height="1362" fill="white"/>
</clipPath>
</defs>
</svg>
