<svg width="234" height="257" viewBox="0 0 234 257" fill="none" xmlns="http://www.w3.org/2000/svg">
<path d="M103.319 216.201C97.2849 216.201 91.5121 214.784 86.326 210.989C75.6273 203.157 73.8788 189.269 72.7232 180.079C72.6939 179.846 72.6647 179.612 72.6346 179.378C54.7573 184.883 37.1433 191.34 19.838 198.74C16.281 200.269 12.1474 198.612 10.6222 195.045C9.09622 191.478 10.7515 187.352 14.317 185.829C32.8102 177.919 51.6538 171.058 70.7822 165.258C66.3391 132.638 60.7464 99.9089 54.1229 67.7628C53.8819 66.5987 53.6425 65.3985 53.4007 64.1712C51.6114 55.1771 49.5827 44.9812 44.9002 38.8904C39.9211 32.4147 32.1273 32.6441 26.4885 35.0147C20.3231 37.6124 15.274 43.7409 14.7458 49.2719C14.0806 56.2504 14.9999 65.0705 17.2696 73.4679L40.2391 158.482C41.25 162.226 39.0365 166.081 35.2924 167.092C31.5407 168.098 27.6949 165.89 26.6817 162.145L3.71223 77.1319C0.981355 67.0245 -0.064956 56.6561 0.765008 47.9392C1.77975 37.3067 10.1163 26.6704 21.0383 22.0725C34.1884 16.5391 47.9205 19.782 56.0315 30.3282C62.7174 39.0228 65.1881 51.4484 67.1729 61.435C67.41 62.626 67.6433 63.7955 67.875 64.928C74.4254 96.7161 79.9765 129.06 84.4174 161.319C119.273 151.738 155.033 145.643 191.343 143.122C211.456 141.721 218.946 149.328 221.689 155.948C224.923 163.754 222.122 173.668 214.876 180.057C209.187 185.072 201.995 187.368 196.217 189.214L124.553 212.083C117.465 214.347 110.222 216.201 103.319 216.201ZM86.2821 175.375C86.4083 176.36 86.5331 177.342 86.6562 178.327C87.7888 187.324 89.2485 195.726 94.6202 199.657C100.67 204.085 110.531 201.816 120.282 198.708L191.945 175.838C196.941 174.24 202.11 172.591 205.59 169.523C208.268 167.162 209.642 163.561 208.716 161.325C206.777 156.647 196.603 156.838 192.315 157.131C156.293 159.632 120.83 165.743 86.2821 175.375Z" fill="#0F0F0F"/>
<path d="M207.753 132.707C207.293 132.707 206.828 132.662 206.36 132.568C202.559 131.802 200.096 128.102 200.86 124.298C202.882 114.258 205.315 104.067 207.668 94.2146C209.992 84.4814 212.397 74.4172 214.365 64.6208C214.786 62.5328 215.278 60.3047 215.792 57.9849C218.072 47.6697 220.909 34.8314 218.623 26.4948C216.369 18.2837 214.451 16.8224 202.831 14.4673C198.772 13.635 193.675 16.0625 190.721 20.2201C187.785 24.3514 185.684 32.4547 184.15 38.3738C183.854 39.5117 183.572 40.605 183.296 41.6297C179.648 55.1756 177.431 69.4697 175.285 83.2958C174.471 88.5466 173.663 93.7565 172.785 98.8911C172.434 100.944 171.191 102.735 169.388 103.782C167.588 104.828 165.415 105.018 163.458 104.304C142.927 96.8146 118.018 100.521 99.9988 113.747C96.8783 116.039 92.4806 115.364 90.1832 112.237C87.8888 109.111 88.5648 104.716 91.6922 102.422C111.421 87.9491 137.011 82.9593 160.23 88.6682C160.628 86.1706 161.017 83.6607 161.408 81.1431C163.61 66.9444 165.889 52.2645 169.734 37.9773C170.001 36.9926 170.273 35.9424 170.554 34.8507C172.463 27.4857 174.837 18.323 179.275 12.0829C185.489 3.3413 196.074 -1.23736 205.621 0.702047C218.324 3.27817 227.662 6.37013 232.164 22.78C235.371 34.4665 232.117 49.188 229.504 61.0161C229.01 63.2458 228.538 65.3853 228.134 67.3917C226.112 77.4321 223.681 87.6219 221.326 97.4744C219.002 107.208 216.598 117.273 214.629 127.068C213.958 130.403 211.027 132.707 207.753 132.707Z" fill="#0F0F0F"/>
<path d="M115.913 256.503C109.758 256.503 103.396 255.984 96.6834 254.849C69.5972 250.256 47.2436 230.948 42.3223 207.893C41.5131 204.101 43.9307 200.369 47.724 199.559C51.5181 198.748 55.2468 201.167 56.056 204.962C59.8062 222.528 77.478 237.347 99.0309 241.001C121.243 244.766 138.846 240.949 160.052 233.571C170.636 229.89 184.425 223.75 191.379 218.332C197.539 213.534 201.986 207.994 203.903 202.74C205.232 199.096 209.267 197.22 212.905 198.55C216.549 199.879 218.424 203.91 217.096 207.552C213.497 217.418 205.818 224.884 200.012 229.409C188.687 238.232 168.583 245.473 164.667 246.834C148.067 252.608 132.768 256.503 115.913 256.503Z" fill="#0F0F0F"/>
</svg>
