<?xml version="1.0" encoding="utf-8"?>
<!-- Generator: Adobe Illustrator 16.0.3, SVG Export Plug-In . SVG Version: 6.00 Build 0)  -->
<!DOCTYPE svg PUBLIC "-//W3C//DTD SVG 1.1//EN" "http://www.w3.org/Graphics/SVG/1.1/DTD/svg11.dtd">
<svg version="1.1" id="Capa_1" xmlns="http://www.w3.org/2000/svg" xmlns:xlink="http://www.w3.org/1999/xlink" x="0px" y="0px"
	 width="509px" height="428.256px" viewBox="0 0 509 428.256" enable-background="new 0 0 509 428.256" xml:space="preserve">
<title>time management</title>
<title>forgot password</title>
<title>reading list</title>
<title>gardening</title>
<title>accept_terms</title>
<title>time management</title>
<title>forgot password</title>
<title>reading list</title>
<polygon fill="#EFB7B9" points="71.787,302.526 80.69,299.658 74.327,273.183 62.248,271.982 56.187,291.022 "/>
<polygon fill="#67647E" points="71.787,302.526 80.69,299.658 74.327,273.183 62.248,271.982 56.187,291.022 "/>
<path fill="#C69C6D" d="M129.285,131.1l-11.838,27.703c0,0-35.179,27.057-31.079,10.213c2.322-9.542-3.333-19.747-8.674-26.803
	c-2.411-3.205-5.084-6.204-7.992-8.966c0,0,36.285-54.009,40.055-27.602c1.119,7.831,3.293,13.258,5.792,17.015
	C121.493,131.566,129.285,131.1,129.285,131.1z"/>
<path opacity="0.1" enable-background="new    " d="M109.758,105.645c1.119,7.831,3.293,13.258,5.792,17.015
	c-8.322,12.694-22.678,20.111-37.846,19.557c-2.412-3.205-5.084-6.204-7.992-8.967C69.712,133.25,105.988,79.238,109.758,105.645z"
	/>
<path fill="#C69C6D" d="M118.253,79.923c10.103,21.684,0.715,47.451-20.97,57.555c-21.684,10.103-47.452,0.714-57.555-20.969
	c-10.1-21.678-0.72-47.439,20.954-57.549c21.587-10.145,47.311-0.87,57.457,20.719C118.177,79.76,118.215,79.841,118.253,79.923z"/>
<polygon fill="#E1E7EF" points="75.68,161.625 109.161,233.485 175.607,195.702 129.906,127.827 107.9,160.264 "/>
<path opacity="0.1" enable-background="new    " d="M133.768,188.317l-17.813-18.152l0.316-0.147
	c3.979-12.521-1.977-16.145-1.977-16.145l-11.191,5.215c-4.769,8.374,3.227,12.619,5.784,13.725l7.018,23.828L133.768,188.317z"/>
<path fill="#0071BC" d="M133.441,187.616l-17.813-18.152l0.316-0.147c3.979-12.521-1.977-16.145-1.977-16.145l-11.191,5.214
	c-4.769,8.374,3.227,12.62,5.783,13.725l7.019,23.828L133.441,187.616z"/>
<path opacity="0.1" enable-background="new    " d="M116.225,123.858c0,0,2.563,11.279-6.476,32.13c0,0,5.475-0.629,12.049,11.666
	l9.465,5.204c0,0-3.121-18.599,2.329-27.963c5.45-9.365-9.473-20.332-9.473-20.332L116.225,123.858z"/>
<path fill="#E1E7EF" d="M115.9,123.163c0,0,2.563,11.28-6.476,32.13c0,0,5.475-0.629,12.049,11.666l9.466,5.204
	c0,0-3.121-18.6,2.328-27.964c5.451-9.364-9.472-20.331-9.472-20.331L115.9,123.163z"/>
<path opacity="0.1" enable-background="new    " d="M106.577,157.465c0,0-4.184,8.352-0.624,16.933
	c3.559,8.582,0.065,10.209,0.065,10.209s-21.34-22.908-25.286-24.057c-3.946-1.149-0.913-15.164-0.913-15.164
	S91.01,157.892,106.577,157.465z"/>
<path fill="#E1E7EF" d="M106.251,156.767c0,0-4.185,8.349-0.621,16.939c3.564,8.591,0.065,10.21,0.065,10.21
	s-21.349-22.919-25.306-24.059c-3.958-1.14-0.913-15.164-0.913-15.164S90.684,157.191,106.251,156.767z"/>
<path opacity="0.1" enable-background="new    " d="M115.492,123.449l10.399-0.576c0,0,12.76,1.745,50.799-10.014
	c0,0,5.257-2.449,16.604,12.745l72.793,39.041c0,0,29.241,5.986,18.534,30.617l-38.083,23.077c0,0,12.847-32.863-22.534-17.233
	l3.943-8.455c0,0-14.583-4.742-19.454-9.708c-4.872-4.967-25.152-3.639-25.152-3.639l25.623,49.498l-29.279,19.609l-48.313-91.81
	c-2.282-4.329-4.097-8.888-5.414-13.602C123.826,135.32,119.822,123.45,115.492,123.449z"/>
<path fill="#333333" d="M115.843,123.286l10.397-0.577c0,0,12.761,1.746,50.799-10.013c0,0,5.258-2.45,16.604,12.744l72.792,39.041
	c0,0,29.241,5.986,18.534,30.617l-38.083,23.077c0,0,12.847-32.864-22.535-17.233l3.956-8.457c0,0-14.583-4.741-19.455-9.708
	c-4.872-4.966-25.152-3.639-25.152-3.639l25.623,49.498l-29.302,19.616l-48.313-91.81c-2.283-4.329-4.099-8.887-5.415-13.602
	C124.177,135.157,120.173,123.287,115.843,123.286z"/>
<path opacity="0.1" enable-background="new    " d="M79.615,144.429l-39.123,32.325c0,0-8.62-1.102-1.328,35.611l-4.547,64.412
	c0,0-8.969,23.791,10.029,31.593c18.997,7.803,31.659-6.245,31.659-6.245s-24.824-15.736-2.198-33.107l3.926-16.334l45.052-15.019
	l-29.823-61.196l-2.153-7.749c-2.326-8.376-6.022-16.309-10.939-23.479L79.615,144.429z"/>
<path fill="#333333" d="M79.265,144.593l-39.122,32.324c0,0-8.62-1.102-1.329,35.611l-4.546,64.412c0,0-8.982,23.796,10.021,31.569
	c19.002,7.774,31.66-6.218,31.66-6.218s-24.824-15.736-2.197-33.106l3.925-16.334l45.052-15.019l-29.817-61.197l-2.161-7.746
	c-2.327-8.376-6.022-16.309-10.939-23.478L79.265,144.593z"/>
<polygon fill="#E4E6ED" points="51.453,199.364 48.714,204.477 119.679,191.041 116.738,184.731 "/>
<polygon fill="#E4E6ED" points="173.657,141.146 179.333,142.344 119.679,191.041 116.738,184.731 "/>
<polygon fill="#D9E021" points="43.391,203.12 108.652,189.353 152.709,272.929 93.667,280.813 "/>
<polygon fill="#D9E021" points="181.158,138.933 125.104,182.541 168.624,266.794 218.488,221.801 "/>
<path fill="#4829B2" d="M106.547,190.333c0,0,13.225,1.529,21.089-9.826l42.774,86.309l-16.881,7.865L106.547,190.333z"/>
<path fill="#8CC63F" d="M106.547,190.333c0,0,13.225,1.529,21.089-9.826l42.774,86.309l-16.881,7.865L106.547,190.333z"/>
<path fill="#D8D9E5" d="M52.366,197.658l1.144,2.455l63.229-15.381C116.738,184.731,82.229,187.582,52.366,197.658z"/>
<path fill="#D8D9E5" d="M171.951,140.233l1.144,2.456l-56.356,42.042C116.738,184.731,145.022,156.623,171.951,140.233z"/>
<path fill="#C69C6D" d="M223.639,201.083l-1.6,1.345c0,0-16.771-4.875-24.599,17.999s16.017,21.174,16.017,21.174
	s21.269-8.822,26.014-15.747c2.031-3.004,4.56-5.637,7.48-7.789c1.79-1.304,3.111-3.151,3.768-5.266l0,0
	c1.216-3.878,0.615-8.098-1.635-11.481l0,0c-2.972-4.487-8.332-6.772-13.626-5.81l0,0
	C231.1,196.308,227.027,198.229,223.639,201.083z"/>
<path fill="#C69C6D" d="M69.958,274.792c0,0,8.143-19.152,35.12-6.123c26.977,13.028-3.356,27.601-3.356,27.601
	s-14.697,11.527-27.364,0.79C61.691,286.322,69.958,274.792,69.958,274.792z"/>
<path opacity="0.1" enable-background="new    " d="M224.724,199.535c0,0,18.517-2.837,23.786,17.6l9.351-5.665l-2.376-10.532
	l-10.412-11.36l-9.535,0.597L224.724,199.535z"/>
<path fill="#67647E" d="M225.076,199.371c0,0,18.517-2.836,23.784,17.6l9.351-5.664l-2.376-10.532l-10.412-11.36l-9.535,0.597
	L225.076,199.371z"/>
<path opacity="0.1" enable-background="new    " d="M118.253,79.923c1.467,3.141,2.55,6.446,3.228,9.847
	c-1.919,2.318-4.487,4.008-7.376,4.851c-4.976,1.453-10.364,0.6-15.273-1.063c-4.908-1.663-9.518-4.11-14.365-5.958
	c-4.395-1.675-9.392-2.827-13.708-0.966c-3.92,1.688-6.437,5.491-9.688,8.251c-3.405,2.894-12.637,3.627-13,7.826
	c-0.211,2.467,2.179,6.564,2.591,9.175c0.455,2.851,0.573,5.745,0.352,8.623c-0.171,2.107-0.742,4.522-2.66,5.397
	c-0.763,0.31-1.594,0.415-2.411,0.308c-15.47-18.249-13.219-45.584,5.03-61.055c18.249-15.471,45.584-13.219,61.055,5.03
	c2.5,2.948,4.593,6.218,6.225,9.722L118.253,79.923z"/>
<path fill="#333333" d="M60.743,94.193c3.254-2.762,5.783-6.57,9.687-8.25c4.316-1.861,9.317-0.711,13.708,0.965
	c4.844,1.847,9.452,4.294,14.365,5.958c4.913,1.664,10.295,2.51,15.273,1.063s9.393-5.63,9.928-10.778
	c0.758-7.344-5.892-13.101-8.938-19.827c-1.923-4.253-2.427-9.063-4.558-13.215c-1.784-3.475-4.615-6.309-7.488-8.935
	c-1.397-1.272-2.883-2.572-4.693-3.154c-4.788-1.538-9.582,2.311-14.59,2.786c-6.474,0.614-11.931-4.331-17.445-7.78
	c-2.122-1.318-5.302-2.301-6.833-0.319c-1.801,2.332,0.796,6.221-1.055,8.513c-1.123,1.389-3.316,1.319-4.932,0.559
	c-1.614-0.758-2.938-2.041-4.541-2.821c-2.876-1.353-6.266-0.988-8.789,0.944c-0.503,0.346-0.886,0.842-1.088,1.419
	c-0.341,1.266,0.768,2.399,1.375,3.561c2.043,3.91-1.709,8.357-5.487,10.632c-3.777,2.275-8.414,4.496-9.284,8.82
	c-0.47,2.292,0.304,4.63,0.361,6.965c0.131,5.414-3.472,10.077-6.437,14.615c-2.965,4.539-5.509,10.296-3.185,15.185
	c2.235,4.699,8.082,6.617,10.97,10.935c1.53,2.294,2.129,5.122,3.747,7.356c2.968,4.101,8.506,5.2,13.509,5.984
	c1.242,0.19,2.561,0.379,3.703-0.141c1.903-0.868,2.498-3.295,2.66-5.397c0.22-2.879,0.103-5.772-0.353-8.623
	c-0.416-2.617-2.804-6.714-2.591-9.175C48.106,97.82,57.337,97.083,60.743,94.193z"/>
<linearGradient id="SVGID_1_" gradientUnits="userSpaceOnUse" x1="374.5962" y1="338.792" x2="374.5962" y2="80.7007" gradientTransform="matrix(0.848 0.5367 -0.5233 0.8269 210.7001 -147.2827)">
	<stop  offset="0" style="stop-color:#808080;stop-opacity:0.25"/>
	<stop  offset="0.54" style="stop-color:#808080;stop-opacity:0.12"/>
	<stop  offset="1" style="stop-color:#808080;stop-opacity:0.1"/>
</linearGradient>
<path fill="url(#SVGID_1_)" d="M487.329,360.368l-8.119-80.853c6.299-17.269,1.335-20.41,1.335-20.41
	c-30.931-25.776-36.588-37.328-36.588-37.328l-5.722-7.657l-0.402-0.761c0.073-0.18,0.145-0.362,0.221-0.547
	c0.077-0.186,0.187-0.425,0.287-0.634c11.299,0.385,22.192-3.666,30.302-11.268c0.21-0.199,0.42-0.407,0.631-0.612
	c2.099,0.268,4.219-0.055,6.114-0.931c6.521-3.131,7.594-11.64,11.484-17.633c2.458-3.788,6.175-6.673,8.434-10.583
	c1.893-3.272,2.66-7.081,3.246-10.84c0.289-1.828,0.53-3.728,0.013-5.543c-1.387-4.79-7.253-6.826-10.435-10.766
	c-4.116-5.098-3.045-12.19-3.252-18.568c-0.074-2.456-1.036-5.611-3.54-5.875c-2.936-0.313-4.72,3.85-7.653,3.48
	c-1.776-0.225-2.939-2.094-3.207-3.834c-0.27-1.74,0.061-3.5-0.187-5.242c-0.497-3.11-2.67-5.739-5.661-6.85
	c-0.565-0.245-1.189-0.307-1.784-0.181c-1.243,0.364-1.564,1.873-2.191,2.974c-2.11,3.711-7.902,2.849-11.882,0.864
	c-3.98-1.982-8.414-4.726-12.488-3.241c-2.157,0.787-3.676,2.628-5.581,3.873c-4.418,2.884-10.304,2.272-15.713,2.11
	c-5.411-0.161-11.611,0.671-14.378,5.12c-2.653,4.268-0.986,10.138-2.969,14.77c-1.05,2.456-3.066,4.402-4.022,6.901
	c-1.75,4.584,0.418,9.778,2.551,14.359c0.146,0.309,0.293,0.622,0.453,0.928c-0.093,0.291-0.186,0.577-0.272,0.867
	c-3.274,11.347-1.566,23.641,4.71,33.899c-0.093,0.276-0.19,0.55-0.291,0.832c-0.309,0.867-0.65,1.758-1.02,2.657l-0.128-0.042
	l0.05-0.079l-48.39-16.065c-0.196-0.248-0.444-0.45-0.726-0.594c-1.627-1.22-8.122-2.809-29.82,17.649l-56,29.211
	c0,0-24.749,4.708-20.654,24.588c2.09,10.126,7.973,15.978,13.236,19.281c3.023,1.972,6.37,3.39,9.88,4.184
	c0,0-0.011-0.458,0.02-1.239l3.274,2.663c2.188,11.959,15.731,16.817,15.731,16.817s16.996,10.495,23.064,2.281l24.591,28.272
	l-0.9,1.694l15.928,10.081l0.626-1.048l39.744,11.366c-0.371,6.362,4.542,12.732,4.542,12.732s19.157,13.255,27.551,13.674
	c3.538,0.157,7.04,0.886,10.366,2.157l0.184,0.092l-0.067,0.012l40.374,20.002C498.63,387.886,487.329,360.368,487.329,360.368z
	 M288.594,252.599l-0.536-0.998c1.839,0.388,3.649,0.915,5.412,1.578l12.978-4.207l-4.26,9.554
	C298.563,254.9,293.689,252.775,288.594,252.599z M431.113,342.696c-1.463-3.755-4.141-6.95-7.608-9.077l13.915-21.344
	c1.673,3.474,2.794,6.845,2.321,9.115c-1.419,6.634,2.771,21.238,2.771,21.238l-7.508,0.838l0,0l-1.166,0.13
	c-0.239-0.085-0.478-0.168-0.722-0.248L431.113,342.696z"/>
<polygon fill="#EFB7B9" points="265.823,271.199 272.915,277.037 291.421,257.735 286.007,247.115 267.057,252.204 "/>
<polygon fill="#333333" points="265.823,271.199 272.915,277.037 291.421,257.735 286.007,247.115 267.057,252.204 "/>
<path fill="#FFE2AC" d="M438.183,217.034l-24.974,4.204c0,0-35.119-12.605-21.339-17.353c7.807-2.69,12.459-11.324,15.025-18.307
	c1.173-3.161,2.082-6.414,2.715-9.726c0,0,54.689,1.15,37.718,15.807c-5.034,4.347-7.887,8.351-9.409,11.826
	C434.317,211.733,438.183,217.034,438.183,217.034z"/>
<path opacity="0.1" enable-background="new    " d="M448.681,198.158c-5.877,5.079-9.21,9.755-10.99,13.813
	c-14.905-0.146-28.649-8.077-36.236-20.908c1.369-3.692,2.431-7.492,3.172-11.361C404.627,179.703,468.507,181.037,448.681,198.158z
	"/>
<path fill="#FFE2AC" d="M474.446,191.537c-12.563,19.851-38.838,25.76-58.691,13.196c-19.851-12.563-25.758-38.839-13.194-58.69
	c12.558-19.846,38.824-25.757,58.676-13.206c19.833,12.461,25.811,38.641,13.35,58.476
	C474.541,191.388,474.494,191.462,474.446,191.537z"/>
<path opacity="0.1" enable-background="new    " d="M393.088,261.851l5.554-24.35l0.29,0.183
	c12.46-3.352,12.296-10.196,12.296-10.196l-10.246-6.484c-9.45,0.5-8.718,9.361-8.276,12.06l-15.971,18.438L393.088,261.851z"/>
<path fill="#FF931E" d="M393.494,261.209l5.555-24.35l0.29,0.184c12.459-3.353,12.295-10.197,12.295-10.197l-10.245-6.484
	c-9.451,0.5-8.719,9.361-8.277,12.06l-15.97,18.438L393.494,261.209z"/>
<path opacity="0.1" enable-background="new    " d="M437.058,213.163c0,0-7.963,8.101-29.988,11.689c0,0,3.422,4.191-3.251,16.146
	l0.72,10.583c0,0,13.715-12.443,24.346-12.906c10.63-0.463,11.778-18.612,11.778-18.612L437.058,213.163z"/>
<path fill="#E1E7EF" d="M437.462,212.527c0,0-7.963,8.101-29.99,11.689c0,0,3.423,4.191-3.251,16.146l0.719,10.583
	c0,0,13.717-12.444,24.348-12.907c10.629-0.462,11.779-18.612,11.779-18.612L437.462,212.527z"/>
<path opacity="0.1" enable-background="new    " d="M404.166,223.015c0,0-9.121,0.972-14.326,8.465
	c-5.204,7.494-8.403,5.47-8.403,5.47s7.614-29.787,6.471-33.658s12.049-8.797,12.049-8.797S395.556,210.375,404.166,223.015z"/>
<path fill="#E1E7EF" d="M404.569,222.375c0,0-9.119,0.969-14.329,8.471c-5.21,7.503-8.402,5.47-8.402,5.47s7.619-29.801,6.46-33.676
	c-1.156-3.876,12.049-8.797,12.049-8.797S395.962,209.734,404.569,222.375z"/>
<polygon fill="#E4E6ED" points="340.3,199.678 334.621,200.126 383.364,251.651 387.021,245.875 "/>
<polygon fill="#E4E6ED" points="453.231,269.799 455.251,275.126 383.364,251.651 387.021,245.875 "/>
<polygon fill="#D9E021" points="332.918,195.007 378.911,241.643 333.205,322.384 295.373,277.765 "/>
<polygon fill="#D9E021" points="459.039,274.825 393.267,251.627 346.715,332.283 410.349,349.631 "/>
<path fill="#4829B2" d="M376.986,240.423c0,0,5.75,11.741,19.305,12.219l-48.646,81.129l-15.454-9.78L376.986,240.423z"/>
<path fill="#8CC63F" d="M376.986,240.423c0,0,5.75,11.741,19.305,12.219l-48.646,81.129l-15.454-9.78L376.986,240.423z"/>
<path fill="#D8D9E5" d="M342.194,199.528l-1.421,2.248l46.248,44.099C387.021,245.875,366.361,218.865,342.194,199.528z"/>
<path fill="#D8D9E5" d="M453.081,267.905l-1.422,2.248l-64.638-24.279C387.021,245.875,425.254,254.341,453.081,267.905z"/>
<path fill="#FFE2AC" d="M430.206,342.899l-1.961-0.609c0,0-4.867-16.447-27.923-10.785c-23.057,5.662-9.004,24.468-9.004,24.468
	s18.572,12.899,26.812,13.148c3.559,0.085,7.079,0.779,10.404,2.052c2.027,0.787,4.255,0.899,6.35,0.321l0,0
	c3.851-1.052,7.02-3.786,8.622-7.441l0,0c2.133-4.835,1.179-10.479-2.425-14.344l0,0
	C438.109,346.533,434.36,344.186,430.206,342.899z"/>
<path fill="#FFE2AC" d="M287.774,254.979c0,0,20.147-3.428,23.688,25.779c3.54,29.207-24.591,11.864-24.591,11.864
	s-17.323-6.034-15.167-22.196C273.86,254.262,287.774,254.979,287.774,254.979z"/>
<path opacity="0.1" enable-background="new    " d="M432.06,342.975c0,0,12.166,13.799-1.93,28.994l9.639,4.724l7.444-7.552
	l3.869-14.63l-5.55-7.563L432.06,342.975z"/>
<path fill="#333333" d="M432.38,343.178c0,0,12.167,13.801-1.93,28.993l9.642,4.724l7.441-7.551l3.869-14.63l-5.55-7.564
	L432.38,343.178z"/>
<path opacity="0.1" enable-background="new    " d="M474.446,191.537c-1.818,2.878-3.976,5.527-6.426,7.891
	c-2.934-0.356-5.693-1.583-7.922-3.523c-3.841-3.343-5.993-8.249-7.223-13.187c-1.23-4.938-1.65-10.046-2.696-15.033
	c-0.947-4.521-2.646-9.262-6.472-11.842c-3.474-2.345-7.951-2.407-11.958-3.63c-4.198-1.279-9.701-8.521-13.363-6.594
	c-2.152,1.134-4.271,5.281-6.209,7.007c-2.116,1.887-4.444,3.521-6.939,4.865c-1.832,0.976-4.131,1.785-5.872,0.663
	c-0.66-0.465-1.19-1.096-1.533-1.828c6.877-22.465,30.663-35.103,53.128-28.226c22.466,6.876,35.103,30.664,28.226,53.128
	c-1.111,3.629-2.704,7.094-4.734,10.301L474.446,191.537z"/>
<path fill="#A67C52" d="M432.149,151.575c4.009,1.225,8.497,1.294,11.957,3.63c3.828,2.581,5.529,7.323,6.473,11.841
	c1.044,4.982,1.464,10.09,2.694,15.033c1.231,4.943,3.387,9.839,7.223,13.187c3.837,3.347,9.635,4.776,14.174,2.488
	c6.472-3.268,7.703-11.818,11.646-17.903c2.494-3.846,6.203-6.813,8.504-10.776c1.926-3.317,2.767-7.161,3.413-10.928
	c0.309-1.83,0.596-3.747,0.119-5.552c-1.269-4.772-6.993-6.694-10.042-10.58c-3.942-5.025-2.75-12.158-2.822-18.544
	c-0.036-2.454-0.911-5.604-3.36-5.817c-2.881-0.252-4.719,3.957-7.594,3.643c-1.745-0.191-2.848-2.041-3.078-3.779
	c-0.229-1.736,0.126-3.511-0.078-5.249c-0.407-3.094-2.507-5.702-5.442-6.762c-0.553-0.233-1.166-0.285-1.749-0.147
	c-1.229,0.39-1.577,1.907-2.215,3.026c-2.146,3.762-7.812,3.02-11.696,1.104c-3.884-1.915-8.179-4.569-12.214-2.995
	c-2.143,0.827-3.667,2.707-5.565,3.993c-4.405,2.98-10.17,2.475-15.493,2.432c-5.324-0.043-11.432,0.908-14.239,5.421
	c-2.699,4.341-1.182,10.189-3.22,14.866c-1.084,2.481-3.104,4.476-4.093,6.999c-1.814,4.628,0.214,9.788,2.22,14.339
	c0.501,1.127,1.044,2.317,2.08,2.985c1.726,1.112,4.048,0.317,5.872-0.664c2.495-1.344,4.825-2.977,6.939-4.865
	c1.942-1.731,4.062-5.878,6.209-7.007C422.449,143.054,427.953,150.293,432.149,151.575z"/>
</svg>
