<?xml version="1.0" encoding="utf-8"?>
<!-- Generator: Adobe Illustrator 16.0.3, SVG Export Plug-In . SVG Version: 6.00 Build 0)  -->
<!DOCTYPE svg PUBLIC "-//W3C//DTD SVG 1.1//EN" "http://www.w3.org/Graphics/SVG/1.1/DTD/svg11.dtd">
<svg version="1.1" id="Capa_1" xmlns="http://www.w3.org/2000/svg" xmlns:xlink="http://www.w3.org/1999/xlink" x="0px" y="0px"
	 width="509px" height="428.256px" viewBox="0 0 509 428.256" enable-background="new 0 0 509 428.256" xml:space="preserve">
<title>time management</title>
<title>forgot password</title>
<title>reading list</title>
<title>gardening</title>
<title>accept_terms</title>
<path fill-rule="evenodd" clip-rule="evenodd" fill="#BF2523" d="M270.692,270.667c-0.007,0-0.007,0-0.014,0
	c-0.155,0-0.302,0.079-0.458,0.128c-0.416,0.148-0.837,0.268-1.253,0.395c-0.042,0.014-0.078,0.021-0.12,0.036
	c-0.613,0.184-1.232,0.348-1.845,0.518c0.506-0.134,1.013-0.269,1.521-0.41c0.725-0.197,1.45-0.395,2.168-0.606
	c0.105-0.028,0.212-0.07,0.317-0.113c0.127-0.049,0.253-0.072,0.38-0.107C271.165,270.556,270.932,270.667,270.692,270.667z
	 M257.433,274.627c0.246-0.184,0.521-0.338,0.824-0.473C257.954,274.282,257.679,274.437,257.433,274.627z M261.594,273.239
	c-0.021,0.007-0.035,0.015-0.056,0.021c1.084-0.282,2.168-0.563,3.252-0.859C263.728,272.684,262.665,272.965,261.594,273.239z
	 M258.581,274.021c-0.078,0.028-0.156,0.056-0.233,0.091c0.162-0.056,0.331-0.112,0.507-0.162c0.831-0.211,1.655-0.423,2.486-0.634
	c0.063-0.021,0.134-0.042,0.198-0.056c-0.895,0.225-1.789,0.458-2.684,0.683C258.764,273.965,258.672,273.993,258.581,274.021z
	 M256.447,275.698c0.169-0.268,0.374-0.521,0.605-0.747C256.813,275.176,256.616,275.43,256.447,275.698z M236.356,315.441
	c0,0.063-0.006,0.126-0.021,0.197c-0.401,1.824-0.824,3.824-1.24,5.649c-0.007,0.069-0.007,0.38-0.014,0.38h0.014
	c0.416-2,0.838-3.93,1.24-5.753C236.356,315.808,236.371,315.533,236.356,315.441z M227.681,303.773
	c-0.042,0.078-0.084,0.155-0.127,0.232c-0.12,0.232-0.239,0.458-0.331,0.669c0.021-0.057,0.049-0.113,0.085-0.169
	c0.112-0.239,0.246-0.479,0.38-0.732c0.345-0.641,0.704-1.274,1.057-1.901C228.386,302.499,228.026,303.132,227.681,303.773z
	 M227.012,305.132c0.07-0.147,0.141-0.303,0.211-0.457c-0.028,0.056-0.056,0.105-0.084,0.162
	C227.097,304.935,227.047,305.034,227.012,305.132z M228.758,301.597h0.007c0.183-0.352,0.366-0.669,0.549-0.979
	C229.125,300.928,228.941,301.245,228.758,301.597z"/>
<path fill-rule="evenodd" clip-rule="evenodd" fill="#BF2523" d="M233.92,292.232c-0.007,0.07-0.014,0.141-0.028,0.211
	c0,0.021-0.007,0.042-0.007,0.057c0.007,0,0.007-0.007,0.007-0.007c-0.007-0.007,0-0.007,0-0.015c0-0.006,0.007-0.021,0.007-0.035
	c0.007-0.07,0.021-0.141,0.028-0.211H233.92z M233.843,292.731c0.006-0.028,0.013-0.064,0.021-0.091
	c0.007-0.042,0.014-0.078,0.021-0.106V292.5c0,0.006-0.007,0.014-0.007,0.021C233.864,292.591,233.856,292.661,233.843,292.731z"/>
<path fill-rule="evenodd" clip-rule="evenodd" fill="#FCEE21" d="M388.354,129.776c-0.007-0.063-0.021-0.127-0.028-0.19
	c-104.058,0-208.164-0.007-312.327-0.007v190.826c0.705,0.528,1.626,0.676,2.57,0.676c6.697-0.007,13.387,0,20.083,0.042
	c0.853,0.007,8.528,0.247,9.021,0.247c7.253,0.015,14.506,0.296,21.766,0.296h105.642c0.007,0,0.007-0.311,0.014-0.38
	c0.416-1.825,0.838-3.737,1.24-5.56c0.014-0.07,0.021-0.178,0.021-0.242c-0.014-0.493-0.401-0.817-0.837-1.071
	c-2.064-1.182-4.127-2.405-6.155-3.644c-1.007-0.62-1.719-1.195-2.163-1.766c-0.098-0.112-0.183-0.229-0.246-0.341
	c-0.042-0.056-0.077-0.114-0.098-0.17c-0.099-0.169-0.176-0.339-0.232-0.508c-0.042-0.134-0.078-0.26-0.099-0.394
	c-0.063-0.38-0.042-0.768,0.049-1.184c0.021-0.099,0.042-0.198,0.07-0.295c0.028-0.099-0.361-0.205-0.326-0.303
	c0.035-0.091-0.319-0.19-0.319-0.282v-0.007c0-0.042-0.035-0.084-0.021-0.126c0.028-0.071,0.021-0.141,0.021-0.219v-0.007
	c0-0.028,0.523-0.063,0.537-0.098c0.036-0.078,0.315-0.155,0.358-0.232c0.021-0.057-0.1-0.106-0.071-0.162
	c0.099-0.212,0.176-0.437,0.176-0.669v-0.007c0-0.028-0.035-0.049-0.014-0.085c0.028-0.042,0.014-0.091,0.014-0.141v-0.007
	c0-0.021,0-0.049,0.021-0.077c0-0.008-0.021-0.008-0.021-0.015v-0.007c1-0.577,0.763-1.155,1.334-1.725
	c0.028-0.028-0.164-0.049-0.093-0.07c0.028-0.007-0.241-0.021-0.241-0.028v-0.007c0-0.028,0.404-0.063,0.418-0.091
	c0-0.014,0.209-0.021,0.216-0.035c0.042-0.197,0.291-0.402,0.438-0.599c0.015-0.014,0.072-0.036,0.086-0.049
	c0.021-0.036,0.061-0.064,0.089-0.099c0.021-0.028,0.053-0.057,0.075-0.091c0.189-0.317,0.366-0.634,0.557-0.951
	c0.091-0.162,0.192-0.323,0.284-0.479c0.091-0.162,0.192-0.323,0.291-0.479c0.19-0.324,0.381-0.641,0.579-0.958
	c0.387-0.633,0.768-1.267,1.148-1.901c0.134-0.211,0.247-0.423,0.366-0.634c0.12-0.211,0.356-0.422,0.476-0.633
	c0.233-0.423,0.977-0.845,0.977-1.267v-0.233c0-0.007,0-0.007,0-0.014c0-0.049-0.013-0.099-0.007-0.155
	c0.007-0.063,0.007-0.134,0.007-0.204v-0.035c0-0.049,0-0.092,0.007-0.134c0-0.014-0.007-0.035-0.007-0.049c0-0.007,0-0.007,0-0.014
	s-0.075-0.014-0.075-0.021c0.007-0.028-0.031-0.049-0.024-0.07c0.008-0.042-0.005-0.078,0.002-0.106
	c0-0.007-0.016-0.007-0.009-0.014c0-0.007-0.001-0.015-0.001-0.021c0.007,0,0.002-0.007,0.002-0.007
	c-0.007-0.007-0.001-0.396-0.001-0.402c0.015-0.021,0.019-0.423,0.026-0.423c-0.007,0-0.007,0-0.014,0h-0.015
	c-4.95,0-9.907,0.226-14.858,0.226c-37.688-0.007-75.369,0.145-113.049,0.13c-1.479,0-2.254,0.153-2.662-0.064
	c-0.113-0.064-0.204-0.121-0.268-0.248c-0.021-0.042-0.035-0.061-0.05-0.11c-0.148-0.443-0.112-1.213-0.112-2.615
	c0.007-1.739,0-3.522,0.007-5.261c0.014-1.958,0.063-2.059,1.958-2.059h43.412c6.993,0,13.986,0.106,20.978,0.1
	c20.978,0,41.949-0.061,62.926-0.067c2.049,0,4.105-0.032,6.154-0.032h4.951c0.239,0,0.472,0.092,0.711,0.086
	c0.085-0.008,0.027,0.046,0.105,0.046c4.013-0.021,8.905-0.06,11.905-0.074v-1.091c0-0.092,0.206-0.183,0.185-0.282
	c-0.056-0.295-0.009-0.599-0.102-0.894c-0.056-0.198-0.064-0.395-0.128-0.599c-0.232-0.733-0.131-1.542,0.123-2.295
	c0.013-0.05-0.063-0.099-0.021-0.148c0.035-0.05-0.057-0.099-0.057-0.148c0-0.007,0-0.007,0-0.007v-0.556c0-0.006,0-0.006,0-0.006
	c0-0.268,0.586-0.521,0.833-0.747c0.112-0.113,0.313-0.226,0.455-0.324c0.098-0.071,0.231-0.008,0.336-0.065
	c0.028-0.007,0.09,0.104,0.119,0.104c0.006,0,0.014,0,0.014,0c0.007,0,0.007-0.133,0.014-0.133s0.015-0.07,0.021-0.07
	c0.042-0.028,0.084,0.108,0.126,0.08c0.007-0.006,0.015,0.123,0.021,0.123h0.007c0.014,0,0.021-0.196,0.035-0.196
	c0.049-0.036,0.105,0.083,0.155,0.063c0.014-0.007,0.021,0.133,0.035,0.133h0.274c0.007,0,0.007,0,0.007,0
	c0.042,0,0.084-0.344,0.127-0.344c0.077-0.035,0.154,0.189,0.232,0.168c0.099-0.028,0.204,0.176,0.303,0.176
	c0.007,0,0.007,0,0.014,0c0.219,0,0.444-0.506,0.669-0.569c0.028-0.007,0.063-0.21,0.091-0.225c0.486-0.127,0.964-0.342,1.451-0.49
	c0.063-0.021,0.134-0.075,0.198-0.089c0.021-0.007,0.035-0.031,0.056-0.038c0.078-0.028,0.155-0.057,0.232-0.078
	c0.176-0.049,0.352-0.117,0.528-0.159c0.81-0.226,1.612-0.102,2.416-0.313c0.492-0.135,0.986-0.039,1.479-0.039
	c0.007,0,0.015,0,0.015,0h0.725c0.008,0,0.008,0,0.015,0c0.506,0,1.013-0.829,1.521-1.014c0.105-0.042,0.218-0.237,0.324-0.273
	c0.042-0.014,0.077-0.109,0.12-0.124c0.416-0.141,0.837-0.281,1.253-0.421c0.156-0.049,0.303-0.168,0.458-0.168
	c0.007,0,0.007,0,0.014,0h0.705c1.225,0,2.246-0.372,3.098-0.132c0.091,0.028,0.184,0.028,0.275,0.063
	c0.028,0.014,0.057,0.022,0.084,0.029c0.232,0.092,0.451,0.193,0.655,0.334c0.014,0.007,0.021,0.02,0.035,0.02
	c0.092,0.063,0.184,0.126,0.268,0.203c0.099,0.085,0.19,0.168,0.275,0.267c0.042,0.043,0.084,0.084,0.12,0.134
	c0.134,0.155,0.26,0.317,0.373,0.5c0.247,0.387,0.465,0.838,0.642,1.366c0.098,0.274,0.189,0.578,0.267,0.894
	c0.049,0.184,0.091,0.374,0.134,0.571c0.415,1.992,0.957,3.964,1.429,5.943c0.24,1,0.824,1.43,1.874,1.402
	c3.648-0.106,7.225,0.521,10.745,1.387c0.937,0.232,1.437,0.092,1.881-0.697c1.105-1.958,2.204-3.916,3.352-5.845
	c1.035-1.719,2.042-3.535,4.556-3.084c0.402,0.07,0.838,0.099,1.176,0.296c4.197,2.422,8.437,4.788,12.549,7.345
	c2.189,1.365,2.493,3.429,1.078,5.542c-1.452,2.162-2.41,4.605-3.901,6.753c-0.592,0.845-0.043,1.661,0.598,2.31
	c2.38,2.408,4.471,5.028,6.07,8.021c0.556,1.042,1.303,1.465,2.521,1.091c1.802-0.556,3.641-1,5.464-1.493
	c0.395-0.105,0.782-0.247,1.183-0.317c3.12-0.507,4.781-0.528,5.894,3.443c1.317,4.704,2.571,9.415,3.62,14.182
	c1.887-0.057,3.781-0.112,5.668-0.169c-2.937-4.049-2.944-4.169,0.035-8.352c1.838-2.57,3.662-5.148,5.542-7.683
	c0.485-0.655,0.465-1.057-0.043-1.711c-2.12-2.732-4.408-5.345-6.084-8.401c-0.458-0.824-0.937-1.134-2.084-0.697
	c-3.626,1.359-7.344,2.479-11.041,3.647c-2.211,0.698-4.359-0.479-5.253-3.028c-1.323-3.746-2.507-7.542-3.732-11.323
	c-0.605-1.894-1.239-3.781-1.753-5.704c-0.676-2.542,0.542-4.704,3.063-5.535c3.387-1.112,6.774-2.247,10.197-3.268
	c1.218-0.366,1.675-1.007,1.5-2.225c-0.141-1.007,0.028-2.049-0.317-3.035c-23.104-0.007-46.208-0.021-69.305-0.021
	c-20.625-0.007-41.251-0.014-61.884,0.007c-1.183,0-1.5-0.493-1.479-1.563c0.049-2.197,0.015-4.401,0.021-6.599
	c0-2.232,0.007-2.239,2.197-2.239c18.189,0,36.385-0.007,54.581-0.007c21.569,0.007,43.138,0.014,64.708,0.014
	c0.972,0,1.943-0.057,2.915-0.091c-0.556-0.972-1.627-0.944-2.507-1.197c-3.105-0.88-4.499-3.183-3.584-6.274
	c0.88-2.965,1.88-5.895,2.803-8.845c0.169-0.536,0.239-1.092,0.359-1.634c-7.978-0.021-15.95-0.056-23.921-0.056
	c-31.751-0.008-63.496,0-95.241-0.008c-2.225,0-2.324,0.198-2.253-2.253c0.07-2.197,0.049-4.401-0.007-6.598
	c-0.028-1.05,0.359-1.444,1.422-1.437c3.218,0.014,6.443-0.071,9.662-0.071c44.011-0.006,88.03-0.006,132.048,0
	c0.5,0,1.021-0.105,1.506,0.148c0.578-0.711,1.162-1.415,1.747-2.126c0.578-0.711,1.161-1.416,1.746-2.119
	c0.564-0.676,0.338-1.148-0.126-1.859c-2.274-3.492-5.162-6.563-7.141-10.267c-0.323-0.606-0.507-1.218-0.647-1.866
	c-45.892,0.006-91.805,0.006-137.704,0.014c-0.732,0-1.252,0-1.626-0.056c-0.937-0.141-0.937-0.648-0.937-2.471
	c0-2.043,0.078-4.091-0.014-6.134c-0.007-0.225-0.007-0.416,0.021-0.584c0.007-0.042,0.014-0.091,0.021-0.134
	c0.007-0.049,0.021-0.091,0.028-0.126c0.007-0.021,0.014-0.05,0.021-0.07c0.021-0.084,0.056-0.155,0.098-0.225
	c0.035-0.07,0.084-0.134,0.134-0.184c0.289-0.31,0.761-0.409,1.458-0.409c4.816,0.007,9.626,0.015,14.443,0.015
	c12.52,0.014,25.041,0.007,37.553,0.007c32.21,0.006,64.419,0.006,96.628,0.021c0.444,0,0.922-0.169,1.324,0.183
	c1.753-1.218,3.464-2.5,5.267-3.641c2.282-1.444,4.353-0.993,5.972,1.197c0.626,0.859,1.592,1.444,1.979,2.486
	c0.648-0.464,1.388-0.232,2.084-0.24c5.105-0.042,10.218-0.049,15.331-0.07c0.43-1.549,0.099-3.126,0.176-4.689
	c0.057-1.127,0.014-2.254,0.028-3.373c0.035-3.226,1.014-4.38,4.226-5.014c0.295-0.057,0.577-0.205,0.865-0.31
	c0-17.485,0.021-34.97,0.021-52.455C388.424,130.248,388.39,130.009,388.354,129.776z M141.799,263.667
	c-11.655,0-23.309,0.037-34.956-0.02c-4.633-0.028-3.895,0.223-3.901-3.841c-0.028-20.442-0.007-40.89-0.007-61.332
	c0-1.838,0.183-2.042,2-2.042c24.681-0.006,49.37-0.003,74.051,0.004c0.247,0,0.472-0.001,0.669,0.014
	c0.197,0.006,0.366,0.019,0.521,0.041c0.112,0.014,0.211,0.06,0.302,0.102c0.092,0.042,0.162,0.073,0.232,0.073
	c0.007,0,0.007,0,0.007,0c0.05,0,0.084,0.081,0.12,0.116c0.154,0.148,0.239,0.368,0.289,0.664c0.05,0.295,0.063,0.69,0.063,1.184
	c0,20.907-0.006,41.806-0.006,62.714c0,2.042-0.274,2.322-2.282,2.322H141.799z M305.972,171.295c0,1.753-0.493,2.112-2.247,2
	c-0.957-0.063-1.929,0.063-2.894,0.063c-5.268,0.007-10.528,0-16.725,0c-6.12-0.05-13.175-0.204-20.217-0.12
	c-9.5,0.113-19.006,0.07-28.513,0.105c-13.682,0.057-27.372,0.021-41.054,0.014c-11.999,0-23.992-0.021-35.991-0.028
	c-1.119,0-1.683-0.479-1.676-1.662c0.014-6.239,0.035-12.471-0.015-18.71c-0.006-1.521,0.853-1.577,1.986-1.577
	c9.916,0.021,19.837,0.014,29.752,0.014c33.667,0,67.327,0.007,100.994,0.007c4.895,0,9.782,0.049,14.675-0.035
	c1.536-0.028,1.958,0.577,1.951,1.985C305.958,159.332,305.994,165.31,305.972,171.295z"/>
<path fill-rule="evenodd" clip-rule="evenodd" fill="#8CC63F" d="M460.646,255.297c3.07-0.957,5.694-2.056,8.793-2.944
	c2.07-0.598,3.561-1.443,4.561-3.429v-2.148c-2-5.626-3.35-11.365-5.138-17.077c-1.015-3.281-2.879-4.352-6.168-3.303
	c-3.449,1.092-6.795,2.226-10.238,3.353c-0.753,0.246-1.33,0.458-1.872-0.479c-1.768-3.063-3.849-5.887-6.158-8.556
	c-0.542-0.613-0.498-1.042-0.012-1.69c2.112-2.817,4.166-5.683,6.25-8.521c2.338-3.19,2.031-5.366-1.125-7.669
	c-4.416-3.218-8.836-6.429-13.259-9.64c-2.739-1.986-5.048-1.599-7.027,1.134c-2.12,2.929-4.281,5.837-6.358,8.795
	c-0.578,0.817-1.071,0.972-2,0.563c-3.084-1.374-6.295-2.401-9.591-3.12c-1.021-0.226-1.289-0.648-1.275-1.626
	c0.049-3.781,0.043-7.563,0.015-11.345c-0.021-2.626-1.627-4.479-4.19-4.521c-5.288-0.078-10.569,0.014-15.865,0.036l-1.584-0.169
	c-0.288,0.105-0.57,0.253-0.865,0.31c-3.212,0.633-4.19,1.788-4.226,5.014c-0.014,1.119,0.028,2.246-0.028,3.373
	c-0.077,1.563,0.254,3.141-0.176,4.689c0.331,1,0.07,2.021,0.147,3.028c0.05,0.69-0.232,0.964-0.915,1.12
	c-3.472,0.81-6.873,1.859-10.14,3.295c-0.881,0.387-1.268,0.028-1.726-0.612c-1.57-2.19-3.183-4.352-4.782-6.521
	c-0.387-1.042-1.352-1.626-1.979-2.486c-1.619-2.19-3.69-2.641-5.972-1.197c-1.802,1.141-3.513,2.422-5.267,3.641
	c-3.169,2.274-6.478,4.542-9.64,6.837c-0.922,0.668-1.837,1.57-1.837,2.746v0.007c0,0.007,0.132,0.007,0.132,0.015
	c-0.091,0.183-0.091,0.366-0.176,0.549c0.141,0.648,0.362,1.26,0.686,1.866c1.979,3.704,4.882,6.774,7.156,10.267
	c0.465,0.711,0.698,1.183,0.135,1.859c-0.584,0.704-1.162,1.408-1.746,2.119c-0.585,0.711-1.165,1.416-1.743,2.126
	c-0.922,1.408-1.885,2.782-2.744,4.226c-0.443,0.753-0.879,0.908-1.717,0.62c-3.514-1.197-7.048-2.331-10.576-3.464
	c-2.972-0.958-5.07,0.084-6.126,3.006c-0.71,1.951-1.133,4.007-2.049,5.887c-0.12,0.542-0.19,1.098-0.359,1.634
	c-0.923,2.95-1.923,5.88-2.803,8.845c-0.915,3.091,0.479,5.394,3.584,6.274c0.88,0.253,1.951,0.225,2.507,1.197
	c2.817,0.253,5.359,1.507,8.028,2.302c0.584,0.169,0.563,0.642,0.528,1.105c-0.071,1.113-0.141,2.232-0.219,3.345l0.015,0.007
	c-0.036,1.246-0.071,2.493-0.106,3.739c0.346,0.986,0.176,2.028,0.317,3.035c0.176,1.218-0.282,1.859-1.5,2.225
	c-3.423,1.021-6.81,2.155-10.197,3.268c-2.521,0.831-3.739,2.993-3.063,5.535c0.514,1.923,1.148,3.81,1.753,5.704
	c1.225,3.781,2.409,7.577,3.732,11.323c0.894,2.549,3.042,3.726,5.253,3.028c3.697-1.168,7.415-2.289,11.041-3.647
	c1.148-0.437,1.626-0.126,2.084,0.697c1.676,3.056,3.964,5.668,6.084,8.401c0.508,0.654,0.528,1.056,0.043,1.711
	c-1.88,2.535-3.704,5.113-5.542,7.683c-2.979,4.183-2.972,4.302-0.035,8.352c4.063,2.915,8.133,5.824,12.203,8.739
	c0.747,0.535,1.472,1.105,2.246,1.591c1.874,1.183,4.296,0.845,5.648-0.908c1.965-2.535,3.873-5.113,5.549-7.852
	c0.592-0.972,1.472-1.451,2.746-1.613c1.888-0.246,3.437,0.458,5.098,1.015c1.452,0.493,2.909,1.056,4.408,1.253
	c1.747,0.233,2.064,1.092,2.007,2.662c-0.113,3.366-0.049,6.746-0.021,10.119c0.028,3.338,1.676,4.93,5.049,4.937
	c5.62,0.006,11.238,0.014,16.865,0.006c3.232,0,4.866-1.661,4.873-4.943c0.007-3.577,0.043-7.154-0.014-10.731
	c-0.021-1.078,0.211-1.627,1.387-1.874c3.253-0.683,6.394-1.767,9.45-3.078c0.937-0.394,1.45-0.232,2.021,0.578
	c2.126,3,4.302,5.964,6.478,8.929c1.845,2.514,4.197,2.901,6.753,1.064c4.647-3.339,9.274-6.704,13.886-10.085
	c2.43-1.767,2.823-4.218,1.084-6.661c-2.07-2.908-4.162-5.816-6.316-8.661c-0.754-0.993-0.944-1.627,0.035-2.677
	c2.162-2.316,4.007-4.915,5.563-7.668c0.655-1.162,1.281-1.247,2.429-0.845c3.373,1.183,6.774,2.289,10.19,3.345
	c3.091,0.964,5.063-0.063,6.077-3.112c1.726-5.239,3.019-10.486,4.737-15.725c0.148-0.472,0.188-1.014,0.188-1.374v-1.845
	c-1-2.099-1.815-3.113-3.864-3.718c-3.331-0.979-6.408-2.155-9.724-3.176c-0.845-0.261-1.014-0.62-0.93-1.514
	c0.332-3.464,0.382-6.936,0.044-10.401C459.441,255.874,459.836,255.551,460.646,255.297z M394.558,291.041
	c-2.126-0.162-4.26-0.345-6.225-1.302c-3.147-0.521-5.824-2.105-8.387-3.866c-6.07-4.176-9.887-10.014-11.633-17.049
	c-2.668-10.739,1.183-22.203,9.626-29.118c2.71-2.218,5.668-3.936,8.922-5.169c0.464-0.176,0.993-0.197,1.493-0.289
	c3.697-1.486,7.577-1.633,11.436-1.183c13.647,1.591,24.076,11.746,25.739,25.386C427.802,277.12,412.493,292.386,394.558,291.041z"
	/>
<path fill-rule="evenodd" clip-rule="evenodd" fill="#BF2523" d="M388.327,130.032c-104.058,0-208.164,0.216-312.327,0.216
	c104.163,0,208.269,0.419,312.327,0.419h0.028C388.347,130.667,388.333,130.095,388.327,130.032z"/>
<path fill-rule="evenodd" clip-rule="evenodd" fill="#BF2523" d="M78.126,78.026v0.007c-0.007,0-0.007,0-0.014,0
	c-0.007,0-0.007,0-0.015,0.007h-0.006c-0.007,0-0.007,0-0.015,0c0.007,0.007,0.007,0.014,0.007,0.021c0.007,0,0.021,0,0.028-0.007
	c0.006,0,0.006-0.007,0.014-0.007c0.007-0.007,0.015-0.014,0.021-0.028C78.141,78.019,78.134,78.026,78.126,78.026z"/>
<path fill-rule="evenodd" clip-rule="evenodd" fill="#BF2523" d="M77.31,78.442c-0.014,0.014-0.035,0.028-0.049,0.049
	c0.021-0.021,0.049-0.043,0.071-0.057v-0.007C77.324,78.435,77.317,78.442,77.31,78.442z"/>
<path fill-rule="evenodd" clip-rule="evenodd" fill="#BF2523" d="M77.387,78.414c0,0,0.007,0,0.007,0.006v-0.006H77.387z"/>
<path fill-rule="evenodd" clip-rule="evenodd" fill="#BF2523" d="M78.183,77.724v0.006c0,0,0.006,0,0.006-0.006H78.183z
	 M78.218,77.695h-0.006c0,0,0,0-0.007,0.007v0.021l0.007-0.007v-0.007c0.014-0.007,0.021-0.021,0.028-0.028
	C78.232,77.688,78.225,77.695,78.218,77.695z M78.211,77.758c-0.007,0.015-0.014,0.021-0.022,0.036c0,0-0.006,0.007-0.014,0.014
	c0-0.014,0.007-0.028,0.007-0.057c0-0.007,0-0.007,0-0.014h-0.014c0,0.007,0,0.007,0,0.007c-0.007,0-0.007,0-0.007,0
	c0,0.007,0,0.007,0,0.007c-0.007,0-0.007,0-0.007,0l-0.007,0.007v0.007c-0.006,0.007-0.014,0.014-0.021,0.014v0.007
	c0,0.007,0,0.007,0,0.014c0.007,0.007,0.007,0.007,0.007,0.014v0.007c0,0.014,0,0.021,0,0.021c0.007,0,0.007-0.007,0.014-0.028
	h0.007v0.021c0,0,0,0,0.007,0v-0.008c0,0,0.007,0,0.007-0.006c0,0,0,0,0.007,0c0,0.006,0,0.006,0,0.014
	c0.014-0.008,0.021-0.014,0.028-0.028c0,0,0.007-0.007,0.014-0.007v-0.014C78.218,77.773,78.218,77.766,78.211,77.758z
	 M78.141,77.857c0,0.007,0,0.007,0,0.007s0,0,0,0.007v0.007c0.006,0,0.006,0,0.006-0.007s0-0.007,0-0.007v-0.007H78.141z
	 M78.239,77.674v0.007c0.007,0,0.007,0,0.007-0.007H78.239z M78.274,77.709c0,0-0.007,0.007-0.007,0.015
	c0.007-0.015,0.014-0.021,0.021-0.021C78.282,77.702,78.282,77.702,78.274,77.709z M78.126,77.885c0.007,0,0.007,0,0.015,0v-0.007
	C78.141,77.878,78.134,77.885,78.126,77.885z M78.084,77.893c-0.007,0-0.015,0-0.015,0c0,0.007,0,0.014,0,0.014
	c0.007,0,0.007,0,0.015,0c0,0,0.007,0,0.014,0l0.007-0.007C78.098,77.899,78.092,77.899,78.084,77.893z M78.126,78.026v0.007
	c-0.007,0-0.007,0-0.014,0c-0.007,0-0.007,0-0.015,0.007h-0.006c-0.007,0-0.007,0-0.015,0c0.007,0.007,0.007,0.014,0.007,0.021
	c0.007,0,0.021,0,0.028-0.007c0.006,0,0.006-0.007,0.014-0.007c0.007-0.007,0.015-0.014,0.021-0.028
	C78.141,78.019,78.134,78.026,78.126,78.026z M78.113,78.019v0.007c0-0.007,0.006-0.007,0.006-0.007H78.113z M78.113,77.984v0.007
	l0.006-0.007H78.113z M78.239,77.956c-0.021-0.007-0.035-0.014-0.05-0.021c-0.006,0-0.021-0.007-0.027-0.007l-0.007-0.007
	c-0.007-0.007-0.007-0.007-0.014,0c-0.007,0-0.007,0-0.007,0v-0.007c-0.007,0-0.007,0-0.015,0h-0.006
	c0-0.007-0.007-0.007-0.015-0.007c0,0.007,0,0.007,0,0.007c0,0.007,0,0.007,0,0.007v0.021c0.007,0,0.015,0.007,0.015,0.007
	s0.006,0,0.006,0.007l0.007,0.007h0.007l0.007,0.007h0.006c0-0.007,0-0.007,0-0.014h0.007c0,0.007,0.007,0.007,0.007,0.007
	c0.007,0,0.007,0,0.007,0h0.007c0.028,0.014,0.049,0.021,0.07,0.021c0.015,0,0.021-0.007,0.028-0.007
	c0.007,0,0.021-0.007,0.028-0.007C78.282,77.97,78.261,77.963,78.239,77.956z M77.5,78.3c-0.006,0-0.006,0-0.014,0.007
	c-0.007,0-0.007,0.007-0.007,0.007c-0.007,0-0.014,0-0.014,0s-0.007,0-0.007,0.007c-0.007,0.006-0.014,0.006-0.021,0.014
	c0,0,0,0.014-0.007,0.021v0.007h0.007v-0.007h0.007l0.014-0.021c0.007-0.007,0.021-0.014,0.036-0.021
	c0.006-0.007,0.006-0.007,0.014-0.015H77.5z"/>
<path fill-rule="evenodd" clip-rule="evenodd" fill="#FDFDFD" d="M77.5,78.372h-0.042l-0.007-0.007l0.007-0.007
	c0.007-0.014,0.021-0.007,0.028-0.014h0.007L77.5,78.372z"/>
<path fill-rule="evenodd" clip-rule="evenodd" fill="#FDFDFD" d="M78.105,78.372h-0.007c0,0,0-0.021,0-0.049
	C78.105,78.35,78.105,78.372,78.105,78.372z"/>
<path fill-rule="evenodd" clip-rule="evenodd" fill="#FDFDFD" d="M77.331,78.427v0.007c-0.021,0.014-0.05,0.035-0.071,0.057
	c0.015-0.021,0.036-0.036,0.049-0.049C77.317,78.442,77.324,78.435,77.331,78.427z"/>
<path fill-rule="evenodd" clip-rule="evenodd" fill="#FDFDFD" d="M77.395,78.414v0.006c0-0.006-0.007-0.006-0.007-0.006H77.395z"/>
<path fill-rule="evenodd" clip-rule="evenodd" fill="#FDFDFD" d="M77.423,78.372l-0.007,0.006c-0.007,0.007-0.007,0.007-0.007,0.007
	v-0.014H77.423z"/>
<path fill-rule="evenodd" clip-rule="evenodd" fill="#FDFDFD" d="M78.113,77.794v0.014c0,0,0,0,0,0.007v0.007
	c-0.021,0.006-0.028,0.014-0.043,0.027v0.007l-0.006,0.007c0-0.015,0-0.028-0.007-0.049c0-0.007,0-0.007,0-0.007
	c0-0.028-0.007-0.057-0.014-0.078c0.007,0,0.021,0.007,0.035,0.021c0,0,0.007,0,0.007,0.007
	C78.098,77.766,78.105,77.78,78.113,77.794z"/>
<path fill-rule="evenodd" clip-rule="evenodd" fill="#FDFDFD" d="M78.119,77.695c-0.006,0-0.006,0-0.006,0.007
	c-0.007,0-0.015,0-0.015,0c-0.006,0.007-0.014,0.007-0.014,0.007c-0.007,0-0.021,0-0.028,0.007
	c-0.007,0.007-0.007,0.007-0.007,0.007v-0.007h-0.007c0-0.014-0.007-0.021-0.007-0.028h0.007c0-0.007-0.007-0.021-0.007-0.021h0.078
	v0.021C78.113,77.688,78.113,77.695,78.119,77.695z"/>
<path fill="none" d="M78.113,77.914c0,0.007,0,0.014,0,0.014c0,0.007,0,0.007,0,0.007c0,0.007,0,0.014,0,0.014"/>
<path fill-rule="evenodd" clip-rule="evenodd" fill="#FDFDFD" d="M78.113,78.026v0.007c0,0.014,0,0.021,0,0.021v0.007
	c0,0-0.021,0.007-0.028,0.007v-0.007c0-0.007,0-0.014-0.007-0.021c0.007-0.007,0.007-0.007,0.015-0.007c0.006,0,0.006,0,0.014-0.007
	H78.113z"/>
<path fill-rule="evenodd" clip-rule="evenodd" fill="#FDFDFD" d="M78.119,78.019c0,0-0.006,0-0.006,0.007v-0.007H78.119z"/>
<path fill-rule="evenodd" clip-rule="evenodd" fill="#FDFDFD" d="M78.303,77.97c-0.007,0-0.021,0.007-0.028,0.007
	c-0.007,0-0.014,0.007-0.028,0.007c0,0,0-0.007,0-0.014h-0.007c0-0.007,0-0.007,0-0.014C78.261,77.963,78.282,77.97,78.303,77.97z"
	/>
<path fill-rule="evenodd" clip-rule="evenodd" fill="#FDFDFD" d="M78.274,77.667c-0.007,0-0.007,0-0.014,0.007c0,0-0.007,0-0.015,0
	c0,0.007,0,0.007-0.007,0.007c-0.007,0.007-0.014,0.021-0.028,0.028v0.007l-0.007,0.007v-0.021c0.007-0.007,0.007-0.007,0.007-0.007
	c0-0.007,0-0.015-0.007-0.015c0-0.007,0-0.014,0-0.014h0.042c0.007,0,0.015,0,0.015,0C78.268,77.667,78.268,77.667,78.274,77.667z"
	/>
<path fill-rule="evenodd" clip-rule="evenodd" fill="#FDFDFD" d="M78.289,77.702c-0.007,0-0.014,0.007-0.021,0.021
	c0-0.007,0.007-0.015,0.007-0.015C78.282,77.702,78.282,77.702,78.289,77.702z"/>
<path fill-rule="evenodd" clip-rule="evenodd" fill="#8CC63F" d="M334.09,307.012c-1.113-3.972-2.774-3.95-5.894-3.443
	c-0.401,0.07-0.789,0.211-1.183,0.317c-1.823,0.493-3.662,0.937-5.464,1.493c-1.218,0.374-1.965-0.049-2.521-1.091
	c-1.599-2.993-3.69-5.612-6.07-8.021c-0.641-0.648-1.19-1.465-0.598-2.31c1.492-2.148,2.45-4.592,3.901-6.753
	c1.415-2.113,1.111-4.176-1.078-5.542c-4.112-2.557-8.352-4.923-12.549-7.345c-0.337-0.197-0.774-0.226-1.176-0.296
	c-2.514-0.451-3.521,1.366-4.556,3.084c-1.148,1.929-2.247,3.887-3.352,5.845c-0.445,0.789-0.945,0.929-1.881,0.697
	c-3.521-0.866-7.097-1.493-10.745-1.387c-1.049,0.028-1.633-0.402-1.874-1.402c-0.472-1.979-1.014-3.951-1.429-5.943
	c-0.043-0.197-0.085-0.388-0.134-0.571c-0.078-0.316-0.169-0.619-0.267-0.894c-0.176-0.528-0.395-0.979-0.642-1.366
	c-0.113-0.184-0.239-0.345-0.373-0.5c-0.035-0.049-0.077-0.091-0.12-0.134c-0.085-0.099-0.176-0.183-0.275-0.268
	c-0.084-0.077-0.176-0.141-0.268-0.204c-0.014-0.014-0.021-0.021-0.035-0.028c-0.204-0.141-0.423-0.253-0.655-0.345
	c-0.028-0.007-0.056-0.021-0.084-0.021c-0.091-0.035-0.184-0.022-0.275-0.05c-0.852-0.24-1.873,0.132-3.098,0.132h-0.705
	c-0.007,0-0.007,0-0.014,0c-0.155,0-0.302,0.079-0.458,0.128c-0.416,0.148-0.837,0.268-1.253,0.395
	c-0.042,0.014-0.078,0.021-0.12,0.036c-0.613,0.184-1.232,0.348-1.845,0.518c-0.739,0.197-1.472,0.393-2.212,0.59
	c-1.972,0.528-3.957,1.077-5.936,1.577c-0.091,0.021-0.183,0.063-0.274,0.091c-0.085,0.028-0.156,0.077-0.239,0.112
	c-0.008,0.007-0.015,0.274-0.028,0.281c-0.008,0-0.008,0.273-0.015,0.273h-0.007c-0.007,0-0.015-0.259-0.021-0.252
	c-0.007,0-0.007-0.126-0.014-0.126c-0.324,0.127-0.641,0.208-0.901,0.406c-0.141,0.098-0.41,0.178-0.522,0.291
	c-0.247,0.226-0.833,0.445-0.833,0.713c0,0,0,0,0,0.006v0.556c0,0,0,0,0,0.007c0,0.049,0.1,0.099,0.065,0.148
	c-0.036,0.049-0.009,0.098-0.024,0.148c-0.253,0.753-0.262,1.563-0.029,2.295c0.063,0.204,0.129,0.401,0.186,0.599
	c0.092,0.295-0.007,0.591,0.042,0.894c0.028,0.091-0.24,0.19-0.24,0.282v1.07c0,0.006,0.142,0.014,0.149,0.021
	c0.036,0.049,0.132,0.105,0.16,0.155c0.611,1.028,0.814,2.113,1.075,3.19c0.162,0.69,0.404,1.38,0.636,2.049
	c0.134,0.388,0.001,0.663-0.344,0.881c-2.176,1.415-4.319,2.838-6.488,4.261c-0.035,0.063-0.068,0.12-0.11,0.183
	c-0.282,0.479-0.626,0.901-1.013,1.289c-0.718,0.725-1.57,1.31-2.408,1.901c-0.112,0.077-0.345,0.105-0.492,0.056
	c-0.028-0.007-0.063-0.014-0.084-0.035c-1.676-1.126-3.824-1.556-5.07-3.31c-0.028-0.028-0.05-0.063-0.07-0.092
	c-0.669-0.077-1.254-0.373-1.831-0.704c-2.409-1.38-3.394-1.289-5.647,0.451c-0.035,0.021-0.071,0.057-0.106,0.085
	c-0.091,0.077-0.197-0.227-0.296-0.191c-0.042,0.021-0.091-0.226-0.134-0.226h-0.007c-0.007,0-0.021,0.423-0.035,0.479
	c-0.007,0.028-0.014,0.257-0.021,0.3c-0.036,0.19,0.054,0.59,0.026,0.794c-0.014,0.112,0.11,0.217,0.11,0.322v0.008
	c0,0.422-0.744,0.844-0.977,1.267c-0.12,0.211-0.291,0.422-0.411,0.633c-0.119,0.211-0.265,0.423-0.399,0.634
	c-0.38,0.634-0.784,1.268-1.171,1.901c-0.19,0.317-0.396,0.634-0.579,0.958c-0.098,0.155-0.202,0.317-0.293,0.479
	c-0.099,0.156-0.191,0.317-0.291,0.479c-0.225,0.38-0.452,0.761-0.67,1.142c-0.014,0.013-0.021,0.035-0.036,0.049
	c-0.105,0.197-0.225,0.394-0.338,0.599c-0.007,0.014-0.015,0.021-0.015,0.035c-0.021,0.028-0.042,0.063-0.056,0.091
	c0,0-0.007,0-0.007,0.007c-0.007,0.007-0.007,0.021-0.014,0.028c-0.353,0.626-0.711,1.26-1.057,1.901
	c-0.134,0.254-0.268,0.493-0.38,0.732c-0.036,0.056-0.064,0.113-0.085,0.169c-0.028,0.056-0.056,0.105-0.084,0.162
	c-0.042,0.099-0.091,0.197-0.126,0.295c-0.007,0.015-0.014,0.028-0.021,0.042c-0.057,0.12-0.106,0.24-0.148,0.352
	c-0.035,0.091-0.07,0.19-0.098,0.282c-0.036,0.099-0.071,0.205-0.099,0.303c-0.028,0.098-0.049,0.197-0.07,0.295
	c-0.091,0.416-0.112,0.803-0.049,1.183c0.021,0.134,0.057,0.26,0.099,0.394c0.057,0.169,0.134,0.338,0.232,0.507
	c0.027,0.056,0.063,0.112,0.098,0.169c0.078,0.112,0.155,0.226,0.246,0.338c0.465,0.563,1.163,1.126,2.163,1.733
	c2.028,1.239,4.091,2.429,6.155,3.612c0.464,0.274,0.88,0.549,0.837,1.098c0,0.063-0.006,0.126-0.021,0.197
	c-0.401,1.824-0.824,3.648-1.24,5.472c-0.007,0.07-0.007,0.133-0.014,0.204c-0.12,1.916-0.296,3.838-0.324,5.753
	c-0.014,0.965-0.387,1.324-1.26,1.535c-2.479,0.605-4.943,1.274-7.408,1.943c-2.76,0.747-3.866,2.564-3.161,5.304
	c1.105,4.295,2.246,8.591,3.422,12.872c0.803,2.922,2.605,3.908,5.57,3.126c2.416-0.633,4.845-1.246,7.239-1.957
	c0.908-0.268,1.345-0.036,1.803,0.76c1.887,3.232,4.099,6.232,6.781,8.852c0.592,0.57,0.641,1.007,0.232,1.696
	c-1.366,2.275-2.683,4.584-4.007,6.88c-1.352,2.331-0.789,4.514,1.535,5.873c3.831,2.247,7.676,4.479,11.521,6.697
	c2.549,1.472,4.591,0.944,6.083-1.578c1.303-2.196,2.605-4.393,3.831-6.633c0.436-0.788,0.831-1.056,1.767-0.796
	c3.606,1,7.303,1.508,11.048,1.508c0.895,0,1.24,0.324,1.444,1.154c0.577,2.38,1.295,4.726,1.837,7.112
	c0.395,1.726,1.261,2.979,2.894,3.676c0.669-0.028,1.331-0.056,1.993-0.084c4.415-1.155,8.837-2.303,13.26-3.464
	c3.007-0.789,4.07-2.621,3.274-5.613c-0.634-2.366-1.225-4.746-1.916-7.097c-0.274-0.923-0.176-1.473,0.732-1.986
	c3.268-1.832,6.211-4.127,8.852-6.789c0.591-0.592,1.006-0.592,1.683-0.176c2.218,1.359,4.486,2.648,6.739,3.958
	c2.409,1.401,4.592,0.873,5.993-1.514c2.274-3.88,4.528-7.767,6.768-11.668c1.352-2.359,0.774-4.479-1.556-5.859
	c-2.205-1.303-4.394-2.62-6.641-3.831c-0.88-0.472-1.12-0.951-0.859-1.923c0.971-3.563,1.5-7.204,1.443-10.908
	c-0.021-0.971,0.359-1.317,1.233-1.535c2.577-0.633,5.14-1.331,7.711-2.021c1.746-0.465,2.83-1.55,3.07-3.388
	C336.661,316.427,335.407,311.716,334.09,307.012z M308.641,331.286c-2.408,16.485-16.781,27.09-33.259,24.639
	c-14.344-2.133-25.279-16.33-23.709-30.801c0.155-1.395,0.021-2.866,0.895-4.105c-0.049-3.112,1.514-5.647,2.958-8.204
	c2.443-4.316,5.943-7.683,10.162-10.133c3.07-1.789,6.485-2.894,10.048-3.521c6.014-1.063,11.753-0.07,17.098,2.563
	c7.521,3.697,12.64,9.64,15.013,17.794c0.148,0.5,0.239,0.993,0.092,1.507C309.197,324.377,309.141,327.856,308.641,331.286z"/>
<path fill-rule="evenodd" clip-rule="evenodd" fill="#E6E6E6" d="M181.19,198.631c0,20.907-0.006,41.806-0.006,62.713
	c0,2.042-0.274,2.322-2.282,2.322h-37.103c-11.655,0-23.309,0.037-34.956-0.02c-4.633-0.028-3.895,0.223-3.901-3.841
	c-0.028-20.442-0.007-40.89-0.007-61.332c0-1.838,0.183-2.042,2-2.042c24.681-0.006,49.37-0.003,74.051,0.004
	c0.247,0,0.472-0.001,0.669,0.014c0.197,0.006,0.366,0.016,0.521,0.038c0.225,0.042,0.401,0.179,0.535,0.179
	c0.007,0,0.007,0,0.007,0c0.05,0,0.084,0.082,0.12,0.116c0.154,0.148,0.239,0.365,0.289,0.667
	C181.177,197.746,181.19,198.139,181.19,198.631z"/>
<path fill-rule="evenodd" clip-rule="evenodd" fill="#E6E6E6" d="M306,153.353c-0.043,5.979-0.007,11.957-0.028,17.943
	c0,1.753-0.493,2.112-2.247,2c-0.957-0.063-1.929,0.063-2.894,0.063c-5.268,0.007-10.528,0-16.725,0
	c-6.12-0.05-13.175-0.204-20.217-0.12c-9.5,0.113-19.006,0.07-28.513,0.105c-13.682,0.057-27.372,0.021-41.054,0.014
	c-11.999,0-23.992-0.021-35.991-0.028c-1.119,0-1.683-0.479-1.676-1.662c0.014-6.239,0.035-12.471-0.015-18.71
	c-0.006-1.521,0.853-1.577,1.986-1.577c9.916,0.021,19.837,0.014,29.752,0.014c33.667,0,67.327,0.007,100.994,0.007
	c4.895,0,9.782,0.049,14.675-0.035C305.585,151.339,306.007,151.944,306,153.353z"/>
<path fill-rule="evenodd" clip-rule="evenodd" fill="#FDFDFD" d="M257.714,287.703c-2.176,1.415-4.338,2.964-6.507,3.964
	c-0.007,0-0.007,0-0.014,0c-3.084,0-6.168,0.17-9.252,0.289c-0.669-0.077-1.254-0.225-1.831-0.556
	c-2.409-1.38-3.394-1.214-5.647,0.525c-0.113,0.085-0.26,0.164-0.402,0.213c-0.049,0.014-0.105,0.053-0.154,0.075
	c-4.958-0.021-9.915-0.047-14.873-0.047c-37.688-0.007-75.369,0.005-113.049-0.002c-1.479,0-2.254,0.08-2.662-0.138
	c-0.113-0.063-0.204-0.154-0.268-0.281c-0.204-0.416-0.162-1.21-0.162-2.746c0.007-1.739,0-3.528,0.007-5.268
	c0.014-1.958,0.063-2.064,1.958-2.064h43.412c27.97,0,55.933,0.058,83.904,0.05c2.049,0,4.105,0.047,6.154,0.04
	c1.973-0.007,3.938-0.017,5.902-0.031c4.014-0.014,8.027-0.059,12.041-0.059c0.007,0,0.007,0,0.014,0h0.212
	c0.5,1,0.753,2.24,1.035,3.374c0.162,0.689,0.331,1.247,0.563,1.916C258.229,287.344,258.059,287.484,257.714,287.703z"/>
<path fill-rule="evenodd" clip-rule="evenodd" fill="#FDFDFD" d="M341.266,206.202c0-0.007,0-0.015,0.006-0.021v0.007
	C341.266,206.194,341.266,206.194,341.266,206.202z"/>
<path fill-rule="evenodd" clip-rule="evenodd" fill="#FDFDFD" d="M352.477,196.597c-3.169,2.274-6.478,4.542-9.64,6.837
	c-0.922,0.668-1.837,1.57-1.837,2.746v0.007c0,0.007,0.132-0.035,0.132-0.027c-0.091,0.183,0.028,0.507-0.057,0.507h-0.048
	c-45.892,0-91.805,0.049-137.704,0.055c-0.732,0-1.252,0.021-1.626-0.035c-0.915-0.147-0.922-0.651-0.922-2.46
	c0-2.042,0.07-4.087-0.021-6.129c-0.028-0.641,0.07-1.061,0.316-1.321c0.289-0.31,0.761-0.407,1.458-0.407
	c17.33,0.035,34.667,0.021,51.997,0.021c32.21,0.007,64.419,0.006,96.628,0.021C351.596,196.413,352.075,196.245,352.477,196.597z"
	/>
<path fill-rule="evenodd" clip-rule="evenodd" fill="#FDFDFD" d="M333.717,256.621c-0.071,1.113-0.141,2.232-0.219,3.345
	c0.042-0.028,0.084-0.049,0.126-0.077c-0.021,0.077-0.042,0.155-0.063,0.232c-0.014-0.05-0.035-0.099-0.048-0.148
	c-0.036,1.246-0.071,2.493-0.106,3.739c-23.104-0.007-46.208-0.021-69.305-0.021c-20.625-0.007-41.251-0.014-61.884,0.007
	c-1.183,0-1.5-0.493-1.479-1.563c0.049-2.197,0.015-4.401,0.021-6.599c0-2.232,0.007-2.239,2.197-2.239
	c18.189,0,36.385-0.007,54.581-0.007c21.569,0.007,43.138,0.014,64.708,0.014c0.972,0,1.943-0.057,2.915-0.091
	c2.817,0.253,5.359,1.507,8.028,2.302C333.773,255.684,333.752,256.157,333.717,256.621z"/>
<path fill-rule="evenodd" clip-rule="evenodd" fill="#FDFDFD" d="M345.448,224.989c-0.922,1.408-1.887,2.782-2.746,4.226
	c-0.443,0.753-0.88,0.908-1.718,0.62c-3.514-1.197-7.049-2.331-10.577-3.464c-2.972-0.958-5.07,0.084-6.126,3.006
	c-0.711,1.951-1.134,4.007-2.05,5.887c-7.978-0.021-15.95-0.056-23.921-0.056c-31.751-0.008-63.496,0-95.241-0.008
	c-2.225,0-2.324,0.198-2.253-2.253c0.07-2.197,0.049-4.401-0.007-6.598c-0.028-1.05,0.359-1.444,1.422-1.437
	c3.218,0.014,6.443-0.071,9.662-0.071c44.011-0.006,88.03-0.006,132.048,0C344.441,224.841,344.963,224.736,345.448,224.989z"/>
<path fill-rule="evenodd" clip-rule="evenodd" fill="#FDFDFD" d="M383.256,199.357c0.05,0.69-0.232,0.964-0.915,1.12
	c-3.472,0.81-6.873,1.859-10.14,3.295c-0.881,0.387-1.268,0.028-1.726-0.612c-1.57-2.19-3.183-4.352-4.782-6.521
	c0.648-0.464,1.388-0.232,2.084-0.24c5.105-0.042,10.218-0.049,15.331-0.07C383.439,197.329,383.179,198.35,383.256,199.357z"/>
<path fill-rule="evenodd" clip-rule="evenodd" fill="#E34037" d="M389.921,183.112c0,0,0.064-0.001,0.064,0
	S389.921,183.112,389.921,183.112z"/>
<path fill-rule="evenodd" clip-rule="evenodd" fill="#FCEE21" d="M388.352,234.247c0.018,2.145,0.05,4.291,0.052,6.436
	c0.016,16.1,0.026,32.201,0.033,48.301c0.001,0.252-0.065,0.503-0.101,0.755c-3.148-0.524-5.824-2.107-8.387-3.87
	c-6.069-4.172-9.888-10.011-11.636-17.049c-2.666-10.735,1.184-22.2,9.627-29.113c2.709-2.218,5.665-3.941,8.921-5.173
	C387.327,234.359,387.853,234.339,388.352,234.247z"/>
<path fill-rule="evenodd" clip-rule="evenodd" fill="#E34037" d="M333.509,259.973c0.018,0.049,0.037,0.099,0.055,0.148
	c0.021-0.078,0.041-0.155,0.061-0.231c-0.041,0.025-0.083,0.05-0.124,0.075C333.5,259.965,333.509,259.973,333.509,259.973z"/>
<path fill-rule="evenodd" clip-rule="evenodd" fill="#E34037" d="M341.29,206.138c0,0-0.028,0.064-0.028,0.064
	C341.263,206.203,341.29,206.138,341.29,206.138z"/>
<path fill-rule="evenodd" clip-rule="evenodd" fill="#BF2523" d="M78.126,78.026v0.007c-0.007,0-0.007,0-0.014,0
	c-0.007,0-0.007,0-0.015,0.007h-0.006c-0.007,0-0.007,0-0.015,0c0.007,0.007,0.007,0.014,0.007,0.021c0.007,0,0.021,0,0.028-0.007
	c0.006,0,0.006-0.007,0.014-0.007c0.007-0.007,0.015-0.014,0.021-0.028C78.141,78.019,78.134,78.026,78.126,78.026z M78.113,78.019
	v0.007c0-0.007,0.006-0.007,0.006-0.007H78.113z M78.113,77.984v0.007l0.006-0.007H78.113z M78.246,77.97h-0.007
	c-0.021-0.007-0.035-0.014-0.056-0.021c-0.007-0.007-0.021-0.007-0.028-0.014c-0.007-0.007-0.014-0.014-0.014-0.014
	c-0.007,0-0.007,0-0.007,0c-0.007,0-0.007-0.007-0.015-0.007h-0.006c0-0.007-0.007-0.007-0.015-0.007c0,0.007,0,0.007,0,0.007
	c0,0.007,0,0.007,0,0.007v0.021c0.007,0,0.015,0.007,0.015,0.007s0.006,0,0.006,0.007l0.007,0.007h0.007l0.007,0.007h0.006
	c0-0.007,0-0.007,0-0.014h0.007c0,0.007,0.007,0.007,0.007,0.007c0.007,0,0.007,0,0.007,0h0.007c0.028,0.014,0.049,0.021,0.07,0.021
	c0.015,0,0.021-0.007,0.028-0.007C78.268,77.977,78.253,77.977,78.246,77.97z M77.5,78.3c-0.006,0-0.006,0-0.014,0.007
	c-0.007,0-0.007,0.007-0.007,0.007c-0.007,0-0.014,0-0.014,0s-0.007,0-0.007,0.007c-0.007,0.006-0.014,0.006-0.021,0.014
	c0,0,0,0.014-0.007,0.021v0.007h0.007v-0.007h0.007l0.014-0.021c0.007-0.007,0.021-0.014,0.036-0.021
	c0.006-0.007,0.006-0.007,0.014-0.015H77.5z M78.183,77.724v0.006c0,0,0.006,0,0.006-0.006H78.183z M78.218,77.695h-0.006
	c0,0,0,0-0.007,0.007v0.021l0.007-0.007v-0.007c0.014-0.007,0.021-0.021,0.028-0.028C78.232,77.688,78.225,77.695,78.218,77.695z
	 M78.211,77.758c-0.007,0.015-0.014,0.021-0.022,0.036c0,0-0.006,0.007-0.014,0.014c0-0.014,0.007-0.028,0.007-0.057
	c0-0.007,0-0.007,0-0.014h-0.014c0,0.007,0,0.007,0,0.007c-0.007,0-0.007,0-0.007,0c0,0.007,0,0.007,0,0.007
	c-0.007,0-0.007,0-0.007,0l-0.007,0.007v0.007c-0.006,0.007-0.014,0.014-0.021,0.014v0.007c0,0.007,0,0.007,0,0.014
	c0.007,0.007,0.007,0.007,0.007,0.014v0.007c0,0.014,0,0.021,0,0.021c0.007,0,0.007-0.007,0.014-0.028h0.007v0.021c0,0,0,0,0.007,0
	v-0.008c0,0,0.007,0,0.007-0.006c0,0,0,0,0.007,0c0,0.006,0,0.006,0,0.014c0.014-0.008,0.021-0.014,0.028-0.028
	c0,0,0.007-0.007,0.014-0.007v-0.014C78.218,77.773,78.218,77.766,78.211,77.758z M78.141,77.857c0,0.007,0,0.007,0,0.007
	s0,0,0,0.007v0.007c0.006,0,0.006,0,0.006-0.007s0-0.007,0-0.007v-0.007H78.141z M78.239,77.674v0.007c0.007,0,0.007,0,0.007-0.007
	H78.239z M78.274,77.709c0,0-0.007,0.007-0.007,0.015c0.007-0.015,0.014-0.021,0.021-0.021
	C78.282,77.702,78.282,77.702,78.274,77.709z M78.126,77.885c0.007,0,0.007,0,0.015,0v-0.007
	C78.141,77.878,78.134,77.885,78.126,77.885z M78.084,77.893c-0.007,0-0.015,0-0.015,0c0,0.007,0,0.014,0,0.014
	c0.007,0,0.007,0,0.015,0c0,0,0.007,0,0.014,0l0.007-0.007C78.098,77.899,78.092,77.899,78.084,77.893z"/>
<path fill-rule="evenodd" clip-rule="evenodd" fill="#BF2523" d="M78.183,77.724v0.006c0,0,0.006,0,0.006-0.006H78.183z
	 M78.218,77.695h-0.006c0,0,0,0-0.007,0.007v0.021l0.007-0.007v-0.007c0.014-0.007,0.021-0.021,0.028-0.028
	C78.232,77.688,78.225,77.695,78.218,77.695z M78.211,77.758c-0.007,0.015-0.014,0.021-0.022,0.036c0,0-0.006,0.007-0.014,0.014
	c0-0.014,0.007-0.028,0.007-0.057c0-0.007,0-0.007,0-0.014h-0.014c0,0.007,0,0.007,0,0.007c-0.007,0-0.007,0-0.007,0
	c0,0.007,0,0.007,0,0.007c-0.007,0-0.007,0-0.007,0l-0.007,0.007v0.007c-0.006,0.007-0.014,0.014-0.021,0.014v0.007
	c0,0.007,0,0.007,0,0.014c0.007,0.007,0.007,0.007,0.007,0.014v0.007c0,0.014,0,0.021,0,0.021c0.007,0,0.007-0.007,0.014-0.028
	h0.007v0.021c0,0,0,0,0.007,0v-0.008c0,0,0.007,0,0.007-0.006c0,0,0,0,0.007,0c0,0.006,0,0.006,0,0.014
	c0.014-0.008,0.021-0.014,0.028-0.028c0,0,0.007-0.007,0.014-0.007v-0.014C78.218,77.773,78.218,77.766,78.211,77.758z
	 M78.141,77.857c0,0.007,0,0.007,0,0.007s0,0,0,0.007v0.007c0.006,0,0.006,0,0.006-0.007s0-0.007,0-0.007v-0.007H78.141z
	 M78.239,77.674v0.007c0.007,0,0.007,0,0.007-0.007H78.239z M78.274,77.709c0,0-0.007,0.007-0.007,0.015
	c0.007-0.015,0.014-0.021,0.021-0.021C78.282,77.702,78.282,77.702,78.274,77.709z M78.126,77.885c0.007,0,0.007,0,0.015,0v-0.007
	C78.141,77.878,78.134,77.885,78.126,77.885z M78.084,77.893c-0.007,0-0.015,0-0.015,0c0,0.007,0,0.014,0,0.014
	c0.007,0,0.007,0,0.015,0v0.007h0.007c0.006,0,0.006,0,0.006,0s0,0,0-0.007l0.007-0.007C78.098,77.899,78.092,77.899,78.084,77.893z
	 M78.126,78.026v0.007c-0.007,0-0.007,0-0.014,0c-0.007,0-0.007,0-0.015,0.007h-0.006c-0.007,0-0.007,0-0.015,0
	c0.007,0.007,0.007,0.014,0.007,0.021c0.007,0,0.021,0,0.028-0.007c0.006,0,0.006-0.007,0.014-0.007
	c0.007-0.007,0.015-0.014,0.021-0.028C78.141,78.019,78.134,78.026,78.126,78.026z M78.113,78.019v0.007
	c0-0.007,0.006-0.007,0.006-0.007H78.113z M78.113,77.984v0.007l0.006-0.007H78.113z M78.134,77.949v-0.007
	c0,0-0.007-0.007-0.015-0.007h-0.006c0,0,0,0,0-0.007c-0.007,0-0.007,0-0.015-0.007v0.021c0.007,0,0.015,0.007,0.015,0.007
	s0.006,0,0.006,0.007l0.007,0.007h0.007l0.007,0.007h0.006c0-0.007,0-0.007,0-0.014C78.141,77.949,78.141,77.949,78.134,77.949z
	 M77.5,78.3c-0.006,0-0.006,0-0.014,0.007c-0.007,0-0.007,0.007-0.007,0.007c-0.007,0-0.014,0-0.014,0s-0.007,0-0.007,0.007
	c-0.007,0.006-0.014,0.006-0.021,0.014c0,0,0,0.014-0.007,0.021v0.007h0.007v-0.007h0.007l0.014-0.021
	c0.007-0.007,0.021-0.014,0.036-0.021c0.006-0.007,0.006-0.007,0.014-0.015H77.5z"/>
<path fill-rule="evenodd" clip-rule="evenodd" fill="#BF2523" d="M78.183,77.724v0.006c0,0,0.006,0,0.006-0.006H78.183z
	 M78.218,77.695h-0.006c0,0,0,0-0.007,0.007v0.021l0.007-0.007v-0.007c0.014-0.007,0.021-0.021,0.028-0.028
	C78.232,77.688,78.225,77.695,78.218,77.695z M78.211,77.758c-0.007,0.015-0.014,0.021-0.022,0.036c0,0-0.006,0.007-0.014,0.014
	c0-0.014,0.007-0.028,0.007-0.057c0-0.007,0-0.007,0-0.014h-0.014c0,0.007,0,0.007,0,0.007c-0.007,0-0.007,0-0.007,0
	c0,0.007,0,0.007,0,0.007c-0.007,0-0.007,0-0.007,0l-0.007,0.007v0.007c-0.006,0.007-0.014,0.014-0.021,0.014v0.007
	c0,0.007,0,0.007,0,0.014c0.007,0.007,0.007,0.007,0.007,0.014v0.007c0,0.014,0,0.021,0,0.021c0.007,0,0.007-0.007,0.014-0.028
	h0.007v0.021c0,0,0,0,0.007,0v-0.008c0,0,0.007,0,0.007-0.006c0,0,0,0,0.007,0c0,0.006,0,0.006,0,0.014
	c0.014-0.008,0.021-0.014,0.028-0.028c0,0,0.007-0.007,0.014-0.007v-0.014C78.218,77.773,78.218,77.766,78.211,77.758z
	 M78.141,77.857c0,0.007,0,0.007,0,0.007s0,0,0,0.007v0.007c0.006,0,0.006,0,0.006-0.007s0-0.007,0-0.007v-0.007H78.141z
	 M78.239,77.674v0.007c0.007,0,0.007,0,0.007-0.007H78.239z M78.274,77.709c0,0-0.007,0.007-0.007,0.015
	c0.007-0.015,0.014-0.021,0.021-0.021C78.282,77.702,78.282,77.702,78.274,77.709z M78.126,77.885c0.007,0,0.007,0,0.015,0v-0.007
	C78.141,77.878,78.134,77.885,78.126,77.885z M78.084,77.893c-0.007,0-0.015,0-0.015,0c0,0.007,0,0.014,0,0.014
	c0.007,0,0.007,0,0.015,0v0.007h0.007c0,0.007,0.006,0.007,0.006,0.007s0,0,0-0.007c0,0,0,0,0-0.007l0.007-0.007
	C78.098,77.899,78.092,77.899,78.084,77.893z M78.126,78.026v0.007c-0.007,0-0.007,0-0.014,0c-0.007,0-0.007,0-0.015,0.007h-0.006
	c-0.007,0-0.007,0-0.015,0c0.007,0.007,0.007,0.014,0.007,0.021c0.007,0,0.021,0,0.028-0.007c0.006,0,0.006-0.007,0.014-0.007
	c0.007-0.007,0.015-0.014,0.021-0.028C78.141,78.019,78.134,78.026,78.126,78.026z M78.113,78.019v0.007
	c0-0.007,0.006-0.007,0.006-0.007H78.113z M78.113,77.984v0.007l0.006-0.007H78.113z M78.134,77.949v-0.007
	c0,0-0.007-0.007-0.015-0.007h-0.006c0,0,0,0,0-0.007c-0.007,0-0.007,0-0.015-0.007v0.021c0.007,0,0.015,0.007,0.015,0.007
	s0.006,0,0.006,0.007l0.007,0.007h0.007l0.007,0.007h0.006c0-0.007,0-0.007,0-0.014C78.141,77.949,78.141,77.949,78.134,77.949z
	 M77.5,78.3c-0.006,0-0.006,0-0.014,0.007c-0.007,0-0.007,0.007-0.007,0.007c-0.007,0-0.014,0-0.014,0s-0.007,0-0.007,0.007
	c-0.007,0.006-0.014,0.006-0.021,0.014c0,0,0,0.014-0.007,0.021v0.007h0.007v-0.007h0.007l0.014-0.021
	c0.007-0.007,0.021-0.014,0.036-0.021c0.006-0.007,0.006-0.007,0.014-0.015H77.5z"/>
<path fill-rule="evenodd" clip-rule="evenodd" fill="#BF2523" d="M78.126,78.026v0.007c-0.007,0-0.007,0-0.014,0
	c-0.007,0-0.007,0-0.015,0.007h-0.006c-0.007,0-0.007,0-0.015,0c0.007,0.007,0.007,0.014,0.007,0.021c0.007,0,0.021,0,0.028-0.007
	c0.006,0,0.006-0.007,0.014-0.007c0.007-0.007,0.015-0.014,0.021-0.028C78.141,78.019,78.134,78.026,78.126,78.026z M78.092,77.935
	v0.007h0.006v-0.007C78.092,77.935,78.092,77.935,78.092,77.935z M78.113,78.019v0.007c0-0.007,0.006-0.007,0.006-0.007H78.113z
	 M78.113,77.984v0.007l0.006-0.007H78.113z M77.5,78.3c-0.006,0-0.006,0-0.014,0.007c-0.007,0-0.007,0.007-0.007,0.007
	c-0.007,0-0.014,0-0.014,0s-0.007,0-0.007,0.007c-0.007,0.006-0.014,0.006-0.021,0.014c0,0,0,0.014-0.007,0.021v0.007h0.007v-0.007
	h0.007l0.014-0.021c0.007-0.007,0.021-0.014,0.036-0.021c0.006-0.007,0.006-0.007,0.014-0.015H77.5z M78.183,77.724v0.006
	c0,0,0.006,0,0.006-0.006H78.183z M78.218,77.695h-0.006c0,0,0,0-0.007,0.007v0.021l0.007-0.007v-0.007
	c0.014-0.007,0.021-0.021,0.028-0.028C78.232,77.688,78.225,77.695,78.218,77.695z M78.211,77.758
	c-0.007,0.015-0.014,0.021-0.022,0.036c0,0-0.006,0.007-0.014,0.014c0-0.014,0.007-0.028,0.007-0.057c0-0.007,0-0.007,0-0.014
	h-0.014c0,0.007,0,0.007,0,0.007c-0.007,0-0.007,0-0.007,0c0,0.007,0,0.007,0,0.007c-0.007,0-0.007,0-0.007,0l-0.007,0.007v0.007
	c-0.006,0.007-0.014,0.014-0.021,0.014v0.007c0,0.007,0,0.007,0,0.014c0.007,0.007,0.007,0.007,0.007,0.014v0.007
	c0,0.014,0,0.021,0,0.021c0.007,0,0.007-0.007,0.014-0.028h0.007v0.021c0,0,0,0,0.007,0v-0.008c0,0,0.007,0,0.007-0.006
	c0,0,0,0,0.007,0c0,0.006,0,0.006,0,0.014c0.014-0.008,0.021-0.014,0.028-0.028c0,0,0.007-0.007,0.014-0.007v-0.014
	C78.218,77.773,78.218,77.766,78.211,77.758z M78.141,77.857c0,0.007,0,0.007,0,0.007s0,0,0,0.007v0.007
	c0.006,0,0.006,0,0.006-0.007s0-0.007,0-0.007v-0.007H78.141z M78.239,77.674v0.007c0.007,0,0.007,0,0.007-0.007H78.239z
	 M78.274,77.709c0,0-0.007,0.007-0.007,0.015c0.007-0.015,0.014-0.021,0.021-0.021C78.282,77.702,78.282,77.702,78.274,77.709z
	 M78.126,77.885c0.007,0,0.007,0,0.015,0v-0.007C78.141,77.878,78.134,77.885,78.126,77.885z M78.084,77.893
	c-0.007,0-0.015,0-0.015,0c0,0.007,0,0.014,0,0.014v0.007c0,0.007,0.007,0.007,0.015,0.007l0.007,0.007h0.006V77.92c0,0,0,0,0-0.007
	c0,0,0,0,0-0.007l0.007-0.007C78.098,77.899,78.092,77.899,78.084,77.893z"/>
<path fill="none" d="M78.218,77.695h-0.006c0,0,0,0-0.007,0.007v0.021l0.007-0.007v-0.007c0.014-0.007,0.021-0.021,0.028-0.028
	C78.232,77.688,78.225,77.695,78.218,77.695z M78.239,77.674v0.007c0.007,0,0.007,0,0.007-0.007H78.239z M78.274,77.709
	c0,0-0.007,0.007-0.007,0.015c0.007-0.015,0.014-0.021,0.021-0.021C78.282,77.702,78.282,77.702,78.274,77.709z M78.126,78.026
	v0.007c-0.007,0-0.007,0-0.014,0c-0.007,0-0.007,0-0.015,0.007h-0.006c-0.007,0-0.007,0-0.015,0
	c0.007,0.007,0.007,0.014,0.007,0.021c0.007,0,0.021,0,0.028-0.007c0.006,0,0.006-0.007,0.014-0.007
	c0.007-0.007,0.015-0.014,0.021-0.028C78.141,78.019,78.134,78.026,78.126,78.026z M78.113,78.019v0.007
	c0-0.007,0.006-0.007,0.006-0.007H78.113z M78.113,77.984v0.007l0.006-0.007H78.113z M77.408,78.364v0.021c0,0,0,0,0.007-0.007
	l0.007-0.006v-0.007H77.408z M77.5,78.294c-0.006,0.006-0.021,0.006-0.035,0.021c0,0-0.007,0-0.007,0.007
	c-0.007,0.006-0.014,0.006-0.021,0.014c0,0,0,0.014-0.007,0.021v0.007h0.007v-0.007h0.007l0.014-0.021
	c0.007-0.007,0.021-0.014,0.036-0.021c0.006-0.007,0.006-0.007,0.014-0.015l0.007-0.006C77.507,78.294,77.5,78.294,77.5,78.294z
	 M78.176,77.702v0.021c0-0.007,0-0.015,0.007-0.021H78.176z M78.204,77.681c0-0.007,0-0.014,0-0.014c-0.007,0-0.007,0-0.015,0
	h-0.098c0,0,0,0,0,0.007c-0.007,0.007-0.007,0.021-0.007,0.035c0,0,0.007,0,0.014-0.007c0,0,0.007,0,0.015,0
	c0-0.007,0-0.007,0.006-0.007c0.007,0,0.007,0,0.007,0.007v-0.007c0.021-0.007,0.036-0.015,0.057-0.015v0.043h0.006l0.015-0.007
	v-0.014c0.007-0.007,0.007-0.007,0.007-0.007C78.211,77.688,78.211,77.681,78.204,77.681z M78.092,77.928h0.006V77.92
	c0,0,0,0,0-0.007c0,0,0,0,0-0.007l0.007-0.007 M78.239,77.956c0,0.007,0,0.007,0.007,0.014c0,0.007,0,0.014,0,0.014 M78.077,77.751
	c0,0.049,0,0.098-0.007,0.098"/>
<path fill="none" d="M78.189,77.667c0,0.007,0,0.007,0,0.014c0,0,0.008,0,0.015,0c0-0.007,0-0.014,0-0.014
	C78.197,77.667,78.197,77.667,78.189,77.667z M78.113,77.984v0.007l0.006-0.007H78.113z M78.126,78.026
	c0.007,0,0.007-0.007,0.007-0.014c-0.007,0.007-0.007,0.007-0.015,0.007h-0.006v0.007h-0.007c-0.007,0.007-0.007,0.007-0.014,0.007
	c-0.007,0-0.007,0-0.015,0.007c0.007,0.007,0.007,0.014,0.007,0.021c0.007,0,0.021,0,0.028-0.007c0.006,0,0.006-0.007,0.014-0.007
	c0.007-0.007,0.015-0.014,0.021-0.028C78.141,78.019,78.134,78.026,78.126,78.026z M78.239,77.97c0-0.007,0-0.007,0-0.014
	c-0.021-0.007-0.035-0.014-0.05-0.021c-0.006,0-0.021-0.007-0.027-0.007l-0.007-0.007c0,0.007,0,0.014,0,0.014
	c0,0.007,0,0.014-0.007,0.021h0.007c0,0.007,0.007,0.007,0.007,0.007c0.007,0,0.007,0,0.007,0h0.007
	c0.028,0.014,0.049,0.021,0.07,0.021c0,0,0-0.007,0-0.014H78.239z M78.126,77.885c0.007,0,0.007,0,0.015,0v-0.007
	C78.141,77.878,78.134,77.885,78.126,77.885z M78.049,77.716v0.007c0,0,0,0,0.007-0.007H78.049z M78.119,77.695
	c0.007,0,0.007,0,0.007,0.007v-0.007H78.119z M78.169,77.737c0,0.007,0,0.007,0,0.007c-0.007,0-0.007,0-0.007,0
	c0,0.007,0,0.007,0,0.007c-0.007,0-0.007,0-0.007,0l-0.007,0.007v0.007c-0.006,0.007-0.014,0.014-0.021,0.014v0.007
	c0,0.007,0,0.007,0,0.014c0.007,0.007,0.007,0.007,0.007,0.014v0.007c0,0.014,0,0.021,0,0.021c0.007,0,0.007-0.007,0.014-0.028
	h0.007v0.021c0,0,0,0,0.007,0v-0.008c0,0,0.007,0,0.007-0.006c0,0,0,0,0.007,0v-0.014c0-0.014,0.007-0.028,0.007-0.057
	c0-0.007,0-0.007,0-0.014H78.169z M78.141,77.857c0,0.007,0,0.007,0,0.007s0,0,0,0.007v0.007c0.006,0,0.006,0,0.006-0.007
	s0-0.007,0-0.007v-0.007H78.141z M78.176,77.702v0.021c0-0.007,0-0.015,0.007-0.021H78.176z M78.183,77.681v0.021
	c0.006-0.007,0.006-0.014,0.006-0.021C78.189,77.681,78.189,77.681,78.183,77.681z M78.084,77.893c-0.007,0.007,0,0.014,0,0.014
	v0.014l0.007,0.007h0.006V77.92c0,0,0,0,0-0.007c0,0,0,0,0-0.007l0.007-0.007C78.098,77.899,78.092,77.899,78.084,77.893z
	 M77.5,78.294V78.3c-0.006,0-0.006,0-0.014,0.007c-0.007,0-0.007,0.007-0.007,0.007c-0.007,0-0.014,0-0.021,0.007
	c-0.007,0.006-0.014,0.006-0.021,0.014c0,0,0,0.014-0.007,0.021v0.007h0.007v-0.007h0.007l0.014-0.021
	c0.007-0.007,0.021-0.014,0.036-0.021c0.006-0.007,0.006-0.007,0.014-0.015l0.007-0.006C77.507,78.294,77.5,78.294,77.5,78.294z
	 M78.239,77.674c-0.007-0.007-0.007,0-0.014,0s-0.014,0-0.021,0.007c0.007,0,0.007,0.007,0.007,0.015c0,0,0,0-0.007,0.007v0.021
	l0.007-0.007v-0.007c0.014-0.007,0.021-0.021,0.028-0.028c0.007,0,0.007,0,0.007-0.007H78.239z M78.274,77.709
	c0,0-0.007,0.007-0.007,0.015c0.007-0.015,0.014-0.021,0.021-0.021C78.282,77.702,78.282,77.702,78.274,77.709z M78.07,77.85
	c-0.006-0.013-0.006-0.027-0.014-0.035"/>
<path fill="none" d="M78.218,77.695c0,0,0,0.007-0.006,0.014c0.014-0.007,0.021-0.021,0.028-0.028
	C78.232,77.688,78.225,77.695,78.218,77.695z M78.239,77.674v0.007c0.007,0,0.007,0,0.007-0.007H78.239z M78.274,77.709
	c0,0-0.007,0.007-0.007,0.015c0.007-0.015,0.014-0.021,0.021-0.021C78.282,77.702,78.282,77.702,78.274,77.709z M78.113,77.984
	v0.007l0.006-0.007H78.113z M78.126,78.026c0.007,0,0.007-0.007,0.007-0.014c-0.007,0.007-0.007,0.007-0.015,0.007h-0.006v0.007
	h-0.007c-0.007,0.007-0.007,0.007-0.014,0.007c-0.007,0-0.007,0-0.015,0.007c0.007,0.007,0.007,0.014,0.007,0.021
	c0.007,0,0.021,0,0.028-0.007c0.006,0,0.006-0.007,0.014-0.007c0.007-0.007,0.015-0.014,0.021-0.028
	C78.141,78.019,78.134,78.026,78.126,78.026z M77.493,78.343h-0.007c-0.007,0.007-0.021,0-0.028,0.014l-0.007,0.007l0.007,0.007
	H77.5L77.493,78.343z M77.5,78.294V78.3c-0.006,0-0.006,0-0.014,0.007c-0.007,0-0.007,0.007-0.007,0.007c-0.007,0-0.014,0-0.014,0
	s-0.007,0-0.007,0.007c-0.007,0.006-0.014,0.006-0.021,0.014c0,0,0,0.014-0.007,0.021v0.007h0.007v-0.007h0.007l0.014-0.021
	c0.007-0.007,0.021-0.014,0.036-0.021c0.006-0.007,0.006-0.007,0.014-0.015l0.007-0.006C77.507,78.294,77.5,78.294,77.5,78.294z
	 M78.162,77.745c0,0.007,0,0.007,0,0.007h0.007c0,0,0,0,0-0.007C78.162,77.745,78.162,77.745,78.162,77.745z M78.169,77.737
	c0,0.007,0,0.007,0,0.007l0.007-0.007H78.169z M78.176,77.702v0.021c0-0.007,0-0.015,0.007-0.021H78.176z M78.204,77.681
	c0-0.007,0-0.014,0-0.014c-0.007,0-0.007,0-0.015,0c0,0-0.006,0.007-0.006,0.014v0.049c0,0,0.006,0,0.006-0.006l0.015-0.007v-0.014
	c0.007-0.007,0.007-0.007,0.007-0.007C78.211,77.688,78.211,77.681,78.204,77.681z M78.147,77.766
	c-0.006,0.007-0.014,0.014-0.021,0.014v0.007c0,0.007,0,0.007,0,0.014c0.007,0.007,0.007,0.007,0.007,0.014v0.007
	c0,0.014,0,0.021,0,0.021c0.007,0,0.007-0.007,0.014-0.028v-0.021c0.007-0.007,0.007-0.014,0.015-0.028v-0.007
	C78.162,77.758,78.155,77.766,78.147,77.766z M78.092,77.928h0.006V77.92c0,0,0,0,0-0.007c0,0,0,0,0-0.007l0.007-0.007
	 M78.239,77.956c0,0.007,0,0.007,0,0.014h0.007c0,0.007,0,0.014,0,0.014"/>
<path fill="none" d="M77.493,78.343h-0.007l0.014,0.028L77.493,78.343z M78.098,78.322c0,0.028,0,0.049,0,0.049h0.007
	C78.105,78.372,78.105,78.35,78.098,78.322z M78.147,77.766c-0.006,0.007-0.014,0.014-0.021,0.014v0.007c0,0.007,0,0.007,0,0.014
	c0.007,0.007,0.007,0.007,0.007,0.014v0.007c0,0.014,0,0.021,0,0.021c0.007,0,0.007-0.007,0.014-0.028v-0.021
	c0.007-0.007,0.007-0.014,0.015-0.028v-0.007C78.162,77.758,78.155,77.766,78.147,77.766z M78.169,77.737c0,0.007,0,0.007,0,0.007
	l0.007-0.007H78.169z M78.176,77.702v0.021c0-0.007,0-0.015,0.007-0.021H78.176z M78.204,77.681c0-0.007,0-0.014,0-0.014
	c-0.007,0-0.007,0-0.015,0c0,0-0.006,0.007-0.006,0.014v0.049c0,0,0.006,0,0.006-0.006l0.015-0.007v-0.014
	c0.007-0.007,0.007-0.007,0.007-0.007C78.211,77.688,78.211,77.681,78.204,77.681z M78.162,77.745c0,0.007,0,0.007,0,0.007h0.007
	c0,0,0,0,0-0.007C78.162,77.745,78.162,77.745,78.162,77.745z M78.113,77.984v0.007l0.006-0.007H78.113z M78.126,78.026
	c0.007,0,0.007-0.007,0.007-0.014c-0.007,0.007-0.007,0.007-0.015,0.007h-0.006v0.007h-0.007c-0.007,0.007-0.007,0.007-0.014,0.007
	c-0.007,0-0.007,0-0.015,0.007c0.007,0.007,0.007,0.014,0.007,0.021c0.007,0,0.021,0,0.028-0.007c0.006,0,0.006-0.007,0.014-0.007
	c0.007-0.007,0.015-0.014,0.021-0.028C78.141,78.019,78.134,78.026,78.126,78.026z M77.5,78.294
	c-0.006,0.006-0.021,0.006-0.035,0.021c0,0-0.007,0-0.007,0.007c-0.007,0.006-0.014,0.006-0.021,0.014c0,0,0,0.014-0.007,0.021
	h0.015l0.014-0.021c0.007-0.007,0.021-0.014,0.036-0.021c0.006-0.007,0.006-0.007,0.014-0.015l0.007-0.006
	C77.507,78.294,77.5,78.294,77.5,78.294z M78.218,77.695c0,0,0,0.007-0.006,0.014c0.014-0.007,0.021-0.021,0.028-0.028
	C78.232,77.688,78.225,77.695,78.218,77.695z M78.239,77.674v0.007c0.007,0,0.007,0,0.007-0.007H78.239z M78.274,77.709
	c0,0-0.007,0.007-0.007,0.015c0.007-0.015,0.014-0.021,0.021-0.021C78.282,77.702,78.282,77.702,78.274,77.709z M78.092,77.928
	h0.006V77.92c0,0,0,0,0-0.007c0,0,0,0,0-0.007l0.007-0.007 M78.239,77.956c0,0.007,0,0.007,0,0.014h0.007c0,0.007,0,0.014,0,0.014"
	/>
<path fill-rule="evenodd" clip-rule="evenodd" fill="#BF2523" d="M78.218,77.695c0,0,0,0.007-0.006,0.014
	c0.014-0.007,0.021-0.021,0.028-0.028C78.232,77.688,78.225,77.695,78.218,77.695z M78.274,77.709c0,0-0.007,0.007-0.007,0.015
	c0.007-0.015,0.014-0.021,0.021-0.021C78.282,77.702,78.282,77.702,78.274,77.709z M78.239,77.97c0-0.007,0-0.007,0-0.014
	c-0.021-0.007-0.035-0.014-0.05-0.021c-0.006,0.007-0.006,0.014-0.006,0.014c0,0.007-0.007,0.014-0.007,0.014
	c0.028,0.014,0.049,0.021,0.07,0.021c0,0,0-0.007,0-0.014H78.239z M78.162,77.745c0,0.007,0,0.007,0,0.007h0.007c0,0,0,0,0-0.007
	C78.162,77.745,78.162,77.745,78.162,77.745z M78.169,77.737c0,0.007,0,0.007,0,0.007l0.007-0.007H78.169z M78.176,77.702v0.021
	c0-0.007,0-0.015,0.007-0.021H78.176z M78.204,77.681c0-0.007,0-0.014,0-0.014c-0.007,0-0.007,0-0.015,0
	c0,0-0.006,0.007-0.006,0.014v0.049c0,0,0.006,0,0.006-0.006l0.015-0.007v-0.014c0.007-0.007,0.007-0.007,0.007-0.007
	C78.211,77.688,78.211,77.681,78.204,77.681z M78.147,77.766c-0.006,0.007-0.014,0.014-0.021,0.014v0.007c0,0.007,0,0.007,0,0.014
	c0.007,0.007,0.007,0.007,0.007,0.014v0.007c0,0.014,0,0.021,0,0.021c0.007,0,0.007-0.007,0.014-0.028v-0.021
	c0.007-0.007,0.007-0.014,0.015-0.028v-0.007C78.162,77.758,78.155,77.766,78.147,77.766z M78.084,78.062v0.007
	c0.007,0,0.028-0.007,0.028-0.007v-0.007C78.105,78.062,78.092,78.062,78.084,78.062z M77.493,78.343h-0.007
	c-0.007,0.007-0.021,0-0.028,0.014l-0.007,0.007l0.007,0.007c0.007-0.015,0.021,0,0.028,0H77.5L77.493,78.343z"/>
<path fill-rule="evenodd" clip-rule="evenodd" fill="#BF2523" d="M77.493,78.343h-0.007c-0.007,0.007-0.021,0-0.028,0.014
	l-0.007,0.007l0.007,0.007c0.007-0.015,0.021,0,0.028,0H77.5L77.493,78.343z M78.098,78.322c0,0.028,0,0.049,0,0.049h0.007
	C78.105,78.372,78.105,78.35,78.098,78.322z M78.162,77.766c-0.007,0.007-0.007,0.007-0.015,0.007v0.042h0.007v0.021
	c0,0,0,0,0.007,0v-0.008c0,0,0-0.006,0-0.014v-0.014c0-0.007,0.007-0.021,0.007-0.035C78.162,77.766,78.162,77.766,78.162,77.766z
	 M78.169,77.737c0,0.007,0,0.007,0,0.007c0,0.007,0,0.007,0,0.007c0,0.007,0,0.007,0,0.007s0.007,0,0.014-0.007
	c0-0.007,0-0.007,0-0.014H78.169z M78.204,77.702c0.007-0.007,0.007-0.007,0.007-0.007c0-0.007,0-0.015-0.007-0.015
	c0-0.007,0-0.014,0-0.014c-0.007,0-0.007,0-0.015,0c0,0-0.006,0.007-0.006,0.014v0.049c0,0,0.006,0,0.006-0.006l0.015-0.007v0.007
	l0.007-0.007v-0.007h-0.007V77.702z M78.274,77.709c0,0-0.007,0.007-0.007,0.015c0.007-0.015,0.014-0.021,0.021-0.021
	C78.282,77.702,78.282,77.702,78.274,77.709z M78.239,77.97c0-0.007,0-0.007,0-0.014c-0.021-0.007-0.035-0.014-0.05-0.021
	c-0.006,0.007-0.006,0.014-0.006,0.014c0,0.007-0.007,0.014-0.007,0.014c0.028,0.014,0.049,0.021,0.07,0.021c0,0,0-0.007,0-0.014
	H78.239z"/>
<path fill-rule="evenodd" clip-rule="evenodd" fill="#BF2523" d="M78.126,78.026c0.007,0,0.007-0.007,0.007-0.014
	c-0.007,0.007-0.007,0.007-0.015,0.007c0,0-0.006,0-0.006,0.007v0.007c0,0.014,0,0.021,0,0.021c0.006,0,0.006-0.007,0.014-0.007
	c0.007-0.007,0.015-0.014,0.021-0.028C78.141,78.019,78.134,78.026,78.126,78.026z M78.239,77.97c0-0.007,0-0.007,0-0.014
	c-0.021-0.007-0.035-0.014-0.05-0.021c-0.006,0-0.021-0.007-0.027-0.007l-0.007-0.007c-0.007-0.007-0.007-0.007-0.014,0
	c-0.007,0-0.007,0-0.007,0v-0.007c-0.007,0-0.007,0-0.015,0v0.042l0.007,0.007h0.007l0.007,0.007h0.006c0-0.007,0-0.007,0-0.014
	h0.007c0,0.007,0.007,0.007,0.007,0.007c0.007,0,0.007,0,0.007,0h0.007c0.028,0.014,0.049,0.021,0.07,0.021c0,0,0-0.007,0-0.014
	H78.239z M78.169,77.737c0,0.007,0,0.007,0,0.007c0,0.007,0,0.007,0,0.007c0,0.007,0,0.007,0,0.007s0.007,0,0.014-0.007
	c0-0.007,0-0.007,0-0.014H78.169z M78.204,77.702c0.007-0.007,0.007-0.007,0.007-0.007c0-0.007,0-0.015-0.007-0.015
	c0-0.007,0-0.014,0-0.014c-0.007,0-0.007,0-0.015,0c0,0-0.006,0.007-0.006,0.014v0.049c0,0,0.006,0,0.006-0.006l0.015-0.007v0.007
	l0.007-0.007v-0.007h-0.007V77.702z M78.274,77.709c0,0-0.007,0.007-0.007,0.015c0.007-0.015,0.014-0.021,0.021-0.021
	C78.282,77.702,78.282,77.702,78.274,77.709z M78.162,77.766c-0.007,0.007-0.007,0.007-0.015,0.007v0.042h0.007v0.021
	c0,0,0,0,0.007,0v-0.008c0,0,0-0.006,0-0.014v-0.014c0-0.007,0.007-0.021,0.007-0.035C78.162,77.766,78.162,77.766,78.162,77.766z"
	/>
<path fill-rule="evenodd" clip-rule="evenodd" fill="#BF2523" d="M78.169,77.737c0,0.007,0,0.007,0,0.007c0,0.007,0,0.007,0,0.007
	c0,0.007,0,0.007,0,0.007c0,0.007,0,0.007,0,0.007c0,0.014-0.007,0.028-0.007,0.035v0.014c0,0,0,0-0.007,0.007v0.006h0.007
	c0,0,0.007,0,0.007-0.006c0,0,0,0,0.007,0v-0.014c0-0.014,0.007-0.028,0.007-0.057c0-0.007,0-0.007,0-0.014H78.169z M78.176,77.702
	v0.021c0-0.007,0-0.015,0.007-0.021H78.176z M78.204,77.702c0.007-0.007,0.007-0.007,0.007-0.007c0-0.007,0-0.015-0.007-0.015
	c0-0.007,0-0.014,0-0.014c-0.007,0-0.007,0-0.015,0c0,0-0.006,0.007-0.006,0.014v0.049c0,0,0.006,0,0.006-0.006l0.015-0.007v0.007
	l0.007-0.007v-0.007h-0.007V77.702z M78.126,78.026c0.007,0,0.007-0.007,0.007-0.014c-0.007,0.007-0.007,0.007-0.015,0.007
	c0,0-0.006,0-0.006,0.007v0.007c0,0.014,0,0.021,0,0.021c0.006,0,0.006-0.007,0.014-0.007c0.007-0.007,0.015-0.014,0.021-0.028
	C78.141,78.019,78.134,78.026,78.126,78.026z M78.239,77.97c0-0.007,0-0.007,0-0.014c-0.021-0.007-0.035-0.014-0.05-0.021
	c-0.006,0-0.021-0.007-0.027-0.007l-0.007-0.007c-0.007-0.007-0.007-0.007-0.014,0c-0.007,0-0.007,0-0.007,0v-0.007
	c-0.007,0-0.007,0-0.015,0v0.042l0.007,0.007h0.007l0.007,0.007h0.006c0-0.007,0-0.007,0-0.014h0.007
	c0,0.007,0.007,0.007,0.007,0.007c0.007,0,0.007,0,0.007,0h0.007c0.028,0.014,0.049,0.021,0.07,0.021c0,0,0-0.007,0-0.014H78.239z
	 M78.141,77.857c0,0.007,0,0.007,0,0.007s0,0,0,0.007v0.007c0.006,0,0.006,0,0.006-0.007s0-0.007,0-0.007v-0.007H78.141z
	 M78.126,77.885c0.007,0,0.007,0,0.015,0v-0.007C78.141,77.878,78.134,77.885,78.126,77.885z"/>
<path fill-rule="evenodd" clip-rule="evenodd" fill="#BF2523" d="M78.126,78.026c0.007,0,0.007-0.007,0.007-0.014
	c-0.007,0.007-0.007,0.007-0.015,0.007h-0.006v0.014c0,0.014,0,0.021,0,0.021c0.006,0,0.006-0.007,0.014-0.007
	c0.007-0.007,0.015-0.014,0.021-0.028C78.141,78.019,78.134,78.026,78.126,78.026z M78.239,77.97c0-0.007,0-0.007,0-0.014
	c-0.021-0.007-0.035-0.014-0.05-0.021c-0.006,0-0.021-0.007-0.027-0.007l-0.007-0.007c-0.007-0.007-0.007-0.007-0.014,0
	c-0.007,0-0.007,0-0.007,0v-0.007c-0.007,0-0.007,0-0.015,0v0.042l0.007,0.007h0.007l0.007,0.007h0.006c0-0.007,0-0.007,0-0.014
	h0.007c0,0.007,0.007,0.007,0.007,0.007c0.007,0,0.007,0,0.007,0h0.007c0.028,0.014,0.049,0.021,0.07,0.021c0,0,0-0.007,0-0.014
	H78.239z M78.141,77.857c0,0.007,0,0.007,0,0.007s0,0,0,0.007v0.007c0.006,0,0.006,0,0.006-0.007s0-0.007,0-0.007v-0.007H78.141z
	 M78.126,77.885c0.007,0,0.007,0,0.015,0v-0.007C78.141,77.878,78.134,77.885,78.126,77.885z M78.169,77.737
	c0,0.007,0,0.007,0,0.007c0,0.007,0,0.007,0,0.007c0,0.007,0,0.007,0,0.007c0,0.007,0,0.007,0,0.007
	c0,0.014-0.007,0.028-0.007,0.035v0.014c0,0,0,0-0.007,0.007v0.006h0.007c0,0,0.007,0,0.007-0.006c0,0,0,0,0.007,0v-0.014
	c0-0.014,0.007-0.028,0.007-0.057c0-0.007,0-0.007,0-0.014H78.169z M78.176,77.702v0.021c0-0.007,0-0.015,0.007-0.021H78.176z
	 M78.204,77.702c0.007-0.007,0.007-0.007,0.007-0.007c0-0.007,0-0.015-0.007-0.015c0-0.007,0-0.014,0-0.014
	c-0.007,0-0.007,0-0.015,0c0,0-0.006,0.007-0.006,0.014v0.049c0,0,0.006,0,0.006-0.006l0.015-0.007v0.007l0.007-0.007v-0.007h-0.007
	V77.702z"/>
<path fill-rule="evenodd" clip-rule="evenodd" fill="#BF2523" d="M78.169,77.737c0,0.007,0,0.007,0,0.007c0,0.007,0,0.007,0,0.007
	c0,0.007,0,0.007,0,0.007c0,0.007,0,0.007,0,0.007c0,0.014-0.007,0.028-0.007,0.035v0.014c0,0,0,0-0.007,0.007v0.006h0.007
	c0,0,0.007,0,0.007-0.006c0,0,0,0,0.007,0v-0.014c0-0.014,0.007-0.028,0.007-0.057c0-0.007,0-0.007,0-0.014H78.169z M78.176,77.702
	v0.021c0-0.007,0-0.015,0.007-0.021H78.176z M78.204,77.702c0.007-0.007,0.007-0.007,0.007-0.007c0-0.007,0-0.015-0.007-0.015
	c0-0.007,0-0.014,0-0.014c-0.007,0-0.007,0-0.015,0c0,0-0.006,0.007-0.006,0.014v0.049c0,0,0.006,0,0.006-0.006l0.015-0.007v0.007
	l0.007-0.007v-0.007h-0.007V77.702z M78.126,78.026c0.007,0,0.007-0.007,0.007-0.014c-0.007,0.007-0.007,0.007-0.015,0.007h-0.006
	v0.014c0,0.014,0,0.021,0,0.021c0.006,0,0.006-0.007,0.014-0.007c0.007-0.007,0.015-0.014,0.021-0.028
	C78.141,78.019,78.134,78.026,78.126,78.026z M78.239,77.97c0-0.007,0-0.007,0-0.014c-0.021-0.007-0.035-0.014-0.05-0.021
	c-0.006,0-0.021-0.007-0.027-0.007l-0.007-0.007c-0.007-0.007-0.007-0.007-0.014,0c-0.007,0-0.007,0-0.007,0v-0.007
	c-0.007,0-0.007,0-0.015,0v0.042l0.007,0.007h0.007l0.007,0.007h0.006c0-0.007,0-0.007,0-0.014h0.007
	c0,0.007,0.007,0.007,0.007,0.007c0.007,0,0.007,0,0.007,0h0.007c0.028,0.014,0.049,0.021,0.07,0.021c0,0,0-0.007,0-0.014H78.239z
	 M78.141,77.857c0,0.007,0,0.007,0,0.007s0,0,0,0.007v0.007c0.006,0,0.006,0,0.006-0.007s0-0.007,0-0.007v-0.007H78.141z
	 M78.126,77.885c0.007,0,0.007,0,0.015,0v-0.007C78.141,77.878,78.134,77.885,78.126,77.885z"/>
<path fill-rule="evenodd" clip-rule="evenodd" fill="#BF2523" d="M78.126,78.026c0.007,0,0.007-0.007,0.007-0.014
	c-0.007,0.007-0.007,0.007-0.015,0.007h-0.006v0.014c0,0.014,0,0.021,0,0.021c0.006,0,0.006-0.007,0.014-0.007
	c0.007-0.007,0.015-0.014,0.021-0.028C78.141,78.019,78.134,78.026,78.126,78.026z M78.239,77.97c0-0.007,0-0.007,0-0.014
	c-0.021-0.007-0.035-0.014-0.05-0.021c-0.006,0-0.021-0.007-0.027-0.007l-0.007-0.007c-0.007-0.007-0.007-0.007-0.014,0
	c-0.007,0-0.007,0-0.007,0v-0.007c-0.007,0-0.007,0-0.015,0v0.042l0.007,0.007h0.007l0.007,0.007h0.006c0-0.007,0-0.007,0-0.014
	h0.007c0,0.007,0.007,0.007,0.007,0.007c0.007,0,0.007,0,0.007,0h0.007c0.028,0.014,0.049,0.021,0.07,0.021c0,0,0-0.007,0-0.014
	H78.239z M78.141,77.857c0,0.007,0,0.007,0,0.007s0,0,0,0.007v0.007c0.006,0,0.006,0,0.006-0.007s0-0.007,0-0.007v-0.007H78.141z
	 M78.126,77.885c0.007,0,0.007,0,0.015,0v-0.007C78.141,77.878,78.134,77.885,78.126,77.885z M78.169,77.737
	c0,0.007,0,0.007,0,0.007c0,0.007,0,0.007,0,0.007c0,0.007,0,0.007,0,0.007c0,0.007,0,0.007,0,0.007
	c0,0.014-0.007,0.028-0.007,0.035v0.014c0,0,0,0-0.007,0.007v0.006h0.007c0,0,0.007,0,0.007-0.006c0,0,0,0,0.007,0v-0.014
	c0-0.014,0.007-0.028,0.007-0.057c0-0.007,0-0.007,0-0.014H78.169z M78.176,77.702v0.021c0-0.007,0-0.015,0.007-0.021H78.176z
	 M78.204,77.702c0.007-0.007,0.007-0.007,0.007-0.007c0-0.007,0-0.015-0.007-0.015c0-0.007,0-0.014,0-0.014
	c-0.007,0-0.007,0-0.015,0c0,0-0.006,0.007-0.006,0.014v0.049c0,0,0.006,0,0.006-0.006l0.015-0.007v0.007l0.007-0.007v-0.007h-0.007
	V77.702z"/>
<path fill-rule="evenodd" clip-rule="evenodd" fill="#BF2523" d="M78.126,78.026c0.007,0,0.007-0.007,0.007-0.014
	c-0.007,0.007-0.007,0.007-0.015,0.007h-0.006v0.014c0,0.014,0,0.021,0,0.021c0.006,0,0.006-0.007,0.014-0.007
	c0.007-0.007,0.015-0.014,0.021-0.028C78.141,78.019,78.134,78.026,78.126,78.026z M78.239,77.97c0-0.007,0-0.007,0-0.014
	c-0.021-0.007-0.035-0.014-0.05-0.021c-0.006,0-0.021-0.007-0.027-0.007l-0.007-0.007c-0.007-0.007-0.007-0.007-0.014,0
	c-0.007,0-0.007,0-0.007,0v-0.007c-0.007,0-0.007,0-0.015,0v0.042l0.007,0.007h0.007l0.007,0.007h0.006c0-0.007,0-0.007,0-0.014
	h0.007c0,0.007,0.007,0.007,0.007,0.007c0.007,0,0.007,0,0.007,0h0.007c0.028,0.014,0.049,0.021,0.07,0.021c0,0,0-0.007,0-0.014
	H78.239z M78.141,77.857c0,0.007,0,0.007,0,0.007s0,0,0,0.007v0.007c0.006,0,0.006,0,0.006-0.007s0-0.007,0-0.007v-0.007H78.141z
	 M78.126,77.885c0.007,0,0.007,0,0.015,0v-0.007C78.141,77.878,78.134,77.885,78.126,77.885z M78.169,77.737
	c0,0.007,0,0.007,0,0.007c0,0.007,0,0.007,0,0.007c0,0.007,0,0.007,0,0.007c0,0.007,0,0.007,0,0.007
	c0,0.014-0.007,0.028-0.007,0.035v0.014c0,0,0,0-0.007,0.007v0.006h0.007c0,0,0.007,0,0.007-0.006c0,0,0,0,0.007,0v-0.014
	c0-0.014,0.007-0.028,0.007-0.057c0-0.007,0-0.007,0-0.014H78.169z M78.176,77.702v0.021c0-0.007,0-0.015,0.007-0.021H78.176z
	 M78.204,77.702c0.007-0.007,0.007-0.007,0.007-0.007c0-0.007,0-0.015-0.007-0.015c0-0.007,0-0.014,0-0.014
	c-0.007,0-0.007,0-0.015,0c0,0-0.006,0.007-0.006,0.014v0.049c0,0,0.006,0,0.006-0.006l0.015-0.007v0.007l0.007-0.007v-0.007h-0.007
	V77.702z"/>
<path fill-rule="evenodd" clip-rule="evenodd" fill="#BF2523" d="M78.169,77.737c0,0.007,0,0.007,0,0.007c0,0.007,0,0.007,0,0.007
	c0,0.007,0,0.007,0,0.007c0,0.007,0,0.007,0,0.007c0,0.014-0.007,0.028-0.007,0.035v0.014c0,0,0,0-0.007,0.007v0.006h0.007
	c0,0,0.007,0,0.007-0.006c0,0,0,0,0.007,0v-0.014c0-0.014,0.007-0.028,0.007-0.057c0-0.007,0-0.007,0-0.014H78.169z M78.176,77.702
	v0.021c0-0.007,0-0.015,0.007-0.021H78.176z M78.204,77.702c0.007-0.007,0.007-0.007,0.007-0.007c0-0.007,0-0.015-0.007-0.015
	c0-0.007,0-0.014,0-0.014c-0.007,0-0.007,0-0.015,0c0,0-0.006,0.007-0.006,0.014v0.049c0,0,0.006,0,0.006-0.006l0.015-0.007v0.007
	l0.007-0.007v-0.007h-0.007V77.702z M78.126,78.026c0.007,0,0.007-0.007,0.007-0.014c-0.007,0.007-0.007,0.007-0.015,0.007h-0.006
	v0.014c0,0.014,0,0.021,0,0.021c0.006,0,0.006-0.007,0.014-0.007c0.007-0.007,0.015-0.014,0.021-0.028
	C78.141,78.019,78.134,78.026,78.126,78.026z M78.239,77.97c0-0.007,0-0.007,0-0.014c-0.021-0.007-0.035-0.014-0.05-0.021
	c-0.006,0-0.021-0.007-0.027-0.007l-0.007-0.007c-0.007-0.007-0.007-0.007-0.014,0c-0.007,0-0.007,0-0.007,0v-0.007
	c-0.007,0-0.007,0-0.015,0v0.042l0.007,0.007h0.007l0.007,0.007h0.006c0-0.007,0-0.007,0-0.014h0.007
	c0,0.007,0.007,0.007,0.007,0.007c0.007,0,0.007,0,0.007,0h0.007c0.028,0.014,0.049,0.021,0.07,0.021c0,0,0-0.007,0-0.014H78.239z
	 M78.141,77.857c0,0.007,0,0.007,0,0.007s0,0,0,0.007v0.007c0.006,0,0.006,0,0.006-0.007s0-0.007,0-0.007v-0.007H78.141z
	 M78.126,77.885c0.007,0,0.007,0,0.015,0v-0.007C78.141,77.878,78.134,77.885,78.126,77.885z"/>
<path fill-rule="evenodd" clip-rule="evenodd" fill="#BF2523" d="M78.126,78.026c0.007,0,0.007-0.007,0.007-0.014
	c-0.007,0.007-0.007,0.007-0.015,0.007h-0.006v0.014c0,0.014,0,0.021,0,0.021c0.006,0,0.006-0.007,0.014-0.007
	c0.007-0.007,0.015-0.014,0.021-0.028C78.141,78.019,78.134,78.026,78.126,78.026z M78.239,77.97c0-0.007,0-0.007,0-0.014
	c-0.021-0.007-0.035-0.014-0.05-0.021c-0.006,0-0.021-0.007-0.027-0.007l-0.007-0.007c-0.007-0.007-0.007-0.007-0.014,0
	c-0.007,0-0.007,0-0.007,0v-0.007c-0.007,0-0.007,0-0.015,0v0.042l0.007,0.007h0.007l0.007,0.007h0.006c0-0.007,0-0.007,0-0.014
	h0.007c0,0.007,0.007,0.007,0.007,0.007c0.007,0,0.007,0,0.007,0h0.007c0.028,0.014,0.049,0.021,0.07,0.021c0,0,0-0.007,0-0.014
	H78.239z M78.141,77.857c0,0.007,0,0.007,0,0.007s0,0,0,0.007v0.007c0.006,0,0.006,0,0.006-0.007s0-0.007,0-0.007v-0.007H78.141z
	 M78.126,77.885c0.007,0,0.007,0,0.015,0v-0.007C78.141,77.878,78.134,77.885,78.126,77.885z M78.169,77.737
	c0,0.007,0,0.007,0,0.007c0,0.007,0,0.007,0,0.007c0,0.007,0,0.007,0,0.007c0,0.007,0,0.007,0,0.007
	c0,0.014-0.007,0.028-0.007,0.035v0.014c0,0,0,0-0.007,0.007v0.006h0.007c0,0,0.007,0,0.007-0.006c0,0,0,0,0.007,0v-0.014
	c0-0.014,0.007-0.028,0.007-0.057c0-0.007,0-0.007,0-0.014H78.169z M78.176,77.702v0.021c0-0.007,0-0.015,0.007-0.021H78.176z
	 M78.204,77.702c0.007-0.007,0.007-0.007,0.007-0.007c0-0.007,0-0.015-0.007-0.015c0-0.007,0-0.014,0-0.014
	c-0.007,0-0.007,0-0.015,0c0,0-0.006,0.007-0.006,0.014v0.049c0,0,0.006,0,0.006-0.006l0.015-0.007v0.007l0.007-0.007v-0.007h-0.007
	V77.702z"/>
<path fill-rule="evenodd" clip-rule="evenodd" fill="#BF2523" d="M78.169,77.737c0,0.007,0,0.007,0,0.007c0,0.007,0,0.007,0,0.007
	c0,0.007,0,0.007,0,0.007c0,0.007,0,0.007,0,0.007c0,0.014-0.007,0.028-0.007,0.035v0.014c0,0,0,0-0.007,0.007v0.006h0.007
	c0,0,0.007,0,0.007-0.006c0,0,0,0,0.007,0v-0.014c0-0.014,0.007-0.028,0.007-0.057c0-0.007,0-0.007,0-0.014H78.169z M78.176,77.702
	v0.021c0-0.007,0-0.015,0.007-0.021H78.176z M78.204,77.702c0.007-0.007,0.007-0.007,0.007-0.007c0-0.007,0-0.015-0.007-0.015
	c0-0.007,0-0.014,0-0.014c-0.007,0-0.007,0-0.015,0c0,0-0.006,0.007-0.006,0.014v0.049c0,0,0.006,0,0.006-0.006l0.015-0.007v0.007
	l0.007-0.007v-0.007h-0.007V77.702z M78.126,78.026c0.007,0,0.007-0.007,0.007-0.014c-0.007,0.007-0.007,0.007-0.015,0.007h-0.006
	v0.014c0,0.014,0,0.021,0,0.021c0.006,0,0.006-0.007,0.014-0.007c0.007-0.007,0.015-0.014,0.021-0.028
	C78.141,78.019,78.134,78.026,78.126,78.026z M78.239,77.97c0-0.007,0-0.007,0-0.014c-0.021-0.007-0.035-0.014-0.05-0.021
	c-0.006,0-0.021-0.007-0.027-0.007l-0.007-0.007c-0.007-0.007-0.007-0.007-0.014,0c-0.007,0-0.007,0-0.007,0v-0.007
	c-0.007,0-0.007,0-0.015,0v0.042l0.007,0.007h0.007l0.007,0.007h0.006c0-0.007,0-0.007,0-0.014h0.007
	c0,0.007,0.007,0.007,0.007,0.007c0.007,0,0.007,0,0.007,0h0.007c0.028,0.014,0.049,0.021,0.07,0.021c0,0,0-0.007,0-0.014H78.239z
	 M78.141,77.857c0,0.007,0,0.007,0,0.007s0,0,0,0.007v0.007c0.006,0,0.006,0,0.006-0.007s0-0.007,0-0.007v-0.007H78.141z
	 M78.126,77.885c0.007,0,0.007,0,0.015,0v-0.007C78.141,77.878,78.134,77.885,78.126,77.885z"/>
<path fill-rule="evenodd" clip-rule="evenodd" fill="#BF2523" d="M78.126,78.026c0.007,0,0.007-0.007,0.007-0.014
	c-0.007,0.007-0.007,0.007-0.015,0.007h-0.006v0.014c0,0.014,0,0.021,0,0.021c0.006,0,0.006-0.007,0.014-0.007
	c0.007-0.007,0.015-0.014,0.021-0.028C78.141,78.019,78.134,78.026,78.126,78.026z M78.239,77.97c0-0.007,0-0.007,0-0.014
	c-0.021-0.007-0.035-0.014-0.05-0.021c-0.006,0-0.021-0.007-0.027-0.007l-0.007-0.007c-0.007-0.007-0.007-0.007-0.014,0
	c-0.007,0-0.007,0-0.007,0v-0.007c-0.007,0-0.007,0-0.015,0v0.042l0.007,0.007h0.007l0.007,0.007h0.006c0-0.007,0-0.007,0-0.014
	h0.007c0,0.007,0.007,0.007,0.007,0.007c0.007,0,0.007,0,0.007,0h0.007c0.028,0.014,0.049,0.021,0.07,0.021c0,0,0-0.007,0-0.014
	H78.239z M78.141,77.857c0,0.007,0,0.007,0,0.007s0,0,0,0.007v0.007c0.006,0,0.006,0,0.006-0.007s0-0.007,0-0.007v-0.007H78.141z
	 M78.126,77.885c0.007,0,0.007,0,0.015,0v-0.007C78.141,77.878,78.134,77.885,78.126,77.885z M78.169,77.737
	c0,0.007,0,0.007,0,0.007c0,0.007,0,0.007,0,0.007c0,0.007,0,0.007,0,0.007c0,0.007,0,0.007,0,0.007
	c0,0.014-0.007,0.028-0.007,0.035v0.014c0,0,0,0-0.007,0.007v0.006h0.007c0,0,0.007,0,0.007-0.006c0,0,0,0,0.007,0v-0.014
	c0-0.014,0.007-0.028,0.007-0.057c0-0.007,0-0.007,0-0.014H78.169z M78.176,77.702v0.021c0-0.007,0-0.015,0.007-0.021H78.176z
	 M78.204,77.702c0.007-0.007,0.007-0.007,0.007-0.007c0-0.007,0-0.015-0.007-0.015c0-0.007,0-0.014,0-0.014
	c-0.007,0-0.007,0-0.015,0c0,0-0.006,0.007-0.006,0.014v0.049c0,0,0.006,0,0.006-0.006l0.015-0.007v0.007l0.007-0.007v-0.007h-0.007
	V77.702z"/>
<path fill-rule="evenodd" clip-rule="evenodd" fill="#BF2523" d="M78.098,78.322c0,0.028,0,0.049,0,0.049h0.007
	C78.105,78.372,78.105,78.35,78.098,78.322z M78.084,77.758c0-0.007-0.007-0.007-0.007-0.007c-0.014-0.014-0.028-0.021-0.035-0.021
	c0.007,0.021,0.014,0.05,0.014,0.078c0,0,0,0,0,0.007c0.007,0.021,0.007,0.035,0.007,0.049l0.006-0.007V77.85
	c0.015-0.013,0.022-0.021,0.043-0.027v-0.007c0-0.007,0-0.007,0-0.007v-0.014C78.105,77.78,78.098,77.766,78.084,77.758z
	 M78.169,77.737c0,0.007,0,0.007,0,0.007c0,0.007,0,0.007,0,0.007c0,0.007,0,0.007,0,0.007c0,0.007,0,0.007,0,0.007
	c0,0.014-0.007,0.028-0.007,0.035v0.014c0,0,0,0-0.007,0.007v0.006h0.007c0,0,0.007,0,0.007-0.006c0,0,0,0,0.007,0v-0.014
	c0-0.014,0.007-0.028,0.007-0.057c0-0.007,0-0.007,0-0.014H78.169z M78.176,77.702v0.021c0-0.007,0-0.015,0.007-0.021H78.176z
	 M78.204,77.702c0.007-0.007,0.007-0.007,0.007-0.007c0-0.007,0-0.015-0.007-0.015c0-0.007,0-0.014,0-0.014
	c-0.007,0-0.007,0-0.015,0c0,0-0.006,0.007-0.006,0.014v0.049c0,0,0.006,0,0.006-0.006l0.015-0.007v0.007l0.007-0.007v-0.007h-0.007
	V77.702z M78.07,77.906v0.007c0,0.007,0.007,0.007,0.015,0.007v-0.007C78.084,77.906,78.07,77.906,78.07,77.906z M78.092,77.928
	v0.014h0.006v-0.014H78.092z M78.113,77.984v0.007l0.006-0.007H78.113z M78.126,78.026c0.007,0,0.007-0.007,0.007-0.014
	c-0.007,0.007-0.007,0.007-0.015,0.007h-0.006v0.007h-0.007c-0.007,0.007-0.007,0.007-0.014,0.007c-0.007,0-0.007,0-0.015,0.007
	c0.007,0.007,0.007,0.014,0.007,0.021v0.007c0.007,0,0.028-0.007,0.028-0.007v-0.007c0.006,0,0.006-0.007,0.014-0.007
	c0.007-0.007,0.015-0.014,0.021-0.028C78.141,78.019,78.134,78.026,78.126,78.026z M78.239,77.97c0-0.007,0-0.007,0-0.014
	c-0.021-0.007-0.035-0.014-0.05-0.021c-0.006,0-0.021-0.007-0.027-0.007l-0.007-0.007c-0.007-0.007-0.007-0.007-0.014,0
	c-0.007,0-0.007,0-0.007,0v-0.007c-0.007,0-0.007,0-0.015,0v0.042l0.007,0.007h0.007l0.007,0.007h0.006c0-0.007,0-0.007,0-0.014
	h0.007c0,0.007,0.007,0.007,0.007,0.007c0.007,0,0.007,0,0.007,0h0.007c0.028,0.014,0.049,0.021,0.07,0.021c0,0,0-0.007,0-0.014
	H78.239z M78.141,77.857c0,0.007,0,0.007,0,0.007s0,0,0,0.007v0.007c0.006,0,0.006,0,0.006-0.007s0-0.007,0-0.007v-0.007H78.141z
	 M78.126,77.885c0.007,0,0.007,0,0.015,0v-0.007C78.141,77.878,78.134,77.885,78.126,77.885z"/>
<path fill-rule="evenodd" clip-rule="evenodd" fill="#BF2523" d="M78.105,77.899c-0.007,0-0.014,0-0.021-0.007
	c-0.007,0-0.015,0-0.015,0c0,0.007,0,0.014,0,0.014v0.007c0,0.007,0.007,0.007,0.015,0.007l0.007,0.007v0.014h0.006
	c0.007,0,0.015,0.007,0.015,0.007s0-0.007,0-0.014c0,0,0,0,0-0.007c0,0,0-0.007,0-0.014v-0.007
	C78.113,77.906,78.113,77.906,78.105,77.899z M78.113,77.984v0.007l0.006-0.007H78.113z M78.126,78.026
	c0.007,0,0.007-0.007,0.007-0.014c-0.007,0.007-0.007,0.007-0.015,0.007h-0.006v0.007h-0.007c-0.007,0.007-0.007,0.007-0.014,0.007
	c-0.007,0-0.007,0-0.015,0.007c0.007,0.007,0.007,0.014,0.007,0.021v0.007c0.007,0,0.028-0.007,0.028-0.007v-0.007
	c0.006,0,0.006-0.007,0.014-0.007c0.007-0.007,0.015-0.014,0.021-0.028C78.141,78.019,78.134,78.026,78.126,78.026z M78.189,77.935
	c-0.006,0-0.021-0.007-0.027-0.007l-0.007-0.007c-0.007-0.007-0.007-0.007-0.014,0c0,0,0.006,0.007,0.014,0.014
	c0.007,0.007,0.021,0.007,0.028,0.014c0.021,0.007,0.035,0.014,0.056,0.021c0-0.007,0-0.007,0-0.014
	C78.218,77.949,78.204,77.942,78.189,77.935z M78.134,77.92v-0.007c-0.007,0-0.007,0-0.015,0
	C78.126,77.914,78.126,77.92,78.134,77.92z M78.169,77.737c0,0.007,0,0.007,0,0.007c0,0.007,0,0.007,0,0.007
	c0,0.007,0,0.007,0,0.007c0,0.007,0,0.007,0,0.007c0,0.014-0.007,0.028-0.007,0.035v0.014c0,0,0,0-0.007,0.007v0.006h0.007
	c0,0,0.007,0,0.007-0.006c0,0,0,0,0.007,0v-0.014c0-0.014,0.007-0.028,0.007-0.057c0-0.007,0-0.007,0-0.014H78.169z M78.176,77.702
	v0.021c0-0.007,0-0.015,0.007-0.021H78.176z M78.204,77.702c0.007-0.007,0.007-0.007,0.007-0.007c0-0.007,0-0.015-0.007-0.015
	c0-0.007,0-0.014,0-0.014c-0.007,0-0.007,0-0.015,0c0,0-0.006,0.007-0.006,0.014v0.049c0,0,0.006,0,0.006-0.006l0.015-0.007v0.007
	l0.007-0.007v-0.007h-0.007V77.702z M78.141,77.857c0,0.007,0,0.007,0,0.007s0,0,0,0.007v0.007c0.006,0,0.006,0,0.006-0.007
	s0-0.007,0-0.007v-0.007H78.141z M78.126,77.885c0.007,0,0.007,0,0.015,0v-0.007C78.141,77.878,78.134,77.885,78.126,77.885z
	 M78.042,77.688h-0.007c0,0.007,0.007,0.014,0.007,0.028h0.007v0.007c0,0,0,0,0.007-0.007v-0.014
	C78.056,77.702,78.056,77.695,78.042,77.688z M78.084,77.758c0-0.007-0.007-0.007-0.007-0.007c-0.014-0.014-0.028-0.021-0.035-0.021
	c0.007,0.021,0.014,0.05,0.014,0.078c0,0,0,0,0,0.007c0.007,0.021,0.007,0.035,0.007,0.049l0.006-0.007V77.85
	c0.015-0.013,0.022-0.021,0.043-0.027v-0.007c0-0.007,0-0.007,0-0.007v-0.014C78.105,77.78,78.098,77.766,78.084,77.758z"/>
<path fill="none" d="M78.113,77.667v0.035c0-0.007,0-0.007,0.006-0.007c0.007,0,0.007,0,0.007,0.007v-0.007c0-0.021,0-0.028,0-0.028
	H78.113z M78.042,77.688h-0.007c0,0.007,0.007,0.014,0.007,0.028h0.007v0.007c0,0,0,0,0.007-0.007v-0.014
	C78.056,77.702,78.056,77.695,78.042,77.688z M78.119,77.808c0,0,0,0,0,0.007h-0.006c0-0.007,0-0.007,0-0.007v-0.014
	c-0.007-0.014-0.015-0.028-0.028-0.036c0-0.007-0.007-0.007-0.007-0.007c-0.014-0.014-0.028-0.021-0.035-0.021
	c0.007,0.021,0.014,0.05,0.014,0.078c0,0,0,0,0,0.007c0.007,0.021,0.007,0.035,0.007,0.049l0.006-0.007V77.85
	c0.015-0.013,0.022-0.021,0.043-0.027c0,0,0.006,0.006,0,0.014c0,0,0-0.008,0.006-0.008c0,0.008,0,0.015,0,0.015
	c0.007,0,0-0.007,0.007-0.021v-0.021L78.119,77.808z M78.134,77.815v0.007c0,0,0,0,0.007-0.007
	C78.134,77.815,78.134,77.815,78.134,77.815z M78.126,77.885c0.007,0,0.007,0,0.015,0v-0.007
	C78.141,77.878,78.134,77.885,78.126,77.885z M78.147,77.808v0.007h0.007c0.007,0,0.007,0,0.007,0v-0.007
	C78.162,77.808,78.155,77.808,78.147,77.808z M78.162,77.801v0.007c0.007,0,0.007,0,0.014,0L78.162,77.801z M78.211,77.758
	c-0.007,0.015-0.014,0.021-0.022,0.036c0,0-0.006,0.007-0.014,0.014v0.014c0,0.006,0,0.006,0,0.014
	c0.014-0.008,0.021-0.014,0.028-0.028c0,0,0.007-0.007,0.014-0.007v-0.014C78.218,77.773,78.218,77.766,78.211,77.758z
	 M78.141,77.864c0,0,0,0,0,0.007v0.007c0.006,0,0.006,0,0.006-0.007s0-0.007,0-0.007H78.141z M78.274,77.709
	c0,0-0.007,0.007-0.007,0.015c0.007-0.015,0.014-0.021,0.021-0.021C78.282,77.702,78.282,77.702,78.274,77.709z"/>
<path fill="none" d="M78.042,77.688h-0.007c0,0.007,0.007,0.014,0.007,0.028h0.014v-0.014
	C78.056,77.702,78.056,77.695,78.042,77.688z M78.042,77.667c0.014,0,0.021,0,0.027,0.007h0.022l0.021,0.007v0.021
	c0-0.007,0-0.007,0.006-0.007c0.007,0,0.007,0,0.007,0.007v-0.007c0-0.021,0-0.028,0-0.028H78.042z M78.113,77.822
	c0,0,0.006,0.006,0,0.014c0,0,0-0.008,0.006-0.008c0,0,0,0,0.007-0.006C78.119,77.822,78.113,77.822,78.113,77.822z M78.134,77.815
	v0.007c0,0,0,0,0.007-0.007C78.134,77.815,78.134,77.815,78.134,77.815z M78.126,77.885c0.007,0,0.007,0,0.015,0v-0.007
	C78.141,77.878,78.134,77.885,78.126,77.885z M78.147,77.808v0.007h0.007c0.007,0,0.007,0,0.007,0v-0.007
	C78.162,77.808,78.155,77.808,78.147,77.808z M78.162,77.801v0.007c0.007,0,0.007,0,0.014,0L78.162,77.801z M78.211,77.758
	c-0.007,0.015-0.014,0.021-0.022,0.036c0,0-0.006,0.007-0.014,0.014c-0.007,0.007-0.007,0.014-0.007,0.014s0,0,0.007,0
	c0,0.006,0,0.006,0,0.014c0.014-0.008,0.021-0.014,0.028-0.028c0,0,0.007-0.007,0.014-0.007v-0.014
	C78.218,77.773,78.218,77.766,78.211,77.758z M78.141,77.864c0,0,0,0,0,0.007v0.007c0.006,0,0.006,0,0.006-0.007s0-0.007,0-0.007
	H78.141z M78.274,77.709c0,0-0.007,0.007-0.007,0.015c0.007-0.015,0.014-0.021,0.021-0.021
	C78.282,77.702,78.282,77.702,78.274,77.709z"/>
<path fill="none" d="M78.035,77.667c0,0,0.007,0.014,0.007,0.021h-0.007c0,0.007,0.007,0.014,0.007,0.028h0.007v0.007
	c0,0,0,0,0.007-0.007c0.007-0.007,0.021-0.007,0.028-0.007c0,0.007,0,0.007,0,0.007c0,0.007,0.007,0.007,0.014,0
	c0,0.007,0.015,0.007,0.015,0.007v-0.057H78.035z M78.211,77.758c-0.007,0.015-0.014,0.021-0.022,0.036c0,0-0.006,0.007-0.014,0.014
	c0-0.014,0.007-0.028,0.007-0.057c0-0.007,0-0.007,0-0.014h-0.014c0,0.007,0,0.007,0,0.007c-0.007,0-0.007,0-0.007,0
	c0,0.007,0,0.007,0,0.007c-0.007,0-0.007,0-0.007,0l-0.007,0.007v0.007c-0.006,0.007-0.014,0.014-0.021,0.014v0.007
	c0,0.007-0.007,0.007-0.007,0.007c0,0.007,0,0.007,0,0.014c0,0,0,0,0,0.007h-0.006c0-0.007,0-0.007,0-0.007v-0.014
	c-0.007-0.014-0.015-0.028-0.028-0.036c0-0.007-0.007-0.007-0.007-0.007c-0.014-0.014-0.028-0.021-0.035-0.021
	c0.007,0.021,0.014,0.05,0.014,0.078c0,0,0,0,0,0.007c0.007,0.021,0.007,0.035,0.007,0.049l0.006-0.007V77.85
	c0.015-0.013,0.022-0.021,0.043-0.027c0,0,0.006,0.006,0,0.014c0,0,0-0.008,0.006-0.008c0,0.008,0,0.015,0,0.015
	c0.007,0,0-0.007,0.007-0.021v-0.021c0.007,0.007,0.007,0.007,0.007,0.014v0.007c0,0.014,0,0.021,0,0.021
	c0.007,0,0.007-0.007,0.014-0.028h0.007v0.021c0,0,0,0,0.007,0v-0.008c0,0,0.007,0,0.007-0.006c0,0,0,0,0.007,0
	c0,0.006,0,0.006,0,0.014c0.014-0.008,0.021-0.014,0.028-0.028c0,0,0.007-0.007,0.014-0.007v-0.014
	C78.218,77.773,78.218,77.766,78.211,77.758z M78.176,77.702v0.021c0-0.007,0-0.015,0.007-0.021H78.176z M78.261,77.667
	c0,0-0.007,0-0.015,0c0,0,0,0-0.007,0.007c-0.007-0.007-0.007,0-0.014,0s-0.014,0-0.021,0.007c-0.007,0-0.015,0-0.015,0s0,0-0.006,0
	v0.049c0,0,0.006,0,0.006-0.006l0.015-0.007v0.007l0.007-0.007v-0.007c0.014-0.007,0.021-0.021,0.028-0.028
	c0.007,0,0.007,0,0.007-0.007c0.007,0,0.015,0,0.015,0c0.007-0.007,0.007-0.007,0.014-0.007
	C78.268,77.667,78.268,77.667,78.261,77.667z M78.239,77.956c-0.021-0.007-0.035-0.014-0.05-0.021c-0.006,0-0.021-0.007-0.027-0.007
	l-0.007-0.007c-0.007-0.007-0.007-0.007-0.014,0c-0.007,0-0.007,0-0.007,0v-0.007c-0.007,0-0.007,0-0.015,0h-0.006v-0.007
	c0,0,0,0-0.007-0.007c-0.007,0-0.014,0-0.021-0.007c-0.007,0-0.015,0-0.015,0c0,0.007,0,0.014,0,0.014v0.007
	c0,0.007,0.007,0.007,0.015,0.007l0.007,0.007v0.014h0.006c0.007,0,0.015,0.007,0.015,0.007s0.006,0,0.006,0.007l0.007,0.007h0.007
	l0.007,0.007h0.006c0-0.007,0-0.007,0-0.014h0.007c0,0.007,0.007,0.007,0.007,0.007c0.007,0,0.007,0,0.007,0h0.007
	c0.028,0.014,0.049,0.021,0.07,0.021c0.015,0,0.021-0.007,0.028-0.007c0.007,0,0.021-0.007,0.028-0.007
	C78.282,77.97,78.261,77.963,78.239,77.956z"/>
<path fill="#BF2523" d="M78.261,77.667c0,0-0.007,0-0.015,0c0,0-0.007,0-0.021,0.007c-0.007,0-0.014,0-0.021,0.007
	c-0.007,0-0.015,0-0.015,0s0,0-0.006,0v0.049c0,0,0.006,0,0.006-0.006l0.015-0.007v0.007l0.007-0.007v-0.007
	c0.014-0.007,0.021-0.021,0.028-0.028c0.007,0,0.007,0,0.007-0.007c0.007,0,0.015,0,0.015,0c0.007-0.007,0.007-0.007,0.014-0.007
	C78.268,77.667,78.268,77.667,78.261,77.667z M78.176,77.724c0-0.007,0-0.015,0.007-0.021h-0.007V77.724z M78.035,77.667
	c0,0,0.007,0.014,0.007,0.021h-0.007c0,0.007,0.007,0.014,0.007,0.028h0.007v0.007c0,0,0,0,0.007-0.007
	c0.007-0.007,0.021-0.007,0.028-0.007c0,0.007,0,0.007,0,0.007c0,0.007,0.007,0.007,0.014,0c0,0.007,0.015,0.007,0.015,0.007v-0.057
	H78.035z"/>
<path fill="#FBB03B" d="M388.131,105.708c-0.007-0.106,0.151-0.211,0.136-0.317c-0.007-0.07,0.068-0.133,0.061-0.204
	c-0.028-0.205-0.015-0.408-0.023-0.613c-0.654-2.127-1.493-2.626-4.366-2.626c-43.35,0-86.71,0-130.052,0.021
	c-1.359,0-2.544-0.253-3.77-0.88c-10.753-5.436-21.524-10.83-32.319-16.168c-4.711-2.331-9.329-4.859-14.153-6.943
	c-0.641,0.021-1.281,0.042-1.922,0.049c0.634-0.021,1.283-0.056,1.923-0.077c0.007-0.092-0.014-0.282-0.063-0.282H78.274
	c-0.007,0-0.007,0-0.014,0c0,0-0.007,0-0.015,0c0,0-0.105,0.011-0.112,0.011C78.126,77.685,78,77.702,78,77.709v0.007v0.007v-0.007
	l-0.004,0.007C77.996,77.73,78,77.73,78,77.73v-0.028c0,0.007,0,0.014,0,0.021v-0.057l0,0v0.021c0,0-0.007,0.007-0.021,0.014
	c-0.007,0,0.021,0.007,0.021,0.007v0.015c0,0,0,0,0-0.007c0,0.007,0,0.007,0,0c0,0,0,0,0-0.007c0,0-0.004,0-0.011,0.007
	S78,77.724,78,77.724v-0.057h0.042h-0.007h0.007h-0.007c-0.007,0-0.007,0-0.007,0H76v51.913c104.163,0,208.269,0.452,312.327,0.452
	c0.006,0.063,0.021,0.635,0.028,0.635h0.14c0.008-9-0.495-16.249-0.495-23.825v-0.036C388,106.439,388.139,106.074,388.131,105.708z
	 M77.331,78.435c-0.021,0.014-0.05,0.035-0.071,0.057c0.015-0.021,0.036-0.036,0.049-0.049c0.007,0,0.014-0.007,0.021-0.015V78.435z
	 M77.395,78.42c0-0.006-0.007-0.006-0.007-0.006h0.007V78.42z M77.423,78.372l-0.007,0.006c-0.007,0.007-0.007,0.007-0.007,0.007
	v0.028c0-0.007-0.014-0.014-0.014-0.014c0.007,0,0.014-0.007,0.014-0.014v-0.021h0.015V78.372z M77.458,78.372l-0.007-0.007
	l0.007-0.007c0.007-0.014,0.021-0.007,0.028-0.014h0.007l0.006,0.028H77.458z M77.507,78.3c-0.007,0.007-0.007,0.007-0.014,0.015
	c-0.015,0.007-0.028,0.014-0.036,0.021l-0.014,0.021h-0.007v0.007h-0.007v-0.007c0.007-0.007,0.007-0.021,0.007-0.021
	c0.007-0.007,0.014-0.007,0.021-0.014c0-0.007,0.007-0.007,0.007-0.007c0.014-0.015,0.028-0.015,0.035-0.021c0,0,0.007,0,0.015,0
	L77.507,78.3z M78.274,77.709c0.007-0.007,0.007-0.007,0.014-0.007c-0.007,0-0.014,0.007-0.021,0.021
	C78.268,77.716,78.274,77.709,78.274,77.709z M78.056,77.815c0-0.007,0-0.007,0-0.007c0-0.028-0.007-0.057-0.014-0.078
	c0.007,0,0.021,0.007,0.035,0.021c0,0,0.007,0,0.007,0.007c0.014,0.007,0.021,0.021,0.028,0.036v0.014c0,0,0,0,0,0.007h0.006
	c0-0.007,0-0.007,0-0.007c0-0.007,0-0.007,0-0.014c0,0,0.007,0,0.007-0.007V77.78c0.007,0,0.015-0.007,0.021-0.014v-0.007
	l0.007-0.007c0,0,0,0,0.007,0c0,0,0,0,0-0.007c0,0,0,0,0.007,0c0,0,0,0,0-0.007h0.014c0,0.007,0,0.007,0,0.014
	c0,0.028-0.007,0.042-0.007,0.057c0.007-0.007,0.014-0.014,0.014-0.014c0.008-0.014,0.015-0.021,0.022-0.036
	c0.006,0.007,0.006,0.015,0.006,0.028v0.014c-0.006,0-0.014,0.007-0.014,0.007c-0.007,0.014-0.015,0.021-0.028,0.028
	c0-0.008,0-0.008,0-0.014c-0.007,0-0.007,0-0.007,0c0,0.006-0.007,0.006-0.007,0.006v0.008c-0.007,0-0.007,0-0.007,0v-0.021h-0.007
	c-0.006,0.021-0.006,0.028-0.014,0.028c0,0,0-0.007,0-0.021v-0.007c0-0.007,0-0.007-0.007-0.014v0.021
	c-0.007,0.014,0,0.021-0.007,0.021c0,0,0-0.007,0-0.015c-0.006,0-0.006,0.008-0.006,0.008c0.006-0.008,0-0.014,0-0.014
	c-0.021,0.006-0.028,0.014-0.043,0.027v0.007l-0.006,0.007C78.063,77.85,78.063,77.836,78.056,77.815z M78.147,77.857v0.007
	c0,0,0,0,0,0.007s0,0.007-0.006,0.007v0.007c-0.007,0-0.007,0-0.015,0c0.007,0,0.015-0.007,0.015-0.007v-0.007
	c0-0.007,0-0.007,0-0.007s0,0,0-0.007H78.147z M78.098,78.372c0,0,0-0.021,0-0.049c0.007,0.028,0.007,0.049,0.007,0.049H78.098z
	 M78.126,78.047c-0.007,0-0.007,0.007-0.014,0.007v0.007c0,0-0.021,0.007-0.028,0.007v-0.007c0-0.007,0-0.014-0.007-0.021
	c0.007-0.007,0.007-0.007,0.015-0.007c0.006,0,0.006,0,0.014-0.007h0.007v-0.007h0.006c0.007,0,0.007,0,0.015-0.007
	c0,0.007,0,0.014-0.007,0.014c0.007,0,0.015-0.007,0.021-0.007C78.141,78.033,78.134,78.04,78.126,78.047z M78.113,77.991v-0.007
	h0.006L78.113,77.991z M78.274,77.977c-0.007,0-0.014,0.007-0.028,0.007c-0.021,0-0.042-0.007-0.07-0.021h-0.007c0,0,0,0-0.007,0
	c0,0-0.007,0-0.007-0.007h-0.007c0,0.007,0,0.007,0,0.014h-0.006l-0.007-0.007h-0.007l-0.007-0.007c0-0.007-0.006-0.007-0.006-0.007
	s-0.007-0.007-0.015-0.007h-0.006v-0.014l-0.007-0.007c-0.007,0-0.015,0-0.015-0.007v-0.007c0,0,0-0.007,0-0.014
	c0,0,0.007,0,0.015,0c0.007,0.007,0.014,0.007,0.021,0.007c0.007,0.007,0.007,0.007,0.007,0.007v0.007h0.006
	c0.007,0,0.007,0,0.015,0v0.007c0,0,0,0,0.007,0c0.006-0.007,0.006-0.007,0.014,0l0.007,0.007c0.007,0,0.021,0.007,0.027,0.007
	c0.015,0.007,0.028,0.014,0.05,0.021c0.021,0.007,0.042,0.014,0.063,0.014C78.295,77.97,78.282,77.977,78.274,77.977z M96.78,106.2
	c-3.894-0.014-7.273-3.31-7.26-7.063c0.021-4.197,3.26-7.415,7.401-7.352c3.908,0.063,7,3.289,6.957,7.268
	C103.837,103.024,100.668,106.215,96.78,106.2z M117.885,106.193c-3.972,0.014-7.246-3.218-7.26-7.168
	c-0.014-4.071,3.07-7.189,7.14-7.218c4.063-0.028,7.226,3.063,7.254,7.091C125.039,102.855,121.786,106.179,117.885,106.193z
	 M139.074,106.2c-4.057,0.063-7.296-3.126-7.317-7.225c-0.028-3.999,3.042-7.147,6.993-7.182c4.141-0.036,7.316,3.042,7.379,7.168
	C146.193,102.75,142.891,106.137,139.074,106.2z"/>
<path fill-rule="evenodd" clip-rule="evenodd" fill="#FCEE21" d="M307.937,321.024c-0.916,0.028-1.832,0.081-2.748,0.081
	c-16.88,0.005-33.76,0.004-50.641-0.001c-0.66,0-1.32-0.058-1.98-0.088c-0.052-3.107,1.509-5.643,2.957-8.202
	c2.442-4.314,5.943-7.681,10.162-10.135c3.067-1.784,6.487-2.893,10.049-3.521c6.01-1.06,11.748-0.064,17.092,2.565
	c7.524,3.701,12.643,9.643,15.015,17.797C307.99,320.02,308.087,320.512,307.937,321.024z"/>
<path fill-rule="evenodd" clip-rule="evenodd" fill="#E34037" d="M241.939,292.251c3.089-0.121,6.179-0.144,9.268,0.008
	c-0.829,1.496-2.202,2.422-3.547,3.371c-0.137,0.097-0.447,0.115-0.58,0.025C245.375,294.508,243.188,294.084,241.939,292.251z"/>
</svg>
