<?xml version="1.0" encoding="utf-8"?>
<!-- Generator: Adobe Illustrator 16.0.3, SVG Export Plug-In . SVG Version: 6.00 Build 0)  -->
<!DOCTYPE svg PUBLIC "-//W3C//DTD SVG 1.1//EN" "http://www.w3.org/Graphics/SVG/1.1/DTD/svg11.dtd">
<svg version="1.1" id="Capa_1" xmlns="http://www.w3.org/2000/svg" xmlns:xlink="http://www.w3.org/1999/xlink" x="0px" y="0px"
	 width="509px" height="428.256px" viewBox="0 0 509 428.256" enable-background="new 0 0 509 428.256" xml:space="preserve">
<title>time management</title>
<title>forgot password</title>
<title>reading list</title>
<title>gardening</title>
<title>accept_terms</title>
<path fill-rule="evenodd" clip-rule="evenodd" fill="#8CC63F" d="M269.356,143.491c60.158-10.472,120.319-20.928,180.463-31.478
	c2.149-0.377,2.518,0.124,2.858,2.095c10.262,59.323,20.586,118.635,30.974,177.937c0.345,1.969,0.167,2.565-1.983,2.937
	c-60.171,10.395-120.327,20.882-180.485,31.354C290.575,265.386,279.965,204.438,269.356,143.491z M386.199,273.859
	c30.325-5.275,50.625-33.98,45.386-64.178c-5.295-30.523-33.931-50.824-64.274-45.566c-30.485,5.283-50.762,33.954-45.493,64.328
	C327.103,258.903,355.8,279.146,386.199,273.859z"/>
<path fill-rule="evenodd" clip-rule="evenodd" fill="#F8F8F8" d="M60.294,192.461c-0.799-1.952-2.783-2.277-4.373-3.036
	c-10.508-5.014-21.065-9.923-31.581-14.922c-1.303-0.62-3.296-0.872-3.512-2.457c-0.28-2.056,2.017-2.436,3.307-3.221
	c25.992-15.826,52.307-31.147,77.894-47.6c7.419-4.77,12.786-3.919,19.802-0.528c33.695,16.293,67.558,32.24,101.36,48.311
	c0.601,0.286,1.179,0.629,1.794,0.877c3.393,1.368,3.792,2.735,0.332,4.761c-7.748,4.536-15.471,9.128-23.038,13.957
	c-4.732,3.019-10.019,5.234-14.036,9.333c-2.15,0.022-3.685,1.44-5.365,2.458c-13.803,8.348-27.662,16.606-41.303,25.213
	c-3.286,2.073-5.739,1.939-9.048,0.338c-20.203-9.776-40.474-19.414-60.802-28.929C68.029,195.286,64.651,192.593,60.294,192.461z"
	/>
<path fill-rule="evenodd" clip-rule="evenodd" fill="#006837" d="M187.422,243.903c13.705,6.633,27.411,13.267,41.828,20.244
	c-5.717,3.509-10.636,6.553-15.579,9.558c-24.177,14.693-48.368,29.362-72.528,44.084c-2.346,1.429-4.264,2.301-7.244,0.869
	c-36.746-17.645-73.582-35.104-110.384-52.634c-1.157-0.551-2.558-0.806-3.554-2.657c13.583-8.235,27.164-16.469,40.738-24.7
	c2.117-0.184,3.846,0.915,5.639,1.764c22.109,10.475,44.25,20.887,66.283,31.522c3.387,1.635,5.813,1.548,9.066-0.467
	C156.821,262.111,172.159,253.066,187.422,243.903z"/>
<path fill-rule="evenodd" clip-rule="evenodd" fill="#39B54A" d="M187.422,243.903c-15.264,9.163-30.602,18.208-45.734,27.582
	c-3.254,2.016-5.68,2.102-9.066,0.467c-22.033-10.635-44.174-21.047-66.283-31.522c-1.793-0.849-3.521-1.948-5.639-1.764
	c-2.389-3.047-6.133-3.81-9.355-5.389c-9.091-4.456-18.299-8.671-27.43-13.047c-1.269-0.608-3.384-0.788-3.309-2.526
	c0.067-1.542,2.073-1.956,3.306-2.711c11.467-7.023,22.968-13.993,34.446-20.999c0.697-0.426,1.293-1.018,1.937-1.534
	c4.356,0.131,7.734,2.824,11.431,4.554c20.328,9.515,40.599,19.153,60.802,28.929c3.309,1.601,5.762,1.735,9.048-0.338
	c13.641-8.606,27.5-16.865,41.303-25.213c1.681-1.017,3.215-2.436,5.365-2.458c9.658,5.889,20.273,9.845,30.297,14.994
	c3.193,1.641,8.729,2.3,8.918,5.221c0.189,2.934-5.229,4.232-8.242,6.128C208.676,230.914,198.029,237.375,187.422,243.903z"/>
<path fill-rule="evenodd" clip-rule="evenodd" fill="#D9E021" d="M254.442,377.254c-43.852-0.006-79.099-35.344-79.073-79.28
	c0.026-43.813,35.403-79.014,79.374-78.98c43.766,0.033,78.912,35.437,78.887,79.464
	C333.606,342.017,298.187,377.26,254.442,377.254z M257.442,286.477c0-2.076-0.139-4.164,0.036-6.225
	c0.215-2.526-1.173-2.682-3.129-2.702c-1.957-0.02-2.905,0.444-2.829,2.64c0.14,4.024-0.067,8.062,0.077,12.086
	c0.08,2.208-0.587,3.041-2.885,2.948c-4.023-0.163-8.063,0.086-12.084-0.089c-2.526-0.111-2.681,1.186-2.701,3.142
	c-0.02,1.956,0.443,2.905,2.639,2.829c4.025-0.14,8.062,0.067,12.086-0.077c2.207-0.08,3.042,0.585,2.949,2.884
	c-0.163,4.023,0.086,8.063-0.089,12.084c-0.11,2.525,1.185,2.681,3.142,2.701c1.956,0.02,2.904-0.444,2.829-2.64
	c-0.14-4.025,0.067-8.062-0.077-12.086c-0.08-2.208,0.586-3.049,2.885-2.948c3.778,0.166,7.573-0.069,11.352,0.085
	c2.374,0.097,3.487-0.379,3.483-3.139c-0.004-2.776-1.393-2.897-3.422-2.808c-1.828,0.081-3.663,0.017-5.495,0.017
	C257.445,295.18,257.445,295.18,257.442,286.477z"/>
</svg>
