<?xml version="1.0" encoding="utf-8"?>
<!-- Generator: Adobe Illustrator 16.0.3, SVG Export Plug-In . SVG Version: 6.00 Build 0)  -->
<!DOCTYPE svg PUBLIC "-//W3C//DTD SVG 1.1//EN" "http://www.w3.org/Graphics/SVG/1.1/DTD/svg11.dtd">
<svg version="1.1" id="Capa_1" xmlns="http://www.w3.org/2000/svg" xmlns:xlink="http://www.w3.org/1999/xlink" x="0px" y="0px"
	 width="509px" height="428.256px" viewBox="0 0 509 428.256" enable-background="new 0 0 509 428.256" xml:space="preserve">
<title>time management</title>
<title>forgot password</title>
<title>reading list</title>
<title>gardening</title>
<title>accept_terms</title>
<path fill-rule="evenodd" clip-rule="evenodd" fill="#8CC63F" d="M485.284,190.502v0.031l0.04-0.04
	C485.314,190.493,485.295,190.493,485.284,190.502z M483.365,160.596c-31.579-24.087-63.355-47.917-94.607-72.42
	c-7.809-6.125-15.26-7.947-24.959-6.62c-54.833,7.491-109.727,14.468-164.612,21.563c-51.776,6.7-103.573,13.31-155.35,20
	c-10.362,1.347-16.744,10.025-15.33,20.446c0.901,6.69,1.663,13.399,2.494,20.099c1.613,11.549,3.226,23.098,4.839,34.646
	c1.543,11.084,3.067,22.167,4.641,33.241c0.257,1.831,0.435,3.602-0.436,5.314c4.662,21.515,6.393,43.463,9.797,65.166
	c1.851,11.807,0.039,25.235,12.904,32.767c12.094,0.593,23.949-1.564,35.854-3.107c20.07-2.593,40.15-5.097,60.218-7.7
	c18.595-2.416,37.18-4.968,55.775-7.363c25.136-3.236,50.282-6.324,75.409-9.55c21.059-2.702,42.098-5.521,63.148-8.273
	c14.349-1.88,28.699-3.939,43.088-5.501c6.907-0.754,11.845-3.742,16.011-9.254c22.652-29.945,45.521-59.743,68.343-89.57
	c1.247-1.632,2.176-3.79,4.69-3.979c-0.069-1.484,0.466-2.572,1.95-3.068C495.992,175.53,495.131,169.563,483.365,160.596z
	 M129.31,250.127c-1.128,0.178-2.256,0.257-3.385,0.386c-1.999,0.247-4.008,0.485-6.007,0.732
	c-5.255,0.743-10.51,1.474-15.765,2.216c-2.335,0.287-4.661,0.584-6.986,0.872c-8.927,1.128-7.057,3.314-8.6-8.521
	c-0.119-1.307-0.248-2.623-0.366-3.939c-1.088-4.562-1.841-9.173-1.831-13.885c-0.683-1.593-1.089-3.226-0.891-4.977
	c-0.465-3.918-0.94-7.837-1.415-11.756c-0.762-1.288-0.732-2.682-0.614-4.097c-0.633-4.593-1.266-9.194-1.9-13.796
	c-1.732-8.609-1.732-8.619,6.819-9.668c0.969-0.129,1.959-0.069,2.939-0.099c5.868-1.158,11.776-2.048,17.773-2.335
	c1.573-0.861,3.266-0.841,4.978-0.673c4.008-0.662,8.016-1.256,12.004-1.989c3.266-0.604,4.087,0.97,3.661,3.82
	c2.119,9.145,2.119,9.145-9.787,9.738c-5.889,1.059-11.777,2.088-17.774,2.296c-1.563,0.871-4.404,0.475-3.662,3.661
	c0.584,3.97,1.168,7.947,1.751,11.916c1.307,0.079,2.604,0.159,3.909,0.228c5.859-1.425,11.846-1.88,17.813-2.543
	c2.029-0.257,4.137-1.723,6.007,0.406c0.495,2.732,0.871,5.493,1.504,8.204c0.564,2.435-0.544,3.314-2.722,3.533
	c-3.909,0.386-7.828,0.802-11.746,1.197c-1.594,0.693-3.246,0.96-4.979,0.772c-0.811,0.158-1.623,0.466-2.414,0.436
	c-4.948-0.198-6.037,2.395-4.908,6.65c0.139,1.336,0.276,2.673,0.415,4.008c0.277,1.108,0.861,2.236,0.772,3.325
	c-0.326,4.146,1.959,4.552,5.156,3.869c2.008-0.208,4.018-0.416,6.017-0.633c5.582-0.792,11.173-1.594,16.754-2.395
	c1.93,0.336,4.869-2.416,5.552,1.801C138.919,248.653,138.919,248.662,129.31,250.127z M200.671,240.626
	c-4.691,0.614-9.372,1.436-14.082,1.812c-4.285,0.347-4.572-3.85-6.383-6.285c-0.95-1.405-1.9-2.82-2.84-4.226
	c-2.029-2.305-3.761-4.81-5.117-7.57c-1.009-0.771-1.662-1.771-1.93-3.018c-2.533-0.831-1.781,1.94-2.909,2.642
	c-0.366,2.771-1.316,5.354-2.523,7.857c-0.297,1.109-0.743,2.207-0.881,3.335c-1.128,9.026-6.225,13.063-15.24,12.281
	c-1.752,0.247-3.503,0.672-5.255,0.712c-2.663,0.07-1.366-1.316-0.732-2.385c3.265-8.729,6.68-17.388,10.826-25.729
	c0.634-3.188,2.069-6.057,3.464-8.946c-0.308-3.275-3.533-4.83-4.573-7.68c-0.683-0.901-1.375-1.801-2.068-2.711
	c-2.741-2.782-5.086-5.869-7.145-9.185c-0.832-1.059-1.663-2.107-2.484-3.157c-2.603-3.255-5.206-6.512-8.323-10.411
	c5.967-0.88,11.034-1.573,16.081-2.385c2.375-0.375,3.731,0.555,4.315,2.801c0.653,0.979,1.316,1.959,1.979,2.939
	c2.296,2.761,4.294,5.72,5.838,8.976c0.663,0.98,1.326,1.959,1.989,2.949c1.296,0.683,1.326,2.702,3.414,3.008
	c1.534-4.235,3.068-8.51,4.612-12.775c0.297-1.108,0.504-2.247,0.891-3.325c3.305-9.045,0.386-8.125,11.776-8.887
	c2.979-0.524,5.958-1.039,9.629-1.683c-2.147,5.889-4.018,11.024-6.67,15.844c-0.604,3.196-2.078,6.066-3.424,8.976
	c-1.267,3.207-2.395,6.492-3.869,9.608c-1.029,2.198-1.02,4.057,0.425,5.958c0.9,1.069,1.792,2.148,2.692,3.227
	c2.068,2.563,4.136,5.116,6.205,7.679c0.891,1.08,1.781,2.147,2.671,3.217c3.652,4.394,7.274,8.818,10.995,13.152
	C203.868,239.399,203.175,240.3,200.671,240.626z M243.156,175.698c-1.139,0.139-2.286,0.287-3.425,0.426
	c-1.663,0.128-3.325,0.267-4.978,0.395c-0.88,0.495-1.969,0.742-2.255,1.92c0.118,1.326,0.247,2.643,0.365,3.958
	c1.108,4.562,1.851,9.174,1.851,13.875c0.653,1.593,1.099,3.226,0.881,4.978c0.475,3.919,0.95,7.838,1.425,11.766
	c0.772,1.277,0.732,2.673,0.624,4.087c0.693,4.71,1.247,9.451,2.127,14.132c0.624,3.365-0.832,4.463-3.879,4.592
	c-1.633,0.059-3.255,0.426-4.878,0.693c-7.472,1.217-7.611,1.108-7.957-6.551c-0.198-1.346-0.386-2.692-0.584-4.047
	c-0.782-4.552-1.771-9.085-1.663-13.756c-0.812-1.227-0.88-2.593-0.752-3.998c-0.574-4.275-1.158-8.541-1.732-12.816
	c-0.128-1.326-0.256-2.662-0.395-3.998c-0.673-3.928-1.346-7.867-2.009-11.796c-1.663,0.09-3.315,0.188-4.968,0.278
	c-2.891,0.504-5.799,0.91-8.66,1.523c-4.146,0.88-5.869-0.633-5.106-4.839c-2.107-7.234-2.059-7.323,5.077-8.065
	c1.287-0.129,2.573-0.257,3.859-0.376c5.354-0.752,10.708-1.504,16.052-2.247c2.236-0.287,4.473-0.564,6.701-0.841
	c5.917-0.762,11.835-1.515,17.753-2.276c2.831-0.91,3.167,0.723,2.969,2.909c0.049,0.149,0.128,0.297,0.168,0.465
	C251.804,174.639,251.804,174.639,243.156,175.698z M309.716,225.772c-2.502,0.792-4.244,0.03-5.095-2.534
	c-2-4.117-2.751-8.5-2.683-13.043c-0.365-1.296-0.742-2.583-1.117-3.879c-1.395-2.276-3.157-4.146-5.69-5.176
	c-1.99-0.06-3.988-0.118-5.978-0.178c-0.475,0.099-0.94,0.218-1.416,0.287c-8.649,1.307-8.649,1.297-8.54,9.866
	c0.307,1.663,0.603,3.316,0.9,4.978c0.485,3.573,0.921,7.145,1.455,10.708c0.317,2.079-0.435,2.979-2.553,3.187
	c-3.424,0.326-6.868,0.673-10.212,1.405c-3.255,0.712-3.73-0.812-3.415-3.395c-0.692-1.257-0.861-2.622-0.731-4.038
	c-0.614-4.581-1.228-9.174-1.851-13.766c-0.119-1.326-0.248-2.642-0.376-3.968c-1.128-4.552-1.801-9.164-1.841-13.865
	c-0.613-1.603-1.089-3.236-0.891-4.978c-0.465-3.929-0.92-7.858-1.375-11.787c-0.792-1.256-0.772-2.652-0.663-4.067
	c-2.226-10.619-2.226-10.628,8.333-11.756c1.139-0.119,2.286-0.08,3.435-0.109c1.583-0.693,3.245-0.96,4.977-0.772
	c5.533-0.93,11.035-2.247,16.726-1.604c1.345,0.188,2.7,0.367,4.047,0.545c4.186,0.327,7.828,1.89,10.846,4.839
	c1.098,0.436,1.811,1.257,2.286,2.306c3.266,3.523,4.474,7.779,4.405,12.48c0.327,2.513-0.089,4.858-1.613,6.947
	c-0.9,3.404-4.068,4.997-6.146,7.639c2.078,1.95,5.414,1.683,7.086,4.137c1.099,0.465,1.812,1.296,2.247,2.385
	c3.009,3.652,3.809,7.956,3.71,12.539c0.366,1.623,0.742,3.256,1.108,4.878c1.198,2.662,2.395,5.314,5.006,7.937
	C318.782,224.604,314.248,225.188,309.716,225.772z M375.219,217.014c-1.988,0.386-3.038-0.584-3.741-2.296
	c-1.415-3.474-2.9-6.927-4.344-10.4c-0.594-0.069-1.178-0.149-1.771-0.228c-5.85,1.356-11.816,1.95-17.783,2.494
	c-2.217,0.198-3.286,1.573-3.711,3.611c-0.743,11.332-0.743,11.332-12.104,12.589c-1.672-0.594-4.759,2.859-5.037-1.752
	c0.524-6.353,1.9-12.548,3.255-18.763c0.376-2.266,0.752-4.542,1.129-6.819c1.098-5.997,1.662-12.103,3.523-17.952
	c-0.049-1.702-0.1-3.404,0.742-4.967c1.127-6.63,2.257-13.261,3.384-19.892c0.049-0.326-0.01-0.772,0.178-0.95
	c4.513-4.077,10.44-2.435,15.635-3.79c2.95-0.772,3.396,1.741,3.91,3.85c0.565,1,1.128,1.998,1.692,3.008
	c1.496,3.255,2.989,6.511,4.483,9.767c0.376,0.743,0.752,1.495,1.127,2.237c2.138,3.761,4.187,7.57,5.512,11.708
	c0.565,1.009,1.12,2.008,1.684,3.018c1.493,3.256,2.978,6.521,4.472,9.788c1.03,1.127,1.684,2.444,1.95,3.948
	c3.206,6.423,6.404,12.836,9.699,19.437C384.314,216.312,379.673,216.153,375.219,217.014z M451.716,191.492
	c-4.898,4.423-12.568,5.453-18.396,2.464c-6.255-3.197-8.441-7.72-7.471-15.429c-1.109-1.454-1.05-3.018-0.555-4.69
	c1.732-5.858,8.393-10.708,15.072-10.906c6.186-0.178,13.32,4.374,15.26,9.837c0.189,0.505-0.208,1.217-0.337,1.831
	C458.02,181.339,456.853,186.841,451.716,191.492z"/>
<path fill-rule="evenodd" clip-rule="evenodd" fill="#009245" d="M62.748,334.799c12.094,0.594,23.947-1.565,35.857-3.106
	c20.067-2.593,40.148-5.094,60.214-7.699c18.598-2.415,37.177-4.974,55.778-7.365c25.129-3.232,50.277-6.323,75.407-9.548
	c21.055-2.704,42.094-5.526,63.141-8.279c14.36-1.876,28.699-3.931,43.094-5.497c6.903-0.75,11.84-3.739,16.013-9.254
	c22.655-29.95,45.518-59.744,68.34-89.568c1.262-1.647,2.191-3.808,4.731-3.993c-3.557,5.916-7.034,11.881-10.683,17.74
	c-17.422,27.972-34.965,55.869-52.278,83.908c-3.176,5.143-7.177,8.074-13.151,9.287c-80.364,16.324-160.697,32.801-241.041,49.227
	c-26.458,5.408-52.919,10.803-79.389,16.149c-11.119,2.246-19.638-3.212-22.186-14.174C65.22,346.706,64.025,340.743,62.748,334.799
	z"/>
<path fill-rule="evenodd" clip-rule="evenodd" fill="#009245" d="M31.001,163.663c1.612,11.549,3.226,23.098,4.835,34.647
	c1.544,11.082,3.068,22.166,4.642,33.244c0.259,1.827,0.439,3.6-0.431,5.313c-4.592-19.594-9.318-39.16-13.69-58.804
	C25.154,172.66,27.161,167.727,31.001,163.663z"/>
<path fill-rule="evenodd" clip-rule="evenodd" fill="#8CAD3D" d="M485.288,190.532c-0.083-1.492,0.447-2.6,1.947-3.098
	C487.005,188.73,486.379,189.778,485.288,190.532z"/>
<path fill-rule="evenodd" clip-rule="evenodd" fill="#8CAD3D" d="M455.288,174.601c-7.988-7.382-14.783-8.691-22.097-4.452
	c-3.436,1.992-5.279,5.252-7.347,8.376c-1.101-1.454-1.041-3.019-0.55-4.683c1.732-5.866,8.396-10.711,15.07-10.908
	c6.19-0.182,13.32,4.367,15.266,9.839C455.809,173.277,455.415,173.986,455.288,174.601z"/>
<path fill-rule="evenodd" clip-rule="evenodd" fill="#8CC63F" d="M286.58,188.563c-1.118,0.199-2.197,0.564-3.295,0.852
	c-1.663,0.148-3.326,0.297-4.979,0.445c-3.839-2.603-1.722-7.026-3.167-10.372c0.109-1.078,0.049-2.118-0.644-3.028
	c-1.435-5.225,2.544-5.255,5.76-6.007c1.722,0.168,3.423,0.178,5.017-0.654c3.553,0.456,7.146,0.822,9.709,3.8
	c0.445,0.98,0.89,1.959,1.335,2.939C296.733,184.951,294.991,187.078,286.58,188.563z"/>
<path fill-rule="evenodd" clip-rule="evenodd" fill="#8CC63F" d="M359.495,192.531c-1.733-0.198-3.385,0.079-4.979,0.772
	c-0.821,0.01-1.691-0.168-2.455,0.049c-4.986,1.435-6.026-0.732-4.77-5.097c0.316-2.286,0.634-4.562,0.95-6.838
	c0.693-3.988,1.385-7.976,2.118-12.142c2.207,0.871,1.87,3.167,3.176,4.265c0.248,1.504,0.831,2.85,1.851,3.988
	c0.891,3.504,2.583,6.67,4.216,9.857c0.485,1.029,0.97,2.048,1.445,3.078C361.354,191.778,360.592,192.284,359.495,192.531z"/>
</svg>
