<?xml version="1.0" encoding="utf-8"?>
<!-- Generator: Adobe Illustrator 16.0.3, SVG Export Plug-In . SVG Version: 6.00 Build 0)  -->
<!DOCTYPE svg PUBLIC "-//W3C//DTD SVG 1.1//EN" "http://www.w3.org/Graphics/SVG/1.1/DTD/svg11.dtd">
<svg version="1.1" id="Capa_1" xmlns="http://www.w3.org/2000/svg" xmlns:xlink="http://www.w3.org/1999/xlink" x="0px" y="0px"
	 width="509px" height="428.256px" viewBox="0 0 509 428.256" enable-background="new 0 0 509 428.256" xml:space="preserve">
<title>time management</title>
<title>forgot password</title>
<title>reading list</title>
<title>gardening</title>
<title>accept_terms</title>
<path fill-rule="evenodd" clip-rule="evenodd" fill="#8CC63F" d="M195.625,45.036c23.593,0.297,39.41,19.874,35.118,44.036
	c-0.789,4.433-0.254,7.715,2.775,11.211c11.556,13.336,22.86,26.894,34.143,40.465c1.81,2.178,3.541,2.951,6.414,2.503
	c5.845-0.912,11.771-0.935,17.492,0.884c2.945,0.936,5.053,0.169,7.205-1.914c19.996-19.344,40.021-38.659,60.151-57.864
	c2.306-2.199,2.371-4.318,1.978-7.168c-2.083-15.103,1.027-28.354,14.018-37.979c12.117-8.979,30.58-9.179,43.215-0.335
	c13.049,9.135,18.348,25.299,13.545,41.323c-4.359,14.541-18.196,24.992-33.584,25.35c-1.427,0.034-2.978,0.329-4.262-0.108
	c-8.137-2.767-13.077,1.608-18.457,6.941c-17.848,17.695-36.099,34.984-54.306,52.313c-3.111,2.961-4.036,5.83-3.638,10.309
	c1.335,15.026-3.959,27.454-17.164,35.485c-13.11,7.974-26.877,7.866-39.464-0.528c-12.665-8.447-18.957-21.001-15.936-36.445
	c1.41-7.205-0.46-12.016-5.14-17.21c-10.019-11.121-19.506-22.727-29.042-34.274c-3.012-3.647-6.107-5.541-11.046-4.122
	c-2.468,0.709-5.46,0.74-7.932,0.054c-5.348-1.483-8.476,0.626-11.805,4.656c-10.667,12.914-21.607,25.613-32.789,38.083
	c-3.388,3.779-4.03,7.343-3.223,12.143c4.375,26.008-17.897,47.564-43.554,42.39c-19.884-4.011-32.169-22.385-28.671-42.883
	c3.301-19.334,21.735-32.347,41.996-29.127c4.754,0.756,7.609-0.415,10.568-3.947c10.533-12.569,21.212-25.021,32.101-37.283
	c3.461-3.896,4.147-7.572,2.964-12.632c-4.655-19.917,7.793-39.5,27.302-43.46C189.544,45.303,192.614,45.31,195.625,45.036z
	 M89.665,179.322c-0.009,9.808,8.2,17.782,18.148,17.627c9.12-0.143,16.919-8.328,17.016-17.861
	c0.094-9.148-8.44-17.604-17.855-17.691C97.513,161.31,89.674,169.428,89.665,179.322z M395.917,86.197
	c9.965,0.072,18.015-7.66,17.989-17.277c-0.026-9.449-8.289-17.649-17.862-17.729c-8.65-0.071-17.976,8.931-17.889,17.27
	C378.254,77.953,386.441,86.129,395.917,86.197z"/>
<path fill-rule="evenodd" clip-rule="evenodd" fill="#00A99D" d="M437.922,291.456c0.003,31.752,0.009,63.506-0.001,95.259
	c-0.004,8.622-0.518,9.138-9.054,9.143c-20.158,0.013-40.315,0.021-60.472-0.005c-7.345-0.01-8.764-1.346-8.768-8.771
	c-0.036-64.04-0.038-128.081-0.004-192.122c0.004-6.764,1.556-8.271,8.164-8.29c21.405-0.063,42.812-0.007,64.218-0.145
	c3.939-0.025,5.521,1.875,5.792,5.396c0.149,1.953,0.118,3.921,0.118,5.883C437.921,229.021,437.919,260.239,437.922,291.456z"/>
<path fill-rule="evenodd" clip-rule="evenodd" fill="#22B573" d="M166.741,310.725c-0.001-25.325-0.011-50.651,0.004-75.977
	c0.005-9.015,0.53-9.536,9.272-9.538c19.975-0.006,39.95-0.012,59.925,0.003c8.217,0.006,9.11,0.872,9.114,9.309
	c0.025,49.224-0.012,98.449,0.031,147.674c0.011,13.61,1.793,13.775-13.546,13.693c-18.904-0.103-37.81-0.005-56.715-0.033
	c-6.994-0.01-8.057-1.029-8.067-8.084C166.717,362.09,166.743,336.408,166.741,310.725z"/>
<path fill-rule="evenodd" clip-rule="evenodd" fill="#00A99D" d="M264.118,326.601c0-20.154-0.006-40.308,0.002-60.462
	c0.003-8.699,0.46-8.956,9.004-8.914c20.867,0.104,41.735,0.15,62.601-0.076c4.914-0.053,6.752,1.678,6.746,6.472
	c-0.067,41.734-0.011,83.471-0.062,125.205c-0.007,5.908-1.262,7.007-7.46,7.019c-21.224,0.041-42.448,0.044-63.673-0.004
	c-6.248-0.015-7.129-0.914-7.142-7.172C264.091,367.979,264.118,347.291,264.118,326.601z"/>
<path fill-rule="evenodd" clip-rule="evenodd" fill="#009245" d="M71.213,339.985c0-16.237,0.136-32.475-0.089-48.709
	c-0.062-4.468,1.583-6.156,5.856-6.146c22.125,0.051,44.25,0.071,66.374-0.018c4.359-0.017,6.191,1.993,6.19,6.136
	c-0.008,32.294,0.064,64.589-0.077,96.882c-0.03,6.797-1.295,7.721-7.919,7.727c-20.875,0.021-41.751,0.029-62.626-0.009
	c-6.996-0.012-7.645-0.678-7.659-7.688c-0.034-16.058-0.011-32.116-0.011-48.173C71.24,339.985,71.226,339.985,71.213,339.985z"/>
<path fill-rule="evenodd" clip-rule="evenodd" fill="none" d="M89.665,179.322c0.01-9.895,7.849-18.013,17.309-17.925
	c9.415,0.087,17.95,8.543,17.855,17.691c-0.096,9.533-7.896,17.718-17.016,17.861C97.865,197.104,89.655,189.13,89.665,179.322z"/>
<path fill-rule="evenodd" clip-rule="evenodd" fill="none" d="M395.917,86.197c-9.476-0.068-17.663-8.244-17.761-17.736
	c-0.087-8.339,9.238-17.341,17.889-17.27c9.573,0.08,17.835,8.28,17.862,17.729C413.932,78.538,405.882,86.269,395.917,86.197z"/>
</svg>
