<?xml version="1.0" encoding="utf-8"?>
<!-- Generator: Adobe Illustrator 16.0.3, SVG Export Plug-In . SVG Version: 6.00 Build 0)  -->
<!DOCTYPE svg PUBLIC "-//W3C//DTD SVG 1.1//EN" "http://www.w3.org/Graphics/SVG/1.1/DTD/svg11.dtd">
<svg version="1.1" id="Capa_1" xmlns="http://www.w3.org/2000/svg" xmlns:xlink="http://www.w3.org/1999/xlink" x="0px" y="0px"
	 width="539.082px" height="417.628px" viewBox="0 0 539.082 417.628" enable-background="new 0 0 539.082 417.628"
	 xml:space="preserve">
<path fill-rule="evenodd" clip-rule="evenodd" fill="#40A629" d="M416.85,371.473c41.954,10.513,82.356,25.208,120.895,44.911
	c0.521,0.268,0.896,0.822,1.338,1.244c-170.667,0-341.333,0-512,0c5.644-4.391,12.536-6.428,18.656-9.918
	c1.223-0.697,2.878-0.709,3.939-2.701c-8.725,0-17.114,0.217-25.488-0.061c-8.87-0.293-13.506-6.133-12.362-14.938
	c0.745-5.733,5.169-10.228,10.971-10.369c9.472-0.231,18.964-0.321,28.429,0.022c8.416,0.305,12.989,8.164,10.546,17.227
	c-0.4,1.486-2.012,2.885-0.509,4.596c-0.121-0.402-0.244-0.803-0.367-1.203c-0.235,0.164-0.47,0.33-0.705,0.496
	c0.362,0.23,0.724,0.463,1.086,0.693c9.21-5.276,19.326-8.406,29.213-11.996c14.599-5.301,29.269-10.459,44.447-13.95
	c2.036,0.078,2.851-1.231,3.321-2.928c0.479-1.726,1.556-2.807,3.344-3.13c8.263,5.521,22.812,8.459,31.469,2.154
	c11.116-0.213,22.245,0.629,33.351-0.416c0.828,0.077,1.655,0.221,2.483,0.222c39.244,0.042,78.489,0.081,117.733,0.082
	c1.982,0,3.965-0.323,5.949-0.495c1.297,0.209,2.593,0.596,3.888,0.595c13.58-0.007,27.16-0.077,40.74-0.13
	C390.428,371.478,403.639,371.476,416.85,371.473z"/>
<path fill-rule="evenodd" clip-rule="evenodd" fill="#FDFCFC" d="M139.926,292.354c-5.816,5.464-11.661,10.898-17.439,16.401
	c-5.128,4.884-10.977,6.937-17.765,4.182c-6.802-2.761-9.478-8.108-9.557-15.396c-0.138-12.639-0.757-25.273-1.174-37.908
	c0.571-8.128,0.571-8.131,8.989-9.036c0.987-0.106,1.982-0.142,2.974-0.21c0.492,1.207,0.983,2.415,1.475,3.623
	c1.287,10.879,3.193,21.687,3.73,32.652c0.045,0.916-0.586,2.152,0.563,2.656c1.389,0.61,2.003-0.804,2.789-1.547
	c6.404-6.053,13.101-11.839,19.079-18.291c6.746-7.28,14.826-11.49,24.454-13.1c2.496,7.381,6.045,10.081,12.065,9.178
	c4.87-0.73,7.732-4.646,7.982-10.918c2.574,1.204,5.148,2.408,7.72,3.611c2.42,1.119,4.842,2.238,7.265,3.358
	c7.899,5.007,11.751,12.098,13.533,21.423c4.833,25.299,9.505,50.617,13.626,76.039c-0.907,1.872,2.034,3.871-0.189,5.699
	c-3.594,0.049-7.245-0.594-10.725,0.871c-3.3-1.071-5.901-2.625-5.57-6.791c0.056-0.709-1.072-1.511-1.652-2.27
	c-1.195-10.014-4.858-19.49-6.432-29.431c-0.257-1.624-0.151-3.8-2.398-4.528c0.045-6.703-0.876-13.21-3.891-20.348
	c-1.536,10.369-2.917,19.694-4.297,29.019c-1.908,3.646-0.919,8.093-3.224,11.628c-0.838-4.364-0.996-8.85-2.661-13.065
	c-4.082-10.332-13.322-19.499-27.851-11.308c-5.033,2.838-9.972,5.861-14.807,9.026c-2.347,1.536-2.698,0.594-2.69-1.515
	c5.487-8.311,5.611-17.864,6.335-27.281c1.667-6.076,1.059-12.334,1.139-18.557C140.855,284.267,140.391,288.311,139.926,292.354z
	 M170.097,300.669c-1.577-1.121-2.41-0.824-3.013-0.265c-5.896,5.476-12.849,8.8-20.675,10.495c-1.049,0.227-2.023,1.12-2.871,1.885
	c-1.369,1.234-1.831,2.805-0.851,4.494c0.934,1.611,2.422,1.502,3.96,1.047C156.609,315.373,163.827,308.885,170.097,300.669z"/>
<path fill-rule="evenodd" clip-rule="evenodd" fill="#283439" d="M133.846,326.062c-0.007,2.108,0.343,3.051,2.69,1.515
	c4.834-3.165,9.773-6.188,14.807-9.026c14.529-8.191,23.769,0.976,27.851,11.308c1.666,4.216,1.823,8.701,2.655,13.051
	c0.537,7.444,1.659,14.974-2.709,21.823c-1.352,1.623-2.704,3.248-4.056,4.871c-0.67,0.674-1.341,1.347-2.011,2.02
	c-8.657,6.305-23.207,3.366-31.465-2.152c-0.525-0.506-1.054-1.015-1.583-1.523c-0.416-1.524-0.99-2.841-2.994-2.287l0.016,0.019
	c-0.938-5.47-1.919-6.104-6.412-4.146c-5.778,1.249-11.177,3.541-16.517,5.997c-2.31,0.738-4.619,1.477-6.928,2.215
	c-1.859,0.152-3.521,0.857-5.091,1.82c-3.385,0.377-6.179,3.663-9.973,2.021c-1.83-4.643-3.737-9.243-7.179-12.996
	c0.792-1.275,2.893-0.939,3.379-2.955c-6.356-4.066-12.763-8.229-18.526-13.279c-4.674-4.097-8.979-8.509-11.427-14.32
	c-3.907-9.27,1.433-17.779,11.532-18.379c12.172-0.721,23.767,2.52,35.307,5.691C114.829,319.989,124.306,323.137,133.846,326.062z"
	/>
<path fill-rule="evenodd" clip-rule="evenodd" fill="#E0DEDE" d="M185.975,133.542c-0.014,15.68-0.028,31.359-0.042,47.039
	c-5.404-3.827-9.53-0.629-13.661,2.494c-2.183,1.65-1.191,4.045-1.09,6.033c0.139,2.737-0.938,3.934-3.448,4.354
	c-1.463,0.244-2.93,0.563-4.341,1.016c-4.418,1.412-7.707,1.221-9.371-4.229c-1.075-3.524-9.884-4.929-12.216-1.939
	c-3.446,4.416-6.534,3.89-10.193,0.657c-0.985-0.871-2.157-1.605-3.36-2.139c-2.754-1.22-3.465-2.754-2.281-5.809
	c2.539-6.547-1.708-12.512-8.769-12.336c-3.174,0.078-4.481-1.037-4.824-3.984c-0.172-1.479-0.451-2.994-0.994-4.371
	c-1.761-4.462-0.774-7.213,4.109-8.852c3.428-1.148,5.072-10.076,2.24-12.324c-4.273-3.393-3.681-6.129-0.972-10.324
	c2.894-4.482,5.019-7.812,11.045-4.5c2.651,1.457,9.595-4.258,9.267-7.469c-0.505-4.926,1.044-7.49,6.235-7.564
	c1.613-0.023,3.319-0.486,4.802-1.15c2.887-1.294,4.065-0.068,5.261,2.484c3.124,6.668,10.094,7.917,15.113,2.614
	c2.199-2.323,3.89-2.344,6.207-0.569c1.446,1.107,2.985,2.193,4.648,2.899c3.9,1.657,4.656,4.119,2.684,7.796
	C179.431,128.204,184.425,130.234,185.975,133.542z M154.978,136.415c-8.695-0.06-15.648,6.623-15.794,15.18
	c-0.148,8.674,6.989,15.997,15.641,16.051c8.399,0.053,15.595-6.932,15.856-15.391C170.949,143.598,163.887,136.475,154.978,136.415
	z"/>
<path fill-rule="evenodd" clip-rule="evenodd" fill="#E0DEDE" d="M350.283,146.73c0.068-9.798,0.137-19.596,0.202-29.394
	c9.046-2.434,14.476-8.635,14.474-16.531c-0.003-7.775-5.515-14.178-14.014-16.277c-0.515-8.045-0.253-16.088,0.13-24.129
	c5.104,4.089,10.423,4.188,15.165-0.014c1.911-1.693,3.449-2.279,5.522-0.418c1.23,1.104,2.601,2.135,4.069,2.877
	c4.759,2.402,6.47,5.354,3.332,10.513c-1.906,3.134,3.596,11.467,7.333,10.968c6.182-0.827,7.17,2.709,7.601,7.34
	c0.123,1.316,0.264,2.661,0.643,3.918c0.971,3.213,0.25,5.012-3.247,6.296c-6.956,2.556-8.478,9.942-3.356,15.608
	c2.017,2.23,2.699,4,0.41,6.317c-0.809,0.818-1.498,1.804-2.049,2.818c-2.619,4.828-5.522,7.858-11.504,4.074
	c-2.924-1.849-11.112,4.114-10.688,7.87c0.618,5.475-2.175,6.75-6.625,7.098C355.202,145.858,352.748,146.365,350.283,146.73z"/>
<path fill-rule="evenodd" clip-rule="evenodd" fill="#7C411E" d="M379.932,363.715c-2.282-11.362-4.565-22.724-6.849-34.087
	l0.207-0.096c15.88,0.008,31.76,0.017,47.64,0.024l0.258,0.153c-2.347,11.88-4.693,23.76-7.039,35.643
	c-11.362,0.063-22.727,0.125-34.09,0.188C380.017,364.932,379.975,364.323,379.932,363.715z M382.966,348.912
	c-0.056,0.167-0.112,0.334-0.168,0.501c9.866,0,19.732,0,29.6,0c0.001-0.167,0.003-0.334,0.005-0.501
	C402.59,348.912,392.778,348.912,382.966,348.912z"/>
<path fill-rule="evenodd" clip-rule="evenodd" fill="#F5BB9B" d="M178.089,254.642c-0.25,6.271-3.112,10.188-7.982,10.918
	c-6.02,0.903-9.569-1.797-12.065-9.178c0.53-2.9-0.034-4.889-3.386-5.811c-4.152-1.143-6.014-4.62-6.336-8.612
	c-0.544-6.733-0.851-13.498-0.932-20.254c-0.044-3.699,1.424-7.071,3.883-9.925c2.74,1.891,5.567,2.524,8.875,1.332
	c7.522-2.711,12.478,0.672,12.96,8.771c0.176,2.967,0.018,5.952,0.048,8.929c0.012,1.188,0.165,2.448,1.674,2.566
	c1.218,0.095,1.723-1.015,1.9-1.933c0.37-1.916,0.958-3.51,3.154-3.875c4.005,3.904,3.914,6.98-0.772,8.91
	c-2.437,1.004-1.663,2.445-1.621,3.893C177.627,245.132,177.88,249.886,178.089,254.642z"/>
<path fill-rule="evenodd" clip-rule="evenodd" fill="#E0DEDE" d="M186.521,58.97c-0.155,12.674-0.31,25.348-0.464,38.021
	c-0.609,0.529-1.558,0.949-1.775,1.607c-2.101,6.385-5.145,7.152-9.901,2.876c-1.837-1.651-4.695-3.183-6.974-0.404
	c-2.147,2.618-3.652,0.772-5.447-0.241c-1.939-1.094-3.622-1.987-2.712-4.909c1.08-3.466-0.886-5.899-4.212-6.056
	c-3.076-0.144-3.529-1.85-3.878-4.021c-0.339-2.104-1.539-4.11,1.807-5.609c2.898-1.299,3.29-4.854,1.024-7.074
	c-2.578-2.527-0.688-4.006,0.324-5.901c1.099-2.058,2.211-3.23,5.074-2.341c3.161,0.982,5.602-1.198,5.602-4.257
	c0-3.215,1.957-3.47,3.972-3.885c2.106-0.434,4.248-1.576,5.805,1.663c1.449,3.016,4.605,3.202,7.102,1.159
	C183.527,58.239,184.737,57.573,186.521,58.97z M175.464,71.733c-4.308-0.275-8.692,3.645-9.125,8.16
	c-0.443,4.624,3.537,9.083,8.322,9.322c4.538,0.226,8.729-3.452,9.147-8.028C184.219,76.694,180.103,72.032,175.464,71.733z"/>
<path fill-rule="evenodd" clip-rule="evenodd" fill="#FBF8F8" d="M62.247,273.225c0.045,8.259-4.363,12.781-12.506,12.828
	c-8.049,0.046-12.875-4.603-12.994-12.517c-0.117-7.783,4.854-12.834,12.684-12.89C57.574,260.589,62.202,265.132,62.247,273.225z"
	/>
<path fill-rule="evenodd" clip-rule="evenodd" fill="#63300F" d="M373.083,329.628c-2.102-0.799-5.726,1.68-6.057-2.958
	c-0.249-3.489,0.308-5.472,4.685-5.435c17.276,0.146,34.557-0.047,51.835-0.211c2.575-0.025,3.788,0.854,3.45,3.447
	c-0.265,2.039,1.15,5.057-2.824,5.06c-0.995,0.001-1.99,0.116-2.984,0.179c0,0-0.258-0.153-0.257-0.152
	c-0.275-0.178-0.546-0.498-0.83-0.51c-15.326-0.682-30.653-0.645-45.979-0.025c-0.283,0.012-0.555,0.334-0.831,0.51L373.083,329.628
	z"/>
<path fill-rule="evenodd" clip-rule="evenodd" fill="#485C65" d="M107.427,254.011c-0.492-1.208-0.983-2.416-1.474-3.621
	c-0.197-2.994,0.188-5.551,3.842-6.304c0.954-0.196,2.185-0.572,2.158-2.231c-0.07-4.273-4.139-7.93-8.905-7.814
	c-2.349-8.504-2.354-8.516,5.636-11.756c2.112-0.857,4.264-1.615,6.398-2.42c2.341,10.939,4.683,21.878,7.024,32.816
	C117.327,254.376,112.278,253.103,107.427,254.011z"/>
<path fill-rule="evenodd" clip-rule="evenodd" fill="#80C41C" d="M379.932,363.715c0.043,0.608,0.085,1.217,0.126,1.826
	c-2.071,0.001-4.142,0.001-6.72,0.001c1.126,2.033,1.969,3.553,2.812,5.074c-14.521,0.131-29.041,0.264-43.561,0.396
	c5.082-3.497,10.538-6.569,13.842-12.099C357.597,360.515,368.765,362.114,379.932,363.715z"/>
<path fill-rule="evenodd" clip-rule="evenodd" fill="#E8E5E4" d="M84.947,360.589c3.441,3.753,5.349,8.354,7.179,12.996
	c-6.501,2.849-13.266,1.777-19.995,1.381c-2.802-0.166-5.617-0.29-8.42-0.213c-2.146,0.058-3.515-0.465-3.729-2.856
	c-0.188-2.101,0.405-3.438,2.634-4.024c4.778-1.254,9.468-2.869,14.281-3.951C79.83,363.263,82.209,361.552,84.947,360.589z"/>
<path fill-rule="evenodd" clip-rule="evenodd" fill="#283439" d="M179.882,227.571c-2.197,0.365-2.784,1.959-3.154,3.875
	c-0.177,0.918-0.682,2.027-1.9,1.933c-1.509-0.118-1.662-1.379-1.674-2.566c-0.03-2.977,0.128-5.962-0.048-8.929
	c-0.482-8.1-5.438-11.482-12.96-8.771c-3.308,1.192-6.135,0.559-8.875-1.332c1.001-4.414,4.797-5.282,8.284-6.025
	c11.456-2.438,20.443,5.025,20.537,16.832C180.104,224.247,179.956,225.909,179.882,227.571z"/>
<path fill-rule="evenodd" clip-rule="evenodd" fill="#A0642F" d="M376.149,370.616c-0.843-1.521-1.686-3.041-2.812-5.074
	c2.578,0,4.648,0,6.72-0.001c11.364-0.063,22.729-0.126,34.091-0.188c1.928-0.002,3.857-0.002,6.495-0.002
	c-1.524,2.463-2.657,4.293-3.792,6.122c-13.213,0.003-26.424,0.005-39.635,0.007C376.861,371.191,376.506,370.903,376.149,370.616z"
	/>
<path fill-rule="evenodd" clip-rule="evenodd" fill="#F5BB9B" d="M103.049,234.04c4.766-0.115,8.834,3.541,8.905,7.814
	c0.027,1.659-1.205,2.035-2.158,2.231c-3.655,0.753-4.039,3.31-3.842,6.304c-0.992,0.066-1.987,0.102-2.974,0.208
	c-8.418,0.905-8.417,0.908-8.989,9.036C91.879,250.265,96.092,238.362,103.049,234.04z"/>
<path fill-rule="evenodd" clip-rule="evenodd" fill="#E0DEDE" d="M140.024,367.946c0.529,0.509,1.058,1.018,1.583,1.523
	c-1.792,0.321-2.87,1.402-3.348,3.128c-0.47,1.696-1.285,3.006-3.321,2.928c-2.55-3.702-6.663-3.382-10.397-4.038
	c-0.728-1.246-1.84-1.255-3.05-0.948c-2.458-1.003-4.916-2.007-7.374-3.011c5.34-2.456,10.739-4.748,16.518-5.996
	c1.848,1.83,3.827,3.456,6.411,4.146l-0.016-0.019C137.544,367.056,138.817,367.458,140.024,367.946z"/>
<path fill-rule="evenodd" clip-rule="evenodd" fill="#283439" d="M122.107,252.681c-2.341-10.938-4.683-21.877-7.024-32.816
	c1.713-0.456,2.475,0.424,2.778,1.967c1.89,9.621,3.771,19.244,5.689,28.86C123.806,251.975,123.356,252.575,122.107,252.681z"/>
<path fill-rule="evenodd" clip-rule="evenodd" fill="#12491D" d="M399.008,300.763c0.75,5.697-1.068,11.518,0.642,17.234
	C397.456,312.371,398.504,306.558,399.008,300.763z"/>
<path fill-rule="evenodd" clip-rule="evenodd" fill="#AEB2B4" d="M139.926,292.354c0.465-4.044,0.93-8.088,1.395-12.131
	c-0.081,6.223,0.527,12.48-1.139,18.557C140.096,296.64,140.011,294.497,139.926,292.354z"/>
<path fill-rule="evenodd" clip-rule="evenodd" fill="#C9C9C9" d="M409.302,298.665c0.36-0.336,0.897-1.027,1.055-0.95
	c1.453,0.72,0.349,1.987,0.536,3.002C410.361,300.032,409.831,299.349,409.302,298.665z"/>
<path fill-rule="evenodd" clip-rule="evenodd" fill="#AEB2B4" d="M376.149,370.616c0.356,0.287,0.712,0.575,1.067,0.863
	c-13.58,0.053-27.16,0.123-40.74,0.13c-1.295,0.001-2.591-0.386-3.888-0.595c-0.002,0,0.002-0.004,0.001-0.004
	C347.108,370.88,361.629,370.747,376.149,370.616z"/>
<path fill-rule="evenodd" clip-rule="evenodd" fill="#AEB2B4" d="M202.951,369.778c1.453-0.243,2.638,0.168,3.473,1.428
	c-11.105,1.045-22.234,0.203-33.351,0.416c0.67-0.673,1.341-1.346,2.011-2.02C184.362,371.405,193.654,370.974,202.951,369.778z"/>
<path fill-rule="evenodd" clip-rule="evenodd" fill="#B7221D" d="M61.279,401.472c-0.362-0.23-0.725-0.463-1.086-0.693
	c0.235-0.166,0.47-0.332,0.705-0.496c0.123,0.4,0.246,0.801,0.367,1.203C61.263,401.487,61.279,401.472,61.279,401.472z"/>
<path fill-rule="evenodd" clip-rule="evenodd" fill="#C9C9C9" d="M170.097,300.669c-6.27,8.216-13.488,14.704-23.449,17.656
	c-1.539,0.455-3.027,0.564-3.96-1.047c-0.98-1.689-0.519-3.26,0.851-4.494c0.847-0.765,1.821-1.658,2.871-1.885
	c7.826-1.695,14.779-5.02,20.675-10.495C167.687,299.845,168.52,299.548,170.097,300.669z"/>
<path fill-rule="evenodd" clip-rule="evenodd" fill="#F2F2F2" d="M202.096,356.583c-5.786-2.734-8.605-7.617-8.905-13.7
	c-0.332-6.735,0.021-13.505,0.076-20.259c2.247,0.729,2.141,2.904,2.398,4.528C197.238,337.093,200.901,346.569,202.096,356.583z"/>
<path fill-rule="evenodd" clip-rule="evenodd" fill="#F5BB9B" d="M220.043,364.772c-0.185,2.959,1.827,2.889,3.931,3.053
	c4.047,0.315,8.164,0.398,11.961,3.105c-7.787,0-15.575,0.094-23.359-0.043c-3.442-0.061-2.429-3.325-3.258-5.245
	C212.798,364.179,216.449,364.821,220.043,364.772z"/>
<path fill-rule="evenodd" clip-rule="evenodd" fill="#80C41C" d="M179.14,364.731c4.075-0.721,8.15-1.441,12.227-2.162
	c3.471,3.031,7.096,5.814,11.584,7.209c-9.297,1.195-18.589,1.627-27.867-0.176C176.436,367.979,177.788,366.354,179.14,364.731z"/>
<path fill-rule="evenodd" clip-rule="evenodd" fill="#B7241F" d="M137.046,365.678c-2.584-0.689-4.563-2.315-6.411-4.146
	C135.127,359.573,136.109,360.208,137.046,365.678z"/>
<path fill-rule="evenodd" clip-rule="evenodd" fill="#B7241F" d="M140.024,367.946c-1.208-0.488-2.48-0.891-2.994-2.287
	C139.034,365.105,139.609,366.422,140.024,367.946z"/>
<path fill-rule="evenodd" clip-rule="evenodd" fill="#4FA0CA" d="M350.945,84.528c8.499,2.1,14.011,8.502,14.014,16.277
	c0.002,7.896-5.428,14.098-14.474,16.531C350.315,106.396,349.838,95.452,350.945,84.528z"/>
<path fill-rule="evenodd" clip-rule="evenodd" fill="#4FA0CA" d="M154.978,136.415c8.909,0.06,15.971,7.183,15.703,15.84
	c-0.261,8.459-7.457,15.443-15.856,15.391c-8.652-0.054-15.789-7.377-15.641-16.051C139.33,143.038,146.283,136.355,154.978,136.415
	z"/>
<path fill-rule="evenodd" clip-rule="evenodd" fill="#304148" d="M373.29,329.532c0.276-0.176,0.548-0.498,0.831-0.51
	c15.326-0.619,30.653-0.656,45.979,0.025c0.284,0.012,0.555,0.332,0.83,0.51C405.05,329.549,389.17,329.54,373.29,329.532z"/>
<path fill-rule="evenodd" clip-rule="evenodd" fill="#304148" d="M382.966,348.912c9.813,0,19.624,0,29.437,0
	c-0.002,0.167-0.004,0.334-0.005,0.501c-9.867,0-19.733,0-29.6,0C382.854,349.246,382.91,349.079,382.966,348.912z"/>
<path fill-rule="evenodd" clip-rule="evenodd" fill="#4FA0CA" d="M175.464,71.733c4.639,0.299,8.755,4.961,8.344,9.454
	c-0.419,4.576-4.609,8.254-9.147,8.028c-4.785-0.239-8.765-4.698-8.322-9.322C166.771,75.378,171.156,71.458,175.464,71.733z"/>
<g id="XMLID_1_">
	<g>
		<path fill="#F2F91C" d="M450.939,249.461c2.68,1.68,2.479,3.18-0.45,4.46c-6.28,2.75-12.82,4.649-19.67,4.59
			c-5.75-0.05-11.12,0.64-16.221,3.529c-2.399,1.351-5.789,2.841-7.869,0.931c-1.42-1.3,0.279-4.58,0.939-6.9
			c1.83-6.39,4.57-12.08,11.5-14.42c0.811,0.85-0.52,2.45,1.34,3.13c0.54-1.29,1.09-2.6,1.641-3.92c0.63-0.09,1.26-0.19,1.89-0.28
			c2.021,0,4.04,0.01,6.07,0.01c1.01,0.13,2.02,0.26,3.04,0.4c0.62,0.21,1.239,0.43,1.87,0.64c0.35,0.07,0.71,0.15,1.06,0.22
			c0.12,1.35-0.3,3.04,1.49,3.56c1.34,0.39,1.67-1.18,2.52-1.77C444.119,244.811,447.469,247.261,450.939,249.461z M423.159,243.521
			c3.61,1.97,6.3-0.56,8.95-0.08C429.369,242.73,426.639,242.041,423.159,243.521z"/>
		<path fill="#CCE70B" d="M436.079,241.851c1.34,0.6,2.68,1.2,4.01,1.79c-0.85,0.59-1.18,2.16-2.52,1.77
			C435.779,244.891,436.199,243.201,436.079,241.851z"/>
		<path fill="#F2F91C" d="M437.219,312.11c0.29,3.62-1.47,3.88-4.1,3.32c-9.33-1.99-16.83-6.78-22.23-14.71
			c-0.18-1.021,0.921-2.29-0.529-3.01c-0.16-0.07-0.7,0.619-1.061,0.949c-1.63-2.54-3.26-5.08-4.89-7.609l-0.12-0.05
			c0.04-0.16,0.14-0.33,0.11-0.48c-2.25-11.51,3.399-16.75,14.949-13.86c10.2,2.561,17.671,11.95,17.82,22.49
			C437.229,303.471,436.869,307.82,437.219,312.11z M412.999,290.181c0.061-0.101-0.1-0.43-0.12-0.42
			c-0.229,0.04-0.649,0.13-0.649,0.189c0.01,0.29,0.14,0.57,0.25,0.9C412.679,290.61,412.879,290.421,412.999,290.181z
			 M411.929,294.391c-0.05-0.28-0.109-0.57-0.17-0.91c-0.22,0.19-0.439,0.33-0.569,0.53c-0.07,0.09,0.02,0.43,0.05,0.43
			C411.469,294.461,411.699,294.421,411.929,294.391z"/>
		<path fill="#CCE70B" d="M432.109,243.44c-2.65-0.48-5.34,2.05-8.95,0.08C426.639,242.041,429.369,242.73,432.109,243.44z"/>
		<path fill="#CCE70B" d="M430.109,240.59c-2.03,0-4.05-0.01-6.07-0.01C426.06,239.641,428.079,239.721,430.109,240.59z"/>
		<path fill="#CCE70B" d="M419.169,241.65c0.83-0.87,1.9-0.84,2.98-0.79c-0.551,1.32-1.101,2.63-1.641,3.92
			C418.649,244.101,419.979,242.5,419.169,241.65z"/>
		<path fill="#C9C9C9" d="M412.879,289.761c0.021-0.01,0.181,0.319,0.12,0.42c-0.12,0.24-0.32,0.43-0.52,0.67
			c-0.11-0.33-0.24-0.61-0.25-0.9C412.229,289.891,412.649,289.801,412.879,289.761z"/>
		<path fill="#CCE70B" d="M411.759,293.48c0.061,0.34,0.12,0.63,0.17,0.91c-0.229,0.03-0.46,0.07-0.689,0.05
			c-0.03,0-0.12-0.34-0.05-0.43C411.319,293.811,411.539,293.671,411.759,293.48z"/>
		<path fill="#12491D" d="M404.289,291.001l0.12,0.05c-0.64,9.01-2.1,18-0.57,27.069
			C401.249,309.021,401.459,299.98,404.289,291.001z"/>
		<path fill="#F2F91C" d="M395.589,249.12c7.09,3.23,8.11,5.101,7.391,13.521c-0.08,0.1-0.24,0.22-0.23,0.3
			c0.04,0.23,0.15,0.45,0.23,0.68c-0.07,1.351-0.131,2.71-0.19,4.061c-0.59,0.609-0.62,1.24-0.06,1.89
			c0.51,1.01,0.43,2.05,0.09,3.08c-0.26,0.22-0.521,0.44-0.78,0.65c-0.14,0.29-0.37,0.43-0.69,0.42c-0.1,0.27-0.199,0.54-0.289,0.81
			c-0.04,1.94-0.801,3.61-2,5.101c-0.311-0.021-0.631-0.051-0.94-0.08l-0.32-0.2l0.2,0.32c0.04,0.699,0.09,1.39,0.14,2.09
			c-1,2.01-2,4.01-3,6.02c-0.43,0.58-0.859,1.16-1.29,1.74c-1.579,1.73-3.159,3.45-4.75,5.17c-0.449,0.36-0.909,0.72-1.359,1.09
			c-0.561-0.1-1.12-0.2-1.68-0.3c-0.391-0.26-0.79-0.52-1.181-0.78c-4.399-3.279-6.85-7.72-7.74-13.09
			c0.07-0.109,0.23-0.26,0.2-0.32c-0.05-0.1-0.109-0.199-0.18-0.289c-0.061-0.091-0.13-0.171-0.19-0.261l-0.01-0.01
			c-0.229-0.7-0.479-1.39-0.72-2.09c-0.07-0.62-0.141-1.25-0.21-1.88c0-3.76,0-7.521,0-11.28c0.08-0.62,0.16-1.229,0.24-1.85
			c2.989-0.511,1.819-1.9,0.689-3.271c0.14-0.939,0.28-1.87,0.43-2.8c0.75-2.28,1.511-4.56,2.261-6.84
			c-0.301-0.08-0.61-0.16-0.91-0.25l1.28-1.98c0.909,0.53,1.71-0.84,2.199-1.8c5.761-3.36,7.36-3.17,11.86,1.38
			C394.499,248.5,395.039,248.871,395.589,249.12z M396.27,256.971c0.01-0.24-0.021-0.49-0.04-0.73c-0.141,0.021-0.4,0.04-0.4,0.07
			c-0.01,0.24,0.02,0.479,0.04,0.72C396.009,257.011,396.27,257.001,396.27,256.971z M395.839,276.33c0-0.149,0-0.31,0-0.46
			c-0.189,0.101-0.38,0.2-0.56,0.301c0.069,0.13,0.149,0.26,0.229,0.39C395.619,276.48,395.729,276.41,395.839,276.33z
			 M390.899,259.461c-0.04-0.261-0.09-0.521-0.15-0.83c-0.2,0.17-0.41,0.3-0.53,0.479c-0.06,0.08,0.021,0.4,0.051,0.4
			C390.479,259.521,390.689,259.48,390.899,259.461z M389.169,264.7c0.25-0.55,0.521-1.09,0.74-1.649c0-0.03-0.38-0.21-0.58-0.32
			c-0.1,0.62-0.2,1.24-0.3,1.86c-0.62,0.51-1.03,1.1-0.74,1.939c0.04,0.11,0.25,0.16,0.38,0.24
			C388.839,266.08,388.999,265.391,389.169,264.7z M387.089,256.641c0.37-0.2,0.74-0.41,1.12-0.61c-0.18-0.18-0.35-0.35-0.53-0.529
			c-0.199,0.369-0.409,0.739-0.619,1.109c-0.58,0.12-1.16,0.24-1.74,0.37c0.06,0.13,0.18,0.36,0.189,0.36
			C386.039,257.12,386.569,256.881,387.089,256.641z M386.599,276.03c0.971,0.061,1.351-0.68,1.271-1.58
			c-0.08-0.89-0.55-1.46-1.51-1.489c-0.891,0.06-1.601,0.5-1.65,1.38C384.649,275.551,385.629,275.98,386.599,276.03z
			 M386.639,282.24c0.23-0.75,0.521-2-0.76-1.68c-1.069,0.26-0.83,1.58-0.34,3.229C386.109,283.011,386.509,282.671,386.639,282.24z
			"/>
		<path fill="#FBF8F8" d="M402.979,262.641c0,0.33,0,0.649,0,0.979c-0.08-0.229-0.19-0.449-0.23-0.68
			C402.739,262.86,402.899,262.74,402.979,262.641z"/>
		<path fill="#FBF8F8" d="M402.819,272.65c0.09,0.64-0.19,0.83-0.78,0.65C402.299,273.091,402.56,272.87,402.819,272.65z"/>
		<path fill="#FBF8F8" d="M402.789,267.681c-0.02,0.63-0.04,1.26-0.06,1.89C402.169,268.921,402.199,268.29,402.789,267.681z"/>
		<path fill="#FBF8F8" d="M401.349,273.721c0.131,0.34,0.04,0.609-0.289,0.81C401.149,274.261,401.249,273.99,401.349,273.721z"/>
		<path fill="#CCE70B" d="M398.119,279.551c0.31,0.029,0.63,0.06,0.94,0.08c-0.11,0.8-0.061,1.659-0.921,2.13
			c-0.05-0.7-0.1-1.391-0.14-2.09L398.119,279.551z"/>
		<polygon fill="#FBF8F8" points="398.119,279.551 397.999,279.671 397.799,279.351 		"/>
		<path fill="#F2F91C" d="M386.169,211.391c9.07,4.51,13.521,15.26,10.3,24.38c-1.029,2.91-1.989,4.34-5.409,2.12
			c-5.79-3.76-11.971-6.92-17.98-10.34c-4.22-2.53-7.94-6-13-6.95c-0.28-0.34-0.54-0.68-0.81-1.01c-0.95-0.77-1.41-1.74-1.19-2.98
			c0.33-0.33,0.66-0.66,0.99-0.98C367.289,209.03,376.179,206.42,386.169,211.391z"/>
		<path fill="#FBF8F8" d="M396.229,256.24c0.02,0.24,0.05,0.49,0.04,0.73c0,0.03-0.261,0.04-0.4,0.06
			c-0.021-0.24-0.05-0.479-0.04-0.72C395.829,256.28,396.089,256.261,396.229,256.24z"/>
		<path fill="#FBF8F8" d="M395.839,275.87c0,0.15,0,0.311,0,0.46c-0.109,0.08-0.22,0.15-0.33,0.23c-0.08-0.13-0.16-0.26-0.229-0.39
			C395.459,276.07,395.649,275.971,395.839,275.87z"/>
		<path fill="#12491D" d="M395.139,287.78c0,10.08,0,20.17,0,30.25c-0.43,0-0.859,0-1.29,0c0-9.5,0-19,0-28.51
			C394.279,288.94,394.709,288.36,395.139,287.78z"/>
		<path fill="#12491D" d="M389.099,294.69c0.65,7.8,1.301,15.6,1.95,23.4c-2.8-7.24-1.3-15-3.31-22.311
			C388.189,295.41,388.649,295.051,389.099,294.69z"/>
		<path fill="#C9C9C9" d="M390.749,258.631c0.061,0.31,0.11,0.569,0.15,0.83c-0.21,0.02-0.42,0.06-0.63,0.05
			c-0.03,0-0.11-0.32-0.051-0.4C390.339,258.931,390.549,258.801,390.749,258.631z"/>
		<path fill="#C9C9C9" d="M389.909,263.051c-0.22,0.56-0.49,1.1-0.74,1.649l-0.14-0.109c0.1-0.62,0.2-1.24,0.3-1.86
			C389.529,262.841,389.909,263.021,389.909,263.051z"/>
		<path fill="#CCE70B" d="M389.169,264.7c-0.17,0.69-0.33,1.38-0.5,2.07c-0.13-0.08-0.34-0.13-0.38-0.24
			c-0.29-0.84,0.12-1.43,0.74-1.939L389.169,264.7z"/>
		<path fill="#FBF8F8" d="M388.209,256.03c-0.38,0.2-0.75,0.41-1.12,0.61l-0.029-0.03c0.21-0.37,0.42-0.74,0.619-1.109
			C387.859,255.681,388.029,255.851,388.209,256.03z"/>
		<path fill="#CCE70B" d="M387.869,274.45c0.08,0.9-0.3,1.641-1.271,1.58c-0.97-0.05-1.949-0.479-1.89-1.689
			c0.05-0.88,0.76-1.32,1.65-1.38C387.319,272.99,387.789,273.561,387.869,274.45z"/>
		<path fill="#FBF8F8" d="M387.06,256.61l0.029,0.03c-0.52,0.24-1.05,0.479-1.58,0.7c-0.01,0-0.13-0.23-0.189-0.36
			C385.899,256.851,386.479,256.73,387.06,256.61z"/>
		<path fill="#CCE70B" d="M385.879,280.561c1.28-0.32,0.99,0.93,0.76,1.68c-0.13,0.431-0.529,0.771-1.1,1.55
			C385.049,282.141,384.81,280.82,385.879,280.561z"/>
		<path fill="#F2F91C" d="M380.02,248.491l-1.28,1.98c-0.891,1.71-1.78,3.42-2.66,5.14c-2.12,2.69-4.3,5.32-7.25,7.17
			c-1.54-4.81-0.13-9.93-1.55-14.74c-0.21-0.74,0.87-2.27-1.021-1.98c-1.08,0.16-0.859,1.04-0.569,1.93
			c1.689,5.14,1.239,10.51,1.649,15.79c-3.92,3.351-8.47,5.53-13.33,7.11c-0.859-5.43,2.34-10.86,0.011-16.28
			c-3.82,0.99-4.131,2.66-0.98,5.01c0.07,3.91,0.15,7.82,0.22,11.73c-1.09,0.47-2.189,0.939-3.279,1.4
			c-2.591,0.729-5.17,1.46-7.761,2.189c-0.029-1.09-0.06-2.189-0.08-3.28c0.131-0.31,0.881-0.479,0.23-0.979
			c-0.12,0.29-0.24,0.58-0.36,0.87c-1.55,0.83-3.1,1.51-4-0.811c-1.17-3.029-1.989-6.6,0.261-8.92c2.479-2.55,2.79-5.62,3.97-8.5
			c0.29-0.24,0.57-0.49,0.85-0.75c0.141-0.12,0.28-0.26,0.42-0.399c0.58-0.54,1.141-1.11,1.7-1.681c1.13-1.14,2.28-2.25,3.63-3.11
			c0.58-0.36,1.2-0.68,1.87-0.94h0.01c0.71-0.06,1.521,0.52,2.07-0.34c0-0.02-0.43-0.31-0.66-0.48c3.61-2.78,7.66-4.46,12.21-4.92
			c2.91-0.02,5.83-0.05,8.74-0.08c2.86,0.14,4.96,1.47,6.29,4c0.13,1.3-0.2,3.19,0.51,3.77
			C379.929,248.431,379.969,248.46,380.02,248.491z M374.149,243.261l0.01-0.28l-0.271,0.14L374.149,243.261z M363.459,248.46
			c-0.11-0.09-0.22-0.17-0.34-0.25c-0.16,0.18-0.32,0.37-0.47,0.55c0.1,0.09,0.279,0.24,0.319,0.24
			C363.149,248.84,363.299,248.641,363.459,248.46z M358.56,251.811l0.159-0.25l-0.26-0.021L358.56,251.811z M348.249,256.9
			c0.021-0.12-0.11-0.27-0.17-0.399c-0.14,0-0.28,0-0.42,0c0.1,0.21,0.189,0.43,0.28,0.649
			C348.049,257.07,348.239,257.001,348.249,256.9z M344.819,267.391c0.069-0.12,0.09-0.33,0.02-0.45
			c-0.21-0.38-0.439-0.33-0.54,0.13c-0.029,0.11,0.09,0.26,0.15,0.4C344.579,267.44,344.779,267.461,344.819,267.391z"/>
		<path fill="#CCE70B" d="M379.649,250.721c-0.75,2.28-1.511,4.56-2.261,6.84c-0.14-0.85-0.06-1.85-1.31-1.95
			c0.88-1.72,1.77-3.43,2.66-5.14C379.039,250.561,379.349,250.641,379.649,250.721z"/>
		<path fill="#FBF8F8" d="M377.339,281.29c0.03,0.061-0.13,0.211-0.2,0.32c-0.26-0.25-0.329-0.54-0.199-0.89
			c0,0,0.01,0.01,0.02,0.01l0.01,0.01c0.061,0.09,0.13,0.17,0.19,0.261C377.229,281.101,377.289,281.19,377.339,281.29z"/>
		<path fill="#FBF8F8" d="M377.339,281.29c-0.05-0.1-0.109-0.189-0.18-0.289C377.229,281.091,377.289,281.19,377.339,281.29z"/>
		<path fill="#CCE70B" d="M376.959,260.36c1.13,1.37,2.3,2.76-0.689,3.271C376.159,262.471,376.06,261.311,376.959,260.36z"/>
		<path fill="#FBF8F8" d="M376.959,280.73l0.01,0.01L376.959,280.73z"/>
		<path fill="#FBF8F8" d="M376.939,280.721c-0.851-0.48-0.801-1.271-0.7-2.08c0.24,0.7,0.49,1.39,0.72,2.09
			C376.949,280.73,376.939,280.721,376.939,280.721z"/>
		<path fill="#CCE70B" d="M376.029,265.48c0,3.76,0,7.521,0,11.28C374.849,273.001,374.919,269.24,376.029,265.48z"/>
		<polygon fill="#F9F9F9" points="374.159,242.98 374.149,243.261 373.889,243.121 		"/>
		<path fill="#CCE70B" d="M373.079,240.621c-2.91,0.03-5.83,0.06-8.74,0.08C367.249,239.661,370.159,239.271,373.079,240.621z"/>
		<path fill="#CCE70B" d="M373.079,227.55c-1.25,2.11-2.51,4.23-4.06,6.85c-3.471-4.62-6.57-8.94-8.921-13.77
			c-0.01-0.01-0.01-0.01-0.01-0.02l-0.01-0.01C365.139,221.55,368.859,225.021,373.079,227.55z"/>
		<path fill="#CCE70B" d="M367.279,248.041c1.42,4.81,0.01,9.93,1.55,14.74c-0.23,0.73-0.8,0.96-1.49,1
			c-0.41-5.279,0.04-10.649-1.649-15.79c-0.29-0.89-0.511-1.77,0.569-1.93C368.149,245.771,367.069,247.3,367.279,248.041z"/>
		<path fill="#F9F9F9" d="M363.119,248.21c0.12,0.08,0.229,0.16,0.34,0.25c-0.16,0.18-0.31,0.38-0.49,0.541
			c-0.04,0-0.22-0.15-0.319-0.24C362.799,248.581,362.959,248.391,363.119,248.21z"/>
		<polygon fill="#F9F9F9" points="358.719,251.561 358.56,251.811 358.459,251.54 		"/>
		<path fill="#CCE70B" d="M354.02,254.61c2.329,5.42-0.87,10.851-0.011,16.28c-0.25,0.149-0.5,0.31-0.75,0.46
			c-0.069-3.91-0.149-7.82-0.22-11.73C352.449,257.771,352.349,256.021,354.02,254.61z"/>
		<path fill="#CCE70B" d="M354.02,254.61c-1.671,1.41-1.57,3.16-0.98,5.01C349.889,257.271,350.199,255.601,354.02,254.61z"/>
		<path fill="#CCE70B" d="M352.129,245.621c0.23,0.17,0.66,0.46,0.66,0.48c-0.55,0.86-1.36,0.28-2.07,0.34h-0.01
			c-0.05-0.07-0.229-0.3-0.229-0.3C351.029,245.971,351.579,245.8,352.129,245.621z"/>
		<path fill="#485C65" d="M350.479,246.141c0,0,0.18,0.23,0.229,0.3c-0.67,0.26-1.29,0.58-1.87,0.94
			c-1.359,0.86-2.51,1.98-3.63,3.11c-0.56,0.57-1.12,1.141-1.7,1.681c-0.14,0.14-0.279,0.27-0.42,0.399
			c-0.279,0.26-0.56,0.51-0.85,0.75c-0.021-1.99-0.061-3.99-0.05-5.99c0.279-61.28,0.569-122.56,0.84-183.84
			c0.04-10.03-5.51-16.98-15.5-18.08c-7.74-0.86-15.62-0.67-23.431-0.5c-4.14,0.09-5.92,2.91-6,7.08c-0.14,7.12-1.479,8.34-8.6,8.28
			c-12.49-0.1-24.979-0.25-37.46-0.41c-6.37-0.07-7.72-1.46-7.9-8c-0.14-5.36-1.859-7.13-7.18-7.17
			c-7.33-0.05-14.689,0.45-21.98-0.11c-13.87-1.08-21.02,9.5-21.02,20.7c0.04,65.45-0.52,130.89-0.89,196.33
			c-2.42-1.12-4.84-2.24-7.26-3.359c0.04-25.891,0.08-51.78,0.12-77.67c0.02-15.68,0.03-31.36,0.05-47.04
			c0.02-12.18,0.05-24.37,0.08-36.55c0.15-12.67,0.31-25.35,0.46-38.02c3.11-17.38,11.58-24.4,29.47-24.3
			c34.939,0.21,69.88,0.99,104.81,0.5c18.62-0.26,28.99,9.68,30.28,25.23c-0.39,8.04-0.65,16.08-0.13,24.13
			c-1.11,10.92-0.63,21.87-0.46,32.81c-0.07,9.79-0.141,19.59-0.21,29.39c-0.061,32.49-0.13,64.98-0.181,97.46
			C350.089,244.84,350.339,245.491,350.479,246.141z"/>
		<path fill="#485C65" d="M342.219,274.94c2.591-0.729,5.17-1.46,7.761-2.189c-0.2,24.06-0.431,48.119-0.58,72.18
			c-0.03,4.899-0.82,9.57-2.971,13.979c-3.3,5.53-8.76,8.601-13.84,12.101c-1.979,0.18-3.97,0.5-5.95,0.5
			c-34.75,0-69.52-0.03-104.27-0.07v-0.479c4.52,0,9.05-0.03,13.57-0.03c-3.801-2.71-7.92-2.79-11.96-3.11
			c-2.11-0.16-4.121-0.09-3.94-3.05c2.23-1.83-0.71-3.83,0.19-5.7c34.16,0.19,68.31,0.391,102.47,0.54
			c12.08,0.05,19.24-7.16,19.28-19.2C342.06,318.591,342.139,296.761,342.219,274.94z"/>
		<path fill="#F9F9F9" d="M348.079,256.501c0.06,0.13,0.19,0.279,0.17,0.399c-0.01,0.101-0.2,0.17-0.31,0.25
			c-0.091-0.22-0.181-0.439-0.28-0.649C347.799,256.501,347.939,256.501,348.079,256.501z"/>
		<path fill="#F9F9F9" d="M344.839,266.94c0.07,0.12,0.05,0.33-0.02,0.45c-0.04,0.07-0.24,0.05-0.37,0.08
			c-0.061-0.141-0.18-0.29-0.15-0.4C344.399,266.61,344.629,266.561,344.839,266.94z"/>
		<path fill="#F2F91C" d="M342.239,253.32c0.29-0.24,0.57-0.49,0.85-0.75C342.81,252.83,342.529,253.08,342.239,253.32z"/>
		<path fill="#F2F2F2" d="M327.529,45.411c9.99,1.1,15.54,8.05,15.5,18.08c-0.271,61.28-0.561,122.56-0.84,183.84
			c-0.011,2,0.029,4,0.05,5.99c-1.18,2.88-1.49,5.95-3.97,8.5c-2.25,2.32-1.431,5.891-0.261,8.92c0.9,2.32,2.45,1.641,4,0.811
			l0.13,0.109c0.021,1.091,0.051,2.19,0.08,3.28c-0.08,21.82-0.159,43.65-0.239,65.47c-0.04,12.04-7.2,19.25-19.28,19.2
			c-34.16-0.149-68.311-0.35-102.47-0.54c-4.12-25.42-8.79-50.74-13.62-76.04c-1.78-9.319-5.64-16.41-13.54-21.42
			c0.37-65.44,0.93-130.88,0.89-196.33c0-11.2,7.15-21.78,21.02-20.7c7.291,0.56,14.65,0.06,21.98,0.11
			c5.32,0.04,7.04,1.81,7.18,7.17c0.181,6.54,1.53,7.93,7.9,8c12.48,0.16,24.97,0.31,37.46,0.41c7.12,0.06,8.46-1.16,8.6-8.28
			c0.08-4.17,1.86-6.99,6-7.08C311.909,44.741,319.789,44.55,327.529,45.411z M324.859,299.78c0.14-2.689-1.811-4.229-4.17-4.899
			c-1.391-0.4-2.96-0.24-4.45-0.24c-12.78-0.01-25.57-0.021-38.351,0c-3.01,0.01-7.189-1.24-4.939,4.63
			c0.38,1.02-0.47,2.5-0.87,4.36c7.57,0,14.53,0,21.49,0c8.79-0.011,17.59,0,26.39-0.03
			C322.56,303.601,324.709,302.65,324.859,299.78z M321.079,193.431c0.52-0.23,0.92-0.73,2.43-1.98c-8.81,0-16.37,0.28-23.899-0.11
			c-4.7-0.23-8.431,0.9-11.45,4.47c-3.59,4.27-8.061,5.51-13.68,5.09c-7.771-0.57-15.61-0.17-23.42-0.18
			c-0.221-0.16-0.461-0.24-0.73-0.23c-2.57-3.24-4.9-8.05-8.59-8.59c-7.51-1.1-15.29-0.33-23.87-0.33c1.84,1.94,2.72,3.21,3.9,4.05
			c4.53,3.2,5.68,7.46,5.5,12.89c-0.391,11.47-0.051,22.97-0.171,34.45c-0.029,2.76,0.711,3.76,3.61,3.73
			c17.14-0.17,34.28-0.16,51.42-0.21c9.3-0.02,18.61-0.04,27.91-0.07c1.771-1.21,0.86-3.04,0.87-4.55c0.1-9.3,0.67-18.66-0.12-27.9
			C309.999,204.621,312.02,197.48,321.079,193.431z M319.829,127.831c1.02-1.39,2.75-2.85,1.79-4.84c-1.01-2.11-3.31-2.33-5.22-2.07
			c-3.92,0.55-5.29-1.39-6.74-4.72c-12.83-29.51-52.07-35.38-73.12-11.02c-2.87,3.32-5.77,6.71-6.93,11.43
			c2.67,0,5.01-0.18,7.319,0.04c4.841,0.45,8.881-0.25,12.17-4.58c2.5-3.3,6.49-5.08,10.45-6.52c14.24-5.2,31.58,1.89,36.44,15.28
			c-2.61,0-5.061,0-7.51,0c-2.341-1.81-4.98-2.29-7.91-2.25c-8.94,0.12-17.88,0.1-26.811,0.03c-5.12-0.04-9.83,1.06-13.989,4.16
			c-3.511-2.14-6.181-1.16-8.5,2.05c-3.801,5.25-7.801,10.36-11.641,15.59c-1.13,1.54-2.95,3.1-1.74,5.3
			c1.13,2.05,3.4,2.08,5.34,1.8c3.409-0.49,4.76,1.02,6.06,4.07c8.32,19.56,28.79,30.41,49.17,25.94
			c14.47-3.19,24.851-11.76,31.61-25.5c-3.431-0.16-6.21-0.29-8.99-0.42c-0.24-2.36,1.22-3.63,3-4.69c1.55-0.68,2.77-1.71,3.8-3.1
			C311.829,138.46,315.919,133.21,319.829,127.831z M268.469,271.801c-0.239-0.32-0.449-0.7-0.76-0.92
			c-0.11-0.08-0.49,0.229-0.74,0.359c0.2,0.351,0.41,0.71,0.63,1.07C267.979,272.091,268.229,271.94,268.469,271.801z
			 M264.439,277.681c-0.051-0.9-0.73-1.03-1.38-0.96c-0.44,0.05-1.12,0.3-1.221,0.6c-0.24,0.8,0.41,1.13,1.101,1.21
			C263.609,278.61,264.219,278.45,264.439,277.681z M258.289,274.271c0.04-0.44-0.14-0.54-0.52-0.25c-0.04,0.03,0.06,0.25,0.09,0.38
			C257.999,274.36,258.149,274.311,258.289,274.271z"/>
		<path fill="#F9F9F9" d="M342.369,270.681c0.65,0.5-0.1,0.67-0.23,0.979l-0.13-0.109
			C342.129,271.261,342.249,270.971,342.369,270.681z"/>
		<path fill="#485C65" d="M222.369,370.961v0.479c-4.49,0-8.97-0.01-13.46-0.01c-0.83,0-1.66-0.15-2.49-0.22
			c-0.83-1.261-2.02-1.681-3.47-1.431c-4.49-1.399-8.11-4.18-11.58-7.21c-4.5-6.25-6.39-13.229-6.11-20.899
			c0.13-3.45-0.11-6.92-0.18-10.381c1.38-9.319,2.76-18.649,4.3-29.01c3.01,7.13,3.93,13.641,3.89,20.34
			c-0.06,6.761-0.41,13.53-0.08,20.261c0.3,6.09,3.12,10.97,8.91,13.699c0.58,0.761,1.71,1.561,1.65,2.271
			c-0.33,4.17,2.27,5.72,5.57,6.79c0.83,1.92-0.19,5.189,3.26,5.25C215.839,370.94,219.109,370.961,222.369,370.961z"/>
	</g>
	<g>
	</g>
</g>
<path fill-rule="evenodd" clip-rule="evenodd" fill="#485C65" d="M251.06,200.718c7.81,0.015,15.649-0.39,23.417,0.185
	c5.619,0.415,10.089-0.821,13.687-5.087c3.019-3.578,6.745-4.709,11.443-4.471c7.53,0.383,15.095,0.102,23.9,0.102
	c-1.505,1.25-1.904,1.756-2.425,1.988c-9.062,4.041-11.08,11.186-10.29,20.524c0.782,9.241,0.221,18.601,0.12,27.905
	c-0.017,1.507,0.901,3.332-0.875,4.549c-0.019-13.328-0.135-26.656,0.008-39.983c0.039-3.594-0.962-5.13-4.78-4.978
	c-6.154,0.244-12.333,0.238-18.488,0.004c-3.85-0.146-4.806,1.496-4.763,5.043c0.163,13.326,0.096,26.656,0.115,39.984
	c-17.141,0.049-34.281,0.038-51.42,0.205c-2.903,0.028-3.645-0.965-3.613-3.726c0.128-11.483-0.221-22.979,0.172-34.45
	c0.186-5.436-0.964-9.694-5.497-12.893c-1.186-0.836-2.063-2.11-3.903-4.05c8.577,0,16.362-0.769,23.875,0.327
	c3.691,0.539,6.021,5.351,8.586,8.594c-5.488,0-10.976,0-16.463,0C239.607,201.056,245.393,202.751,251.06,200.718z"/>
<path fill-rule="evenodd" clip-rule="evenodd" fill="#F2F2F2" d="M239.771,122.767c4.154-3.093,8.87-4.197,13.982-4.158
	c8.938,0.068,17.879,0.096,26.815-0.024c2.934-0.04,5.572,0.437,7.908,2.248c-3.664,1.462-3.535,3.794-1.554,6.604
	c3.915,5.553,7.855,11.088,11.68,16.702c1.37,2.011,3.203,2.732,5.475,2.772c-1.783,1.062-3.241,2.331-2.997,4.688
	c-4.391-0.342-7.663,1.183-10.701,4.642c-3.909,4.451-9.379,6.747-15.215,7.957c-12.963,2.688-28.162-5.131-31.781-16.475
	c1.187-0.053,2.337-0.102,3.485-0.152c2.279-0.102,4.981,0.573,6.383-1.787c1.628-2.743-0.889-4.652-2.18-6.606
	C247.412,133.638,243.553,128.228,239.771,122.767z"/>
<path fill-rule="evenodd" clip-rule="evenodd" fill="#4FA0CA" d="M304.078,146.911c-2.271-0.04-4.104-0.762-5.475-2.772
	c-3.824-5.614-7.765-11.149-11.68-16.702c-1.981-2.811-2.11-5.143,1.554-6.604c2.452,0,4.904,0,7.514,0
	c-4.857-13.396-22.204-20.479-36.445-15.28c-3.952,1.443-7.948,3.219-10.448,6.518c-3.283,4.333-7.326,5.035-12.172,4.578
	c-2.306-0.217-4.649-0.037-7.315-0.037c1.159-4.724,4.058-8.109,6.931-11.432c21.053-24.357,60.293-18.49,73.117,11.024
	c1.446,3.329,2.822,5.265,6.736,4.721c1.913-0.267,4.217-0.04,5.226,2.063c0.954,1.99-0.773,3.45-1.786,4.842
	c-3.914,5.379-8.01,10.627-11.958,15.982C306.849,145.204,305.633,146.231,304.078,146.911z"/>
<path fill-rule="evenodd" clip-rule="evenodd" fill="#4FA0CA" d="M239.771,122.767c3.781,5.461,7.641,10.871,11.301,16.411
	c1.291,1.954,3.808,3.863,2.18,6.606c-1.401,2.36-4.104,1.686-6.383,1.787c-1.148,0.051-2.299,0.1-3.485,0.152
	c3.619,11.344,18.818,19.162,31.781,16.475c5.836-1.21,11.306-3.506,15.215-7.957c3.038-3.459,6.311-4.983,10.701-4.642
	c2.778,0.132,5.557,0.263,8.987,0.424c-6.763,13.739-17.14,22.312-31.614,25.493c-20.379,4.477-40.843-6.372-49.169-25.936
	c-1.299-3.051-2.645-4.561-6.059-4.072c-1.94,0.279-4.206,0.254-5.338-1.799c-1.21-2.195,0.607-3.761,1.74-5.304
	c3.838-5.228,7.837-10.339,11.643-15.589C233.594,121.615,236.257,120.63,239.771,122.767z"/>
<path fill-rule="evenodd" clip-rule="evenodd" fill="#283439" d="M282.129,246.483c-0.02-13.328,0.048-26.658-0.115-39.984
	c-0.043-3.547,0.913-5.189,4.763-5.043c6.155,0.234,12.334,0.24,18.488-0.004c3.818-0.152,4.819,1.384,4.78,4.978
	c-0.143,13.327-0.026,26.655-0.008,39.983C300.734,246.437,291.432,246.46,282.129,246.483z"/>
<path fill-rule="evenodd" clip-rule="evenodd" fill="#349980" d="M272.074,303.628c0.408-1.855,1.259-3.342,0.872-4.354
	c-2.249-5.879,1.934-4.627,4.941-4.633c12.783-0.021,25.566-0.015,38.35,0c1.49,0.001,3.06-0.16,4.454,0.237
	c2.361,0.674,4.303,2.212,4.164,4.901c-0.147,2.867-2.293,3.818-4.896,3.824c-8.798,0.021-17.597,0.02-26.396,0.022
	C286.605,303.63,279.647,303.628,272.074,303.628z"/>
<path fill-rule="evenodd" clip-rule="evenodd" fill="#304148" d="M251.06,200.718c-5.667,2.033-11.452,0.338-17.194-0.227
	c5.487,0,10.975,0,16.463,0C250.598,200.481,250.842,200.558,251.06,200.718z"/>
<path fill-rule="evenodd" clip-rule="evenodd" fill="#E8E5E4" d="M264.443,277.683c-0.229,0.766-0.832,0.929-1.509,0.852
	c-0.69-0.08-1.34-0.411-1.093-1.21c0.095-0.306,0.777-0.553,1.217-0.601C263.71,276.654,264.385,276.783,264.443,277.683z"/>
<path fill-rule="evenodd" clip-rule="evenodd" fill="#E8E5E4" d="M267.595,272.315c-0.216-0.369-0.421-0.722-0.627-1.073
	c0.255-0.132,0.636-0.438,0.74-0.362c0.313,0.226,0.519,0.602,0.766,0.918C268.228,271.943,267.98,272.089,267.595,272.315z"/>
<path fill-rule="evenodd" clip-rule="evenodd" fill="#E8E5E4" d="M258.287,274.269c-0.143,0.044-0.286,0.088-0.43,0.133
	c-0.033-0.131-0.133-0.348-0.091-0.38C258.146,273.731,258.331,273.827,258.287,274.269z"/>
<path fill-rule="evenodd" clip-rule="evenodd" fill="#E5E5E5" d="M269.465,223.969c0,2.381,0.065,4.764-0.018,7.141
	c-0.099,2.817-1.493,4.892-3.947,6.259c-1.174,0.653-2.432,0.898-3.775,0.891c-4.504-0.026-9.01,0.008-13.514-0.017
	c-3.108-0.018-5.922-2.1-6.887-5.069c-0.289-0.894-0.428-1.812-0.426-2.756c0.01-4.309,0.01-8.617,0.005-12.927
	c-0.002-2.214,0.7-4.147,2.302-5.7c1.338-1.297,2.955-2.07,4.824-2.088c4.775-0.043,9.551-0.051,14.326-0.003
	c3.227,0.031,6.204,2.55,6.922,5.7c0.131,0.577,0.198,1.153,0.196,1.745c-0.009,2.274-0.003,4.549-0.003,6.824
	C269.468,223.969,269.466,223.969,269.465,223.969z M255.48,235.909c1.703,0,3.405,0.014,5.107-0.003
	c3.67-0.036,6.492-2.897,6.549-6.569c0.025-1.61,0.015-3.219-0.002-4.828c-0.02-1.883,0.02-3.767-0.012-5.648
	c-0.031-1.927-0.817-3.524-2.252-4.802c-1.354-1.207-2.975-1.653-4.752-1.652c-3.191,0.003-6.385-0.001-9.577,0.002
	c-1.259,0.001-2.456,0.261-3.544,0.915c-1.996,1.202-3.224,2.956-3.281,5.294c-0.092,3.674-0.065,7.353-0.011,11.028
	c0.028,1.886,0.871,3.444,2.304,4.682c1.295,1.118,2.811,1.586,4.498,1.582C252.166,235.904,253.823,235.908,255.48,235.909z"/>
<path fill-rule="evenodd" clip-rule="evenodd" fill="#4D4D4D" d="M231.91,260.476c-0.001-1.527-0.015-3.056,0.008-4.584
	c0.006-0.441-0.064-1,0.624-1.053c0.751-0.057,1.323,0.371,1.351,1.076c0.041,1.061,0.007,2.123,0.023,3.185
	c0.006,0.294-0.086,0.724,0.293,0.799c0.434,0.085,0.5-0.376,0.609-0.672c0.508-1.362,1.021-2.708,2.129-3.739
	c0.648-0.604,1.326-0.87,2.185-0.539c0.965,0.373,1.478,0.986,1.429,1.988c-0.08,1.654-0.132,3.311-0.125,4.967
	c0.002,0.596-0.019,1.194,0.127,1.777c0.172,0.689,0.62,0.829,1.113,0.318c0.633-0.655,1.113-1.429,1.568-2.213
	c0.403-0.695,0.766-1.412,1.19-2.094c0.337-0.539,0.333-1.012,0.054-1.595c-0.777-1.621,0.486-3.551,2.244-3.495
	c0.769,0.023,1.066,0.363,0.992,1.141c-0.059,0.615-0.316,1.152-0.701,1.617c-0.48,0.58-0.35,1.014,0.229,1.42
	c0.593,0.417,1.169,0.857,1.737,1.308c0.857,0.681,1.511,1.489,1.566,2.651c0.01,0.203,0.021,0.445,0.249,0.529
	c0.276,0.102,0.421-0.127,0.571-0.303c0.965-1.11,1.572-2.344,1.514-3.873c-0.055-1.396-0.031-2.797,0-4.195
	c0.018-0.771-0.327-1.091-1.068-1.068c-0.336,0.01-0.674,0.002-1.01-0.011c-0.4-0.015-0.832-0.034-0.811-0.593
	c0.018-0.482,0.227-0.873,0.772-0.9c0.386-0.02,0.773,0.035,1.161,0.054c0.826,0.04,1.063-0.178,1.111-1.009
	c0.034-0.568,0.088-1.136,0.116-1.705c0.026-0.545,0.148-0.975,0.829-0.969c0.813,0.008,1.469,0.417,1.508,1.021
	c0.039,0.594,0.038,1.191,0.018,1.785c-0.021,0.645,0.277,0.973,0.904,1.01c0.619,0.037,1.24,0.054,1.86,0.084
	c0.351,0.018,0.706,0.07,0.747,0.51c0.041,0.438-0.234,0.664-0.63,0.754c-0.689,0.154-1.394,0.103-2.091,0.109
	c-0.65,0.006-0.943,0.278-0.942,0.935c0.003,2.355-0.234,4.706-0.163,7.063c0.022,0.734,0.116,1.452,0.386,2.129
	c0.351,0.881,1.124,1.025,1.769,0.325c0.908-0.985,1.4-2.145,1.451-3.507c0.063-1.695,0.313-3.359,1.303-4.805
	c1.152-1.682,2.703-1.998,4.4-0.896c0.377,0.244,0.661,0.25,1.053-0.003c0.953-0.614,1.916-0.089,1.922,1.036
	c0.01,1.993-0.01,3.987-0.02,5.981c-0.004,0.649,0.061,1.292,0.18,1.931c0.086,0.468,0.299,0.832,0.795,0.947
	c0.533,0.125,0.961-0.059,1.303-0.48c0.475-0.581,0.549-1.262,0.535-1.977c-0.03-1.683-0.131-3.373,0.48-4.994
	c0.3-0.799,0.578-1.601,1.225-2.221c1.1-1.057,2.493-1.186,3.723-0.264c0.367,0.275,0.62,0.303,1.022,0.029
	c0.931-0.633,1.841-0.132,1.966,0.988c0.199,1.787,0.039,3.568-0.012,5.354c-0.008,0.284-0.018,0.57-0.002,0.854
	c0.017,0.274-0.051,0.626,0.291,0.736c0.342,0.109,0.518-0.199,0.66-0.431c0.897-1.46,1.67-2.977,2.059-4.665
	c0.111-0.482-0.092-0.848-0.289-1.246c-0.5-1.008-0.146-2.063,0.779-2.404c0.758-0.28,1.367,0.039,1.459,0.84
	c0.074,0.657,0.402,0.837,0.996,0.74c0.588-0.096,1.174-0.221,1.766-0.26c1.148-0.074,1.588,0.415,1.36,1.559
	c-0.268,1.348-0.599,2.682-0.606,4.064c-0.005,0.904-0.041,1.817,0.232,2.696c0.197,0.632,0.534,1.151,1.291,1.133
	c0.762-0.02,1.139-0.544,1.375-1.183c0.156-0.422,0.125-0.865,0.064-1.307c-0.262-1.934-0.125-3.818,0.658-5.636
	c0.359-0.832,0.852-1.525,1.629-2.018c1.072-0.681,2.076-0.667,3.084,0.127c0.342,0.271,0.598,0.356,1.031,0.126
	c1.199-0.637,2.045-0.112,2.045,1.211c0,1.994-0.014,3.987,0.001,5.981c0.004,0.515,0.058,1.036,0.147,1.542
	c0.094,0.522,0.285,1.029,0.904,1.132c0.657,0.108,1.09-0.255,1.388-0.786c0.542-0.968,0.812-2.01,0.812-3.123
	c0-1.762,0.006-3.522,0.021-5.283c0.006-0.518-0.043-1.103,0.732-1.116c0.807-0.014,1.247,0.368,1.273,1.128
	c0.027,0.828,0.013,1.656,0.035,2.484c0.006,0.227,0.025,0.513,0.334,0.528c0.246,0.013,0.323-0.228,0.4-0.419
	c0.373-0.937,0.564-1.94,1.06-2.833c0.317-0.573,0.649-1.071,1.441-0.872c0.884,0.223,1.364,0.756,1.4,1.611
	c0.048,1.111,0.089,2.224,0.147,3.334c0.016,0.297-0.049,0.713,0.363,0.753c0.404,0.039,0.441-0.379,0.518-0.665
	c0.341-1.276,0.67-2.557,1.162-3.785c0.453-1.129,0.758-1.367,1.492-1.23c1.244,0.23,1.729,0.749,1.733,1.889
	c0.007,1.839,0.007,3.678-0.003,5.517c-0.004,0.74,0.178,1.436,0.452,2.112c0.177,0.438,0.462,0.76,0.975,0.758
	c0.477-0.002,0.761-0.301,0.929-0.708c0.176-0.431,0.318-0.874,0.479-1.312c0.063-0.169,0.113-0.392,0.34-0.359
	c0.234,0.033,0.223,0.264,0.204,0.439c-0.085,0.836-0.28,1.646-0.798,2.322c-0.848,1.108-2.527,1.051-3.424-0.098
	c-0.625-0.803-0.895-1.738-1-2.735c-0.126-1.187-0.191-2.374-0.158-3.565c0.006-0.207,0.006-0.417-0.021-0.621
	c-0.034-0.244,0.012-0.574-0.32-0.633c-0.331-0.06-0.43,0.248-0.516,0.482c-0.281,0.779-0.582,1.555-0.799,2.352
	c-0.305,1.125-0.523,2.271-0.529,3.447c-0.003,0.541-0.05,1.087-0.697,1.225c-0.678,0.144-1.171-0.199-1.441-0.795
	c-0.512-1.133-0.516-2.369-0.635-3.576c-0.09-0.926-0.115-1.857-0.179-2.787c-0.017-0.249,0.028-0.57-0.3-0.645
	c-0.326-0.074-0.436,0.229-0.547,0.451c-0.803,1.59-1.287,3.273-1.465,5.044c-0.069,0.694-0.105,1.394-0.152,2.091
	c-0.035,0.519,0,1.07-0.698,1.209c-0.749,0.15-1.499-0.145-1.748-0.772c-0.254-0.64-0.543-0.528-0.872-0.103
	c-1.078,1.396-2.853,1.053-3.805-0.447c-0.533-0.839-0.527-0.85-1.201-0.064c-0.41,0.48-0.884,0.861-1.473,1.111
	c-1.295,0.548-2.172,0.383-3.242-0.643c-0.705-0.677-0.77-0.676-1.4,0.03c-1.106,1.238-2.688,1.198-3.777-0.056
	c-0.717-0.828-1.025-1.784-1.068-2.849c-0.055-1.376-0.004-2.741,0.336-4.089c0.109-0.43,0.316-0.947-0.322-1.188
	c-0.734-0.276-1.635-0.018-1.901,0.559c-0.662,1.433-1.247,2.896-2.083,4.249c-0.52,0.842-1.074,1.652-1.711,2.395
	c-0.555,0.646-0.746,1.336-0.645,2.15c0.203,1.635,0.062,3.257-0.229,4.869c-0.21,1.166-0.775,2.133-1.692,2.887
	c-1.178,0.967-2.967,0.996-4.102,0.07c-1.045-0.852-1.313-2.193-0.668-3.432c0.546-1.047,1.307-1.918,2.192-2.695
	c0.7-0.614,1.358-1.276,2.03-1.92c0.19-0.182,0.357-0.384,0.389-0.656c0.029-0.254,0.101-0.552-0.154-0.715
	c-0.292-0.187-0.49,0.078-0.654,0.258c-1.336,1.471-3.545,1.482-4.698-0.191c-0.412-0.598-0.747-0.273-1.085,0.146
	c-0.988,1.231-2.01,1.431-3.171,0.674c-0.345-0.226-0.509-0.576-0.726-0.895c-0.488-0.713-0.607-0.699-1.204-0.094
	c-0.598,0.607-1.209,1.232-2.095,1.403c-1.595,0.308-2.9-0.468-3.489-2.024c-0.103-0.27-0.069-0.699-0.481-0.706
	c-0.334-0.005-0.379,0.38-0.533,0.608c-0.23,0.342-0.426,0.715-0.695,1.023c-0.586,0.676-1.209,1.314-2.24,1.102
	c-1.119-0.229-1.693-1.027-2.061-2.018c-0.134-0.361-0.193-0.752-0.297-1.125c-0.068-0.242-0.078-0.557-0.412-0.584
	c-0.273-0.021-0.379,0.23-0.501,0.428c-0.587,0.951-1.194,1.885-2.147,2.523c-1.697,1.137-3.498,1.137-5.34,0.441
	c-0.539-0.203-0.754-0.643-0.506-1.195c0.238-0.531,0.65-0.82,1.252-0.601c0.263,0.096,0.49,0.284,0.742,0.417
	c1.141,0.598,2.174,0.006,2.236-1.268c0.053-1.077-0.473-1.865-1.199-2.586c-1.458-1.446-1.469-1.434-2.535,0.271
	c-0.916,1.466-1.637,3.067-2.91,4.292c-0.131,0.126-0.256,0.259-0.396,0.373c-1.478,1.212-2.698,0.782-3.058-1.098
	c-0.313-1.644-0.143-3.304-0.109-4.958c0.015-0.75,0.098-1.498,0.145-2.247c0.016-0.251,0.107-0.558-0.206-0.68
	c-0.296-0.115-0.479,0.126-0.643,0.325c-0.981,1.199-1.634,2.573-2.144,4.023c-0.498,1.42-0.871,2.875-1.155,4.351
	c-0.128,0.663-0.401,1.021-1.13,0.973c-0.734-0.048-1.105-0.433-1.116-1.128C231.895,263.687,231.911,262.081,231.91,260.476z
	 M265.303,259.968c0.027-0.908,0.006-1.813-0.361-2.664c-0.272-0.629-0.708-1.092-1.432-1.145c-0.72-0.053-1.23,0.322-1.588,0.914
	c-0.158,0.263-0.3,0.547-0.391,0.839c-0.593,1.923-0.611,3.867-0.107,5.804c0.188,0.721,0.578,1.354,1.439,1.422
	c0.83,0.068,1.246-0.494,1.598-1.129C265.156,262.749,265.342,261.38,265.303,259.968z M296.402,260.136
	c-0.018-1.09,0.035-1.865-0.254-2.614c-0.278-0.723-0.684-1.3-1.529-1.335c-0.819-0.034-1.354,0.412-1.691,1.131
	c-0.586,1.25-0.722,2.594-0.697,3.937c0.021,1.048,0.023,2.135,0.584,3.093c0.514,0.877,1.465,1.023,2.23,0.354
	c0.297-0.26,0.504-0.578,0.664-0.941C296.265,262.501,296.439,261.181,296.402,260.136z M276.516,259.795
	c-0.021-0.797,0.065-1.606-0.195-2.382c-0.211-0.628-0.637-1.068-1.295-1.209c-0.666-0.144-1.143,0.219-1.531,0.703
	c-1.24,1.549-1.496,5.723-0.461,7.432c0.026,0.045,0.052,0.09,0.08,0.133c0.496,0.753,1.288,0.877,1.986,0.305
	c0.628-0.517,0.938-1.221,1.127-1.985C276.471,261.809,276.564,260.808,276.516,259.795z M276.939,268.614
	c-0.034-0.265,0.043-0.637-0.291-0.79c-0.361-0.165-0.552,0.186-0.764,0.392c-0.613,0.596-1.174,1.24-1.66,1.941
	c-0.547,0.792-1.016,1.624-1.007,2.635c0.006,0.641,0.173,1.208,0.835,1.43c0.658,0.221,1.286,0.098,1.776-0.432
	c0.473-0.512,0.71-1.145,0.788-1.822C276.745,270.865,276.832,269.759,276.939,268.614z"/>
<path fill-rule="evenodd" clip-rule="evenodd" fill="#4D4D4D" d="M229.254,257.479c-0.096,2.111,0.211,4.811-0.176,7.489
	c-0.188,1.291-0.693,2.437-1.762,3.263c-0.225,0.174-0.479,0.384-0.771,0.211c-0.319-0.191-0.177-0.504-0.093-0.771
	c0.395-1.253,0.428-2.554,0.443-3.843c0.043-3.677,0.029-7.354,0.05-11.029c0.004-0.672,0.077-1.344,0.094-2.016
	c0.007-0.282-0.014-0.598-0.325-0.734c-0.324-0.143-0.532,0.1-0.732,0.301c-1.814,1.834-2.463,5.604-1.369,7.922
	c0.096,0.202,0.311,0.42,0.107,0.635c-0.211,0.223-0.434-0.003-0.633-0.091c-1.496-0.657-2.325-2.485-1.906-4.251
	c0.553-2.328,1.905-4.103,3.84-5.463c0.343-0.24,0.723-0.407,1.135-0.486c1.227-0.235,2.09,0.449,2.095,1.684
	C229.262,252.501,229.254,254.702,229.254,257.479z"/>
<path fill-rule="evenodd" clip-rule="evenodd" fill="#E5E5E5" d="M265.298,224.205c0,1.672,0.013,3.344-0.003,5.015
	c-0.025,2.75-1.987,4.808-4.73,4.851c-3.448,0.055-6.898,0.055-10.346,0.009c-2.651-0.035-4.676-2.103-4.7-4.749
	c-0.032-3.419-0.038-6.838-0.006-10.257c0.028-2.941,2.399-5.026,5.321-4.825c1.289,0.089,2.588,0.034,3.884,0.037
	c1.942,0.005,3.886-0.001,5.829,0.007c2.665,0.011,4.725,2.047,4.752,4.717c0.019,1.731,0.004,3.464,0.004,5.196
	C265.301,224.205,265.3,224.205,265.298,224.205z M255.479,218.721c-3.112-0.148-6.203,2.54-6.158,6.194
	c0.04,3.304,2.757,6.1,6.004,6.105c3.545,0.005,6.285-2.659,6.31-6.129C261.658,221.347,258.648,218.586,255.479,218.721z
	 M261.84,218.918c0.674,0,1.113-0.427,1.118-1.084c0.006-0.708-0.452-1.188-1.134-1.19s-1.133,0.443-1.139,1.127
	C260.679,218.486,261.113,218.919,261.84,218.918z"/>
<path fill-rule="evenodd" clip-rule="evenodd" fill="#E5E5E5" d="M255.468,220.53c2.431,0.011,4.341,1.931,4.321,4.344
	c-0.02,2.395-1.981,4.339-4.365,4.328c-2.332-0.012-4.283-1.998-4.291-4.368C251.125,222.483,253.103,220.521,255.468,220.53z"/>
</svg>
