<?xml version="1.0" encoding="utf-8"?>
<!-- Generator: Adobe Illustrator 16.0.3, SVG Export Plug-In . SVG Version: 6.00 Build 0)  -->
<!DOCTYPE svg PUBLIC "-//W3C//DTD SVG 1.1//EN" "http://www.w3.org/Graphics/SVG/1.1/DTD/svg11.dtd">
<svg version="1.1" id="Capa_1" xmlns="http://www.w3.org/2000/svg" xmlns:xlink="http://www.w3.org/1999/xlink" x="0px" y="0px"
	 width="329.973px" height="304px" viewBox="0 0 329.973 304" enable-background="new 0 0 329.973 304" xml:space="preserve">
<g>
	<path fill-rule="evenodd" clip-rule="evenodd" fill="#F2F2F2" d="M70.756,154.202c-5.437-0.247-10.015,2.228-14.606,4.648
		c-2.877,1.518-5.835,2.739-9.09,3.259c-8.569,1.369-15.771-4.88-15.164-13.484c0.396-5.605,3.713-9.458,9.033-11.201
		c5.222-1.712,10.275-1.219,15.221,1.273c5.952,2.999,12.225,3.139,18.582,1.505c1.247-0.32,2.398-1.002,3.416-1.803
		c2.319-1.822,2.731-3.809,1.376-7.118c-0.698-1.705-1.123-3.474-1.571-5.236c-0.546-2.144,0.022-3.295,1.921-4.382
		c0.766-0.438,1.53-0.881,2.308-1.296c4.018-2.146,5.328-4.745,4.672-9.287c-0.185-1.281-0.495-2.563-0.496-3.846
		c-0.007-3.114,1.503-5.17,4.449-6.331c1.16-0.458,2.368-0.7,3.609-0.797c7.234-0.567,9.871-6.004,8.975-11.772
		c-0.983-6.331-4.737-10.986-9.516-14.973c-2.499-2.082-5.379-3.596-7.941-5.572c-4.279-3.3-7.703-7.313-9.616-12.395
		c-2.999-7.965,0.777-17.244,9.413-19.363c5.515-1.353,11.179,1.275,14.007,6.151c3.548,6.117,4.906,12.844,5.58,19.719
		c0.792,8.073,5.141,13.721,11.662,17.943c2.9,1.877,6.366,1.263,8.909-1.184c1.575-1.514,3.068-3.131,4.246-4.951
		c3.229-4.998,7.905-6.119,13.384-5.289c1.223,0.185,2.435,0.437,3.652,0.643c5.325,0.901,11.182-1.798,14.124-6.366
		c1.72-2.673,1.564-5.493,0.864-8.337c-0.871-3.547-1.942-7.044-1.694-10.763c0.18-2.723,0.883-5.189,2.99-7.128
		c2.011-1.851,4.314-2.394,6.86-1.618c2.396,0.731,3.744,2.499,4.313,4.929c0.797,3.406,0.251,6.664-0.948,9.867
		c-0.641,1.71-1.171,3.449-1.673,5.206c-0.973,3.396-0.299,6.506,1.196,9.565c0.974,1.995,2.534,2.994,4.732,3.142
		c2.681,0.18,5.105-0.704,7.509-1.692c3.252-1.338,6.406-1.382,9.367,0.735c1.341,0.959,1.999,2.47,2.691,3.883
		c1.608,3.279,4.345,4.698,7.813,4.844c7.571,0.32,13.804-4.596,16.916-12.354c0.968-2.415,1.473-4.952,1.838-7.527
		c0.588-4.155,1.902-7.952,4.959-11.069c3.883-3.958,8.46-4.779,13.451-3.047c5.72,1.989,7.655,7.528,5.833,13.119
		c-1.793,5.504-5.757,9.007-10.863,11.427c-3.962,1.877-7.62,4.181-10.538,7.559c-2.157,2.499-2.825,5.425-1.418,7.566
		c1.155,1.76,2.773,2.617,4.947,2.317c2.478-0.34,4.925-0.394,7.209,0.935c0.785,0.457,1.191,1.021,1.317,1.931
		c0.258,1.874,0.319,3.749,0.324,5.635c0.016,4.394,2.603,6.477,6.909,5.557c1.27-0.272,2.533-0.506,3.841-0.5
		c3.132,0.015,4.71,1.798,4.309,4.972c-0.214,1.69-0.527,3.371-0.761,5.061c-0.288,2.089,0.495,3.392,2.528,4.035
		c3.144,0.994,6.182,0.405,9.108-0.866c4.375-1.901,7.419-5.306,9.999-9.171c1.963-2.945,3.838-5.947,6.986-7.828
		c3.466-2.073,7.124-2.931,10.927-1.146c5.545,2.603,6.695,9.642,2.374,14.272c-2.414,2.59-5.547,3.883-8.978,4.543
		c-4.094,0.788-8.288,1.122-12.183,2.818c-3.948,1.719-7.799,3.586-11.128,6.383c-0.727,0.611-1.39,1.259-1.858,2.102
		c-0.755,1.356-0.7,2.567,0.498,3.66c0.521,0.475,1.036,0.971,1.469,1.522c0.94,1.188,1.506,2.656,0.566,3.923
		c-2.946,3.982-0.85,7.062,1.577,10.112c1.728,2.17,3.999,3.002,6.747,2.461c2.904-0.57,5.634-1.68,8.414-2.644
		c2.623-0.912,5.253-1.708,8.106-1.18c4.12,0.763,6.983,4.128,7.08,8.444c0.101,4.334-2.6,7.712-6.79,8.664
		c-4.595,1.044-8.582-0.426-12.394-2.787c-3.767-2.333-7.574-2.354-11.334-0.056c-2.921,1.785-3.609,3.847-2.47,7.071
		c0.686,1.943,1.435,3.852,1.733,5.916c0.44,3.052-0.373,5.583-2.816,7.525c-0.968,0.77-1.913,1.575-2.933,2.27
		c-3.702,2.517-4.346,9.266-0.093,12.394c1.605,1.179,3.478,1.386,5.349,1.554c2.3,0.207,4.585-0.042,6.849-0.482
		c1.515-0.296,3.048-0.298,4.576-0.177c3.037,0.242,5.221,1.647,6.205,4.65c0.907,2.781-0.104,5.129-1.831,7.176
		c-2.052,2.431-6.286,2.725-9.736,0.832c-2.367-1.296-4.421-3.119-7.051-3.976c-3.365-1.098-6.782-1.519-10.248-0.802
		c-2.946,0.612-4.365,2.966-3.809,5.946c0.131,0.695,0.288,1.385,0.394,2.083c0.353,2.313-0.512,4.17-2.562,5.346
		c-1.274,0.733-2.56,1.483-3.917,2.029c-4.617,1.856-5.873,7.081-4.62,11.076c1.536,4.904,5.237,7.835,9.32,10.403
		c2.634,1.657,5.44,3.024,7.664,5.3c3.71,3.799,3.628,9.952-0.266,13.821c-3.775,3.748-9.392,3.678-13.331,0.031
		c-2.638-2.443-4.062-5.426-4.743-8.852c-0.529-2.649-1.539-5.11-3.255-7.167c-2.583-3.102-5.829-5.125-10.02-5.129
		c-3.218,0-5.124,1.738-5.598,4.951c-0.36,2.431-1.368,3.37-3.798,3.089c-1.976-0.229-3.903-0.838-5.865-1.205
		c-2.311-0.432-4.023,0.472-5.061,2.588c-0.627,1.278-0.979,2.639-1.241,4.04c-1.198,6.355-4.791,7.492-10.329,5.123
		c-1.936-0.828-3.76-1.959-5.551-3.086c-8.329-5.245-16.067,0.65-16.572,9.889c-0.166,3.042,0.585,5.963,1.004,8.922
		c0.581,4.098,1.238,8.166-0.182,12.219c-1.959,5.594-5.876,8.035-11.103,7.477c-4.21-0.447-7.492-4.582-7.792-9.611
		c-0.25-4.195,1.036-7.869,3.463-11.232c1.24-1.715,2.503-3.43,3.552-5.266c2.659-4.652,2.804-9.75,2.344-14.916
		c-0.041-0.461-0.197-0.926-0.379-1.356c-0.909-2.151-3.124-2.816-5.03-1.505c-0.92,0.637-1.771,1.37-2.7,1.992
		c-2.611,1.752-5.211,1.309-7.113-1.147c-0.721-0.931-1.417-1.898-2.256-2.712c-2.479-2.4-5.81-2.492-8.468-0.302
		c-0.863,0.712-1.684,1.471-2.545,2.184c-3.082,2.545-6.22,2.223-8.768-0.865c-1.479-1.795-2.285-3.971-3.407-5.963
		c-2.522-4.482-9.071-6.928-13.952-5.338c-3.094,1.011-5.147,2.905-7.239,5.421c-3.778,4.547-4.667,10.201-7.1,15.23
		c-2.257,4.662-5.556,8.41-10.82,9.663c-5.313,1.262-10.373-1.889-11.955-7.133c-1.542-5.107,0.56-10.403,4.714-13.775
		c4.405-3.573,9.789-5.085,14.568-7.804c4.599-2.616,8.195-6.282,9.443-11.725c0.741-3.225-0.163-6.181-1.448-9.066
		c-1.829-4.109-4.692-7.465-8.12-10.277c-3.713-3.05-6.764-2.515-9.909,1.578c-1.505,1.956-3.115,3.655-5.392,4.68
		c-3.921,1.765-8.312,0.277-10.072-3.451c-1.913-4.056-0.462-8.068,3.569-10.104c1.966-0.992,4.039-1.134,6.174-1.197
		c3.203-0.094,6.194-0.936,8.489-3.298c1.802-1.854,2.383-4.355,2.714-6.792c0.937-6.867,0.912-13.742-0.712-20.523
		c-1.042-4.357-5.491-7.918-10.021-8.195C72.408,154.159,71.581,154.202,70.756,154.202z"/>
	<path fill-rule="evenodd" clip-rule="evenodd" fill="#F2F2F2" d="M200.096,16.434c-0.403,3.918-0.8,7.819-3.428,11.083
		c-1.926,2.397-4.431,3.257-7.339,2.88c-2.832-0.366-4.696-2.078-5.482-4.827c-1.724-6.032-0.646-11.52,3.416-16.338
		c1.853-2.199,6.946-3.475,9.213-1.924c1.681,1.149,2.546,2.742,3.044,4.578C199.919,13.357,200.155,14.879,200.096,16.434z"/>
	<path fill-rule="evenodd" clip-rule="evenodd" fill="#F2F2F2" d="M62.658,229.643c0.016,2.358-1.008,4.371-2.346,6.168
		c-3.518,4.725-7.846,8.411-13.679,9.999c-1.037,0.283-2.09,0.344-3.151,0.201c-3.563-0.48-5.025-2.865-3.93-6.325
		c0.703-2.219,2.172-3.937,3.795-5.453c4.325-4.037,9.243-7.07,15.183-8.114C61.323,225.631,62.65,226.804,62.658,229.643z"/>
	<path fill-rule="evenodd" clip-rule="evenodd" fill="#F2F2F2" d="M37.893,177.788c0,0.337,0.017,0.515-0.002,0.689
		c-0.31,2.9,0.017,6.336-3.056,7.815c-3.87,1.861-8.055,2.131-12.092,0.059c-0.597-0.306-0.996-0.826-1.305-1.404
		c-1.945-3.634-1.887-7.307,0.3-10.733c2.419-3.785,5.979-5.802,10.575-5.396c2.46,0.217,4.011,1.78,4.809,4.1
		C37.681,174.55,37.989,176.218,37.893,177.788z"/>
	<path fill-rule="evenodd" clip-rule="evenodd" fill="#F2F2F2" d="M282.719,43.286c-0.368,6.417-4.827,12.063-11.014,11.995
		c-3.306-0.036-5.23-2.026-5.263-5.334c-0.046-4.431,2.695-7.352,5.521-10.234c1.361-1.391,3.021-2.327,4.913-2.539
		C280.637,36.749,282.683,38.973,282.719,43.286z"/>
	<path fill-rule="evenodd" clip-rule="evenodd" fill="#F2F2F2" d="M29.32,102.345c-3.445-0.066-6.533-0.957-9.395-2.567
		c-3.003-1.688-4.538-5.233-3.71-8.238c0.215-0.778,0.568-1.428,1.287-1.811c4.923-2.625,13.822-1.925,17.33,5.268
		c0.392,0.804,0.584,1.657,0.716,2.535c0.432,2.864-0.7,4.396-3.561,4.737C31.059,102.379,30.123,102.591,29.32,102.345z"/>
	<path fill-rule="evenodd" clip-rule="evenodd" fill="#F2F2F2" d="M305.888,120.647c-1.579,0.127-3.063-0.16-4.514-0.696
		c-4.306-1.595-5.331-5.393-2.414-8.972c1.902-2.336,4.646-3.073,7.366-3.82c1.479-0.407,2.996-0.451,4.531-0.14
		c4.97,1,6.718,5.885,3.444,9.754C312.101,119.375,309.402,120.948,305.888,120.647z"/>
	<path fill-rule="evenodd" clip-rule="evenodd" fill="#F2F2F2" d="M249.21,283.816c-0.014,2.92-1.448,5.037-3.953,5.83
		c-2.36,0.746-5.35-0.328-6.847-2.471c-2.588-3.717-3.335-7.838-2.557-12.24c0.432-2.443,2.117-3.346,4.545-2.754
		C243.82,273.016,249.941,280.523,249.21,283.816z"/>
	<path fill-rule="evenodd" clip-rule="evenodd" fill="#F2F2F2" d="M181.995,287.803c-0.009-4.52,2.522-7.525,6.352-7.539
		c3.749-0.018,5.941,2.426,6.009,6.689c0.063,3.955-2.869,6.85-6.917,6.836C184.103,293.777,182.004,291.469,181.995,287.803z"/>
	<path fill-rule="evenodd" clip-rule="evenodd" fill="#F2F2F2" d="M272.504,221.253c3.831-0.011,7.601,2.85,8.354,6.342
		c0.476,2.208-0.25,3.42-2.415,3.887c-2.759,0.595-5.486,0.589-8.044-0.798c-2.857-1.547-3.457-6.114-1.151-8.399
		C270.164,221.375,271.303,221.234,272.504,221.253z"/>
	<path fill-rule="evenodd" clip-rule="evenodd" fill="#F2F2F2" d="M198.539,50.422c-0.28,1.813-0.128,3.429-1.313,4.622
		c-1.393,1.405-3.066,1.868-5,1.346c-1.836-0.496-2.359-1.96-2.645-3.578c-0.271-1.542,0.131-3.038,0.478-4.518
		c0.443-1.906,2.098-3.188,4.067-3.276c1.625-0.072,3.235,1.04,3.84,2.799C198.285,48.749,198.397,49.751,198.539,50.422z"/>
	<path fill-rule="evenodd" clip-rule="evenodd" fill="#F2F2F2" d="M55.469,38.363c-0.003-2.589,1.154-3.696,3.831-3.67
		c2.618,0.025,4.389,1.915,4.417,4.711c0.025,2.474-1.324,3.829-3.802,3.817C57.264,43.208,55.473,41.251,55.469,38.363z"/>
	<path fill-rule="evenodd" clip-rule="evenodd" fill="#F2F2F2" d="M62.062,112.811c2.529-0.006,4.112,1.47,4.08,3.808
		c-0.031,2.311-2.291,4.027-5.314,4.038c-2.464,0.008-3.597-1.103-3.59-3.525C57.241,114.262,58.856,112.816,62.062,112.811z"/>
	<path fill-rule="evenodd" clip-rule="evenodd" fill="#F2F2F2" d="M114.963,259.091c-1.903,0.035-3.206-1.248-3.223-3.18
		c-0.022-2.406,2.125-4.838,4.249-4.816c1.76,0.02,3.098,1.459,3.137,3.375C119.175,256.898,117.238,259.048,114.963,259.091z"/>
	<path fill-rule="evenodd" clip-rule="evenodd" fill="#F2F2F2" d="M125.775,30.246c0.021-2.819,1.52-4.624,3.782-4.554
		c1.675,0.051,3.344,2.28,3.284,4.386c-0.062,2.065-1.792,3.651-3.979,3.643C126.587,33.712,125.756,32.777,125.775,30.246z"/>
	<path fill-rule="evenodd" clip-rule="evenodd" fill="#F2F2F2" d="M254.444,68.31c-0.009,2.245-2.154,4.218-4.554,4.19
		c-1.711-0.021-3.161-1.576-3.13-3.356c0.037-2.08,2.11-4.013,4.312-4.024C253.143,65.11,254.451,66.347,254.444,68.31z"/>
</g>
<g id="XMLID_1_">
	<g>
		<path fill="#9399C8" d="M260.157,171.333c0.23,4.514-3.011,7.792-7.622,7.87c-5.18,0.091-10.36,0.006-15.534,0.037
			c-1.424,0.012-1.878-0.473-1.194-1.793c0.57-0.079,1.115-0.169,1.727-0.103c4.562,0.545,9.142-0.042,13.717,0.133
			c1.181,0.042,2.405-0.43,3.568-0.8c1.812-0.582,2.708-1.993,2.575-3.817c1.224-1.89,0.484-4.029,0.769-6.034
			c0.024-0.037,0.079-0.073,0.073-0.103c-0.006-0.079-0.042-0.152-0.066-0.23c0-0.242,0-0.485,0-0.733
			c0.024-0.03,0.079-0.067,0.073-0.097c-0.012-0.079-0.049-0.151-0.073-0.23c0-0.243,0-0.491,0-0.733
			c0.03-0.036,0.079-0.073,0.073-0.103c-0.012-0.073-0.042-0.151-0.073-0.224c0.006-0.709,0.012-1.417,0.012-2.126
			c1.375,0.018,1.636,1.006,1.66,2.048C259.909,166.644,260.036,168.988,260.157,171.333z"/>
		<path fill="#A0A1CD" d="M258.243,165.662c0.006,0.03-0.049,0.067-0.073,0.097c-0.03-0.109-0.03-0.218,0-0.327
			C258.194,165.511,258.23,165.583,258.243,165.662z"/>
		<path fill="#A0A1CD" d="M258.243,164.596c0.006,0.03-0.042,0.067-0.073,0.103c-0.03-0.109-0.03-0.218,0-0.327
			C258.2,164.444,258.23,164.523,258.243,164.596z"/>
		<path fill="#A0A1CD" d="M258.236,166.723c0.006,0.03-0.048,0.066-0.073,0.103c-0.03-0.109-0.024-0.218,0.006-0.333
			C258.194,166.571,258.23,166.644,258.236,166.723z"/>
		<path fill="#FEFEFE" d="M258.182,162.245c0,0.709-0.006,1.417-0.012,2.126c-0.03,0.109-0.03,0.218,0,0.327
			c0,0.243,0,0.491,0,0.733c-0.03,0.109-0.03,0.218,0,0.327c0,0.248,0,0.491,0,0.733c-0.03,0.115-0.037,0.224-0.006,0.333
			c-0.285,2.005,0.455,4.144-0.769,6.034c-0.764,0.569-1.448,1.291-2.502,1.303c-0.109,0.006-0.218,0.018-0.327,0.024
			c-6.016,0.042-12.039,0.085-18.055,0.127c-0.243,0-0.485,0-0.721,0c-6.604,0-13.208,0-19.818,0c-0.236,0-0.479,0-0.721,0
			c-1.054,0-2.108,0-3.168,0c-0.109-0.03-0.218-0.036-0.333-0.024c-1.309-0.006-2.617-0.006-3.926-0.012
			c-0.703,0.006-1.406,0.006-2.103,0.012c-2.72-0.006-5.435-0.012-8.155-0.012c-0.878-0.243-0.703-0.976-0.709-1.594
			c-0.012-2.357-0.012-4.708-0.006-7.058c0.006-0.988-0.122-1.927-0.618-2.812c-0.563,0.267-0.642,0.727-0.679,1.091
			c-0.37,4.029-0.606,8.058,0.133,12.087c0.303,1.648,1.484,2.351,2.824,2.811c0.921,0.315,1.963,0.43,2.944,0.394
			c1.417-0.055,2.539,0.218,3.193,1.618c0.261,0.545,0.691,0.957,1.387,0.903c0.006,1.23,0.012,2.46,0.019,3.689
			c0,0.624,0.079,1.212,0.902,1.206c0.836-0.012,0.867-0.63,0.867-1.242c0.006-1.818,0.085-3.635-0.012-5.441
			c-0.091-1.672,0.697-2.199,2.211-2.12c0.588,0.03,1.163,0.079,1.696,0.351c0.055,0.345,0.103,0.691,0.158,1.036
			c-0.037,1.975-0.042,3.95-0.115,5.919c-0.048,1.175,0.503,1.521,1.594,1.508c3.163-0.036,6.331-0.012,9.494-0.012
			c3.738,0.006,4.962,1.151,5.12,4.841c0,0.061,0.006,0.121,0.006,0.182c0.012,0.352,0.042,0.697,0.067,1.048
			c-0.03,1.817-0.037,3.641-0.097,5.458c-0.054,1.594-0.2,3.175-1.436,4.393c-2.211,1.309-4.671,0.515-7.004,0.824
			c-0.357,0-0.721,0-1.084-0.006c-2.108,0.006-4.223,0.006-6.332,0.006c-0.109-0.03-0.218-0.042-0.327-0.03
			c-1.436,0-2.872-0.006-4.308-0.006c-13.681-0.012-27.361-0.024-41.036-0.036c-0.006-1.061-0.006-2.121-0.006-3.181
			c0-2.83-0.006-5.659-0.006-8.488c0-0.352,0-0.709,0-1.061c0-0.121,0-0.236,0-0.351c-0.03-0.4,0.133-0.915-0.261-1.145
			c-0.455-0.261-0.715,0.236-1.024,0.479c-0.636,0.509-0.939,1.224-1.079,1.975c-0.036,0.212-0.079,0.418-0.121,0.63l-1.515-0.248
			c0.582-2.539-0.582-4.872-3.429-6.695c0.17-2.581-0.4-5.199,0.352-7.755c0.315,0.139,0.654,0.249,0.951,0.424
			c3.381,1.975,6.961,2.775,10.924,2.502c2.938-0.206,5.362-1.605,7.973-2.593c4.229,3.144,8.403,0.987,9.9-1.703
			c1.817-3.278,0.721-6.622-3.017-9.149c0.157-0.236,0.418-0.46,0.46-0.715c1.005-5.816-0.624-10.821-4.55-15.189
			c-1.533-1.703-3.581-2.617-5.307-4.005c0.303-0.624,0.915-0.648,1.478-0.806c3.678-1.054,5.253-3.145,5.253-6.949
			c0.006-2.096,0.212-4.187,0.048-6.295c-0.182-2.296,0.291-2.854,2.508-2.896c5.599-0.103,11.197-0.091,16.795-0.012
			c1.854,0.03,2.308,1.169,1.363,2.89c-0.394-0.103-0.788-0.224-1.188-0.315c-3.478-0.781-6.574-0.097-9.034,2.581
			c-2.441,2.66-3.06,5.804-1.86,9.191c1.884,5.32,8.361,7.955,13.996,4.156c0.006,2.527,0.012,5.047,0.03,7.567
			c0.006,0.624-0.127,1.399,0.842,1.442c0.97,0.042,0.927-0.697,0.927-1.351c-0.012-3.108-0.037-6.216-0.061-9.324
			c2.333-3.702,2.296-7.397,0-11.1c0.006-4.083,0.012-8.161,0.018-12.238c2.114-1.63,3.168-3.49,3.168-5.38h0.836
			c-0.006,2.66-0.006,5.32-0.006,7.973c0,0.582,0.182,1.157,0.279,1.739c-0.382,0.442-0.321,0.951-0.242,1.466
			c-0.018,8.9-0.018,17.801-0.067,26.701c-0.006,1.133,0.357,1.594,1.521,1.545c1.945-0.091,3.89-0.073,5.828-0.103
			c0.279-0.024,0.558-0.048,0.836-0.066c2.629,0.352,5.277,0.151,7.906,0.139c3.575-0.018,7.156,0.224,10.724-0.151h0.006
			c0.273,0.03,0.545,0.055,0.818,0.085c4.593,0.024,9.185,0.061,13.778,0.073C257.055,157.598,257.891,158.361,258.182,162.245z
			 M251.802,166.789c0.618-0.066,0.951-0.436,0.933-1.066c-0.024-0.545-0.339-0.878-0.867-0.951
			c-0.466-0.055-0.939-0.055-1.412-0.055c-11.081-0.006-22.163-0.006-33.244,0c-0.352,0-0.703,0-1.061,0.012
			c-0.654,0.03-1.169,0.267-1.188,1.012c-0.024,0.746,0.448,1.042,1.121,1.079c0.472,0.024,0.945,0.018,1.417,0.018
			c5.422,0,10.839,0,16.268,0c5.538,0,11.075,0,16.619,0C250.863,166.837,251.335,166.844,251.802,166.789z M241.084,171.424
			c0.921-0.006,2.132,0.103,2.078-1.266c-0.049-1.272-1.224-0.824-1.951-0.836c-4.004-0.037-8.003-0.019-12.008-0.019
			c-4.12,0-8.24-0.006-12.359,0.012c-0.788,0-1.878-0.188-1.842,1.036c0.036,1.127,1.084,1.061,1.896,1.072
			c2.175,0.024,4.356,0.012,6.531,0.012C229.318,171.436,235.201,171.442,241.084,171.424z M231.009,162.584
			c0.842,0,1.593-0.146,1.569-1.206c-0.024-1.084-0.891-0.909-1.569-0.909c-4.768-0.012-9.542-0.012-14.311-0.006
			c-0.757,0-1.715-0.097-1.703,1.012c0.006,1.036,0.933,1.084,1.696,1.097c2.357,0.03,4.714,0.012,7.071,0.012
			C226.18,162.584,228.597,162.584,231.009,162.584z M222.581,195.004c0.024-0.842-0.654-1.182-1.436-1.242
			c-0.351-0.024-0.708-0.012-1.06-0.012c-11.021,0-22.036-0.006-33.056,0.006c-0.582,0-1.182,0.036-1.733,0.2
			c-0.454,0.14-0.793,0.551-0.733,1.091c0.066,0.569,0.503,0.77,1.006,0.806c0.472,0.03,0.945,0.024,1.417,0.024
			c5.477,0,10.954,0,16.438,0c2.944-0.006,5.889-0.006,8.839-0.006c2.944,0,5.889,0,8.833,0
			C221.757,195.871,222.551,195.877,222.581,195.004z M211.07,200.463c0.933,0,1.969-0.103,1.933-1.267
			c-0.037-1.072-1.097-0.848-1.824-0.848c-4.126-0.018-8.246-0.012-12.372-0.012c-1.527,0-3.06,0-4.593,0
			c-2.769,0-5.538,0-8.306,0.006c-0.606,0.006-1.285,0.066-1.333,0.836c-0.049,0.77,0.527,1.121,1.23,1.248
			c0.23,0.042,0.466,0.037,0.703,0.037C194.693,200.463,202.884,200.463,211.07,200.463z M211.748,171.097
			c0.012-3.284,0.321-6.567,0.024-9.863c-0.103-1.175-0.527-1.502-1.618-1.484c-2.83,0.048-5.659,0.054-8.482-0.006
			c-1.212-0.024-1.678,0.376-1.654,1.624c0.061,3.241,0.018,6.483,0.018,9.724c-0.012,0.86,0.503,1.06,1.248,1.06
			c3.151-0.018,6.295,0.006,9.439-0.03C211.294,172.115,212.16,172.188,211.748,171.097z M200.588,191.605
			c0.812-0.012,1.848,0.018,1.83-1.139c-0.012-1.097-1-0.969-1.751-0.969c-4.774-0.012-9.548-0.012-14.323,0.006
			c-0.727,0-1.769-0.2-1.745,0.927c0.019,1.048,0.963,1.188,1.842,1.188c2.357-0.006,4.714,0,7.071,0
			C195.875,191.618,198.231,191.636,200.588,191.605z M181.643,190.557c0.012-1.078-0.424-1.472-1.472-1.436
			c-1.472,0.048-2.951,0.012-4.423,0.012c-1.587,0-3.181,0.024-4.774-0.012c-0.963-0.024-1.394,0.351-1.381,1.345
			c0.03,2.83,0.006,5.659,0.012,8.488c0.006,0.406-0.012,1.018,0.467,1.012c1.157-0.024,2.096-0.739,3.029-1.327
			c0.781-0.497,0.987-1.424,0.605-2.206c-0.654-1.333-0.278-2.647-0.194-3.974c0.079-1.23,0.976-1.788,2.024-1.818
			c1.139-0.024,2.078,0.527,2.181,1.842c0.097,1.327,0.406,2.629-0.194,3.98c-0.455,1.018-0.012,1.957,1.06,2.484
			c0.636,0.309,1.278,0.612,1.896,0.951c0.8,0.442,1.169,0.327,1.157-0.679C181.606,196.337,181.6,193.447,181.643,190.557z"/>
		<path fill="#8792C4" d="M257.395,172.86c0.133,1.824-0.764,3.235-2.575,3.817c-1.163,0.37-2.387,0.842-3.568,0.8
			c-4.575-0.176-9.155,0.412-13.717-0.133c-0.612-0.066-1.157,0.024-1.727,0.103c0.23-1.042,0.467-2.09,0.703-3.132
			c6.016-0.042,12.039-0.085,18.055-0.127l0.169,0.019l0.158-0.042C255.946,174.15,256.631,173.429,257.395,172.86z"/>
		<path fill="#F1F2F3" d="M254.892,174.163l-0.158,0.042l-0.169-0.019C254.674,174.181,254.783,174.168,254.892,174.163z"/>
		<path fill="#DAE2E4" d="M252.735,165.723c0.018,0.63-0.315,1-0.933,1.066c-0.467,0.055-0.939,0.048-1.412,0.048
			c-5.544,0-11.082,0-16.619,0c-5.429,0-10.845,0-16.268,0c-0.473,0-0.945,0.006-1.417-0.018c-0.673-0.036-1.146-0.333-1.121-1.079
			c0.018-0.745,0.533-0.981,1.188-1.012c0.357-0.012,0.709-0.012,1.061-0.012c11.081-0.006,22.163-0.006,33.244,0
			c0.473,0,0.945,0,1.412,0.055C252.396,164.844,252.711,165.178,252.735,165.723z"/>
		<path fill="#DAE2E4" d="M243.163,170.158c0.054,1.369-1.157,1.26-2.078,1.266c-5.883,0.019-11.766,0.012-17.655,0.012
			c-2.175,0-4.356,0.012-6.531-0.012c-0.812-0.012-1.86,0.055-1.896-1.072c-0.037-1.224,1.054-1.036,1.842-1.036
			c4.12-0.018,8.24-0.012,12.359-0.012c4.005,0,8.004-0.018,12.008,0.019C241.938,169.334,243.114,168.885,243.163,170.158z"/>
		<path fill="#EDEDED" d="M231.924,123.96c6.137,1.66,9.251,5.786,8.797,11.542c-0.182,2.333-1.611,4.096-2.563,6.083
			c-0.2,0.133-0.406,0.267-0.606,0.406c-0.491,0.309-0.994,0.612-1.479,0.933c-3.769,2.508-8.876,2.139-12.487-0.903
			c-3.266-2.75-4.387-7.991-2.514-11.959c2.005-4.253,5.483-6.113,10.087-6.101C231.415,123.96,231.669,123.96,231.924,123.96z
			 M235.159,136.726c1.587-2.26,1.357-2.987-1.236-3.902c-0.321-0.115-0.624-0.285-0.975-0.448c0.739-1.036,1.769-1.903,1.29-3.326
			c-0.139-0.4-0.327-0.782-0.842-0.764c-0.4,0.012-0.691,0.267-0.745,0.63c-0.097,0.721-0.467,1.199-1.103,1.478
			c-1.92,0.83-2.69,2.448-3.205,4.35c-0.921,3.405-1.381,2.812,2.018,3.859c1.061,0.333,2.211,1.018,3.181,0.83
			c1.005-0.194,1.103-1.648,1.466-2.617C235.026,136.774,235.128,136.769,235.159,136.726z M227.761,133.951
			c0.4-1.4-0.236-2.206-1.703-2.163c-0.582-0.036-0.799,0.309-0.945,0.824c-0.303,1.072-0.612,2.145-1.012,3.181
			c-0.406,1.066-0.339,1.666,0.945,2.078c1.345,0.43,1.654-0.188,1.915-1.224C227.192,135.738,227.501,134.854,227.761,133.951z"/>
		<path fill="#BDC0DD" d="M238.158,141.585c1.048,5.253,1.266,10.579,1.229,15.922c-0.272-0.03-0.545-0.055-0.818-0.085
			c0.019-0.642,0.037-1.291,0.055-1.939c0.115-4.532-0.576-9.009-1.072-13.493C237.752,141.852,237.958,141.718,238.158,141.585z"/>
		<path fill="#F63F73" d="M236.583,105.778c0.006,4.496-2.847,8.209-7.179,9.33c-0.685,0.176-1.388,0.273-2.078,0.4
			c-0.37,0-0.739,0-1.109,0c-6.325-2.084-8.47-4.574-8.749-10.16c0.03-0.249,0.054-0.491,0.079-0.739
			c0.497-2.605,1.751-4.762,3.792-6.458c2.957,0.951,5.665,0.545,8.083-1.472C233.699,97.738,236.583,101.404,236.583,105.778z
			 M232.602,104.881c0.061-1.696-0.527-2.738-1.769-3.302c-1.193-0.539-2.338-0.267-3.199,0.715
			c-0.442,0.509-0.582,0.569-1.079,0.012c-0.969-1.079-2.217-1.327-3.508-0.558c-1.406,0.848-1.818,2.242-1.351,3.684
			c0.799,2.478,2.732,4.047,4.907,5.319c0.218,0.133,0.576,0.133,0.842,0.073C229.452,110.353,232.566,106.542,232.602,104.881z"/>
		<path fill="#8792C4" d="M215.971,174.314c6.61,0,13.214,0,19.818,0c-0.182,1.182-0.509,2.29-1.406,3.15
			c-5.798-0.036-11.602,0.164-17.406-0.121c-0.533-0.024-1.206-0.533-1.733,0.115C215.159,176.337,215.759,175.368,215.971,174.314z
			"/>
		<path fill="#196DAF" d="M233.923,132.824c2.593,0.915,2.823,1.642,1.236,3.902c-0.031,0.042-0.133,0.048-0.152,0.091
			c-0.363,0.969-0.46,2.423-1.466,2.617c-0.97,0.188-2.121-0.497-3.181-0.83c-3.399-1.048-2.938-0.454-2.018-3.859
			c0.515-1.902,1.285-3.52,3.205-4.35c0.636-0.279,1.006-0.757,1.103-1.478c0.054-0.364,0.345-0.618,0.745-0.63
			c0.515-0.018,0.703,0.364,0.842,0.764c0.479,1.423-0.551,2.29-1.29,3.326C233.299,132.54,233.602,132.709,233.923,132.824z"/>
		<path fill="#BDC0DD" d="M234.02,179.228c0.569,0.249,0.539,0.679,0.382,1.175c-1.224,3.811-3.078,7.301-5.556,11.021
			c-0.012-1.654,0.697-2.508,1.218-3.423C231.651,185.195,233.039,182.305,234.02,179.228z"/>
		<path fill="#9399C8" d="M234.383,177.464c-0.121,0.588-0.242,1.175-0.363,1.763c-2.423,0-4.847,0-7.271,0
			c-3.641,0-7.276,0-10.912-0.012c-0.491,0-1.212,0.254-1.388-0.4c-0.145-0.551,0.055-1.181,0.794-1.357
			c0.527-0.648,1.2-0.14,1.733-0.115C222.781,177.628,228.585,177.428,234.383,177.464z"/>
		<path fill="#FEFAFC" d="M230.833,101.58c1.242,0.563,1.83,1.605,1.769,3.302c-0.036,1.66-3.15,5.471-5.156,5.944
			c-0.267,0.061-0.624,0.061-0.842-0.073c-2.175-1.272-4.108-2.842-4.907-5.319c-0.467-1.442-0.055-2.836,1.351-3.684
			c1.291-0.769,2.539-0.521,3.508,0.558c0.497,0.557,0.636,0.497,1.079-0.012C228.495,101.313,229.64,101.041,230.833,101.58z"/>
		<path fill="#DAE2E4" d="M232.578,161.379c0.024,1.06-0.727,1.206-1.569,1.206c-2.412,0-4.829,0-7.246,0
			c-2.357,0-4.714,0.018-7.071-0.012c-0.763-0.012-1.69-0.061-1.696-1.097c-0.012-1.109,0.945-1.012,1.703-1.012
			c4.768-0.006,9.542-0.006,14.311,0.006C231.688,160.47,232.554,160.294,232.578,161.379z"/>
		<path fill="#BDC0DD" d="M231.378,122.506c0.279,0.46,0.551,0.896,0.545,1.454c-0.255,0-0.509,0-0.764,0
			c-1.303-3.018-3.187-5.695-4.944-8.452c0.37,0,0.739,0,1.109,0C228.67,117.841,230.009,120.186,231.378,122.506z"/>
		<path fill="#EDEDED" d="M228.664,86.033c2.884,2.145,3.611,6.44,1.605,9.512c-0.26,0.394-0.563,0.757-0.848,1.133
			c-2.417,2.018-5.125,2.423-8.083,1.472c-4.289-2.908-5.313-7.349-2.502-10.851C221.267,84.276,225.562,83.725,228.664,86.033z
			 M226.968,93.6c0.503-0.182,1.394-0.182,1.327-0.891c-0.121-1.242-0.224-2.629-1.072-3.568c-0.63-0.703-1.46,0.375-2.266,0.345
			c-0.103-0.497-0.157-1.024-0.327-1.508c-0.157-0.449-0.454-0.903-1.018-0.782c-0.77,0.158-0.273,0.679-0.285,1.09
			c-0.012,0.57-0.212,1.133-0.339,1.697c-0.382,1.702,0.381,3.223,1.333,4.374C224.835,94.981,226.071,93.927,226.968,93.6z
			 M222.666,95.939c0.394,0.091,1.351-0.206,1.036-1.018c-0.424-1.108-0.521-2.466-1.727-3.181c-0.515,0.4-1.472,0.418-1.108,1.193
			C221.37,93.988,221.121,95.594,222.666,95.939z"/>
		<path fill="#9399C8" d="M229.343,193.568c-0.079,3.266,0.6,6.562-0.03,9.797c-0.654,3.405-3.29,4.623-6.477,4.865
			c-1.993,0.146-4.004,0.036-6.004,0.018c-0.448-0.006-1.048,0.212-1.285-0.303c-0.254-0.54,0.339-0.812,0.643-1.127
			c0.357-0.382,0.788-0.697,1.188-1.042c2.647,1.515,5.216,0.727,7.719-0.352c1.188-0.509,1.799-1.509,1.412-2.89
			c1.236-1.218,1.381-2.799,1.436-4.393c0.061-1.817,0.067-3.641,0.097-5.458C228.676,192.69,229.361,192.841,229.343,193.568z"/>
		<path fill="#196DAF" d="M228.294,92.709c0.067,0.709-0.824,0.709-1.327,0.891c-0.897,0.327-2.133,1.381-2.648,0.757
			c-0.951-1.151-1.714-2.672-1.333-4.374c0.127-0.563,0.327-1.127,0.339-1.697c0.012-0.412-0.484-0.933,0.285-1.09
			c0.563-0.121,0.86,0.333,1.018,0.782c0.17,0.484,0.224,1.012,0.327,1.508c0.806,0.03,1.636-1.048,2.266-0.345
			C228.07,90.08,228.173,91.468,228.294,92.709z"/>
		<path fill="#196DAF" d="M226.059,131.788c1.466-0.042,2.103,0.763,1.703,2.163c-0.26,0.903-0.569,1.787-0.8,2.696
			c-0.26,1.036-0.569,1.654-1.915,1.224c-1.284-0.412-1.351-1.012-0.945-2.078c0.4-1.036,0.708-2.108,1.012-3.181
			C225.259,132.097,225.477,131.752,226.059,131.788z"/>
		<path fill="#8792C4" d="M226.507,202.535c0.388,1.381-0.224,2.381-1.412,2.89c-2.502,1.079-5.071,1.866-7.719,0.352
			c0.708-0.806,1.417-1.612,2.126-2.417C221.836,203.05,224.296,203.844,226.507,202.535z"/>
		<path fill="#196DAF" d="M223.702,94.921c0.315,0.812-0.643,1.109-1.036,1.018c-1.545-0.345-1.296-1.951-1.799-3.005
			c-0.364-0.775,0.594-0.793,1.108-1.193C223.181,92.455,223.278,93.813,223.702,94.921z"/>
		<path fill="#DAE2E4" d="M221.145,193.762c0.782,0.061,1.46,0.4,1.436,1.242c-0.03,0.873-0.824,0.866-1.484,0.866
			c-2.944,0-5.889,0-8.833,0c-2.951,0-5.895,0-8.839,0c-5.483,0.006-10.96,0.006-16.438,0.006c-0.473,0-0.945,0.006-1.417-0.024
			c-0.503-0.036-0.939-0.236-1.006-0.806c-0.061-0.54,0.279-0.951,0.733-1.091c0.551-0.164,1.151-0.2,1.733-0.2
			c11.021-0.012,22.036-0.006,33.056-0.006C220.437,193.75,220.794,193.738,221.145,193.762z"/>
		<path fill="#BDC0DD" d="M219.073,144.869c0.86,4.114,1.569,8.313,0.86,12.566c-0.279,0.018-0.558,0.042-0.836,0.066
			c0.715-9.724-1.599-18.739-6.349-27.185c-0.224-0.4-0.364-0.891-0.933-0.958c-0.079-0.515-0.14-1.024,0.242-1.466
			C215.838,132.958,217.801,138.81,219.073,144.869z"/>
		<path fill="#A0A1CD" d="M212.748,130.316c4.75,8.446,7.064,17.461,6.349,27.185c-1.938,0.03-3.883,0.012-5.828,0.103
			c-1.164,0.049-1.527-0.412-1.521-1.545c0.049-8.9,0.049-17.8,0.067-26.701C212.384,129.425,212.524,129.916,212.748,130.316z"/>
		<path fill="#8792C4" d="M212.087,203.359c2.108,0,4.223,0,6.332-0.006c-1.969,1.903-3.781,4.017-6.531,4.872
			c-0.024-0.346-0.049-0.691-0.073-1.042c0.024-0.036,0.073-0.073,0.073-0.109c-0.012-0.079-0.049-0.164-0.073-0.242l-0.097,0.012
			c0.037-0.243,0.067-0.491,0.103-0.733C212.3,205.231,211.979,204.274,212.087,203.359z"/>
		<path fill="#BDC0DD" d="M217.546,104.609c-0.024,0.249-0.048,0.491-0.079,0.739c-0.479-0.43-0.951-0.873-1.442-1.285
			c-1.333-1.115-2.442-2.539-4.217-3.035c0.037-0.388,0.079-0.77,0.115-1.157C214.147,101.041,215.904,102.755,217.546,104.609z"/>
		<path fill="#8792C4" d="M212.082,174.314c1.06,0,2.114,0,3.168,0c-0.37,1.618-1.46,2.878-2.199,4.308
			c-0.242,0.467-0.679,0.6-1.175,0.576c-0.055-0.345-0.103-0.691-0.158-1.036c0.037-0.357,0.067-0.721,0.103-1.078
			C212.3,176.198,211.979,175.235,212.082,174.314z"/>
		<path fill="#F63F73" d="M208.477,62.229c3.351-0.037,6.089,2.769,6.083,6.222c-0.012,3.447-2.702,6.144-6.156,6.174
			c-3.248,0.03-6.131-2.89-6.174-6.247C202.194,65.112,205.078,62.265,208.477,62.229z M211.742,69.377
			c0.793-1.03,0.836-2.344-0.321-2.89c-1.327-0.624-3.053-0.243-3.944-1.484c-1.466,0.115-2.133,0.818-2.218,1.933
			c-0.139,1.769,0.818,3.12,1.921,4.375c0.212,0.242,0.509,0.267,0.812,0.188C209.428,71.117,210.803,70.589,211.742,69.377z"/>
		<path fill="#DAE2E4" d="M213.002,199.197c0.036,1.164-1,1.267-1.933,1.267c-8.186,0-16.377,0-24.562,0
			c-0.236,0-0.473,0.006-0.703-0.037c-0.703-0.127-1.279-0.479-1.23-1.248c0.048-0.77,0.727-0.83,1.333-0.836
			c2.769-0.006,5.538-0.006,8.306-0.006c1.533,0,3.066,0,4.593,0c4.125,0,8.246-0.006,12.372,0.012
			C211.906,198.349,212.966,198.125,213.002,199.197z"/>
		<path fill="#DAE2E4" d="M212.263,195.871c-2.951,0-5.895,0-8.839,0.006c-5.483,0-10.96,0-16.438,0c5.477,0,10.954,0,16.438-0.006
			C206.368,195.871,209.313,195.871,212.263,195.871z"/>
		<path fill="#A0A1CD" d="M212.087,203.359c-0.109,0.915,0.212,1.872-0.267,2.75c-0.024-0.927-0.042-1.854-0.061-2.781
			C211.87,203.317,211.979,203.329,212.087,203.359z"/>
		<path fill="#A0A1CD" d="M212.082,174.314c-0.103,0.921,0.218,1.884-0.261,2.769c-0.024-0.933-0.048-1.866-0.073-2.793
			C211.863,174.278,211.972,174.284,212.082,174.314z"/>
		<path fill="#FEFEFE" d="M211.924,99.871c-0.036,0.388-0.079,0.77-0.115,1.157c-0.012,5.713-0.024,11.433-0.024,17.152h-0.836
			c0-1.878-1.036-3.78-3.12-5.52c0-4.665,0.006-9.324-0.006-13.983c-0.006-3.266-0.806-4.059-4.071-4.059
			c-22.363,0-44.719,0-67.082,0.006c-0.763,0-1.533,0.055-2.296,0.085c-1.533-1.848-3.441-3.096-5.786-3.666
			c-0.067-1.654-0.037-3.308,0.503-4.889c1.151-3.369,4.077-5.283,8.149-5.283c11.142-0.018,22.29-0.006,33.432-0.006
			c10.73,0,21.46-0.012,32.19,0c3.375,0.006,6.246,0.988,8.027,4.15c0.673,1.182,0.854,2.411,0.885,3.726
			C211.851,92.449,211.566,96.163,211.924,99.871z M179.128,88.093c0.024-1.163-0.806-1.272-1.697-1.272c-2.356,0-4.713,0-7.07,0
			c-2.472,0-4.95,0.012-7.422-0.006c-0.987-0.006-1.654,0.437-1.672,1.412c-0.012,0.97,0.648,1.436,1.636,1.436
			c4.829-0.006,9.657,0,14.492-0.006C178.419,89.656,179.104,89.189,179.128,88.093z"/>
		<path fill="#F6F7F7" d="M211.815,207.182c0.024,0.352,0.048,0.697,0.073,1.042c-0.049,0.363-0.091,0.727-0.133,1.09
			c-12.287,0-24.574,0.006-36.867-0.006c-1.012,0-2-0.006-2.817,0.715c-1.387-0.491-2.829-0.327-4.253-0.364
			c-0.097-0.685-0.685-0.945-1.169-1.236c-1.285-0.775-2.133-1.824-2.375-3.326v-0.006c0.715-0.006,1.43-0.019,2.139-0.024
			c0.466,0.006,0.927,0.018,1.394,0.03c0.042,1.145,0.636,1.708,1.781,1.739c1.533,0.042,3.06,0.17,4.586,0.17
			c11.875,0.018,23.756,0.018,35.631,0.012c0.636,0,1.303,0.133,1.915-0.175l0.097-0.012
			C211.815,206.946,211.815,207.067,211.815,207.182z"/>
		<path fill="#FEFAFC" d="M211.421,66.488c1.157,0.545,1.115,1.86,0.321,2.89c-0.939,1.212-2.314,1.739-3.75,2.121
			c-0.303,0.079-0.6,0.055-0.812-0.188c-1.103-1.254-2.06-2.605-1.921-4.375c0.085-1.115,0.751-1.817,2.218-1.933
			C208.368,66.245,210.094,65.864,211.421,66.488z"/>
		<path fill="#A0A1CD" d="M211.815,206.831c0.024,0.079,0.061,0.164,0.073,0.242c0,0.036-0.049,0.073-0.073,0.109
			C211.815,207.067,211.815,206.946,211.815,206.831z"/>
		<path fill="#DAE2E4" d="M211.772,161.233c0.297,3.296-0.012,6.58-0.024,9.863c-1.121-0.224-2.066-0.854-3.047-1.369
			c-1.012-0.533-1.454-1.363-0.891-2.49c0.618-1.236,0.375-2.551,0.333-3.829c-0.042-1.224-0.981-1.721-2.029-1.824
			c-1.109-0.109-1.902,0.4-2.193,1.576c-0.321,1.278-0.448,2.52,0.085,3.799c0.484,1.151,0.303,2.253-0.873,2.877
			c-0.981,0.515-2.06,0.842-3.096,1.254c0-3.241,0.042-6.483-0.018-9.724c-0.024-1.248,0.442-1.648,1.654-1.624
			c2.823,0.061,5.652,0.055,8.482,0.006C211.245,159.731,211.669,160.058,211.772,161.233z"/>
		<path fill="#FEFEFE" d="M211.797,215.992c0.26,3.314-0.836,5.956-3.375,8.046c-2.187,1.024-4.496,1.188-6.882,1.182
			c-21-0.042-41.993-0.042-62.986,0c-2.405,0.006-4.689-0.273-6.84-1.37c-2.696-2.526-3.411-5.695-3.163-9.251
			c0.115-1.618-0.054-3.26-0.091-4.896c0.037-0.357,0.067-0.709,0.103-1.066c-0.006-5.435-0.012-10.869-0.018-16.298l0.109,0.037
			c1.363-0.006,2.727-0.006,4.096-0.012c0.006,2.054,0.012,4.114,0.018,6.167c0,0.885,0.006,1.763,0.006,2.648
			c0.006,3.072,0.806,3.89,3.823,3.89c9.228,0.012,18.455,0.018,27.676,0.03c0.242,1.502,1.09,2.551,2.375,3.326
			c0.485,0.291,1.072,0.551,1.169,1.236c-0.315,0.158-0.63,0.315-0.939,0.485c-3.12,1.672-4.241,4.999-2.793,8.294
			c1.115,2.532,4.72,3.92,7.531,2.896c2.92-1.066,4.52-4.501,3.604-7.664c-0.497-1.715-1.842-2.648-3.15-3.647
			c0.818-0.721,1.806-0.715,2.817-0.715c12.293,0.012,24.58,0.006,36.867,0.006C211.76,211.539,211.627,213.78,211.797,215.992z"/>
		<path fill="#DAE2E4" d="M211.748,174.29c0.024,0.927,0.049,1.86,0.073,2.793c-0.036,0.357-0.066,0.721-0.103,1.078
			c-0.533-0.272-1.108-0.321-1.696-0.351c-1.515-0.079-2.302,0.448-2.211,2.12c0.097,1.806,0.018,3.623,0.012,5.441
			c0,0.612-0.03,1.23-0.867,1.242c-0.824,0.006-0.902-0.582-0.902-1.206c-0.006-1.229-0.012-2.459-0.019-3.689
			c0.303-1.763-0.278-3.036-1.951-3.829c-0.715-0.339-1.436-0.4-2.193-0.442c-2.672-0.151-3.926-1.09-4.326-3.168
			c2.72,0,5.435,0.006,8.155,0.012c0.182,1.303,0.14,2.654,0.745,3.908c1.66-0.958,1.363-2.49,1.357-3.92
			C209.131,174.284,210.439,174.284,211.748,174.29z"/>
		<path fill="#DAE2E4" d="M211.76,203.329c0.018,0.927,0.037,1.854,0.061,2.781c-0.036,0.242-0.066,0.491-0.103,0.733
			c-0.612,0.309-1.278,0.175-1.915,0.175c-11.875,0.006-23.756,0.006-35.631-0.012c-1.527,0-3.054-0.127-4.586-0.17
			c-1.145-0.03-1.739-0.594-1.781-1.739c0.709-0.012,1.417-0.024,2.121-0.024c11.438,0,22.872,0,34.304,0
			c1.394,0,2.775-0.018,3.223-1.751C208.889,203.323,210.324,203.329,211.76,203.329z"/>
		<path fill="#F6F7F7" d="M211.748,171.097c0.412,1.091-0.454,1.018-1.024,1.024c-3.144,0.037-6.289,0.012-9.439,0.03
			c-0.745,0-1.26-0.2-1.248-1.06c1.036-0.412,2.115-0.739,3.096-1.254c1.175-0.624,1.357-1.727,0.873-2.877
			c-0.533-1.279-0.406-2.521-0.085-3.799c0.291-1.176,1.084-1.685,2.193-1.576c1.048,0.103,1.987,0.6,2.029,1.824
			c0.042,1.278,0.285,2.593-0.333,3.829c-0.563,1.127-0.121,1.957,0.891,2.49C209.682,170.243,210.627,170.873,211.748,171.097z"/>
		<path fill="#7173AB" d="M210.324,224.401c1.012,0.333,1.442,1.079,1.424,2.175c-0.018,1.042-0.509,1.703-1.43,1.993
			c-0.6,0.188-1.272,0.212-1.915,0.212c-25.428,0.012-50.856,0.012-76.285,0.006c-2.163,0-3.272-0.654-3.356-2.066
			c-0.122-1.854,1.193-2.363,2.678-2.66c0.103-0.019,0.182-0.14,0.272-0.212c2.151,1.097,4.435,1.375,6.84,1.37
			c20.994-0.042,41.987-0.042,62.986,0c2.387,0.006,4.695-0.158,6.882-1.182C209.058,224.153,209.719,224.195,210.324,224.401z"/>
		<path fill="#FEFAFC" d="M208.198,116.642c0.491,0.721,0.473,1.472,0.042,2.151c-0.951,1.496-2.508,2.066-4.144,2.393
			c-0.782,0.157-1.066-0.643-1.406-1.145c-0.63-0.927-1.133-1.927-1.211-3.224c0.042-0.799,0.406-1.605,1.327-1.945
			c0.824-0.303,1.678-0.212,2.145,0.667c0.346,0.643,0.721,0.551,1.279,0.364C207.047,115.624,207.707,115.915,208.198,116.642z"/>
		<path fill="#F63F73" d="M207.828,112.661c2.084,1.739,3.12,3.642,3.12,5.52c0,1.891-1.054,3.75-3.168,5.38
			c-0.697,0.254-1.394,0.503-2.096,0.757c-1.672,0.006-3.272-0.2-4.647-1.297c-2.89-2.32-3.181-5.58-0.8-9.221
			c0.945-0.606,1.89-1.206,2.835-1.805c0.927-0.019,1.86-0.03,2.793-0.042C206.52,112.188,207.174,112.425,207.828,112.661z
			 M208.24,118.792c0.43-0.679,0.448-1.43-0.042-2.151c-0.491-0.727-1.151-1.018-1.969-0.739c-0.558,0.188-0.933,0.279-1.279-0.364
			c-0.466-0.878-1.321-0.969-2.145-0.667c-0.921,0.339-1.285,1.146-1.327,1.945c0.079,1.297,0.582,2.296,1.211,3.224
			c0.339,0.502,0.624,1.302,1.406,1.145C205.732,120.858,207.289,120.289,208.24,118.792z"/>
		<path fill="#196DAF" d="M207.762,135.799c2.296,3.702,2.333,7.398,0,11.1c-0.582,0.558-1.157,1.115-1.739,1.666
			c-5.635,3.799-12.111,1.164-13.996-4.156c-1.2-3.387-0.582-6.531,1.86-9.191c2.46-2.678,5.556-3.362,9.034-2.581
			c0.4,0.091,0.793,0.212,1.188,0.315c0.636,0.394,1.272,0.788,1.908,1.182C206.598,134.69,207.18,135.242,207.762,135.799z
			 M205.017,143.645c0.4-0.17,0.745-0.388,0.551-0.909c-0.176-1.006-0.151-2.115-0.6-2.975c-0.327-0.606,0.018-2.211-1.133-1.763
			c-1.945,0.757-2.69,0.291-2.781-1.672c-0.006-0.151-0.169-0.309-0.291-0.437c-0.333-0.339-0.69-0.697-1.218-0.43
			c-0.46,0.23-0.479,0.63-0.278,1.054c0.381,0.812-0.079,1.503-0.358,2.193c-0.927,2.327,0.14,4.447,1.303,6.125
			c0.697,1.006,2.375-0.533,3.647-0.77C204.26,143.99,204.642,143.802,205.017,143.645z M198.141,146.826
			c0.557-0.26,1.557-0.321,1.405-1.054c-0.291-1.412-0.896-2.757-1.405-4.114c-0.109-0.297-0.449-0.333-0.849-0.285
			c-0.575,0.363-1.884,0.146-1.478,1.545c0.321,1.115,0.727,2.211,1.133,3.302C197.147,146.759,197.48,147.141,198.141,146.826z"/>
		<path fill="#B6C6D2" d="M207.822,174.278c0.006,1.43,0.303,2.962-1.357,3.92c-0.605-1.254-0.563-2.605-0.745-3.908
			C206.417,174.284,207.12,174.284,207.822,174.278z"/>
		<path fill="#DAE2E4" d="M207.822,98.677c0.012,4.659,0.006,9.318,0.006,13.983c-0.654-0.236-1.309-0.472-1.963-0.708
			c0.37-4.532,0.024-9.07,0.182-13.602c0.042-1.242-0.357-1.605-1.593-1.599c-22.938,0.042-45.876,0.042-68.814,0.048
			c-0.424-0.697-0.842-1.394-1.266-2.09c0.763-0.03,1.533-0.085,2.296-0.085c22.363-0.006,44.719-0.006,67.082-0.006
			C207.017,94.618,207.816,95.412,207.822,98.677z"/>
		<path fill="#DAE2E4" d="M207.822,156.223c0,0.654,0.042,1.394-0.927,1.351c-0.969-0.042-0.836-0.818-0.842-1.442
			c-0.019-2.521-0.024-5.041-0.03-7.567c0.582-0.551,1.157-1.108,1.739-1.666C207.786,150.006,207.81,153.115,207.822,156.223z"/>
		<path fill="#DAE2E4" d="M207.78,123.561c-0.006,4.077-0.012,8.155-0.018,12.238c-0.582-0.557-1.164-1.108-1.745-1.666
			c0.006-1.842,0.018-3.69,0.024-5.538c-0.151-1.424,0.394-2.902-0.357-4.277C206.386,124.063,207.083,123.815,207.78,123.561z"/>
		<path fill="#B6C6D2" d="M166.417,203.287c13.675,0.012,27.355,0.024,41.036,0.036c-0.448,1.733-1.83,1.751-3.223,1.751
			c-11.433,0-22.866,0-34.304,0c-0.703,0-1.412,0.012-2.121,0.024c-0.467-0.012-0.927-0.024-1.394-0.03
			C166.411,204.474,166.411,203.88,166.417,203.287z"/>
		<path fill="#F1F2F3" d="M204.084,177.889c1.672,0.793,2.254,2.066,1.951,3.829c-0.696,0.054-1.126-0.357-1.387-0.903
			c-0.654-1.399-1.775-1.672-3.193-1.618c-0.981,0.036-2.023-0.079-2.944-0.394c-1.339-0.46-2.521-1.163-2.824-2.811
			c-0.739-4.029-0.503-8.058-0.133-12.087c0.037-0.364,0.115-0.824,0.679-1.091c0.497,0.885,0.624,1.824,0.618,2.812
			c-0.006,2.351-0.006,4.701,0.006,7.058c0.006,0.618-0.169,1.351,0.709,1.594c0.4,2.078,1.654,3.017,4.326,3.168
			C202.648,177.489,203.369,177.549,204.084,177.889z"/>
		<path fill="#196DAF" d="M204.454,96.751c1.236-0.006,1.636,0.357,1.593,1.599c-0.157,4.532,0.188,9.07-0.182,13.602
			c-0.933,0.012-1.866,0.024-2.793,0.042c-0.83-0.024-1.654-0.055-2.478-0.055c-21.151-0.006-42.308-0.006-63.465-0.006
			c-0.412,0-0.83-0.042-1.236,0.006c-1.121,0.151-1.424-0.364-1.375-1.412c0.061-1.472-0.012-2.945-0.024-4.417
			c1.787-2.932,2.29-6.022,1.145-9.312C158.577,96.793,181.516,96.793,204.454,96.751z M184.327,104.324
			c0.212-0.236,0.721-0.661,0.23-1.03c-0.399-0.291-0.884-0.157-1.242,0.267c-0.17,0.206-0.267,0.54-0.661,0.455
			c-0.297-0.479-0.109-1.024-0.188-1.539c-0.055-0.406,0.242-1.048-0.509-1.078c-0.642-0.03-0.872,0.394-0.951,1.012
			c-0.066,0.582,0.357,1.314-0.424,1.727c-0.788-1.327-1.909-1.242-2.987-0.527c-0.884,0.587-0.927,2.714-0.048,3.35
			c1.018,0.746,2.145,0.927,3.005-0.363c0.551,0.279,1.151,1.375,1.636,0.654c0.66-0.976,0.782-0.685,1.314-0.018
			c0.261,0.327,0.849,0.297,1.272-0.067C184.557,106.232,183.303,105.475,184.327,104.324z M176.766,105.342
			c0.018-1.321-0.473-2.169-1.909-2.181c-1.49-0.006-1.896,0.915-1.812,2.303c-0.127,1.206,0.388,1.951,1.751,1.987
			C176.256,107.487,176.753,106.669,176.766,105.342z M172.009,107.178c0.933-0.563,0.915-1.575,0.788-2.533
			c-0.121-0.927-0.606-1.502-1.618-1.496c-0.4,0-0.824,0.084-0.891-0.545c-0.048-0.485,0.309-1.363-0.751-1.163
			c-0.836,0.157-0.594,0.884-0.624,1.436c-0.024,0.467-0.006,0.939-0.006,1.575c0.146,0.836-0.515,2.115,0.4,2.793
			C169.998,107.753,171.167,107.681,172.009,107.178z M167.211,105.718c0.557-0.097,1.375,0.278,1.351-0.848
			c-0.018-0.915-0.418-1.448-1.272-1.636c-0.927-0.2-1.92-0.115-2.187,0.909c-0.261,1.03-0.582,2.302,0.606,3.035
			c0.763,0.479,1.696,0.4,2.55,0.073c0.285-0.103,0.279-0.424,0.182-0.6c-0.442-0.794-1.315-0.03-1.872-0.479
			c-0.042-0.03-0.049-0.103-0.079-0.157C166.617,105.639,166.944,105.76,167.211,105.718z M164.6,106.936
			c0.133-0.782-0.479-0.648-0.915-0.624c-0.721,0.042-0.896-0.333-0.884-0.963c0.012-0.606,0.151-1.048,0.878-0.988
			c0.473,0.037,1.06,0.133,0.909-0.612c-0.133-0.667-0.788-0.551-1.2-0.594c-1.629,0.061-2.018,0.963-1.999,2.351
			c0.024,1.454,0.739,2.018,2.072,1.951C163.878,107.438,164.484,107.602,164.6,106.936z M160.771,107.287
			c0.491-0.084,0.503-2.944,0.012-3.496c-0.727-0.818-1.733-0.745-2.599-0.43c-0.479,0.169-0.43,0.793,0.182,1.018
			c0.375,0.14,0.836-0.03,1.182,0.321c-0.079,0.073-0.152,0.188-0.243,0.212c-0.703,0.182-1.618,0.006-1.769,1.079
			c-0.073,0.497-0.006,1.03,0.466,1.236C158.892,107.626,159.862,107.457,160.771,107.287z M157.032,102.47
			c0.672-0.206,0.945-0.715,0.37-1.115c-0.515-0.352-1.363-0.249-1.733,0.363c-0.37,0.618-0.945,1.793-0.842,1.939
			c0.818,1.103,0.381,2.369,0.697,3.508c0.03,0.109,0.266,0.17,0.321,0.2c0.77,0.061,1.066-0.437,0.854-0.867
			c-0.654-1.314,1.769-2.454,0.164-3.769C156.863,102.7,156.959,102.495,157.032,102.47z"/>
		<path fill="#F1F2F3" d="M206.041,128.595c-0.006,1.848-0.018,3.696-0.024,5.538c-0.636-0.394-1.272-0.788-1.908-1.182
			c0.945-1.72,0.491-2.859-1.363-2.89c-5.598-0.079-11.196-0.091-16.795,0.012c-2.217,0.042-2.69,0.6-2.508,2.896
			c0.164,2.108-0.042,4.199-0.048,6.295c0,3.805-1.575,5.895-5.253,6.949c-0.563,0.158-1.175,0.182-1.478,0.806
			c-1.66-0.303-3.242-0.909-4.944-1.115c-0.794-0.097-1.569-0.139-2.333-0.139v-1.412c0.764,0,1.527,0,2.291,0
			c1.702-0.006,3.405-0.073,5.101-0.194c2.751-0.188,4.853-2.915,4.138-5.302c0.661-3.023,0.261-6.089,0.345-9.136
			c0.037-1.194-0.03-2.296,1.69-1.285c0.412,0.243,1.036,0.158,1.557,0.158C191.688,128.601,198.868,128.595,206.041,128.595z"/>
		<path fill="#FEFEFE" d="M206.041,128.595c-7.173,0-14.353,0.006-21.533,0c-0.521,0-1.145,0.085-1.557-0.158
			c-1.721-1.012-1.654,0.091-1.69,1.285c-0.084,3.047,0.315,6.113-0.345,9.136c-0.587,0.594-1.181,1.182-1.769,1.775
			c-14.856,0.775-29.724,0.139-44.58,0.345c-0.606,0-1.206,0-1.806,0c-1.387-0.006-2.769-0.012-4.156-0.018
			c-0.151-0.036-0.303-0.073-0.455-0.109c-1.999-0.346-3.999-0.394-5.992,0.036l-0.012,0.091c-0.352-0.03-0.697-0.066-1.048-0.103
			c-0.121,0-0.242,0-0.37,0c-1.302,0.097-0.981-0.884-0.987-1.569c-0.042-3.569-0.042-7.137-0.061-10.706
			c0.945-4.126,1.46-4.501,5.883-4.556c3.248-0.042,3.005,0.545,3.011-3.029c0.006-3.714,0.012-7.428,0.012-11.142
			c1.448-0.497,2.848-1.103,4.156-1.896c0.006,4.774,0.006,9.555,0.036,14.329c0.006,0.648-0.272,1.594,0.812,1.636
			c1.242,0.049,0.927-0.987,0.939-1.678c0.037-2.181,0.006-4.368,0.012-6.549c0.006-2.229,0.085-2.32,2.26-2.32
			c20.339,0,40.678,0,61.023-0.006c0.83,0,1.648,0.03,2.412,0.412c-2.381,3.642-2.09,6.901,0.8,9.221
			c1.375,1.097,2.975,1.303,4.647,1.297C206.435,125.693,205.89,127.171,206.041,128.595z M178.71,123.27
			c0.036-0.873-0.643-1.03-1.339-1.03c-8.137-0.006-16.273-0.006-24.41,0c-0.745,0-1.587,0.169-1.551,1.054
			c0.03,0.896,0.939,0.697,1.545,0.703c4.072,0.018,8.137,0.012,12.208,0.012c4.065,0,8.137,0.006,12.202-0.012
			C177.923,123.997,178.68,124.142,178.71,123.27z M174.791,133.539c0.678-0.048,1.133-0.352,1.115-1.09
			c-0.024-0.643-0.442-0.939-1.036-0.988c-0.467-0.036-0.939-0.024-1.412-0.024c-5.477-0.006-10.954-0.006-16.431,0
			c-5.774,0-11.542,0-17.316,0c-0.788,0-1.727,0.061-1.763,1.024c-0.036,0.994,0.891,1.079,1.69,1.097c0.236,0.006,0.473,0,0.703,0
			c11.129,0,22.266,0,33.395,0C174.087,133.557,174.439,133.563,174.791,133.539z M166.684,119.004
			c0.012-0.988-0.793-1.018-1.521-1.024c-2.06-0.006-4.114,0-6.174,0c-2.054,0-4.108,0.006-6.168-0.006
			c-0.696,0-1.405,0.115-1.448,0.927c-0.055,0.891,0.672,1.181,1.436,1.181c4.114,0.019,8.222,0.024,12.335,0
			C165.86,120.077,166.666,119.938,166.684,119.004z M166.338,136.835c0.055-1.109-0.806-1.139-1.6-1.139
			c-2.175-0.006-4.356-0.006-6.537-0.006c-5.829,0-11.657-0.012-17.485,0.012c-1.054,0.006-2.696-0.321-2.72,1.139
			c-0.024,1.539,1.618,0.933,2.557,0.952c3.829,0.061,7.658,0.024,11.487,0.024c4.235,0,8.476,0,12.717-0.006
			C165.478,137.811,166.284,137.816,166.338,136.835z M155.657,128.147c0.085-0.994-0.86-1.248-1.599-1.254
			c-4.932-0.048-9.864-0.042-14.795-0.024c-0.775,0.006-1.454,0.4-1.406,1.254c0.049,0.866,0.842,0.836,1.491,0.842
			c2.466,0.006,4.938,0.006,7.403,0.006c2.406,0,4.817,0.012,7.222-0.006C154.651,128.958,155.578,129.116,155.657,128.147z
			 M146.757,124.021c1.26,0.103,1.66-0.455,1.611-1.654c-0.066-1.884-0.061-3.774,0-5.665c0.037-1.121-0.351-1.605-1.526-1.563
			c-1.824,0.061-3.654,0.012-5.483,0.012c-4.702,0-4.702,0-4.702,4.732c0,4.156,0,4.156,4.248,4.114c1.066,0,2.132,0,3.199,0.006
			C144.988,124.003,145.878,123.948,146.757,124.021z M134.809,137.708c0.036-3.417,0.066-6.84,0.066-10.257
			c0-1.054-0.83-0.963-1.533-0.969c-2.775-0.006-5.55,0.061-8.318-0.024c-1.375-0.042-1.884,0.382-1.848,1.806
			c0.091,3.181,0.024,6.368,0.019,9.554c-0.182,1.109,0.696,0.667,1.108,0.679c2.569,0.042,5.138,0.042,7.707,0.006
			c0.849-0.012,1.763,0.273,2.539-0.345C134.64,138.004,134.809,137.859,134.809,137.708z"/>
		<path fill="#F6F7F7" d="M205.568,142.736c0.194,0.521-0.151,0.739-0.551,0.909c-0.375,0.157-0.757,0.345-1.157,0.418
			c-1.272,0.236-2.951,1.775-3.647,0.77c-1.163-1.678-2.229-3.799-1.303-6.125c0.279-0.69,0.739-1.381,0.358-2.193
			c-0.2-0.424-0.182-0.824,0.278-1.054c0.527-0.267,0.885,0.091,1.218,0.43c0.122,0.127,0.285,0.285,0.291,0.437
			c0.091,1.963,0.836,2.429,2.781,1.672c1.151-0.448,0.806,1.157,1.133,1.763C205.417,140.622,205.393,141.73,205.568,142.736z"/>
		<path fill="#DAE2E4" d="M203.072,111.995c-0.945,0.6-1.89,1.199-2.835,1.805c-0.764-0.382-1.582-0.412-2.412-0.412
			c-20.345,0.006-40.684,0.006-61.023,0.006c-2.175,0-2.254,0.091-2.26,2.32c-0.006,2.181,0.024,4.368-0.012,6.549
			c-0.012,0.691,0.303,1.727-0.939,1.678c-1.084-0.042-0.806-0.987-0.812-1.636c-0.03-4.774-0.03-9.554-0.036-14.329
			c0.582-0.624,1.169-1.242,1.751-1.866c0.012,1.472,0.084,2.945,0.024,4.417c-0.048,1.048,0.255,1.563,1.375,1.412
			c0.406-0.048,0.824-0.006,1.236-0.006c21.157,0,42.314,0,63.465,0.006C201.418,111.94,202.242,111.97,203.072,111.995z"/>
		<path fill="#DAE2E4" d="M202.418,190.466c0.018,1.157-1.018,1.127-1.83,1.139c-2.357,0.03-4.714,0.012-7.077,0.012
			c-2.357,0-4.714-0.006-7.071,0c-0.878,0-1.823-0.14-1.842-1.188c-0.024-1.127,1.018-0.927,1.745-0.927
			c4.774-0.018,9.548-0.018,14.323-0.006C201.418,189.497,202.406,189.37,202.418,190.466z"/>
		<path fill="#F6F7F7" d="M199.546,145.771c0.152,0.733-0.848,0.794-1.405,1.054c-0.661,0.315-0.994-0.066-1.194-0.606
			c-0.406-1.09-0.812-2.187-1.133-3.302c-0.406-1.399,0.903-1.182,1.478-1.545c0.4-0.048,0.739-0.012,0.849,0.285
			C198.649,143.015,199.255,144.36,199.546,145.771z"/>
		<path fill="#F63F73" d="M186.06,166.928c3.738,2.527,4.834,5.871,3.017,9.149c-1.497,2.69-5.671,4.847-9.9,1.703
			c-2.181-2.266-2.654-4.859-1.484-7.761c0.169-0.303,0.339-0.606,0.515-0.909C180.358,166.704,182.976,165.971,186.06,166.928z
			 M186.956,173.769c0.558-0.77,0.612-1.648,0.085-2.459c-0.533-0.812-1.339-1.206-2.266-0.733
			c-0.642,0.327-0.933,0.085-1.296-0.375c-0.576-0.721-1.333-0.915-2.175-0.503c-0.872,0.43-1.236,1.193-1.302,2.005
			c0.236,1.763,1.126,3.047,2.199,4.229c0.267,0.291,0.587,0.333,0.963,0.212C184.636,175.683,186.017,175.059,186.956,173.769z"/>
		<path fill="#FEFAFC" d="M187.041,171.309c0.527,0.812,0.473,1.69-0.085,2.459c-0.939,1.291-2.32,1.915-3.792,2.375
			c-0.376,0.121-0.697,0.079-0.963-0.212c-1.073-1.182-1.963-2.466-2.199-4.229c0.066-0.812,0.43-1.575,1.302-2.005
			c0.842-0.412,1.6-0.218,2.175,0.503c0.363,0.46,0.654,0.703,1.296,0.375C185.702,170.103,186.508,170.497,187.041,171.309z"/>
		<path fill="#DAE2E4" d="M181.97,151.024c3.926,4.368,5.556,9.373,4.55,15.189c-0.042,0.254-0.303,0.479-0.46,0.715
			c-3.084-0.957-5.701-0.224-7.852,2.181c-0.212-0.418-0.636-0.909-0.327-1.309c0.975-1.254,0.254-2.787,0.757-4.187
			c0.303-0.842-0.006-2.175,0.127-3.308c0.097-0.872-0.509-1.248-1.345-1.254c-1.061-0.006-2.127-0.067-3.187,0.006
			c-1.479,0.097-1.927-0.23-1.157-1.745c1.145-2.248,0.909-3.72-0.479-5.004c-0.394-0.364-0.782-0.788-1.381-0.533
			c-0.594,0.254-0.963,0.757-0.891,1.399c0.206,1.812-0.83,2.975-1.987,4.12c-1.309,1.303-2.024,2.842-1.951,4.75
			c0.073,1.939,0.091,3.896-0.012,5.835c-0.079,1.593,0.454,2.235,2.114,2.181c3.066-0.103,6.137-0.042,9.203-0.042
			c-1.169,2.902-0.697,5.495,1.484,7.761c-2.611,0.987-5.035,2.387-7.973,2.593c-3.962,0.273-7.543-0.527-10.924-2.502
			c-0.297-0.176-0.636-0.285-0.951-0.424c-0.679-1.127-1.884-1.648-2.835-2.466c-0.315-1.569-0.854-2.884-2.248-3.993
			c-1.46-1.163-1.672-3.235-1.884-4.999c-0.267-2.308-0.394-4.683,0.249-6.998c4.132-1.63,5.647-4.744,4.92-8.785
			c0.363-0.2,0.763-0.345,1.078-0.594c3.235-2.569,6.81-3.847,10.778-3.847c0.764,0,1.539,0.042,2.333,0.139
			c1.702,0.206,3.284,0.812,4.944,1.115C178.389,148.407,180.437,149.322,181.97,151.024z M164.993,162.778
			c0.037-1.097-0.418-1.654-1.557-1.605c-0.648,0.024-1.291,0.018-1.939,0c-1.048-0.019-1.472,0.509-1.466,1.527
			c0.018,2.405,0,4.816,0.006,7.222c0.006,0.539,0.042,1.054,0.6,1.369c2.09,1.157,4.35-0.145,4.356-2.52
			c0-0.818,0-1.642-0.006-2.466C164.987,165.129,164.963,163.954,164.993,162.778z"/>
		<path fill="#E4E8E9" d="M184.557,103.294c0.491,0.37-0.018,0.794-0.23,1.03c-1.024,1.151,0.23,1.908,0.448,2.841
			c-0.424,0.364-1.012,0.394-1.272,0.067c-0.533-0.667-0.654-0.958-1.314,0.018c-0.485,0.721-1.084-0.375-1.636-0.654
			c0.012-0.818,0.018-1.636,0.03-2.46c0.781-0.412,0.357-1.145,0.424-1.727c0.079-0.618,0.309-1.042,0.951-1.012
			c0.751,0.03,0.455,0.672,0.509,1.078c0.079,0.515-0.109,1.061,0.188,1.539c0.394,0.085,0.491-0.249,0.661-0.455
			C183.672,103.137,184.157,103.003,184.557,103.294z"/>
		<path fill="#DAE2E4" d="M180.17,189.122c1.048-0.037,1.484,0.357,1.472,1.436c-0.042,2.89-0.036,5.78-0.006,8.664
			c0.012,1.006-0.357,1.121-1.157,0.679c-0.618-0.339-1.26-0.643-1.896-0.951c-1.072-0.527-1.515-1.466-1.06-2.484
			c0.6-1.351,0.291-2.653,0.194-3.98c-0.103-1.314-1.042-1.866-2.181-1.842c-1.048,0.03-1.945,0.588-2.024,1.818
			c-0.084,1.327-0.46,2.641,0.194,3.974c0.382,0.782,0.176,1.708-0.605,2.206c-0.933,0.587-1.873,1.303-3.029,1.327
			c-0.479,0.006-0.46-0.606-0.467-1.012c-0.006-2.83,0.018-5.659-0.012-8.488c-0.012-0.994,0.418-1.369,1.381-1.345
			c1.594,0.036,3.187,0.012,4.774,0.012C177.22,189.133,178.698,189.17,180.17,189.122z"/>
		<path fill="#E4E8E9" d="M180.916,138.858c0.715,2.387-1.387,5.114-4.138,5.302c-1.696,0.121-3.399,0.188-5.101,0.194
			c-0.764,0-1.527,0-2.291,0c-10.384,0.018-20.775,0.012-31.166,0.006c-0.636,0-1.297,0.139-1.909-0.182
			c0-0.606,0.194-1.024,0.891-1.061c0.818-0.042,1.636-0.182,2.454-0.182c9.694-0.012,19.381-0.042,29.069,0.012
			c2.987,0.018,5.986,0.539,8.9-0.521c0.836-0.303,1.945-0.412,1.521-1.793C179.734,140.04,180.328,139.452,180.916,138.858z"/>
		<path fill="#F6F7F7" d="M180.583,104.136c-0.012,0.824-0.019,1.642-0.03,2.46c-0.86,1.291-1.987,1.109-3.005,0.363
			c-0.878-0.636-0.836-2.763,0.048-3.35C178.674,102.894,179.795,102.81,180.583,104.136z M179.468,105.421
			c0-0.4,0.061-0.891-0.467-0.97c-0.606-0.097-0.582,0.418-0.569,0.812c0.006,0.37-0.146,0.896,0.424,0.969
			C179.431,106.312,179.443,105.833,179.468,105.421z"/>
		<path fill="#196DAF" d="M179.001,104.451c0.527,0.079,0.467,0.57,0.467,0.97c-0.024,0.412-0.037,0.891-0.612,0.812
			c-0.569-0.073-0.418-0.6-0.424-0.969C178.419,104.87,178.395,104.354,179.001,104.451z"/>
		<path fill="#DAE2E4" d="M179.146,140.634c0.424,1.381-0.685,1.49-1.521,1.793c-2.915,1.06-5.914,0.539-8.9,0.521
			c-9.688-0.055-19.375-0.024-29.069-0.012c-0.818,0-1.636,0.139-2.454,0.182c-0.697,0.037-0.891,0.455-0.891,1.061
			c-0.491-0.03-0.957-0.03-1.291,0.127l-1.108-0.557c0.242,0,0.442-0.079,0.472-0.521c0.055-0.751,0.122-1.497,0.182-2.248
			C149.422,140.773,164.291,141.409,179.146,140.634z"/>
		<path fill="#DAE2E4" d="M177.432,86.821c0.891,0,1.721,0.109,1.697,1.272c-0.024,1.097-0.709,1.563-1.733,1.563
			c-4.835,0.006-9.664,0-14.492,0.006c-0.988,0-1.648-0.466-1.636-1.436c0.019-0.975,0.685-1.417,1.672-1.412
			c2.472,0.018,4.95,0.006,7.422,0.006C172.718,86.821,175.075,86.821,177.432,86.821z"/>
		<path fill="#FEFEFE" d="M177.42,159.052c0.836,0.006,1.442,0.382,1.345,1.254c-0.133,1.133,0.176,2.466-0.127,3.308
			c-0.503,1.399,0.218,2.933-0.757,4.187c-0.309,0.4,0.115,0.891,0.327,1.309c-0.176,0.303-0.346,0.606-0.515,0.909
			c-3.066,0-6.137-0.061-9.203,0.042c-1.66,0.055-2.193-0.587-2.114-2.181c0.103-1.939,0.084-3.896,0.012-5.835
			c-0.073-1.908,0.643-3.447,1.951-4.75c1.157-1.145,2.193-2.308,1.987-4.12c-0.073-0.642,0.297-1.145,0.891-1.399
			c0.6-0.255,0.987,0.169,1.381,0.533c1.387,1.284,1.624,2.756,0.479,5.004c-0.77,1.515-0.321,1.842,1.157,1.745
			C175.293,158.985,176.359,159.046,177.42,159.052z"/>
		<path fill="#DAE2E4" d="M177.371,122.24c0.697,0,1.375,0.157,1.339,1.03c-0.03,0.873-0.788,0.727-1.345,0.727
			c-4.065,0.018-8.137,0.012-12.202,0.012c-4.071,0-8.137,0.006-12.208-0.012c-0.605-0.006-1.515,0.194-1.545-0.703
			c-0.036-0.885,0.806-1.054,1.551-1.054C161.098,122.233,169.234,122.233,177.371,122.24z"/>
		<path fill="#F6F7F7" d="M174.857,103.161c1.436,0.012,1.927,0.86,1.909,2.181c-0.012,1.327-0.509,2.145-1.969,2.108
			c-1.363-0.036-1.878-0.781-1.751-1.987C172.96,104.076,173.367,103.155,174.857,103.161z M175.475,105.457
			c0.042-0.466,0.042-0.951-0.685-1.151c-0.328,0.151-0.533,0.466-0.54,0.902c-0.012,0.455-0.091,1.012,0.563,1.084
			C175.378,106.354,175.438,105.863,175.475,105.457z"/>
		<path fill="#DAE2E4" d="M175.905,132.449c0.018,0.739-0.437,1.042-1.115,1.09c-0.352,0.024-0.703,0.018-1.055,0.018
			c-11.129,0-22.266,0-33.395,0c-0.23,0-0.467,0.006-0.703,0c-0.8-0.018-1.727-0.103-1.69-1.097
			c0.037-0.963,0.976-1.024,1.763-1.024c5.774,0,11.542,0,17.316,0c5.477-0.006,10.954-0.006,16.431,0
			c0.473,0,0.945-0.012,1.412,0.024C175.463,131.509,175.881,131.806,175.905,132.449z"/>
		<path fill="#7173AB" d="M174.791,104.306c0.727,0.2,0.727,0.685,0.685,1.151c-0.037,0.406-0.097,0.897-0.661,0.836
			c-0.654-0.072-0.576-0.63-0.563-1.084C174.257,104.772,174.463,104.458,174.791,104.306z"/>
		<path fill="#DAE2E4" d="M175.22,213.671c0.915,3.163-0.685,6.598-3.604,7.664c-2.812,1.024-6.417-0.364-7.531-2.896
			c-1.448-3.296-0.327-6.622,2.793-8.294c0.309-0.169,0.624-0.327,0.939-0.485c1.424,0.037,2.866-0.127,4.253,0.364
			C173.378,211.023,174.724,211.957,175.22,213.671z M172.088,218.536c1.012-1.339,1.012-4.241-0.006-5.332
			c-1.072-1.345-3.459-1.502-5.326-0.352c-0.806,1.048-1.097,4.284-0.321,5.271c0.981,1.26,2.459,1.169,3.847,1
			C170.889,219.051,171.579,219.003,172.088,218.536z"/>
		<path fill="#F1F2F3" d="M172.797,104.645c0.127,0.958,0.146,1.969-0.788,2.533c-0.842,0.503-2.011,0.576-2.702,0.067
			c-0.915-0.679-0.254-1.957-0.4-2.793c0-0.636-0.018-1.108,0.006-1.575c0.03-0.551-0.212-1.278,0.624-1.436
			c1.06-0.2,0.703,0.678,0.751,1.163c0.067,0.63,0.491,0.545,0.891,0.545C172.191,103.143,172.676,103.718,172.797,104.645z
			 M171.337,105.603c0-0.436,0.182-0.969-0.485-1.193c-0.406,0.024-0.594,0.297-0.539,0.685c0.061,0.406-0.297,1.018,0.394,1.157
			C171.119,106.335,171.337,105.996,171.337,105.603z"/>
		<path fill="#F6F7F7" d="M172.082,213.205c1.018,1.091,1.018,3.993,0.006,5.332l-0.036-0.03c0.388-1.763,0.606-3.526,0.012-5.289
			L172.082,213.205z"/>
		<path fill="#DAE2E4" d="M172.064,213.217c0.594,1.763,0.375,3.526-0.012,5.289c-6.265,0.006-5.21,0.582-5.283-5.289
			c0-0.115,0-0.23,0-0.352C168.532,213.011,170.337,212.502,172.064,213.217z"/>
		<path fill="#F6F7F7" d="M172.052,218.506l0.036,0.03c-0.509,0.467-1.199,0.515-1.805,0.588c-1.388,0.169-2.866,0.26-3.847-1
			c-0.776-0.988-0.485-4.223,0.321-5.271l0.012,0.012c0,0.121,0,0.236,0,0.352C166.841,219.087,165.787,218.512,172.052,218.506z"/>
		<path fill="#F6F7F7" d="M172.082,213.205l-0.018,0.012c-1.727-0.715-3.532-0.206-5.295-0.352l-0.012-0.012
			C168.623,211.702,171.01,211.859,172.082,213.205z"/>
		<path fill="#196DAF" d="M170.852,104.409c0.667,0.224,0.485,0.757,0.485,1.193c0,0.394-0.218,0.733-0.63,0.648
			c-0.69-0.14-0.333-0.751-0.394-1.157C170.258,104.706,170.446,104.433,170.852,104.409z"/>
		<path fill="#F1F2F3" d="M169.386,144.354v1.412c-3.968,0-7.543,1.278-10.778,3.847c-0.315,0.249-0.715,0.394-1.078,0.594
			c-0.963-2.145-2.2-3.95-4.659-4.671c-1.836-0.545-3.563-0.267-5.32,0.182c-3.744-0.042-7.488-0.079-11.232-0.121
			c-0.006-0.473-0.006-0.945-0.006-1.417c0.612,0.321,1.272,0.182,1.909,0.182C148.611,144.366,159.001,144.372,169.386,144.354z"/>
		<path fill="#F6F7F7" d="M168.562,104.87c0.024,1.126-0.794,0.751-1.351,0.848c-0.267,0.042-0.594-0.079-0.721,0.297
			c0.03,0.054,0.037,0.127,0.079,0.157c0.557,0.449,1.43-0.315,1.872,0.479c0.097,0.175,0.103,0.497-0.182,0.6
			c-0.854,0.327-1.787,0.406-2.55-0.073c-1.188-0.733-0.867-2.005-0.606-3.035c0.267-1.024,1.26-1.109,2.187-0.909
			C168.144,103.421,168.544,103.955,168.562,104.87z"/>
		<path fill="#DAE2E4" d="M165.163,117.98c0.727,0.006,1.533,0.036,1.521,1.024c-0.018,0.933-0.824,1.072-1.539,1.078
			c-4.114,0.024-8.222,0.019-12.335,0c-0.764,0-1.491-0.291-1.436-1.181c0.042-0.812,0.751-0.927,1.448-0.927
			c2.06,0.012,4.114,0.006,6.168,0.006C161.049,117.98,163.103,117.974,165.163,117.98z"/>
		<path fill="#DAE2E4" d="M166.411,200.106c0,1.06,0,2.12,0.006,3.181c-0.006,0.594-0.006,1.188-0.006,1.781
			c-0.709,0.006-1.424,0.018-2.139,0.024c-9.221-0.006-18.449-0.012-27.676-0.024c-3.017,0-3.817-0.818-3.823-3.89
			c0-0.885-0.006-1.763-0.006-2.648l1.727-0.006c0,1.212,0.606,1.648,2.084,1.63c8.761-0.079,17.528-0.037,26.289-0.037
			C164.048,200.597,165.229,199.857,166.411,200.106z"/>
		<path fill="#F6F7F7" d="M166.145,189.061c0.394,0.23,0.23,0.745,0.261,1.145c-0.037,0.036-0.103,0.079-0.097,0.103
			c0.018,0.084,0.061,0.164,0.097,0.248c0,0.352,0,0.709,0,1.061c-0.594,0.079-0.963,0.388-1.036,1.006
			c-0.303,2.678-0.551,5.368-2.502,7.494c-8.761,0-17.528-0.042-26.289,0.037c-1.478,0.018-2.084-0.418-2.084-1.63
			c0-0.151,0.012-0.315,0.03-0.491c0.103-0.933,0.018-1.878,0.018-2.823c0.006-2.902,1.03-4.047,4.047-4.09
			c4.041-0.054,8.088-0.206,12.129,0.164c0.254,0.818,0.509,1.642,0.763,2.46c-4.489,0.121-8.979,0.291-13.475,0.327
			c-1.848,0.018-1.654,1.175-1.708,2.381c-0.061,1.267,0.2,1.933,1.721,1.921c7.768-0.067,15.535-0.048,23.302-0.012
			c1.327,0.006,1.872-0.418,1.945-1.817c0.079-1.473,0.375-2.938,0.654-4.399c0.042-0.212,0.085-0.418,0.121-0.63
			c0.14-0.751,0.442-1.466,1.079-1.975C165.43,189.297,165.69,188.8,166.145,189.061z"/>
		<path fill="#F1F2F3" d="M166.405,191.618c0,2.829,0.006,5.659,0.006,8.488c-1.182-0.249-2.363,0.491-3.544,0.012
			c1.951-2.126,2.199-4.816,2.502-7.494C165.442,192.005,165.812,191.696,166.405,191.618z"/>
		<path fill="#F1F2F3" d="M166.405,190.206c0,0.115,0,0.23,0,0.351c-0.037-0.084-0.079-0.164-0.097-0.248
			C166.302,190.285,166.369,190.242,166.405,190.206z"/>
		<path fill="#DAE2E4" d="M164.739,135.696c0.794,0,1.654,0.03,1.6,1.139c-0.055,0.981-0.86,0.976-1.581,0.976
			c-4.241,0.006-8.482,0.006-12.717,0.006c-3.829,0-7.658,0.037-11.487-0.024c-0.939-0.019-2.581,0.587-2.557-0.952
			c0.024-1.46,1.666-1.133,2.72-1.139c5.829-0.024,11.657-0.012,17.485-0.012C160.383,135.69,162.564,135.69,164.739,135.696z"/>
		<path fill="#FEFEFE" d="M163.437,161.173c1.139-0.049,1.593,0.509,1.557,1.605c-0.03,1.175-0.006,2.351-0.006,3.526
			c0.006,0.824,0.006,1.648,0.006,2.466c-0.006,2.375-2.266,3.677-4.356,2.52c-0.558-0.315-0.594-0.83-0.6-1.369
			c-0.006-2.405,0.012-4.816-0.006-7.222c-0.006-1.018,0.418-1.545,1.466-1.527C162.146,161.191,162.788,161.197,163.437,161.173z"
			/>
		<path fill="#F1F2F3" d="M163.685,106.312c0.437-0.024,1.048-0.158,0.915,0.624c-0.115,0.667-0.721,0.503-1.139,0.521
			c-1.333,0.066-2.048-0.497-2.072-1.951c-0.019-1.387,0.37-2.29,1.999-2.351c0.412,0.042,1.066-0.073,1.2,0.594
			c0.151,0.745-0.436,0.648-0.909,0.612c-0.727-0.061-0.866,0.382-0.878,0.988C162.788,105.978,162.964,106.354,163.685,106.312z"/>
		<path fill="#FEFEFE" d="M162.406,191.896l1.515,0.248c-0.279,1.46-0.576,2.926-0.654,4.399c-0.073,1.399-0.618,1.823-1.945,1.817
			c-7.767-0.036-15.534-0.055-23.302,0.012c-1.521,0.012-1.781-0.654-1.721-1.921c0.055-1.206-0.139-2.363,1.708-2.381
			c4.496-0.036,8.985-0.206,13.475-0.327c3.211,4.526,8.803,3.181,10.481-0.551C162.158,192.757,162.31,192.327,162.406,191.896z"/>
		<path fill="#196DAF" d="M158.977,185.202c2.848,1.823,4.011,4.156,3.429,6.695c-0.097,0.43-0.249,0.86-0.442,1.296
			c-1.678,3.732-7.27,5.077-10.481,0.551c-0.254-0.818-0.509-1.642-0.763-2.46c0.024-1.351,0.188-2.666,0.927-3.841
			c2.042,0.103,3.714-0.442,4.49-2.563C157.117,184.687,158.044,184.971,158.977,185.202z M159.722,191.848
			c0.788-0.375,0.133-1.291-0.103-1.872c-0.267-0.66-0.018-2.084-1.466-1.502c-0.86,0.345-1.291,0.412-1.333-0.691
			c-0.012-0.436-0.357-0.745-0.818-0.781c-0.224-0.024-0.558,0.103-0.479,0.37c0.412,1.339-0.77,2.793,0.309,4.065
			c-0.715-0.188-1.454-0.982-2.126,0.036c-0.249,0.375,0.8,2.866,1.254,2.957c1.399,0.279,1.139-0.994,1.508-1.678
			C157.844,193.556,158.729,192.308,159.722,191.848z"/>
		<path fill="#E4E8E9" d="M160.783,103.791c0.491,0.551,0.479,3.411-0.012,3.496c-0.909,0.17-1.878,0.339-2.769-0.061
			c-0.472-0.206-0.539-0.739-0.466-1.236c0.151-1.072,1.066-0.896,1.769-1.079c0.091-0.024,0.164-0.139,0.243-0.212
			c-0.346-0.352-0.806-0.182-1.182-0.321c-0.612-0.224-0.661-0.848-0.182-1.018C159.05,103.046,160.056,102.973,160.783,103.791z"/>
		<path fill="#F1F2F3" d="M159.619,189.976c0.236,0.582,0.891,1.497,0.103,1.872c-0.994,0.46-1.878,1.708-3.253,0.903
			c-0.212-0.436-0.424-0.873-0.636-1.314c-1.078-1.272,0.103-2.727-0.309-4.065c-0.079-0.267,0.254-0.394,0.479-0.37
			c0.46,0.036,0.806,0.345,0.818,0.781c0.042,1.103,0.473,1.036,1.333,0.691C159.601,187.892,159.353,189.315,159.619,189.976z"/>
		<path fill="#F1F2F3" d="M159.329,177.446c-0.751,2.557-0.182,5.174-0.352,7.755c-0.933-0.23-1.86-0.515-2.841-0.321
			c-0.03-3.308-0.024-6.61,0.357-9.9C157.444,175.798,158.65,176.319,159.329,177.446z"/>
		<path fill="#196DAF" d="M157.529,150.207c0.727,4.041-0.788,7.155-4.92,8.785c-4.75,0.418-7.761-1.394-8.7-5.235
			c-0.491-2-0.006-3.835,0.951-5.586c0.897-0.818,1.793-1.636,2.69-2.454c1.757-0.448,3.484-0.727,5.32-0.182
			C155.33,146.256,156.566,148.062,157.529,150.207z M154.342,152.866c1.06-1.957-1.024-1.593-1.799-2.169
			c0.267-0.703,0.842-1.266,0.6-2.023c-0.085-0.261-0.279-0.527-0.497-0.679c-0.115-0.073-0.533,0.048-0.594,0.182
			c-0.757,1.648-2.732,2.49-2.993,4.459c-0.006,0-0.012,0.006-0.012,0.006c-0.03-0.164-0.109-0.339-0.073-0.485
			c0.224-0.836-0.018-1.327-0.915-1.515c-1.127-0.236-1.061,0.612-1.224,1.26c-0.146,0.57-0.224,1.157-0.412,1.703
			c-0.26,0.751-0.012,1.079,0.739,1.218c0.654,0.121,1.097,0.139,1.285-0.685c0.121-0.503-0.012-1.182,0.6-1.497
			c0.006,0.006,0.006,0.018,0.006,0.024l0.03-0.042c-0.091,2.32-0.079,2.327,3.017,2.841
			C154.257,155.817,153.797,153.872,154.342,152.866z"/>
		<path fill="#F1F2F3" d="M157.402,101.355c0.576,0.4,0.303,0.909-0.37,1.115c-0.073,0.024-0.169,0.23-0.169,0.26
			c1.605,1.315-0.818,2.454-0.164,3.769c0.212,0.43-0.085,0.927-0.854,0.867c-0.055-0.03-0.291-0.091-0.321-0.2
			c-0.315-1.139,0.121-2.405-0.697-3.508c-0.103-0.146,0.472-1.321,0.842-1.939C156.039,101.107,156.887,101.004,157.402,101.355z"
			/>
		<path fill="#DAE2E4" d="M155.833,191.436c0.212,0.442,0.424,0.878,0.636,1.314c-0.37,0.685-0.109,1.957-1.508,1.678
			c-0.455-0.091-1.503-2.581-1.254-2.957C154.378,190.454,155.118,191.248,155.833,191.436z"/>
		<path fill="#FEFEFE" d="M156.493,174.98c-0.382,3.29-0.388,6.592-0.357,9.9c-0.776,2.121-2.448,2.666-4.49,2.563
			c-5.713-0.006-11.427-0.012-17.14-0.019c-0.563,0-1.133,0-1.69,0c-1.448-0.012-2.89-0.018-4.332-0.024
			c-10.597,0.024-21.193,0.048-31.79,0.073c-0.6-0.037-1.2-0.067-1.799-0.097c-0.018-4.011-0.03-8.021-0.042-12.033
			c0.182-3.429,1.412-4.604,4.817-4.61c1-0.006,1.999-0.018,2.999-0.03c0.363-0.006,0.733-0.012,1.096-0.012
			c6.356,0,12.717,0,19.073,0c0.255-0.012,0.509-0.018,0.764-0.024c0.703,0.024,1.406,0.067,2.108,0.061
			c3.193-0.024,2.854,0.357,2.866-2.775c0.036-7.458,0.055-14.91,0.079-22.362c0.297,0,0.588,0,0.885,0
			c3.223-0.012,3.229-0.012,3.229,3.205c0.006,6.713,0.037,13.426-0.024,20.139c-0.012,1.381,0.388,1.999,1.793,1.793
			c1.454,0.218,1.89-0.164,1.848-1.835c-0.164-6.404-0.066-12.814-0.066-19.218c0-1.557,0.612-2.43,2.333-2.327
			c1.466,0.091,2.938,0.024,4.404,0.018c0.733-0.006,1.43,0.024,1.806,0.806c-0.957,1.751-1.442,3.586-0.951,5.586
			c0.939,3.841,3.95,5.653,8.7,5.235c-0.642,2.314-0.515,4.689-0.249,6.998c0.212,1.763,0.424,3.835,1.884,4.999
			C155.639,172.097,156.178,173.411,156.493,174.98z M150.337,180.076c0.455-0.133,0.794-0.545,0.745-1.078
			c-0.054-0.57-0.491-0.776-1-0.812c-0.466-0.037-0.939-0.03-1.412-0.03c-5.538,0-11.075,0-16.613,0c-5.834,0-11.669,0-17.504,0.006
			c-0.654,0-1.448-0.018-1.49,0.854c-0.036,0.854,0.642,1.188,1.424,1.248c0.352,0.03,0.703,0.018,1.06,0.018
			c11.015,0,22.036,0.006,33.05-0.006C149.18,180.276,149.786,180.239,150.337,180.076z M141.51,183.675
			c0.024-0.848-0.654-1.182-1.436-1.248c-0.176-0.012-0.357-0.012-0.533-0.012c-8.198,0-16.395-0.006-24.592,0.012
			c-0.812,0-1.866-0.061-1.896,1.072c-0.03,1.23,1.061,1.03,1.848,1.03c4.132,0.018,8.258,0.012,12.39,0.012c1.945,0,3.89,0,5.835,0
			c2.302,0,4.604,0,6.9-0.006C140.68,184.529,141.479,184.547,141.51,183.675z M130.889,174.841
			c0.042-0.854-0.636-1.249-1.418-1.254c-4.998-0.018-9.997-0.018-15.001,0.006c-0.776,0-1.454,0.4-1.4,1.254
			c0.055,0.866,0.849,0.836,1.497,0.836c2.472,0.006,4.944,0.006,7.416,0.006c2.472,0,4.938,0,7.41-0.006
			C130.047,175.683,130.841,175.708,130.889,174.841z M110.144,174.986c0.042-1.43-0.473-1.842-1.842-1.805
			c-2.884,0.084-5.774,0.061-8.664,0.012c-1.121-0.019-1.606,0.351-1.569,1.521c0.066,1.884-0.048,3.774,0.036,5.659
			c0.073,1.502-0.4,3.054,0.327,4.514c0.261,0.115,0.521,0.327,0.788,0.327c3.278,0.024,6.562,0.024,9.839,0.024
			c0.515,0.006,0.927-0.139,1.054-0.709C110.114,181.348,110.053,178.167,110.144,174.986z"/>
		<path fill="#DAE2E4" d="M154.058,126.893c0.739,0.006,1.684,0.261,1.599,1.254c-0.079,0.969-1.005,0.812-1.684,0.818
			c-2.405,0.018-4.816,0.006-7.222,0.006c-2.466,0-4.938,0-7.403-0.006c-0.648-0.006-1.442,0.024-1.491-0.842
			c-0.048-0.854,0.63-1.248,1.406-1.254C144.194,126.85,149.125,126.844,154.058,126.893z"/>
		<path fill="#F6F7F7" d="M152.543,150.697c0.775,0.576,2.859,0.212,1.799,2.169c-0.545,1.006-0.085,2.951-2.242,2.599
			c-3.096-0.515-3.108-0.521-3.017-2.841c-0.006,0.006-0.019,0.006-0.024,0.012c0.261-1.969,2.236-2.812,2.993-4.459
			c0.061-0.133,0.479-0.254,0.594-0.182c0.218,0.151,0.412,0.418,0.497,0.679C153.385,149.431,152.81,149.995,152.543,150.697z"/>
		<path fill="#DAE2E4" d="M134.506,187.425c5.713,0.006,11.426,0.012,17.14,0.019c-0.739,1.175-0.903,2.49-0.927,3.841
			c-4.041-0.37-8.088-0.218-12.129-0.164c-3.018,0.042-4.042,1.188-4.047,4.09c0,0.945,0.085,1.89-0.018,2.823
			c-0.018,0.176-0.03,0.339-0.03,0.491l-1.727,0.006c-0.006-2.054-0.012-4.114-0.018-6.167c0.085-0.485-0.479-0.976,0.012-1.454
			c0.812,0.691,1.369,0.515,1.642-0.497C134.676,189.424,134.537,188.425,134.506,187.425z"/>
		<path fill="#EDEDED" d="M144.067,60.277c3.932,0.037,7.095,3.26,7.034,7.162c-0.061,3.689-3.381,6.931-7.131,6.949
			c-3.914,0.024-6.998-3.126-6.974-7.131C137.021,63.167,139.989,60.235,144.067,60.277z M147.811,68.415
			c0.375-1.042-0.164-2.66-1.006-3.66c-0.557-0.667-1.351,0.382-2.242,0.352c-0.182-0.703-0.018-1.484-0.618-2
			c-0.369-0.315-1.145-0.576-1.084,0.006c0.206,1.909-1.078,3.914,0.339,5.726c0.357,0.46,0.279,1.551,1.139,1.278
			C145.594,69.723,147.393,69.578,147.811,68.415z M142.649,71.492c0.357-0.158,0.8-0.285,0.697-0.963
			c-0.352-0.854-0.703-1.848-1.175-2.781c-0.303-0.6-0.812-0.194-1.224-0.042c-0.406,0.151-0.757,0.351-0.533,0.896
			c0.351,0.86,0.69,1.727,1.054,2.587C141.716,71.771,142.195,71.692,142.649,71.492z"/>
		<path fill="#DAE2E4" d="M151.083,178.998c0.049,0.533-0.291,0.945-0.745,1.078c-0.551,0.164-1.157,0.2-1.739,0.2
			c-11.015,0.012-22.036,0.006-33.05,0.006c-0.357,0-0.708,0.012-1.06-0.018c-0.782-0.061-1.46-0.394-1.424-1.248
			c0.042-0.873,0.836-0.854,1.49-0.854c5.835-0.006,11.669-0.006,17.504-0.006c5.538,0,11.075,0,16.613,0
			c0.473,0,0.945-0.006,1.412,0.03C150.592,178.222,151.028,178.428,151.083,178.998z"/>
		<path fill="#F1F2F3" d="M149.083,152.624l-0.03,0.042c0-0.012,0-0.019,0.006-0.03C149.065,152.63,149.077,152.63,149.083,152.624z
			"/>
		<path fill="#F1F2F3" d="M149.059,152.636c-0.006,0.012-0.006,0.018-0.006,0.03c0-0.006,0-0.019-0.006-0.024
			C149.047,152.642,149.053,152.636,149.059,152.636z"/>
		<path fill="#F1F2F3" d="M148.06,150.643c0.896,0.188,1.139,0.679,0.915,1.515c-0.036,0.146,0.042,0.321,0.073,0.485
			c-0.612,0.315-0.479,0.994-0.6,1.497c-0.188,0.824-0.63,0.806-1.285,0.685c-0.751-0.139-1-0.466-0.739-1.218
			c0.188-0.545,0.267-1.133,0.412-1.703C146.999,151.255,146.933,150.406,148.06,150.643z"/>
		<path fill="#DAE2E4" d="M148.368,122.367c0.049,1.2-0.351,1.757-1.611,1.654c-0.878-0.073-1.769-0.018-2.654-0.018
			c-0.006-1.703,1.042-3.248,0.685-5.011c-0.291-1.454-1.175-2.139-2.599-2.048c-1.327,0.085-1.86,0.927-2,2.224
			c-0.182,1.69,0.491,3.217,0.715,4.829c-4.248,0.042-4.248,0.042-4.248-4.114c0-4.732,0-4.732,4.702-4.732
			c1.83,0,3.66,0.048,5.483-0.012c1.175-0.042,1.563,0.442,1.526,1.563C148.308,118.592,148.302,120.482,148.368,122.367z"/>
		<path fill="#196DAF" d="M146.805,64.755c0.842,1,1.381,2.617,1.006,3.66c-0.418,1.163-2.217,1.309-3.472,1.702
			c-0.86,0.273-0.782-0.818-1.139-1.278c-1.417-1.812-0.133-3.817-0.339-5.726c-0.061-0.582,0.715-0.321,1.084-0.006
			c0.6,0.515,0.437,1.296,0.618,2C145.454,65.137,146.248,64.088,146.805,64.755z"/>
		<path fill="#F6F7F7" d="M147.55,145.717c-0.896,0.818-1.793,1.636-2.69,2.454c-0.375-0.782-1.072-0.812-1.806-0.806
			c-1.466,0.006-2.938,0.073-4.404-0.018c-1.721-0.103-2.333,0.77-2.333,2.327c0,6.404-0.097,12.814,0.066,19.218
			c0.042,1.672-0.394,2.054-1.848,1.835c0.006-8.373,0.018-16.746,0.024-25.119c0.582-0.279,1.169-0.254,1.757-0.012
			C140.062,145.638,143.806,145.675,147.55,145.717z"/>
		<path fill="#F6F7F7" d="M144.788,118.992c0.357,1.763-0.69,3.308-0.685,5.011c-1.066-0.006-2.133-0.006-3.199-0.006
			c-0.225-1.611-0.897-3.138-0.715-4.829c0.14-1.297,0.673-2.139,2-2.224C143.612,116.854,144.497,117.538,144.788,118.992z"/>
		<path fill="#196DAF" d="M143.346,70.529c0.103,0.679-0.339,0.806-0.697,0.963c-0.454,0.2-0.933,0.279-1.181-0.303
			c-0.364-0.86-0.703-1.727-1.054-2.587c-0.225-0.545,0.127-0.745,0.533-0.896c0.412-0.151,0.921-0.558,1.224,0.042
			C142.643,68.681,142.994,69.674,143.346,70.529z"/>
		<path fill="#DAE2E4" d="M140.074,182.427c0.781,0.066,1.46,0.4,1.436,1.248c-0.03,0.872-0.83,0.854-1.484,0.86
			c-2.296,0.006-4.598,0.006-6.9,0.006c-1.945,0-3.89,0-5.835,0c-4.132,0-8.258,0.006-12.39-0.012c-0.788,0-1.878,0.2-1.848-1.03
			c0.03-1.133,1.084-1.072,1.896-1.072c8.197-0.019,16.395-0.012,24.592-0.012C139.717,182.415,139.898,182.415,140.074,182.427z"/>
		<path fill="#E4E8E9" d="M136.312,144.178c0,0.473,0,0.945,0.006,1.417c-0.588-0.242-1.176-0.267-1.757,0.012
			c-0.103-0.745,0.097-1.121,0.46-1.303C135.354,144.148,135.821,144.148,136.312,144.178z"/>
		<path fill="#F63F73" d="M135.639,96.799c1.145,3.29,0.642,6.38-1.145,9.312c-0.582,0.624-1.169,1.242-1.751,1.866
			c-1.309,0.793-2.708,1.399-4.156,1.896c-1.097,0-2.188,0-3.284,0c-1.454-2.915-3.769-4.593-7.028-4.932
			c-3.623-6.937,2.042-15.262,10.312-13.898c2.345,0.569,4.253,1.818,5.786,3.666C134.797,95.406,135.215,96.103,135.639,96.799z
			 M132.173,99.623c0.321-1.339-0.23-2.454-1.351-3.199c-1.169-0.776-2.417-0.673-3.405,0.278c-0.654,0.636-0.915,0.485-1.497-0.054
			c-0.891-0.824-2.048-0.951-3.132-0.388c-1.139,0.6-1.593,1.678-1.684,2.756c0.061,2.042,3.423,6.028,5.289,6.417
			c0.212,0.042,0.491,0.048,0.667-0.055C129.393,104.027,131.489,102.428,132.173,99.623z"/>
		<path fill="#DAE2E4" d="M133.913,143.748l1.108,0.557c-0.363,0.182-0.563,0.558-0.46,1.303
			c-0.006,8.373-0.018,16.746-0.024,25.119c-1.406,0.206-1.806-0.412-1.793-1.793c0.061-6.713,0.03-13.426,0.024-20.139
			c0-3.217-0.006-3.217-3.229-3.205c-0.297,0-0.588,0-0.885,0c-0.061,0.006-0.121,0.006-0.176,0.012
			c0.042-1.545,0.085-3.096,0.127-4.641c1.387,0.006,2.769,0.012,4.156,0.018c-0.309,0.691,0.073,1.375,0.024,2.066
			c-0.019,0.315-0.243,0.915,0.563,0.703C133.519,143.7,133.73,143.748,133.913,143.748z"/>
		<path fill="#DAE2E4" d="M134.875,127.45c0,3.417-0.03,6.84-0.066,10.257c0,0.151-0.169,0.297-0.261,0.448
			c-0.442-0.793-1.291-1.018-2.023-1.339c-1.66-0.727-2.217-1.824-1.497-3.532c0.448-1.066,0.412-2.175,0.146-3.296
			c-0.321-1.345-1.242-1.824-2.496-1.715c-1.242,0.109-1.878,0.891-1.915,2.127c-0.03,1.181-0.109,2.369,0.394,3.483
			c0.563,1.267-0.115,2.06-1.084,2.624c-0.909,0.527-1.915,0.878-2.877,1.309c0.006-3.187,0.072-6.374-0.019-9.554
			c-0.036-1.424,0.473-1.848,1.848-1.806c2.769,0.085,5.543,0.018,8.318,0.024C134.046,126.487,134.875,126.396,134.875,127.45z"/>
		<path fill="#B6C6D2" d="M132.761,140.979c0.6,0,1.2,0,1.806,0c-0.061,0.751-0.127,1.497-0.182,2.248
			c-0.03,0.442-0.23,0.521-0.472,0.521c-0.182,0-0.394-0.048-0.563,0c-0.806,0.212-0.582-0.388-0.563-0.703
			C132.834,142.354,132.452,141.67,132.761,140.979z"/>
		<path fill="#B6C6D2" d="M134.506,187.425c0.03,1,0.169,2-0.103,2.987c-0.273,1.012-0.83,1.188-1.642,0.497
			c-0.006-0.352-0.018-0.703-0.024-1.054c0.14-0.806-0.303-1.63,0.079-2.43C133.373,187.425,133.943,187.425,134.506,187.425z"/>
		<path fill="#F6F7F7" d="M132.525,136.817c0.733,0.321,1.582,0.545,2.023,1.339c-0.775,0.618-1.69,0.333-2.539,0.345
			c-2.569,0.037-5.138,0.037-7.707-0.006c-0.412-0.012-1.291,0.43-1.108-0.679c0.963-0.43,1.969-0.781,2.877-1.309
			c0.97-0.563,1.648-1.357,1.084-2.624c-0.502-1.115-0.424-2.302-0.394-3.483c0.036-1.236,0.672-2.018,1.915-2.127
			c1.254-0.109,2.175,0.37,2.496,1.715c0.267,1.121,0.303,2.229-0.146,3.296C130.308,134.993,130.865,136.09,132.525,136.817z"/>
		<path fill="#DAE2E4" d="M128.484,187.401c1.442,0.006,2.884,0.012,4.332,0.024c-0.382,0.8,0.061,1.624-0.079,2.43
			c-1.496,0.309-3.677-1.042-4.138,1.733c-0.03-0.224-0.061-0.455-0.085-0.679c-0.042-1.06,0.327-2.126-0.006-3.187
			C128.514,187.613,128.508,187.504,128.484,187.401z"/>
		<path fill="#E4E8E9" d="M132.737,189.854c0.006,0.352,0.019,0.703,0.024,1.054c-0.491,0.479,0.073,0.969-0.012,1.454
			c-1.369,0.006-2.732,0.006-4.096,0.012c-0.024-0.261-0.036-0.521-0.054-0.788C129.06,188.813,131.241,190.164,132.737,189.854z"/>
		<path fill="#FEFAFC" d="M130.822,96.424c1.121,0.745,1.672,1.86,1.351,3.199c-0.685,2.805-2.781,4.405-5.113,5.756
			c-0.176,0.103-0.455,0.097-0.667,0.055c-1.866-0.388-5.229-4.375-5.289-6.417c0.091-1.078,0.545-2.157,1.684-2.756
			c1.084-0.563,2.242-0.437,3.132,0.388c0.582,0.539,0.842,0.69,1.497,0.054C128.405,95.751,129.653,95.648,130.822,96.424z"/>
		<path fill="#DAE2E4" d="M129.471,173.587c0.782,0.006,1.46,0.4,1.418,1.254c-0.048,0.866-0.842,0.842-1.497,0.842
			c-2.472,0.006-4.938,0.006-7.41,0.006c-2.472,0-4.944,0-7.416-0.006c-0.648,0-1.442,0.03-1.497-0.836
			c-0.054-0.854,0.624-1.254,1.4-1.254C119.475,173.569,124.473,173.569,129.471,173.587z"/>
		<path fill="#9399C8" d="M128.653,192.375l-0.109-0.037c-4.581-0.006-9.161-0.048-13.735,0.012
			c-0.455,0.006-0.854-0.036-1.194-0.146c-0.709-0.218-1.169-0.715-1.375-1.648c4.683,0,9.367,0,14.05,0
			c0.757,0,1.527-0.054,2.224,0.352c0.024,0.224,0.055,0.455,0.085,0.679C128.617,191.854,128.629,192.114,128.653,192.375z"/>
		<path fill="#8792C4" d="M128.605,140.961c-0.042,1.545-0.085,3.096-0.127,4.641c-1.339-0.006-2.678,0.006-4.017-0.012
			c-0.897-0.012-1.442-0.133-1.727-0.479c-0.278-0.333-0.303-0.885-0.164-1.745c0.127-0.788,0.43-1.557,0.655-2.333
			c1.642-0.061,3.284-0.121,4.925-0.182C128.302,140.888,128.454,140.925,128.605,140.961z"/>
		<path fill="#8792C4" d="M128.508,187.722c0.333,1.061-0.036,2.127,0.006,3.187c-0.697-0.406-1.466-0.352-2.224-0.352
			c-4.683,0-9.367,0-14.05,0c-0.776-0.654-1.763-1.557-1.46-2.405c0.333-0.921,1.678-0.4,2.563-0.406
			C118.396,187.704,123.455,187.722,128.508,187.722z"/>
		<path fill="#BDC0DD" d="M128.563,208.636c-0.036,0.357-0.066,0.709-0.103,1.066c-1.533-0.357-2.472-1.575-3.538-2.544
			c-4.235-3.841-8.258-7.882-11.384-12.717c-0.291-0.448-0.848-0.83-0.709-1.515c0.079-0.018,0.151-0.03,0.218-0.03
			c0.497,0,0.587,0.503,0.806,0.8c3.042,4.047,6.162,8.04,9.979,11.384C125.309,206.371,126.509,208.097,128.563,208.636z"/>
		<path fill="#DAE2E4" d="M128.15,140.852c-1.642,0.061-3.284,0.121-4.925,0.182c-0.352-0.048-0.709-0.097-1.066-0.146
			C124.152,140.458,126.151,140.506,128.15,140.852z"/>
		<path fill="#F63F73" d="M121.674,71.601c3.387,0.019,6.156,2.86,6.077,6.241c-0.072,3.278-2.914,6.095-6.137,6.089
			c-3.502-0.006-6.204-2.769-6.192-6.325C115.439,74.14,118.099,71.583,121.674,71.601z M121.613,80.689
			c2.114-0.636,3.702-1.981,3.726-3.508c-0.103-1.181-0.824-1.86-2.199-1.714c-0.576,0.061-1.054,0.291-1.484-0.418
			c-0.497-0.83-1.418-0.885-2.199-0.497c-0.836,0.418-1.285,1.193-1.164,2.193c0.097,0.836,0.388,1.611,0.83,2.314
			C119.693,79.962,120.05,81.162,121.613,80.689z"/>
		<path fill="#EDEDED" d="M125.303,109.874c0.345,1.945,0.351,3.841-0.624,5.641c-1.709,3.145-6.41,5.628-11.318,1.69
			c-0.133-0.097-0.261-0.194-0.388-0.285c-1.23-2.084-1.951-4.301-1.291-6.707c0.909-3.302,3.411-4.744,6.592-5.271
			C121.535,105.281,123.849,106.959,125.303,109.874z M121.559,114.77c0.364-1.157,0.848-2.381,0.582-3.563
			c-0.23-1-1.496-0.321-2.169-0.818c0.133-0.491,0.327-0.987,0.394-1.496c0.055-0.479-0.091-1.006-0.624-1.133
			c-0.57-0.133-0.624,0.382-0.685,0.794c-0.103,0.642-0.654,0.951-1.036,1.381c-1.193,1.345-1.109,3.078-0.739,4.514
			c0.236,0.933,1.86,0.539,2.872,0.654C120.638,115.163,121.353,115.417,121.559,114.77z M116.609,112.552
			c0.061-0.648,0.2-1.26-0.824-1.351c-1.078-0.097-1.103,0.527-1.139,1.272c-0.024,0.642-0.103,1.278-0.164,1.92
			c-0.049,0.491,0.157,0.806,0.654,0.842c0.43,0.03,1.018,0.333,1.229-0.261c0.188-0.533,0.158-1.145,0.218-1.721
			c-0.012,0-0.024,0-0.03,0C116.572,113.019,116.584,112.788,116.609,112.552z"/>
		<path fill="#FEFAFC" d="M125.339,77.181c-0.024,1.527-1.612,2.872-3.726,3.508c-1.563,0.472-1.92-0.727-2.49-1.63
			c-0.442-0.703-0.733-1.479-0.83-2.314c-0.121-1,0.327-1.775,1.164-2.193c0.781-0.388,1.702-0.333,2.199,0.497
			c0.43,0.708,0.909,0.479,1.484,0.418C124.515,75.321,125.236,76,125.339,77.181z"/>
		<path fill="#BDC0DD" d="M123.601,170.667c-0.254,0.006-0.509,0.012-0.764,0.024c-1.714-5.659-2.629-11.42-2.496-17.316
			c0.006-0.418,0.024-0.842,0.042-1.266c0.103-2.084,0.412-4.132,1.248-6.144C120.323,154.381,121.311,162.578,123.601,170.667z"/>
		<path fill="#196DAF" d="M122.14,111.207c0.267,1.181-0.218,2.405-0.582,3.563c-0.206,0.648-0.921,0.394-1.405,0.333
			c-1.012-0.115-2.636,0.279-2.872-0.654c-0.37-1.436-0.454-3.169,0.739-4.514c0.382-0.43,0.933-0.739,1.036-1.381
			c0.061-0.412,0.115-0.927,0.685-0.794c0.533,0.127,0.679,0.654,0.624,1.133c-0.067,0.509-0.261,1.005-0.394,1.496
			C120.644,110.886,121.91,110.207,122.14,111.207z"/>
		<path fill="#9399C8" d="M121.098,140.876c0.352,0.037,0.697,0.073,1.048,0.103c-0.073,0.406-0.073,0.836-0.224,1.206
			c-0.327,0.788,0.006,2.272-1.236,2.151c-1.139-0.103-2.078-1.108-2.351-2.356c-0.648-2.945-0.836-5.907-0.23-8.895
			c0.236-1.151,0.37-2.314,0.533-3.478c0.091-0.618,0.448-0.927,1.042-1.006c0.018,3.569,0.018,7.137,0.061,10.706
			c0.006,0.685-0.315,1.666,0.987,1.569C120.856,140.876,120.977,140.876,121.098,140.876z"/>
		<path fill="#EDEDED" d="M118.863,153.363c0,0.745-0.079,1.515-0.23,2.314c-1.211,6.313-8.858,10.991-15.922,6.525
			c-0.363-0.224-0.733-0.442-1.096-0.667c-0.667-0.891-1.406-1.733-1.981-2.678c-2.327-3.854-1.806-8.852,1.23-12.257
			c0.388-0.436,0.751-0.896,1.127-1.345c0.23-0.097,0.466-0.194,0.703-0.291c0.527-0.267,1.036-0.563,1.575-0.8
			c3.878-1.708,7.555-1.193,10.767,1.424C117.572,147.656,118.863,150.285,118.863,153.363z M114.149,155.702
			c0.818-0.582-0.563-2.163-0.345-3.369c0.024-0.109,0.006-0.23-0.024-0.339c-0.709-2.526-0.721-2.569-3.302-1.714
			c-0.854,0.285-1.182,0.254-1.109-0.727c0.067-0.782-0.121-1.515-0.672-2.121c-0.382-0.418-0.842-0.691-1.394-0.418
			c-0.588,0.285-0.375,0.788-0.176,1.211c0.315,0.667,0.067,1.249-0.176,1.86c-0.279,0.703-0.636,1.387-0.63,2.466
			c0.224,1.539,1.066,3.168,1.672,4.877c0.133,0.37,0.442,0.588,0.83,0.442C110.629,157.198,112.628,156.786,114.149,155.702z
			 M104.988,159.931c2.048,0.036,2.702-0.866,2.187-2.302c-0.321-0.885-0.63-1.775-0.957-2.654
			c-0.515-1.394-1.975-1.824-2.751-0.594c-0.933,1.479,0.667,2.763,0.97,4.187C104.552,159.131,104.601,159.913,104.988,159.931z"/>
		<path fill="#196DAF" d="M115.785,111.201c1.024,0.091,0.885,0.703,0.824,1.351c-0.024,0.236-0.037,0.467-0.055,0.703
			c0.006,0,0.018,0,0.03,0c-0.061,0.576-0.03,1.188-0.218,1.721c-0.212,0.594-0.799,0.291-1.229,0.261
			c-0.497-0.037-0.703-0.352-0.654-0.842c0.061-0.642,0.139-1.278,0.164-1.92C114.682,111.728,114.707,111.104,115.785,111.201z"/>
		<path fill="#196DAF" d="M113.804,152.333c-0.218,1.206,1.163,2.787,0.345,3.369c-1.521,1.084-3.52,1.497-5.326,2.169
			c-0.388,0.146-0.697-0.073-0.83-0.442c-0.605-1.708-1.448-3.338-1.672-4.877c-0.006-1.079,0.351-1.763,0.63-2.466
			c0.243-0.612,0.491-1.194,0.176-1.86c-0.2-0.424-0.412-0.927,0.176-1.211c0.551-0.273,1.012,0,1.394,0.418
			c0.551,0.606,0.739,1.339,0.672,2.121c-0.073,0.981,0.254,1.012,1.109,0.727c2.581-0.854,2.593-0.812,3.302,1.714
			C113.81,152.103,113.828,152.224,113.804,152.333z"/>
		<path fill="#BDC0DD" d="M112.974,116.92c0.127,0.091,0.254,0.188,0.388,0.285c-2,2.532-3.599,5.289-4.671,8.336
			c-0.254-0.139-0.509-0.272-0.769-0.412c0.945-2.617,2.447-4.938,3.847-7.313C112.046,117.338,112.362,116.932,112.974,116.92z"/>
		<path fill="#9399C8" d="M111.568,191.739c0.279,0.563,0.182,0.909-0.563,0.818c-4.168-0.515-8.355-0.097-12.535-0.23
			c-2.684-0.079-4.277-1.054-5.029-3.363c-0.297-0.909-0.303-1.945-0.291-2.926c0.03-2.878-0.254-5.768,0.315-8.634
			c0.182-0.915,0.442-1.69,1.387-2.06c0.012,4.011,0.024,8.022,0.042,12.033c0.151,0.375,0.254,0.788,0.46,1.127
			c1.157,1.86,3.096,1.981,4.956,2.03c3.502,0.084,7.004,0.018,10.5,0.012C111.065,190.945,111.356,191.321,111.568,191.739z"/>
		<path fill="#F63F73" d="M111.574,130.14c0.454,3.472-2.151,7.47-7.41,6.937c-0.26-0.097-0.521-0.194-0.781-0.297
			c-3.235-1.908-4.501-4.047-3.98-6.737c0.799-4.156,3.768-5.865,8.519-4.914c0.26,0.14,0.515,0.273,0.769,0.412
			C110.284,126.681,111.313,128.129,111.574,130.14z M108.793,129.522c0.073-0.6-0.303-1.278-1.133-1.684
			c-0.854-0.424-1.618-0.254-2.169,0.515c-0.339,0.466-0.612,0.551-1.139,0.254c-0.836-0.473-1.611-0.218-2.181,0.515
			c-0.612,0.788-0.6,1.654-0.048,2.46c0.86,1.266,2.163,1.927,3.575,2.412c0.37,0.127,0.739,0.054,0.975-0.212
			C107.69,132.648,108.714,131.503,108.793,129.522z"/>
		<path fill="#DAE2E4" d="M108.302,173.181c1.369-0.037,1.884,0.375,1.842,1.805c-0.091,3.181-0.03,6.362-0.03,9.542
			c-0.739-0.339-1.466-0.715-2.217-1.024c-1.933-0.8-2.412-1.581-1.703-3.52c0.485-1.327,0.042-2.557-0.073-3.805
			c-0.084-0.981-0.957-1.236-1.866-1.2c-0.97,0.042-2.048,0.133-2.193,1.296c-0.17,1.303-0.54,2.605,0.03,3.969
			c0.63,1.502,0.018,2.642-1.551,3.175c-0.848,0.285-1.654,0.612-2.108,1.466c-0.727-1.46-0.254-3.011-0.327-4.514
			c-0.084-1.884,0.03-3.774-0.036-5.659c-0.037-1.169,0.448-1.539,1.569-1.521C102.528,173.242,105.418,173.266,108.302,173.181z"/>
		<path fill="#F6F7F7" d="M110.114,184.529c-0.127,0.57-0.539,0.715-1.054,0.709c-3.278,0-6.562,0-9.839-0.024
			c-0.267,0-0.527-0.212-0.788-0.327c0.455-0.854,1.26-1.181,2.108-1.466c1.569-0.533,2.181-1.672,1.551-3.175
			c-0.57-1.363-0.2-2.666-0.03-3.969c0.146-1.163,1.224-1.254,2.193-1.296c0.909-0.037,1.781,0.218,1.866,1.2
			c0.115,1.248,0.558,2.478,0.073,3.805c-0.709,1.939-0.23,2.72,1.703,3.52C108.647,183.814,109.375,184.189,110.114,184.529z"/>
		<path fill="#FEFAFC" d="M107.66,127.838c0.83,0.406,1.206,1.084,1.133,1.684c-0.079,1.981-1.103,3.126-2.121,4.259
			c-0.236,0.267-0.605,0.339-0.975,0.212c-1.412-0.485-2.714-1.146-3.575-2.412c-0.551-0.806-0.563-1.672,0.048-2.46
			c0.57-0.733,1.345-0.987,2.181-0.515c0.527,0.297,0.8,0.212,1.139-0.254C106.042,127.583,106.806,127.414,107.66,127.838z"/>
		<path fill="#8792C4" d="M110.811,190.545c-3.496,0.006-6.998,0.072-10.5-0.012c-1.86-0.049-3.799-0.17-4.956-2.03
			c-0.206-0.339-0.309-0.751-0.46-1.127c0.6,0.03,1.2,0.061,1.799,0.097c2.381,0.569,4.805,0.103,7.204,0.242
			c0.588,0.036,1.188,0.073,1.77-0.006C108.09,187.395,110.108,187.771,110.811,190.545z"/>
		<path fill="#196DAF" d="M107.175,157.628c0.515,1.436-0.139,2.338-2.187,2.302c-0.388-0.018-0.436-0.8-0.551-1.363
			c-0.303-1.424-1.902-2.708-0.97-4.187c0.776-1.23,2.236-0.8,2.751,0.594C106.545,155.853,106.854,156.744,107.175,157.628z"/>
		<path fill="#BDC0DD" d="M103.383,136.78c0.26,0.103,0.521,0.2,0.781,0.297c-0.527,2.624-1.363,5.187-1.472,7.889
			c-0.236,0.097-0.473,0.194-0.703,0.291C101.868,142.336,102.953,139.616,103.383,136.78z"/>
		<path fill="#BDC0DD" d="M103.764,170.691c-0.363,0-0.733,0.006-1.096,0.012c-0.109-3.084-1.26-6.047-1.054-9.167
			c0.363,0.224,0.733,0.442,1.096,0.667c-0.394,0.364-0.412,0.83-0.327,1.296C102.837,165.898,103.304,168.292,103.764,170.691z"/>
	</g>
	<g>
	</g>
</g>
</svg>
