<?xml version="1.0" encoding="utf-8"?>
<!-- Generator: Adobe Illustrator 16.0.3, SVG Export Plug-In . SVG Version: 6.00 Build 0)  -->
<!DOCTYPE svg PUBLIC "-//W3C//DTD SVG 1.1//EN" "http://www.w3.org/Graphics/SVG/1.1/DTD/svg11.dtd">
<svg version="1.1" id="Capa_1" xmlns="http://www.w3.org/2000/svg" xmlns:xlink="http://www.w3.org/1999/xlink" x="0px" y="0px"
	 width="507px" height="285px" viewBox="-37.707 8.047 507 285" enable-background="new -37.707 8.047 507 285"
	 xml:space="preserve">
<path fill="#1A2F36" d="M302.567,250.102c10.313-2.951,20.478-6.487,31.196-7.808c2.729-0.524,5.482-1.297,8.141,0.208
	c4.166,2.359,5.06,6.412,2.701,11.941c-2.693,4.367-6.372,7.773-10.522,10.719c-0.715,0.574-1.475,1.084-2.272,1.531
	c-1.987,0.798-3.143,2.131-2.824,4.414c-0.688,2.83-1.938,5.262-4.677,6.645c-0.333,0-0.667,0-1,0
	c-3.927-1.12-8.061-1.466-11.838-3.145c-2.494-1.229-5.119-2.117-7.771-2.918c-2.544-1.065-3.313,1.275-4.683,2.455
	c-1.311,1.539-3.002,2.582-4.707,3.606c-4.334,0-8.668,0-13,0c-0.615-0.521-1.371-0.751-2.109-1.022
	c-6.352-3.752-6.618-9.816-6.022-16.134c0.201-2.135,0.81-4.229,1.167-6.35c4.018-10.854,9.637-13.022,19.889-8.003
	C296.973,247.584,299.125,250.279,302.567,250.102z"/>
<path fill="#F2F0EF" d="M275.204,254.088c-0.241,2.291-0.34,4.607-0.751,6.867c-1.166,6.406,0.836,11.617,5.663,15.85
	c-1.923,0.844-3.95,0.408-5.923,0.409c-72.332,0.026-144.664,0.019-216.994,0.05c-1.96,0-3.999-0.514-5.89,0.488
	c-3.666,0-7.334,0-11,0c-0.246-3.496,2.297-3.244,4.377-2.943c4.829,0.697,5.868-1.498,5.699-5.899
	c-0.314-8.144-0.117-16.308-0.068-24.463c0.009-1.599-0.545-3.373,0.959-4.691c0.406,0.479,0.746,1.002,1.023,1.565
	c1.143,6.572,0.41,13.201,0.533,19.805c0.279,15.025-1.867,12.879,13.33,13.075c6.455,0.084,12.91-0.103,19.367,0.082
	c18.781-0.259,37.561-0.105,56.336-0.101c4.951,0.135,9.906-0.008,14.855,0.146c1.465-0.131,2.934-0.05,4.398-0.029
	c4.414,0.103,8.895,0.618,12.895-2.01c20.411,3.957,41.031,1.015,61.533,1.899c2.817,0.121,5.644-0.047,8.463,0.023
	c4.497,0.387,9.002-0.038,13.497,0.09c6.342-0.312,11.194-4.068,13.221-10.115c1.567-4.678,1.063-9.502,1.248-14.287
	c0.084-2.211-0.647-4.732,1.733-6.354C278.055,246.518,276.05,250.385,275.204,254.088z"/>
<path fill="#FFFFFF" d="M51.31,277.752c1.311-1.518,3.09-0.965,4.684-0.965c74.708-0.012,149.416,0.004,224.123,0.018
	c0.552,0.121,1.162,0.17,1.193,0.947C204.645,277.752,127.976,277.752,51.31,277.752z"/>
<path fill="#F24F5A" d="M331.026,266.039c0.612-0.398,1.228-0.798,1.841-1.197c8.436,0.389,16.309,3.238,24.309,5.547
	c1.197,2.034,0.415,3.713-0.95,5.287c-3.255,0.066-6.511,0.092-9.763,0.219c-1.327,0.051-3.169-0.559-3.153,1.857c-3,0-6,0-9,0
	c-1.23-1.09-2.948-0.016-4.21-0.939c-1.228-0.898-1.965-2.789-0.473-3.057c3.915-0.704-0.26-2.014,0.409-2.846
	c0.113-0.143-0.147-0.608-0.209-0.936C329.584,268.468,330.479,267.307,331.026,266.039z"/>
<path fill="#DE4F5A" d="M303.759,270.617c2.714,0.77,5.545,1.249,7.779,3.188c-0.419,2.609-2.513,2.576-4.464,2.984
	c-1.913,0.4-3.943,0.066-5.766,0.963c-2.333,0-4.666,0-7,0c0.557-1.866,2.164-2.791,3.526-3.932
	C300.06,273.213,301.116,270.449,303.759,270.617z"/>
<path fill="#E8E5E5" d="M301.31,277.752c3.046-2.258,7.43-1.045,10.228-3.947c4.179,0.563,8.05,2.033,11.772,3.947
	C315.977,277.752,308.643,277.752,301.31,277.752z"/>
<path fill="#CD4B56" d="M330.737,269.746c0.307,0.766,0.765,1.507,0.89,2.301c0.241,1.537,3.832-0.579,2.514,2.23
	c-1.129,2.408-2.817-0.836-4.35,0.129c-0.155,3.357,3.612,1.488,4.519,3.346c-3.333,0-6.667,0-10,0
	c1.399-2.352,2.8-4.704,4.199-7.057C329.057,269.924,329.78,269.561,330.737,269.746z"/>
<path fill="#E2E2E1" d="M167.21,117.771c-11.023,1.449-21.561,5.062-32.404,7.315c-4.689,0.975-9.33,2.189-13.975,3.361
	c-4.354,1.098-7.029-0.299-8.114-4.834c-3.39-14.163-6.888-28.299-10.353-42.444c-1.809-7.389-3.641-14.773-5.456-22.161
	c-1.606-6.535-0.833-8.21,5.479-9.738c19.13-4.63,38.454-8.533,57.403-13.798c12.766-3.547,12.101-1.307,14.865,9.614
	c1.162,4.59,1.619,9.405,3.764,13.734c0.053,1.576-1.123,2.341-2.174,3.103c-5.635,4.083-7.514,9.806-7.482,16.484
	c0.051,10.941,0.052,21.882-0.018,32.823C168.731,113.491,169.173,115.934,167.21,117.771z"/>
<path fill="#E2E2E1" d="M286.421,151.935c-2.731-2.675-6.528-1.989-9.782-3.018c-1.595-0.504-2.291,0.849-2.291,2.429
	c0.004,8.992-0.002,17.983-0.031,26.974c-0.004,1.377,0.543,2.211,1.938,2.408c-0.683,2.571-1.819,3.42-3.825,1.012
	c-0.951-2.395-0.717-4.91-0.719-7.389c-0.021-31.715-0.035-63.431,0.023-95.146c0.006-2.895-0.738-6.052,1.744-8.484
	c1.771,2.584,1.03,5.546,0.779,8.224c-0.354,3.768,1.418,4.975,4.588,5.513c12.198,2.069,24.366,4.328,36.587,6.251
	c10.269,1.616,20.383,4.075,30.731,5.279c3.311,0.385,5.773,2.587,5.002,6.684c-3.298,17.507-6.65,35.005-9.764,52.545
	c-0.521,2.934-2.385,4.688-4.516,4.284c-6.884-1.306-14.112-1.313-20.516-4.724c-1.348-1.861-0.411-3.454,0.587-5.036
	c5.396-1.333,10.415,1.197,14.832,1.273c-4.87-0.866-10.502-2.345-16.339-2.611c-2.146-0.109-4.213-0.52-6.111-1.573
	c-2.318-1.274-4.792-2.199-7.279-3.083c-0.419-0.125-0.824-0.284-1.228-0.45c-1.418-0.579-2.89-1.023-4.28-1.677
	c-2.967-1.75-4.533-0.518-5.271,2.47c-0.715,1.938-1.252,3.948-2.246,5.781C288.389,150.843,287.87,151.984,286.421,151.935z"/>
<path fill="#375A64" d="M273.479,70.723c-0.029,37.294-0.062,74.589-0.092,111.882c-0.025,4.006-3.072,7.093-3.365,11.041
	c-0.058,0.783-0.808,1.443-1.762,1.377c-0.947-0.065-1.369-0.735-1.521-1.609c-0.169-0.977,0.114-1.953-0.011-2.936
	c0.024-3.002,0.096-6,0.03-8.996c-0.7-32.134,1.067-64.241,1.007-96.368c-0.004-1.999,0.045-3.999-0.072-5.994
	c-0.521-8.888-4.36-12.614-13.2-12.809c-1.998-0.044-4.007,0.11-5.993-0.037c-4.197-0.309-7.043,0.996-8.025,5.509
	c-0.664,3.046-3.227,4.167-6.055,4.304c-7.984,0.385-15.98,0.35-23.967,0.025c-3.365-0.137-5.711-1.919-6.454-5.247
	c-0.767-3.428-2.976-4.506-6.162-4.53c-4.496-0.035-8.996-0.159-13.487,0.031c-6.029,0.254-9.505,3.505-10.301,9.456
	c-0.31,2.316-0.19,4.656-0.19,6.986c-0.005,41.799,0.009,83.598-0.028,125.396c-0.002,2.948,0.545,6.032-1.289,8.741
	c-1.884,1.174-3.708,1.349-5.421-0.321c0.03-32.951,0.061-65.903,0.091-98.854c0.112-13.225,0.486-26.455,0.245-39.673
	c-0.161-8.842,2.761-15.435,10.964-19.278c6.611-1.102,13.261-0.527,19.902-0.489c19.114,0.108,38.231,0.149,57.348,0.232
	C265.323,58.604,269.773,61.658,273.479,70.723z"/>
<path fill="#F44F5B" d="M275.204,254.088c-0.492-3.466,0.712-7.234-1.851-10.33c-0.414-0.305-0.707-0.699-0.885-1.18
	c-0.234-4.123-0.005-8.293-0.527-11.262c0.705,1.742-0.746,4.354-1.201,7.045c-0.297,2.554-1.002,5.02-1.545,7.521
	c-1.981,6.585-3.018,13.394-4.752,20.038c-1.063,3.014-0.873,6.822-4.971,7.938c-2.488,0.268-4.979,0.512-7.082-1.314
	c-0.99-1.152-0.81-2.471-0.526-3.802c0.063-0.515,0.153-1.026,0.243-1.538c0.127-0.768,0.3-1.525,0.49-2.281
	c1.191-6.92,2.156-13.879,3.521-20.766c0.307-1.758,1.075-3.455,0.875-5.217c-1.146-0.709-2.109-0.104-3.068-0.045
	c-3.93,0.239-7.276-0.793-9.288-4.427c-1.943-3.503-1.781-7.071,0.53-10.323c2.39-3.365,6.313-4.672,9.707-3.304
	c4.813,1.942,6.672,0.066,8.121-3.894c0.223-0.61,0.819-1.026,1.399-1.373c0.705-0.271,1.383-0.135,2.051,0.132
	c2.255,0.862,3.463,3.455,6.1,3.69c1.971,1.134,4.01,1.002,6.079,0.32c3.312-0.479,5.531-2.189,5.866-5.643
	c0.242-2.494,1.637-3.408,3.89-3.545c1.101,0.41,2.839-1.208,3.366,1.039c8.701,4.111,14.091,12.283,22.058,18.348
	c1.15-7.012,2.201-13.457,2.405-20.023c-0.677-0.94-0.452-1.725,0.424-2.393c2.263-0.496,4.519-0.804,6.71,0.301
	c1.771,2.77,0.755,5.813,0.709,8.707c-0.097,6.139-0.619,12.271-0.758,18.41c-0.083,3.693-1.448,6.422-4.812,8.014
	c-3.577,1.693-6.874,0.879-9.71-1.58c-3.486-3.023-6.791-6.258-11.22-10.371c0.479,7.604-2.883,14.688,5.02,19.119
	c-1.231,2.275-2.627,1.139-4.064,0.238c-2.103-1.314-4.176-2.699-6.378-3.827c-7.032-3.604-11.966-1.999-15.587,4.944
	C276.089,252.33,275.648,253.211,275.204,254.088z"/>
<path fill="#D73E48" d="M167.119,216.625c1.655,0.033,3.31,0.066,4.965,0.1c3.688,0.92,2.726,4.053,2.749,6.394
	c0.137,13.414,0.121,26.832,0.056,40.246c-0.526,3.14,0.739,6.489-1.091,9.479c-0.186,1.974-0.813,3.273-3.254,3.063
	c-3.052-0.262-6.133-0.188-9.201-0.26c-0.954-2.24-0.079-4.568-0.32-6.846c-0.156-1.475-0.008-3.238-2.029-3.402
	c-2.045-0.166-2.127,1.525-2.45,3.026c-0.539,2.507,0.149,4.835,0.711,7.201c-4.969,0.005-9.937,0.009-14.905,0.013
	c1.268-1.943,0.951-4.136,0.954-6.269c0.024-17.203,0.037-34.408,0.054-51.611c1.535-0.942,3.23-0.446,4.843-0.464
	c7.146-0.072,7.151-0.039,8.614,6.848c0.242,1.145,0.353,2.446,1.805,2.627c1.802,0.225,1.988-1.287,2.473-2.521
	c1.006-2.568-0.074-6.327,4.011-7.176C165.774,216.922,166.446,216.773,167.119,216.625z"/>
<path fill="#1A3036" d="M291.746,211.57c-1.204-0.016-2.408-0.029-3.612-0.045c-0.987-0.65-2.456,0.229-3.257-1.022
	c-0.271-0.706-0.242-1.405,0.038-2.101c5.165-6.937,5.614-13.387,1.19-20.433c-2.366,1.347-2.438,4.22-3.991,6.003
	c-1.103,1.266-2.21,2.522-3.729,3.258c-1.758,0.851-2.26,1.869-1.777,3.951c1.371,5.94,1.953,12.016,2.189,18.112
	c0.02,0.519-0.22,0.94-0.701,1.194c-2.216,1.919-4.14,1.277-5.914-0.674c-2.043-0.922-2.768-4.346-5.937-3.127
	c-0.481-0.076-0.964-0.151-1.445-0.228c-0.384-2.416-0.631-4.461-3.759-5.513c-3.587-1.207-4.332-7.946-1.387-10.432
	c2.053-1.73,2.975-3.875,3.857-6.231c0.778-2.075,1.825-4.134,4.736-2.804c0.051,0.903-1.171,1.68,0.553,3.619
	c0.215-5.156,1.809-9.103,4.584-12.496c0.956-0.625,1.912-1.252,2.868-1.877c5.118-1.472,9.312,1.459,13.479,3.366
	c3.146,1.441,3.435,5.146,2.395,8.321c-0.83,2.534-0.779,4.993,0.158,7.245C294.014,203.809,293.542,207.676,291.746,211.57z"/>
<path fill="#F3525D" d="M158.263,149.816c1.317,4.27-1.756,7.766-2.07,11.749c-0.488,1.318-0.768,3.324-2.803,2.042
	c-2.645-1.664-5.718-0.902-8.424-1.957c-1.503-2.813-0.293-5.661,0.357-8.273c1.1-4.415-0.002-7.68-3.148-10.808
	c-1.945-1.934-4.256-3.827-4.719-6.87c1.458-3.874,5.098-5.867,8.297-7.133c2.869-1.135,3.915,3.082,5.652,5.059
	c0.505,1.049,1.229,2.054,1.49,3.143c0.381,1.587,0.605,2.741,2.328,1.061c0.666,0.65,1.334,1.301,2,1.951
	C158.632,143.016,156.978,146.568,158.263,149.816z"/>
<path fill="#A12C34" d="M356.226,275.676c0.289-1.643,0.577-3.287,0.865-4.93c-2.597-4.297-0.049-8.673-0.207-13.008
	c-0.196-4.187,1.029-8.236,1.165-12.396c0.05-1.518,0.577-2.945,2.061-3.765c1.746-0.339,3.497-0.763,5.174,0.269
	c1.388,10.033,2.712,20.076,4.203,30.096c0.421,2.82,0.187,4.365-3.309,3.978C362.892,275.553,359.546,275.734,356.226,275.676z"/>
<path fill="#385B65" d="M353.94,187.832c-8.659-0.001-8.66-0.001-7.635-8.361c0.102-0.82,0.21-1.642,0.337-2.459
	c1.176-7.59,1.189-7.33,8.865-7.725c4.219-0.217,6.235,0.911,6.009,5.303c-0.066,1.297,0.271,2.623,0.482,3.926
	C363.521,187.834,363.525,187.832,353.94,187.832z"/>
<path fill="#F44F5B" d="M360.226,241.854c-0.729,5.354-1.461,10.711-2.189,16.064c-5.313,0.739-10.083-0.654-14.44-3.673
	c3.032-8.241,0.595-11.203-9.835-11.951c0.08-0.299,0.27-0.533,0.57-0.704C342.981,239.805,351.619,239.242,360.226,241.854z"/>
<path fill="#F5F6F5" d="M360.189,240.792c-2.649,0.08-4.021-0.62-3.91-3.601c0.12-3.351,0.189-6.909-4.511-7.449
	c-8.569-0.98-10.409-0.24-12.17,5.68c-0.88,2.971-1.949,5.439-5.271,6.17c1.271,0.01,2.54,0.03,3.811,0.04c0.25,0,0.5,0,0.75,0.011
	c6.931,0.069,13.86,0.129,20.801,0.199c0.18,0.01,0.359,0.01,0.539,0.01c1.681,0,3.37,0,5.051-0.01
	C363.899,240.021,361.899,240.752,360.189,240.792z M348.479,231.082c7.44,0,6.471,7.72,5.83,8.17
	c-1.17,0.82-12.46,0.939-13.46-0.18C340.85,236.502,341.659,231.082,348.479,231.082z"/>
<path fill="#A23139" d="M137.456,135.699c2.973,3.27,5.973,6.517,8.91,9.82c1.511,1.7,0.971,3.742,0.621,5.664
	c-0.643,3.537-1.634,7.023-1.348,10.676c1.049,0.986,1.463,2.151,1.003,3.563c-3.778,2.51-4.709,2.4-5.534-0.645
	c0.066-0.662,0.031-1.354,0.217-1.982c2.163-7.321,0.945-13.754-5.111-18.783C131.915,140.443,133.207,137.897,137.456,135.699z"/>
<path fill="#395A64" d="M317.282,207.602c-0.357,0.765-0.715,1.529-1.073,2.293c-9.271-0.391-9.265-0.389-7.394-9.347
	c0.271-1.303,0.426-2.63,0.697-3.933c1.318-6.289,3.743-7.127,9.066-3.342c2.378,1.688,0.287,3.619,0.593,5.396
	C314.36,200.762,317.702,204.58,317.282,207.602z"/>
<path fill="#F44D5A" d="M165.102,217.07c-2.649,2.106-2.322,5.346-2.628,8.109c-0.309,2.799-1.227,3.625-3.935,3.639
	c-3.28,0.016-3.309-1.941-3.229-4.236c0.033-0.991-0.087-1.995,0.028-2.975c0.368-3.127-1.128-4.099-4.05-3.906
	c-2.635,0.172-5.288,0.049-7.933,0.057c-0.028-0.228-0.044-0.455-0.047-0.685C150.573,217.072,157.837,217.07,165.102,217.07z"/>
<path fill="#E5E5E5" d="M77.411,239.748c-1.203,0.115-2.408,0.23-3.611,0.345c-1.122,0.872-2.357,0.837-3.632,0.458
	c-1.38-0.271-1.017-3.889-4.14-1.697c-1.045,0.732-3.151-2.604-2.727-5.18c0.313-0.758,0.533-1.574,0.959-2.263
	c0.887-1.433-2.335-4.097,0.71-4.312c2.172-0.154,2.269,2.762,2.377,4.756c0.018,0.317,0.156,0.631,0.426,1.658
	c1.043-1.291,1.749-2.396,2.684-3.25c0.79-0.724,1.866-0.63,2.741,0.032c0.86,0.649,1.453,1.769,0.871,2.599
	c-1.889,2.694-1.615,3.946,1.947,4.065C77.547,237.012,77.198,238.675,77.411,239.748z"/>
<path fill="#EDB3B7" d="M304.3,161.774c-3.447-1.047-6.971-1.911-9.94-4.111c0.498-4.07-3.25-5.239-5.219-7.632
	c-0.137-0.485-0.078-0.938,0.201-1.362c3.383-1.341,6.254,0.784,8.868,1.995c4.519,2.092,10.206,2.137,13.341,6.906
	c0.101,0.876-0.333,1.397-1.123,1.676c-4.231-1.47-8.926-1.431-12.795-4.115c-0.691-0.011-0.08,0.961-0.091,0.294
	c-0.004-0.267,0.134-0.337,0.408-0.201c1.905,0.95,3.646,2.274,5.856,2.52c1.271,0.141,3.104-0.263,3.409,1.292
	C307.587,160.917,305.583,161.16,304.3,161.774z"/>
<path fill="#CECFCE" d="M331.576,183.861c2.015-2.326,1.751-5.023,1.696-7.666c-0.167-8.024,3.996-13.822,10.499-17.458
	c7.211-4.03,14.841-4.096,23.022,1.818c-4.808-0.858-8.021-2.68-11.758-2.961c-10.331-0.778-20.715,7.873-20.71,20.158
	C334.329,181.799,334.253,181.799,331.576,183.861z"/>
<path fill="#C68978" d="M317.282,207.602c-0.157-0.625-0.128-1.408-0.502-1.85c-3.614-4.258-3.09-5.863,2.393-7.082
	c3.398,2.127,4.505,5.3,4.17,9.132C321.285,208.865,319.283,208.264,317.282,207.602z"/>
<path fill="#BEC2C2" d="M63.302,233.674c0.828,1.572,2.344,2.732,2.35,4.516c2.443,0.324,0.936-2.889,2.3-2.264
	c0.708,0.325,3.235,1.771,1.388,3.852c-5.887,2.608-11.838,3.888-18,0.884c-0.055-0.3-0.074-0.603-0.063-0.906
	c3.377,0,6.753,0,10.329,0c-0.622-2.829-4.273-4.192-2.616-6.815C60.183,231.047,61.791,233.587,63.302,233.674z"/>
<path fill="#9C9292" d="M141.108,164.777c1.799,2.299,3.613,1.005,5.428,0.024c2.221,0.056,4.392,0.193,4.928,3.009
	c-1.352,3.465-4.042,4.875-7.353,3.571C141.453,170.337,139.733,168.057,141.108,164.777z"/>
<path fill="#9F2E37" d="M310.39,158.893c0.267-0.403,0.532-0.806,0.799-1.208c-0.321-0.825-0.077-1.598,0.205-2.373
	c0.132-0.396,0.286-0.781,0.444-1.167c0.388-1.011,0.618-2.071,0.98-3.093c0.593-1.673,1.434-3.045,3.527-2.87
	c0.772,0.248,1.261,0.705,1.164,1.588c-0.379,1.669-0.759,3.339-1.138,5.009c-1.021,2.234-2.119,4.438-3.043,6.711
	c-1.188,2.92-2.896,3.301-5.262,1.333C308.17,161.116,308.968,159.82,310.39,158.893z"/>
<path fill="#F1D5D6" d="M151.464,167.813c-1.644-1.004-3.287-2.01-4.929-3.012c-0.573-0.895-1.108-1.803-0.896-2.941
	c2.512-1.967,5.106-1.534,7.288,0.292c1.648,1.38,2.427,1.012,3.265-0.587C157.152,165.566,153.169,165.826,151.464,167.813z"/>
<path fill="#ED5560" d="M310.39,158.893c-0.291,1.595-0.728,3.104-2.32,3.93c-1.257-0.35-2.514-0.699-3.77-1.049
	c0.658-0.853,1.316-1.705,2.225-2.881c-4.144,0.32-7.218-1.222-9.374-4.575C301.213,156.926,306.41,156.12,310.39,158.893z"/>
<path fill="#D2D2D1" d="M342.295,192.781c6.552,5.066,13.692,4.877,22.201,1.373c-6.029,5.342-15.857,4.726-23.188-0.402
	C341.505,193.293,341.833,192.97,342.295,192.781z"/>
<path fill="#CBCBCB" d="M342.295,192.781c-0.329,0.322-0.657,0.646-0.985,0.971c-3.313-3.436-7.104-5.234-11.935-3.496
	c-0.844,0.303-1.793,0.381-1.73-0.816c0.043-0.852,0.829-1.047,1.795-1.166C334.514,187.643,339.098,188.161,342.295,192.781z"/>
<path fill="#F2D2D5" d="M158.263,149.816c-4.172-2.95-0.375-6.724-1.039-10.036C159.356,142.94,162.022,146.045,158.263,149.816z"/>
<path fill="#F17682" d="M155.224,137.829c-1.883,1.359-0.027,3.914-2.314,5.902c-0.544-3.654-1.023-6.879-1.504-10.105
	C152.87,134.852,154.354,136.062,155.224,137.829z"/>
<path fill="#F0545F" d="M289.383,149.659c3.086,1.222,4.983,3.682,6.469,6.464c0.83,1.556-0.55,1.446-1.492,1.54
	c-1.364-1.722-2.729-3.443-4.094-5.165C288.807,151.915,288.307,151.032,289.383,149.659z"/>
<path fill="#D0727B" d="M289.383,149.659c0.295,0.948,0.59,1.895,0.885,2.841c-1.643,0.524,0.658,3.027-1.269,2.98
	c-1.876-0.045-2.663-1.665-2.578-3.545c0.58-0.771,1.16-1.543,1.74-2.315c0.452-0.438,0.862-0.403,1.231,0.106L289.383,149.659z"/>
<path fill="#F7F7F6" d="M343.595,254.246c4.813,1.225,9.628,2.449,14.44,3.674c-0.314,4.273-0.629,8.548-0.943,12.824
	c-8.341-0.874-16.307-3.287-24.224-5.902C336.733,261.604,340.761,258.527,343.595,254.246z"/>
<path fill="#CDB6B7" d="M330.737,269.746c-0.594,0.67-1.307,1.057-2.229,0.949c-2.497-3.357,0.58-3.699,2.52-4.657
	C330.93,267.273,330.833,268.51,330.737,269.746z"/>
<path fill="#D4C7C7" d="M303.759,270.617c-1.83,1.332-3.424,3.104-5.922,3.203C299.86,272.844,299.724,267.873,303.759,270.617z"/>
<path fill="#A12D34" d="M51.339,240.66c6-0.294,12-0.588,17.999-0.883c1.483,0.104,2.966,0.209,4.456,0.313
	c0.979,0.915,2.195,0.576,3.318,0.603c8.213,0.178,8.209,0.166,8.206,8.6c-0.004,8.787-0.001,17.575,0,26.363
	c-10.263,0.051-20.526,0.025-30.786,0.205c-2.647,0.046-3.381-0.844-3.344-3.412C51.343,261.854,51.306,251.258,51.339,240.66z"/>
<path fill="#375A64" d="M173.798,272.842c-0.387-3.084-0.439-6.166,0.07-9.242c9.638,4.605,20.089,1.66,30.062,3.217
	c6.245,1.123,12.538,0.396,18.805,0.5c8.101,0.137,16.205-0.002,24.308,0.058c2.106,0.015,4.368-0.349,6.004,1.565
	c-0.313,0.918-0.823,1.812-0.37,2.83c0.459,2.651-1.334,2.859-3.217,2.953c-1.747,0.086-3.563-0.187-5.094,0.996
	c-20.405,0.041-40.811,0.053-61.217,0.152C179.639,275.889,176.806,274.18,173.798,272.842z"/>
<path fill="#385B65" d="M268.082,246.014c0.439-2.66,0.88-5.322,1.32-7.981c1.518-1.604,2.236-0.267,2.888,0.856
	c0.671,1.158,0.246,2.627,0.911,3.816c0.051,0.352,0.102,0.701,0.152,1.053c-0.105,5.301-0.099,10.608-0.346,15.903
	c-0.419,8.979-6.229,15.321-14.471,16.017c-1.063-1.295,0.07-2.006,0.754-2.836c3.92-0.74,2.303-4.729,3.98-6.783
	C267.792,260.076,266.837,252.781,268.082,246.014z"/>
<path fill="#F24E5A" d="M157.254,275.625c-5.495-2.533-1.034-6.857-1.642-10.27c-0.375-2.104,2.428-1.453,3.951-1.572
	c1.829-0.145,2.832,0.746,2.717,2.623c-0.19,3.09,0.743,6.299-0.938,9.238C159.979,275.639,158.617,275.632,157.254,275.625z"/>
<path fill="#B58074" d="M259.292,272.842c-0.252,0.945-0.504,1.891-0.756,2.835c-4.724,0.015-9.447,0.028-14.173,0.042
	c0.962-2.012,2.822-2.048,4.664-2.127c1.486-0.064,3.063,0.051,3.646-1.822C254.701,273.234,257.088,272.479,259.292,272.842z"/>
<path fill="#FDFDFD" d="M148.299,64.651c0.026-5.515,3.16-8.832,8.405-8.898c5.24-0.066,9.543,4.215,9.49,9.442
	c-0.036,3.596-4.831,8.476-8.393,8.541C152.542,73.832,148.274,69.752,148.299,64.651z"/>
<path fill="#FDFDFD" d="M327.46,101.741c5.214,0.064,7.841,2.42,7.788,6.114c-0.063,4.24-2.697,6.887-6.862,6.894
	c-3.661,0.006-7.34-3.493-7.018-6.889C321.767,103.664,324.379,101.817,327.46,101.741z"/>
<path fill="#FBFBFB" d="M301.305,103.819c-8.303-1.372-16.606-2.778-24.928-4.091c-1.82-0.287-2.023-1.412-1.975-2.847
	c0.076-2.176,1.336-1.608,2.758-1.367c8.795,1.492,17.607,2.877,26.416,4.286c1.476,0.236,2.876,1,2.459,2.504
	C305.337,104.823,302.938,103.323,301.305,103.819z"/>
<path fill="#F0545F" d="M289.395,149.726c-0.41-0.035-0.821-0.069-1.232-0.105c0.766-1.913,1.529-3.825,2.294-5.737
	c6.319-0.657,12.417,0.123,18.229,2.787c2.244,1.028,4.822,1.721,4.634,4.995c-0.218,0.989-0.435,1.978-0.651,2.967
	c-6.146-3.028-12.443-5.641-19.229-6.885c-0.643-0.179-0.392,0.958-0.328,0.293c0.021-0.231,0.164-0.272,0.438-0.244
	c5.103,0.534,9.567,3.067,14.357,4.577c1.747,0.551,3.502,1.195,4.112,3.237c-0.275,0.692-0.554,1.384-0.829,2.074
	C304.303,153.992,297.334,150.529,289.395,149.726z"/>
<path fill="#E7A6AD" d="M313.318,151.666c-4.454-5.251-10.463-6.666-16.889-6.223c-2.392,0.165-4.049-0.827-5.976-1.559
	c1.364-5.761,1.674-5.898,6.806-3.021c0,2.25-1.701,2.002-3.133,2.252c2.398,0.107,4.73-1.725,7.179-0.376l-0.016-0.034
	c2.598,1.278,5.243,2.432,8.088,3.058c2.016,0.619,4.031,1.238,6.047,1.857c0.879-0.104,1.154,0.274,0.876,1.096
	C313.533,147.905,314.813,151.188,313.318,151.666z"/>
<path fill="#F5F5F4" d="M336.59,147.655c-7.294-0.087-14.379-1.918-21.524-3.206c-0.794-0.143-1.513-0.805-1.253-1.811
	c0.196-0.767,0.94-0.929,1.582-0.806c7.16,1.369,14.313,2.777,21.468,4.175C336.771,146.557,336.681,147.106,336.59,147.655z"/>
<path fill="#F5F5F4" d="M316.302,148.715c-0.293-0.365-0.586-0.729-0.877-1.095c7.476-0.726,14.324,1.985,21.329,4.063
	c-6.585,1.101-12.89-0.675-19.243-1.913C317.108,149.418,316.705,149.067,316.302,148.715z"/>
<path fill="#E15D6A" d="M301.307,142.738c-2.699-0.14-5.231,1.853-8.225,0.686c1.277-1.296,3.311-1.009,4.182-2.562
	C298.651,141.397,300.271,141.439,301.307,142.738z"/>
<path fill="#C1797E" d="M309.379,145.762c-3.156,0.199-5.845-0.841-8.088-3.058C304.329,142.817,306.875,144.235,309.379,145.762z"
	/>
<path fill="#C9424C" d="M110.438,270.414c0-15.777,0-31.557,0-47.334c0.17-0.001,0.341-0.002,0.512-0.004c0,15.85,0,31.697,0,47.547
	C110.779,270.553,110.608,270.482,110.438,270.414z"/>
<path fill="#FAFAFA" d="M203.417,268.053c-6.078-0.049-12.16-0.26-18.231-0.092c-4.547,0.125-8.411-1.059-11.568-4.363
	c-0.109-13.865-0.18-27.733-0.381-41.6c-0.025-1.79,1.087-4.066-1.4-5.273c0.124-46.795,0.215-93.591,0.408-140.386
	c0.031-7.292,4.668-11.642,12.026-11.739c4.995-0.065,9.995,0.115,14.987-0.006c3.686-0.089,5.785,1.234,5.564,5.175
	c-0.213,3.804,1.908,4.866,5.3,4.842c7.993-0.055,15.987-0.034,23.979,0.085c3.422,0.051,5.424-1.039,5.321-4.827
	c-0.104-3.824,1.97-5.301,5.688-5.118c3.488,0.172,6.994,0.021,10.49,0.069c8.803,0.119,13.196,4.445,13.16,13.263
	c-0.096,22.647-0.301,45.294-0.457,67.942c-0.104,15.153-0.203,30.307-0.306,45.459c-1.685-0.168-3.033,0.518-3.54,2.072
	c-1.123,3.444-0.775,7.822-6.029,8.338c-0.646,0.063-0.557,1.489-0.121,1.664c3.236,1.295-2.203,6.926,3.283,6.754
	c6.045-0.188,4.43,2.914,2.963,6.145c-2.248,2.41-2.976,5.48-3.758,8.961c-2.539-1.252-4.088-3.938-7.145-3.939
	c-2.803-0.002-5.373,0.416-7.23,2.603c-2.82,3.319-3.008,6.983-0.517,10.539c2.622,3.741,6.606,4.219,12.47,1.53
	c-0.221,2.729-0.025,5.261-1.322,7.613c-0.762,0.66-1.652,1.002-2.635,1.238c-2.174,0.525-5.727-0.713-5.699,3.009
	c0.028,3.948-2.312,8.763,2.736,11.521c2.943,1.607,2.178,3.992,1.713,6.4c-0.047,0.635-0.092,1.27-0.139,1.903
	c-9.408,0.909-18.84,0.269-28.26,0.366C217.656,268.271,210.532,268.473,203.417,268.053z"/>
<path fill="#C58875" d="M278.098,220.489c-0.13-5.229-1.254-10.39-2.14-15.458c-0.921-5.273-1.235-8.834,4.586-11.004
	c1.906-0.711,1.899-3.715,2.953-5.563c1.129-1.981,2.614-3.049,4.624-0.762c3.936,4.481,2.281,17.483-2.714,21.052
	c-1.415,0.979-2.741,0.059-4.267-0.212c1.651,0.531,3.096,1.122,4.336,2.12c0.89,0.288,1.777,0.577,2.662,0.863
	c-1.389,0.312-2.428,0.244-2.396,2.592C285.803,218.678,283.027,220.621,278.098,220.489z"/>
<path fill="#E2E0E0" d="M253.419,265.929c-0.244-2.459,0.61-5.577-3.712-5.345c-1.497,0.08-2.309-1.223-2.329-2.689
	c-0.06-3.942-0.037-7.889-0.019-11.834c0.011-2.053,1.437-2.303,3.039-2.299c2.302,0.006,4.604,0,6.904-0.002
	C256.157,251.176,255.307,258.643,253.419,265.929z"/>
<path fill="#B58074" d="M203.666,268.053c16.538-0.072,33.077-0.146,49.613-0.221c-0.077,0.369-0.154,0.738-0.233,1.107
	c-14.685-0.127-29.366-0.233-44.048-0.408C207.225,268.51,205.368,269.018,203.666,268.053z"/>
<path fill="#ECECEB" d="M268.082,246.014c0.045,3.801,0.236,7.607,0.094,11.402c-0.138,3.641-1.604,6.705-4.902,8.643
	C264.354,259.251,265.91,252.559,268.082,246.014z"/>
<path fill="#CE3F4B" d="M273.201,242.705c-1.662-1.237-0.639-4.656-3.799-4.676c0.742-2.801,1.486-5.604,2.317-8.738
	C274.041,233.807,273.966,238.218,273.201,242.705z"/>
<path fill="#F2747D" d="M252.131,233.393c4.971-4.432,5.174-4.932-1.137-7.068c3.218,0.054,5.956,0.689,6.311,2.679
	C257.061,231.646,253.814,231.966,252.131,233.393z"/>
<path fill="#CC4A54" d="M266.246,216.689c4.98-4.66,4.455,1.139,5.936,3.127C268.96,221.133,268.518,217.176,266.246,216.689z"/>
<path fill="#B7634A" d="M285.477,210.663c-2.16,0.098-4.123-0.276-5.565-2.29c2.036-1.273,3.755-0.271,5.497,0.383
	C285.432,209.391,285.453,210.027,285.477,210.663z"/>
<path fill="#5E7D87" d="M358.769,173.563c-3.635,4.22-5.387,4.213-9.896-0.617C352.685,174.921,355.693,175.656,358.769,173.563z"/>
<g id="XMLID_1_">
	<g>
		<path fill="#F54F5B" d="M144.85,244.082c0.12,8.32,0.09,16.63-0.01,24.95c-0.03,2.45,0.2,5.11-2.49,6.6
			c-19.01,0.011-38.02,0.021-57.03,0.021c-1.75-1.91-1.49-4.311-1.51-6.61c-0.06-7.13-0.1-14.271,0-21.399
			c0.06-3.74-1.33-5.5-5.21-5.44c-2.01,0.021-4.47,0.39-5.45-2.32c1.38-1.39,2.81-1.11,4.26-0.13c0.49,0.05,0.99,0.141,1.48,0.15
			c6.52,0.16,6.47,0.149,6.52-6.211c0.05-5.779,0.23-11.56,0.35-17.34c8.55,0.101,17.09,0.2,25.63,0.301
			c10.64,0.14,21.28,0.279,31.92,0.42c0.49,0.449,0.85,0.979,1.08,1.609C145.43,227.132,144.729,235.611,144.85,244.082z"/>
		<path fill="#47A32C" d="M117.24,176.912c1.56,2.52-0.26,3.939-2.07,4.52c-0.03,0.01-0.05,0.021-0.08,0.03
			c0.02-1.13-0.76-1.87-1.89-1.84c-1.1,0.021-1.91,0.36-2.49,0.92c-0.07-0.21-0.13-0.46-0.17-0.729c0.05-0.041,0.1-0.07,0.15-0.11
			c0.04,0.021,0.08,0.05,0.12,0.08c1.91-0.011,3.3-0.761,3.69-2.931C115.41,176.872,116.33,176.893,117.24,176.912z"/>
		<path fill="#47A32C" d="M118.51,185.882c-0.75,4.74-3,1.92-4.89,0.97c-0.01-0.359-0.07-0.76-0.14-1.16
			c0.77-0.879,1.16-2.119,1.47-3.369C116.83,182.162,117.569,184.402,118.51,185.882z"/>
		<path fill="#47A32C" d="M115.649,170.282c0.84,2.87-0.62,4.329-3.19,4.89c-0.26,0.061-0.56,0.13-0.86,0.17
			c-0.65-0.51-1.3-1.05-2.01-1.4c0.06-1.979,2.23-2.64,3.56-3.799C113.979,170.191,114.819,170.232,115.649,170.282z"/>
		<path fill="#47A32C" d="M113.2,179.622c1.13-0.03,1.91,0.71,1.89,1.84c-1.41,0.46-3.62,1.431-4.38-0.92
			C111.29,179.982,112.1,179.643,113.2,179.622z"/>
		<path fill="#E4E4E4" d="M115.089,181.462c0,0.17-0.02,0.36-0.07,0.55c-0.02,0.1-0.05,0.2-0.07,0.311
			c-0.19,0.01-0.39,0.05-0.61,0.119c-1.42,0.451-1.1,1.891-0.86,3.25c-0.57,0.67-1.36,1.131-2.48,1.24
			c0.18-0.13,0.35-0.27,0.51-0.38c0.71-0.5,0.38-1.17,0.03-1.729c-0.35-0.57-1.01-0.98-1.77-1.24c0.1,0,0.2,0,0.31-0.01
			c0.61-0.74,0.54-1.461-0.04-2.15c0.17-0.34,0.39-0.64,0.67-0.88C111.47,182.893,113.68,181.922,115.089,181.462z"/>
		<path fill="#47A32C" d="M114.339,182.441c0.22-0.069,0.42-0.109,0.61-0.119c-0.31,1.25-0.7,2.49-1.47,3.369
			C113.24,184.332,112.919,182.893,114.339,182.441z"/>
		<path fill="#E5DBDA" d="M114.5,176.842v0.01c-1.27,0.95-2.54,1.9-3.81,2.851c-0.85-0.64-1.88-0.7-2.93-0.71
			c-0.41-1.19-1.48-0.98-2.79-0.28c-0.62-0.22-1.18-0.62-1.63-1.33c2.12,0.591,2.26-1.36,2.71-2.89c0.29-0.25,0.57-0.52,0.85-0.78
			c1.04-0.319,1.9-0.149,2.69,0.229c-0.01,0.131,0,0.271,0.01,0.41c0.1,1.09,1.09,1.131,2,0.99
			C112.49,176.042,113.399,176.712,114.5,176.842z"/>
		<path fill="#47A32C" d="M110.689,179.702c1.27-0.95,2.54-1.9,3.81-2.851c-0.39,2.17-1.78,2.92-3.69,2.931
			C110.77,179.752,110.729,179.723,110.689,179.702z"/>
		<path fill="#47A32C" d="M111.6,163.422c1,0.36,0.72,1.37,0.32,2.09c-0.74,1.29-1.66,2.04-2.76,2.211c-0.23-1-1.1-1.91-2.63-2.82
			C107.79,163.032,109.609,162.702,111.6,163.422z"/>
		<path fill="#47A32C" d="M111.54,184.822c0.35,0.56,0.68,1.229-0.03,1.729c-0.16,0.11-0.33,0.25-0.51,0.38
			c-0.04,0-0.08,0.01-0.12,0.01c-2.16,0.15-1.16-1.89-1.51-3.01c0.01-0.109,0.02-0.22,0.04-0.33c0.11-0.01,0.23-0.01,0.35-0.02
			c0,0,0,0,0.01,0C110.53,183.842,111.189,184.252,111.54,184.822z"/>
		<path fill="#7F6132" d="M112.04,214.962c0,0.08-0.43,1.12-0.65,1.69c-8.52-2.44-17.07-1.95-25.63-0.301h-0.01
			c0.94-3.569,1.68-7.14,0.35-10.789c-0.22-0.61-0.41-1.24-0.62-1.871c-0.48-8.739-0.48-8.75,8.78-8.729c0.09,0,0.18,0,0.27,0
			c0.27,0.75,0.68,1.49,1.29,2.22c3.81,0.271,4.7-0.76,4.73-2.18c1.23,0.02,2.46,0.03,3.69,0.04c2.3,0.29,4.74-0.71,6.92,0.75
			c-0.79,2.931-1.07,5.92-0.94,8.95C110.05,208.271,106.41,212.432,112.04,214.962z"/>
		<path fill="#1E160B" d="M111.39,216.652c-8.54-0.101-17.08-0.2-25.63-0.301C94.319,214.702,102.87,214.212,111.39,216.652z"/>
		<path fill="#98D02E" d="M111.6,175.342c-0.91,0.141-1.9,0.1-2-0.99c-0.01-0.14-0.02-0.279-0.01-0.41
			C110.3,174.292,110.95,174.832,111.6,175.342z"/>
		<path fill="#47A32C" d="M110.879,186.941c0.04,0,0.08-0.01,0.12-0.01c-0.54,0.41-1.14,0.83-1.62,0.75
			c-3.7-0.609-5.26,5.83-9.36,3.66c-0.03-0.49,0.05-0.939,0.29-1.31c-0.1-0.83-0.25-1.64-0.49-2.39c0.38-0.301,0.89-0.521,1.53-0.67
			c1.11-0.721,3.11,0.84,3.55-2.101c0.08-0.53,0.44-0.92,0.97-1.19c0.01,0,0.02,0,0.02-0.01c1-0.439,1.98-0.34,3.04-0.05
			c0.16-0.011,0.32-0.011,0.48-0.021c-0.02,0.11-0.03,0.221-0.04,0.33C109.72,185.052,108.72,187.092,110.879,186.941z"/>
		<path fill="#47A32C" d="M110.04,181.422c0.58,0.689,0.65,1.41,0.04,2.15c-0.11,0.01-0.21,0.01-0.31,0.01c-0.01,0-0.01,0-0.01,0
			c-0.11-0.04-0.22-0.07-0.34-0.1C109.52,182.712,109.709,182.002,110.04,181.422z"/>
		<path fill="#47A32C" d="M110,181.372c0.01,0.021,0.03,0.03,0.04,0.05c-0.33,0.58-0.52,1.29-0.62,2.061
			c-1.21-0.32-2.61-0.26-3.53,0.189c0,0.01-0.01,0.01-0.02,0.01c-0.18,0.08-0.37,0.19-0.56,0.311c-1.44,0.96-2.72,0.77-3.3-1.12
			c0.28-1.7,1.08-3.09,2.59-3.96c0.13-0.07,0.25-0.141,0.37-0.2c0.87,0.3,1.84,0.271,2.79,0.28c0.14,0.38,0.21,0.92,0.19,1.63
			C107.919,182.132,108.089,182.132,110,181.372z"/>
		<path fill="#EA5F69" d="M109.76,183.582c-0.12,0.01-0.24,0.01-0.35,0.02c0-0.039,0-0.08,0.01-0.119
			C109.54,183.512,109.649,183.542,109.76,183.582z"/>
		<path fill="#EA5F69" d="M109.419,183.482c-0.01,0.039-0.01,0.08-0.01,0.119c-0.16,0.01-0.32,0.01-0.48,0.021
			c-1.06-0.29-2.04-0.39-3.04,0.05C106.81,183.223,108.209,183.162,109.419,183.482z"/>
		<path fill="#E5DBDA" d="M109.16,167.723c0.34,1.449-0.64,3.079-2.9,5.129c-0.91-0.84-1.17-2.569-2.98-2.199
			c0.57-0.811,0.84-1.66,0.96-2.53c0.02,0,0.04-0.011,0.06-0.011c0.39-1.189,0.34-2.109,0.01-2.85c-0.01-0.5-0.01-1,0.02-1.49
			c0.84,0.38,1.58,0.75,2.2,1.13c-0.03,0.029-0.05,0.07-0.07,0.1c0.02,0.73,0.05,1.471,0.08,2.2
			C107.5,167.682,108.379,167.852,109.16,167.723z"/>
		<path fill="#47A32C" d="M109.16,167.723c-0.78,0.129-1.66-0.041-2.62-0.521c-0.03-0.729-0.06-1.47-0.08-2.2
			c0.02-0.029,0.04-0.07,0.07-0.1C108.06,165.813,108.93,166.723,109.16,167.723z"/>
		<path fill="#98D02E" d="M107.76,178.992c-0.95-0.01-1.92,0.02-2.79-0.28C106.28,178.012,107.35,177.802,107.76,178.992z"/>
		<path fill="#47A32C" d="M106.26,172.852c-0.05,0.301-0.02,0.58,0.09,0.86c-0.12,0.24-0.21,0.5-0.3,0.78
			c-0.95,0.869-1.92,1.689-2.97,2.439c0.08,0.16,0.16,0.311,0.26,0.45c-0.31-0.08-0.68-0.22-1.09-0.43
			c-1.31-2.37-0.59-4.41,1.03-6.3C104.129,171.592,104.479,173.182,106.26,172.852z"/>
		<path fill="#47A32C" d="M106.26,172.852c-1.78,0.33-2.13-1.26-2.98-2.199C105.089,170.282,105.35,172.012,106.26,172.852z"/>
		<path fill="#EF5B64" d="M104.31,165.262c0.33,0.74,0.38,1.66-0.01,2.85c-0.02,0-0.04,0.011-0.06,0.011
			C104.37,167.182,104.319,166.223,104.31,165.262z"/>
		<path fill="#47A32C" d="M106.05,174.492c-0.45,1.529-0.59,3.48-2.71,2.89c-0.1-0.14-0.18-0.29-0.26-0.45
			C104.129,176.182,105.1,175.361,106.05,174.492z"/>
		<path fill="#47A32C" d="M104.31,165.262c0.01,0.961,0.06,1.92-0.07,2.86c-0.52,0.069-1.05,0.13-1.57,0.19
			c-2.03-0.851-4.13-1.74-4.11-4.371c0.01-1.19,1.27-1.68,2.23-1.29C102.29,163.262,103.729,163.982,104.31,165.262z"/>
		<path fill="#E7D7D7" d="M100.02,191.342c0.02,1.15,0.55,2.53,0.53,3.66c-2.01-0.02-4.02-0.04-6.02-0.04
			c-0.51-1.34-0.57-2.72-0.51-4.12c1.01-0.18,1.84-0.609,1.85-1.619c0.01-1.111-0.71-1.711-1.68-2.041c0.01-0.25,0.01-0.5,0-0.75
			c0.26-0.01,0.54-0.09,0.87-0.26c1.17-0.64,1.14-1.439,0.81-2.26c2.35,0.68,3.4,2.05,3.95,3.73c-0.87,0.659-1.09,1.709-0.69,3.129
			C99.439,191.012,99.74,191.202,100.02,191.342z"/>
		<path fill="#E7D7D7" d="M100.31,190.032c-0.24,0.37-0.32,0.819-0.29,1.31c-0.28-0.14-0.58-0.33-0.89-0.57
			c-0.4-1.42-0.18-2.47,0.69-3.129C100.06,188.393,100.209,189.202,100.31,190.032z"/>
		<path fill="#E7D7D7" d="M94.53,194.962c2,0,4.01,0.021,6.02,0.04c-0.03,1.42-0.92,2.45-4.73,2.18
			C95.209,196.452,94.8,195.712,94.53,194.962z"/>
		<path fill="#47A32C" d="M99.04,174.402c0.23,2.72-1.5,4.189-3.65,5.35c-0.42,0.221-0.8,0.52-1.21,0.78h-0.01
			c-2.17,0.14-1.89-1.47-2-2.8c0.1-0.311,0.18-0.641,0.3-0.94c0.88-2.2,2.52-3.46,4.82-3.771
			C98.229,172.893,98.97,173.521,99.04,174.402z"/>
		<path fill="#E7D7D7" d="M95.87,183.912c0.33,0.82,0.36,1.62-0.81,2.26c-0.33,0.17-0.61,0.25-0.87,0.26
			c-0.03-0.97-0.16-1.939-0.49-2.91C94.53,183.592,95.25,183.732,95.87,183.912z"/>
		<path fill="#E7D7D7" d="M94.189,187.182c0.97,0.33,1.69,0.93,1.68,2.041c-0.01,1.01-0.84,1.439-1.85,1.619
			C94.06,189.643,94.189,188.412,94.189,187.182z"/>
		<path fill="#E7D7D7" d="M95.1,182.292c0.21,0.521,0.56,1.08,0.77,1.62c-0.62-0.18-1.34-0.32-2.17-0.391
			c0.33,0.971,0.46,1.94,0.49,2.91c-1.2,0.08-1.83-1.34-2.62-2.189c-0.44-0.48-0.84-0.99-1.26-1.49c1.48-1.66,1.1-3.33,0.05-5.01
			c0.6-0.01,1.21-0.01,1.81-0.01c-0.74,2.81-0.36,3.33,2,2.8h0.01C94.479,181.122,94.85,181.682,95.1,182.292z"/>
		<path fill="#47A32C" d="M94.33,167.792c-1.34,1.04-2.67,2.08-4.01,3.13c-0.98-1.38-2.65-1.9-3.79-3.09
			C91.149,163.872,92.669,163.872,94.33,167.792z"/>
		<path fill="#E7D7D7" d="M92.169,177.732c0.11,1.33-0.17,2.939,2,2.8C91.81,181.063,91.43,180.542,92.169,177.732z"/>
		<path fill="#47A32C" d="M94.189,187.182c0,1.23-0.13,2.461-0.17,3.66c-0.73,0.141-1.56,0.15-2.25,0.15
			c-1.62,0-3.9,0.119-3.98-1.891c-0.07-1.979,2.17-2.09,3.83-2.319C92.459,186.822,93.399,186.912,94.189,187.182z"/>
		<path fill="#47A32C" d="M90.359,177.742c1.05,1.68,1.43,3.35-0.05,5.01C90.33,181.082,90.339,179.412,90.359,177.742z"/>
		<path fill="#47A32C" d="M90.339,177.662l0.02,0.08c-0.02,1.67-0.03,3.34-0.05,5.01c-1.9,0.85-3.25,4.93-5.95,1
			C86.87,182.232,87.93,179.282,90.339,177.662z"/>
		<path fill="#F5E9E9" d="M90.339,177.662c-4.28-0.221-4.46,3.59-5.98,6.09c-2.58-0.41-5.17-2.061-7.74,0.03
			c-0.15-0.07-0.3-0.16-0.45-0.23c0.06-0.6,0.1-1.2,0.16-1.8c1.33-0.04,1.94-0.779,2.01-2.061c1,0.94,1.49,3.061,3.36,2.15
			c1.58-0.77,1.24-2.5,0.88-3.99c-0.4-1.619-0.94-3.16-2.22-4.319c1.74-1.64,4.06-2.94,3.83-5.65c0.01,0,0.03-0.01,0.04-0.01
			c0.46-0.09,0.88-0.229,1.25-0.42c0.35,0.13,0.7,0.25,1.05,0.38c-1.06,3.9,1.96,2.76,3.79,3.09
			C85.02,173.182,89.29,175.422,90.339,177.662z"/>
		<path fill="#47A32C" d="M84.359,183.752c1.52-2.5,1.7-6.311,5.98-6.09C87.93,179.282,86.87,182.232,84.359,183.752z"/>
		<path fill="#47A32C" d="M90.319,170.922c-1.83-0.33-4.85,0.811-3.79-3.09C87.669,169.021,89.339,169.542,90.319,170.922z"/>
		<path fill="#47A32C" d="M88.02,162.312c0.09,2.28-0.72,4.24-2.54,5.14c-0.49-0.181-0.98-0.36-1.46-0.54c-0.38,0-0.76,0-1.14,0.01
			c-0.13-0.609-0.09-1.35-0.27-1.8c0.14-2.7,0.96-4.85,3.59-5.43C88.26,159.232,87.979,161.112,88.02,162.312z"/>
		<path fill="#F5E9E9" d="M84.02,166.912c0.48,0.18,0.97,0.359,1.46,0.54c-0.37,0.19-0.79,0.33-1.25,0.42
			c-0.01,0-0.03,0.01-0.04,0.01C84.169,167.572,84.109,167.252,84.02,166.912z"/>
		<path fill="#F5E9E9" d="M84.189,167.882c0.23,2.71-2.09,4.011-3.83,5.65c-0.14,0.03-0.29,0.05-0.43,0.069
			c0.94-2.069,2.45-3.8,3.59-5.75C83.7,167.912,83.919,167.932,84.189,167.882z"/>
		<path fill="#F5E9E9" d="M84.02,166.912c0.09,0.34,0.15,0.66,0.17,0.97c-0.27,0.05-0.49,0.03-0.67-0.03
			C83.7,167.542,83.859,167.232,84.02,166.912z"/>
		<path fill="#F5E9E9" d="M82.879,166.922c0.38-0.01,0.76-0.01,1.14-0.01c-0.16,0.32-0.32,0.63-0.5,0.939
			C83.129,167.732,82.959,167.361,82.879,166.922z"/>
		<path fill="#F5E9E9" d="M82.879,166.922c0.08,0.439,0.25,0.811,0.64,0.93c-1.14,1.95-2.65,3.681-3.59,5.75
			c-0.19,0.041-0.38,0.07-0.57,0.101c-0.68-0.74-1.57-0.79-2.46-0.87c0.02-0.13,0.05-0.26,0.07-0.4c0.1-0.649-0.13-1.039-0.5-1.24
			c0.03-0.189,0.08-0.359,0.13-0.529c0.64,0.46,1.41,0.83,2.28,1.1c1.89,0.08,1.59-1.35,1.57-2.41c-0.02-0.74-0.13-1.43-0.33-2.05
			C80.959,167.063,81.89,166.962,82.879,166.922z"/>
		<path fill="#98D02E" d="M82.58,177.852c0.36,1.49,0.7,3.221-0.88,3.99c-1.87,0.91-2.36-1.21-3.36-2.15
			c0.02-0.029,0.04-0.049,0.06-0.08c0.04-0.039,0.08-0.079,0.13-0.119c1.7,0.279,3.47,0.67,2.55-2.17
			c-0.36-1.131-0.95-2.19-1.12-3.391c0.15-0.09,0.29-0.229,0.4-0.399C81.64,174.691,82.18,176.232,82.58,177.852z"/>
		<path fill="#98D02E" d="M81.93,188.082c0.7,0.79,0.11,1.59-0.58,2.01c-1.89,1.18-3.81,2.721-6.02,0.551
			c0.61-1.19,1.24-2.381,1.14-3.781c0.17-0.01,0.33-0.02,0.49-0.039C78.78,186.592,80.6,186.563,81.93,188.082z"/>
		<path fill="#98D02E" d="M78.319,196.702c1.81,2.021,5.84,3.11,2.98,7.09c-2.46-0.69-4.71-1.7-6.15-3.979
			C76.109,198.682,77.31,197.792,78.319,196.702z"/>
		<path fill="#98D02E" d="M81.08,177.322c0.92,2.84-0.85,2.449-2.55,2.17c-0.05,0.04-0.09,0.08-0.13,0.119
			c1.34-1.659,1.65-3.5,1.08-5.489c0.18-0.03,0.34-0.09,0.48-0.19C80.129,175.132,80.72,176.191,81.08,177.322z"/>
		<path fill="#47A32C" d="M80.45,169.352c0.02,1.061,0.32,2.49-1.57,2.41c-0.87-0.27-1.64-0.64-2.28-1.1
			c0.55-1.939,1.84-2.9,3.52-3.36C80.319,167.922,80.43,168.611,80.45,169.352z"/>
		<path fill="#F5E9E9" d="M79.93,173.602c0.14-0.02,0.29-0.039,0.43-0.069c-0.11,0.17-0.25,0.31-0.4,0.399
			c-0.02-0.1-0.03-0.199-0.04-0.3C79.919,173.622,79.93,173.611,79.93,173.602z"/>
		<path fill="#F5E9E9" d="M79.919,173.632c0.01,0.101,0.02,0.2,0.04,0.3c-0.14,0.101-0.3,0.16-0.48,0.19
			c-0.03-0.14-0.07-0.28-0.12-0.42c0.19-0.03,0.38-0.06,0.57-0.101C79.93,173.611,79.919,173.622,79.919,173.632z"/>
		<path fill="#47A32C" d="M76.31,163.842c1.97,0.48,3.25,1.721,3.81,3.46c-1.68,0.46-2.97,1.421-3.52,3.36
			c-1.3-0.95-2.1-2.311-2.23-4.189C74.28,165.182,74.39,163.372,76.31,163.842z"/>
		<path fill="#98D02E" d="M79.479,174.122c0.57,1.989,0.26,3.83-1.08,5.489c-0.02,0.021-0.04,0.041-0.06,0.061
			c-0.31-1.949-0.18-3.83,0.79-5.57c0.05,0.021,0.1,0.03,0.15,0.041C79.35,174.143,79.419,174.132,79.479,174.122z"/>
		<path fill="#F5E9E9" d="M79.359,173.702c0.05,0.14,0.09,0.28,0.12,0.42c-0.06,0.01-0.13,0.021-0.2,0.021
			c-0.05-0.011-0.1-0.021-0.15-0.041C79.2,173.962,79.28,173.832,79.359,173.702z"/>
		<path fill="#F5F3F2" d="M79.359,173.702c-0.08,0.13-0.16,0.26-0.23,0.399c-0.83-0.189-1.58-0.569-2.3-1
			c0.03-0.09,0.05-0.18,0.07-0.27C77.79,172.912,78.68,172.962,79.359,173.702z"/>
		<path fill="#A02B35" d="M78.399,179.611c-0.02,0.031-0.04,0.051-0.06,0.08c0-0.01,0-0.01,0-0.02
			C78.359,179.652,78.379,179.632,78.399,179.611z"/>
		<path fill="#F5F3F2" d="M78.339,179.672c0,0.01,0,0.01,0,0.02c-0.07,1.281-0.68,2.021-2.01,2.061c0.15-0.141,0.26-0.26,0.31-0.359
			C77.39,181.032,77.76,180.232,78.339,179.672z"/>
		<path fill="#DFC2C3" d="M78.319,196.702c-1.94,0.13-4.98-0.841-3.17,3.11c-0.54,0.14-1.06,0.31-1.55,0.52
			c-0.17-0.21-0.33-0.42-0.47-0.63c-0.49,0.01-0.89,0.069-1.21,0.149l-0.1-0.229c1.79-0.72,1.4-3.06,1.42-5.11
			c0.41-1.15-0.36-1.93-0.88-2.789c1.35-2.48,1.51-5.091,0.89-7.791c0.97-0.09,1.94-0.18,2.91-0.27l0.46,0.12
			c-0.73,0.989-1.93,1.97-0.15,3.079c-1.25,0.99-3.08,1.82-1.14,3.781C74.91,193.361,75.229,195.712,78.319,196.702z"/>
		<path fill="#98D02E" d="M75.149,199.813c-1.81-3.951,1.23-2.98,3.17-3.11C77.31,197.792,76.109,198.682,75.149,199.813z"/>
		<path fill="#F5F3F2" d="M79.129,174.102c-0.97,1.74-1.1,3.621-0.79,5.57c-0.58,0.561-0.95,1.36-1.7,1.721
			c0.17-0.301-0.03-0.461-0.61-0.5c1.99-2.341,1.57-4.771,0.64-7.211c0.06-0.18,0.12-0.38,0.16-0.58
			C77.55,173.532,78.3,173.912,79.129,174.102z"/>
		<path fill="#F5E9E9" d="M76.47,171.191c0.37,0.201,0.6,0.591,0.5,1.24c-0.02,0.141-0.05,0.271-0.07,0.4
			c-0.2-0.01-0.4-0.03-0.6-0.061C76.31,172.191,76.37,171.662,76.47,171.191z"/>
		<path fill="#F5F3F2" d="M76.899,172.832c-0.02,0.09-0.04,0.18-0.07,0.27c-0.18-0.109-0.35-0.22-0.53-0.33
			C76.5,172.802,76.7,172.822,76.899,172.832z"/>
		<path fill="#F5F3F2" d="M76.83,173.102c-0.04,0.2-0.1,0.4-0.16,0.58c-0.12-0.3-0.24-0.609-0.37-0.91
			C76.479,172.882,76.649,172.992,76.83,173.102z"/>
		<path fill="#F5F3F2" d="M76.03,180.893c0.58,0.039,0.78,0.199,0.61,0.5c-0.14,0.08-0.3,0.129-0.48,0.159
			C76.03,181.361,75.99,181.143,76.03,180.893z"/>
		<path fill="#47A32C" d="M76.3,172.771c0.13,0.301,0.25,0.61,0.37,0.91c-0.66,1.971-2.12,3.211-4.46,3.42
			c-1.12-0.17-2.81,0.211-2.44-1.56c0.55-2.67,2.56-4.08,5.19-4.5c0.52-0.08,1.1-0.069,1.51,0.149
			C76.37,171.662,76.31,172.191,76.3,172.771z"/>
		<path fill="#F5F3F2" d="M76.64,181.393c-0.05,0.1-0.16,0.219-0.31,0.359c-0.07-0.061-0.13-0.13-0.17-0.2
			C76.339,181.521,76.5,181.473,76.64,181.393z"/>
		<path fill="#98D02E" d="M76.47,186.861c0.1,1.4-0.53,2.591-1.14,3.781C73.39,188.682,75.22,187.852,76.47,186.861z"/>
		<path fill="#98D02E" d="M76.33,181.752c-0.06,0.6-0.1,1.2-0.16,1.8c-0.05-0.03-0.1-0.06-0.15-0.079
			c-0.32-0.65-0.29-1.291,0.1-1.91c0.01,0,0.03,0,0.04-0.011C76.2,181.622,76.26,181.691,76.33,181.752z"/>
		<path fill="#98D02E" d="M76.02,183.473c0.05,0.02,0.1,0.049,0.15,0.079c0,0.04-0.01,0.07-0.01,0.11
			c-1.04-0.75-2.02-0.76-2.91,0.27c-2.77-0.56-4.95-1.88-6-4.64c-0.27-0.71,0.03-1.37,0.81-1.46c2.76-0.33,5.29,0.189,7.26,2.37
			c0.22,0.239,0.47,0.46,0.71,0.69c-0.04,0.25,0,0.469,0.13,0.659c-0.01,0.011-0.03,0.011-0.04,0.011
			C75.729,182.182,75.7,182.822,76.02,183.473z"/>
		<path fill="#98D02E" d="M76.16,183.662c-0.97,0.09-1.94,0.18-2.91,0.27C74.14,182.902,75.12,182.912,76.16,183.662z"/>
		<path fill="#98D02E" d="M74.78,202.182c0.64,1.801,2.29,4.23,0.36,5.44c-1.85,1.149-2.64-1.851-4.03-2.84
			c0.35-0.72-0.1-1.75-0.33-2.7c0.83-0.75,1.77-1.33,2.82-1.75C74.06,200.922,74.54,201.512,74.78,202.182z"/>
		<path fill="#98D02E" d="M73.129,199.702c0.14,0.21,0.3,0.42,0.47,0.63c-1.05,0.42-1.99,1-2.82,1.75
			c-0.24-0.99-0.25-1.891,1.14-2.23C72.24,199.771,72.64,199.712,73.129,199.702z"/>
		<path fill="#98D02E" d="M72.359,191.723c0.52,0.859,1.29,1.639,0.88,2.789C72.51,193.712,71.5,193.012,72.359,191.723z"/>
		<path fill="#98D02E" d="M73.24,194.512c-0.32,0.061-0.64,0.131-0.97,0.2c-2.32,0.53-4.56,0.58-6.56-1
			c-0.72-0.58-0.42-1.29,0.1-1.64c2.09-1.4,4.31-1.391,6.55-0.35C71.5,193.012,72.51,193.712,73.24,194.512z"/>
		<path fill="#DFC2C3" d="M71.819,199.622l0.1,0.229c-1.39,0.34-1.38,1.24-1.14,2.23c-0.52,0.46-1,0.99-1.43,1.59
			c-0.69,0.61-0.83,1.439-0.93,2.29c-0.27-0.13-0.59-0.19-0.95-0.14c-0.61,0.08-1.04,0.35-1.35,0.75c-0.41-1.57-0.04-3.25,0.23-4.91
			c1.47,0.109,3.25,0.689,2.96-1.92C70.43,199.922,71.24,199.861,71.819,199.622z"/>
		<path fill="#98D02E" d="M70.169,208.342c1.32,2.86,1.21,5.74-0.28,8.98c-3.16-2.12-4.91-4.551-4.61-8.04
			c0.08-0.95,0.26-2.011,0.84-2.71c0.19,0.76,0.56,1.49,1.21,2.18c0.91-0.71,0.97-1.76,1.09-2.79
			C69.27,206.361,69.75,207.462,70.169,208.342z"/>
		<path fill="#98D02E" d="M69.31,199.742c0.29,2.609-1.49,2.029-2.96,1.92C67.18,200.782,68.16,200.132,69.31,199.742z"/>
		<path fill="#98D02E" d="M68.22,198.102c0.4,0.521,0.73,1.09,1.09,1.641c-1.15,0.39-2.13,1.04-2.96,1.92
			c-0.41-0.28-0.82-0.54-1.21-0.83c-1.69-1.25-3.73-2.21-3.99-4.641c-0.02-0.199,0.68-0.649,1.07-0.699
			C64.709,195.202,66.72,196.092,68.22,198.102z"/>
		<path fill="#98D02E" d="M68.419,205.962c-0.12,1.03-0.18,2.08-1.09,2.79c-0.65-0.689-1.02-1.42-1.21-2.18
			c0.31-0.4,0.74-0.67,1.35-0.75C67.83,205.771,68.149,205.832,68.419,205.962z"/>
	</g>
</g>
<path fill="#F09CA4" d="M312.019,155.612c-4.943-2.398-9.635-5.483-15.335-5.871c-1.963-0.134-3.316-1.191-5.563-3.43
	c8.378,1.934,15.681,3.147,21.547,8.325C312.451,154.959,312.234,155.286,312.019,155.612z"/>
<path fill="#F44F5B" d="M233.693,132.204c-1.238,5.843-3.444,10.728-0.063,16.818c6.884,12.397,7.14,26.468,7.708,40.3
	c0.083,2.012-0.972,2.549-2.771,2.539c-11.153-0.063-22.309-0.142-33.461-0.063c-2.94,0.021-3.147-1.588-3.146-3.823
	c0.014-12.934,1.99-25.69,6.598-37.626c2.373-6.148,0.664-10.883-0.77-16.277c-2.528-0.487-1.514,5.52-5.319,2.886
	c-1.896-1.312-4.118-2.144-6.162-3.252c-1.569-0.851-1.265-2.117-0.641-3.431c2.139-4.51,4.276-9.02,6.388-13.542
	c1.575-3.374,4.82-3.18,7.719-3.549c3.119-0.397,2.504,2.556,3.265,4.133c1.596,3.306,3.474,6.289,7.59,6.241
	c3.845-0.044,5.841-2.766,7.263-5.967c2.026-4.566,5.82-5.315,9.334-1.326c3.863,4.386,5.932,9.975,8.844,15.003
	c0.793,1.368,0.009,2.134-1.301,2.595c-1.098,0.386-2.227,0.755-3.226,1.332C237.934,137.274,234.941,137.721,233.693,132.204z"/>
<path fill="#E2E2E2" d="M221.313,252.455c-0.119,9.305,1.168,8.242-7.646,8.286c-10.288,0.052-9.34,0.827-9.346-9.441
	c-0.006-7.552,0-7.579,10.25-7.538C222.555,243.793,221.18,243.051,221.313,252.455z"/>
<path fill="#E2E2E2" d="M200.311,252.289c0,8.468,0,8.468-9.484,8.464c-7.519-0.003-7.519-0.003-7.516-9.286
	c0.004-7.72,0.004-7.75,10.09-7.705C201.491,243.799,200.186,242.953,200.311,252.289z"/>
<path fill="#E2E2E2" d="M226.305,252.031c0.129-9.438-1.205-8.244,8.141-8.254c8.971-0.008,7.76-1.112,7.873,8.024
	c0.006,0.5-0.004,0.998,0.002,1.496c0.074,7.455,0.074,7.515-7.314,7.438C224.938,260.639,226.463,262.118,226.305,252.031z"/>
<path fill="#F3505C" d="M189.288,221.527c4.752-0.008,8.188,3.322,8.227,7.979c0.041,4.662-3.369,8.259-7.958,8.392
	c-4.856,0.143-8.538-3.488-8.471-8.354C181.151,224.771,184.464,221.535,189.288,221.527z"/>
<path fill="#D7D9D9" d="M203.027,97.208c12.521,0,25.043,0,37.564,0c0.004,0.335,0.008,0.67,0.01,1.005c-12.522,0-25.047,0-37.572,0
	C203.029,97.877,203.027,97.542,203.027,97.208z"/>
<path fill="#D7D7D7" d="M251.206,76.181c1.377,0.2,2.64,0.363,3.896,0.571c1.681,0.279,5.301-0.173,5.604,0.25
	c1.484,2.067-0.16,4.476-0.311,6.742c-0.049,0.743-1.939,1.01-2.418,1.092c-1.043,0.179-4.168-0.25-6.863-1.092
	C250.605,81.26,250.766,78.914,251.206,76.181z"/>
<path fill="#D6D7D8" d="M205.374,217.605c12.241-2.705,30.338-2.488,35.14,0C228.633,217.605,217.003,217.605,205.374,217.605z"/>
<path fill="#F15468" d="M206.227,92.375c10.116,0,20.232,0,30.351,0c0.005,0.32,0.011,0.639,0.016,0.958
	c-10.108,0-20.218,0-30.325,0C206.253,93.014,206.238,92.694,206.227,92.375z"/>
<path fill="#CACACC" d="M205.493,212.982c10.918,0,21.838,0,32.757,0c0.001,0.18,0.001,0.357,0.001,0.537
	c-10.896,0-21.793,0-32.688,0C205.538,213.341,205.516,213.162,205.493,212.982z"/>
<path fill="#525151" d="M225.35,229.395c0.063,1.793-0.44,3.299-1.572,3.263c-2.258-0.074-1.928-2.743-3.059-4.076
	c-0.548-0.647,0.141-1.756,1.577-1.394C223.846,227.578,225.486,227.703,225.35,229.395z"/>
<path fill="#A2A6A7" d="M231.212,229.693c-0.049,1.52-0.887,2.067-2.276,1.933c-0.937-0.092-1.523-0.569-1.545-1.565
	c-0.031-1.47,0.893-2.039,2.176-2.17C230.902,227.754,231.247,228.579,231.212,229.693z"/>
<path fill="#262525" d="M218.245,234.146c-1.274-3.207-0.603-5.306-1.119-7.177C219.605,228.471,219.146,230.525,218.245,234.146z"
	/>
<path fill="#C0C1C2" d="M192.11,83.336c-2.762,0.319-5.322,0.843-8.766-0.26C186.972,82.629,189.646,82.545,192.11,83.336z"/>
<path fill="#C1C2C4" d="M191.891,81.493c-2.535,0-5.071,0-7.606,0C186.979,80.636,189.651,80.528,191.891,81.493z"/>
<path fill="#C1C3C2" d="M184.53,78.948c2.564,0,5.128,0,7.691,0c0.002,0.172,0.003,0.344,0.004,0.516c-2.611,0-5.222,0-7.833,0
	C184.438,79.292,184.485,79.12,184.53,78.948z"/>
<path fill="#D03E48" d="M220.596,157.603c1.69,6.73,6.571,10.944,11.506,15.092c1.918,1.611,1.104,3.675,1.084,5.574
	c-0.012,1.146-0.482,2.433-1.586,2.929c-1.351,0.604-2.06-0.746-2.857-1.505C222.428,173.707,220.577,166.044,220.596,157.603z"/>
<path fill="#F2747D" d="M190.691,226.18c-4.979,4.422-5.183,4.922,1.123,7.071c-3.218-0.06-5.955-0.701-6.305-2.69
	C185.76,227.918,189.004,227.604,190.691,226.18z"/>
</svg>
