<?xml version="1.0" encoding="utf-8"?>
<!-- Generator: Adobe Illustrator 16.0.3, SVG Export Plug-In . SVG Version: 6.00 Build 0)  -->
<!DOCTYPE svg PUBLIC "-//W3C//DTD SVG 1.1//EN" "http://www.w3.org/Graphics/SVG/1.1/DTD/svg11.dtd">
<svg version="1.1" id="Capa_1" xmlns="http://www.w3.org/2000/svg" xmlns:xlink="http://www.w3.org/1999/xlink" x="0px" y="0px"
	 width="450.901px" height="292.531px" viewBox="0 0 450.901 292.531" enable-background="new 0 0 450.901 292.531"
	 xml:space="preserve">
<path fill-rule="evenodd" clip-rule="evenodd" fill="#DDDDDD" d="M316.547,113.889c2.101,0.228,3.444,1.343,3.986,3.399
	c-0.199,0.011-0.396,0.021-0.595,0.03c-0.856-2.13-2.498-2.91-4.716-2.91c-30.492,0.01-60.982-0.004-91.473-0.002
	c-3.299,0-4.881,1.62-4.882,4.923c-0.005,13.5-0.007,27-0.009,40.5c-0.002,3.553,1.58,5.16,5.094,5.162
	c14.63,0.008,29.258,0.011,43.888,0.021c2.257,0.001,4.514,0.044,6.771,0.066c1.028,0.41,2.057,0.416,3.085,0
	c1.944,0.001,3.89,0.002,5.835,0.002c0.02,0.354,0.287,0.518,0.533,0.697c-0.361,1.715-0.236,3.455-0.25,5.186
	c-0.023,2.873,0.02,5.748-0.019,8.622c-0.015,1.118,0.429,1.556,1.55,1.552c15.293-0.031,30.586-0.038,45.879-0.055
	c9.801-0.01,19.604-0.055,29.404-0.006c1.522,0.009,3.059,0.519,4.342,1.362c1.461,0.962,2.351,2.305,2.343,4.226
	c-0.042,11.959,0,23.916-0.048,35.872c-0.009,1.884-0.225,3.774-0.344,5.659c-0.147,2.326-2.986,4.262-5.969,4.266
	c-9.598,0.014-19.193,0.006-28.791,0.006c-3.9,0-7.801,0.027-11.701-0.017c-1.074-0.012-1.575,0.241-1.561,1.448
	c0.064,5.593,0.053,11.186,0.067,16.779c-1.95,0-3.901,0-5.853,0c0.01-5.328,0.01-10.656,0.039-15.984
	c0.004-0.981-0.082-1.645-1.373-1.636c-8.66,0.05-17.32,0.045-25.979,0.029c-0.952-0.002-1.387,0.257-1.377,1.298
	c0.045,5.431,0.035,10.862,0.043,16.293c-2.258,0-4.518,0-6.775,0c0.012-4.564,0.029-9.129,0.037-13.693
	c0.006-3.95,0.001-3.9-4-3.916c-1.254-0.005-1.563,0.432-1.555,1.606c0.033,5.334-0.011,10.669-0.027,16.003
	c-2.156,0-4.313,0-6.469,0c0.021-7.622,0.041-15.246,0.061-22.867c0.487-1.498,0.163-3.042,0.211-4.564
	c0.03-0.949,0.404-1.429,1.336-1.511c0.559-0.049,1.123-0.214,1.668-0.162c0.88,0.084,1.213-0.345,1.327-1.105l-0.003,0.019
	c0.097-0.077,0.191-0.156,0.288-0.233c0.114-0.026,0.226-0.051,0.339-0.077c0.093-0.077,0.186-0.153,0.277-0.232
	c0.125-0.025,0.249-0.05,0.373-0.078c0.088-0.074,0.176-0.149,0.262-0.224c0.244-0.239,0.488-0.481,0.733-0.72
	c0.067-0.066,0.13-0.138,0.186-0.214l0.065-0.083c0.504,0.017,0.955,0.131,1.209,0.627c-0.142,0.219-0.285,0.438-0.427,0.656
	c-0.071,0.069-0.143,0.141-0.208,0.215l-0.047,0.052c-0.482,0.013-0.848,0.159-0.84,0.732c-0.035,2.305-0.088,4.609-0.102,6.916
	c-0.025,3.776-0.012,3.7,3.799,3.83c1.404,0.047,1.673-0.378,1.674-1.69c0.006-15.082,0.076-30.164,0.129-45.246
	c0.01-2.812,0.006-2.812-2.894-2.387c-0.438-1.129,0.046-1.578,1.157-1.592c0.488-0.006,1.003,0.089,1.429-0.267
	c0.458-0.46,0.323-1.048,0.326-1.597c0.011-2.96,0.009-5.92,0.013-8.879c0.002-3.447,0-3.371-3.477-3.47
	c-1.5-0.042-2.33,0.312-2.229,1.935c-2.056-0.951-4.265-0.468-6.398-0.68c0.131-1.438-0.913-1.218-1.757-1.218
	c-13.342-0.008-26.683-0.007-40.022-0.011c-4.548-0.001-6.831-2.258-6.833-6.765c-0.004-13.085-0.014-26.168,0.017-39.252
	c0.003-1.161-0.156-1.756-1.555-1.75c-11.341,0.052-22.68,0.058-34.019-0.004c-1.485-0.008-1.557,0.876-1.641,1.831
	c-0.115,1.325,0.953,0.94,1.625,0.942c8.928,0.021,17.855,0.012,26.783,0.017c3.768,0.001,6.068,2.322,6.088,6.091
	c0.066,13.027,0.143,26.056,0.215,39.084c0.002,0.359,0.025,0.719,0.039,1.076c-0.6-0.039-1.199-0.078-1.8-0.117
	c0.032-0.15,0.095-0.299,0.095-0.448c-0.02-13.34-0.031-26.681-0.074-40.021c-0.009-2.644-1.778-4.304-4.564-4.305
	c-30.631-0.013-61.262-0.016-91.894-0.008c-2.873,0.001-4.635,1.751-4.622,4.593c0.061,13.803,0.139,27.604,0.229,41.406
	c0.018,2.769,1.765,4.492,4.544,4.495c17.291,0.017,34.582,0.022,51.873,0.014c0.453,0,1.065,0.288,1.315-0.425
	c0.423,0.718,0.212,1.492,0.202,2.248c-3.071-1.026-3.756-0.553-3.674,2.54c0.003,0.151,0.02,0.304,0.031,0.456
	c0.597,0.558,1.342,0.352,2.008,0.308c1.285-0.081,1.944,0.306,1.625,1.697c-0.58-0.302-1.207-0.187-1.816-0.189
	c-2.098-0.013-2.1-0.005-2.092,2.019c0.061,14.369,0.124,28.735,0.183,43.103c0.019,4.622,0.015,4.624,4.625,4.254
	c0.154-0.013,0.308-0.021,0.459-0.049c1.733-0.32,2.314-1.028,2.321-2.785c0.005-1.643,0.029-3.283,0.044-4.924
	c2.093,0.548,4.226,0.317,6.347,0.31c0.043,0.558,0.122,1.117,0.123,1.677c0.011,9.002,0.011,18.006,0.013,27.009
	c-2.156,0-4.313,0-6.468,0c-0.006-4.764-0.011-9.526-0.016-14.29c-0.002-1.69,0.002-3.381-0.017-5.071
	c-0.006-0.435,0.067-1.065-0.709-0.76c-1.688,0.664-3.447,0.421-5.169,0.372c-1.281-0.04-1.538,0.467-1.527,1.617
	c0.051,6.043,0.037,12.088,0.046,18.132c-2.259,0-4.518,0-6.777,0c0.011-6.153-0.001-12.304,0.051-18.457
	c0.011-1.193-0.589-1.304-1.533-1.304c-9.179,0.014-18.357,0.017-27.536-0.023c-1.114-0.005-1.542,0.319-1.532,1.479
	c0.054,6.103,0.044,12.204,0.056,18.306c-1.951,0-3.902,0-5.853,0c0.014-6.33,0.035-12.659,0.032-18.988
	c0-0.502-0.156-1.002-0.24-1.501c0.488-0.275,1.22,0.013,1.537-0.664c0.242-0.104,0.48-0.122,0.709,0.037
	c0.401,0.524,0.979,0.479,1.542,0.479c10.445-0.003,20.89-0.004,31.334-0.017c0.528,0,1.178,0.195,1.41-0.573
	c-0.019-16.054-0.049-32.108-0.032-48.161c0.001-1.131-0.5-1.218-1.392-1.217c-3.947,0.01-7.894-0.03-11.842-0.053
	c-0.358-0.774-1.066-0.469-1.625-0.471c-8.487-0.021-16.975-0.014-25.461-0.035c-0.625-0.002-1.355,0.277-1.841-0.414
	c0.662-0.051,1.324-0.143,1.986-0.145c6.619-0.01,13.239,0.025,19.858-0.018c3.043-0.021,6.086-0.287,9.128-0.268
	c3.272,0.023,6.535,0.414,9.817,0.305c1.994-0.068,2.332-0.408,2.048-2.388c-0.335-2.339-0.335-2.339-2.705-2.339
	c-13.342,0.002-26.684,0.008-40.026,0c-2.672-0.002-4.772-0.968-5.881-3.582c-0.25-0.588-0.339-1.168-0.337-1.79
	c0.008-2.618-0.042-5.234,0.009-7.852c0.207-10.767-0.458-21.526-0.323-32.294c0.055-4.391,2.104-6.464,6.527-6.464
	c3.49,0,6.985,0.127,10.468-0.022c14.765-0.635,29.536-0.101,44.303-0.277c0.953-0.012,1.98,0.042,2.062-1.249
	c0.104-1.637-0.735-2.542-2.208-2.543c-13.495-0.001-26.991,0.003-40.488,0.002c-3.63,0-6.176-2.519-6.157-6.161
	c0.005-1.218-0.242-2.458,0.188-3.657c0.194-0.009,0.389-0.018,0.583-0.027c0.019,1.437,0.046,2.873,0.054,4.309
	c0.015,2.84,1.823,4.688,4.715,4.69c28.332,0.014,56.664,0.011,84.996,0.03c0.867,0,1.352-0.223,1.74-1.091
	c1.007-2.254,2.823-3.449,5.323-3.521c0.718-0.02,1.445-0.076,2.155,0.01c1.328,0.16,1.65-0.424,1.608-1.665
	c-0.079-2.254,0.003-4.514,0.017-6.771c0.183,0.018,0.366,0.037,0.549,0.055c0.555,3.142-0.069,6.327,0.35,9.474
	c-1.729,0-3.455,0-5.182,0c0.344,0.308,0.693,0.337,1.043,0.337c30.401,0.003,60.803,0.005,91.204,0.001
	C315.483,114.191,316.071,114.318,316.547,113.889z M324.212,182.28c0-0.021,0-0.041,0-0.063c-12.675,0-25.353,0.02-38.03-0.027
	c-1.229-0.004-1.648,0.232-1.648,1.565c0.008,15.448-0.041,30.896-0.119,46.344c-0.006,1.151,0.217,1.549,1.484,1.546
	c25.096-0.034,50.192-0.017,75.289-0.011c3.654,0.001,5.131-1.461,5.153-5.119c0.081-13.087,0.157-26.173,0.237-39.259
	c0.02-3.445-1.498-4.975-4.953-4.975C349.155,182.278,336.684,182.28,324.212,182.28z M269.23,234.412
	c0.653-3.427,0.993-6.57,0.62-9.756c-0.066-0.565-0.424-1.325-1.167-1.195c-0.684,0.12-0.786,0.874-0.831,1.493
	c-0.15,2.104,0.232,4.18,0.461,6.257C268.419,232.178,268.381,233.236,269.23,234.412z M271.767,221.463
	c-0.031-0.143-0.05-0.223-0.067-0.303c-0.186,0.044-0.371,0.083-0.553,0.143c-0.008,0.001,0.041,0.244,0.053,0.243
	C271.388,221.531,271.577,221.494,271.767,221.463z"/>
<path fill-rule="evenodd" clip-rule="evenodd" fill="#DDDDDD" d="M219.118,221.743c-12.26,0.003-24.52,0.004-36.781,0.016
	c-0.707,0.001-1.441-0.142-2.113,0.234c-2.122,0.008-4.255,0.238-6.348-0.31c-0.426-0.28-0.89-0.518-1.271-0.851
	c-1.153-1.01-2.381-2.061-2.388-3.73c-0.05-12.281-0.05-24.564-0.066-36.847c0.32-1.392-0.339-1.778-1.625-1.697
	c-0.667,0.044-1.412,0.25-2.008-0.308c0.253,0.021,0.508,0.074,0.76,0.057c0.849-0.057,1.848,0.335,2.502-0.287
	c0.506-0.482,0.003-1.357,0.154-2.043c0.054-0.246,0.15-0.482,0.227-0.723c0.011-0.756,0.221-1.53-0.202-2.248
	c1.311-4.063,4.113-5.451,8.326-5.381c11.588,0.191,23.181,0.074,34.772,0.08c0.601,0.039,1.2,0.078,1.8,0.117
	c9.74,0.001,19.481,0.008,29.221,0.003c7.279-0.006,14.559-0.029,21.839-0.044c2.134,0.212,4.343-0.271,6.399,0.68
	c0.068,0.475,0.319,0.846,0.646,1.186c1.571,1.644,2.246,3.586,1.998,5.861c-0.076,0.705-0.013,1.427-0.013,2.143
	c-0.001,2.727-0.001,2.727,2.734,2.821c-0.426,0.355-0.94,0.261-1.429,0.267c-1.111,0.014-1.596,0.463-1.157,1.591
	c-0.03,11.265-0.059,22.529-0.099,33.794c-0.005,1.133-0.166,2.24-0.986,3.129c-0.254-0.496-0.705-0.61-1.209-0.627
	c0.615-0.889,0.696-1.894,0.698-2.937c0.013-6.209,0.037-12.417,0.069-18.625c0.038-7.493,0.101-14.982,0.124-22.474
	c0.009-3.119-1.791-4.988-4.778-4.988c-30.84-0.015-61.679-0.021-92.519-0.023c-2.657,0-3.917,0.936-4.765,3.463
	c-0.021,0.105-0.041,0.209-0.061,0.314c0.007,8.221,0.014,16.441,0.021,24.664c-0.225,0.402-0.225,0.806,0.003,1.207
	c0.002,0.728,0.004,1.452,0.007,2.18c-0.283,3.281-0.326,6.563,0.021,9.842c0.01,1.334,0.025,2.669,0.029,4.002
	c0.011,3.668,1.649,5.285,5.368,5.285c30.422,0.007,60.844,0.012,91.266,0.014c0.664,0,1.33-0.054,1.995-0.081
	c-0.114,0.761-0.447,1.189-1.327,1.105c-0.545-0.052-1.109,0.113-1.668,0.162c-0.932,0.082-1.306,0.562-1.336,1.511
	c-0.048,1.522,0.276,3.066-0.211,4.564c-0.03-0.081-0.045-0.165-0.042-0.251c0.005-1.638-0.028-3.276,0.029-4.913
	c0.038-1.08-0.292-1.537-1.473-1.561c-8.031-0.164-16.052,0.328-24.078,0.332c-0.367,0-0.718,0.043-0.989,0.324
	c-4.405-0.001-8.81-0.001-13.215-0.001c-0.153,0.031-0.225,0.114-0.164,0.274c0.004,0.193,0.006,0.385,0.012,0.58
	c-0.535,0.081-1.324,0.006-0.91,0.917c0.787,1.732,0.621,3.583,0.29,5.271c-1.067,5.44-1.49,10.903-1.449,16.435
	c0.015,1.818-0.374,3.64-0.577,5.46c-0.411,0-0.822,0-1.233,0c-1.019-4.59-0.459-9.28-0.878-13.913
	c-0.184-2.033-0.375-4.065-0.563-6.098c-0.249-2.687-1.386-5.435,0.774-8.379C220.01,222.819,219.563,222.283,219.118,221.743z
	 M222.342,221.724c-0.092,0.166-0.17,0.272-0.199,0.39c-0.008,0.027,0.162,0.152,0.221,0.134c0.111-0.037,0.202-0.141,0.303-0.218
	C222.575,221.945,222.485,221.859,222.342,221.724z"/>
<path fill-rule="evenodd" clip-rule="evenodd" fill="#DDDDDD" d="M219.118,221.743c0.445,0.54,0.893,1.076,2.156,0.546
	c-2.16,2.944-1.023,5.692-0.774,8.379c0.188,2.032,0.38,4.064,0.563,6.098c0.419,4.633-0.141,9.323,0.878,13.913
	c-0.924,0-1.849,0-2.772,0C219.153,241.035,219.136,231.389,219.118,221.743z"/>
<path fill-rule="evenodd" clip-rule="evenodd" fill="#DDDDDD" d="M223.174,250.679c0.203-1.82,0.592-3.642,0.577-5.46
	c-0.041-5.531,0.382-10.994,1.449-16.435c0.331-1.688,0.497-3.538-0.29-5.271c-0.414-0.911,0.375-0.836,0.91-0.917
	c0.028,3.784,0.067,7.567,0.082,11.352c0.023,5.576,0.029,11.154,0.043,16.73C225.022,250.679,224.098,250.679,223.174,250.679z"/>
<path fill-rule="evenodd" clip-rule="evenodd" fill="#2E58A6" d="M125.413,229.563c-0.229-0.159-0.467-0.142-0.71-0.036
	c-6.495-0.015-12.991-0.031-19.486-0.048c-0.561-0.021-1.121-0.06-1.682-0.06c-7.562-0.007-15.123-0.009-22.685-0.012
	c-1.058-0.002-2.128,0.054-3.049-0.622l0.019-0.001c-0.318-0.509-0.724-0.929-1.238-1.242l0.004,0.016
	c-0.479-0.979-0.552-2.015-0.557-3.093c-0.053-12.95-0.124-25.901-0.208-38.852c-0.009-1.333,0.035-2.646,0.454-3.923l-0.018,0.018
	c0.292-0.094,0.474-0.293,0.567-0.579c0.186-0.663,0.841-0.688,1.311-0.963c0.534,0.246,1.01-0.112,1.517-0.147
	c0.821,0.02,1.64,0.055,2.459,0.055c18.569,0.006,37.139,0.01,55.709,0.007c2.872,0,5.743-0.038,8.613-0.06
	c3.948,0.022,7.895,0.063,11.842,0.053c0.892-0.001,1.394,0.086,1.392,1.217c-0.017,16.053,0.014,32.107,0.033,48.16
	c-10.152-0.002-20.304-0.008-30.457,0.001C127.966,229.451,126.689,229.523,125.413,229.563z M120.456,206.331
	c1.848,0,3.696,0,5.544,0c4.193-0.002,4.193-0.002,3.787-4.185c-0.556-5.726-3.576-9.408-8.696-10.606
	c-5.165-1.21-10.16,0.668-12.789,5.139c-3.02,5.135-3.194,10.612-0.591,15.909c2.168,4.411,6.025,6.331,11,6.116
	c4.79-0.207,8.162-2.4,10.177-6.713c1.13-2.416,1.026-2.551-1.646-2.551c-0.309,0-0.622,0.037-0.923-0.007
	c-0.906-0.138-1.348,0.228-1.681,1.103c-0.735,1.925-2.155,3.209-4.15,3.811c-4.992,1.505-9.328-1.769-9.457-7.074
	c-0.024-0.946,0.422-0.958,1.107-0.952C114.911,206.338,117.684,206.327,120.456,206.331z M154.359,204.873c-0.035,0-0.07,0-0.105,0
	c0-3.234,0.004-6.466-0.002-9.7c-0.006-3.469-0.01-3.439-3.524-3.359c-0.867,0.018-1.13,0.261-1.139,1.136
	c-0.052,4.991,0.288,9.991-0.164,14.978c-0.184,2.037-0.829,3.925-2.536,5.204c-1.958,1.468-4.186,1.7-6.417,0.806
	c-2.073-0.829-2.43-2.75-2.508-4.72c-0.045-1.181-0.03-2.362-0.037-3.542c-0.021-4.259-0.078-8.52-0.032-12.777
	c0.012-1.121-0.595-1.245-1.33-1.045c-1.115,0.306-3.186-0.98-3.259,0.85c-0.24,6.046-0.169,12.111,0.025,18.161
	c0.128,4.025,1.985,6.274,5.789,7.372c3.435,0.988,6.617,0.284,9.389-2.05c0.291-0.245,0.493-0.753,0.997-0.53
	c0.448,0.199,0.467,0.656,0.412,1.068c-0.12,0.902,0.282,1.192,1.136,1.112c0.56-0.054,1.137-0.073,1.691,0.002
	c1.245,0.165,1.678-0.248,1.646-1.573C154.3,212.469,154.359,208.669,154.359,204.873z M101.825,215.075
	c-0.006-2.836-0.006-2.836-2.327-2.836c-2.969,0-2.969,0-2.954,2.959c0.013,2.602,0.013,2.602,2.556,2.604
	C101.831,217.804,101.831,217.804,101.825,215.075z"/>
<path fill-rule="evenodd" clip-rule="evenodd" fill="#DDDDDD" d="M278.543,113.85c0.047-0.972,0.039-1.952,0.157-2.915
	c0.173-1.412-0.467-1.718-1.769-1.712c-10.523,0.043-21.045,0.024-31.568,0.025c-2.823,0-5.651-0.108-8.469,0.029
	c-3.282,0.16-6.393-2.917-6.354-6.249c0.156-13.241,0.109-26.486,0.027-39.729c-0.02-3.193,2.366-6.068,6.045-6.057
	c27.514,0.078,55.027,0.053,82.539,0.027c2.504-0.002,5-0.512,7.509-0.285c3.386,0.305,5.153,0.884,6.241,4.149
	c0.187,0.558,0.195,1.106,0.195,1.667c0.004,6.416,0.25,12.844-0.063,19.245c-0.354,7.232-0.09,14.457-0.246,21.682
	c-0.061,2.825-2.512,5.125-5.402,5.231c-13.691,0.506-27.388,0.216-41.082,0.286c-2.229,0.011-2.239,0.003-2.211,2.306
	c0.01,0.767,0.092,1.534,0.139,2.302C282.336,113.852,280.44,113.851,278.543,113.85z M282.012,57.845c0,0.005,0,0.011,0,0.016
	c-15.242,0-30.484-0.004-45.727,0.003c-3.006,0.001-4.707,1.638-4.713,4.633c-0.029,13.703-0.037,27.405-0.021,41.108
	c0.002,2.796,1.723,4.486,4.533,4.487c30.434,0.013,60.867,0.017,91.301,0.007c2.959-0.001,4.517-1.617,4.537-4.593
	c0.09-13.498,0.177-26.995,0.256-40.491c0.023-3.719-1.451-5.169-5.209-5.17C311.984,57.845,296.999,57.845,282.012,57.845z
	 M280.667,113.076c-0.013,0.054-0.027,0.106-0.041,0.16c0.926,0,1.853,0,2.778,0c0.001-0.053,0.001-0.106,0.003-0.16
	C282.493,113.076,281.581,113.076,280.667,113.076z"/>
<path fill-rule="evenodd" clip-rule="evenodd" fill="#DDDDDD" d="M146.434,180.021c-2.87,0.021-5.742,0.06-8.613,0.06
	c-18.57,0.003-37.14-0.001-55.709-0.007c-0.819,0-1.639-0.035-2.459-0.055c0.033-0.352,0.329-0.471,0.57-0.64
	c0.479-0.321,0.992-0.466,1.583-0.464c11.699,0.039,23.397,0.063,35.096,0.096c0.202,0,0.403,0.056,0.606,0.09
	c0.486,0.691,1.216,0.412,1.841,0.414c8.487,0.021,16.974,0.014,25.461,0.035C145.368,179.552,146.075,179.246,146.434,180.021z"/>
<path fill-rule="evenodd" clip-rule="evenodd" fill="#DDDDDD" d="M227.516,104.379c-0.183-0.018-0.366-0.037-0.549-0.054
	c-0.012-10.819-0.02-21.639-0.033-32.458c-0.003-3.412-1.691-5.12-5.078-5.121c-12.204-0.002-24.408,0.008-36.613,0.006
	c-18.357-0.002-36.714-0.01-55.072-0.016c-0.021-0.105-0.042-0.209-0.063-0.314c17.649-0.008,35.297-0.019,52.946-0.024
	c12.417-0.004,24.833-0.007,37.248,0.007c1.213,0.001,2.419-0.266,3.647,0.19c2.525,0.937,3.754,2.973,3.681,5.689
	c-0.133,4.92-0.226,9.847,0.053,14.766c0.117,2.102-0.102,4.19-0.031,6.295C227.776,97.016,227.579,100.7,227.516,104.379z"/>
<path fill-rule="evenodd" clip-rule="evenodd" fill="#DDDDDD" d="M76.275,181.69c-0.418,1.277-0.462,2.59-0.454,3.923
	c0.084,12.95,0.155,25.901,0.208,38.852c0.005,1.078,0.078,2.114,0.557,3.093c-0.88-0.192-1.039-0.986-1.16-1.64
	c-0.221-1.2-0.357-2.432-0.36-3.651c-0.025-12.67-0.015-25.342-0.017-38.014C75.049,183.2,75.182,182.217,76.275,181.69z"/>
<path fill-rule="evenodd" clip-rule="evenodd" fill="#DDDDDD" d="M284.065,165.778c-0.246-0.18-0.514-0.344-0.533-0.697
	c10.909-0.014,21.816-0.027,32.726-0.041c0.195,0.113,0.391,0.228,0.585,0.342c-1.515,0.604-3.104,0.51-4.686,0.51
	c-8.65-0.008-17.3-0.004-25.949-0.012C285.493,165.878,284.78,165.813,284.065,165.778z"/>
<path fill-rule="evenodd" clip-rule="evenodd" fill="#DDDDDD" d="M278.543,113.85c1.896,0.001,3.793,0.002,5.689,0.002
	c10.771,0.012,21.542,0.024,32.314,0.037c-0.477,0.43-1.064,0.303-1.616,0.303c-30.401,0.004-60.803,0.002-91.204-0.001
	c-0.35,0-0.699-0.029-1.043-0.337c1.727,0,3.453,0,5.182,0C244.757,113.852,261.651,113.851,278.543,113.85z"/>
<path fill-rule="evenodd" clip-rule="evenodd" fill="#DDDDDD" d="M319.939,117.318c0.198-0.01,0.396-0.02,0.595-0.031
	c0.443,0.948,0.543,1.944,0.516,2.984c-0.365,13.599-0.537,27.2-0.521,40.803c-0.495-0.575-0.307-1.271-0.308-1.918
	c-0.017-11.159-0.02-22.316-0.027-33.477c-0.017-0.559-0.025-1.118-0.05-1.677C320.045,121.776,320.407,119.535,319.939,117.318z"/>
<path fill-rule="evenodd" clip-rule="evenodd" fill="#DDDDDD" d="M105.216,229.479c6.495,0.017,12.991,0.033,19.486,0.048
	c-0.316,0.676-1.048,0.388-1.536,0.663c-5.97,0.115-11.941,0.142-17.914-0.012C105.241,229.946,105.229,229.712,105.216,229.479z"/>
<path fill-rule="evenodd" clip-rule="evenodd" fill="#DDDDDD" d="M105.216,229.479c0.012,0.233,0.024,0.468,0.036,0.699
	c-1.811-0.06-3.623-0.159-5.434-0.165c-6.437-0.021-12.873-0.01-19.31-0.01c-1.086,0-2.146-0.052-2.707-1.218
	c0.92,0.676,1.991,0.62,3.048,0.622c7.562,0.003,15.123,0.005,22.685,0.012C104.095,229.419,104.655,229.458,105.216,229.479z"/>
<path fill-rule="evenodd" clip-rule="evenodd" fill="#DDDDDD" d="M320.194,125.681c0.008,11.16,0.011,22.317,0.027,33.477
	c0.001,0.646-0.188,1.343,0.308,1.918c-0.19,2.143-1.56,3.741-3.687,4.307c-0.194-0.114-0.39-0.229-0.586-0.342
	c2.939-1.115,3.656-2.176,3.664-5.407c0.012-4.2,0.004-8.401,0.041-12.601C320.024,139.915,320.116,132.798,320.194,125.681z"/>
<path fill-rule="evenodd" clip-rule="evenodd" fill="#DDDDDD" d="M126.359,108.333c-0.194,0.009-0.389,0.018-0.583,0.027
	c0.003-12.636,0.006-25.273,0.009-37.91c0.136,0.016,0.271,0.031,0.406,0.046c-0.002,4.491-0.004,8.983-0.005,13.475
	c-0.012,5.375-0.027,10.75-0.027,16.126c0,0.295,0.126,0.59,0.195,0.886c0,0.203,0,0.405,0,0.608
	c-0.284,0.518-0.284,1.035,0.002,1.551c0,0.403,0.001,0.806,0.001,1.208c0,0.114,0,0.229,0,0.343
	c0.001,0.402,0.002,0.804,0.003,1.206c-0.271,0.417-0.271,0.834,0.001,1.25C126.361,107.544,126.359,107.938,126.359,108.333z"/>
<path fill-rule="evenodd" clip-rule="evenodd" fill="#DDDDDD" d="M126.19,70.497c-0.135-0.016-0.27-0.031-0.406-0.046
	c0.172-0.862,0.115-1.865,1.29-2.116l-0.008-0.008C126.774,69.049,126.482,69.773,126.19,70.497z"/>
<path fill-rule="evenodd" clip-rule="evenodd" fill="#DDDDDD" d="M130.107,66.421c0.021,0.105,0.042,0.209,0.063,0.314
	c-0.829,0.325-1.657,0.651-2.485,0.977l0.002,0.003C128.158,66.654,129.139,66.549,130.107,66.421z"/>
<path fill-rule="evenodd" clip-rule="evenodd" fill="#CED4D7" d="M80.222,179.379c-0.241,0.169-0.537,0.288-0.57,0.64
	c-0.507,0.035-0.983,0.394-1.517,0.147C78.7,179.558,79.353,179.182,80.222,179.379z"/>
<path fill-rule="evenodd" clip-rule="evenodd" fill="#DDDDDD" d="M76.582,227.542c0.514,0.313,0.92,0.733,1.238,1.242
	C76.938,228.839,76.52,228.431,76.582,227.542z"/>
<path fill-rule="evenodd" clip-rule="evenodd" fill="#CED4D7" d="M76.824,181.129c-0.093,0.286-0.275,0.485-0.567,0.579
	C76.257,181.331,76.436,181.126,76.824,181.129z"/>
<path fill-rule="evenodd" clip-rule="evenodd" fill="#CED4D7" d="M127.075,68.334c0.01-0.194,0.112-0.296,0.306-0.312l-0.003-0.002
	c-0.104,0.102-0.208,0.204-0.311,0.306L127.075,68.334z"/>
<path fill-rule="evenodd" clip-rule="evenodd" fill="#CED4D7" d="M127.38,68.023c0.011-0.194,0.113-0.296,0.308-0.308l-0.002-0.003
	c-0.103,0.103-0.206,0.206-0.308,0.309L127.38,68.023z"/>
<path fill-rule="evenodd" clip-rule="evenodd" fill="#FFE610" d="M127.377,68.021c0.103-0.103,0.205-0.206,0.308-0.309
	c0.828-0.326,1.657-0.651,2.485-0.977c18.358,0.006,36.715,0.014,55.072,0.016c12.205,0.002,24.409-0.008,36.613-0.006
	c3.387,0,5.075,1.708,5.078,5.121c0.014,10.82,0.021,21.64,0.033,32.458c-0.014,2.257-0.096,4.517-0.017,6.771
	c0.042,1.241-0.28,1.825-1.608,1.665c-0.71-0.086-1.438-0.03-2.155-0.01c-2.5,0.071-4.316,1.267-5.323,3.521
	c-0.389,0.868-0.873,1.091-1.74,1.091c-28.332-0.02-56.664-0.016-84.996-0.03c-2.893-0.002-4.7-1.85-4.715-4.69
	c-0.007-1.437-0.035-2.872-0.054-4.309c0-0.394,0.002-0.789,0.003-1.183c0-0.417-0.001-0.834-0.001-1.25
	c-0.001-0.402-0.001-0.803-0.003-1.206c0-0.114,0-0.229,0-0.343c0-0.403-0.001-0.806-0.001-1.208
	c-0.001-0.517-0.002-1.034-0.002-1.551c0-0.203,0-0.405,0-0.608c0.008-4.093,0.043-8.186,0.009-12.279
	c-0.013-1.577,0.194-3.167-0.177-4.733c0.001-4.491,0.003-8.983,0.005-13.475c0.292-0.724,0.583-1.447,0.876-2.17
	C127.17,68.224,127.274,68.123,127.377,68.021z M158.25,106.327c0.396-0.107,0.514,0.072,0.629,0.236
	c3.368,4.756,11.713,4.139,15.015-0.527c3.874-5.474,4.288-11.455,2.085-17.571c-2.468-6.843-11.265-8.783-16.633-3.861
	c-0.241,0.22-0.395,0.635-0.967,0.452c0-3.042,0.002-6.115,0-9.188c-0.003-3.269-0.004-3.235-3.236-3.199
	c-0.913,0.01-1.238,0.221-1.233,1.2c0.059,11.29,0.083,22.58,0.082,33.87c0,0.938,0.279,1.217,1.221,1.222
	C157.993,108.977,157.993,109.021,158.25,106.327z M194.434,104.88c0.214-0.391,0.266-0.535,0.356-0.646
	c4.47-5.406,8.894-10.853,13.453-16.182c1.069-1.25,1.386-2.482,1.381-4.028c-0.003-1.136-0.282-1.485-1.456-1.472
	c-5.387,0.063-10.774,0.028-16.163,0.028c-2.933,0-2.89,0-2.858,2.943c0.011,0.958,0.311,1.216,1.238,1.201
	c3.131-0.05,6.26-0.019,9.391-0.018c1.094,0,2.188,0,3.553,0c-0.465,0.666-0.695,1.052-0.979,1.396
	c-4.3,5.221-8.548,10.488-12.958,15.617c-1.133,1.32-1.33,2.642-1.307,4.206c0.013,0.838,0.332,1.028,1.096,1.026
	c6.619-0.022,13.239-0.011,19.859-0.019c0.34,0,0.921,0.128,0.962-0.236c0.122-1.111,0.256-2.273,0.048-3.351
	c-0.159-0.818-1.133-0.445-1.74-0.449C203.751,104.867,199.194,104.88,194.434,104.88z M185.186,95.904c-0.004,0-0.008,0-0.012,0
	c0-3.283,0.001-6.565-0.001-9.848c-0.003-3.393-0.004-3.342-3.36-3.36c-1.116-0.006-1.346,0.366-1.337,1.406
	c0.066,7.231,0.072,14.464,0.099,21.696c0.011,3.188,0.012,3.143,3.254,3.167c1.063,0.007,1.401-0.273,1.383-1.367
	C185.147,103.701,185.186,99.802,185.186,95.904z M143.155,106.099c0.003,2.839,0.003,2.839,2.635,2.839
	c2.666,0,2.666,0,2.644-2.666c-0.023-2.77-0.023-2.77-2.718-2.77C143.151,103.503,143.151,103.503,143.155,106.099z M185.161,75.43
	c-0.004-2.643-0.004-2.643-2.072-2.642c-2.608,0.001-2.608,0.001-2.605,2.869c0.004,2.313,0.004,2.313,2.227,2.312
	C185.166,77.967,185.166,77.967,185.161,75.43z"/>
<path fill-rule="evenodd" clip-rule="evenodd" fill="#E0013F" d="M213.058,167.706c-11.592-0.006-23.185,0.111-34.772-0.08
	c-4.213-0.07-7.015,1.317-8.326,5.381c-0.25,0.713-0.862,0.425-1.315,0.425c-17.291,0.009-34.582,0.003-51.873-0.014
	c-2.779-0.003-4.526-1.727-4.544-4.495c-0.09-13.802-0.168-27.604-0.229-41.406c-0.013-2.842,1.749-4.592,4.622-4.593
	c30.631-0.008,61.263-0.005,91.894,0.008c2.786,0.001,4.556,1.662,4.564,4.305c0.043,13.34,0.055,26.681,0.074,40.021
	C213.153,167.407,213.09,167.556,213.058,167.706z M195.438,140.737c1.074-0.004,2.15-0.038,3.223-0.002
	c0.636,0.021,0.872-0.152,0.925-0.842c0.239-3.105,0.266-3.104-2.786-3.123c-0.051-0.002-0.102-0.008-0.152,0
	c-0.969,0.15-1.35-0.192-1.299-1.235c0.086-1.734,0.02-3.478,0.023-5.216c0-0.478,0.035-0.957-0.664-0.936
	c-1.32,0.041-2.859-0.322-3.891,0.242c-0.768,0.42-0.17,2.077-0.253,3.18c-0.038,0.51-0.005,1.023-0.004,1.535
	c0.001,2.384,0.001,2.424-2.372,2.406c-0.891-0.004-1.248,0.166-1.246,1.166c0.002,2.811-0.051,2.81,2.809,2.81
	c0.254,0,0.51,0.017,0.766,0.025c0.018,5.581,0.037,11.165,0.051,16.745c0.014,4.979,1.801,6.659,6.73,6.313
	c2.309-0.162,2.221-0.166,2.338-2.477c0.069-1.347-0.25-1.714-1.642-1.558c-1.784,0.202-2.585-0.511-2.587-1.98
	C195.399,152.107,195.426,146.423,195.438,140.737z M176.434,151.734c2.873,0,5.746-0.042,8.617,0.023
	c0.979,0.023,1.232-0.292,1.173-1.222c-0.095-1.482-0.097-2.966-0.324-4.445c-0.733-4.779-3.349-7.99-7.984-9.348
	c-4.715-1.383-9.017-0.484-12.354,3.249c-4.289,4.798-4.544,10.495-2.831,16.329c1.387,4.722,5.689,7.859,10.375,8.051
	c5.756,0.234,9.911-2.169,12.071-6.979c1.123-2.504,1.123-2.504-1.639-2.508c-0.205,0-0.415,0.029-0.614-0.005
	c-1.168-0.199-1.78,0.229-2.243,1.395c-1.658,4.174-7.429,4.873-10.318,3.043c-2.25-1.429-2.893-3.71-3.332-6.135
	c-0.198-1.096-0.017-1.531,1.248-1.48C170.993,151.807,173.715,151.733,176.434,151.734z M141.457,140.161
	c0-1.172-0.002-1.889,0.001-2.605c0.002-0.374-0.005-0.768-0.505-0.775c-1.179-0.022-2.359-0.01-3.54-0.009
	c-0.399,0.001-0.513,0.257-0.521,0.599c-0.004,0.207-0.003,0.411-0.003,0.617c0.027,8.105,0.053,16.213,0.085,24.318
	c0.003,0.525-0.196,1.29,0.74,1.137c1.339-0.219,2.812,0.598,4.012-0.488c0.154-0.141,0.028-0.594,0.027-0.9
	c-0.008-2.668-0.031-5.336-0.02-8.003c0.011-2.463-0.061-4.933,0.116-7.384c0.274-3.807,3.486-6.382,7.451-6.155
	c3.175,0.183,4.598,2.144,4.615,6.361c0.001,0.409,0.001,0.821,0.001,1.231c0.006,3.95,0.01,7.901,0.017,11.852
	c0.007,3.58,0.008,3.545,3.643,3.527c0.933-0.004,1.235-0.223,1.21-1.194c-0.072-2.769,0.005-5.541-0.042-8.311
	c-0.06-3.485,0.242-6.981-0.208-10.455c-0.619-4.771-3.443-7.251-8.265-7.36C146.854,136.085,144.008,137.327,141.457,140.161z
	 M131.144,160.681c-0.015-2.951-0.015-2.951-2.349-2.951c-3.097,0-3.097,0-3.083,3.107c0.011,2.62,0.011,2.62,2.662,2.622
	C131.157,163.459,131.157,163.459,131.144,160.681z"/>
<path fill-rule="evenodd" clip-rule="evenodd" fill="#E0013F" d="M320.194,125.681c-0.078,7.117-0.17,14.234-0.232,21.352
	c-0.037,4.199-0.029,8.4-0.041,12.601c-0.008,3.231-0.725,4.292-3.664,5.407c-10.908,0.014-21.815,0.027-32.725,0.041
	c-1.945,0-3.891-0.001-5.835-0.002c-1.028,0-2.057,0-3.085,0c-2.257-0.022-4.514-0.065-6.771-0.066
	c-14.63-0.011-29.258-0.014-43.888-0.021c-3.514-0.002-5.096-1.609-5.094-5.162c0.002-13.5,0.004-27,0.009-40.5
	c0.001-3.303,1.583-4.923,4.882-4.923c30.49-0.002,60.98,0.013,91.473,0.002c2.218,0,3.859,0.779,4.716,2.91
	c0.468,2.217,0.106,4.458,0.205,6.686C320.168,124.563,320.177,125.122,320.194,125.681z M310.795,142.89
	c-0.054-0.921-0.078-1.845-0.166-2.762c-0.508-5.203-4.061-9.369-8.931-10.496c-5.59-1.295-10.753,0.574-13.485,5.221
	c-3.05,5.189-3.228,10.745-0.933,16.234c1.804,4.318,5.313,6.453,10.02,6.6c5.122,0.159,9.242-1.476,11.636-6.325
	C310.254,148.688,310.794,145.853,310.795,142.89z M253.354,133.527c0-1.298,0.342-2.463-0.085-3.147
	c-0.563-0.899-1.866-0.209-2.831-0.383c-1.312-0.236-1.58,0.361-1.572,1.594c0.045,7.233,0.002,14.466-0.01,21.699
	c-0.006,3.501-0.004,3.457,3.528,3.472c1.026,0.005,1.28-0.288,1.271-1.287c-0.049-4.31-0.008-8.618-0.005-12.927
	c0.001-1.232,0.034-2.461,0.317-3.67c0.775-3.301,4.134-5.427,7.936-5.012c2.621,0.285,3.967,2.273,4.025,5.95
	c0.004,0.257,0.001,0.515,0,0.771c-0.005,4.205-0.01,8.413-0.016,12.618c-0.006,3.663-0.008,3.64,3.709,3.552
	c0.765-0.016,1.064-0.168,1.059-1.008c-0.041-6.002,0.099-12.007-0.076-18.004c-0.168-5.834-3.807-8.789-9.622-8.275
	C257.975,129.734,255.583,131.101,253.354,133.527z M276.45,145.337c-0.006,0-0.01,0-0.016,0c0,2.719,0.002,5.439-0.002,8.158
	c-0.003,3.266-0.004,3.21,3.246,3.279c1.145,0.023,1.449-0.262,1.438-1.427c-0.059-6.054-0.019-12.11-0.01-18.165
	c0.002-3.178,0.004-3.17,3.16-3.219c0.432-0.008,1.156,0.242,1.238-0.258c0.173-1.049,0.289-2.192,0.033-3.195
	c-0.181-0.703-1.186-0.297-1.811-0.307c-2.549-0.041-2.549-0.017-2.437-2.466c0.155-3.395,0.154-3.406,3.584-3.601
	c0.474-0.027,0.706-0.064,0.794-0.634c0.537-3.484,0.17-3.932-3.281-3.725c-0.609,0.037-1.224,0.139-1.814,0.29
	c-2.119,0.544-3.479,1.786-3.885,4.044c-0.277,1.537-0.287,3.073-0.197,4.599c0.072,1.251-0.342,1.556-1.537,1.504
	c-2.192-0.095-2.195-0.022-2.195,2.115c0,0.153,0.021,0.312-0.004,0.461c-0.16,0.94,0.201,1.331,1.166,1.189
	c0.401-0.06,0.828,0.043,1.229-0.02c1.129-0.179,1.346,0.333,1.325,1.37C276.41,138.665,276.45,142.001,276.45,145.337z
	 M239.357,143.327c-0.013,0-0.024,0-0.038,0c0,3.33,0.001,6.66,0,9.992c-0.001,3.428,0.001,3.354,3.394,3.451
	c1.319,0.038,1.45-0.471,1.445-1.568c-0.036-7.174-0.011-14.347-0.005-21.521c0.004-3.576,0.005-3.518-3.595-3.536
	c-1.129-0.007-1.226,0.441-1.217,1.346C239.377,135.436,239.357,139.382,239.357,143.327z M233.511,153.923
	c0-2.889,0-2.889-2.532-2.889c-2.908,0-2.908,0-2.909,2.974c-0.001,2.722-0.001,2.722,2.677,2.722
	C233.512,156.729,233.512,156.729,233.511,153.923z M239.377,123.048c-0.006,2.55-0.006,2.55,2.398,2.549
	c2.382-0.001,2.382-0.001,2.391-3.333c0.006-2.029,0.006-2.029-2.014-2.027C239.385,120.239,239.385,120.239,239.377,123.048z"/>
<path fill-rule="evenodd" clip-rule="evenodd" fill="#2E58A6" d="M270.283,220.469c-0.665,0.027-1.331,0.081-1.995,0.081
	c-30.422-0.002-60.844-0.007-91.266-0.014c-3.719,0-5.357-1.617-5.368-5.285c-0.004-1.333-0.02-2.668-0.029-4.002
	c-0.007-3.279-0.014-6.561-0.021-9.842c-0.002-0.728-0.004-1.452-0.006-2.18c-0.001-0.401-0.002-0.806-0.004-1.207
	c-0.007-8.223-0.014-16.443-0.021-24.664c0.021-0.105,0.041-0.209,0.061-0.314c0.849-2.527,2.108-3.463,4.765-3.463
	c30.84,0.002,61.679,0.009,92.519,0.023c2.987,0,4.787,1.869,4.778,4.988c-0.023,7.491-0.086,14.98-0.124,22.474
	c-0.032,6.208-0.057,12.416-0.069,18.625c-0.002,1.043-0.083,2.048-0.698,2.937l-0.065,0.083c-0.091,0.047-0.151,0.118-0.186,0.214
	c-0.245,0.238-0.489,0.48-0.732,0.72c-0.087,0.074-0.175,0.149-0.263,0.224c-0.124,0.028-0.248,0.053-0.373,0.078
	c-0.092,0.078-0.185,0.155-0.277,0.232c-0.113,0.026-0.225,0.051-0.339,0.077c-0.097,0.077-0.191,0.156-0.288,0.233L270.283,220.469
	z M240.576,186.122c-0.192-0.104-0.386-0.208-0.579-0.313c0-0.91,0.297-1.975-0.074-2.691c-0.475-0.916-1.672-0.238-2.537-0.395
	c-1.426-0.26-1.91,0.232-1.893,1.781c0.088,7.286,0.031,14.572,0.025,21.858c-0.002,3.03,0,2.976,3.1,3.026
	c1.146,0.018,1.482-0.289,1.467-1.453c-0.064-4.617-0.069-9.236,0-13.853c0.049-3.087,0.977-5.808,4.047-7.192
	c3.16-1.424,6.951-0.398,6.879,4c-0.086,5.078-0.007,10.158-0.006,15.236c0,3.273-0.005,3.214,3.32,3.266
	c1.186,0.016,1.449-0.358,1.438-1.48c-0.048-4.926,0.004-9.85-0.002-14.777c-0.002-1.148,0.212-2.245,0.672-3.283
	c1.162-2.627,4.154-3.965,7.234-3.271c2.131,0.48,2.98,1.959,2.979,5.2c0,4.771-0.002,9.544-0.006,14.315
	c-0.004,3.34-0.007,3.303,3.289,3.287c0.979-0.005,1.341-0.252,1.332-1.286c-0.027-2.769,0.102-5.54,0.09-8.31
	c-0.015-3.535,0.197-7.073-0.16-10.607c-0.35-3.453-2.374-6.074-5.571-6.707c-3.651-0.722-7.034-0.213-9.733,2.703
	c-0.318,0.344-0.6,1.406-1.45,0.313c-3.249-4.177-9.071-4.485-12.866-0.727C241.176,185.154,240.904,185.667,240.576,186.122z
	 M207.144,196.548c-0.321,7.576,4.108,14.515,13.423,13.737c4.047-0.338,7.275-1.999,9.256-5.675
	c2.072-3.844,2.531-7.967,1.916-12.227c-0.682-4.714-3.195-8.143-7.733-9.644c-4.599-1.522-9.04-1.054-12.738,2.456
	C208.024,188.274,207.094,192.245,207.144,196.548z M188.323,196.359c0-0.442-0.051-1.064,0.01-1.675
	c0.211-2.107,0.695-4.13,1.916-5.92c1.673-2.457,4.093-2.862,6.793-2.507c2.395,0.315,3.588,1.915,4.384,4.017
	c0.192,0.509-0.075,1.413,0.786,1.484c1.121,0.096,2.256,0.032,3.385,0.035c0.48,0.001,0.637-0.3,0.568-0.707
	c-0.422-2.564-1.063-5.061-3.202-6.781c-4.37-3.516-11.735-3.006-15.63,1.023c-4.139,4.282-5.264,12.714-2.457,18.451
	c2.367,4.842,6.396,6.857,12.365,6.184c4.505-0.508,7.731-3.77,8.812-8.805c0.204-0.955,0.052-1.268-0.976-1.285
	c-2.92-0.051-2.921-0.092-4.068,2.427c-1.122,2.46-2.896,3.84-5.733,3.853c-2.856,0.011-4.78-1.221-5.937-3.781
	C188.497,200.51,188.173,198.562,188.323,196.359z M179.088,206.636c-0.004-2.738-0.004-2.738-2.27-2.739
	c-2.905,0-2.905,0-2.899,3.026c0.006,2.432,0.006,2.432,2.426,2.434C179.092,209.356,179.092,209.356,179.088,206.636z"/>
<path fill-rule="evenodd" clip-rule="evenodd" fill="#2E58A6" d="M324.212,182.28c12.472,0,24.942-0.002,37.413,0.002
	c3.455,0,4.973,1.529,4.953,4.975c-0.08,13.086-0.156,26.172-0.237,39.259c-0.022,3.658-1.499,5.12-5.153,5.119
	c-25.097-0.006-50.193-0.023-75.289,0.011c-1.268,0.003-1.49-0.395-1.484-1.546c0.078-15.447,0.127-30.896,0.119-46.344
	c0-1.333,0.42-1.569,1.648-1.565c12.678,0.047,25.355,0.027,38.03,0.027C324.212,182.239,324.212,182.26,324.212,182.28z
	 M315.198,219.483c0.227,2.899,0.23,2.821,2.811,2.924c1.301,0.053,1.59-0.351,1.588-1.611c-0.016-10.316,0.041-20.635,0.089-30.949
	c0.016-3.365,0.034-3.334-3.415-3.246c-0.811,0.02-1.058,0.242-1.043,1.046c0.039,2.154-0.004,4.31-0.011,6.466
	c-0.004,1.648-0.001,3.299-0.001,5.237c-4.377-5.415-14.027-4.681-17.29,3.066c-1.765,4.19-2.164,8.456-0.813,12.767
	C300.036,224.533,310.288,225.667,315.198,219.483z M337.057,210.933c0,0.003,0,0.005,0,0.006c1.641,0,3.283,0.052,4.92-0.015
	c1.512-0.061,3.555,0.698,4.394-0.326c0.88-1.074,0.163-3.053-0.007-4.622c-0.5-4.573-2.736-7.936-7.172-9.461
	c-4.495-1.547-8.726-0.98-12.295,2.375c-3.906,3.67-4.648,8.41-4.15,13.435c0.568,5.718,4.4,10.008,9.485,10.86
	c5.715,0.962,10.724-1.468,13.118-6.357c1.297-2.654,1.207-2.813-1.625-2.813c-0.205,0-0.414,0.027-0.614-0.006
	c-1.063-0.168-1.568,0.26-2.006,1.291c-1.183,2.796-3.93,4.21-7.165,3.927c-3.123-0.274-4.985-1.858-5.834-5.004
	c-0.187-0.69-0.258-1.411-0.43-2.106c-0.24-0.961,0.1-1.227,1.073-1.205C331.517,210.976,334.288,210.933,337.057,210.933z
	 M292.458,219.547c0.009-2.729,0.009-2.729-2.395-2.729c-2.942,0.001-2.942,0.001-2.952,2.967c-0.008,2.565-0.008,2.565,2.559,2.57
	C292.451,222.358,292.451,222.358,292.458,219.547z"/>
<path fill-rule="evenodd" clip-rule="evenodd" fill="#2E58A6" d="M170.15,180.256c0.016,12.282,0.016,24.565,0.066,36.847
	c0.007,1.67,1.235,2.721,2.388,3.73c0.38,0.333,0.844,0.57,1.271,0.851c-0.015,1.641-0.039,3.281-0.044,4.924
	c-0.007,1.757-0.588,2.465-2.321,2.785c-0.151,0.028-0.305,0.036-0.459,0.049c-4.609,0.37-4.606,0.368-4.625-4.254
	c-0.059-14.367-0.123-28.733-0.183-43.103c-0.008-2.023-0.006-2.031,2.092-2.019C168.943,180.069,169.57,179.954,170.15,180.256z"/>
<path fill-rule="evenodd" clip-rule="evenodd" fill="#2E58A6" d="M274.012,219.253c0.82-0.889,0.981-1.996,0.986-3.129
	c0.04-11.265,0.068-22.529,0.099-33.794c2.899-0.424,2.903-0.424,2.894,2.388c-0.053,15.082-0.123,30.164-0.129,45.246
	c-0.001,1.313-0.27,1.737-1.674,1.69c-3.811-0.13-3.824-0.054-3.799-3.83c0.014-2.307,0.066-4.611,0.102-6.916
	c0.352-0.162,0.656-0.378,0.84-0.732l0.047-0.052c0.068-0.071,0.139-0.144,0.208-0.215
	C273.727,219.69,273.871,219.472,274.012,219.253z"/>
<path fill-rule="evenodd" clip-rule="evenodd" fill="#DDDDDD" d="M125.413,229.563c1.276-0.039,2.554-0.111,3.831-0.111
	c10.152-0.009,20.305-0.003,30.457-0.001c-0.233,0.77-0.883,0.574-1.411,0.574c-10.445,0.013-20.89,0.014-31.334,0.017
	C126.392,230.041,125.813,230.087,125.413,229.563z"/>
<path fill-rule="evenodd" clip-rule="evenodd" fill="#DDDDDD" d="M269.23,234.412c-0.849-1.176-0.811-2.234-0.917-3.201
	c-0.229-2.077-0.611-4.152-0.461-6.257c0.045-0.619,0.147-1.373,0.831-1.493c0.743-0.13,1.101,0.63,1.167,1.195
	C270.223,227.842,269.883,230.985,269.23,234.412z"/>
<path fill-rule="evenodd" clip-rule="evenodd" fill="#EFEEEE" d="M274.612,165.079c1.028,0,2.057,0,3.085,0
	C276.668,165.495,275.64,165.489,274.612,165.079z"/>
<path fill-rule="evenodd" clip-rule="evenodd" fill="#DDDDDD" d="M271.767,221.463c-0.19,0.031-0.379,0.068-0.567,0.083
	c-0.012,0.001-0.061-0.242-0.053-0.243c0.182-0.06,0.367-0.099,0.553-0.143C271.717,221.24,271.736,221.32,271.767,221.463z"/>
<path fill-rule="evenodd" clip-rule="evenodd" fill="#DDDDDD" d="M273.331,220.176c-0.184,0.354-0.488,0.57-0.84,0.732
	C272.483,220.335,272.848,220.188,273.331,220.176z"/>
<path fill-rule="evenodd" clip-rule="evenodd" fill="#EFEEEE" d="M271.557,219.866c0.088-0.074,0.176-0.149,0.263-0.224
	C271.733,219.717,271.645,219.792,271.557,219.866z"/>
<path fill-rule="evenodd" clip-rule="evenodd" fill="#EFEEEE" d="M270.907,220.177c0.093-0.077,0.186-0.154,0.277-0.232
	C271.092,220.023,271,220.1,270.907,220.177z"/>
<path fill-rule="evenodd" clip-rule="evenodd" fill="#EFEEEE" d="M273.585,219.909c-0.069,0.071-0.14,0.144-0.208,0.215
	C273.443,220.05,273.514,219.979,273.585,219.909z"/>
<path fill-rule="evenodd" clip-rule="evenodd" fill="#EFEEEE" d="M270.28,220.487c0.097-0.077,0.191-0.156,0.288-0.233
	C270.471,220.331,270.376,220.41,270.28,220.487z"/>
<path fill-rule="evenodd" clip-rule="evenodd" fill="#EFEEEE" d="M272.552,218.923c0.034-0.096,0.095-0.167,0.186-0.214
	C272.682,218.785,272.62,218.856,272.552,218.923z"/>
<path fill-rule="evenodd" clip-rule="evenodd" fill="#CED4D7" d="M239.188,221.743c0.271-0.281,0.622-0.324,0.989-0.324
	c8.026-0.004,16.047-0.496,24.078-0.332c1.181,0.023,1.511,0.48,1.473,1.561c-0.058,1.637-0.024,3.275-0.029,4.913
	c-0.456-0.53-0.274-1.172-0.277-1.767c-0.022-3.818-0.015-3.818-3.901-3.817c-6.847,0-13.693,0.003-20.539-0.006
	C240.379,221.97,239.749,222.106,239.188,221.743z"/>
<path fill-rule="evenodd" clip-rule="evenodd" fill="#CED4D7" d="M225.809,222.017c-0.061-0.16,0.011-0.243,0.164-0.274
	C225.918,221.833,225.864,221.924,225.809,222.017z"/>
<path fill-rule="evenodd" clip-rule="evenodd" fill="#CED4D7" d="M171.603,201.407c0.007,3.281,0.014,6.563,0.021,9.842
	C171.277,207.97,171.32,204.688,171.603,201.407z"/>
<path fill-rule="evenodd" clip-rule="evenodd" fill="#CED4D7" d="M222.342,221.724c0.143,0.136,0.232,0.222,0.324,0.306
	c-0.101,0.077-0.191,0.181-0.303,0.218c-0.059,0.019-0.229-0.106-0.221-0.134C222.172,221.996,222.25,221.89,222.342,221.724z"/>
<path fill-rule="evenodd" clip-rule="evenodd" fill="#CED4D7" d="M171.593,198.021c0.001,0.401,0.002,0.806,0.004,1.207
	C171.368,198.826,171.368,198.423,171.593,198.021z"/>
<path fill-rule="evenodd" clip-rule="evenodd" fill="#CED4D7" d="M171.633,173.042c-0.021,0.105-0.041,0.209-0.061,0.314
	C171.592,173.251,171.612,173.147,171.633,173.042z"/>
<path fill-rule="evenodd" clip-rule="evenodd" fill="#EFEEEE" d="M120.456,206.329c-2.772-0.002-5.545,0.009-8.316-0.009
	c-0.686-0.006-1.132,0.006-1.107,0.952c0.128,5.306,4.465,8.579,9.457,7.074c1.995-0.602,3.415-1.886,4.15-3.811
	c0.333-0.875,0.775-1.24,1.681-1.103c0.301,0.044,0.614,0.007,0.923,0.007c2.672,0,2.776,0.135,1.646,2.551
	c-2.015,4.313-5.388,6.506-10.177,6.713c-4.975,0.215-8.832-1.705-11-6.116c-2.603-5.297-2.429-10.774,0.591-15.909
	c2.628-4.471,7.624-6.349,12.789-5.139c5.12,1.198,8.14,4.881,8.696,10.606c0.406,4.183,0.406,4.183-3.787,4.185
	C124.152,206.331,122.304,206.331,120.456,206.329z M118.107,202.608c0,0.004,0,0.008,0,0.01c2,0,4,0.016,6-0.012
	c0.379-0.006,0.941,0.271,0.979-0.555c0.121-2.575-2.116-5.729-4.643-6.459c-4.466-1.289-8.568,1.393-9.273,5.99
	c-0.141,0.911,0.166,1.047,0.937,1.035C114.106,202.589,116.106,202.608,118.107,202.608z"/>
<path fill-rule="evenodd" clip-rule="evenodd" fill="#EFEEEE" d="M154.359,204.873c0,3.796-0.06,7.596,0.034,11.392
	c0.032,1.325-0.4,1.738-1.646,1.573c-0.555-0.075-1.131-0.056-1.691-0.002c-0.854,0.08-1.256-0.21-1.136-1.112
	c0.055-0.412,0.036-0.869-0.412-1.068c-0.504-0.223-0.706,0.285-0.997,0.53c-2.772,2.334-5.954,3.038-9.389,2.05
	c-3.803-1.098-5.66-3.347-5.789-7.372c-0.194-6.05-0.265-12.115-0.025-18.161c0.073-1.83,2.144-0.544,3.259-0.85
	c0.735-0.2,1.342-0.076,1.33,1.045c-0.046,4.258,0.011,8.519,0.032,12.777c0.006,1.18-0.008,2.361,0.037,3.542
	c0.078,1.97,0.435,3.891,2.508,4.72c2.231,0.895,4.458,0.662,6.417-0.806c1.707-1.279,2.352-3.167,2.536-5.204
	c0.451-4.986,0.112-9.986,0.164-14.978c0.009-0.875,0.271-1.118,1.139-1.136c3.514-0.08,3.519-0.109,3.524,3.359
	c0.006,3.234,0.002,6.466,0.002,9.7C154.289,204.873,154.324,204.873,154.359,204.873z"/>
<path fill-rule="evenodd" clip-rule="evenodd" fill="#EFEEEE" d="M101.825,215.075c0.006,2.729,0.006,2.729-2.726,2.728
	c-2.543-0.003-2.543-0.003-2.556-2.604c-0.015-2.959-0.015-2.959,2.954-2.959C101.819,212.239,101.819,212.239,101.825,215.075z"/>
<path fill-rule="evenodd" clip-rule="evenodd" fill="#FFE610" d="M282.012,57.845c14.986,0,29.972,0,44.957,0
	c3.758,0,5.232,1.451,5.209,5.17c-0.079,13.497-0.166,26.994-0.256,40.491c-0.021,2.977-1.578,4.592-4.537,4.593
	c-30.434,0.009-60.867,0.006-91.301-0.007c-2.811-0.001-4.531-1.69-4.533-4.487c-0.016-13.703-0.008-27.406,0.021-41.108
	c0.006-2.995,1.707-4.631,4.713-4.633c15.242-0.007,30.484-0.003,45.727-0.003C282.012,57.856,282.012,57.851,282.012,57.845z
	 M311.043,90.709c-0.061,2.089,0.011,4.015-0.568,5.88c-1.256,4.044-8.309,5.782-11.3,2.788c-0.286-0.285-0.655-0.638-0.695-0.992
	c-0.206-1.855-1.435-1.903-2.851-1.761c-0.609,0.061-1.229,0.02-1.846,0.009c-0.52-0.009-0.787,0.202-0.662,0.738
	c0.452,1.941,0.974,3.824,2.568,5.237c2.156,1.913,4.846,2.139,7.455,2.191c8.729,0.178,11.959-4.022,12.34-10.648
	c0.496-8.595,0.275-17.231,0.354-25.85c0.004-0.335,0.124-0.873-0.34-0.899c-1.271-0.076-2.62-0.279-3.805,0.049
	c-0.847,0.234-0.231,1.449-0.401,2.206c-0.018,0.083-0.08,0.156-0.125,0.235c-5.928-6.272-15.49-3.364-18.055,5.153
	c-0.963,3.192-0.943,6.468-0.463,9.747c0.246,1.691,0.795,3.271,1.704,4.727C297.353,94.315,306.176,96.265,311.043,90.709z
	 M275.866,79.813c0.05-1.034-0.107-2.045-0.25-3.063c-0.777-5.517-4.836-9.709-10.014-10.312c-6.383-0.742-11.292,1.993-13.43,7.565
	c-1.234,3.221-1.396,6.565-1.008,9.979c0.539,4.741,3.76,8.957,7.939,10.213c5.076,1.525,10.636,0.046,13.545-3.705
	C275.077,87.361,275.805,83.676,275.866,79.813z M283.827,70.241c-0.166-3.21-0.168-3.145-3.237-3.214
	c-1.2-0.027-1.425,0.365-1.419,1.475c0.029,7.335-0.012,14.67-0.029,22.005c-0.009,3.268-0.008,3.194,3.287,3.278
	c1.309,0.033,1.495-0.454,1.483-1.582c-0.046-4.514-0.036-9.028,0.011-13.542c0.041-4.062,2.313-6.595,6.16-7.12
	c0.746-0.102,1.736,0.548,2.139-0.146c0.363-0.625,0.158-1.592,0.169-2.409c0.034-2.655-0.492-3.042-3.159-2.372
	c-1.164,0.292-2.185,0.828-3.076,1.645C285.338,69.008,284.469,69.698,283.827,70.241z M241.555,90.755
	c-0.002,2.999-0.002,2.999,2.605,2.999c2.847,0,2.847,0,2.851-2.917c0.003-2.833,0.003-2.833-2.763-2.833
	C241.557,88.005,241.557,88.005,241.555,90.755z"/>
<path fill-rule="evenodd" clip-rule="evenodd" fill="#EFEEEE" d="M280.667,113.076c0.914,0,1.826,0,2.74,0
	c-0.002,0.054-0.002,0.106-0.003,0.16c-0.926,0-1.853,0-2.778,0C280.639,113.182,280.654,113.129,280.667,113.076z"/>
<path fill-rule="evenodd" clip-rule="evenodd" fill="#DDDDDD" d="M126.185,83.971c0.371,1.565,0.164,3.156,0.177,4.733
	c0.035,4.093-0.001,8.186-0.009,12.279c-0.068-0.295-0.195-0.591-0.195-0.886C126.158,94.722,126.173,89.346,126.185,83.971z"/>
<path fill-rule="evenodd" clip-rule="evenodd" fill="#BEAC83" d="M126.354,101.591c0,0.517,0.001,1.034,0.002,1.551
	C126.069,102.625,126.069,102.108,126.354,101.591z"/>
<path fill-rule="evenodd" clip-rule="evenodd" fill="#BEAC83" d="M126.36,105.899c0,0.417,0.001,0.833,0.001,1.25
	C126.089,106.733,126.089,106.316,126.36,105.899z"/>
<path fill-rule="evenodd" clip-rule="evenodd" fill="#CED4D7" d="M126.357,104.351c0,0.114,0,0.229,0,0.343
	C126.357,104.58,126.357,104.465,126.357,104.351z"/>
<path fill-rule="evenodd" clip-rule="evenodd" fill="#EFEEEE" d="M158.25,106.327c-0.257,2.694-0.257,2.65-3.039,2.635
	c-0.942-0.005-1.221-0.285-1.221-1.222c0.002-11.29-0.023-22.581-0.082-33.87c-0.005-0.979,0.32-1.19,1.233-1.2
	c3.232-0.036,3.233-0.07,3.236,3.199c0.002,3.073,0,6.145,0,9.188c0.572,0.183,0.726-0.232,0.967-0.452
	c5.368-4.922,14.165-2.981,16.633,3.861c2.203,6.116,1.789,12.097-2.085,17.571c-3.301,4.666-11.647,5.283-15.015,0.527
	C158.764,106.398,158.646,106.219,158.25,106.327z M172.565,95.4c0.003-1.216-0.117-3.295-1.009-5.268
	c-1.098-2.43-2.77-4.018-5.582-4.105c-2.937-0.09-5.38,1.049-6.588,3.667c-2.044,4.427-1.932,9.038,0.566,13.256
	c2.434,4.11,8.854,3.744,11.136-0.442C172.145,100.571,172.494,98.466,172.565,95.4z"/>
<path fill-rule="evenodd" clip-rule="evenodd" fill="#EFEEEE" d="M194.434,104.88c4.76,0,9.317-0.013,13.875,0.016
	c0.607,0.004,1.581-0.369,1.74,0.449c0.208,1.078,0.074,2.24-0.048,3.351c-0.041,0.364-0.622,0.235-0.962,0.236
	c-6.62,0.007-13.24-0.003-19.859,0.019c-0.764,0.002-1.083-0.188-1.096-1.026c-0.023-1.564,0.174-2.886,1.307-4.206
	c4.41-5.128,8.658-10.396,12.958-15.617c0.284-0.344,0.515-0.73,0.979-1.396c-1.365,0-2.459,0-3.553,0
	c-3.131,0-6.26-0.032-9.391,0.018c-0.928,0.015-1.228-0.242-1.238-1.201c-0.031-2.943-0.074-2.943,2.858-2.943
	c5.389,0,10.776,0.035,16.163-0.028c1.174-0.014,1.453,0.336,1.456,1.472c0.005,1.546-0.312,2.778-1.381,4.028
	c-4.56,5.329-8.983,10.775-13.453,16.182C194.7,104.345,194.648,104.489,194.434,104.88z"/>
<path fill-rule="evenodd" clip-rule="evenodd" fill="#EFEEEE" d="M185.186,95.904c0,3.898-0.039,7.797,0.025,11.694
	c0.019,1.093-0.319,1.374-1.383,1.367c-3.242-0.024-3.243,0.021-3.254-3.167c-0.026-7.232-0.032-14.464-0.099-21.696
	c-0.009-1.04,0.221-1.412,1.337-1.406c3.356,0.019,3.357-0.032,3.36,3.36c0.002,3.283,0.001,6.565,0.001,9.848
	C185.178,95.904,185.182,95.904,185.186,95.904z"/>
<path fill-rule="evenodd" clip-rule="evenodd" fill="#EFEEEE" d="M143.155,106.099c-0.003-2.596-0.003-2.596,2.561-2.596
	c2.695,0,2.695,0,2.718,2.77c0.022,2.666,0.022,2.666-2.644,2.666C143.158,108.938,143.158,108.938,143.155,106.099z"/>
<path fill-rule="evenodd" clip-rule="evenodd" fill="#EFEEEE" d="M185.161,75.43c0.005,2.538,0.005,2.538-2.451,2.539
	c-2.223,0.001-2.223,0.001-2.227-2.312c-0.003-2.868-0.003-2.868,2.605-2.869C185.157,72.787,185.157,72.787,185.161,75.43z"/>
<path fill-rule="evenodd" clip-rule="evenodd" fill="#EFEEEE" d="M176.434,151.734c-2.719-0.001-5.441,0.072-8.155-0.032
	c-1.265-0.051-1.446,0.385-1.248,1.48c0.438,2.425,1.082,4.706,3.332,6.135c2.889,1.83,8.66,1.131,10.318-3.043
	c0.463-1.166,1.075-1.594,2.243-1.395c0.199,0.034,0.409,0.005,0.614,0.005c2.762,0.004,2.762,0.004,1.639,2.508
	c-2.16,4.811-6.314,7.214-12.071,6.979c-4.686-0.191-8.989-3.329-10.375-8.051c-1.713-5.834-1.458-11.531,2.831-16.329
	c3.337-3.733,7.64-4.632,12.354-3.249c4.636,1.357,7.251,4.568,7.984,9.348c0.228,1.479,0.229,2.963,0.324,4.445
	c0.06,0.93-0.194,1.245-1.173,1.222C182.18,151.692,179.307,151.734,176.434,151.734z M174.1,147.847c0,0.002,0,0.004,0,0.006
	c2.098,0,4.196-0.009,6.293,0.006c0.582,0.004,0.936-0.025,0.867-0.814c-0.342-3.979-2.986-6.579-6.859-6.665
	c-3.703-0.081-6.747,2.594-7.284,6.342c-0.124,0.868,0.076,1.175,0.996,1.146C170.108,147.805,172.104,147.847,174.1,147.847z"/>
<path fill-rule="evenodd" clip-rule="evenodd" fill="#EFEEEE" d="M141.457,140.161c2.552-2.834,5.398-4.076,8.814-3.998
	c4.821,0.109,7.646,2.589,8.265,7.36c0.45,3.474,0.148,6.97,0.208,10.455c0.047,2.77-0.03,5.542,0.042,8.311
	c0.025,0.972-0.277,1.19-1.21,1.194c-3.635,0.018-3.636,0.053-3.643-3.527c-0.007-3.95-0.011-7.901-0.017-11.852
	c0-0.41,0-0.822-0.001-1.231c-0.017-4.218-1.44-6.179-4.615-6.361c-3.965-0.227-7.177,2.349-7.451,6.155
	c-0.176,2.451-0.105,4.921-0.116,7.384c-0.011,2.667,0.012,5.335,0.02,8.003c0.001,0.307,0.127,0.76-0.027,0.9
	c-1.2,1.086-2.673,0.27-4.012,0.488c-0.936,0.153-0.737-0.611-0.74-1.137c-0.032-8.105-0.058-16.213-0.085-24.318
	c0-0.206-0.001-0.41,0.003-0.617c0.008-0.342,0.122-0.598,0.521-0.599c1.181-0.001,2.36-0.014,3.54,0.009
	c0.5,0.008,0.507,0.401,0.505,0.775C141.454,138.272,141.457,138.989,141.457,140.161z"/>
<path fill-rule="evenodd" clip-rule="evenodd" fill="#EFEEEE" d="M190.516,140.748c-0.256-0.009-0.512-0.025-0.766-0.025
	c-2.859,0-2.807,0.001-2.809-2.81c-0.002-1,0.355-1.17,1.246-1.166c2.373,0.018,2.373-0.022,2.372-2.406
	c-0.001-0.512-0.034-1.025,0.004-1.535c0.083-1.103-0.515-2.76,0.253-3.18c1.031-0.564,2.57-0.201,3.891-0.242
	c0.699-0.021,0.664,0.458,0.664,0.936c-0.004,1.738,0.063,3.481-0.023,5.216c-0.051,1.043,0.33,1.386,1.299,1.235
	c0.051-0.008,0.102-0.002,0.152,0c3.052,0.019,3.025,0.018,2.786,3.123c-0.053,0.689-0.289,0.863-0.925,0.842
	c-1.072-0.036-2.148-0.002-3.221,0.002c-0.443,0.475-0.289,1.067-0.29,1.613c-0.014,3.844-0.015,7.689-0.005,11.533
	c0.002,0.724-0.061,1.429-0.283,2.121c-0.08,0.246-0.141,0.484-0.398,0.617c-1.314,0.672-3.619-0.657-3.625-2.119
	c-0.018-3.998-0.004-7.996-0.021-11.993C190.813,141.915,191.003,141.267,190.516,140.748z"/>
<path fill-rule="evenodd" clip-rule="evenodd" fill="#CED4D7" d="M190.516,140.748c0.487,0.519,0.297,1.167,0.301,1.762
	c0.018,3.997,0.004,7.995,0.021,11.993c0.006,1.462,2.311,2.791,3.625,2.119c0.258-0.133,0.318-0.371,0.398-0.617
	c0.223-0.692,0.285-1.397,0.283-2.121c-0.01-3.844-0.009-7.689,0.005-11.533c0.001-0.546-0.153-1.139,0.29-1.613
	c-0.014,5.686-0.041,11.37-0.033,17.054c0.002,1.47,0.803,2.183,2.587,1.98c1.392-0.156,1.711,0.211,1.642,1.558
	c-0.117,2.311-0.029,2.314-2.338,2.477c-4.93,0.347-6.717-1.333-6.73-6.313C190.553,151.913,190.534,146.329,190.516,140.748z"/>
<path fill-rule="evenodd" clip-rule="evenodd" fill="#EFEEEE" d="M131.144,160.681c0.014,2.778,0.014,2.778-2.771,2.778
	c-2.65-0.002-2.65-0.002-2.662-2.622c-0.014-3.107-0.014-3.107,3.083-3.107C131.129,157.729,131.129,157.729,131.144,160.681z"/>
<path fill-rule="evenodd" clip-rule="evenodd" fill="#EFEEEE" d="M310.795,142.89c-0.001,2.963-0.541,5.798-1.859,8.472
	c-2.394,4.85-6.514,6.484-11.636,6.325c-4.706-0.146-8.216-2.281-10.02-6.6c-2.295-5.489-2.117-11.045,0.933-16.234
	c2.732-4.646,7.896-6.516,13.485-5.221c4.87,1.127,8.423,5.293,8.931,10.496C310.717,141.045,310.742,141.969,310.795,142.89z
	 M305.793,143.039c0.054-2.016-0.137-3.991-1.022-5.835c-2.065-4.295-8.694-5.092-11.675-1.414
	c-3.016,3.726-3.113,11.409-0.374,15.357c2.243,3.232,9.614,3.587,11.55-0.986C305.248,147.86,305.841,145.53,305.793,143.039z"/>
<path fill-rule="evenodd" clip-rule="evenodd" fill="#EFEEEE" d="M253.354,133.527c2.229-2.427,4.621-3.793,7.628-4.058
	c5.815-0.514,9.454,2.441,9.622,8.275c0.175,5.997,0.035,12.002,0.076,18.004c0.006,0.84-0.294,0.992-1.059,1.008
	c-3.717,0.088-3.715,0.111-3.709-3.552c0.006-4.205,0.011-8.413,0.016-12.618c0.001-0.256,0.004-0.514,0-0.771
	c-0.059-3.677-1.404-5.665-4.025-5.95c-3.802-0.415-7.16,1.711-7.936,5.012c-0.283,1.209-0.316,2.438-0.317,3.67
	c-0.003,4.309-0.044,8.617,0.005,12.927c0.01,0.999-0.244,1.292-1.271,1.287c-3.532-0.015-3.534,0.029-3.528-3.472
	c0.012-7.233,0.055-14.466,0.01-21.699c-0.008-1.232,0.261-1.83,1.572-1.594c0.965,0.174,2.269-0.517,2.831,0.383
	C253.696,131.064,253.354,132.229,253.354,133.527z"/>
<path fill-rule="evenodd" clip-rule="evenodd" fill="#EFEEEE" d="M276.45,145.337c0-3.336-0.04-6.672,0.024-10.006
	c0.021-1.037-0.196-1.549-1.325-1.37c-0.4,0.063-0.827-0.04-1.229,0.02c-0.965,0.142-1.326-0.249-1.166-1.189
	c0.025-0.149,0.004-0.308,0.004-0.461c0-2.138,0.003-2.21,2.195-2.115c1.195,0.052,1.609-0.253,1.537-1.504
	c-0.09-1.525-0.08-3.062,0.197-4.599c0.406-2.258,1.766-3.5,3.885-4.044c0.591-0.151,1.205-0.253,1.814-0.29
	c3.451-0.207,3.818,0.241,3.281,3.725c-0.088,0.57-0.32,0.607-0.794,0.634c-3.43,0.194-3.429,0.206-3.584,3.601
	c-0.112,2.449-0.112,2.425,2.437,2.466c0.625,0.01,1.63-0.396,1.811,0.307c0.256,1.003,0.14,2.146-0.033,3.195
	c-0.082,0.5-0.807,0.25-1.238,0.258c-3.156,0.049-3.158,0.041-3.16,3.219c-0.009,6.055-0.049,12.111,0.01,18.165
	c0.012,1.165-0.293,1.45-1.438,1.427c-3.25-0.069-3.249-0.014-3.246-3.279c0.004-2.719,0.002-5.439,0.002-8.158
	C276.44,145.337,276.444,145.337,276.45,145.337z"/>
<path fill-rule="evenodd" clip-rule="evenodd" fill="#EFEEEE" d="M239.357,143.327c0-3.945,0.021-7.892-0.016-11.836
	c-0.009-0.904,0.088-1.353,1.217-1.346c3.6,0.019,3.599-0.04,3.595,3.536c-0.006,7.174-0.031,14.347,0.005,21.521
	c0.005,1.098-0.126,1.606-1.445,1.568c-3.393-0.098-3.395-0.023-3.394-3.451c0.001-3.332,0-6.662,0-9.992
	C239.333,143.327,239.344,143.327,239.357,143.327z"/>
<path fill-rule="evenodd" clip-rule="evenodd" fill="#EFEEEE" d="M233.511,153.923c0.001,2.807,0.001,2.807-2.765,2.807
	c-2.678,0-2.678,0-2.677-2.722c0.001-2.974,0.001-2.974,2.909-2.974C233.511,151.034,233.511,151.034,233.511,153.923z"/>
<path fill-rule="evenodd" clip-rule="evenodd" fill="#EFEEEE" d="M239.377,123.048c0.008-2.809,0.008-2.809,2.775-2.811
	c2.02-0.001,2.02-0.001,2.014,2.027c-0.009,3.332-0.009,3.332-2.391,3.333C239.372,125.599,239.372,125.599,239.377,123.048z"/>
<path fill-rule="evenodd" clip-rule="evenodd" fill="#EFEEEE" d="M240.576,186.122c0.328-0.455,0.601-0.968,0.993-1.358
	c3.795-3.759,9.617-3.45,12.866,0.727c0.851,1.093,1.132,0.03,1.45-0.313c2.699-2.916,6.082-3.425,9.733-2.703
	c3.197,0.633,5.222,3.254,5.571,6.707c0.357,3.534,0.146,7.072,0.16,10.607c0.012,2.77-0.117,5.541-0.09,8.31
	c0.009,1.034-0.354,1.281-1.332,1.286c-3.296,0.016-3.293,0.053-3.289-3.287c0.004-4.771,0.006-9.544,0.006-14.315
	c0.002-3.241-0.848-4.72-2.979-5.2c-3.08-0.693-6.072,0.645-7.234,3.271c-0.46,1.038-0.674,2.135-0.672,3.283
	c0.006,4.928-0.046,9.852,0.002,14.777c0.012,1.122-0.252,1.496-1.438,1.48c-3.325-0.052-3.32,0.008-3.32-3.266
	c-0.001-5.078-0.08-10.158,0.006-15.236c0.072-4.398-3.719-5.424-6.879-4c-3.07,1.385-3.998,4.105-4.047,7.192
	c-0.069,4.616-0.064,9.235,0,13.853c0.016,1.164-0.32,1.471-1.467,1.453c-3.1-0.051-3.102,0.004-3.1-3.026
	c0.006-7.286,0.063-14.572-0.025-21.858c-0.018-1.549,0.467-2.041,1.893-1.781c0.865,0.156,2.063-0.521,2.537,0.395
	c0.371,0.717,0.074,1.781,0.074,2.691C240.19,185.914,240.383,186.018,240.576,186.122z"/>
<path fill-rule="evenodd" clip-rule="evenodd" fill="#EFEEEE" d="M207.143,196.546c-0.049-4.301,0.881-8.271,4.124-11.35
	c3.698-3.51,8.14-3.979,12.738-2.456c4.538,1.501,7.052,4.93,7.733,9.644c0.615,4.26,0.156,8.383-1.916,12.227
	c-1.98,3.676-5.209,5.337-9.256,5.675C211.252,211.063,206.823,204.124,207.143,196.546z M227.248,195.531
	c-0.085-1.997-0.337-4.024-1.267-5.899c-2.154-4.342-9.088-4.975-11.987-1.104c-2.893,3.863-2.909,11.312-0.202,15.312
	c2.291,3.385,9.85,3.608,11.777-0.807C226.612,200.643,227.139,198.179,227.248,195.531z"/>
<path fill-rule="evenodd" clip-rule="evenodd" fill="#EFEEEE" d="M188.323,196.359c-0.149,2.202,0.174,4.15,1.016,6.013
	c1.156,2.561,3.08,3.792,5.937,3.781c2.837-0.013,4.611-1.393,5.733-3.853c1.147-2.519,1.148-2.478,4.068-2.427
	c1.027,0.018,1.18,0.33,0.976,1.285c-1.08,5.035-4.307,8.297-8.812,8.805c-5.969,0.674-9.998-1.342-12.365-6.184
	c-2.807-5.737-1.682-14.169,2.457-18.451c3.895-4.029,11.26-4.539,15.63-1.023c2.139,1.721,2.78,4.217,3.202,6.781
	c0.068,0.407-0.088,0.708-0.568,0.707c-1.129-0.003-2.264,0.061-3.385-0.035c-0.861-0.071-0.594-0.976-0.786-1.484
	c-0.796-2.102-1.989-3.701-4.384-4.017c-2.7-0.355-5.12,0.05-6.793,2.507c-1.221,1.79-1.705,3.813-1.916,5.92
	C188.272,195.295,188.323,195.917,188.323,196.359z"/>
<path fill-rule="evenodd" clip-rule="evenodd" fill="#EFEEEE" d="M179.088,206.636c0.004,2.721,0.004,2.721-2.742,2.721
	c-2.42-0.002-2.42-0.002-2.426-2.434c-0.006-3.026-0.006-3.026,2.899-3.026C179.084,203.897,179.084,203.897,179.088,206.636z"/>
<path fill-rule="evenodd" clip-rule="evenodd" fill="#EFEEEE" d="M315.198,219.483c-4.91,6.184-15.162,5.05-18.086-4.301
	c-1.351-4.311-0.951-8.576,0.813-12.767c3.263-7.747,12.913-8.481,17.29-3.066c0-1.938-0.003-3.589,0.001-5.237
	c0.007-2.156,0.05-4.312,0.011-6.466c-0.015-0.804,0.232-1.026,1.043-1.046c3.449-0.088,3.431-0.119,3.415,3.246
	c-0.048,10.314-0.104,20.633-0.089,30.949c0.002,1.261-0.287,1.664-1.588,1.611C315.428,222.305,315.424,222.383,315.198,219.483z
	 M301.274,209.595c0.006,1.803,0.207,3.572,0.873,5.266c1.145,2.914,2.992,4.249,6.037,4.344c2.676,0.087,4.988-1.385,6.066-4.109
	c1.402-3.549,1.5-7.212,0.236-10.811c-0.928-2.641-2.905-4.164-5.76-4.334c-2.737-0.162-5.18,1.398-6.377,3.963
	C301.507,205.718,301.305,207.64,301.274,209.595z"/>
<path fill-rule="evenodd" clip-rule="evenodd" fill="#EFEEEE" d="M337.057,210.933c-2.77,0-5.54,0.043-8.308-0.021
	c-0.974-0.021-1.313,0.244-1.073,1.205c0.172,0.695,0.243,1.416,0.43,2.106c0.849,3.146,2.711,4.729,5.834,5.004
	c3.235,0.283,5.982-1.131,7.165-3.927c0.438-1.031,0.942-1.459,2.006-1.291c0.2,0.033,0.409,0.006,0.614,0.006
	c2.832,0,2.922,0.158,1.625,2.813c-2.395,4.89-7.403,7.319-13.118,6.357c-5.085-0.853-8.917-5.143-9.485-10.86
	c-0.498-5.024,0.244-9.765,4.15-13.435c3.569-3.355,7.8-3.922,12.295-2.375c4.436,1.525,6.672,4.888,7.172,9.461
	c0.17,1.569,0.887,3.548,0.007,4.622c-0.839,1.024-2.882,0.266-4.394,0.326c-1.637,0.066-3.279,0.015-4.92,0.015
	C337.057,210.938,337.057,210.936,337.057,210.933z M334.672,207.153c0,0.002,0,0.002,0,0.005c2.046,0,4.093-0.003,6.141,0.002
	c0.536,0.001,0.965,0.053,0.906-0.784c-0.271-3.796-2.779-6.371-6.457-6.533c-3.726-0.162-6.889,2.501-7.393,6.171
	c-0.113,0.83,0.004,1.197,0.969,1.161C330.781,207.104,332.727,207.153,334.672,207.153z"/>
<path fill-rule="evenodd" clip-rule="evenodd" fill="#EFEEEE" d="M292.458,219.547c-0.008,2.812-0.008,2.812-2.788,2.809
	c-2.566-0.005-2.566-0.005-2.559-2.57c0.01-2.966,0.01-2.966,2.952-2.967C292.467,216.817,292.467,216.817,292.458,219.547z"/>
<path fill-rule="evenodd" clip-rule="evenodd" fill="#2E58A6" d="M118.107,202.608c-2,0-4.001-0.02-6,0.01
	c-0.771,0.012-1.077-0.124-0.937-1.035c0.705-4.598,4.808-7.279,9.273-5.99c2.527,0.729,4.764,3.884,4.643,6.459
	c-0.038,0.826-0.601,0.549-0.979,0.555c-2,0.027-4,0.012-6,0.012C118.107,202.616,118.107,202.612,118.107,202.608z"/>
<path fill-rule="evenodd" clip-rule="evenodd" fill="#EFEEEE" d="M311.043,90.709c-4.867,5.556-13.69,3.606-16.688-1.191
	c-0.909-1.456-1.458-3.036-1.704-4.727c-0.48-3.279-0.5-6.555,0.463-9.747c2.564-8.517,12.127-11.425,18.055-5.153
	c0.045-0.08,0.107-0.153,0.125-0.235c0.17-0.756-0.445-1.971,0.401-2.206c1.185-0.328,2.533-0.125,3.805-0.049
	c0.464,0.027,0.344,0.564,0.34,0.899c-0.079,8.619,0.142,17.255-0.354,25.85c-0.381,6.626-3.611,10.826-12.34,10.648
	c-2.609-0.053-5.299-0.279-7.455-2.191c-1.595-1.413-2.116-3.295-2.568-5.237c-0.125-0.536,0.143-0.748,0.662-0.738
	c0.616,0.011,1.236,0.052,1.846-0.009c1.416-0.142,2.645-0.094,2.851,1.761c0.04,0.354,0.409,0.707,0.695,0.992
	c2.991,2.994,10.044,1.257,11.3-2.788C311.054,94.725,310.983,92.799,311.043,90.709z M311.256,80.217
	c0.053-1.548-0.105-3.066-0.588-4.547c-0.979-2.993-3.245-4.75-6.233-4.808c-3.089-0.06-5.399,1.626-6.401,4.75
	c-0.924,2.888-1.049,5.859-0.485,8.814c0.675,3.532,2.795,5.475,5.915,5.68c3.125,0.205,5.712-1.575,6.951-4.773
	C311.054,83.684,311.325,81.978,311.256,80.217z"/>
<path fill-rule="evenodd" clip-rule="evenodd" fill="#EFEEEE" d="M275.866,79.813c-0.061,3.862-0.789,7.547-3.217,10.677
	c-2.909,3.751-8.469,5.23-13.545,3.705c-4.18-1.256-7.4-5.472-7.939-10.213c-0.389-3.414-0.227-6.758,1.008-9.979
	c2.138-5.572,7.047-8.307,13.43-7.565c5.178,0.603,9.236,4.795,10.014,10.312C275.758,77.768,275.916,78.779,275.866,79.813z
	 M255.844,80.96c0.123,2.265,0.459,4.574,1.752,6.65c1.524,2.451,3.858,3.029,6.514,2.861c2.383-0.15,4.213-1.182,5.22-3.433
	c1.648-3.688,1.995-7.502,0.951-11.401c-0.853-3.18-3.026-4.88-6.327-5.104c-3.139-0.213-5.566,1.26-6.838,4.18
	C256.264,76.668,255.958,78.738,255.844,80.96z"/>
<path fill-rule="evenodd" clip-rule="evenodd" fill="#EFEEEE" d="M283.827,70.241c0.643-0.543,1.512-1.233,2.328-1.981
	c0.892-0.817,1.912-1.353,3.076-1.645c2.667-0.67,3.193-0.283,3.159,2.372c-0.011,0.816,0.194,1.783-0.169,2.409
	c-0.402,0.694-1.393,0.043-2.139,0.146c-3.847,0.525-6.119,3.059-6.16,7.12c-0.047,4.514-0.057,9.028-0.011,13.542
	c0.012,1.128-0.175,1.615-1.483,1.582c-3.295-0.083-3.296-0.01-3.287-3.278c0.018-7.335,0.059-14.67,0.029-22.005
	c-0.006-1.109,0.219-1.501,1.419-1.475C283.659,67.096,283.661,67.031,283.827,70.241z"/>
<path fill-rule="evenodd" clip-rule="evenodd" fill="#EFEEEE" d="M241.555,90.755c0.002-2.75,0.002-2.75,2.693-2.75
	c2.766,0,2.766,0,2.763,2.833c-0.004,2.917-0.004,2.917-2.851,2.917C241.553,93.753,241.553,93.753,241.555,90.755z"/>
<path fill-rule="evenodd" clip-rule="evenodd" fill="#FFE610" d="M172.565,95.4c-0.072,3.065-0.42,5.17-1.477,7.108
	c-2.282,4.187-8.702,4.552-11.136,0.442c-2.498-4.218-2.61-8.829-0.566-13.256c1.208-2.618,3.651-3.758,6.588-3.667
	c2.812,0.087,4.484,1.675,5.582,4.105C172.448,92.105,172.568,94.184,172.565,95.4z"/>
<path fill-rule="evenodd" clip-rule="evenodd" fill="#E0013F" d="M174.1,147.847c-1.996,0-3.992-0.042-5.986,0.02
	c-0.92,0.029-1.12-0.277-0.996-1.146c0.537-3.748,3.581-6.423,7.284-6.342c3.873,0.086,6.517,2.687,6.859,6.665
	c0.068,0.789-0.285,0.818-0.867,0.814c-2.098-0.015-4.195-0.006-6.293-0.006C174.1,147.851,174.1,147.849,174.1,147.847z"/>
<path fill-rule="evenodd" clip-rule="evenodd" fill="#E0013F" d="M305.794,143.036c0.047,2.494-0.547,4.824-1.522,7.125
	c-1.936,4.573-9.307,4.219-11.55,0.986c-2.739-3.948-2.642-11.632,0.374-15.357c2.98-3.678,9.609-2.881,11.675,1.414
	C305.657,139.048,305.847,141.023,305.794,143.036z"/>
<path fill-rule="evenodd" clip-rule="evenodd" fill="#2E58A6" d="M227.248,195.531c-0.108,2.647-0.636,5.111-1.679,7.502
	c-1.928,4.415-9.486,4.191-11.777,0.807c-2.707-4-2.69-11.448,0.202-15.312c2.899-3.871,9.833-3.238,11.987,1.104
	C226.911,191.507,227.163,193.534,227.248,195.531z"/>
<path fill-rule="evenodd" clip-rule="evenodd" fill="#2E58A6" d="M301.275,209.597c0.03-1.957,0.232-3.879,1.075-5.684
	c1.197-2.564,3.64-4.125,6.377-3.963c2.854,0.17,4.832,1.693,5.76,4.334c1.264,3.599,1.166,7.262-0.236,10.811
	c-1.078,2.725-3.391,4.196-6.066,4.109c-3.045-0.095-4.893-1.43-6.037-4.344C301.481,213.167,301.28,211.397,301.275,209.597z"/>
<path fill-rule="evenodd" clip-rule="evenodd" fill="#2E58A6" d="M334.672,207.153c-1.945,0-3.892-0.05-5.834,0.021
	c-0.965,0.036-1.082-0.331-0.969-1.161c0.504-3.67,3.667-6.333,7.393-6.171c3.678,0.162,6.187,2.737,6.457,6.533
	c0.059,0.837-0.37,0.785-0.906,0.784c-2.048-0.005-4.095-0.002-6.141-0.002C334.672,207.155,334.672,207.155,334.672,207.153z"/>
<path fill-rule="evenodd" clip-rule="evenodd" fill="#FFE610" d="M311.256,80.215c0.068,1.763-0.202,3.469-0.842,5.117
	c-1.239,3.199-3.826,4.979-6.951,4.773c-3.12-0.205-5.24-2.148-5.915-5.68c-0.563-2.955-0.438-5.926,0.485-8.814
	c1.002-3.124,3.313-4.81,6.401-4.75c2.988,0.058,5.254,1.815,6.233,4.808C311.151,77.15,311.309,78.668,311.256,80.215z"/>
<path fill-rule="evenodd" clip-rule="evenodd" fill="#FFE610" d="M255.844,80.96c0.113-2.222,0.42-4.292,1.271-6.246
	c1.271-2.92,3.699-4.393,6.838-4.18c3.301,0.224,5.475,1.923,6.327,5.104c1.044,3.899,0.697,7.713-0.951,11.401
	c-1.007,2.251-2.837,3.282-5.22,3.433c-2.655,0.168-4.989-0.41-6.514-2.861C256.303,85.534,255.967,83.226,255.844,80.96z"/>
<path fill-rule="evenodd" clip-rule="evenodd" fill="#80C41C" d="M443.234,293.561H8.347c0-31.439,97.351-56.924,217.443-56.924
	C345.875,236.637,443.234,262.121,443.234,293.561z"/>
</svg>
