<?xml version="1.0" encoding="utf-8"?>
<!-- Generator: Adobe Illustrator 16.0.3, SVG Export Plug-In . SVG Version: 6.00 Build 0)  -->
<!DOCTYPE svg PUBLIC "-//W3C//DTD SVG 1.1//EN" "http://www.w3.org/Graphics/SVG/1.1/DTD/svg11.dtd">
<svg version="1.1" id="Capa_1" xmlns="http://www.w3.org/2000/svg" xmlns:xlink="http://www.w3.org/1999/xlink" x="0px" y="0px"
	 width="509px" height="428.256px" viewBox="0 0 509 428.256" enable-background="new 0 0 509 428.256" xml:space="preserve">
<title>time management</title>
<title>forgot password</title>
<title>reading list</title>
<title>gardening</title>
<title>accept_terms</title>
<title>time management</title>
<title>forgot password</title>
<title>reading list</title>
<path fill="#1A2F36" d="M321.403,366.685c18.913-5.411,37.554-11.895,57.209-14.319c5.005-0.961,10.053-2.377,14.929,0.382
	c7.639,4.326,9.279,11.759,4.954,21.898c-4.938,8.008-11.686,14.254-19.296,19.657c-1.311,1.053-2.705,1.988-4.167,2.808
	c-3.644,1.463-5.764,3.908-5.179,8.095c-1.262,5.188-3.555,9.649-8.577,12.185c-0.611,0-1.224,0-1.834,0
	c-7.202-2.054-14.783-2.688-21.708-5.766c-4.574-2.255-9.388-3.884-14.251-5.352c-4.666-1.954-6.076,2.337-8.588,4.501
	c-2.405,2.822-5.505,4.734-8.632,6.613c-7.948,0-15.896,0-23.84,0c-1.128-0.956-2.515-1.377-3.868-1.875
	c-11.648-6.881-12.137-18-11.044-29.587c0.369-3.915,1.485-7.755,2.14-11.645c7.369-19.905,17.674-23.881,36.473-14.676
	C311.146,362.067,315.092,367.011,321.403,366.685z"/>
<path fill="#39B54A" d="M373.593,395.911c1.123-0.73,2.252-1.463,3.376-2.196c15.471,0.715,29.908,5.94,44.578,10.172
	c2.196,3.73,0.761,6.809-1.741,9.695c-5.969,0.122-11.941,0.168-17.904,0.401c-2.435,0.096-5.812-1.023-5.782,3.406
	c-5.502,0-11.004,0-16.505,0c-2.256-1.999-5.407-0.028-7.721-1.721c-2.252-1.647-3.604-5.114-0.868-5.607
	c7.18-1.291-0.477-3.692,0.751-5.218c0.207-0.264-0.27-1.116-0.384-1.718C370.948,400.365,372.59,398.236,373.593,395.911z"/>
<path fill="#009245" d="M323.589,404.308c4.978,1.41,10.17,2.29,14.266,5.845c-0.769,4.785-4.609,4.725-8.186,5.472
	c-3.509,0.735-7.232,0.122-10.575,1.767c-4.278,0-8.557,0-12.837,0c1.022-3.422,3.969-5.117,6.466-7.21
	C316.807,409.067,318.744,403.999,323.589,404.308z"/>
<path fill="#E8E5E5" d="M319.099,417.391c5.586-4.14,13.626-1.916,18.757-7.238c7.663,1.033,14.762,3.729,21.588,7.238
	C345.996,417.391,332.546,417.391,319.099,417.391z"/>
<path fill="#009245" d="M373.063,402.71c0.563,1.403,1.404,2.764,1.633,4.219c0.442,2.819,7.027-1.063,4.61,4.09
	c-2.069,4.416-5.166-1.532-7.977,0.236c-0.284,6.155,6.624,2.728,8.288,6.136c-6.112,0-12.227,0-18.338,0
	c2.565-4.313,5.134-8.626,7.7-12.94C369.983,403.035,371.308,402.37,373.063,402.71z"/>
<path fill="#375A64" d="M82.557,306.097c0.019,0,0.037-0.019,0.055-0.019c-0.019,0.019-0.037,0.037-0.055,0.037
	c-0.019,0.018-0.055,0.037-0.073,0.037C82.484,306.134,82.521,306.116,82.557,306.097z"/>
<path fill="#375A64" d="M82.851,305.932c0.019,0,0.037,0,0.055-0.019c0,0.019,0.018,0.019,0.018,0.019c0,0.018,0,0.037-0.037,0.055
	c-0.037,0-0.111,0.037-0.184,0.055c0.037-0.019,0.056-0.037,0.093-0.073C82.833,305.95,82.851,305.932,82.851,305.932z"/>
<path fill="#375A64" d="M259.61,265.643c-0.275,0.037-0.686,0.056-0.978,0.037c-1.742-0.128-2.935-1.338-3.21-2.952
	c-0.202-1.137-0.422-2.237-0.422-3.374v-0.073c0-0.294,0.392-0.569,0.392-0.863c0-0.349,0.159-0.715,0.122-1.082
	c0.037-5.501,0.252-11.003,0.124-16.486c-1.265-58.939,2.007-117.805,1.897-176.726c0-3.668,0.113-7.336-0.107-10.986
	c-0.953-16.303-7.984-23.143-24.195-23.491c-3.667-0.092-7.348,0.202-10.98-0.074c-7.701-0.569-12.924,1.833-14.721,10.104
	c-1.21,5.593-5.905,7.647-11.095,7.886c-14.652,0.715-29.304,0.642-43.956,0.056c-6.181-0.257-10.47-3.521-11.828-9.628
	c-1.412-6.29-5.464-8.252-11.315-8.308c-8.234-0.055-16.486-0.294-24.72,0.056c-11.058,0.477-17.44,6.436-18.888,17.348
	c-0.569,4.235-0.35,8.527-0.35,12.8c-0.018,76.655,0.019,153.309-0.054,229.963c0,5.41,0.99,11.058-2.366,16.028
	c-0.018,0.019-0.037,0.019-0.055,0.037c-0.184-0.11-0.063-0.219-0.119-0.33c-0.018-0.037,0.213-0.073,0.213-0.11v-2.292
	c0-0.129,0-0.184,0-0.184c0-84.979-0.268-169.979,0.081-254.958c0-1.248-0.042-2.458,0.105-3.613
	c0.11-0.771,0.181-1.522,0.327-2.255c2.091-9.463,9.251-15.093,19.96-15.625c0.33-0.019,0.665-0.037,1.013-0.037
	c9.151-0.128,18.313,0.201,27.463-0.019c0.99-0.019,1.922,0,2.784,0.109c5.08,0.514,7.829,3.191,7.48,9.39
	c-0.275,4.842,1.522,7.262,4.731,8.271c1.394,0.44,3.063,0.624,4.933,0.606c14.652-0.111,29.321-0.074,43.975,0.146
	c6.271,0.092,9.938-1.907,9.755-8.839c-0.202-7.024,3.613-9.719,10.434-9.39c6.4,0.312,12.819,0.038,19.237,0.129
	c16.138,0.22,24.188,8.143,24.134,24.317c-0.184,41.536-0.551,83.054-0.844,124.59c-0.183,27.709-0.096,55.457-0.299,83.165
	c0.147,0.054,0.73,0.11,0.73,0.183v0.019C259,260.838,256.675,262.232,259.61,265.643z"/>
<path fill="#375A64" d="M267.885,242.903c-0.037,7.354-5.629,13.021-6.162,20.246c-0.091,1.156-0.991,2.165-2.219,2.458
	C259.908,256.253,262.842,249.083,267.885,242.903z"/>
<path fill="#22B573" d="M360.806,305.07c-0.183,11.26-1.137,22.52-1.394,33.761c-0.147,6.786-2.66,11.792-8.82,14.707
	c-6.566,3.1-12.618,1.614-17.807-2.897c-6.4-5.539-12.452-11.489-20.576-19.027c0.881,13.937-5.282,27.053,9.188,35.053h0.017
	c-2.255,3-4.822,2.101-7.463,0.432c-3.852-2.402-7.647-4.947-11.682-6.999c-12.891-6.621-21.951-3.667-28.589,9.061
	c-0.825,1.613-1.65,3.229-2.457,4.825c-0.147-1.009-0.202-2.036-0.239-3.081c-0.128-5.428,0.789-11.075-3.154-15.862
	c-0.752-0.549-1.303-1.266-1.633-2.145c-0.037-0.587-0.054-1.156-0.073-1.743c-0.074-1.614-0.11-3.227-0.129-4.804
	c-0.073-4.163-0.073-8.161-0.421-11.555c-0.184,2.439-1.898,5.392-2.667,8.493c-0.147,0.604-0.907,1.21-0.907,1.833
	c0,0.018,0,0.018,0,0.037c0,4.676-1.33,9.205-2.32,13.79c-0.697,2.311-1.059,4.658-1.647,6.987
	c-0.623,2.402-1.043,4.805-1.593,7.225c-1.229,5.557-2.301,11.132-3.584,16.67c-0.33,1.449-0.646,2.897-1.031,4.347
	c-0.109,0.512-0.222,1.008-0.351,1.521c-1.945,5.52-1.587,12.507-9.105,14.56c-0.293,0.036-0.564,0.056-0.858,0.092
	c-0.421,0.037-1.822,0.074-2.226,0.111c-3.631,0.311-5.285,0.238-11.285-2.129v-0.018c0-0.146,0.595-0.313,0.394-0.477
	c-0.019-0.037,0.445-0.055,0.426-0.092c-1.65-1.98-1.18-4.255-0.722-6.528c0.019-0.11,0.181-0.238,0.198-0.349
	c0.056-0.439,0.173-0.88,0.246-1.32c0.018-0.11,0.067-0.221,0.086-0.33c0.018-0.109,0.052-0.203,0.069-0.293
	c0.037-0.295,0.101-0.587,0.156-0.881c0.238-1.412,0.743-2.788,1.091-4.182c0.294-1.668,1.056-3.355,1.056-5.043v-0.018
	c0-0.586,0-1.173,0-1.76v-0.019c3-10.251,3.168-20.538,5.183-30.753c0.019-0.165,0.035-0.33,0.072-0.495
	c0.037-0.238,0.081-0.476,0.136-0.714c0.605-2.954,1.792-5.851,1.443-8.84c-2.11-1.303-3.873-0.202-5.632-0.092
	c-7.207,0.439-13.333-1.449-17.039-8.125c-3.558-6.418-3.265-12.964,0.972-18.925c4.383-6.161,11.589-8.563,17.807-6.051
	c8.82,3.557,12.231,0.109,14.89-7.153c0.403-1.118,1.503-1.87,2.567-2.512c0.165-0.055,0.311-0.11,0.476-0.129
	c0.22-0.073,0.441-0.11,0.661-0.11c0.898-0.091,1.761,0.146,2.622,0.477c0.385,0.146,0.752,0.312,1.101,0.532
	c0.458,0.22,0.88,0.513,1.302,0.825c2.036,1.486,3.742,3.503,5.996,4.604c0.478,0.238,0.973,0.439,1.523,0.568
	c0.403,0.128,0.825,0.201,1.265,0.238c3.282,1.908,6.693,1.872,10.141,0.881c0.331-0.073,0.679-0.183,1.01-0.294
	c0.073-0.018,0.164-0.018,0.238-0.037c5.942-0.934,9.902-4.07,10.526-10.305c0.256-2.622,1.209-4.31,2.769-5.3
	c0.238-0.147,0.477-0.293,0.752-0.404c1.008-0.458,2.219-0.715,3.612-0.788c1.833,0.677,4.64-1.706,5.832,0.935
	c0.128,0.257,0.238,0.587,0.33,0.953c15.954,7.537,25.839,22.539,40.455,33.651c2.109-12.855,4.034-24.684,4.419-36.713
	c-1.246-1.724-0.843-3.173,0.771-4.383c0.367-0.073,0.733-0.166,1.101-0.239c0.055,0,0.092-0.018,0.146-0.018
	c3.722-0.752,7.445-1.027,11.058,0.807C362.75,294.196,360.897,299.771,360.806,305.07z"/>
<path fill="#FBB03B" d="M301.341,295.058c-0.146,0.311-0.341,0.642-0.341,0.953v0.019c-3-0.037-3.847-1.362-6.047-1.362h-0.019
	l-0.018,0.626c-0.441-0.275-0.917-0.1-1.412-0.137c-0.073-0.017-0.165-0.217-0.238-0.217c-0.734-0.055-1.504-0.272-2.237-0.272
	c-0.019,0-0.019,0-0.037,0c-0.66,0-1.283-0.008-1.778-0.612l-0.019,0.144c-0.091-0.091-0.165-0.102-0.238-0.23
	c-0.092-0.221-0.147-0.365-0.201-0.584c-0.166-0.66-0.184-1.3-0.073-1.941c0.037-0.331,0.127-0.65,0.256-0.98
	c0.019-0.091,0.056-0.159,0.092-0.252c9.481-12.727,10.307-24.552,2.182-37.462c-4.327,2.457-4.474,7.74-7.317,11.004
	c-2.017,2.33-4.053,4.622-6.84,5.979c-3.227,1.559-4.145,3.431-3.264,7.245c2.53,10.894,3.593,22.024,4.016,33.211
	c0.019,0.257-0.018,0.514-0.073,0.733c-0.165,0.605-0.569,1.101-1.192,1.432c0,0.018-0.019,0.018-0.019,0.018
	c-4.053,3.521-7.591,2.348-10.837-1.228c-0.789-0.367-1.486-0.917-2.128-1.577c-1.833-1.853-3.337-4.347-5.996-4.604
	c-0.789-0.091-1.688,0.037-2.732,0.422c-0.019,0-0.019,0.019-0.037,0.019c-0.881-0.128-1.76-0.275-2.641-0.422
	c-0.037-0.256-0.073-0.495-0.11-0.752c-0.056-0.329-0.11-0.66-0.166-0.991c-0.66-3.667-1.65-6.693-6.62-8.362
	c-4.806-1.613-6.823-8.637-5.465-14.083c0-0.019,0-0.019,0.018-0.037c0.203-0.899,0.532-1.743,0.937-2.513
	c0.513-0.971,1.155-1.816,1.961-2.494c3.76-3.172,5.465-7.116,7.079-11.424c1.155-3.081,2.622-6.125,5.96-5.906
	c0.66,0.037,1.682,0.221,2.524,0.569c0.147,0.054,0.73,0.11,0.73,0.183v0.019c0,1.65-2.325,3.045,0.61,6.455
	c0.037,0.056-0.043,0.11,0.012,0.166c0-0.074-0.068-0.129-0.05-0.203c0.404-9.353,3.304-16.523,8.346-22.703
	c1.76-1.155,3.487-2.292,5.247-3.447c9.39-2.696,17.065,2.678,24.712,6.181c5.759,2.64,6.286,9.425,4.378,15.257
	c-1.522,4.639-1.776,9.15-0.053,13.276C305.247,281.451,304.624,288.236,301.341,295.058z"/>
<path fill="#009245" d="M419.806,413.583c0.53-3.012,1.058-6.027,1.586-9.04c-4.762-7.879-0.09-15.904-0.38-23.854
	c-0.359-7.68,1.888-15.104,2.137-22.734c0.092-2.783,1.058-5.399,3.779-6.903c3.203-0.622,6.414-1.398,9.489,0.492
	c2.545,18.399,4.973,36.816,7.707,55.193c0.772,5.17,0.343,8.003-6.067,7.293C432.03,413.357,425.894,413.691,419.806,413.583z"/>
<path fill="#385B65" d="M415.614,252.492c-15.878-0.001-15.881-0.001-14.001-15.333c0.188-1.503,0.385-3.011,0.618-4.509
	c2.156-13.919,2.181-13.442,16.257-14.166c7.737-0.397,11.435,1.671,11.02,9.724c-0.122,2.378,0.497,4.81,0.883,7.199
	C433.184,252.496,433.191,252.492,415.614,252.492z"/>
<path fill="#39B54A" d="M427.142,351.561c-1.337,9.817-2.68,19.642-4.015,29.458c-9.743,1.356-18.49-1.2-26.48-6.735
	c5.56-15.113,1.09-20.545-18.036-21.917c0.146-0.548,0.495-0.978,1.044-1.291C395.517,347.802,411.357,346.771,427.142,351.561z"/>
<path fill="#F5F6F5" d="M427.073,349.612c-4.857,0.147-7.373-1.137-7.17-6.602c0.221-6.146,0.347-12.67-8.271-13.661
	c-15.714-1.798-19.089-0.44-22.317,10.416c-1.615,5.447-3.575,9.975-9.667,11.314c2.331,0.018,4.658,0.056,6.989,0.073
	c0.458,0,0.917,0,1.376,0.02c12.709,0.126,25.416,0.238,38.145,0.365c0.33,0.018,0.658,0.018,0.988,0.018
	c3.083,0,6.18,0,9.262-0.018C433.877,348.197,430.209,349.539,427.073,349.612z M405.599,331.805
	c13.644,0,11.867,14.158,10.691,14.983c-2.145,1.504-22.85,1.723-24.683-0.329C391.608,341.745,393.092,331.805,405.599,331.805z"/>
<path fill="#395A64" d="M348.389,288.746c-0.656,1.404-1.312,2.805-1.968,4.205c-17.001-0.716-16.991-0.712-13.56-17.14
	c0.497-2.389,0.782-4.823,1.279-7.212c2.416-11.533,6.863-13.07,16.625-6.128c4.361,3.095,0.526,6.635,1.087,9.895
	C343.03,276.203,349.159,283.205,348.389,288.746z"/>
<path fill="#CECFCE" d="M374.603,245.211c3.694-4.267,3.21-9.212,3.109-14.059c-0.306-14.715,7.329-25.348,19.254-32.015
	c13.224-7.391,27.215-7.513,42.218,3.333c-8.817-1.572-14.708-4.914-21.562-5.43c-18.946-1.426-37.989,14.438-37.979,36.967
	C379.65,241.428,379.511,241.428,374.603,245.211z"/>
<path fill="#FFE2AC" d="M348.389,288.746c-0.288-1.146-0.235-2.58-0.921-3.392c-6.627-7.809-5.667-10.752,4.389-12.987
	c6.231,3.9,8.262,9.719,7.647,16.746C355.73,291.063,352.059,289.96,348.389,288.746z"/>
<path fill="#D2D2D1" d="M394.258,261.568c12.016,9.29,25.109,8.943,40.713,2.519c-11.057,9.796-29.079,8.667-42.523-0.738
	C392.81,262.507,393.411,261.914,394.258,261.568z"/>
<path fill="#CBCBCB" d="M394.258,261.568c-0.603,0.589-1.204,1.185-1.806,1.781c-6.075-6.301-13.027-9.599-21.886-6.411
	c-1.548,0.555-3.289,0.698-3.173-1.496c0.079-1.563,1.521-1.922,3.292-2.138C379.99,252.145,388.396,253.096,394.258,261.568z"/>
<path fill="#F7F7F6" d="M396.644,374.285c8.826,2.246,17.656,4.492,26.48,6.738c-0.576,7.836-1.154,15.675-1.73,23.518
	c-15.295-1.604-29.903-6.028-44.422-10.825C384.059,387.779,391.445,382.136,396.644,374.285z"/>
<path fill="#CDB6B7" d="M373.063,402.71c-1.088,1.228-2.396,1.938-4.087,1.74c-4.58-6.156,1.063-6.783,4.621-8.541
	C373.417,398.175,373.24,400.442,373.063,402.71z"/>
<path fill="#D4C7C7" d="M323.589,404.308c-3.355,2.442-6.279,5.69-10.86,5.873C316.44,408.39,316.19,399.274,323.589,404.308z"/>
<path fill="#385B65" d="M229.32,407.747c-1.358,2.055-3.796,1.926-6.107,2.018c-3.375,0.146-6.786,0.201-8.546,3.905
	c-37.41,0.074-74.839,0.092-112.25,0.275c-6.437,0.037-11.644-3.099-17.164-5.556c-0.496-4.055-0.697-8.088-0.404-12.104
	c0.018-0.129,0.018-0.847,0.018-0.976c0.111-1.357,0.257-1.643,0.477-4.643h0.019c0.275,3,0.55,1.141,0.825,1.378
	c5.537,5.154,12.213,7.282,19.952,7.081c11.131-0.311,22.299,0.222,33.431,0.313c0.164,0.019,0.349,0.587,0.513,0.587
	c0.238,0.018,0.478,0.641,0.715,0.641h-0.77c3.135,1,6.528,0.312,9.792,0.35c26.169,0.312,52.357,0.229,78.524,0.468
	C227.889,403.758,227.669,405.767,229.32,407.747z"/>
<path fill="#385B65" d="M268.068,37.733c-0.055,68.384-0.128,136.786-0.184,205.169c-5.043,6.18-7.977,13.35-8.381,22.703
	c-0.054,0.018-0.11-0.223-0.164-0.223c-2.935-3.412-0.807-5.716-0.88-6.716h0.128l0,0c0,0,0.091-55.296,0.274-83.006
	c0.294-41.536,0.367-82.975,0.551-124.511c0.054-16.174-7.996-24.057-24.134-24.277c-6.418-0.092-12.837,0.204-19.237-0.109
	c-6.821-0.329-10.636,2.376-10.434,9.4c0.183,6.932-3.484,8.936-9.755,8.844c-14.653-0.22-29.324-0.254-43.976-0.144
	c-1.871,0.018-3.54-0.165-4.934-0.605c-3.209-1.009-5.006-3.429-4.731-8.271c0.349-6.198-2.402-8.875-7.482-9.389
	c-0.862-0.109-1.797-0.127-2.788-0.109c-9.15,0.22-18.32-0.11-27.471,0.019c-0.348,0-0.697,0.018-1.027,0.037
	c-10.82,0.458-17.954,6.107-19.989,15.625c-0.165,0.733-0.293,1.485-0.385,2.255c-0.146,1.155-0.22,2.366-0.22,3.613
	c-0.349,84.979,0.359,169.978,0.359,254.958L83,303.182v2.292c0,0.146,0.129,0.293,0.385,0.458c0.038-1.412-0.385-2.366-0.385-2.75
	v2.292c0,0.037-0.23,0.073-0.213,0.11c0.02,0.11-0.022,0.22,0.179,0.348c0,0-0.076,0.018-0.113,0.037
	c-0.092,0.018-0.323,0.073-0.323,0.091c0.019,0.018,0.022,0.037,0.041,0.037c-0.036,0.019-0.08,0.037-0.08,0.055
	c0.018,0,0.05-0.019,0.069-0.037c0.056,0.018,0.09,0.055,0.145,0.109c-0.183,14.14-0.952,70.292-0.035,78.031
	c0.166,1.43,2.33,4.694,2.33,6.271v0.899c0,0.018-0.296,0.037-0.276,0.055c0.128,0.127,0.375,0.238,0.502,0.348
	c-0.898,5.501-0.72,11.021-0.042,16.561c0,0-10.29-7.959-11.849-11.866c-3.467-8.656-0.368-82.798-0.02-90.959
	c-0.11-0.073-0.193-0.164-0.303-0.275c0.055-60.425,0.124-120.849,0.179-181.275c0.183-24.262,0.896-48.523,0.438-72.766
	c-0.293-16.212,5.079-28.297,20.116-35.338c12.122-2.037,24.316-0.973,36.492-0.899c35.046,0.201,70.109,0.274,105.171,0.422
	C253.104,15.507,261.266,21.118,268.068,37.733z"/>
<path fill="#375A64" d="M228.907,406.427c0.129,0.733-0.907,1.357-0.907,1.889v0.018c0,3.063-2.046,3.356-4.979,3.503
	c-3.21,0.166-6.046-0.348-8.854,1.834c1.76-3.704,5.422-3.759,8.796-3.905c2.312-0.092,4.875,0.037,6.232-2.018
	c-1.652-1.98-1.369-4.255-0.911-6.528c-26.168-0.238-52.324,0.109-78.493-0.202c-3.264-0.038-6.626,0.65-9.762-0.35h0.77
	c-0.238,0-0.477-0.549-0.715-0.567c-0.164,0-0.349-0.229-0.513-0.247c-11.132-0.092-22.3-0.609-33.431-0.299
	c-7.739,0.202-14.415-2.289-19.952-7.442c-0.275-0.238-0.55,1.555-0.825-1.445H86v1.162c0-0.037-0.328-0.092-0.309-0.128
	c0-0.092-0.146-0.166-0.127-0.256c0.274,0.127,0.449,0.256,0.724,0.367c17.439,7.904,36.251,2.714,54.278,5.519
	c11.443,2.073,22.957,0.734,34.455,0.917c14.854,0.258,29.716-0.275,44.571-0.166c2.842,0.018,5.785,0.586,8.353,0.586h0.017
	c0.129,2,0.257,0.387,0.367,0.441c0.091,0.054,0.183,0.248,0.275,0.303c0.696,0.422,0.875,1.023,1.481,1.757
	C229.516,402.855,228.082,404.556,228.907,406.427z"/>
<path fill="#385B65" d="M258.164,359.188c0.805-4.876,1.614-9.758,2.42-14.635c2.784-2.942,4.102-0.49,5.297,1.569
	c1.23,2.124,0.451,4.817,1.67,6.999c0.093,0.645,0.187,1.286,0.279,1.931c-0.193,9.72-0.183,19.454-0.636,29.163
	c-0.768,16.466-11.423,28.098-26.537,29.371c-1.949-2.373,0.128-3.678,1.383-5.199c7.188-1.357,4.222-8.671,7.299-12.439
	C257.632,384.976,255.881,371.599,258.164,359.188z"/>
<path fill="#FFE2AC" d="M242.046,408.39c-0.165,0.659-0.349,1.302-0.532,1.961c-0.274,1.082-0.569,2.164-0.861,3.228
	c-8.656,0.037-17.312,0.056-25.986,0.092c1.76-3.704,5.171-3.759,8.546-3.905c2.311-0.092,4.749,0.037,6.107-2.018
	c0.22-0.367,0.421-0.807,0.586-1.32C233.629,409.104,237.993,407.728,242.046,408.39z"/>
<path fill="#FAFAFA" d="M259.413,51.23c-0.184,41.536-0.257,82.895-0.551,124.431c-0.184,27.709-0.274,56.006-0.274,83.006l0,0
	h-0.128c-1.706,0-1.76,0.206-2.458,0.352c-0.091,0.019-0.202,0.167-0.292,0.205c-1.853,0.421-3.393,2.428-4.053,4.408
	c-2.037,6.272-1.504,14.036-10.838,16.036h-0.073c-0.074,0-0.07-0.695-0.143-0.676c-0.898,0.091-0.602,0.9-0.602,1.763
	c0,0.018,0,0.018,0,0.037c0,0.256,0.161,0.458,0.346,0.532c5.923,2.383-4.102,12.708,5.966,12.396
	c9.921-0.311,8.56,4.218,6.25,9.408c-0.167,0.367-0.344,0.735-0.508,1.101c-0.11,0.257-0.246,0.496-0.355,0.752
	c-4.125,4.42-5.467,10.049-6.897,16.431c-4.658-2.292-7.502-7.207-13.096-7.207c-5.153-0.018-9.867,0.752-13.26,4.768
	c-5.171,6.088-5.519,12.8-0.953,19.329c4.805,6.859,12.121,7.739,22.868,2.806c-0.404,5.006-0.038,9.646-2.421,13.957
	c-0.569,0.494-1.156,0.879-1.798,1.209c-0.935,0.478-1.962,0.808-3.043,1.064c-3.979,0.954-10.49-1.302-10.454,5.521
	c0.056,7.243-4.193,16.064,5.067,21.125c1.651,0.898,3.289,1.925,3.289,3.043v0.019c0,2.036,0.709,4.383,0.231,6.804
	c-0.018,0.018-0.039,0.018-0.02,0.037c-0.128,0.586-0.268,0.961-0.396,1.567c-0.073,1.155-0.176,3.217-0.268,3.217h-0.018
	c-0.605,0-1.21,0.341-1.816,0.414c-0.018,0.018-0.054-0.06-0.073-0.06c-0.11,0.019-0.202-0.075-0.312-0.075
	c-0.128,0.018-0.238-0.279-0.367-0.279h-0.017c-0.02,0-0.02,0-0.037,0c-16.358,2-32.79,0.643-49.184,0.826
	c-12.635,0.128-25.271,0.65-37.924-0.025c-0.238-0.02-0.477,0.051-0.715,0.031c-0.164,0-0.349,0.072-0.513,0.053
	c-11.132-0.092-22.3-0.459-33.431-0.148c-7.739,0.202-14.415-2.213-19.952-7.366c-0.275-0.238-0.55,1.63-0.825-1.37h-0.091
	l-0.203,0.572c-0.127-0.11-0.218,0.074-0.346-0.053c-0.02-0.018,0.276,0.258,0.276,0.24v-0.899c0-25.124-0.387-50.247-0.754-75.389
	c-0.018-2.953,1.826-6.602-1.164-8.913C83.027,306.17,83,306.134,83,306.116v-0.019c0,0-0.257-0.019-0.275-0.037
	c0-0.018,0.089-0.073,0.182-0.091c0.037-0.019,0-0.037,0-0.037c-0.202-0.128-0.072-0.238-0.091-0.348
	c-0.018-0.037,0.185-0.073,0.185-0.11v-2.292c0-0.129,0-0.184,0-0.184c0-84.979-0.268-169.979,0.081-254.958
	c0-1.248-0.042-2.458,0.105-3.613c0.11-0.771,0.181-1.522,0.327-2.255c2.091-9.463,9.251-15.093,19.96-15.625
	c0.33-0.019,0.665-0.037,1.013-0.037c9.151-0.128,18.313,0.201,27.463-0.019c0.99-0.019,1.922,0,2.784,0.109
	c5.08,0.514,7.829,3.191,7.48,9.39c-0.275,4.842,1.522,7.262,4.731,8.271c1.394,0.44,3.063,0.624,4.933,0.606
	c14.652-0.111,29.321-0.074,43.975,0.146c6.271,0.092,9.938-1.907,9.755-8.839c-0.202-7.024,3.613-9.719,10.434-9.39
	c6.4,0.312,12.819,0.038,19.237,0.129C251.417,27.133,259.467,35.057,259.413,51.23z"/>
<path fill="#FFE2AC" d="M276.532,312.38c-0.239-9.59-2.3-19.055-3.924-28.347c-1.689-9.671-2.265-16.2,8.41-20.18
	c3.496-1.304,3.482-6.815,5.416-10.203c2.07-3.632,4.793-5.591,8.479-1.397c7.218,8.216,4.182,32.06-4.977,38.605
	c-2.595,1.796-5.027,0.109-7.825-0.388c3.027,0.974,5.677,2.058,7.951,3.887c1.633,0.529,3.259,1.06,4.882,1.584
	c-2.547,0.571-4.453,0.446-4.394,4.752C290.662,309.058,285.57,312.622,276.532,312.38z"/>
<path fill="#E2E0E0" d="M231.274,395.709c-0.447-4.509,1.118-10.228-6.808-9.801c-2.745,0.146-4.234-2.243-4.271-4.933
	c-0.11-7.228-0.068-14.466-0.034-21.701c0.02-3.765,2.634-4.222,5.573-4.216c4.222,0.011,8.443,0,12.661-0.003
	C236.295,368.654,234.737,382.347,231.274,395.709z"/>
<path fill="#385B65" d="M231.026,398.925c-0.148,0.679-0.294,1.496-0.441,2.174c-0.752,0-1.486,0.051-2.238,0.051
	c-26.167-0.238-52.355,0.145-78.524-0.168c-3.264-0.037-6.657,0.686-9.792-0.314h0.77c29.03,0,58.078,0,87.108-2
	c0.018,0,0.018,0,0.037,0h0.715C229.447,398.667,230.236,398.925,231.026,398.925z"/>
<path fill="#ECECEB" d="M258.164,359.188c0.083,6.972,0.432,13.95,0.172,20.91c-0.253,6.676-2.942,12.296-8.989,15.849
	C251.328,383.463,254.181,371.19,258.164,359.188z"/>
<path fill="#009245" d="M267.552,353.121c-3.048-2.27-1.172-8.539-6.968-8.575c1.361-5.138,2.726-10.277,4.249-16.024
	C269.092,336.802,268.954,344.892,267.552,353.121z"/>
<path fill="#8CC63F" d="M228.913,336.042c9.116-8.126,9.488-9.043-2.085-12.96c5.901,0.098,10.922,1.263,11.573,4.912
	C237.953,332.839,231.998,333.427,228.913,336.042z"/>
<path fill="#009245" d="M254.797,305.412c9.133-8.546,8.169,2.088,10.886,5.734C259.774,313.561,258.964,306.304,254.797,305.412z"
	/>
<path fill="#D0AA83" d="M290.064,294.361c-3.962,0.178-7.562-0.507-10.205-4.201c3.733-2.334,6.885-0.498,10.08,0.702
	C289.981,292.027,290.02,293.195,290.064,294.361z"/>
<path fill="#5E7D87" d="M424.469,226.326c-6.666,7.739-9.879,7.726-18.147-1.131C413.312,228.815,418.828,230.164,424.469,226.326z"
	/>
<path fill="#8CC63F" d="M195.1,150.48c-2.27,10.714-6.315,19.672-0.115,30.841c12.625,22.733,13.093,48.539,14.136,73.904
	c0.151,3.689-1.783,4.674-5.082,4.656c-20.452-0.117-40.911-0.262-61.362-0.117c-5.391,0.04-5.771-2.912-5.769-7.011
	c0.026-23.719,3.65-47.11,12.1-69c4.352-11.273,1.217-19.957-1.412-29.849c-4.636-0.893-2.777,10.123-9.755,5.293
	c-3.476-2.407-7.551-3.931-11.299-5.964c-2.878-1.56-2.32-3.883-1.176-6.292c3.923-8.271,7.841-16.542,11.714-24.834
	c2.888-6.187,8.839-5.833,14.155-6.509c5.721-0.728,4.592,4.688,5.988,7.581c2.927,6.062,6.371,11.533,13.919,11.443
	c7.051-0.08,10.71-5.071,13.319-10.942c3.715-8.373,10.673-9.746,17.117-2.432c7.084,8.045,10.878,18.294,16.219,27.513
	c1.454,2.508,0.016,3.915-2.386,4.76c-2.014,0.707-4.084,1.384-5.916,2.442C202.878,159.778,197.389,160.596,195.1,150.48z"/>
<path fill="#E2E2E2" d="M172.397,371c-0.218,17.063,2.142,15.115-14.022,15.196c-18.866,0.095-17.127,1.517-17.139-17.314
	c-0.011-13.849,0-13.899,18.797-13.824C174.675,355.116,172.154,353.754,172.397,371z"/>
<path fill="#E2E2E2" d="M133.883,370.696c0,15.529,0,15.529-17.392,15.521c-13.789-0.005-13.789-0.005-13.784-17.029
	c0.007-14.157,0.007-14.212,18.503-14.13C136.047,355.126,133.654,353.575,133.883,370.696z"/>
<path fill="#E2E2E2" d="M181.552,370.224c0.236-17.309-2.21-15.119,14.928-15.137c16.452-0.016,14.231-2.04,14.438,14.714
	c0.012,0.917-0.007,1.83,0.004,2.744c0.136,13.671,0.136,13.781-13.413,13.641C179.044,386.008,181.841,388.721,181.552,370.224z"/>
<path fill="#009245" d="M113.668,314.285c8.714-0.017,15.016,6.09,15.087,14.63c0.076,8.55-6.178,15.146-14.593,15.391
	c-8.905,0.262-15.658-6.397-15.535-15.32C98.747,320.231,104.822,314.298,113.668,314.285z"/>
<path fill="#D7D9D9" d="M138.864,86.302c22.96,0,45.924,0,68.886,0c0.008,0.615,0.016,1.229,0.019,1.843
	c-22.963,0-45.932,0-68.901,0C138.867,87.53,138.864,86.915,138.864,86.302z"/>
<path fill="#D7D7D7" d="M227.216,47.741c2.525,0.368,4.841,0.667,7.145,1.048c3.083,0.512,9.721-0.317,10.277,0.458
	c2.722,3.791-0.293,8.208-0.571,12.363c-0.089,1.363-3.556,1.853-4.434,2.002c-1.913,0.328-7.643-0.458-12.586-2.002
	C226.114,57.056,226.41,52.754,227.216,47.741z"/>
<path fill="#D6D7D8" d="M143.167,307.092c22.449-4.96,55.635-4.563,64.442,0C185.821,307.092,164.494,307.092,143.167,307.092z"/>
<path fill="#39B54A" d="M144.732,77.439c18.551,0,37.102,0,55.659,0c0.009,0.587,0.02,1.171,0.029,1.757
	c-18.536,0-37.076,0-55.611,0C144.779,78.61,144.752,78.025,144.732,77.439z"/>
<path fill="#CACACC" d="M143.386,298.613c20.022,0,40.047,0,60.071,0c0.001,0.331,0.001,0.655,0.001,0.984
	c-19.981,0-39.965,0-59.944,0C143.469,299.271,143.428,298.944,143.386,298.613z"/>
<path fill="#39B54A" d="M179.8,328.712c0.116,3.289-0.806,6.051-2.883,5.984c-4.141-0.136-3.536-5.03-5.61-7.475
	c-1.004-1.188,0.259-3.221,2.893-2.556C177.043,325.38,180.049,325.609,179.8,328.712z"/>
<path fill="#39B54A" d="M190.55,329.259c-0.09,2.787-1.625,3.789-4.173,3.544c-1.718-0.168-2.793-1.044-2.833-2.871
	c-0.058-2.695,1.637-3.738,3.989-3.979C189.981,325.703,190.615,327.216,190.55,329.259z"/>
<path fill="#39B54A" d="M166.771,337.424c-2.336-5.88-1.106-9.73-2.052-13.161C169.265,327.017,168.423,330.785,166.771,337.424z"/>
<path fill="#C0C1C2" d="M118.844,60.863c-5.065,0.585-9.759,1.545-16.077-0.477C109.421,59.567,114.325,59.413,118.844,60.863z"/>
<path fill="#C1C2C4" d="M118.442,57.483c-4.649,0-9.3,0-13.949,0C109.434,55.912,114.334,55.714,118.442,57.483z"/>
<path fill="#C1C3C2" d="M104.943,52.817c4.702,0,9.405,0,14.104,0c0.005,0.314,0.006,0.63,0.008,0.945c-4.789,0-9.577,0-14.364,0
	C104.774,53.447,104.86,53.132,104.943,52.817z"/>
<path fill="#8CC63F" d="M171.082,197.056c3.1,12.343,12.05,20.07,21.1,27.678c3.518,2.953,2.025,6.739,1.988,10.22
	c-0.022,2.103-0.884,4.463-2.909,5.373c-2.477,1.106-3.777-1.369-5.239-2.76C174.442,226.589,171.048,212.537,171.082,197.056z"/>
<path fill="#8CC63F" d="M116.241,322.816c-9.131,8.109-9.505,9.025,2.059,12.968c-5.901-0.109-10.92-1.286-11.562-4.934
	C107.198,326.003,113.147,325.429,116.241,322.816z"/>
<path fill="#FDFDFD" d="M82.886,305.932c-0.258-0.165-0.886-0.312-0.886-0.458v-2.292l1-0.184c0,0,0,0.055,0,0.184
	C83,303.566,82.922,304.521,82.886,305.932z"/>
<path fill="#FDFDFD" d="M82.906,305.914c0,0.019,0.018,0.019,0.018,0.019c0,0.018,0,0.037-0.037,0.055
	c-0.055,0.055-0.165,0.11-0.184,0.165v0.072c-0.055-0.054-0.091-0.091-0.146-0.109c-0.019,0.018-0.055,0.037-0.073,0.037
	c0-0.019,0.037-0.037,0.073-0.055c-0.019,0-0.036-0.019-0.055-0.037c0-0.018,0.202-0.073,0.294-0.091
	c0.037-0.019,0.055-0.037,0.055-0.037c-0.202-0.128-0.275-0.238-0.294-0.348C82.612,305.694,82.723,305.804,82.906,305.914z"/>
<path fill="#FDFDFD" d="M146.943,44.262c-3.246-0.99-5.061-3.412-4.787-8.271c0.349-6.162-2.402-8.839-7.427-9.39
	c5.08,0.514,7.831,3.191,7.482,9.39C141.937,40.833,143.734,43.252,146.943,44.262z"/>
<path fill="#FDFDFD" d="M259.413,51.23c-0.184,41.536-0.052,83.054-0.345,124.59C258.885,203.53,259,231.277,259,258.986l0,0l0,0
	v0.183c0-0.073-0.583-0.129-0.73-0.183c0.204-27.708,0.251-55.456,0.435-83.165C258.997,134.285,259.229,92.767,259.413,51.23z"/>
<path fill="#375A64" d="M83,302.998c0,0,0,0.055,0,0.184c0,0.385-0.078,1.339-0.114,2.75c-0.258-0.165-0.886-0.312-0.886-0.458
	v-2.292L83,302.998z"/>
<path fill="#375A64" d="M86,391.426v0.422l0.086,0.197c-0.277-0.237-0.448,1.622-0.723-1.378h-0.019
	c-0.219,3-0.501,3.286-0.612,4.643c0.055-1.357,0.268-2.105,0.268-3.462v-0.019c0-0.11-0.266-0.221-0.413-0.348
	c-0.019-0.018,0.413-0.037,0.413-0.055v-0.899C85,391.077,86,391.426,86,391.426z"/>
</svg>
