<?xml version="1.0" encoding="utf-8"?>
<!-- Generator: Adobe Illustrator 16.0.3, SVG Export Plug-In . SVG Version: 6.00 Build 0)  -->
<!DOCTYPE svg PUBLIC "-//W3C//DTD SVG 1.1//EN" "http://www.w3.org/Graphics/SVG/1.1/DTD/svg11.dtd">
<svg version="1.1" id="Capa_1" xmlns="http://www.w3.org/2000/svg" xmlns:xlink="http://www.w3.org/1999/xlink" x="0px" y="0px"
	 width="1401.141px" height="848.775px" viewBox="0 0 1401.141 848.775" enable-background="new 0 0 1401.141 848.775"
	 xml:space="preserve">
<path fill-rule="evenodd" clip-rule="evenodd" fill="#23354E" d="M461.732,1169.362c10.372-0.037,20.744-0.111,31.116-0.068
	c1.698,0.006,3.67-0.742,5.04,1.053c-12,0-24,0-36,0C461.836,1170.018,461.784,1169.69,461.732,1169.362z"/>
<path fill-rule="evenodd" clip-rule="evenodd" fill="#CCCCCC" d="M574.071,320.253c0.452,0.173,0.904,0.347,1.348,0.518
	c15.091,0.905,30.206,0.319,45.312,0.296c4.335-0.007,5.553,1.049,5.527,5.506c-0.199,35.109-0.122,70.221-0.076,105.331
	c0.003,1.922-0.686,4.007,0.774,5.761c0.006,12.607,0.013,25.214,0.02,37.821c-0.116,1.815-0.323,3.629-0.334,5.444
	c-0.054,9.174-0.038,9.041-8.986,9.226c-4.927,0.101-9.94-0.924-14.783,0.813c-1.298-0.199-2.595-0.571-3.892-0.572
	c-24.995-0.013-49.99,0.018-74.984,0.039c-1.492-5.964-1.64-12.098-2.311-18.166c-1.579-14.272-3.142-28.547-4.768-42.814
	c-0.878-7.703-1.922-15.387-2.788-23.091c-0.261-2.32-1.392-3.03-3.61-2.994c-5.984,0.1-11.973,0.099-17.958,0.003
	c-2.424-0.038-3.439,0.664-3.718,3.327c-1.132,10.826-3.067,21.587-3.776,32.433c-1.134,17.337-4.177,34.448-5.47,51.752
	c-0.43-0.073-0.86-0.146-1.291-0.22c-15.871-0.676-31.745-0.366-47.619-0.163c-6.721-0.667-13.44-0.757-20.159,0.031
	c-7.6-1.742-15.316-0.655-22.977-0.944c-0.532-1.519-1.848-1.113-2.947-1.168c-6.688-0.337-6.692-0.33-6.692-7.246
	c-0.001-50.606,0.075-101.214-0.116-151.82c-0.02-5.143,0.81-8.017,6.59-7.063c0.076,0.013,0.213-0.349,0.369-0.617
	c-2.577-0.166-5.053-0.324-7.529-0.483c3.208-0.295,6.417-0.59,9.625-0.884c17.081,0.058,34.164-0.003,51.243,0.218
	c10.019,0.129,20.032,0.707,30.039-0.241c1.409,0.087,2.817,0.175,4.225,0.262c5.617-0.035,11.236-0.071,16.854-0.106
	c1.547,0.365,3.087,0.395,4.616-0.09C520.576,320.318,547.323,320.286,574.071,320.253z"/>
<path fill-rule="evenodd" clip-rule="evenodd" fill="#CCCCCC" d="M573.071,320.253c0.452,0.173,0.904,0.347,1.348,0.518
	c15.091,0.905,30.206,0.319,45.312,0.296c4.335-0.007,5.553,1.049,5.527,5.506c-0.199,35.109-0.122,70.221-0.076,105.331
	c0.003,1.922-0.686,4.007,0.774,5.761c0.006,12.607,0.013,25.214,0.02,37.821c-0.116,1.815-0.323,3.629-0.334,5.444
	c-0.054,9.174-0.038,9.041-8.986,9.226c-4.927,0.101-9.94-0.924-14.783,0.813c-1.298-0.199-2.595-0.571-3.892-0.572
	c-24.995-0.013-49.99,0.018-74.984,0.039c-1.492-5.964-1.64-12.098-2.311-18.166c-1.579-14.272-3.142-28.547-4.768-42.814
	c-0.878-7.703-1.922-15.387-2.788-23.091c-0.261-2.32-1.392-3.03-3.61-2.994c-5.984,0.1-11.973,0.099-17.958,0.003
	c-2.424-0.038-3.439,0.664-3.718,3.327c-1.132,10.826-3.067,21.587-3.776,32.433c-1.134,17.337-4.177,34.448-5.47,51.752
	c-0.43-0.073-0.86-0.146-1.291-0.22c-15.871-0.676-31.745-0.366-47.619-0.163c-6.721-0.667-13.44-0.757-20.159,0.031
	c-7.6-1.742-15.316-0.655-22.977-0.944c-0.532-1.519-1.848-1.113-2.947-1.168c-6.688-0.337-6.692-0.33-6.692-7.246
	c-0.001-50.606,0.075-101.214-0.116-151.82c-0.02-5.143,0.81-8.017,6.59-7.063c0.076,0.013,0.213-0.349,0.369-0.617
	c-2.577-0.166-5.053-0.324-7.529-0.483c3.208-0.295,6.417-0.59,9.625-0.884c17.081,0.058,34.164-0.003,51.243,0.218
	c10.019,0.129,20.032,0.707,30.039-0.241c1.409,0.087,2.817,0.175,4.225,0.262c5.617-0.035,11.236-0.071,16.854-0.106
	c1.547,0.365,3.087,0.395,4.616-0.09C519.576,320.318,546.323,320.286,573.071,320.253z"/>
<path fill-rule="evenodd" clip-rule="evenodd" fill="#CCCCCC" d="M572.071,320.253c0.452,0.173,0.904,0.347,1.348,0.518
	c15.091,0.905,30.206,0.319,45.312,0.296c4.335-0.007,5.553,1.049,5.527,5.506c-0.199,35.109-0.122,70.221-0.076,105.331
	c0.003,1.922-0.686,4.007,0.774,5.761c0.006,12.607,0.013,25.214,0.02,37.821c-0.116,1.815-0.323,3.629-0.334,5.444
	c-0.054,9.174-0.038,9.041-8.986,9.226c-4.927,0.101-9.94-0.924-14.783,0.813c-1.298-0.199-2.595-0.571-3.892-0.572
	c-24.995-0.013-49.99,0.018-74.984,0.039c-1.492-5.964-1.64-12.098-2.311-18.166c-1.579-14.272-3.142-28.547-4.768-42.814
	c-0.878-7.703-1.922-15.387-2.788-23.091c-0.261-2.32-1.392-3.03-3.61-2.994c-5.984,0.1-11.973,0.099-17.958,0.003
	c-2.424-0.038-3.439,0.664-3.718,3.327c-1.132,10.826-3.067,21.587-3.776,32.433c-1.134,17.337-4.177,34.448-5.47,51.752
	c-0.43-0.073-0.86-0.146-1.291-0.22c-15.871-0.676-31.745-0.366-47.619-0.163c-6.721-0.667-13.44-0.757-20.159,0.031
	c-7.6-1.742-15.316-0.655-22.977-0.944c-0.532-1.519-1.848-1.113-2.947-1.168c-6.688-0.337-6.692-0.33-6.692-7.246
	c-0.001-50.606,0.075-101.214-0.116-151.82c-0.02-5.143,0.81-8.017,6.59-7.063c0.076,0.013,0.213-0.349,0.369-0.617
	c-2.577-0.166-5.053-0.324-7.529-0.483c3.208-0.295,6.417-0.59,9.625-0.884c17.081,0.058,34.164-0.003,51.243,0.218
	c10.019,0.129,20.032,0.707,30.039-0.241c1.409,0.087,2.817,0.175,4.225,0.262c5.617-0.035,11.236-0.071,16.854-0.106
	c1.547,0.365,3.087,0.395,4.616-0.09C518.576,320.318,545.323,320.286,572.071,320.253z"/>
<path fill-rule="evenodd" clip-rule="evenodd" fill="#CCCCCC" d="M573.071,320.253c0.452,0.173,0.904,0.347,1.348,0.518
	c15.091,0.905,30.206,0.319,45.312,0.296c4.335-0.007,5.553,1.049,5.527,5.506c-0.199,35.109-0.122,70.221-0.076,105.331
	c0.003,1.922-0.686,4.007,0.774,5.761c0.006,12.607,0.013,25.214,0.02,37.821c-0.116,1.815-0.323,3.629-0.334,5.444
	c-0.054,9.174-0.038,9.041-8.986,9.226c-4.927,0.101-9.94-0.924-14.783,0.813c-1.298-0.199-2.595-0.571-3.892-0.572
	c-24.995-0.013-49.99,0.018-74.984,0.039c-1.492-5.964-1.64-12.098-2.311-18.166c-1.579-14.272-3.142-28.547-4.768-42.814
	c-0.878-7.703-1.922-15.387-2.788-23.091c-0.261-2.32-1.392-3.03-3.61-2.994c-5.984,0.1-11.973,0.099-17.958,0.003
	c-2.424-0.038-3.439,0.664-3.718,3.327c-1.132,10.826-3.067,21.587-3.776,32.433c-1.134,17.337-4.177,34.448-5.47,51.752
	c-0.43-0.073-0.86-0.146-1.291-0.22c-15.871-0.676-31.745-0.366-47.619-0.163c-6.721-0.667-13.44-0.757-20.159,0.031
	c-7.6-1.742-15.316-0.655-22.977-0.944c-0.532-1.519-1.848-1.113-2.947-1.168c-6.688-0.337-6.692-0.33-6.692-7.246
	c-0.001-50.606,0.075-101.214-0.116-151.82c-0.02-5.143,0.81-8.017,6.59-7.063c0.076,0.013,0.213-0.349,0.369-0.617
	c-2.577-0.166-5.053-0.324-7.529-0.483c3.208-0.295,6.417-0.59,9.625-0.884c17.081,0.058,34.164-0.003,51.243,0.218
	c10.019,0.129,20.032,0.707,30.039-0.241c1.409,0.087,2.817,0.175,4.225,0.262c5.617-0.035,11.236-0.071,16.854-0.106
	c1.547,0.365,3.087,0.395,4.616-0.09C519.576,320.318,546.323,320.286,573.071,320.253z"/>
<path fill-rule="evenodd" clip-rule="evenodd" fill="#CCCCCC" d="M574.071,320.253c0.452,0.173,0.904,0.347,1.348,0.518
	c15.091,0.905,30.206,0.319,45.312,0.296c4.335-0.007,5.553,1.049,5.527,5.506c-0.199,35.109-0.122,70.221-0.076,105.331
	c0.003,1.922-0.686,4.007,0.774,5.761c0.006,12.607,0.013,25.214,0.02,37.821c-0.116,1.815-0.323,3.629-0.334,5.444
	c-0.054,9.174-0.038,9.041-8.986,9.226c-4.927,0.101-9.94-0.924-14.783,0.813c-1.298-0.199-2.595-0.571-3.892-0.572
	c-24.995-0.013-49.99,0.018-74.984,0.039c-1.492-5.964-1.64-12.098-2.311-18.166c-1.579-14.272-3.142-28.547-4.768-42.814
	c-0.878-7.703-1.922-15.387-2.788-23.091c-0.261-2.32-1.392-3.03-3.61-2.994c-5.984,0.1-11.973,0.099-17.958,0.003
	c-2.424-0.038-3.439,0.664-3.718,3.327c-1.132,10.826-3.067,21.587-3.776,32.433c-1.134,17.337-4.177,34.448-5.47,51.752
	c-0.43-0.073-0.86-0.146-1.291-0.22c-15.871-0.676-31.745-0.366-47.619-0.163c-6.721-0.667-13.44-0.757-20.159,0.031
	c-7.6-1.742-15.316-0.655-22.977-0.944c-0.532-1.519-1.848-1.113-2.947-1.168c-6.688-0.337-6.692-0.33-6.692-7.246
	c-0.001-50.606,0.075-101.214-0.116-151.82c-0.02-5.143,0.81-8.017,6.59-7.063c0.076,0.013,0.213-0.349,0.369-0.617
	c-2.577-0.166-5.053-0.324-7.529-0.483c3.208-0.295,6.417-0.59,9.625-0.884c17.081,0.058,34.164-0.003,51.243,0.218
	c10.019,0.129,20.032,0.707,30.039-0.241c1.409,0.087,2.817,0.175,4.225,0.262c5.617-0.035,11.236-0.071,16.854-0.106
	c1.547,0.365,3.087,0.395,4.616-0.09C520.576,320.318,547.323,320.286,574.071,320.253z"/>
<path fill-rule="evenodd" clip-rule="evenodd" fill="#CCCCCC" d="M575.071,320.253c0.452,0.173,0.904,0.347,1.348,0.518
	c15.091,0.905,30.206,0.319,45.312,0.296c4.335-0.007,5.553,1.049,5.527,5.506c-0.199,35.109-0.122,70.221-0.076,105.331
	c0.003,1.922-0.686,4.007,0.774,5.761c0.006,12.607,0.013,25.214,0.02,37.821c-0.116,1.815-0.323,3.629-0.334,5.444
	c-0.054,9.174-0.038,9.041-8.986,9.226c-4.927,0.101-9.94-0.924-14.783,0.813c-1.298-0.199-2.595-0.571-3.892-0.572
	c-24.995-0.013-49.99,0.018-74.984,0.039c-1.492-5.964-1.64-12.098-2.311-18.166c-1.579-14.272-3.142-28.547-4.768-42.814
	c-0.878-7.703-1.922-15.387-2.788-23.091c-0.261-2.32-1.392-3.03-3.61-2.994c-5.984,0.1-11.973,0.099-17.958,0.003
	c-2.424-0.038-3.439,0.664-3.718,3.327c-1.132,10.826-3.067,21.587-3.776,32.433c-1.134,17.337-4.177,34.448-5.47,51.752
	c-0.43-0.073-0.86-0.146-1.291-0.22c-15.871-0.676-31.745-0.366-47.619-0.163c-6.721-0.667-13.44-0.757-20.159,0.031
	c-7.6-1.742-15.316-0.655-22.977-0.944c-0.532-1.519-1.848-1.113-2.947-1.168c-6.688-0.337-6.692-0.33-6.692-7.246
	c-0.001-50.606,0.075-101.214-0.116-151.82c-0.02-5.143,0.81-8.017,6.59-7.063c0.076,0.013,0.213-0.349,0.369-0.617
	c-2.577-0.166-5.053-0.324-7.529-0.483c3.208-0.295,6.417-0.59,9.625-0.884c17.081,0.058,34.164-0.003,51.243,0.218
	c10.019,0.129,20.032,0.707,30.039-0.241c1.409,0.087,2.817,0.175,4.225,0.262c5.617-0.035,11.236-0.071,16.854-0.106
	c1.547,0.365,3.087,0.395,4.616-0.09C521.576,320.318,548.323,320.286,575.071,320.253z"/>
<path fill-rule="evenodd" clip-rule="evenodd" fill="#CCCCCC" d="M573.071,320.253c0.452,0.173,0.904,0.347,1.348,0.518
	c15.091,0.905,30.206,0.319,45.312,0.296c4.335-0.007,5.553,1.049,5.527,5.506c-0.199,35.109-0.122,70.221-0.076,105.331
	c0.003,1.922-0.686,4.007,0.774,5.761c0.006,12.607,0.013,25.214,0.02,37.821c-0.116,1.815-0.323,3.629-0.334,5.444
	c-0.054,9.174-0.038,9.041-8.986,9.226c-4.927,0.101-9.94-0.924-14.783,0.813c-1.298-0.199-2.595-0.571-3.892-0.572
	c-24.995-0.013-49.99,0.018-74.984,0.039c-1.492-5.964-1.64-12.098-2.311-18.166c-1.579-14.272-3.142-28.547-4.768-42.814
	c-0.878-7.703-1.922-15.387-2.788-23.091c-0.261-2.32-1.392-3.03-3.61-2.994c-5.984,0.1-11.973,0.099-17.958,0.003
	c-2.424-0.038-3.439,0.664-3.718,3.327c-1.132,10.826-3.067,21.587-3.776,32.433c-1.134,17.337-4.177,34.448-5.47,51.752
	c-0.43-0.073-0.86-0.146-1.291-0.22c-15.871-0.676-31.745-0.366-47.619-0.163c-6.721-0.667-13.44-0.757-20.159,0.031
	c-7.6-1.742-15.316-0.655-22.977-0.944c-0.532-1.519-1.848-1.113-2.947-1.168c-6.688-0.337-6.692-0.33-6.692-7.246
	c-0.001-50.606,0.075-101.214-0.116-151.82c-0.02-5.143,0.81-8.017,6.59-7.063c0.076,0.013,0.213-0.349,0.369-0.617
	c-2.577-0.166-5.053-0.324-7.529-0.483c3.208-0.295,6.417-0.59,9.625-0.884c17.081,0.058,34.164-0.003,51.243,0.218
	c10.019,0.129,20.032,0.707,30.039-0.241c1.409,0.087,2.817,0.175,4.225,0.262c5.617-0.035,11.236-0.071,16.854-0.106
	c1.547,0.365,3.087,0.395,4.616-0.09C519.576,320.318,546.323,320.286,573.071,320.253z"/>
<path fill-rule="evenodd" clip-rule="evenodd" fill="#80C41C" d="M913.493,445.762c-6.698-0.206-6.544-0.178-5.319-6.775
	c0.271-1.454,3.412-4.685-1.673-4.844c-1.566-0.049-0.674-1.421-0.13-2.208c0.944-1.368,2.003-2.665,2.855-4.087
	c5.164-8.612,4.267-15.328-2.898-22.213c-16.573-15.926-33.084-31.916-49.78-47.711c-2.408-2.278-2.157-3.829-0.665-6.306
	c12.456-20.677,26.272-40.708,36.735-62.356c8.636-17.868,23.472-23.734,40.066-28.646c9.763-2.889,9.801-2.748,8.157,7.494
	c-0.211,1.313-0.363,2.636-0.523,3.957c-0.596,4.905-1.183,9.81-1.889,15.684c5.602-4.176,10.667-7.628,15.337-11.55
	c2.969-2.494,5.296-3.126,7.745,0.291c3.241,4.521,6.348,4.409,9.43-0.172c1.647-2.448,3.247-2.461,5.634-0.494
	c4.834,3.982,10.002,7.558,15.743,11.832c-1.16-10.328-2.212-19.691-3.264-29.055c2.382,0.489,4.764,0.979,7.145,1.467
	c3.405,3.937,3.788,8.111,1.552,12.852c-1.193,2.531-0.365,5.263,1.127,7.616c1.172,1.847,1.08,3.615,0.443,5.66
	c-1.799,5.787,0.258,11.017,5.127,13.638c3.934,2.117,9.715,0.372,13.182-4.13c0.941-1.223,1.67-2.823,3.461-2.03
	c5.01,2.216,8.58-0.594,12.252-3.219c1.219,5.057,1.252,10.236,1.213,15.367c-0.379,49.682-0.855,99.364-1.311,149.046
	c-0.004,0.496-0.082,0.992-0.125,1.488c-3.598,0.043-7.197,0.086-10.795,0.129c-0.26-2.73-0.59-5.456-0.75-8.191
	c-0.098-1.697-0.504-2.866-2.516-2.605C983.871,445.713,948.683,445.738,913.493,445.762z M911.473,307.844
	c-9.505,14.037-19.235,28.509-29.109,42.882c-1.506,2.193-0.215,3.331,0.895,4.728c5.17,6.509,10.339,13.018,15.544,19.498
	c6.221,7.745,12.478,15.462,18.647,23.103C930.186,366.967,930.072,336.792,911.473,307.844z M1019.333,419.262
	c0.199-0.051,0.398-0.103,0.6-0.153c-1.957-32.308-3.914-64.615-5.926-97.82c-7.535,9.577-9.947,19.741-10.506,30.525
	c-0.559,10.795,1.801,21.1,5,31.317C1012.259,395.129,1015.735,407.215,1019.333,419.262z"/>
<path fill-rule="evenodd" clip-rule="evenodd" fill="#58220A" d="M296.369,842.545c-0.433,0.689-1.299,1.427-1.23,2.062
	c0.601,5.541-3.419,3.903-6.204,4.053c-4.335,0.233-2.546-3.158-2.547-4.962c-0.088-98.949-0.091-197.899-0.011-296.85
	c0.001-1.841-1.476-4.494,1.673-5.524c5.453,0.379,10.906,1.087,16.359,1.089c194.878,0.057,389.756,0.036,584.634,0.104
	c5.495,0.002,10.845-1.814,16.361-0.941c-0.025,0.665-0.074,1.331-0.074,1.996c-0.005,99.724-0.008,199.448-0.002,299.172
	c0,1.818-0.205,3.683,0.81,5.354l-0.376,0.105c0,0-0.267-0.285-0.266-0.285c-7.19-1.008-7.191-1.008-7.191-8.619
	c-0.001-89.57,0.006-179.14-0.048-268.71c-0.001-2.031,0.959-4.369-1.095-6.082c-4.643-0.113-9.284-0.316-13.926-0.322
	c-25.913-0.032-51.826-0.022-77.739-0.002c-1.985,0.002-3.971,0.201-5.956,0.309c-65.891-0.023-131.78-0.048-197.671-0.063
	c-0.994,0-1.988,0.135-2.982,0.207c-19.495-0.828-38.995-0.463-58.494-0.191c-0.001,0-0.017-0.332-0.017-0.332
	c-2.646-1.19-5.317-1.011-8.001-0.141c-1.997,0.177-3.994,0.354-5.991,0.531c-13.995-0.023-27.989-0.046-41.984-0.068l-0.055-0.061
	c-2.611-1.65-5.297-1.243-8.002-0.291c-0.305,0.146-0.61,0.291-0.915,0.437c-14.012-0.026-28.023-0.052-42.035-0.078
	c-1.72-0.16-3.44-0.321-5.16-0.481c-1.12-0.188-2.239-0.539-3.359-0.541c-24.376-0.031-48.753-0.031-73.13,0
	c-1.121,0.002-2.24,0.354-3.36,0.542c-2.292,0.184-4.583,0.367-6.875,0.552c-13.486-0.019-26.977,0.147-40.457-0.16
	c-4.567-0.104-5.861,1.171-5.854,5.81c0.138,88.911,0.097,177.822,0.136,266.732C295.334,838.793,294.569,840.935,296.369,842.545z"
	/>
<path fill-rule="evenodd" clip-rule="evenodd" fill="#703110" d="M905.403,541.576c-5.517-0.873-10.866,0.943-16.361,0.941
	c-194.878-0.068-389.756-0.048-584.634-0.104c-5.453-0.002-10.907-0.71-16.359-1.089c17.257-10.846,34.524-21.674,51.754-32.562
	c1.854-1.172,3.796-0.979,5.769-0.992c15.265-0.101,30.53-0.193,45.794-0.289c6.615,0.017,13.23,0.032,19.846,0.048
	c6.725,0.37,13.45,0.435,20.173-0.032c2.337-2.088,4.711,0.105,7.037,0.14c9.996,0.144,20.06-1.337,29.992,0.86
	c-4.283,2.814-8.621,5.55-12.824,8.479c-2.081,1.45-5.57,2.533-4.691,5.701c0.973,3.505,4.549,1.692,6.95,1.799
	c3.101,0.138,5.799,0.106,5.429,4.364c-0.208,2.391,1.427,2.602,3.26,2.602c23.634-0.007,47.268,0.001,70.901,0.022
	c1.807,0.002,3.908-0.337,3.574-2.415c-0.865-5.381,2.683-4.485,5.724-4.486c34.951-0.003,69.902-0.025,104.854,0.033
	c4.166,0.008,7.888-0.703,10.676-4.085l0.107-0.078c0.369-0.238,0.737-0.476,1.106-0.713c11.153-1.604,22.264-3.404,32.947-7.166
	c8.762-3.085,17.461-5.912,27.08-5.118c7.421,0.612,14.939,0.045,22.412,0c3.44,0.561,6.889,0.432,10.339,0.096
	c14.43-0.015,28.859-0.029,43.289-0.044c3.321,0.093,6.643,0.263,9.964,0.265c35.431,0.019,70.862,0.013,106.294-0.001
	c1.825-0.001,3.649-0.131,5.475-0.202c12.338,0.071,24.675,0.144,37.013,0.217c-0.062,1.168-0.937,1.65-1.788,2.193
	c-11.73,7.489-23.353,15.155-35.225,22.412C916.07,535.555,911.278,539.522,905.403,541.576z"/>
<path fill-rule="evenodd" clip-rule="evenodd" fill="#3D0D09" d="M905.403,541.576c5.875-2.054,10.667-6.021,15.876-9.205
	c11.872-7.257,23.494-14.923,35.225-22.412c0.852-0.543,1.727-1.025,1.788-2.196c2.992,0.972,1.95,3.521,1.956,5.472
	c0.069,21.859,0.045,43.719,0.046,65.578l0.275,0.335c-0.088,1.656-0.251,3.312-0.252,4.968
	c-0.015,48.449-0.005,96.899-0.034,145.349c-0.001,2.521,0.225,4.834,1.527,7.145c2.026,3.593,2.68,7.387,0.636,11.389
	c-0.722,1.412-0.804,3.212-0.935,4.854c-1.563,19.522-1.251,39.088-1.12,58.642c0.022,3.426-1.045,5.31-3.989,7.016
	c-16.822,9.748-33.523,19.703-50.266,29.588c-1.015-1.67-0.81-3.534-0.81-5.353c-0.006-99.724-0.003-199.448,0.002-299.172
	C905.329,542.907,905.378,542.241,905.403,541.576z"/>
<path fill-rule="evenodd" clip-rule="evenodd" fill="#349980" d="M745.921,507.437c-7.475,0.043-14.993,0.61-22.414-0.002
	c-9.619-0.794-18.318,2.033-27.08,5.118c-10.684,3.762-21.794,5.562-32.948,7.164c-0.369,0.237-0.737,0.476-1.105,0.715
	l-0.107,0.078c-10.064,0.237-20.002,2.164-30.109,2.084c-4.13-0.032-6.409-0.937-5.829-5.512c0.122-0.966-0.116-1.978-0.188-2.968
	c-0.009-5.112-0.018-10.224-0.025-15.336c-0.012-0.606-0.022-1.213-0.034-1.819c1.137-2.246,3.257-1.196,4.881-1.263
	c11.151-0.455,22.23-1.527,33.274-3.145c2.521-0.369,3.441-1.183,3.166-3.753c-0.621-5.787-1.208-11.588-1.477-17.398
	c-0.184-3.973-1.893-6.223-5.631-7.567c-3.445-1.239-6.549-3.388-9.065-6.048c-2.199-2.325-3.4-2.472-5.588,0.213
	c-5.355,6.573-11.258,12.67-18.281,17.549c-0.007-12.607-0.014-25.214-0.021-37.822c0.272-0.288,0.544-0.577,0.815-0.865
	c4.337-6.092,8.341-12.379,11.39-19.235c3.039-6.833,5.832-13.616,5.232-21.458c-0.284-3.707,0.633-7.619,1.591-11.284
	c2.142-8.187,6.337-14.881,14.523-18.467c3.297-1.444,6.391-3.354,10.551-5.569c-3.15,7.66-5.914,14.38-9.168,22.291
	c4.972-2.923,8.894-5.229,12.815-7.533c3.398,4.083,7.074,7.851,11.857,10.349c1.28,0.669,2.355,1.561,4.096,0.825
	c6.706-2.831,13.397-5.629,18.398-11.231c4.664,2.119,8.042,6.157,13.182,8.944c-1.548-10.246-3.01-19.926-4.523-29.946
	c3.857,1.416,7.23,2.654,10.603,3.892c5.135,3.12,10.798,5.056,16.349,7.228c9.613,3.761,15.621,10.604,17.294,20.793
	c0.913,5.554,0.863,11.258,1.566,16.854c3.174,25.284,2.442,49.887-12.024,72.219c-8.918,7.543-11.849,16.53-6.793,27.556
	C745.69,504.388,745.66,505.979,745.921,507.437z"/>
<path fill-rule="evenodd" clip-rule="evenodd" fill="#7C411E" d="M1033.343,290.456c-3.672,2.625-7.242,5.435-12.252,3.219
	c-1.791-0.793-2.52,0.808-3.461,2.03c-3.467,4.502-9.248,6.247-13.182,4.13c-4.869-2.621-6.926-7.851-5.127-13.638
	c0.637-2.045,0.729-3.813-0.443-5.66c-1.492-2.353-2.32-5.084-1.127-7.616c2.236-4.741,1.854-8.916-1.551-12.85
	c0.094-3.934-0.771-7.986,1.512-11.649c1.008-1.617-0.152-2.724-0.934-4.013c-2.752-4.545-3.291-9.242-0.906-14.194
	c0.526-1.093,2.396-2.348,0.402-3.819c-0.666-2.982-1.333-5.964-1.999-8.946c0.407-3.947,2.218-7.297,4.817-10.137
	c1.727-1.885,2.531-3.522,1.666-6.189c-1.287-3.959-0.588-8.008,1.615-11.47c1.461-2.296,1.117-4.391,1.238-6.852
	c0.322-6.635,1.713-13.206-0.156-19.844c-0.23-0.814,0.543-1.877,0.723-2.848c0.309-1.677-0.215-2.978-1.996-3.448
	c-3.965-1.048-7.941-2.058-11.914-3.084c0-0.001,0.005,0.017,0.005,0.017c-0.798-1.488-2.371-1.636-3.725-2.203
	c-12.832-5.376-24.407-12.486-33.34-23.473c-3.185-3.917-4.794-8.622-7.554-13.433c-3.458,4.662-8.022,7.361-13.007,9.198
	c-4.147,1.528-7.085,4.333-9.324,7.831c-7.402,11.565-7.944,24.591-7.518,37.746c0.048,1.447,0.933,2.873-0.379,4.169
	c-5.948-23.683-8.033-47.18,3.362-70.029c6.506-13.043,16.606-22.005,30.63-26.073c20.932-6.072,41.622-7.074,61.382,4.294
	c4.809,2.766,8.922,6.391,12.625,10.485c3.215,3.554,5.563,7.843,9.564,10.754c1.756,1.279,3.213,3.636,2.996,5.571
	c-0.691,6.137,2.766,9.255,6.998,12.757c3.992,3.301,4.473,8.549,3.006,13.416c-0.832,2.765-0.664,4.363,1.551,6.441
	c5.188,4.871,6.133,11.127,2.707,17.271c-1.297,2.326-1.385,3.33,0.893,5.083c6.559,5.052,7.656,12.993,2.838,19.892
	c-1.322,1.892-1.303,2.726,0.176,4.498c5.506,6.604,5.199,13.979-0.857,20.102c-1.811,1.83-1.955,2.663-0.23,4.697
	c5.543,6.536,5.191,13.838-0.836,20.101c-1.426,1.48-1.699,2.042-0.328,3.898c5.852,7.92,4.594,15.83-3.326,21.616
	c-1.715,1.254-2.379,2.383-2.164,4.472c0.783,7.619-2.545,12.857-9.66,15.574c-1.625,0.621-2.689,1.04-1.938,3.085
	C1036.019,284.604,1034.526,287.524,1033.343,290.456z M960.328,92.487c-0.133,0.057-0.287,0.089-0.391,0.18
	c-0.062,0.053-0.042,0.198-0.059,0.301c0.138-0.173,0.275-0.346,0.413-0.519c0.16-0.144,0.321-0.289,0.481-0.433
	c-0.098,0.023-0.237,0.015-0.284,0.077C960.405,92.202,960.379,92.354,960.328,92.487z M950.301,107.453
	c3.756-3.515,6.573-7.635,8.213-12.512c-3.243,3.85-7.193,7.249-8.184,12.542c-0.643-0.025-1.215,0.115-1.365,0.831
	c-0.029,0.138,0.338,0.526,0.469,0.502C950.172,108.685,950.24,108.058,950.301,107.453z"/>
<path fill-rule="evenodd" clip-rule="evenodd" fill="#3D0D09" d="M296.369,842.545c-1.8-1.61-1.034-3.752-1.035-5.651
	c-0.04-88.91,0.001-177.821-0.136-266.732c-0.007-4.639,1.287-5.913,5.854-5.81c13.479,0.308,26.97,0.142,40.457,0.16
	c0.003,82.303-0.021,164.605,0.1,246.908c0.005,3.67-1.147,5.536-4.303,7.318C323.561,826.5,309.998,834.581,296.369,842.545z"/>
<path fill-rule="evenodd" clip-rule="evenodd" fill="#624131" d="M464.791,231.248c-25.647-8.824-36.947-28.941-42.267-53.743
	c-0.589-2.748-0.967-5.541-1.443-8.308c0.324-0.242,0.258-1.07,0.995-0.674c0.1,0.054,0.117,0.279,0.155,0.429
	c1.985,7.927,4.833,15.559,8.269,22.946c1.606,3.454,2.096,8.383,7.083,8.76c5.066,0.384,6.725-4.154,8.917-7.604
	c3.994-6.288,9.442-8.989,16.527-7.065c4.36,1.185,8.271,1.042,12.586-0.017c8.12-1.993,15.656,0.542,18.695,8.182
	c1.778,4.472,5.356,7.715,11.025,6.422c9.022-1.857,13.225-8.761,16.806-16.214c7.245-15.077,5.323-31.174,4.73-47.024
	c-0.181-4.833-2.639-9.646-7.702-11.386c-3.848-1.321-3.397-2.976-2.563-6.136c3.336-12.63,1.939-28.352-16.313-29.17
	c-19.78-3.295-39.657-2.866-59.518-1.169c-6.963,0.595-11.268,5.125-13.442,11.679c-1.551,4.674-1.372,9.477-1.159,14.298
	c0.067,1.503,0.882,3.276-1.569,4.052c-4.126,1.306-5.193,4.643-5.36,8.599c-0.146,3.473-0.604,6.933-0.924,10.398
	c-4.555-12.843-5.516-26.19-5.351-39.653c0.122-9.921,1.689-19.579,6.782-28.333c0.834-1.434,0.804-2.787,0.49-4.304
	c-2.657-12.825,1.667-23.599,9.942-33.121c5.86-6.744,13.124-11.689,21.283-16.178c1.287,6.144,3.395,11.593,9.22,14.489
	c5.397,2.683,11.192,3.092,17.065,2.611c9.324-0.763,18.614-1.281,27.789,1.263c4.728,1.311,9.02,3.393,12.7,6.663
	c2.404,2.136,5.268,4.671,5.084,7.726c-0.422,7.019,4.284,9.781,8.655,13.682c7.276,6.493,9.015,15.714,9.351,25.051
	c0.644,17.837,0.082,35.639-2.302,53.348c-1.691,2.476-6.133-1.066-6.915,2.984c-0.556,2.878-0.528,5.875-0.69,8.822
	c-0.09,1.636-0.033,3.281-0.043,4.921c-0.045,1.284-0.089,2.568-0.134,3.853c-0.501,0.582-0.695,1.2-0.226,1.897
	c-0.104,0.766-0.209,1.532-0.313,2.298c-0.416,3.655-0.832,7.311-1.248,10.966c-0.349,1.793-0.965,3.582-1.002,5.381
	c-0.24,11.763-6.627,19.819-15.666,26.286c-5.794,4.146-11.658,8.194-17.491,12.287c-6.173,2.677-11.457,7.083-17.914,9.205
	C473.209,231.298,469.021,231.72,464.791,231.248z M470.223,192.188c0-0.007,0-0.015,0-0.022c-4.307,0-8.622,0.167-12.918-0.053
	c-3.379-0.173-3.485,1.44-2.76,3.94c1.588,5.474,6.942,8.953,14.838,9.593c6.872,0.558,14.329-4.113,16.215-9.975
	c0.799-2.485,0.583-3.669-2.457-3.532C478.843,192.333,474.53,192.188,470.223,192.188z"/>
<path fill-rule="evenodd" clip-rule="evenodd" fill="#1C242E" d="M960.294,578.812c-0.001-21.859,0.023-43.719-0.046-65.578
	c-0.006-1.95,1.036-4.5-1.956-5.472c-12.338-0.07-24.675-0.143-37.013-0.214c-2.599-20.596-6.549-41.021-7.786-61.788
	c35.189-0.022,70.378-0.047,105.566-0.07c-1.326,18.454-5.014,36.606-6.969,54.985c-2.783,26.159-7.027,52.121-11.014,78.112
	C987.484,578.793,973.89,578.802,960.294,578.812z"/>
<path fill-rule="evenodd" clip-rule="evenodd" fill="#333333" d="M786.383,597.249c9.171,8.031,13.673,17.759,11.085,30.136
	c-2.76,13.19-14.451,22.915-28.218,23.081c-15.964,0.192-31.931,0.16-47.896,0.225c-5.354-0.025-10.708-0.049-16.062-0.073
	c-2.037,0.388-1.343,2.04-1.343,3.197c0.014,37.465,0.071,74.93,0.122,112.395c-0.171-0.028-0.317-0.105-0.438-0.23
	c-0.064-28.939-0.133-57.88-0.191-86.82c-0.017-7.984-0.266-15.981,0.103-23.949c0.196-4.242-1.492-4.829-5.14-4.778
	c-13.306,0.187-26.615,0.082-39.923,0.073c-14.781-0.01-25.924-7.45-30.079-20.068c-4.186-12.707,0.232-25.139,12.082-34.063
	c0.369-0.278,0.586-0.76,0.876-1.146c15.758,0.908,31.534,1.576,47.269,2.787c17.844,1.374,35.564,2.559,51.995-6.697
	c9.554,0.603,19.113,0.347,28.672,0.159c5.632,0.718,11.013,2.233,15.995,5.02C785.656,596.746,786.02,596.997,786.383,597.249z"/>
<path fill-rule="evenodd" clip-rule="evenodd" fill="#A0642F" d="M643.431,271.533c-4.604-18.907-7.299-37.921-2.731-57.249
	c6.963-29.463,26.157-45.813,56.755-48.861c13.106-1.306,25.998-1.015,38.251,4.23c17.476,7.48,29.917,19.55,33.859,38.916
	c0.13,0.636,0.504,1.222,0.765,1.831c-0.006,1.813,0.237,3.58,0.502,5.385c2.456,16.764,2.868,33.466-2.138,49.93
	c-0.651,2.142-1.431,4.062-3.776,4.818c-0.468-0.749-0.936-1.497-1.404-2.245c-0.355-0.646-0.71-1.292-1.063-1.938
	c-3.232-4.618-5.339-4.603-9.836,0.072c-2.75,2.374-2.53,6.432-5.441,10.033c0-5.714-0.317-10.354,0.088-14.93
	c0.419-4.735-1.71-6.252-5.95-6.046c-5.328-1.412-10.352-4.039-16.038-4.016l0.05,0.05c-0.331-1.92-2.104-1.758-3.363-2.263
	c-20.039-8.032-37.561-18.986-46.459-40.508c-3.14,5.088-7.797,7.429-12.622,9.215c-6.932,2.566-11.192,7.513-13.995,14.043
	c-2.784,6.49-4.219,13.301-4.611,20.325C643.912,258.724,643.704,265.13,643.431,271.533z"/>
<path fill-rule="evenodd" clip-rule="evenodd" fill="#F1A173" d="M505.333,200.578c-5.669,1.292-9.247-1.951-11.025-6.422
	c-3.039-7.641-10.575-10.175-18.695-8.182c-4.315,1.059-8.226,1.201-12.586,0.017c-7.085-1.924-12.533,0.777-16.527,7.065
	c-2.191,3.45-3.851,7.988-8.917,7.604c-4.987-0.377-5.477-5.306-7.083-8.76c-3.436-7.388-6.284-15.02-8.269-22.946
	c-0.038-0.15-0.055-0.375-0.155-0.429c-0.737-0.396-0.671,0.432-0.995,0.674c-1.496-5.062-1.202-10.321-1.708-15.488
	c-0.429-4.384-0.626-8.792-0.927-13.191c0.559-0.752,0.664-1.463-0.182-2.092l0.055,0.08c0.32-3.466,0.777-6.926,0.924-10.399
	c0.167-3.956,1.234-7.293,5.36-8.599c2.451-0.776,1.636-2.548,1.569-4.052c-0.213-4.821-0.392-9.625,1.159-14.298
	c2.174-6.555,6.479-11.084,13.442-11.679c19.86-1.697,39.737-2.126,59.518,1.169c1.593,3.426,3.218,6.838,4.772,10.281
	c8.494,18.816,13.574,38.485,13.072,59.187c-0.188,7.766-1.637,15.549-4.91,22.974C510.646,188.94,506.894,194.276,505.333,200.578z
	 M497.573,139.183c-2.917-2.923-5.723-2.043-8.062,0.599c-1.99,2.249-1.826,4.915,0.151,7.182c2.142,2.455,4.892,2.862,7.489,0.946
	c2.653-1.958,3.638-4.555,1.251-7.527C498.126,139.982,497.85,139.583,497.573,139.183z M429.257,132.498
	c8.95-3.229,17.683-3.053,26.461-2.196c2.192,0.214,4.749,0.56,5.084-2.427c0.313-2.787-1.713-3.968-4.3-4.505
	c-5.103-1.06-10.255-1.449-15.367-0.615C435.709,123.639,431.094,125.918,429.257,132.498z M511.835,132.544
	c-1.414-5.106-4.532-7.587-8.63-8.934c-6.023-1.979-12.133-1.394-18.247-0.308c-2.727,0.484-5.08,1.474-4.675,4.647
	c0.448,3.516,3.46,2.49,5.582,2.285C494.368,129.411,502.776,129.375,511.835,132.544z M441.173,143.076
	c0.229,3.824,2.382,5.966,5.681,6.052c3.619,0.095,6.098-2.351,6.061-5.948c-0.037-3.573-2.346-5.921-6.164-5.721
	C443.256,137.643,441.46,139.849,441.173,143.076z M471.057,182.008c-10.885-2.05-12.356-4.957-8.671-14.904
	c0.959-2.591,2.598-5.102,2.614-8.79c-4.083,3.217-6.359,6.975-7.317,11.053c-0.921,3.922-1.638,8.59,1.97,11.728
	C462.644,183.697,466.402,184.44,471.057,182.008z"/>
<path fill-rule="evenodd" clip-rule="evenodd" fill="#333333" d="M751.884,475.53c14.469-22.332,15.2-46.935,12.026-72.219
	c-0.703-5.597-0.653-11.301-1.566-16.854c-1.673-10.188-7.681-17.032-17.294-20.793c-5.551-2.172-11.214-4.107-16.346-7.227
	c8.33-0.205,16.657-0.41,24.984-0.615c0.89,1.771,1.721,3.573,2.681,5.305c3.789,6.84,9.083,11.93,17.052,13.22
	c8.959,1.451,17.231-0.84,25.519-5.58c-6.38-2.614-10.928-6.496-13.425-12.476c7.324-0.009,14.726-0.782,21.952,0.521
	c18.503,3.337,31.714,19.237,31.902,38.135c0.132,13.331,0.136,26.665-0.013,39.996c-0.24,21.63-17.15,38.42-38.837,38.781
	c-4.657,0.077-9.313,0.236-13.97,0.354c-5.746-0.51-11.492-0.475-17.239-0.021C763.502,475.878,757.692,475.705,751.884,475.53z"/>
<path fill-rule="evenodd" clip-rule="evenodd" fill="#F1A173" d="M725.271,251.462c5.687-0.023,10.71,2.604,16.038,4.016
	c1.021,8.733,1.656,17.433,0.036,26.206c-4.624,25.039-18.033,43.647-41.243,54.123c-11.807,5.329-23.913,4.673-34.09-5.079
	c-0.979-0.938-2.026-2.354-3.767-1.19c-9.06-11.038-12.686-24.354-15.6-37.891c-1.427-6.629-2.166-13.407-3.217-20.115
	c0.274-6.401,0.482-12.808,0.841-19.206c0.393-7.023,1.827-13.835,4.611-20.325c2.803-6.531,7.063-11.477,13.995-14.043
	c4.825-1.787,9.482-4.127,12.622-9.215c8.898,21.521,26.42,32.476,46.459,40.508c1.259,0.505,3.032,0.343,3.363,2.263
	c-8.112-2.223-16.188-2.876-24.45-0.428c-3.228,0.956-3.916,2.78-3.304,5.505c0.828,3.69,3.176,1.148,4.685,0.791
	c9.722-2.305,19.443-5.154,28.084,3.915C730.508,256.524,726.957,254.489,725.271,251.462z M706.286,265.374
	c-1.058-0.398-1.509,0.177-1.749,1.09c-0.161,0.033-0.422,0.015-0.471,0.107c-0.701,1.344,1.209,0.774,1.29,1.843
	c0.309,4.106,2.591,6.597,6.784,6.033c4.603-0.619,5.384-4.229,5.179-8.192c0.279,0.178,0.584,0.277,0.915,0.298
	c0.763,1.596,1.703,2.993,3.536,3.491c0.052-2.275-0.99-3.574-2.916-4.198c-2.662-2.911-5.496-5.148-9.592-2.456l0.013-0.012
	c-1.432,0.051-3.314-0.578-3.047,2.027L706.286,265.374z M671.316,264.409l0.057,0.062c-2.291-3.061-5.448-4.951-9.025-3.461
	c-3.245,1.352-7.13,2.504-8.44,6.6c-0.044,0.135-0.241,0.221-0.367,0.33c0.118,0.058,0.237,0.116,0.401,0.196
	c2.611-0.193,3.606-2.693,5.479-3.964c0.206,1.94-0.484,3.958,0.72,5.818c1.399,2.161,3.278,3.352,5.838,2.889
	c4.078-0.737,4.974-3.904,5.298-7.408c0.244-0.085,0.487-0.171,0.731-0.256C671.776,264.945,671.547,264.677,671.316,264.409z
	 M671.309,311.464c0.478,6.149,6.311,12.328,12.262,12.99c8.495,0.945,15.318-2.878,17.78-9.962c1.438-0.883,2.909-1.811,2.72-3.78
	c-0.093-0.963-1.03-1.106-1.89-1.239c-9.723-1.511-19.515-0.962-29.285-0.977C670.803,308.492,669.492,309.223,671.309,311.464z
	 M647.429,257.592c4.928-4.15,10.662-5.17,16.787-3.952c3.722,0.74,7.326,2.052,11.017,2.969c1.453,0.361,3.406,2.653,4.317-0.605
	c0.594-2.124,0.986-4.26-1.894-5.307c-7.311-2.659-14.773-4.023-22.414-1.938c-4.173,1.139-7.393,3.705-8.31,8.328
	c-0.105,0.366-0.21,0.731-0.315,1.097C646.888,257.986,647.158,257.789,647.429,257.592z M675.3,293.283
	c5.509-8.193,8.505-17.104,8.441-26.928C682.253,275.755,677.789,284.229,675.3,293.283z M682.87,298.112
	c-1.679-1.215-2.788-2.16-4.273-0.744C679.781,298.909,681.054,298.476,682.87,298.112z"/>
<path fill-rule="evenodd" clip-rule="evenodd" fill="#F1A173" d="M915.428,173.429c1.312-1.296,0.427-2.722,0.379-4.169
	c-0.427-13.155,0.115-26.181,7.518-37.746c2.239-3.498,5.177-6.303,9.324-7.831c4.984-1.837,9.549-4.537,13.007-9.198
	c2.76,4.811,4.369,9.516,7.554,13.433c8.933,10.986,20.508,18.097,33.34,23.473c1.354,0.567,2.927,0.715,3.724,2.202
	c-6.899-0.466-13.777-1.242-20.617,0.833c-2.869,0.87-3.765,2.546-3.17,5.146c0.843,3.682,3.239,1.162,4.687,0.776
	c9.17-2.442,18.159-4.083,26.169,3.078c0.123,0.08,0.244,0.16,0.367,0.239c-0.146-0.056-0.293-0.111-0.439-0.166
	c0.436-5.261-4.235-6.919-7-9.922c3.973,1.025,7.949,2.035,11.914,3.083c1.781,0.471,2.305,1.771,1.996,3.448
	c-0.18,0.971-0.953,2.034-0.723,2.848c1.869,6.638,0.479,13.208,0.156,19.844c-0.121,2.461,0.223,4.556-1.238,6.852
	c-2.203,3.462-2.902,7.511-1.615,11.47c0.865,2.667,0.061,4.305-1.666,6.189c-2.6,2.84-4.41,6.189-4.817,10.137
	c-2.551-0.355-3.954,1.418-5.415,2.993c-5.138,5.534-10.842,10.296-17.913,13.185c-11.655,4.76-23.012,6.416-33.298-3.231
	c-1.213-1.137-2.731-1.902-4.502-1.887c-8.639-10.834-12.314-23.683-14.842-36.956C917.162,185.547,916.376,179.473,915.428,173.429
	z M948.354,188.519c4.544-5.606,5.155-12.159,4.556-19.005c-0.103,6.662-4.175,12.342-4.649,18.911
	c-0.126,0.157-0.251,0.314-0.376,0.472C948.042,188.771,948.198,188.645,948.354,188.519z M940.357,166.38l0.029,0.023
	c-4.242-4.665-11.481-3.125-14.123,3.01c-0.167,0.339-0.333,0.678-0.5,1.017c0.138-0.36,0.276-0.72,0.415-1.079
	c1.585,0.869,2.08-0.731,3.051-1.308c1.708-1.016,1.071,0.614,1.315,1.243c-0.164,3.845,1.787,6.185,5.512,5.966
	c3.946-0.231,5.668-2.97,5.338-6.911c0.434-0.103,0.867-0.207,1.301-0.31C942.239,167.022,941.694,166.139,940.357,166.38z
	 M975.223,167.344c-1.179-0.138-1.663,0.881-2.416,1.453c0.51,0.23,1.02,0.461,1.529,0.691c-0.568,3.928,0.792,6.773,4.997,6.919
	c3.701,0.129,5.782-2.003,5.462-5.955c2.478-2.079,2.315,1.835,3.912,1.719c0.458-0.033,0.954,0.924,1.356-0.027
	c0.151-0.357,0.349-0.815,0.247-1.142c-1.5-4.838-10.982-7.112-15.079-3.639L975.223,167.344z M969.259,215.392
	c2.628-0.336,3.164-2.335,2.854-4.335c-0.367-2.367-2.59-1.346-4.076-1.591c-1.29-0.213-2.583-0.462-3.884-0.537
	c-7.306-0.417-14.631-1.489-21.876,0.544c-0.21,0.109-0.426,0.126-0.649,0.049c-0.336,0.321-1.016,0.742-0.956,0.95
	c3.474,12.136,12.858,16.283,24.217,10.857c2.323-1.11,4.921-2.458,4.344-5.905L969.259,215.392z M917.996,162.226
	c5.917-5.972,11.813-6.638,18.168-5.093c3.064,0.746,6.076,1.704,9.129,2.501c1.521,0.396,3.431,2.449,4.284-0.794
	c0.635-2.417,0.086-4.122-2.553-5.042c-5.919-2.065-11.964-3.029-18.166-2.077C923.579,152.531,919.742,155.253,917.996,162.226z
	 M945.787,196.498c0.511-2.341,1.938-3.54,0.931-5.509C944.87,192.376,945.209,193.935,945.787,196.498z"/>
<path fill-rule="evenodd" clip-rule="evenodd" fill="#1A1A1A" d="M433.393,564.441c14.012,0.026,28.023,0.052,42.035,0.078
	c-2.546,45.665-5.092,91.331-7.639,136.996c-0.846,0.053-1.692,0.105-2.541,0.157c-1.963-0.071-3.924-0.143-5.885-0.214
	c-3.215-0.772-3.293,1.615-2.23,3.054c2.671,3.615,5.036,7.805,10.013,8.909l0.221,0.219c0.003,0.362,0.007,0.725,0.01,1.087
	c-1.344,13.22-1.163,26.563-3.189,39.728c-8.318-1.395-16.636-2.791-24.954-4.187c0.717-8.324-0.004-16.641-0.281-24.948
	C437.167,671.691,435.26,618.067,433.393,564.441z"/>
<path fill-rule="evenodd" clip-rule="evenodd" fill="#1C242E" d="M786.383,597.249c-0.363-0.252-0.727-0.503-1.091-0.754
	c0.033-9.019,0.033-9.021-9.185-9.014c-2.304,0.002-4.606,0.026-6.909,0.04c-1.331-0.021-2.663-0.009-3.992-0.071
	c-5.612-0.268-9.54-3.455-9.419-7.619c0.115-3.982,3.878-6.975,9.239-7.337c0.497-0.034,1.014,0.061,1.494-0.036
	c0.994-0.202,2.59,0.651,2.725-1.195c0.132-1.794-1.358-1.633-2.463-1.546c-3.883,0.306-7.307-0.735-10.353-4.051
	c-1.575,11.438-6.854,19.717-15.805,25.65c-16.431,9.256-34.151,8.071-51.995,6.697c-15.734-1.211-31.511-1.879-47.269-2.787
	c-0.535-0.102-1.068-0.202-1.593-0.303c-0.271-0.247-0.53-0.237-0.771,0.029c-5.555-0.815-11.266,0.09-16.749-1.514
	c-7.608-6.001-15.218-12.002-22.827-18.003c-0.178-3.601-0.356-7.2-0.534-10.801c0.994-0.072,1.988-0.207,2.982-0.207
	c65.891,0.015,131.78,0.039,197.671,0.063c-1.809,4.475-5.601,5.17-9.793,5.234c-1.183,0.019-3.098-0.599-3.098,1.419
	c0,2.126,1.96,1.092,3.084,1.309c1.295,0.25,2.664,0.179,3.927,0.521c3.675,1.001,6.518,3.173,6.434,7.212
	c-0.078,3.781-3.021,5.435-6.271,6.915c-2.401,1.094-6.175-1.728-7.207,2.195C785.958,591.794,786.422,594.587,786.383,597.249z"/>
<path fill-rule="evenodd" clip-rule="evenodd" fill="#E0966C" d="M599.421,575.436c7.609,6.001,15.219,12.002,22.827,18.003
	c-5.147-0.038-10.299,0.034-15.44-0.158c-2.893-0.107-4.08,0.877-4.448,3.869c-4.551,37.035-9.411,74.034-13.764,111.093
	c-1.469,12.499-3.93,24.902-4.158,37.541c-0.567,2.818,0.434,5.939-1.928,8.415c-5.485,5.751-7.664,12.991-9.118,20.566
	c-0.819,4.264-2.235,8.352-5.174,11.662c-3.891,4.384-12.337,3.334-14.314-1.687c8.062-4.123,10.368-11.501,11.446-19.744
	c1.822-13.919,0.598-27.901,1.153-41.843c0.993-24.928,0.352-49.885,1.137-74.805c0.739-23.441,0.449-46.88,0.902-70.315
	c0.048-2.478,0.448-4.947,0.686-7.422c0.397-2.609,1.927-1.864,3.686-1.474C581.78,571.109,590.714,572.792,599.421,575.436z"/>
<path fill-rule="evenodd" clip-rule="evenodd" fill="#1A1A1A" d="M468.517,320.346c-10.007,0.948-20.02,0.371-30.039,0.241
	c-17.079-0.221-34.162-0.16-51.243-0.218c1.341-13.879,0.599-27.963,3.955-41.64c2.734-11.145,9.357-18.655,20.412-22.513
	c13.146-4.587,26.101-9.72,39.595-14.788c2.54,11.507,5.049,22.825,7.533,34.148C462.002,290.498,465.255,305.423,468.517,320.346z"
	/>
<path fill-rule="evenodd" clip-rule="evenodd" fill="#1A1A1A" d="M574.455,320.314c-26.748,0.033-53.495,0.065-80.243,0.097
	c4.512-21.612,9.022-43.225,13.539-64.836c0.799-3.822,1.814-7.612,2.366-11.469c0.354-2.469,1.224-2.494,3.222-1.73
	c13.475,5.152,27.123,9.876,40.448,15.386c12.996,5.374,17.078,16.994,18.419,29.716
	C573.355,298.382,573.735,309.366,574.455,320.314z"/>
<path fill-rule="evenodd" clip-rule="evenodd" fill="#1C242E" d="M703.634,765.978c0.121,0.125,0.268,0.202,0.438,0.233
	c2.073-0.995,1.213-2.904,1.215-4.405c0.039-37.063,0.018-74.126,0.007-111.189c5.354,0.024,10.707,0.048,16.062,0.073
	c-0.01,37.119,0.01,74.238-0.089,111.357c-0.007,2.757,0.838,4.543,2.945,6.304c13.787,11.524,27.475,23.169,41.156,34.818
	c1.808,1.539,3.639,2.532,6.095,2.903c8.283,1.248,13.341,8.571,11.47,16.173c-1.923,7.811-9.945,12.229-17.423,9.597
	c-7.568-2.664-11.067-10.71-7.702-18.266c0.828-1.858,1.402-2.92-0.525-4.526c-12.654-10.546-25.19-21.233-37.759-31.882
	c-0.648-0.549-1.253-1.107-2.178-0.625c-0.361-2.41-1.627-4.138-4.168-3.98c-2.557,0.159-4.104,2.002-4.713,4.382
	c-0.318,1.242-0.037,2.627-0.124,3.94c-0.451,6.849,0.982,13.766-0.749,20.566c0-7.826,0-15.652,0-23.445
	c-1.893-0.694-2.545,0.851-3.429,1.593c-11.989,10.066-23.878,20.253-35.914,30.261c-2.081,1.73-2.594,3.095-1.723,5.778
	c1.875,5.778-0.457,11.507-5.409,14.797c-4.679,3.108-10.915,2.885-15.427-0.553c-4.721-3.595-6.493-9.636-4.458-15.19
	c2.032-5.546,7.12-9.082,13.171-8.773c1.92,0.098,3.406,0.078,4.991-1.277c14.051-12.017,28.179-23.94,42.287-35.889
	C702.575,767.995,703.497,767.265,703.634,765.978z"/>
<path fill-rule="evenodd" clip-rule="evenodd" fill="#BE894A" d="M785.515,358.291c2.497,5.979,7.045,9.861,13.425,12.476
	c-8.287,4.74-16.56,7.031-25.519,5.58c-7.969-1.29-13.263-6.38-17.052-13.22c-0.96-1.731-1.791-3.534-2.679-5.302
	c-0.822-3.017-1.865-5.996-2.434-9.063c-2.713-14.646-3.169-29.514-4.188-44.326c0.361-2.4-0.366-4.988,1.234-7.175
	c2.638,2.801,4.72,2.649,7.908,0.027c8.768-7.208,10.288-16.384,8.704-26.755c2.347-0.756,3.126-2.676,3.777-4.818
	c5.006-16.463,4.594-33.166,2.138-49.93c-0.265-1.805-0.508-3.572-0.502-5.385c12.602,5.63,17.585,16.627,19.953,29.13
	c2.992,15.8,1.261,31.466-2.474,46.963c-4.02,16.681-7.37,33.466-7.273,50.719C780.576,344.569,781.584,351.802,785.515,358.291z"/>
<path fill-rule="evenodd" clip-rule="evenodd" fill="#F1A173" d="M960.294,578.812c13.596-0.01,27.19-0.019,40.783-0.024
	c-0.293,3.632-0.406,7.285-0.91,10.885c-1.113,7.958-0.625,15.837,0.123,23.811c3.529,37.629-1.762,74.503-10.203,111.046
	c-3.287,14.23-0.92,27.256,7.357,39.246c-2.381,3.882-8.021,4.273-10.933,0.676c-2.253-2.783-3.157-6.16-3.892-9.595
	c-1.154-5.398-2.728-10.638-6.601-14.813c-2.139-2.306-1.928-4.778-0.82-7.396c-0.353-28.455-0.324-56.921-1.184-85.36
	c-0.618-20.472-0.684-40.927-0.586-61.395c0.031-6.59-0.005-6.58-6.377-6.604c-2.162-0.009-4.323-0.087-6.484-0.136
	C960.569,579.147,960.294,578.812,960.294,578.812z"/>
<path fill-rule="evenodd" clip-rule="evenodd" fill="#F1A173" d="M599.421,575.436c-8.707-2.645-17.641-4.327-26.508-6.298
	c-1.759-0.391-3.288-1.136-3.686,1.474c-2.539-0.131-2.213,2.216-2.754,3.511c-11.793,28.214-23.504,56.461-35.184,84.722
	c-3.109,7.522-6.062,15.11-9.085,22.668c-1.472,2.393-2.506,4.959-3.083,7.709c-1.331,2.277-2.342,5.006-5.301,5.57
	c-8.746,1.668-15.236,7.027-21.634,12.69c-2.997,2.652-6.42,4.829-10.562,5.241c-5.501,0.549-11.007-5.271-9.39-9.799
	c8.538,1.138,14.895-2.519,19.931-9.073c5.722-4.766,10.29-10.244,12.166-17.731c1.17-4.672,3.053-9.161,4.414-13.792
	c5.2-17.686,12.401-34.754,16.299-52.841c0.483,0.183,0.968,0.285,1.173-0.358c4.729-14.894,9.451-29.789,14.174-44.684
	c19.499-0.272,38.999-0.638,58.494,0.19C599.064,568.236,599.243,571.835,599.421,575.436z"/>
<path fill-rule="evenodd" clip-rule="evenodd" fill="#E0966C" d="M748.304,297.261c-1.601,2.188-0.873,4.775-1.233,7.177
	c-0.808,0.295-1.366,0.754-1.696,1.636c-2.308,6.171-6.253,11.209-10.767,15.937c-7.188,7.528-15.864,13.003-24.586,18.448
	c-2.842,1.31-5.563,3.201-8.549,3.816c-7.98,1.646-11.869,5.754-10.022,14.151c-1.92-2.633-4.376-4.953-4.389-8.608
	c-0.007-2.109-2.051-2.353-3.421-3.134c-8.041-4.585-16.088-9.152-21.395-17.146c1.74-1.164,2.788,0.253,3.767,1.19
	c10.177,9.752,22.283,10.408,34.09,5.079c23.21-10.476,36.619-29.084,41.243-54.123c1.62-8.773,0.984-17.473-0.036-26.206
	c4.24-0.207,6.369,1.311,5.95,6.046c-0.405,4.576-0.088,9.216-0.088,14.93c2.911-3.601,2.691-7.659,5.44-10.033
	c2.222,0.178,4.452-3.048,6.669,0.016c-3.896,1.316-7.094,3.235-6.963,8.038c2.221,3.008,2.171,5.742-0.112,8.93
	c-1.57,2.192-1.945,5.154-1.901,7.984C747.692,292.684,748.471,295.134,748.304,297.261z"/>
<path fill-rule="evenodd" clip-rule="evenodd" fill="#1A9AA6" d="M489.596,320.502c-5.618,0.036-11.237,0.071-16.854,0.106
	c0.522-19.743,1.045-39.486,1.563-59.229c0.053-2.026-0.392-3.955-1.215-5.801c0.106-1.188-0.297-2.22-0.97-3.168
	c1.77-5.908,5.259-10.914,8.444-16.076c-0.002,0.001,0.246,0.032,0.246,0.032l0.247-0.047c3.2,5.165,6.647,10.199,8.489,16.082
	c-0.303,1.084-0.605,2.167-0.908,3.251c-1.11,2.655-1.299,5.419-1.186,8.271C488.196,282.783,488.887,301.643,489.596,320.502z"/>
<path fill-rule="evenodd" clip-rule="evenodd" fill="#1C242E" d="M769.311,476.058c5.747-0.456,11.493-0.491,17.239,0.019
	c-0.119,1.39,0.319,2.229,1.908,2.174c1.323-0.046,2.681-0.111,3.974,0.112c4.088,0.707,7.521,2.65,7.63,7.16
	c0.103,4.275-3.067,6.355-6.963,7.218c-1.281,0.284-2.622,0.351-3.939,0.407c-1.399,0.06-2.604,0.063-2.697,2.022
	c-0.107,2.24,1.181,2.385,2.833,2.31c4.02-0.183,7.718,0.628,9.897,4.362c0.968,1.658,1.503,3.686,0.354,5.645
	c-14.43,0.015-28.859,0.029-43.288,0.043c-0.824-6.12,1.838-9.505,7.937-9.999c1.657-0.135,3.329-0.089,4.994-0.126
	c4.146,0.013,8.292,0.035,12.438,0.035c1.56,0,3.252-0.196,3.373-2.111c0.153-2.4-1.897-1.803-3.241-1.826
	c-4.146-0.073-8.292-0.03-12.438-0.032c-0.36-0.169-0.72-0.338-1.079-0.508c-1.703-0.931-3.497-0.478-5.271-0.349
	c-4.323-0.541-7.193-2.903-7.067-7.309c0.12-4.205,3.314-6.186,7.179-6.905c1.436-0.268,2.951-0.207,4.424-0.15
	C769.171,478.314,769.392,477.347,769.311,476.058z"/>
<path fill-rule="evenodd" clip-rule="evenodd" fill="#1A1A1A" d="M519.122,689.221c0.577-2.75,1.611-5.316,3.083-7.709
	c-0.617,20.577-1.243,41.154-1.837,61.733c-0.058,1.984,0.078,3.974,0.125,5.962c-1.049,0.412-2.064,0.983-3.153,1.21
	c-6.695,1.397-13.407,2.717-20.114,4.062c-1.587,0.091-1.837-0.856-1.89-2.192c-0.314-7.959-0.69-15.915-1.046-23.872
	c2.415,0.01,3.148-1.978,4.331-3.527c4.849-6.357,8.935-13.36,15.378-18.385c0.103-0.349,0.205-0.697,0.307-1.047
	C519.606,702.85,521.745,695.642,519.122,689.221z"/>
<path fill-rule="evenodd" clip-rule="evenodd" fill="#3D0D09" d="M497.226,754.479c6.707-1.345,13.419-2.664,20.114-4.062
	c1.089-0.227,2.104-0.798,3.153-1.21c12.472,5.414,24.991,10.695,38.118,14.392c3.575,1.007,4.035,3.883,1.032,6.524
	c-3.201,2.817-7.326,3.511-11.262,3.11c-14.887-1.513-29.622-3.883-43.897-8.68C499.384,762.841,495.877,760.563,497.226,754.479z"
	/>
<path fill-rule="evenodd" clip-rule="evenodd" fill="#3D0D09" d="M439.233,750.268c8.318,1.396,16.636,2.792,24.954,4.187
	c1.47,5.429-1.069,8.023-6.061,9.774c-14.541,5.1-29.598,7.509-44.819,9.002c-3.911,0.384-8.066-0.303-11.199-3.26
	c-2.966-2.799-2.462-5.287,1.269-6.367C415.664,760.047,427.492,755.278,439.233,750.268z"/>
<path fill-rule="evenodd" clip-rule="evenodd" fill="#101325" d="M707.591,801.452c1.731-6.801,0.298-13.718,0.749-20.566
	c0.087-1.313-0.194-2.698,0.124-3.94c0.609-2.38,2.156-4.223,4.713-4.382c2.541-0.157,3.807,1.57,4.168,3.98
	c0.039,7.328,0.138,14.657,0.078,21.985c-0.017,1.985,0.431,3.25,2.204,4.504c5.712,4.041,7.626,9.766,5.642,15.621
	c-1.909,5.633-7.446,9.29-13.57,8.964c-5.773-0.309-10.809-4.469-12.219-10.096c-1.486-5.933,0.994-11.319,6.958-15.146
	C706.85,802.111,707.207,801.762,707.591,801.452z"/>
<path fill-rule="evenodd" clip-rule="evenodd" fill="#E0966C" d="M933.147,228.51c1.771-0.015,3.289,0.75,4.502,1.887
	c10.286,9.647,21.643,7.991,33.298,3.231c7.071-2.888,12.775-7.65,17.913-13.185c1.461-1.575,2.864-3.349,5.415-2.993
	c0.666,2.982,1.333,5.964,1.999,8.946c-3.598,2.681-7.288,5.249-10.764,8.081c-2.658,2.166-6.563,2.585-8.295,5.999
	c-5.158,1.701-10.314,3.407-15.475,5.101c-1.58,0.519-1.439,1.545-0.87,2.744c1.686,3.552,8.737,6.969,13.007,6.292
	c-0.431,0.667-0.861,1.334-1.294,2c-4.789-0.023-9.577-0.045-14.365-0.067c-2.646-2.536-5.3-5.047-4.763-9.249
	c0.327-2.567-1.895-3.332-3.467-4.359C943.741,238.856,937.341,234.981,933.147,228.51z"/>
<path fill-rule="evenodd" clip-rule="evenodd" fill="#410D3F" d="M519.122,689.221c2.623,6.421,0.484,13.629-4.815,16.234
	l-0.09-0.101c1.149-1.852,3.163-3.293,2.891-6.634c-3.18,4.961-8.928,4.336-13.292,7.797c3.09,0,5.395,0,7.699,0
	c-2.333,2.242-5.643-0.063-8.071,1.732c-4.299,0.438-7.778,2.662-11.154,5.112c-2.284,1.63-4.757,3.056-6.812,4.937
	c-3.559,3.258-6.869,4.132-10.706,0.425c-1.177-1.137-2.991-1.613-4.513-2.393c-0.384-0.24-0.768-0.479-1.152-0.719
	c0,0,0.083,0.082,0.082,0.081c-0.375-0.337-0.749-0.673-1.124-1.009c0,0,0.026,0.061,0.025,0.061
	c-0.242-0.369-0.482-0.737-0.724-1.105c0,0-0.221-0.219-0.219-0.219c-1.306-1.988-2.614-3.979-3.922-5.968
	c-1.004-2.515,0.161-4.27,2.025-5.78c0.846-0.053,1.692-0.105,2.538-0.158c1.24,1.236,3.036,0.714,4.448,1.407
	c-1.617,4.53,3.888,10.35,9.39,9.801c4.142-0.412,7.564-2.589,10.562-5.241c6.397-5.663,12.888-11.022,21.634-12.69
	C516.78,694.227,517.791,691.499,519.122,689.221z"/>
<path fill-rule="evenodd" clip-rule="evenodd" fill="#410D3F" d="M553.903,784.741c1.978,5.021,10.424,6.07,14.314,1.687
	c2.938-3.311,4.354-7.398,5.174-11.662c1.454-7.575,3.633-14.815,9.118-20.566c2.361-2.476,1.36-5.597,1.928-8.415
	c6.137,5.286,8.118,12.718,4.979,18.673c-0.322-0.286-0.644-0.573-0.966-0.861c1.279-3.146,1.611-6.236-0.896-10.327
	c0.81,5.35-1.859,8.258-3.763,11.545c-0.704,1.217-3.199,2.092-1.464,4.227c0.219,0.459,0.438,0.918,0.656,1.378
	c-6.047,6.538-7.54,15.172-10.623,23.075c-0.338,0.351-0.676,0.7-1.015,1.051l0.039-0.022c-1.802-0.038-3.563,0.292-5.339,0.487
	c-5.62,0.615-11.308,1.455-16.858-0.577C546.316,789.101,546.719,788.276,553.903,784.741z"/>
<path fill-rule="evenodd" clip-rule="evenodd" fill="#E0966C" d="M529.46,177.491c0.416-3.655,0.832-7.311,1.247-10.967
	c2.73-1.419,3.154-4.137,3.362-6.708c0.12-1.492-1.58-1.264-2.689-1.338c0.01-1.641-0.047-3.285,0.043-4.921
	c0.162-2.947,0.135-5.944,0.69-8.822c0.782-4.05,5.224-0.509,6.915-2.984c1.234,4.315,5.434,6.846,6.376,11.527
	c1.343,6.664,0.756,12.841-2.39,18.795C539.862,178.038,536.038,179.535,529.46,177.491z"/>
<path fill-rule="evenodd" clip-rule="evenodd" fill="#C2000B" d="M975.199,732.646c-1.107,2.618-1.318,5.091,0.82,7.396
	c3.873,4.176,5.446,9.415,6.601,14.813c0.734,3.435,1.639,6.812,3.892,9.595c2.912,3.598,8.552,3.206,10.933-0.676
	c2.76,1.135,6.785,1.086,4.955,6.159c-0.455,1.262,1.943,1.081,4.895-1.262c1.057,3.094-1.471,3.38-3.127,3.699
	c-2.93,0.563-5.945,0.796-8.935,0.894c-10.024,0.328-10.824-0.314-14.218-9.716c-0.954-2.645-2.138-5.229-3.467-7.707
	c-0.707-1.317-1.327-3.613-3.339-2.882c-1.561,0.567-1.851,2.594-1.845,4.333c0.013,3.767,0.004,7.534-0.387,11.329
	c-1.319-1.504-0.805-3.3-0.872-4.961c-0.248-6.098,0.471-12.187-2.061-18.166C967.28,741.329,970.622,735.391,975.199,732.646z"/>
<path fill-rule="evenodd" clip-rule="evenodd" fill="#4D1F03" d="M977.216,240.476c1.731-3.414,5.637-3.833,8.295-5.999
	c3.476-2.832,7.166-5.399,10.764-8.081c1.994,1.471,0.124,2.726-0.402,3.819c-2.385,4.952-1.846,9.649,0.906,14.194
	c0.781,1.289,1.941,2.396,0.934,4.013c-2.282,3.663-1.418,7.715-1.512,11.649c-2.382-0.491-4.764-0.98-7.146-1.47
	c-3.601-2.54-7.2-5.08-10.797-7.617C976.398,247.634,977.923,243.944,977.216,240.476z"/>
<path fill-rule="evenodd" clip-rule="evenodd" fill="#D9D9DA" d="M709.44,375.546c-5.001,5.603-11.692,8.4-18.398,11.231
	c-1.74,0.735-2.815-0.156-4.096-0.825c-4.783-2.498-8.459-6.266-11.857-10.349c6.842-3.425,13.744-6.757,19.298-12.216
	c0.605-0.015,1.211-0.029,1.816-0.044c0.075,1.438,0.821,2.497,1.911,3.351C701.887,369.649,705.664,372.597,709.44,375.546z"/>
<path fill-rule="evenodd" clip-rule="evenodd" fill="#3D0D09" d="M897.161,564.506c2.054,1.713,1.094,4.051,1.095,6.082
	c0.054,89.57,0.047,179.14,0.048,268.71c0,7.611,0.001,7.611,7.191,8.619c-1.934,1.44-4.146,0.428-6.211,0.707
	c-1.879,0.254-2.226-0.81-2.164-2.39c0.078-1.994,0.025-3.995,0.025-5.993C897.151,748.33,897.156,656.417,897.161,564.506z"/>
<path fill-rule="evenodd" clip-rule="evenodd" fill="#F1A173" d="M696.203,363.344c-0.605,0.015-1.211,0.029-1.816,0.044
	c-0.979-1.654-1.959-3.308-2.938-4.961c-1.846-8.398,2.043-12.506,10.023-14.152c2.985-0.615,5.707-2.507,8.55-3.816
	c1.134,5.743-0.844,10.188-5.243,13.983C701.674,357.123,699.045,360.357,696.203,363.344z"/>
<path fill-rule="evenodd" clip-rule="evenodd" fill="#F1A173" d="M411.211,507.529c-6.615-0.016-13.23-0.031-19.846-0.048
	c0.031-4.312,0.063-8.623,0.091-12.936c5.5-0.585,11.008-0.354,16.519-0.119C407.582,499.157,410.612,503.043,411.211,507.529z"/>
<path fill-rule="evenodd" clip-rule="evenodd" fill="#F1A173" d="M1022.325,456.487c3.598-0.043,7.197-0.086,10.795-0.129
	c1.723,8.457,2.582,16.771-3.828,23.957c-1.195-4.062,1.172-8.395-1.641-12.377c-2.365,1.183-2.152,4.281-4.973,6.885
	C1023.513,467.973,1022.138,462.289,1022.325,456.487z"/>
<path fill-rule="evenodd" clip-rule="evenodd" fill="#999999" d="M628.154,436.86c-0.271,0.288-0.543,0.577-0.815,0.865
	c-1.459-1.753-0.771-3.838-0.773-5.76c-0.046-35.11-0.123-70.222,0.076-105.331c0.025-4.457-1.192-5.513-5.527-5.506
	c-15.105,0.023-30.221,0.609-45.312-0.296c16.134-0.101,32.26-0.156,48.385-0.34c3.924-0.045,3.059,2.647,3.062,4.812
	c0.031,22.464,0.021,44.929,0.021,67.394c0.001,12.979-0.025,25.959,0.033,38.938C627.312,433.388,626.646,435.324,628.154,436.86z"
	/>
<path fill-rule="evenodd" clip-rule="evenodd" fill="#F1A173" d="M977.216,240.476c0.707,3.468-0.817,7.158,1.042,10.509
	c-1.464,1.208-2.926,2.418-4.383,3.628c-4.267,0.676-11.318-2.741-13.004-6.292c-0.569-1.199-0.71-2.225,0.87-2.744
	C966.901,243.883,972.058,242.177,977.216,240.476z"/>
<path fill-rule="evenodd" clip-rule="evenodd" fill="#F1A173" d="M477.387,230.65c6.457-2.123,11.741-6.528,17.914-9.205
	c0.051,1.31,0.136,2.62,0.147,3.93c0.075,8.8,0.07,8.8-8.775,9.187C483.043,234.523,479.838,233.482,477.387,230.65z"/>
<path fill-rule="evenodd" clip-rule="evenodd" fill="#1A1A1A" d="M492.289,713.363c3.376-2.45,6.855-4.675,11.152-5.111
	c1.872,0.468,1.567,1.655,1.147,3.064c-1.847,6.183-6.28,10.583-10.353,15.239C492.502,722.318,494.622,717.511,492.289,713.363z"/>
<path fill-rule="evenodd" clip-rule="evenodd" fill="#3D0D09" d="M378.055,489.78c3.298-0.044,6.595-0.089,9.887-0.131
	c7.654,0.291,15.371-0.796,22.971,0.944c1.414,3.112-0.465,3.702-2.941,3.833c-5.508-0.235-11.016-0.466-16.516,0.119
	c-0.821-0.049-2.338,0.015-2.367-0.164C387.861,486.865,381.752,491.196,378.055,489.78z"/>
<path fill-rule="evenodd" clip-rule="evenodd" fill="#6F3D20" d="M348.383,563.96c1.12-0.188,2.24-0.54,3.36-0.542
	c24.376-0.031,48.753-0.031,73.13,0c1.12,0.002,2.24,0.353,3.359,0.541c-12.143,0.106-24.285,0.303-36.428,0.296
	C377.331,564.248,362.857,564.066,348.383,563.96z"/>
<path fill-rule="evenodd" clip-rule="evenodd" fill="#D9D9DA" d="M472.119,252.411c0.673,0.949,1.076,1.98,0.97,3.168
	c-1.832,4.436-3.617,8.891-5.526,13.293c-0.521,1.201-1.66,3.758-2.788,0.992c-1.811-4.443-4.966-8.324-5.654-13.228l0.341-0.34
	c2.162,1.525,2.674,4.103,3.935,6.201c1.217,2.024,2.236,2.23,3.403-0.061C468.516,259.065,470.34,255.75,472.119,252.411z"/>
<path fill-rule="evenodd" clip-rule="evenodd" fill="#1C242E" d="M588.451,763.595c0.322,0.288,0.644,0.575,0.966,0.861
	c-2.438,8.883-0.07,18.132-1.536,27.09c-0.525,0.011-1.051,0.021-1.576,0.032c0-4.753,0.028-9.506-0.011-14.258
	c-0.022-2.795,0.059-5.689-3.309-6.904c-0.22-0.459-0.438-0.918-0.659-1.375C584.367,767.228,586.409,765.412,588.451,763.595z"/>
<path fill-rule="evenodd" clip-rule="evenodd" fill="#1C242E" d="M494.236,726.555c4.072-4.656,8.506-9.057,10.353-15.239
	c0.42-1.409,0.725-2.597-1.147-3.064c2.431-1.797,5.74,0.509,8.071-1.732c0.529-0.052,1.062-0.104,1.594-0.155
	c0.296,0.059,0.593,0.104,0.893,0.139c-6.443,5.024-10.529,12.027-15.378,18.385c-1.183,1.55-1.916,3.537-4.331,3.527
	C494.272,727.794,494.254,727.175,494.236,726.555z"/>
<path fill-rule="evenodd" clip-rule="evenodd" fill="#F1A173" d="M958.219,256.547c4.788,0.022,9.576,0.044,14.365,0.067
	C964.256,266.927,967.502,268.603,958.219,256.547z"/>
<path fill-rule="evenodd" clip-rule="evenodd" fill="#D9D9DA" d="M488.637,255.653c0.303-1.083,0.605-2.167,0.908-3.251
	c3.036,3.355,3.449,8.169,6.528,11.691c2.894-1.105,2.869-4.939,6.285-6.868c-1.76,5.463-4.091,9.621-6.849,14.414
	C493.025,265.86,490.831,260.756,488.637,255.653z"/>
<path fill-rule="evenodd" clip-rule="evenodd" fill="#E0966C" d="M477.387,230.65c2.451,2.832,5.656,3.873,9.286,3.912
	c-1.565,1.553-3.971,0.438-5.615,1.758c-0.002-0.001-0.249,0.046-0.249,0.046s-0.248-0.031-0.246-0.032
	c-4.365-0.872-8.734-1.737-13.1-2.616c-1.383-0.279-3.265-0.047-2.672-2.472C469.021,231.72,473.209,231.298,477.387,230.65z"/>
<path fill-rule="evenodd" clip-rule="evenodd" fill="#624131" d="M418.264,138.426c0.845,0.629,0.741,1.34,0.182,2.092
	C418.386,139.822,418.325,139.124,418.264,138.426z"/>
<path fill-rule="evenodd" clip-rule="evenodd" fill="#1A9AA6" d="M638.997,594.953c0.241-0.267,0.501-0.276,0.771-0.029
	C639.505,594.933,639.251,594.943,638.997,594.953z"/>
<path fill-rule="evenodd" clip-rule="evenodd" fill="#624131" d="M467.367,713.64c0.241,0.368,0.482,0.736,0.724,1.105
	c0,0-0.358,0.06-0.358,0.06s-0.354-0.078-0.355-0.078C467.374,714.365,467.37,714.002,467.367,713.64z"/>
<path fill-rule="evenodd" clip-rule="evenodd" fill="#624131" d="M571.347,794.543c0.339-0.351,0.677-0.7,1.015-1.051
	C572.393,794.2,572.002,794.5,571.347,794.543z"/>
<path fill-rule="evenodd" clip-rule="evenodd" fill="#D9D9DA" d="M459.122,256.636c-0.107-0.229-0.214-0.458-0.321-0.688
	c0.22,0.117,0.439,0.234,0.66,0.349C459.462,256.296,459.122,256.636,459.122,256.636z"/>
<path fill-rule="evenodd" clip-rule="evenodd" fill="#624131" d="M469.106,715.613c0.384,0.239,0.769,0.479,1.152,0.719
	C469.593,716.542,469.284,716.183,469.106,715.613z"/>
<path fill-rule="evenodd" clip-rule="evenodd" fill="#624131" d="M468.065,714.685c0.375,0.336,0.749,0.672,1.124,1.009
	C468.814,715.358,468.439,715.021,468.065,714.685z"/>
<path fill-rule="evenodd" clip-rule="evenodd" fill="#999999" d="M479.981,490.948c1.293-17.305,4.336-34.416,5.47-51.753
	c0.709-10.846,2.645-21.606,3.776-32.433c0.278-2.663,1.294-3.365,3.718-3.327c5.985,0.096,11.974,0.097,17.958-0.003
	c2.219-0.036,3.35,0.674,3.61,2.994c0.866,7.704,1.91,15.388,2.788,23.091c1.626,14.268,3.188,28.542,4.768,42.814
	c0.671,6.068,0.818,12.202,2.31,18.166c0.021,2.25,0.042,4.501,0.063,6.753c1.953,7.046,1.367,14.414,2.752,21.537
	c0.448,2.305-1.21,2.693-3.099,2.69c-14.923-0.021-29.847-0.027-44.77,0.003c-2.551,0.005-2.836-0.965-2.451-3.403
	c0.77-4.867,0.954-9.827,1.38-14.749C478.83,499.202,479.406,495.075,479.981,490.948z"/>
<path fill-rule="evenodd" clip-rule="evenodd" fill="#1A1A1A" d="M468.415,508.497c-9.933-2.197-19.997-0.717-29.993-0.86
	c-2.325-0.034-4.699-2.228-7.037-0.14c-0.104-5.645-0.209-11.289-0.313-16.933c15.874-0.203,31.748-0.513,47.617,0.162
	c-4.374,4.633-8.747,9.267-12.973,13.745c1.404,2.064,4.545-0.723,4.936,2.609C470.189,508.001,469.427,508.446,468.415,508.497z"/>
<path fill-rule="evenodd" clip-rule="evenodd" fill="#410D3F" d="M603.256,491.031c-4.181,2.042-8.361,4.083-12.542,6.126
	c-22.09,0.031-44.181,0.062-66.271,0.092c-0.021-2.25-0.043-4.501-0.063-6.751c24.995-0.021,49.99-0.052,74.985-0.039
	C600.661,490.459,601.958,490.832,603.256,491.031z"/>
<path fill-rule="evenodd" clip-rule="evenodd" fill="#E0966C" d="M470.651,507.081c-0.391-3.332-3.532-0.545-4.936-2.609
	c4.226-4.479,8.599-9.112,12.973-13.745c0.433,0.074,0.863,0.147,1.293,0.221c-0.575,4.128-1.151,8.255-1.727,12.383
	C475.501,504.136,473.695,506.863,470.651,507.081z M472.289,504.481c0.29-0.372,0.548-0.703,0.806-1.035
	c-0.204-0.095-0.465-0.317-0.601-0.257c-0.261,0.115-0.504,0.362-0.643,0.615C471.801,503.895,472.074,504.162,472.289,504.481z"/>
<path fill-rule="evenodd" clip-rule="evenodd" fill="#1A1A1A" d="M525.046,609.487c-3.897,18.087-11.099,35.155-16.299,52.841
	c-1.361,4.631-3.244,9.12-4.414,13.792c-1.876,7.487-6.444,12.966-12.167,17.73c-2.004-3.248-0.524-6.782-0.732-10.163
	c-2.436-39.745-4.714-79.501-7.034-119.253c13.995,0.022,27.989,0.045,41.984,0.068
	C525.938,579.497,525.492,594.492,525.046,609.487z"/>
<path fill-rule="evenodd" clip-rule="evenodd" fill="#6F3D20" d="M540.376,564.112c-2.667-0.047-5.334-0.094-8.001-0.141
	C535.059,563.101,537.729,562.921,540.376,564.112z"/>
<path fill-rule="evenodd" clip-rule="evenodd" fill="#6F3D20" d="M484.345,564.374c-2.668-0.098-5.335-0.194-8.002-0.291
	C479.048,563.13,481.733,562.723,484.345,564.374z"/>
<path fill-rule="evenodd" clip-rule="evenodd" fill="#CCCCCC" d="M470.651,507.081c3.044-0.218,4.85-2.944,7.603-3.751
	c-0.426,4.921-0.61,9.881-1.38,14.748c-0.386,2.438-0.101,3.408,2.451,3.403c14.923-0.03,29.847-0.024,44.77-0.003
	c1.889,0.003,3.547-0.386,3.099-2.69c-1.385-7.123-0.799-14.491-2.752-21.537c22.092-0.032,44.183-0.063,66.272-0.094
	c11.789-0.067,23.578-0.133,35.367-0.198c0.011,0.607,0.021,1.214,0.033,1.821c-10.407-0.567-20.476-0.554-30.314,4.568
	c-5.466,2.846,0.144,5.233-1.155,7.527c-0.473,0.833,0.218,1.573,0.901,2.079c0.872,0.646,1.546,0.008,2.196-0.472
	c1.06-0.779,2.092-1.595,3.136-2.395c0.244,0.216,0.485,0.435,0.723,0.657c-0.677,0.935-1.368,1.859-2.027,2.807
	c-0.912,1.311-2.662,2.743-1.035,4.294c2.04,1.944,3.03-0.647,3.679-1.724c3.202-5.317,7.927-5.111,13.91-4.168
	c-2.006,0.837-3.281,1.201-4.37,1.869c-1.218,0.747-4.095,0.385-3.076,2.816c0.794,1.897,2.896,0.681,4.434,0.271
	c4.297-1.143,8.397-3.192,13.025-2.797c0.071,0.991,0.31,2.003,0.188,2.969c-0.58,4.575,1.699,5.479,5.829,5.512
	c10.107,0.08,20.045-1.847,30.109-2.084c-2.788,3.382-6.51,4.093-10.676,4.085c-34.951-0.059-69.902-0.036-104.854-0.033
	c-3.041,0.001-6.589-0.895-5.724,4.486c0.334,2.078-1.768,2.417-3.574,2.415c-23.634-0.021-47.268-0.029-70.901-0.022
	c-1.833,0-3.468-0.211-3.26-2.602c0.37-4.258-2.328-4.227-5.429-4.364c-2.401-0.106-5.977,1.706-6.95-1.799
	c-0.879-3.168,2.61-4.251,4.691-5.701c4.203-2.929,8.541-5.664,12.824-8.479C469.427,508.446,470.189,508.001,470.651,507.081z"/>
<path fill-rule="evenodd" clip-rule="evenodd" fill="#1E3640" d="M662.373,520.432c0.368-0.239,0.736-0.478,1.105-0.715
	C663.11,519.957,662.742,520.194,662.373,520.432z"/>
<path fill-rule="evenodd" clip-rule="evenodd" fill="#F1A173" d="M600.878,510.088c-1.044,0.8-2.076,1.615-3.136,2.395
	c-0.65,0.479-1.324,1.117-2.196,0.472c-0.684-0.506-1.374-1.246-0.901-2.079c1.299-2.294-4.311-4.682,1.155-7.527
	c9.839-5.122,19.907-5.136,30.314-4.568c0.008,5.111,0.017,10.223,0.025,15.335c-4.628-0.396-8.729,1.653-13.025,2.796
	c-1.538,0.41-3.64,1.627-4.434-0.271c-1.019-2.432,1.858-2.069,3.076-2.816c1.089-0.668,2.364-1.032,4.37-1.869
	c-5.983-0.943-10.708-1.149-13.91,4.168c-0.648,1.076-1.639,3.668-3.679,1.724c-1.627-1.551,0.123-2.983,1.035-4.294
	c0.659-0.947,1.351-1.872,2.027-2.807c1.678-1.767,3.372-3.509,6.957-3.604C604.14,505.493,602.542,507.86,600.878,510.088z"/>
<path fill-rule="evenodd" clip-rule="evenodd" fill="#6F3D20" d="M950.33,107.483c0.99-5.293,4.94-8.692,8.184-12.542
	c-1.64,4.877-4.457,8.997-8.213,12.512L950.33,107.483z"/>
<path fill-rule="evenodd" clip-rule="evenodd" fill="#6F3D20" d="M950.301,107.453c-0.061,0.604-0.129,1.231-0.867,1.364
	c-0.131,0.023-0.498-0.365-0.469-0.502c0.15-0.716,0.723-0.856,1.365-0.831L950.301,107.453z"/>
<path fill-rule="evenodd" clip-rule="evenodd" fill="#6F3D20" d="M960.292,92.45c-0.138,0.173-0.275,0.346-0.413,0.519
	c0.017-0.104-0.003-0.249,0.059-0.301c0.104-0.091,0.258-0.123,0.391-0.18L960.292,92.45z"/>
<path fill-rule="evenodd" clip-rule="evenodd" fill="#6F3D20" d="M960.328,92.487c0.051-0.133,0.077-0.285,0.161-0.393
	c0.047-0.062,0.187-0.054,0.284-0.077c-0.16,0.144-0.321,0.289-0.481,0.433L960.328,92.487z"/>
<path fill-rule="evenodd" clip-rule="evenodd" fill="#E0966C" d="M505.333,200.578c1.561-6.301,5.313-11.637,7.893-17.489
	c3.273-7.425,4.722-15.208,4.91-22.974c0.502-20.702-4.578-40.371-13.072-59.187c-1.555-3.443-3.18-6.855-4.772-10.281
	c18.253,0.819,19.649,16.541,16.313,29.17c-0.835,3.16-1.285,4.815,2.563,6.136c5.063,1.74,7.521,6.553,7.702,11.386
	c0.593,15.85,2.515,31.947-4.73,47.024C518.558,191.817,514.355,198.72,505.333,200.578z"/>
<path fill-rule="evenodd" clip-rule="evenodd" fill="#FFFFFE" d="M470.223,192.188c4.307,0,8.62,0.145,12.917-0.049
	c3.04-0.137,3.256,1.047,2.457,3.532c-1.886,5.862-9.343,10.533-16.215,9.975c-7.896-0.641-13.25-4.12-14.838-9.593
	c-0.725-2.5-0.619-4.113,2.76-3.94c4.296,0.22,8.611,0.053,12.918,0.053C470.223,192.174,470.223,192.181,470.223,192.188z"/>
<path fill-rule="evenodd" clip-rule="evenodd" fill="#F1A173" d="M531.38,158.478c1.109,0.074,2.81-0.154,2.689,1.338
	c-0.208,2.571-0.632,5.289-3.362,6.708c0.104-0.766,0.209-1.532,0.312-2.295c0.074-0.632,0.151-1.266,0.228-1.899
	C531.291,161.046,531.335,159.762,531.38,158.478z"/>
<path fill-rule="evenodd" clip-rule="evenodd" fill="#E0966C" d="M531.246,162.33c-0.076,0.633-0.153,1.267-0.228,1.899
	C530.551,163.53,530.745,162.912,531.246,162.33z"/>
<path fill-rule="evenodd" clip-rule="evenodd" fill="#FFFFFE" d="M740.625,591.316c8.95-5.934,14.229-14.213,15.805-25.65
	c3.046,3.315,6.47,4.356,10.353,4.051c1.104-0.087,2.595-0.248,2.463,1.546c-0.135,1.847-1.73,0.993-2.725,1.195
	c-0.48,0.097-0.997,0.002-1.494,0.036c-5.361,0.362-9.124,3.354-9.239,7.337c-0.121,4.164,3.807,7.352,9.419,7.619
	c1.329,0.063,2.661,0.05,3.992,0.071c0.032,1.318,0.065,2.636,0.099,3.954C759.738,591.663,750.179,591.918,740.625,591.316z"/>
<path fill-rule="evenodd" clip-rule="evenodd" fill="#101325" d="M705.293,650.617c0.011,37.063,0.032,74.126-0.007,111.189
	c-0.002,1.501,0.858,3.41-1.215,4.405c-0.05-37.468-0.107-74.933-0.121-112.397C703.95,652.657,703.256,651.004,705.293,650.617z"/>
<path fill-rule="evenodd" clip-rule="evenodd" fill="#1E3640" d="M769.297,591.475c-0.033-1.318-0.066-2.636-0.099-3.954
	c2.303-0.014,4.605-0.038,6.909-0.04c9.218-0.007,9.218-0.005,9.185,9.014C780.31,593.708,774.929,592.193,769.297,591.475z"/>
<path fill-rule="evenodd" clip-rule="evenodd" fill="#F1A173" d="M748.304,297.261c0.167-2.127-0.611-4.577,2.001-5.871
	c1.527-1.225,2.668-2.705,4.655-3.642c2.753-1.297,0.848-4.836,1.809-7.306c2.171-5.576,1.848-5.848-4.45-5.967
	c-0.131-4.803,3.067-6.722,6.963-8.038c0,0,0.071,0.067,0.071,0.066c2.483,5.48,2.449,11.19,1.168,17.012
	c3.083-4.29,3.083-4.29,2.775-15.038l0.217-0.191c0.469,0.749,0.937,1.497,1.404,2.246c1.583,10.372,0.063,19.547-8.705,26.755
	C753.023,299.91,750.941,300.063,748.304,297.261z"/>
<path fill-rule="evenodd" clip-rule="evenodd" fill="#F1A173" d="M759.281,266.438c-2.217-3.063-4.447,0.162-6.669-0.016
	c4.498-4.674,6.604-4.689,9.837-0.072l-0.161,0.144c-0.979,0.003-1.957,0.007-2.936,0.011L759.281,266.438z"/>
<path fill-rule="evenodd" clip-rule="evenodd" fill="#F1A173" d="M762.449,266.35c0.354,0.646,0.708,1.292,1.063,1.938
	c0,0-0.217,0.19-0.217,0.19c-0.803-0.424-0.958-1.178-1.008-1.985L762.449,266.35z"/>
<path fill-rule="evenodd" clip-rule="evenodd" fill="#58220A" d="M429.257,132.498c1.837-6.58,6.453-8.858,11.878-9.744
	c5.112-0.834,10.264-0.445,15.367,0.615c2.587,0.537,4.613,1.718,4.3,4.505c-0.335,2.986-2.892,2.641-5.084,2.427
	C446.94,129.445,438.207,129.269,429.257,132.498z"/>
<path fill-rule="evenodd" clip-rule="evenodd" fill="#58220A" d="M511.835,132.544c-9.059-3.17-17.467-3.133-25.97-2.31
	c-2.122,0.205-5.134,1.231-5.582-2.285c-0.405-3.173,1.948-4.163,4.675-4.647c6.114-1.085,12.224-1.671,18.247,0.308
	C507.303,124.958,510.421,127.438,511.835,132.544z"/>
<path fill-rule="evenodd" clip-rule="evenodd" fill="#1E3640" d="M441.173,143.076c0.288-3.227,2.083-5.433,5.578-5.617
	c3.817-0.201,6.127,2.148,6.164,5.721c0.037,3.598-2.441,6.043-6.061,5.948C443.555,149.042,441.402,146.9,441.173,143.076z"/>
<path fill-rule="evenodd" clip-rule="evenodd" fill="#E0966C" d="M471.057,182.008c-4.655,2.432-8.413,1.689-11.404-0.913
	c-3.607-3.138-2.891-7.806-1.97-11.728c0.958-4.078,3.234-7.836,7.317-11.053c-0.016,3.688-1.654,6.199-2.614,8.79
	C458.701,177.051,460.171,179.958,471.057,182.008z"/>
<path fill-rule="evenodd" clip-rule="evenodd" fill="#1E3640" d="M498.404,140.381c2.386,2.974,1.401,5.571-1.252,7.529
	c-2.598,1.916-5.348,1.509-7.489-0.946c-1.978-2.267-2.142-4.933-0.151-7.182c2.339-2.642,5.145-3.522,8.062-0.599
	c-0.188,0.209-0.376,0.417-0.564,0.625c-1.183-0.249-2.933-1.419-3.351,0.235c-0.455,1.803,1.466,2.875,3.052,3.173
	c2.404,0.45,1.497-1.348,1.371-2.525L498.404,140.381z"/>
<path fill-rule="evenodd" clip-rule="evenodd" fill="#1E3640" d="M497.573,139.183c0.276,0.4,0.553,0.799,0.83,1.198
	c0.001,0-0.322,0.31-0.322,0.31c-0.357-0.294-0.715-0.589-1.072-0.883C497.197,139.6,497.385,139.392,497.573,139.183z"/>
<path fill-rule="evenodd" clip-rule="evenodd" fill="#58220A" d="M725.271,251.462c1.686,3.026,5.236,5.062,5.064,9.833
	c-8.641-9.068-18.362-6.22-28.084-3.915c-1.509,0.357-3.856,2.899-4.685-0.791c-0.612-2.725,0.076-4.549,3.304-5.505
	c8.262-2.448,16.338-1.794,24.45,0.428C725.321,251.512,725.271,251.462,725.271,251.462z"/>
<path fill-rule="evenodd" clip-rule="evenodd" fill="#58220A" d="M646.929,257.083c0.921-4.62,4.141-7.187,8.313-8.325
	c7.641-2.085,15.104-0.72,22.414,1.938c2.88,1.047,2.487,3.184,1.894,5.307c-0.911,3.258-2.864,0.966-4.317,0.605
	c-3.69-0.917-7.295-2.229-11.017-2.969c-6.125-1.219-11.859-0.199-16.787,3.952C647.266,257.419,647.099,257.25,646.929,257.083z"/>
<path fill-rule="evenodd" clip-rule="evenodd" fill="#E0966C" d="M701.351,314.492c-2.462,7.084-9.285,10.907-17.78,9.962
	c-5.951-0.662-11.784-6.841-12.262-12.99l0.152-0.1c8.104,12.415,20.386,12.407,29.6,2.894L701.351,314.492z"/>
<path fill-rule="evenodd" clip-rule="evenodd" fill="#1E3640" d="M717.321,266.256c0.203,3.961-0.578,7.572-5.181,8.191
	c-4.193,0.564-6.476-1.927-6.784-6.033c-0.081-1.069-1.991-0.5-1.29-1.843c0.049-0.092,0.31-0.074,0.47-0.106
	c0.582-0.363,1.166-0.727,1.75-1.091l-0.058,0.032c1.522,0.087,2.616-0.471,3.047-2.027l-0.013,0.012
	c0.703,0.379,1.407,0.758,2.11,1.137c-0.717,2.831,1.072,4.162,3.295,4.03c2.45-0.146,0.308-1.889,0.419-2.902
	C715.946,265.43,716.799,265.229,717.321,266.256z"/>
<path fill-rule="evenodd" clip-rule="evenodd" fill="#1E3640" d="M671.275,265.47c-0.324,3.504-1.22,6.671-5.298,7.408
	c-2.56,0.462-4.438-0.729-5.838-2.889c-1.204-1.86-0.514-3.878-0.72-5.817c0.753-0.994,1.829-0.789,2.855-0.769
	c-0.54,0.973-1.299,1.896-1.539,2.938c-0.146,0.629,0.921,1.069,1.507,0.796c1.862-0.868,4.498-1.416,2.624-4.504
	c2.169,0.612,4.338,1.225,6.506,1.837l-0.057-0.062C671.303,264.763,671.289,265.117,671.275,265.47z"/>
<path fill-rule="evenodd" clip-rule="evenodd" fill="#E0966C" d="M671.309,311.464c-1.816-2.241-0.506-2.972,1.587-2.969
	c9.771,0.015,19.563-0.534,29.285,0.977c0.859,0.133,1.797,0.276,1.89,1.239c0.189,1.969-1.282,2.896-2.72,3.78
	c0,0-0.29-0.234-0.289-0.234c1.041-2.138,1.916-4.095-1.971-3.735c-8.679,0.803-17.341,0.807-25.945-0.858
	c-1.341-0.259-1.747,0.514-1.685,1.699L671.309,311.464z"/>
<path fill-rule="evenodd" clip-rule="evenodd" fill="#E0966C" d="M675.3,293.283c2.489-9.054,6.953-17.528,8.441-26.928
	C683.805,276.179,680.809,285.09,675.3,293.283z"/>
<path fill-rule="evenodd" clip-rule="evenodd" fill="#3D0D09" d="M671.373,264.47c-2.168-0.612-4.337-1.225-6.504-1.836
	c-0.863,0.257-1.729,0.513-2.594,0.77c-1.026-0.02-2.103-0.226-2.855,0.769c-1.872,1.27-2.867,3.77-5.479,3.963
	c-0.164-0.081-0.283-0.138-0.401-0.196c0.126-0.109,0.323-0.195,0.367-0.33c1.311-4.096,5.195-5.248,8.44-6.6
	C665.925,259.519,669.082,261.409,671.373,264.47z"/>
<path fill-rule="evenodd" clip-rule="evenodd" fill="#3D0D09" d="M711.373,264.528c-0.703-0.379-1.407-0.758-2.11-1.137
	c4.096-2.692,6.93-0.455,9.592,2.456c-0.218,0.226-0.425,0.461-0.62,0.706c-0.331-0.02-0.636-0.119-0.914-0.297
	c-0.521-1.027-1.374-0.826-2.233-0.6c-0.301-0.062-0.541-0.217-0.722-0.465c-0.39-0.21-0.778-0.42-1.168-0.63
	C712.589,264.55,711.981,264.539,711.373,264.528z"/>
<path fill-rule="evenodd" clip-rule="evenodd" fill="#3D0D09" d="M718.854,265.847c1.926,0.624,2.968,1.923,2.916,4.198
	c-1.833-0.499-2.773-1.895-3.536-3.492C718.43,266.308,718.637,266.072,718.854,265.847z"/>
<path fill-rule="evenodd" clip-rule="evenodd" fill="#E0966C" d="M682.87,298.112c-1.816,0.363-3.089,0.796-4.273-0.744
	C680.082,295.952,681.191,296.897,682.87,298.112z"/>
<path fill-rule="evenodd" clip-rule="evenodd" fill="#3D0D09" d="M709.275,263.379c-0.431,1.556-1.524,2.114-3.047,2.027
	C705.961,262.801,707.844,263.43,709.275,263.379z"/>
<path fill-rule="evenodd" clip-rule="evenodd" fill="#3D0D09" d="M706.286,265.374c-0.584,0.364-1.168,0.728-1.75,1.091
	C704.777,265.551,705.229,264.975,706.286,265.374z"/>
<path fill-rule="evenodd" clip-rule="evenodd" fill="#3D0D09" d="M671.275,265.47c0.014-0.354,0.027-0.708,0.041-1.062
	c0.23,0.269,0.46,0.537,0.69,0.805C671.763,265.299,671.52,265.385,671.275,265.47z"/>
<path fill-rule="evenodd" clip-rule="evenodd" fill="#58220A" d="M647.429,257.592c-0.271,0.197-0.541,0.395-0.812,0.592
	c0.105-0.366,0.21-0.731,0.313-1.099C647.099,257.25,647.266,257.419,647.429,257.592z"/>
<path fill-rule="evenodd" clip-rule="evenodd" fill="#FFFFFE" d="M941.628,209.523c0.224,0.077,0.439,0.06,0.65-0.049
	c7.771,1.509,15.582,1.766,23.479,1.165c5.584-0.425,5.602-0.197,3.501,4.754l-0.026,0.033c-0.853,0.486-1.744,0.915-2.552,1.466
	C956.602,223.769,946.581,220.829,941.628,209.523z"/>
<path fill-rule="evenodd" clip-rule="evenodd" fill="#703110" d="M997.341,163.426c-8.01-7.161-16.999-5.52-26.169-3.078
	c-1.447,0.385-3.844,2.906-4.687-0.776c-0.595-2.601,0.301-4.277,3.17-5.146c6.84-2.074,13.718-1.298,20.617-0.833
	c0.001,0.001-0.004-0.017-0.004-0.016c2.765,3.004,7.436,4.662,7,9.923L997.341,163.426z"/>
<path fill-rule="evenodd" clip-rule="evenodd" fill="#703110" d="M917.996,162.226c1.746-6.973,5.583-9.695,10.862-10.505
	c6.202-0.952,12.247,0.011,18.166,2.077c2.639,0.921,3.188,2.626,2.553,5.042c-0.854,3.243-2.764,1.191-4.284,0.794
	c-3.053-0.797-6.064-1.755-9.129-2.501C929.81,155.587,923.913,156.254,917.996,162.226z"/>
<path fill-rule="evenodd" clip-rule="evenodd" fill="#E0966C" d="M941.628,209.523c4.953,11.306,14.974,14.246,25.053,7.368
	c0.808-0.551,1.699-0.98,2.552-1.466c0.577,3.448-2.021,4.795-4.344,5.905c-11.358,5.426-20.743,1.279-24.217-10.857
	C940.612,210.265,941.292,209.844,941.628,209.523z"/>
<path fill-rule="evenodd" clip-rule="evenodd" fill="#624131" d="M984.795,170.453c0.32,3.952-1.761,6.083-5.462,5.955
	c-4.205-0.146-5.565-2.992-4.997-6.92c0.296-0.715,0.592-1.429,0.887-2.144l0.009,0.02
	C979.027,166.513,982.788,165.769,984.795,170.453z"/>
<path fill-rule="evenodd" clip-rule="evenodd" fill="#624131" d="M941.395,168.34c0.33,3.94-1.392,6.679-5.338,6.911
	c-3.725,0.219-5.676-2.122-5.512-5.965c0,0.001,0.442-0.014,0.442-0.014l0.428,0.113c2.778,0.25,5.023-0.171,4.751-3.768
	c1.407,0.262,2.813,0.523,4.221,0.786c0,0-0.029-0.023-0.029-0.022C940.703,167.034,941.049,167.687,941.395,168.34z"/>
<path fill-rule="evenodd" clip-rule="evenodd" fill="#E0966C" d="M969.259,215.392c2.101-4.951,2.083-5.179-3.501-4.754
	c-7.897,0.601-15.708,0.344-23.479-1.165c7.244-2.033,14.569-0.96,21.875-0.544c1.301,0.074,2.594,0.324,3.884,0.537
	c1.486,0.245,3.709-0.776,4.076,1.591C972.423,213.057,971.887,215.056,969.259,215.392z"/>
<path fill-rule="evenodd" clip-rule="evenodd" fill="#3D0D09" d="M984.795,170.453c-2.007-4.685-5.768-3.94-9.563-3.089
	c4.097-3.474,13.579-1.2,15.079,3.639c0.102,0.326-0.096,0.784-0.247,1.142c-0.402,0.951-0.898-0.006-1.356,0.027
	C987.11,172.288,987.272,168.374,984.795,170.453z"/>
<path fill-rule="evenodd" clip-rule="evenodd" fill="#3D0D09" d="M931.415,169.385l-0.428-0.113c0,0-0.442,0.016-0.442,0.014
	c-0.244-0.629,0.393-2.26-1.315-1.244c-0.971,0.577-1.466,2.177-3.051,1.308l0.08,0.059c2.646-6.131,9.886-7.671,14.128-3.006
	c-1.407-0.262-2.813-0.524-4.221-0.786C933.61,165.647,931.638,166.413,931.415,169.385z"/>
<path fill-rule="evenodd" clip-rule="evenodd" fill="#E0966C" d="M948.259,188.424c0.477-6.568,4.549-12.248,4.651-18.91
	c0.6,6.846-0.012,13.399-4.556,19.005L948.259,188.424z"/>
<path fill-rule="evenodd" clip-rule="evenodd" fill="#E0966C" d="M945.787,196.498c-0.578-2.563-0.917-4.122,0.931-5.509
	C947.726,192.958,946.298,194.157,945.787,196.498z"/>
<path fill-rule="evenodd" clip-rule="evenodd" fill="#3D0D09" d="M975.223,167.344c-0.295,0.714-0.591,1.429-0.887,2.144
	c-0.51-0.229-1.02-0.46-1.529-0.69C973.56,168.226,974.044,167.207,975.223,167.344z"/>
<path fill-rule="evenodd" clip-rule="evenodd" fill="#3D0D09" d="M941.395,168.34c-0.346-0.653-0.691-1.307-1.037-1.96
	c1.337-0.241,1.882,0.642,2.338,1.65C942.262,168.134,941.828,168.237,941.395,168.34z"/>
<path fill-rule="evenodd" clip-rule="evenodd" fill="#3D0D09" d="M926.179,169.35c-0.139,0.359-0.277,0.719-0.415,1.079
	c0.167-0.339,0.333-0.678,0.497-1.019C926.259,169.409,926.179,169.35,926.179,169.35z"/>
<path fill-rule="evenodd" clip-rule="evenodd" fill="#E0966C" d="M948.354,188.519c-0.156,0.126-0.313,0.252-0.47,0.378
	c0.125-0.158,0.25-0.315,0.375-0.473C948.259,188.424,948.354,188.519,948.354,188.519z"/>
<path fill-rule="evenodd" clip-rule="evenodd" fill="#703110" d="M997.269,163.5c0.146,0.055,0.293,0.11,0.439,0.166
	c-0.123-0.08-0.244-0.16-0.367-0.239C997.341,163.426,997.269,163.5,997.269,163.5z"/>
<path fill-rule="evenodd" clip-rule="evenodd" fill="#6B1687" d="M463.226,707.454c1.308,1.989,2.616,3.979,3.922,5.968
	c-4.979-1.104-7.344-5.294-10.015-8.909c-1.063-1.438-0.985-3.826,2.229-3.053C457.85,705.262,460.505,706.379,463.226,707.454z"/>
<path fill-rule="evenodd" clip-rule="evenodd" fill="#6B1687" d="M463.226,707.454c-2.721-1.074-5.375-2.191-3.863-5.994
	c1.962,0.07,3.923,0.142,5.886,0.213C463.387,703.184,462.222,704.939,463.226,707.454z"/>
<path fill-rule="evenodd" clip-rule="evenodd" fill="#BA8054" d="M752.318,274.476c6.298,0.119,6.621,0.392,4.45,5.967
	c-0.961,2.47,0.944,6.009-1.809,7.306c-1.987,0.937-3.128,2.417-4.655,3.642c-0.044-2.831,0.331-5.793,1.901-7.985
	C754.489,280.218,754.539,277.483,752.318,274.476z"/>
<path fill-rule="evenodd" clip-rule="evenodd" fill="#1E3640" d="M769.189,497.405c0.044-1.312,0.088-2.623,0.132-3.935
	c4.146,0.002,8.293-0.041,12.438,0.032c1.344,0.023,3.395-0.574,3.241,1.826c-0.121,1.915-1.813,2.111-3.373,2.111
	C777.481,497.44,773.335,497.417,769.189,497.405z"/>
<path fill-rule="evenodd" clip-rule="evenodd" fill="#1E3640" d="M768.242,492.962c-1.788,0.355-3.569,0.612-5.27-0.349
	C764.745,492.485,766.539,492.032,768.242,492.962z"/>
<path fill-rule="evenodd" clip-rule="evenodd" fill="#410D3F" d="M513.999,706.502c-0.3-0.034-0.597-0.08-0.893-0.139
	c0.37-0.336,0.74-0.672,1.11-1.009l0.09,0.101C514.204,705.805,514.102,706.154,513.999,706.502z"/>
<path fill-rule="evenodd" clip-rule="evenodd" fill="#6B1687" d="M514.217,705.355c-0.37,0.337-0.74,0.673-1.11,1.009
	c-0.532,0.052-1.064,0.104-1.594,0.155c-2.303-0.001-4.607-0.001-7.697-0.001c4.364-3.461,10.112-2.836,13.292-7.797
	C517.38,702.062,515.366,703.503,514.217,705.355z"/>
<path fill-rule="evenodd" clip-rule="evenodd" fill="#6B1687" d="M588.451,763.595c-2.042,1.816-4.084,3.633-6.125,5.446
	c-1.733-2.137,0.762-3.012,1.466-4.229c1.903-3.287,4.572-6.195,3.763-11.545C590.063,757.359,589.73,760.449,588.451,763.595z"/>
<path fill-rule="evenodd" clip-rule="evenodd" fill="#6F3D20" d="M472.289,504.481c-0.215-0.319-0.487-0.586-0.438-0.677
	c0.139-0.253,0.382-0.5,0.643-0.615c0.136-0.061,0.397,0.162,0.601,0.257C472.837,503.778,472.579,504.109,472.289,504.481z"/>
<path fill-rule="evenodd" clip-rule="evenodd" fill="#999999" d="M600.878,510.088c1.664-2.229,3.262-4.596,7.68-2.946
	c-3.585,0.095-5.279,1.837-6.957,3.604C601.363,510.523,601.122,510.304,600.878,510.088z"/>
<path fill-rule="evenodd" clip-rule="evenodd" fill="#E0966C" d="M762.288,266.494c0.05,0.807,0.205,1.561,1.008,1.985
	c0.308,10.748,0.308,10.748-2.775,15.038c1.281-5.822,1.315-11.532-1.168-17.012C760.331,266.5,761.31,266.497,762.288,266.494z"/>
<path fill-rule="evenodd" clip-rule="evenodd" fill="#D9D9DA" d="M497.009,139.808c0.357,0.294,0.715,0.588,1.072,0.883
	c0.126,1.177,1.033,2.976-1.371,2.525c-1.586-0.297-3.507-1.37-3.052-3.173C494.076,138.389,495.826,139.56,497.009,139.808z"/>
<path fill-rule="evenodd" clip-rule="evenodd" fill="#FFFFFE" d="M671.461,311.364c-0.063-1.186,0.344-1.958,1.685-1.699
	c8.604,1.665,17.267,1.661,25.945,0.858c3.887-0.359,3.012,1.598,1.971,3.735C691.847,323.771,679.565,323.778,671.461,311.364z"/>
<path fill-rule="evenodd" clip-rule="evenodd" fill="#D9D9DA" d="M711.373,264.528c0.608,0.011,1.216,0.022,1.824,0.033
	c0.389,0.21,0.778,0.42,1.168,0.63c0.181,0.248,0.421,0.403,0.722,0.465c-0.111,1.013,2.031,2.756-0.419,2.902
	C712.445,268.69,710.656,267.358,711.373,264.528z"/>
<path fill-rule="evenodd" clip-rule="evenodd" fill="#D9D9DA" d="M662.275,263.403c0.865-0.256,1.73-0.513,2.594-0.77
	c1.872,3.087-0.764,3.635-2.626,4.503c-0.586,0.273-1.652-0.167-1.507-0.796C660.977,265.299,661.735,264.376,662.275,263.403z"/>
<path fill-rule="evenodd" clip-rule="evenodd" fill="#624131" d="M714.365,265.191c-0.39-0.21-0.779-0.42-1.168-0.63
	C713.587,264.771,713.976,264.981,714.365,265.191z"/>
<path fill-rule="evenodd" clip-rule="evenodd" fill="#D9D9DA" d="M931.415,169.385c0.223-2.972,2.195-3.737,4.751-3.768
	C936.438,169.213,934.193,169.635,931.415,169.385z"/>
<path fill-rule="evenodd" clip-rule="evenodd" fill="#D9D9DA" d="M450.462,139.808c0.357,0.294,0.715,0.588,1.072,0.883
	c0.126,1.177,1.033,2.976-1.371,2.525c-1.586-0.297-3.507-1.37-3.052-3.173C447.53,138.389,449.28,139.56,450.462,139.808z"/>
<path fill-rule="evenodd" clip-rule="evenodd" fill="#D9D9DA" d="M974.415,170.279c0.223-2.972,2.195-3.737,4.751-3.768
	C979.438,170.107,977.193,170.529,974.415,170.279z"/>
<g>
	<circle fill-rule="evenodd" clip-rule="evenodd" fill="#80C41C" cx="435.57" cy="372.651" r="39.635"/>
	<path fill-rule="evenodd" clip-rule="evenodd" fill="#171616" d="M409.178,391.48c-0.12-3.684,2.76-6.615,6.334-6.609
		c3.729,0.006,6.463,2.829,6.484,6.608c0.021,3.792-2.773,6.715-6.378,6.757C411.941,398.279,409.188,395.389,409.178,391.48z
		 M419.549,391.601c0.053-2.242-1.438-4.447-3.897-4.507c-2.321-0.057-3.965,1.839-4.037,4.063c-0.087,2.72,1.518,4.773,3.836,4.85
		C417.648,396.079,419.452,394.141,419.549,391.601z"/>
	<path fill-rule="evenodd" clip-rule="evenodd" fill="#171616" d="M456.39,398.256c-1.466,0-2.782-0.423-3.924-1.342
		c-0.6-0.483-1-1.075-0.434-1.806c0.533-0.688,1.149-0.469,1.744-0.011c1.229,0.946,2.609,1.226,4.092,0.793
		c0.685-0.199,1.328-0.54,1.386-1.402c0.06-0.906-0.518-1.393-1.248-1.641c-0.809-0.276-1.667-0.412-2.506-0.591
		c-2.65-0.565-3.936-2.303-3.386-4.534c0.299-1.211,1.102-1.964,2.191-2.375c2.233-0.844,4.357-0.621,6.352,0.779
		c0.727,0.51,0.682,1.106,0.306,1.694c-0.397,0.623-0.988,0.541-1.521,0.105c-1.175-0.957-2.527-0.973-3.927-0.766
		c-0.865,0.127-1.332,0.661-1.244,1.498c0.087,0.838,0.714,1.304,1.508,1.481c0.838,0.187,1.699,0.273,2.53,0.484
		c2.343,0.597,3.339,1.788,3.246,3.796c-0.088,1.887-1.615,3.412-3.765,3.734C457.33,398.221,456.857,398.224,456.39,398.256z"/>
	<path fill-rule="evenodd" clip-rule="evenodd" fill="#171616" d="M449.103,396.899c0.031,0.686-0.26,1.03-0.747,1.197
		c-0.531,0.183-0.939-0.078-1.182-0.519c-0.317-0.581-0.615-1.184-0.825-1.81c-0.185-0.552-0.494-0.71-1.042-0.68
		c-0.743,0.044-1.503,0.1-2.233-0.006c-1.877-0.271-3.239,0.123-3.662,2.25c-0.134,0.677-0.738,1.049-1.461,0.704
		c-0.688-0.326-0.603-0.938-0.359-1.512c1.493-3.541,2.999-7.075,4.505-10.61c0.226-0.531,0.554-0.964,1.205-0.947
		c0.522,0.014,0.875,0.308,1.076,0.776c1.556,3.61,3.108,7.22,4.657,10.832C449.093,396.715,449.098,396.878,449.103,396.899z
		 M445.108,392.913c-0.525-1.235-0.983-2.347-1.474-3.444c-0.163-0.364-0.459-0.799-0.77-0.143
		c-0.543,1.151-1.001,2.343-1.524,3.587C442.633,392.913,443.8,392.913,445.108,392.913z"/>
	<path fill-rule="evenodd" clip-rule="evenodd" fill="#171616" d="M429.22,393.174c-1.049,1.431-2.036,2.789-3.035,4.138
		c-0.433,0.583-0.912,1.216-1.726,0.625c-0.788-0.572-0.424-1.239,0.015-1.839c0.973-1.33,1.938-2.665,2.957-3.958
		c0.408-0.518,0.442-0.879-0.003-1.398c-0.993-1.155-1.929-2.359-2.868-3.56c-0.447-0.573-0.851-1.228-0.143-1.852
		c0.749-0.663,1.355-0.276,1.866,0.41c0.795,1.072,1.61,2.13,2.404,3.203c0.52,0.705,0.998,0.629,1.491-0.027
		c0.823-1.101,1.648-2.199,2.488-3.287c0.43-0.56,0.961-0.853,1.598-0.321c0.623,0.519,0.414,1.124,0.009,1.646
		c-0.957,1.235-1.916,2.474-2.951,3.646c-0.516,0.584-0.509,0.979-0.029,1.571c1.011,1.249,1.952,2.555,2.908,3.846
		c0.48,0.649,0.779,1.326-0.078,1.917c-0.814,0.561-1.302,0.022-1.751-0.572C431.335,395.988,430.301,394.61,429.22,393.174z"/>
	<path fill-rule="evenodd" clip-rule="evenodd" fill="#171616" d="M423.094,368.36c-0.943,0.19-1.412-0.305-1.635-1.143
		c-1.205-4.522-2.5-9.021-3.56-13.576c-0.428-1.834-0.534-3.799,0.844-5.475c2.371-2.884,6.293-2.443,7.896,0.918
		c0.77,1.612,0.986,3.374,1.337,5.092c0.512,2.517,0.927,5.053,1.386,7.581c0.114,0.899,0.154,1.813,0.507,2.667
		c0.013,0.345,0.015,0.692,0.041,1.036c0.187,2.286,0.252,2.324,2.426,1.408c0.531,0.003,1.061-0.003,1.5-0.376
		c0.536,0.086,1.047,0.041,1.517-0.262c0.633,0.033,1.245-0.051,1.818-0.336c1.125-0.108,2.255-0.182,3.336-0.551
		c1.841-0.145,3.689-0.222,5.502-0.613c0.714,0.038,1.428,0.077,2.141,0.115c3.025,0.884,3.631,2.516,1.955,5.263
		c-0.971,0.76-2.071,1.271-3.235,1.657c-0.743,0.26-1.486,0.52-2.231,0.78c-0.708,0.096-1.405,0.235-2.01,0.652
		c-0.678,0.009-1.292,0.22-1.856,0.59c-0.334,0.025-0.691-0.026-0.944,0.278c-0.304,0.045-0.636,0-0.864,0.28
		c-0.673,0.086-1.319,0.255-1.906,0.612c-0.385,0.068-0.811,0.005-1.104,0.358c-0.198,0.029-0.394,0.058-0.591,0.086
		c-1.091,0.339-2.219,0.234-3.335,0.28c-1.627-0.436-2.521-1.61-3.112-3.091c-0.076-0.383-0.216-0.766-0.22-1.15
		c-0.011-1.383-0.652-1.278-1.53-0.689c-1.031,0.314-2.107,0.49-3.07,1.012c-1.118,0.425-2.245,0.83-3.351,1.284
		c-0.663,0.271-1.193,0.199-1.5-0.472c-0.32-0.701,0.062-1.169,0.674-1.431c1.147-0.491,2.314-0.932,3.473-1.393
		c0.75-0.279,1.5-0.558,2.25-0.837c0.609-0.204,1.22-0.409,1.831-0.612c0.986-0.013,0.567-0.688,0.552-1.172
		c-0.101-0.707-0.203-1.413-0.304-2.12c-0.101-0.705-0.202-1.41-0.302-2.114c-0.109-0.708-0.219-1.417-0.329-2.125
		c-0.154-0.72-0.309-1.438-0.462-2.158c-0.071-1.145-0.229-2.274-0.639-3.354c-0.024-0.608-0.042-1.219-0.36-1.768
		c-0.087-0.107-0.173-0.214-0.262-0.321l0.017,0.012c0.096-1.057-0.093-2.063-0.523-3.034c-0.827-1.871-1.921-2.243-3.764-1.265
		c-0.791,0.491-1.32,1.14-1.28,2.131c-0.343,0.75,0.12,1.451,0.135,2.179c0.036,0.848,0.283,1.646,0.595,2.427
		c0.115,0.731,0.227,1.462,0.598,2.122c-0.065,0.778,0.282,1.443,0.583,2.121c-0.069,0.788,0.28,1.463,0.574,2.155
		c0.135,0.596,0.271,1.193,0.406,1.79c0.307,0.905,0.334,1.894,0.833,2.739C423.55,367.19,423.649,367.855,423.094,368.36z
		 M441.108,371.333c0.404-0.117,0.808-0.232,1.211-0.348c1.1-0.374,2.2-0.748,3.299-1.121c0.848-0.114,1.634-0.406,2.375-0.823
		c0.552-0.31,1.049-0.761,0.888-1.41c-0.147-0.582-0.794-0.702-1.351-0.754c-1.353-0.128-2.675,0.208-4.011,0.321
		c-1.233,0.025-2.447,0.176-3.633,0.525c-0.632,0.05-1.296-0.096-1.873,0.3c-0.521,0.027-1.067-0.064-1.521,0.303
		c-0.513,0.032-1.05-0.069-1.496,0.295c-0.41,0.026-0.839-0.048-1.188,0.253c-0.692,0.154-1.384,0.308-2.075,0.463
		c-0.532,0.21-1.504-0.019-1.111,1.114c0.51,2.948,1.25,3.581,3.519,3.014c0.453,0.093,0.838-0.084,1.212-0.307
		c0.403-0.113,0.806-0.226,1.21-0.339c0.505-0.182,1.011-0.363,1.516-0.544c0.57-0.018,1.084-0.193,1.529-0.557
		C440.145,371.733,440.645,371.603,441.108,371.333z"/>
	<path fill-rule="evenodd" clip-rule="evenodd" fill="#171616" d="M431.111,360.32c-0.381-0.912-0.033-1.505,0.77-1.996
		c2.576-1.569,5.33-2.376,8.343-1.873c1.055,0.176,1.476,0.005,1.63-1.154c0.389-2.938,0.895-5.869,1.927-8.668
		c1.058-2.866,3.33-3.875,6.146-2.771c1.737,0.681,2.725,2.318,2.636,4.656c-0.127,3.29-1.191,6.415-1.822,9.616
		c-0.243,1.233-0.562,2.449-0.834,3.675c-0.174,0.784-0.436,1.466-1.424,1.438c-0.755-0.387-0.807-1.039-0.671-1.765
		c0.118-0.625,0.228-1.251,0.34-1.877c0.618-2.105,1.18-4.223,1.457-6.406c0.728-1.619,0.65-3.387,0.846-5.088
		c0.149-1.313-0.556-2.249-2.016-2.515c-1.416-0.26-2.198,0.402-2.664,1.594c-0.216,0.551-0.302,1.153-0.448,1.731
		c-0.792,2.48-1.324,5.013-1.49,7.617c-0.071,0.185-0.17,0.364-0.208,0.556c-0.398,2.036-0.464,2.069-2.55,1.584
		c-1.308-0.306-2.628-0.534-3.953-0.06c-0.747-0.018-1.444,0.176-2.109,0.501c-0.889,0.263-1.693,0.685-2.391,1.301
		C432.111,360.536,431.606,360.513,431.111,360.32z"/>
	<path fill-rule="evenodd" clip-rule="evenodd" fill="#171616" d="M449.666,373.152c0.593,0.506,0.605,1.058,0.26,1.744
		c-0.557,1.104-1.266,2.109-2.29,2.758c-4.992,3.165-10.362,4.963-16.316,3.672c-3.431-0.743-5.976-2.781-7.201-6.222
		c-0.265-0.743-0.248-1.367,0.458-1.845c0.721-0.001,1.214,0.257,1.432,1.024c1.089,3.841,5.541,5.889,9.945,5.284
		c0.94,0.102,1.846-0.048,2.731-0.365c0.404-0.105,0.809-0.21,1.212-0.316c0.487-0.07,0.958-0.187,1.364-0.483
		c0.273-0.085,0.545-0.17,0.817-0.255c0.296-0.112,0.665-0.05,0.87-0.373c0.715-0.14,1.373-0.399,1.911-0.908
		c0.603-0.134,1.101-0.436,1.487-0.917c0.5-0.299,0.959-0.63,1.103-1.243c0.34-0.494,0.678-0.989,1.019-1.484
		C448.868,373.2,449.268,373.175,449.666,373.152z"/>
	<path fill-rule="evenodd" clip-rule="evenodd" fill="#9CCD2A" d="M437.125,358.613c1.325-0.474,2.645-0.246,3.953,0.06
		c2.086,0.485,2.152,0.452,2.55-1.584c0.038-0.192,0.137-0.371,0.208-0.556c1.129,0.211,1.581,1.266,2.359,1.914
		c0.596,0.496,1.031,1.23,1.957,1.154c-0.113,0.626-0.222,1.252-0.34,1.877c-0.136,0.726-0.084,1.377,0.671,1.765
		c-0.109,0.535-0.22,1.069-0.331,1.603c-0.714-0.039-1.428-0.078-2.143-0.116c-0.644-0.154-1.343,0.217-1.95-0.447
		c-1.417-1.552-3.004-2.952-4.375-4.54C438.95,358.895,438.189,358.51,437.125,358.613z"/>
	<path fill-rule="evenodd" clip-rule="evenodd" fill="#3CB3C2" d="M435.955,379.568c-4.404,0.605-8.856-1.443-9.945-5.284
		c-0.218-0.767-0.711-1.025-1.432-1.024c-0.16-0.5-0.321-0.999-0.482-1.498c0.963-0.521,2.039-0.697,3.07-1.012
		c0.155,1.021,1.005,1.38,1.75,1.84c0.591,1.481,1.484,2.655,3.112,3.091C433.675,376.636,435.066,377.848,435.955,379.568z"/>
	<path fill-rule="evenodd" clip-rule="evenodd" fill="#77C155" d="M431.111,360.32c0.495,0.193,1,0.215,1.514,0.096
		c-0.004,0.77,0.664,1.083,1.069,1.575c1.111,1.345,2.737,2.23,3.477,3.904c-0.573,0.285-1.185,0.37-1.818,0.336
		c0.005-0.643-0.511-0.948-0.884-1.337c-1.314-1.378-2.639-2.746-3.96-4.118C430.633,360.522,430.803,360.332,431.111,360.32z"/>
	<path fill-rule="evenodd" clip-rule="evenodd" fill="#6FBE62" d="M430.51,360.776c1.321,1.372,2.646,2.74,3.96,4.118
		c0.373,0.39,0.889,0.695,0.884,1.337c-0.469,0.302-0.981,0.348-1.517,0.262c-0.017-0.641-0.546-0.936-0.916-1.328
		c-1.094-1.156-2.204-2.298-3.309-3.444C429.842,361.342,430.082,360.969,430.51,360.776z"/>
	<path fill-rule="evenodd" clip-rule="evenodd" fill="#69BC72" d="M429.612,361.722c1.104,1.146,2.215,2.288,3.309,3.444
		c0.37,0.392,0.899,0.687,0.916,1.328c-0.439,0.374-0.969,0.38-1.5,0.376c-0.457-1.184-1.257-2.022-2.467-2.444
		c-0.354-0.854-0.394-1.769-0.507-2.667C429.442,361.724,429.526,361.712,429.612,361.722z"/>
	<path fill-rule="evenodd" clip-rule="evenodd" fill="#8FC829" d="M449.666,373.152c-0.398,0.023-0.798,0.048-1.196,0.071
		c-0.968-0.008-1.595-0.392-1.601-1.458c1.165-0.386,2.264-0.897,3.235-1.657C450.313,371.175,449.994,372.164,449.666,373.152z"/>
	<path fill-rule="evenodd" clip-rule="evenodd" fill="#3CB3C2" d="M423.094,368.36c0.555-0.505,0.456-1.17,0.447-1.814
		c1.36,0.203,2.135,0.927,2.101,2.368c-0.75,0.279-1.5,0.558-2.25,0.837C423.294,369.287,423.195,368.824,423.094,368.36z"/>
	<path fill-rule="evenodd" clip-rule="evenodd" fill="#8FC829" d="M437.125,358.613c1.065-0.104,1.826,0.281,2.559,1.13
		c1.371,1.587,2.958,2.987,4.375,4.54c0.607,0.664,1.306,0.293,1.95,0.447c-1.813,0.391-3.66,0.468-5.501,0.613
		c-0.262-0.725-0.797-1.24-1.306-1.793c-1.378-1.495-3.053-2.709-4.186-4.436C435.681,358.789,436.377,358.596,437.125,358.613z"/>
	<path fill-rule="evenodd" clip-rule="evenodd" fill="#7DBF40" d="M435.016,359.115c1.133,1.727,2.808,2.941,4.186,4.436
		c0.508,0.553,1.044,1.068,1.306,1.793c-1.081,0.369-2.211,0.443-3.336,0.551c-0.74-1.673-2.366-2.559-3.477-3.904
		c-0.406-0.492-1.073-0.805-1.069-1.575C433.323,359.799,434.126,359.377,435.016,359.115z"/>
	<path fill-rule="evenodd" clip-rule="evenodd" fill="#6FBE62" d="M425.99,355.258c0.41,1.081,0.568,2.209,0.639,3.355
		c-0.663,0.092-0.971-0.429-1.35-0.802c-1.279-1.261-2.546-2.535-3.814-3.809c-0.423-0.425-0.814-0.899-1.512-0.81
		c-0.016-0.728-0.478-1.429-0.135-2.178c0.716-0.01,1.198,0.395,1.668,0.878c1.154,1.188,2.331,2.352,3.511,3.514
		C425.368,355.774,425.799,356.233,425.99,355.258z"/>
	<path fill-rule="evenodd" clip-rule="evenodd" fill="#69BC72" d="M419.953,353.193c0.698-0.09,1.089,0.384,1.512,0.81
		c1.268,1.274,2.535,2.548,3.814,3.809c0.378,0.373,0.687,0.894,1.35,0.802c0.153,0.719,0.308,1.437,0.462,2.157
		c-0.641,0.092-1.012-0.328-1.404-0.723c-1.202-1.21-2.413-2.412-3.616-3.621c-0.426-0.429-0.822-0.902-1.522-0.806
		C420.236,354.839,419.989,354.041,419.953,353.193z"/>
	<path fill-rule="evenodd" clip-rule="evenodd" fill="#77C155" d="M425.99,355.258c-0.19,0.976-0.622,0.516-0.993,0.149
		c-1.18-1.162-2.356-2.327-3.511-3.514c-0.47-0.484-0.952-0.888-1.668-0.878c-0.041-0.992,0.489-1.641,1.28-2.132
		c1.013,1.849,2.445,3.279,4.287,4.298l-0.017-0.012c0.088,0.107,0.174,0.214,0.262,0.321
		C425.948,354.039,425.965,354.649,425.99,355.258z"/>
	<path fill-rule="evenodd" clip-rule="evenodd" fill="#8FC829" d="M443.52,367.199c1.336-0.113,2.658-0.449,4.011-0.321
		c0.557,0.052,1.204,0.172,1.351,0.754c0.161,0.648-0.336,1.1-0.888,1.41c-0.741,0.417-1.527,0.709-2.374,0.823
		C444.623,369.209,443.238,368.86,443.52,367.199z"/>
	<path fill-rule="evenodd" clip-rule="evenodd" fill="#62BC7D" d="M420.548,355.62c0.7-0.096,1.096,0.377,1.522,0.806
		c1.203,1.209,2.414,2.411,3.616,3.621c0.392,0.395,0.763,0.815,1.404,0.723c0.109,0.708,0.219,1.416,0.329,2.125
		c-0.919-0.118-1.448-0.815-2.087-1.372c-1.418-1.235-2.424-2.927-4.187-3.781C420.775,357.082,420.664,356.352,420.548,355.62z"/>
	<path fill-rule="evenodd" clip-rule="evenodd" fill="#4FB5A7" d="M435.955,379.568c-0.889-1.72-2.28-2.932-3.926-3.887
		c1.116-0.046,2.244,0.059,3.335-0.28c0.982,1.375,2.62,2.181,3.322,3.802C437.801,379.52,436.895,379.669,435.955,379.568z"/>
	<path fill-rule="evenodd" clip-rule="evenodd" fill="#7DBF40" d="M443.52,367.199c-0.282,1.662,1.103,2.011,2.099,2.666
		c-1.1,0.374-2.2,0.747-3.3,1.121c-0.043-0.623-0.594-0.882-0.927-1.3c-0.512-0.645-1.388-1.013-1.507-1.962
		C441.073,367.375,442.287,367.224,443.52,367.199z"/>
	<path fill-rule="evenodd" clip-rule="evenodd" fill="#7DBF40" d="M425.385,353.181c-1.842-1.02-3.274-2.45-4.287-4.298
		c1.843-0.979,2.937-0.606,3.764,1.265C425.292,351.118,425.481,352.124,425.385,353.181z"/>
	<path fill-rule="evenodd" clip-rule="evenodd" fill="#5DB987" d="M421.146,357.742c1.762,0.854,2.768,2.546,4.187,3.781
		c0.639,0.557,1.167,1.253,2.087,1.372c0.101,0.704,0.201,1.41,0.302,2.114c-1.526-0.92-2.625-2.317-3.919-3.497
		c-0.65-0.594-1.072-1.494-2.074-1.65C421.428,359.185,421.081,358.52,421.146,357.742z"/>
	<path fill-rule="evenodd" clip-rule="evenodd" fill="#54B79D" d="M422.708,363.807c-0.135-0.597-0.271-1.194-0.406-1.79
		c0.162-0.246,0.404-0.362,0.621-0.143c1.713,1.74,3.599,3.312,5.103,5.254c0.015,0.484,0.434,1.159-0.552,1.172
		c-0.701-1.563-2.201-2.416-3.262-3.659C423.826,364.188,423.418,363.707,422.708,363.807z"/>
	<path fill-rule="evenodd" clip-rule="evenodd" fill="#4FB5A7" d="M422.708,363.807c0.71-0.1,1.118,0.381,1.503,0.835
		c1.061,1.244,2.561,2.096,3.262,3.659c-0.611,0.203-1.222,0.408-1.831,0.612c0.034-1.441-0.741-2.165-2.101-2.368
		C423.042,365.7,423.015,364.712,422.708,363.807z"/>
	<path fill-rule="evenodd" clip-rule="evenodd" fill="#6FBE62" d="M446.348,375.951c-0.387,0.481-0.885,0.783-1.487,0.917
		c-0.81-0.019-1.152-0.721-1.686-1.147c-0.804-0.641-1.259-1.717-2.403-1.934c0.564-0.37,1.179-0.581,1.856-0.59
		c0.853,0.067,1.174,0.846,1.744,1.292C445.017,374.995,445.385,375.875,446.348,375.951z"/>
	<path fill-rule="evenodd" clip-rule="evenodd" fill="#57B792" d="M428.025,367.129c-1.503-1.942-3.389-3.514-5.103-5.254
		c-0.216-0.219-0.458-0.104-0.621,0.143c-0.293-0.691-0.643-1.367-0.574-2.155c1.002,0.156,1.423,1.056,2.074,1.649
		c1.294,1.18,2.393,2.577,3.919,3.497C427.823,365.716,427.925,366.422,428.025,367.129z"/>
	<path fill-rule="evenodd" clip-rule="evenodd" fill="#69BC72" d="M434.997,368.621c0.446-0.364,0.983-0.263,1.498-0.295
		c1.235,0.95,2.447,1.921,3.114,3.393c-0.445,0.363-0.959,0.539-1.529,0.557C437.461,370.711,435.895,369.948,434.997,368.621z"/>
	<path fill-rule="evenodd" clip-rule="evenodd" fill="#77C155" d="M446.348,375.951c-0.963-0.076-1.331-0.956-1.977-1.462
		c-0.57-0.446-0.891-1.224-1.744-1.292c0.605-0.417,1.302-0.556,2.012-0.652c1.077,0.54,1.503,1.923,2.812,2.162
		C447.307,375.321,446.848,375.652,446.348,375.951z"/>
	<path fill-rule="evenodd" clip-rule="evenodd" fill="#5DB987" d="M431.733,369.337c0.691-0.155,1.383-0.309,2.075-0.463
		c0.144,1.069,1.128,1.488,1.716,2.213c0.429,0.531,1.149,0.88,1.04,1.732c-0.404,0.113-0.807,0.226-1.21,0.339
		C434.527,371.524,433.077,370.481,431.733,369.337z"/>
	<path fill-rule="evenodd" clip-rule="evenodd" fill="#62BC7D" d="M436.564,372.82c0.109-0.852-0.611-1.201-1.04-1.732
		c-0.588-0.725-1.572-1.145-1.716-2.213c0.349-0.301,0.779-0.228,1.188-0.253c0.897,1.327,2.464,2.09,3.083,3.654
		C437.575,372.457,437.069,372.638,436.564,372.82z"/>
	<path fill-rule="evenodd" clip-rule="evenodd" fill="#54B79D" d="M434.142,373.465c-2.269,0.566-3.009-0.066-3.519-3.014
		c0.215-0.118,0.489-0.351,0.678-0.158C432.292,371.309,433.589,372.056,434.142,373.465z"/>
	<path fill-rule="evenodd" clip-rule="evenodd" fill="#69BC72" d="M440.771,373.787c1.145,0.216,1.599,1.293,2.403,1.934
		c0.534,0.426,0.876,1.128,1.686,1.147c-0.539,0.508-1.196,0.768-1.911,0.908c-0.607-1.601-2.201-2.374-3.122-3.71
		C440.081,373.761,440.438,373.812,440.771,373.787z"/>
	<path fill-rule="evenodd" clip-rule="evenodd" fill="#6FBE62" d="M439.609,371.719c-0.667-1.472-1.878-2.443-3.114-3.393
		c0.452-0.367,0.998-0.275,1.519-0.303c1.252,0.897,2.379,1.912,3.095,3.31C440.645,371.603,440.145,371.733,439.609,371.719z"/>
	<path fill-rule="evenodd" clip-rule="evenodd" fill="#57B792" d="M434.142,373.465c-0.552-1.409-1.85-2.156-2.841-3.172
		c-0.189-0.193-0.463,0.04-0.678,0.158c-0.393-1.132,0.579-0.903,1.111-1.114c1.344,1.144,2.794,2.187,3.62,3.821
		C434.98,373.381,434.595,373.558,434.142,373.465z"/>
	<path fill-rule="evenodd" clip-rule="evenodd" fill="#5DB987" d="M442.08,378.148c-0.272,0.085-0.544,0.17-0.817,0.255
		c-0.73-0.284-1.115-0.973-1.69-1.438c-0.834-0.674-1.325-1.779-2.514-2.009c0.586-0.356,1.233-0.526,1.907-0.612
		c0.011,0.632,0.5,0.956,0.867,1.364C440.572,376.531,441.509,377.172,442.08,378.148z"/>
	<path fill-rule="evenodd" clip-rule="evenodd" fill="#62BC7D" d="M442.08,378.148c-0.571-0.977-1.507-1.618-2.248-2.439
		c-0.367-0.408-0.855-0.732-0.867-1.364c0.227-0.28,0.559-0.235,0.863-0.28c0.921,1.337,2.515,2.109,3.122,3.71
		C442.745,378.099,442.375,378.037,442.08,378.148z"/>
	<path fill-rule="evenodd" clip-rule="evenodd" fill="#54B79D" d="M438.686,379.203c-0.703-1.621-2.34-2.426-3.322-3.802
		c0.198-0.028,0.394-0.057,0.591-0.086c1.914,0.529,2.916,2.066,3.943,3.572C439.494,378.993,439.09,379.097,438.686,379.203z"/>
	<path fill-rule="evenodd" clip-rule="evenodd" fill="#77C155" d="M441.108,371.333c-0.715-1.398-1.843-2.413-3.095-3.31
		c0.577-0.396,1.241-0.25,1.872-0.3c0.119,0.949,0.995,1.317,1.507,1.962c0.333,0.418,0.883,0.677,0.927,1.3
		C441.916,371.101,441.513,371.217,441.108,371.333z"/>
	<path fill-rule="evenodd" clip-rule="evenodd" fill="#7DBF40" d="M447.451,374.708c-1.308-0.239-1.735-1.623-2.812-2.162
		c0.744-0.26,1.486-0.52,2.229-0.78c0.005,1.066,0.632,1.45,1.601,1.458C448.129,373.718,447.791,374.213,447.451,374.708z"/>
	<path fill-rule="evenodd" clip-rule="evenodd" fill="#62BC7D" d="M429.87,364.426c1.21,0.421,2.01,1.26,2.467,2.444
		c-2.174,0.917-2.239,0.878-2.426-1.408C429.885,365.118,429.883,364.771,429.87,364.426z"/>
	<path fill-rule="evenodd" clip-rule="evenodd" fill="#57B792" d="M439.898,378.887c-1.028-1.506-2.03-3.043-3.943-3.572
		c0.292-0.353,0.719-0.29,1.104-0.358c1.189,0.23,1.68,1.335,2.514,2.009c0.575,0.465,0.959,1.154,1.69,1.438
		C440.855,378.7,440.385,378.817,439.898,378.887z"/>
	<path fill-rule="evenodd" clip-rule="evenodd" fill="#4FB5A7" d="M428.917,372.59c-0.745-0.46-1.596-0.819-1.75-1.84
		c0.878-0.589,1.519-0.693,1.53,0.689C428.7,371.824,428.84,372.207,428.917,372.59z"/>
	<path fill-rule="evenodd" clip-rule="evenodd" fill="#7DBF40" d="M425.63,353.49c-0.087-0.107-0.173-0.213-0.262-0.321
		C425.457,353.276,425.542,353.383,425.63,353.49z"/>
	<path fill-rule="evenodd" clip-rule="evenodd" fill="#C7D523" d="M448.151,359.601c-0.926,0.077-1.361-0.658-1.957-1.154
		c-0.778-0.647-1.229-1.702-2.359-1.914c0.166-2.604,0.698-5.137,1.49-7.617c0.723,2.132,2.366,3.341,4.282,4.278
		C449.332,355.378,448.77,357.496,448.151,359.601z"/>
	<path fill-rule="evenodd" clip-rule="evenodd" fill="#D5D81E" d="M449.608,353.195c-1.916-0.938-3.56-2.146-4.282-4.278
		c0.146-0.578,0.232-1.18,0.448-1.731c0.466-1.192,1.248-1.854,2.664-1.594c1.46,0.267,2.165,1.202,2.016,2.515
		C450.258,349.808,450.336,351.576,449.608,353.195z"/>
</g>
</svg>
