<?xml version="1.0" encoding="utf-8"?>
<!-- Generator: Adobe Illustrator 16.0.3, SVG Export Plug-In . SVG Version: 6.00 Build 0)  -->
<!DOCTYPE svg PUBLIC "-//W3C//DTD SVG 1.1//EN" "http://www.w3.org/Graphics/SVG/1.1/DTD/svg11.dtd">
<svg version="1.1" id="Capa_1" xmlns="http://www.w3.org/2000/svg" xmlns:xlink="http://www.w3.org/1999/xlink" x="0px" y="0px"
	 width="562.472px" height="499.365px" viewBox="0 0 562.472 499.365" enable-background="new 0 0 562.472 499.365"
	 xml:space="preserve">
<path fill-rule="evenodd" clip-rule="evenodd" fill="#E9A88F" d="M161.581,280.908c2.726-0.101,4.389,2.215,6.741,2.962
	c0.464,0.694,0.929,1.391,1.392,2.085c1.305,1.969,2.611,3.938,3.917,5.907c0.708,3.745,1.491,7.478,2.108,11.236
	c1.813,11.039-0.564,21.823-2.082,32.657c-1.232,3.729-2.465,7.459-3.698,11.188c-0.58,1.701-1.16,3.401-1.74,5.101
	c-2.665,6.622-5.33,13.244-7.995,19.865c-3.711,0.723-7.465,0.797-11.23,0.986c-5.124,0.256-9.482-2.406-14.32-3.104
	c-0.129-0.069-0.258-0.138-0.387-0.206c0.126,0.072,0.252,0.144,0.378,0.215c6.105,7.59,17.503,10.005,28.061,5.945
	c1.837,2.731,3.674,5.463,5.512,8.193c0.544,1.581,1.088,3.161,1.632,4.742c1.431,2.653,1.675,5.848,3.739,8.214
	c0.882,4.399,1.765,8.799,2.647,13.198c-2.091,8.761-7.657,15.11-14.416,20.582c-1.424,1.152-3.049,2.011-3.188,4.104
	c-0.407,0.123-0.814,0.245-1.222,0.368c0.076,0.12,0.153,0.239,0.229,0.359c0.341-0.231,0.681-0.464,1.021-0.695
	c4.15-0.357,7.198-2.985,10.546-5.043c5.788-3.559,9.219-9.356,13.699-14.155c7.128,4.49,12.001,11.304,17.738,17.226
	c0.73,1.013,1.46,2.025,2.19,3.037c0.178,1.685,1.147,2.653,2.753,3.049c-0.1,1.59,0.75,2.773,1.529,4.072
	c5.446,9.082,9.577,18.754,13.062,28.75c3.177,9.113,3.926,18.647,5.472,28.05c-43.333,0-86.667,0-130,0
	c1.107-13.907,4.374-27.483,6.355-41.26c1.959-13.626,3.094-27.334,4.671-40.996c2.448-21.204,2.847-42.756,9.958-63.21
	c4.472-12.862,11.357-24.37,20.486-34.488c3.02-3.347,5.516-6.997,7.439-11.058c0.45,0.031,1.074,0.273,1.326,0.066
	C154.738,301.569,159.953,292.24,161.581,280.908z"/>
<path fill-rule="evenodd" clip-rule="evenodd" fill="#E9A88F" d="M401.692,422.779c-1.08-7.93-2.471-15.49-10.131-19.979
	c-5.909,1.739-12.309,2.04-17.479,5.97c-4.03,5.18-8.12,10.33-9.53,16.979c-0.109,1.7-0.22,3.4-0.33,5.091l0.24,1.649
	c0.11,3.33,0.65,6.601,1.961,9.64c3.33,7.671,9.989,10.87,18.129,8.86c2.721-0.67,5.4-1.47,8.101-2.22
	c0.46-0.75,1.19-0.97,2.01-0.98c0.341-0.33,0.67-0.66,1.011-0.989c-0.341,0.329-0.67,0.67-1,1c-0.44,0.77-1.15,1-1.971,1.029
	c-3.71,6.011-9.97,6.7-15.96,6.8c-6.03,0.101-10.12-3.96-12.59-9.159c-1.7-3.561-2.94-7.431-2.53-11.561
	c-6.84,3-14.02,3.811-21.439,3.79c-35.5-0.09-71-0.04-106.5-0.03c-1.99,0-3.99,0.131-5.98,0.2c10.08,19.061,15.36,39.3,14.97,60.931
	h113c9.6-11.44,18.92-23.12,28.869-34.25C395.522,453.27,404.072,440.359,401.692,422.779z M395.372,433.31
	c-1.279-9.25-2.26-17.45-4.52-25.48C397.593,413.26,399.652,424.119,395.372,433.31z"/>
<path fill-rule="evenodd" clip-rule="evenodd" fill="#D68B71" d="M242.672,499.8h-17c-1.55-9.4-2.3-18.94-5.47-28.051
	c-3.49-10-7.62-19.67-13.07-28.75c-0.78-1.3-1.63-2.479-1.52-4.08c7.36-0.01,14.72-0.029,22.09-0.05
	C237.782,457.93,243.062,478.169,242.672,499.8z"/>
<path fill-rule="evenodd" clip-rule="evenodd" fill="#3E3F3C" d="M169.715,285.957c-0.464-0.696-0.929-1.393-1.393-2.087
	c0.048-1.829,0.139-3.659,0.139-5.489c0.006-71.467,0.052-142.934-0.033-214.401c-0.02-15.838,6.896-27.033,21.248-33.614
	c4.298-1.971,8.91-2.616,13.62-2.616c47.312,0.003,94.623-0.074,141.934,0.04c19.906,0.048,34.616,14.919,34.631,34.843
	c0.053,73.633,0.021,147.266,0.026,220.897c0,2.165,0.056,4.33,0.086,6.492c-0.723,0.203-1.445,0.41-2.168,0.617
	c-0.053-3.164-0.151-6.328-0.152-9.492c-0.009-71.984-0.346-143.972,0.227-215.952c0.147-18.598-13.542-35.658-35.289-35.452
	c-45.486,0.433-90.983,0.465-136.469-0.013c-21.862-0.23-35.841,16.571-35.678,35.584c0.612,71.479,0.254,142.967,0.205,214.452
	C170.647,281.832,171.483,284.121,169.715,285.957z"/>
<path fill-rule="evenodd" clip-rule="evenodd" fill="#E9A88F" d="M377.806,290.641c0.722-0.207,1.444-0.414,2.167-0.617
	c8.28-1.54,13.24,2.406,16.22,9.738c3.33,8.195,5.536,16.623,5.463,25.538c-0.019,2.338-0.341,4.612-1.904,6.513
	c-1.017,0.354-1.696,1.046-2.056,2.057l0.056-0.023c-1.244-0.021-2.108,0.796-3.129,1.328c-4.455,2.322-9.385,3.773-14.243,3.223
	c-10.012-1.136-17.094-9.454-18.9-19.508c-0.905-5.044,0.661-9.814,0.014-14.691c-0.178-2.746,2.821-3.862,3.242-6.304
	c3.057-2.394,6.182-4.679,9.776-6.228C375.609,291.324,376.707,290.982,377.806,290.641z M395.268,327.207
	c4.2-11.903-0.587-28.01-9.471-31.9C390.235,305.967,392.562,316.632,395.268,327.207z"/>
<path fill-rule="evenodd" clip-rule="evenodd" fill="#E9A88F" d="M380.476,352.82c10.05-0.276,12.465,1.277,16.287,10.796
	c3.171,7.896,4.9,16.097,4.919,24.64c0.004,2.063-0.611,3.904-1.483,5.706c-1.188,0.08-1.441,0.915-1.519,1.892l0.046-0.045
	c-2.401,0.229-4.281,1.711-6.365,2.686c-14.37,6.714-29.063-1.984-30.938-17.695c-0.521-4.375,1.767-8.818-0.693-12.986
	c0.31-2.986,2.72-4.791,4.056-7.199c2.891-2.982,6.635-4.719,10.077-6.895c0.985,0.104,1.962,0.164,2.77-0.58
	c0.697-0.153,1.396-0.307,2.094-0.461C379.978,352.713,380.228,352.76,380.476,352.82z M387.639,360.365
	c1.74,8.702,3.472,17.266,4.799,25.917c0.306,1.992-0.698,5.714,1.278,5.679c3.108-0.056,2.214-4.025,2.47-6.122
	C397.372,376.111,395.036,367.323,387.639,360.365z"/>
<path fill-rule="evenodd" clip-rule="evenodd" fill="#E94D58" d="M482.659,163.188c3.996-0.005,7.994-0.068,11.988,0.01
	c5.881,0.115,7.857,2.031,7.947,7.758c0.082,5.161,0.027,10.323,0.021,15.485c-0.006,4.213-2.215,6.93-6.31,6.768
	c-4.778-0.188-7.889,2.015-10.605,5.363c-2.065,2.545-4.02,2.586-6.103,0.052c-2.862-3.482-6.166-5.682-11.09-5.422
	c-3.828,0.202-6.196-2.254-6.267-6.269c-0.1-5.659-0.131-11.321-0.022-16.979c0.084-4.426,2.534-6.704,6.953-6.75
	C473.668,163.155,478.163,163.192,482.659,163.188z M476.817,171.335c-3.968-0.109-7.246,3.082-7.328,7.132
	c-0.085,4.206,2.86,7.333,6.975,7.406c4.641,0.082,7.157-2.335,7.273-6.984C483.839,174.803,480.762,171.444,476.817,171.335z
	 M489.612,182.323c2.688-1.923,4.973-4.558,3.938-7.864c-0.391-1.249-3.691-1.193-5.692,0.406
	C490.946,176.501,490.946,176.501,489.612,182.323z"/>
<path fill-rule="evenodd" clip-rule="evenodd" fill="#E94D58" d="M57.609,133.117c4.332-0.004,8.668-0.115,12.996,0.025
	c4.952,0.161,6.891,2.155,6.978,7.125c0.098,5.497,0.062,10.998,0.006,16.496c-0.04,4.001-2.204,6.54-6.133,6.326
	c-4.575-0.248-7.639,1.826-10.225,5.05c-2.293,2.859-4.435,3.168-6.831,0.208c-2.854-3.527-6.201-5.62-11.125-5.264
	c-3.697,0.268-5.757-2.203-5.771-6.026c-0.022-5.665,0.086-11.333-0.036-16.995c-0.101-4.65,2.309-6.771,6.645-6.909
	C48.608,133.009,53.11,133.121,57.609,133.117z M58.729,149.296c0.302-4.481-2.233-7.519-6.5-7.788
	c-4.293-0.271-7.439,2.505-7.637,6.739c-0.186,3.98,2.538,7.133,6.444,7.459C55.755,156.101,58.42,153.88,58.729,149.296z
	 M62.899,144.662c6.967,1.445-0.195,5.548,2.059,8.159c2.311-2.467,4.508-5.117,3.793-8.151
	C68.356,142.992,65.326,143.831,62.899,144.662z"/>
<path fill-rule="evenodd" clip-rule="evenodd" fill="#E94D58" d="M85.823,232.991c4.152,0,8.308-0.11,12.454,0.028
	c5.269,0.175,7.214,2.155,7.291,7.327c0.078,5.313,0.029,10.628,0.001,15.942c-0.021,3.841-1.676,6.838-5.751,6.565
	c-4.977-0.333-8.225,1.984-11.026,5.448c-2.271,2.807-4.33,2.589-6.368-0.092c-2.922-3.844-6.546-5.725-11.561-5.338
	c-3.698,0.285-5.33-2.38-5.38-5.781c-0.09-6.14-0.051-12.285,0.101-18.424c0.107-4.313,3.163-5.531,6.789-5.642
	C76.853,232.888,81.34,232.991,85.823,232.991z M85.678,254.769c0.094,0.015,0.188,0.029,0.282,0.043
	c-0.116,0.016-0.232,0.031-0.349,0.047c0.396-1.921,0.966-3.826,1.153-5.767c0.412-4.253-2.961-7.92-7.104-7.926
	c-4.05-0.005-7.215,3.25-7.175,7.378c0.042,4.423,3.37,7.49,7.82,7.09C82.108,255.473,83.888,255.065,85.678,254.769z
	 M91.294,244.17c-0.506,2.616,3.556,0.323,2.679,3.106c-0.514,1.63-2.257,2.894-1.432,5.399c2.987-2.15,4.673-5.137,4.229-8.136
	C96.557,243.099,93.161,243.672,91.294,244.17z"/>
<path fill-rule="evenodd" clip-rule="evenodd" fill="#E94D58" d="M410.675,175.187c-0.051-13.35-0.051-13.35,13.344-13.349
	c5.322,0,10.646,0.005,15.968,0.002c4.29-0.003,6.457,2.112,6.452,6.424c-0.005,4.823,0.031,9.647-0.008,14.47
	c-0.031,3.775-1.94,6.189-5.752,5.993c-3.762-0.194-6.427,1.266-8.586,4.023c-2.275,2.908-4.399,3.09-6.781,0.096
	c-2.283-2.871-5.102-4.381-9.056-4.128c-3.448,0.221-5.567-1.841-5.579-5.547C410.668,180.509,410.675,177.848,410.675,175.187z
	 M419.195,168.814c-2.661-0.022-4.299,1.292-4.586,4.018c-0.26,2.479,4.618,8.017,7.032,8.129c2.349,0.11,7.518-5.264,7.266-7.891
	C428.234,166.07,422.35,170.609,419.195,168.814z M434.348,175.107c1.64,0.718-0.844,4.247,2.489,4.165
	c2.581-0.064,3.695-1.984,3.645-4.384c-0.044-2.082-1.287-3.419-3.424-3.403C435.06,171.5,434.148,172.739,434.348,175.107z"/>
<path fill-rule="evenodd" clip-rule="evenodd" fill="#E94D58" d="M428.42,208.355c2.985,0,5.972,0.039,8.956-0.01
	c4.05-0.065,6.241,1.671,6.148,5.932c-0.079,3.647-0.038,7.297-0.011,10.946c0.028,3.646-1.671,5.717-5.388,5.563
	c-2.586-0.107-4.513,0.814-6.008,2.802c-2.416,3.212-4.747,3.033-7.069-0.095c-1.504-2.025-3.486-2.828-6.041-2.707
	c-3.705,0.175-5.452-1.742-5.369-5.481c0.085-3.813,0.083-7.63-0.015-11.443c-0.096-3.736,1.618-5.56,5.343-5.545
	c3.151,0.013,6.302,0.002,9.453,0.002C428.42,208.331,428.42,208.343,428.42,208.355z M436.128,219.375
	c-0.99,0.925-2.798,1.187-2.579,3.261c2.11,0.361,4.455,1.243,3.434-2.568c0.923-0.974,1.244-2.138,0.098-2.99
	c-1.061-0.788-2.386-1.044-3.237,0.471C434.253,218.721,436.551,217.283,436.128,219.375z M428.84,217.78
	c-0.551-5.896-5.354-2.517-8.078-3.475c-1.944-0.684-4.074,0.985-3.86,3.323c0.313,3.432,2.91,5.478,5.923,6.537
	C424.537,224.767,428.82,219.915,428.84,217.78z"/>
<path fill-rule="evenodd" clip-rule="evenodd" fill="#E94D58" d="M119.108,194.026c3.162-0.001,6.324-0.012,9.486,0.001
	c3.622,0.015,5.605,1.724,5.599,5.468c-0.008,3.994,0.035,7.989-0.024,11.983c-0.044,2.94-1.623,5-4.531,4.873
	c-3.408-0.149-5.711,1.268-7.699,3.674c-1.833,2.218-3.583,2.043-5.32-0.088c-2.007-2.463-4.437-3.705-7.773-3.582
	c-2.927,0.107-4.601-1.784-4.663-4.744c-0.087-4.159-0.092-8.322-0.009-12.481c0.07-3.476,2.066-5.084,5.448-5.1
	C112.784,194.016,115.946,194.027,119.108,194.026z M113.467,200.318c-2.885-0.66-5.545-0.878-5.759,3.097
	c-0.125,2.303,4.092,6.927,5.998,6.369c2.983-0.874,5.532-3.057,5.679-6.171C119.581,199.449,116.407,199.632,113.467,200.318z
	 M128.16,205.813c0.921-2.309,0.132-3.329-1.604-3.708c-0.817-0.179-1.627,0.054-2.044,0.941c3.713,1.622,0.293,2.837-0.196,4.265
	c-0.251,0.732,0.324,1.117,1.056,1.279C128.308,209.241,128.415,207.372,128.16,205.813z"/>
<path fill-rule="evenodd" clip-rule="evenodd" fill="#E94D58" d="M72.891,188.903c3.157,0.001,6.315,0.009,9.473,0
	c3.286-0.009,4.909,1.768,5.036,4.903c0.122,2.987,0.046,5.981,0.046,8.973c-0.001,7.01,0.004,7.049-7.093,8.412
	c-1.956,0.376-3.314,1.527-4.462,2.948c-2.085,2.584-4.166,3.167-6.372,0.249c-1.864-2.466-4.302-3.423-7.353-3.354
	c-3.042,0.069-4.561-1.604-4.558-4.654c0.005-4.155,0.013-8.31-0.009-12.464c-0.019-3.592,1.89-5.068,5.32-5.025
	C66.242,188.935,69.566,188.901,72.891,188.903z M66.86,195.008c-2.75-0.378-5.971-0.85-5.92,3.06
	c0.044,3.441,2.918,5.523,5.95,6.581c1.769,0.616,6.084-4.365,5.88-6.557C72.401,194.113,69.54,194.63,66.86,195.008z
	 M81.436,199.922c0.328-2.187-0.256-3.243-1.905-3.008c-3.357,0.478-0.692,1.579-0.268,2.588c0.14,0.333-0.612,1.079-1.012,1.594
	c-0.728,0.937-1.009,1.911,0.438,2.207c1.077,0.22,2.84,0.918,2.522-1.534C81.135,201.173,81.354,200.539,81.436,199.922z"/>
<path fill-rule="evenodd" clip-rule="evenodd" fill="#E94D58" d="M458.635,116.768c2.661,0.001,5.323-0.026,7.983,0.007
	c5.366,0.067,6.623,1.34,6.729,6.845c0.048,2.494,0.019,4.989,0.006,7.484c-0.032,6.705-1.06,5.533-6.802,8.56
	c-6.162,3.249-9.851,3.443-16.132,0.021c-6.069-3.307-6.94-1.748-6.919-9.19c0.041-14.414-1.814-13.82,13.638-13.728
	C457.638,116.769,458.136,116.766,458.635,116.768z M452.753,122.996c-4.658,0.024-6.036,0.704-6.087,3.002
	c-0.048,2.139,4.046,6.649,6.029,6.644c2.018-0.006,6.226-4.455,6.018-6.584C458.325,122.077,455.461,122.621,452.753,122.996z
	 M467.354,128.086c0.49-1.587,0.418-3.274-1.658-3.215c-3.259,0.093-1.304,1.367-0.465,2.505c0.142,0.192-0.834,1.245-1.334,1.866
	c-1.243,1.544-0.26,1.971,1.091,2.231C468.202,132.092,467.003,129.542,467.354,128.086z"/>
<path fill-rule="evenodd" clip-rule="evenodd" fill="#D68B71" d="M377.631,353.139c-0.808,0.744-1.784,0.684-2.771,0.581
	c1.022-7.364-0.817-13.195-8.487-15.95c-0.601-0.216-1.104-0.704-1.651-1.066c-7.474-10.201-8.521-21.041-3.23-32.512
	c0.648,4.883-0.918,9.653-0.013,14.697c1.807,10.054,8.889,18.372,18.9,19.508c4.858,0.551,9.788-0.9,14.243-3.223
	c1.021-0.532,1.885-1.35,3.129-1.328c-1.599,4.682-5.907,5.977-9.826,7.46c-7.735,2.929-7.79,2.784-7.448,11.515
	c-0.249-0.061-0.499-0.107-0.753-0.141c-0.441-3.171,0.955-6.607-1.359-10.301C376.827,346.398,377.521,349.789,377.631,353.139z"/>
<path fill-rule="evenodd" clip-rule="evenodd" fill="#D68B71" d="M360.729,367.813c2.46,4.168,0.172,8.611,0.693,12.986
	c1.875,15.711,16.568,24.409,30.938,17.695c2.084-0.975,3.964-2.456,6.365-2.686c-0.995,3.754-5.025,4.4-7.159,6.991
	c-5.913,1.739-12.317,2.04-17.483,5.971c0.438-1.739,1.287-3.75-1.143-4.584c-5.439-1.866-8.763-6.131-12.205-10.304
	c-2.867-7.094-2.257-14.49-1.902-21.865c0.868-0.91,0.77-2.084,0.878-3.203C360.05,368.48,360.39,368.146,360.729,367.813z"/>
<path fill-rule="evenodd" clip-rule="evenodd" fill="#E94D58" d="M161.581,280.908c-1.628,11.332-6.843,20.661-15.676,27.943
	c-0.252,0.207-0.876-0.035-1.326-0.066c2.404-7.672,4.611-15.413,7.276-22.992C153.914,279.941,155.352,279.444,161.581,280.908z"/>
<path fill-rule="evenodd" clip-rule="evenodd" fill="#D68B71" d="M398.68,395.854c0.077-0.977,0.331-1.812,1.519-1.892
	C399.69,394.594,399.186,395.224,398.68,395.854z"/>
<path fill-rule="evenodd" clip-rule="evenodd" fill="#D68B71" d="M397.695,333.869c0.359-1.011,1.039-1.702,2.056-2.057
	C399.497,332.928,399.064,333.867,397.695,333.869z"/>
<path fill-rule="evenodd" clip-rule="evenodd" fill="#1F1F1D" d="M360.735,393.883c3.442,4.173,6.766,8.438,12.205,10.304
	c2.43,0.834,1.58,2.845,1.143,4.584c-4.033,5.179-8.12,10.329-9.529,16.981c-6.508,5.242-13.944,7.063-22.267,7.043
	c-47.208-0.115-94.416,0.004-141.624,0.044c-5.737-5.922-10.61-12.735-17.738-17.226c-2.223-1.84-4.446-3.68-6.67-5.52
	c-0.883-4.399-1.766-8.799-2.648-13.199c0.018-20.381,0.034-40.76,0.051-61.139c1.518-10.834,3.896-21.618,2.082-32.657
	c-0.617-3.759-1.4-7.491-2.108-11.237c0.078-1.994,0.226-3.986,0.226-5.98c0.011-53.995,0.007-107.99,0.006-161.986
	c0-19.832-0.093-39.664,0.03-59.495c0.119-19.127,11.942-30.866,30.94-30.877c46.329-0.028,92.658-0.009,138.987-0.008
	c4.177,0,8.307,0.179,12.253,1.85c11.996,5.078,18.385,15.17,18.39,29.322c0.023,75.66,0.033,151.32,0.048,226.979
	c-3.595,1.549-6.72,3.834-9.776,6.227c-0.11-0.373-0.221-0.745-0.33-1.117c0.059-3.826,0.171-7.653,0.169-11.48
	c-0.026-52.489-0.067-104.979-0.104-157.469c0.08-14.48-0.006-28.964,0.342-43.437c0.104-4.311-0.906-5.588-5.429-5.575
	c-56.45,0.17-112.901,0.149-169.352,0.029c-4.002-0.009-5.394,0.854-5.389,5.167c0.123,101.744,0.091,203.487,0.142,305.23
	c0.001,1.49-0.941,3.335,0.932,4.497c0.322,0.081,0.644,0.233,0.966,0.233C244.699,393.949,302.717,393.916,360.735,393.883z
	 M280.734,412.07c0.005-6.731,0.005-6.731-6.407-6.751c-6.744-0.02-6.747-0.018-6.756,6.468c-0.009,6.703,0.166,6.89,6.467,6.904
	C280.588,418.706,280.729,418.565,280.734,412.07z M323.912,52.813c-2.296,0.122-3.872,1.254-4.112,3.499
	c-0.269,2.511,1.155,4.183,3.647,4.335c2.52,0.154,4.051-1.388,4.1-3.904C327.593,54.428,326.083,53.231,323.912,52.813z
	 M331.021,404.848c-3.234,2.242-7.674,3.895-7.32,7.381c0.269,2.658,3.657,5.389,8.151,6.393
	C324.012,414.151,326.046,409.664,331.021,404.848z M231.123,416.439c-4.205-2.117-10.269-1.908-13.297,0.369
	C222.555,417.554,226.822,417.516,231.123,416.439z M218.14,412.002c4.377,1.076,8.761,1.381,13.053-0.174
	C226.813,410.751,222.468,410.421,218.14,412.002z M218.16,407.782c4.333,0.888,8.667,1.422,12.998-0.289
	C226.824,406.54,222.491,406.086,218.16,407.782z M337.342,54.445c-1.318,0.175-2.138,0.911-2.079,2.251
	c0.059,1.323,0.9,2.097,2.24,2.081c1.579-0.018,2.419-0.866,2.271-2.488C339.642,54.825,338.552,54.533,337.342,54.445z"/>
<path fill-rule="evenodd" clip-rule="evenodd" fill="#7F7F7F" d="M374.511,291.666c-0.015-75.66-0.024-151.319-0.048-226.979
	c-0.005-14.152-6.394-24.245-18.39-29.322c-3.946-1.671-8.076-1.85-12.253-1.85c-46.329-0.001-92.658-0.02-138.987,0.008
	c-18.998,0.011-30.821,11.75-30.94,30.877c-0.123,19.831-0.03,39.663-0.03,59.495c0.001,53.996,0.005,107.991-0.006,161.986
	c0,1.994-0.147,3.986-0.226,5.98c-1.306-1.969-2.612-3.938-3.917-5.906c1.77-1.834,0.934-4.123,0.935-6.187
	c0.049-71.485,0.407-142.973-0.205-214.452c-0.163-19.013,13.815-35.814,35.678-35.584c45.485,0.478,90.982,0.445,136.469,0.013
	c21.747-0.207,35.437,16.854,35.289,35.452c-0.572,71.98-0.235,143.968-0.227,215.952c0.001,3.164,0.1,6.328,0.152,9.492
	C376.707,290.982,375.609,291.324,374.511,291.666z"/>
<path fill-rule="evenodd" clip-rule="evenodd" fill="#7F7F7F" d="M200.663,432.839c47.208-0.04,94.416-0.159,141.624-0.044
	c8.322,0.021,15.759-1.801,22.267-7.043c-0.11,1.697-0.22,3.394-0.328,5.092c-11.86,6.471-24.787,4.97-37.5,4.981
	c-41.291,0.037-82.582,0.037-123.872,0.051C202.123,434.864,201.394,433.852,200.663,432.839z"/>
<path fill-rule="evenodd" clip-rule="evenodd" fill="#514B46" d="M202.854,435.876c41.29-0.014,82.581-0.014,123.872-0.051
	c12.713-0.012,25.64,1.489,37.5-4.981c0.078,0.549,0.159,1.099,0.24,1.65c-0.948,0.807-1.896,1.611-2.845,2.417
	c-6.843,2.994-14.021,3.812-21.441,3.792c-35.498-0.093-70.996-0.045-106.494-0.032c-1.995,0-3.99,0.132-5.985,0.203
	c-7.364,0.017-14.729,0.033-22.093,0.05C204.001,438.529,203.031,437.561,202.854,435.876z"/>
<path fill-rule="evenodd" clip-rule="evenodd" fill="#7F7F7F" d="M173.657,335.756c-0.017,20.379-0.033,40.758-0.051,61.139
	c-2.063-2.365-2.308-5.56-3.738-8.214c1.327-1.392,0.798-3.132,0.805-4.728c0.043-9.585,0.093-19.172-0.03-28.755
	c-0.036-2.747,0.809-5.614-0.683-8.255C171.192,343.215,172.425,339.485,173.657,335.756z"/>
<path fill-rule="evenodd" clip-rule="evenodd" fill="#D68B71" d="M176.255,410.094c2.224,1.84,4.447,3.68,6.67,5.52
	c-4.48,4.799-7.911,10.597-13.699,14.155c-3.348,2.058-6.396,4.686-10.546,5.043l-0.028-0.033c0.139-2.092,1.764-2.95,3.188-4.103
	C168.598,425.204,174.164,418.854,176.255,410.094z"/>
<path fill-rule="evenodd" clip-rule="evenodd" fill="#D68B71" d="M160.224,371.91c0.833,1.279,1.667,2.558,2.501,3.836
	c-10.558,4.06-21.955,1.645-28.061-5.945l0.009-0.01c4.838,0.699,9.196,3.361,14.32,3.105
	C152.759,372.707,156.513,372.633,160.224,371.91z"/>
<path fill-rule="evenodd" clip-rule="evenodd" fill="#3E3F3C" d="M168.236,383.939c-0.006-10.633-0.011-21.266-0.018-31.896
	c0.58-1.697,1.16-3.397,1.74-5.099c1.492,2.64,0.647,5.507,0.684,8.254c0.123,9.583,0.073,19.17,0.03,28.755
	c-0.007,1.596,0.522,3.336-0.805,4.728C169.324,387.101,168.78,385.521,168.236,383.939z"/>
<path fill-rule="evenodd" clip-rule="evenodd" fill="#D68B71" d="M158.68,434.812c-0.34,0.231-0.68,0.464-1.021,0.695
	c-0.076-0.12-0.153-0.239-0.229-0.359c0.407-0.123,0.814-0.245,1.222-0.368C158.651,434.778,158.68,434.812,158.68,434.812z"/>
<path fill-rule="evenodd" clip-rule="evenodd" fill="#D68B71" d="M134.664,369.801c-0.126-0.071-0.252-0.143-0.378-0.215
	c0.129,0.068,0.258,0.137,0.387,0.206C134.673,369.791,134.664,369.801,134.664,369.801z"/>
<path fill-rule="evenodd" clip-rule="evenodd" fill="#D68B71" d="M361.621,434.911c0.948-0.806,1.896-1.61,2.845-2.417
	c0.111,3.32,0.645,6.599,1.959,9.631c3.324,7.672,9.988,10.878,18.13,8.867c2.716-0.671,5.399-1.476,8.098-2.219l0.045,0.052
	c-3.704,6.016-9.967,6.699-15.951,6.801c-6.033,0.103-10.119-3.958-12.598-9.155C362.448,442.905,361.216,439.035,361.621,434.911z"
	/>
<path fill-rule="evenodd" clip-rule="evenodd" fill="#E94D58" d="M390.854,407.83c6.734,5.429,8.802,16.294,4.517,25.482
	C394.095,424.056,393.116,415.854,390.854,407.83z"/>
<path fill-rule="evenodd" clip-rule="evenodd" fill="#2F2F2D" d="M259.103,481.669c0.51-0.54,0.63-1.22,0.689-1.92
	C259.732,480.459,259.612,481.14,259.103,481.669z"/>
<path fill-rule="evenodd" clip-rule="evenodd" fill="#D68B71" d="M392.652,448.773c0.462-0.757,1.187-0.974,2.013-0.981l0.009,0.009
	c-0.438,0.768-1.152,1.002-1.977,1.024L392.652,448.773z"/>
<path fill-rule="evenodd" clip-rule="evenodd" fill="#D68B71" d="M395.671,446.798c0.068-0.128,0.136-0.256,0.203-0.384
	c-0.068,0.127-0.138,0.254-0.206,0.382L395.671,446.798z"/>
<path fill-rule="evenodd" clip-rule="evenodd" fill="#D68B71" d="M395.668,446.796c-0.331,0.335-0.663,0.67-0.994,1.005
	l-0.009-0.009c0.335-0.331,0.671-0.663,1.006-0.994L395.668,446.796z"/>
<path fill-rule="evenodd" clip-rule="evenodd" fill="#FCFCFB" d="M364.404,296.775c0.109,0.372,0.22,0.744,0.33,1.117
	c-0.421,2.442-3.42,3.559-3.242,6.305c-5.291,11.465-4.244,22.305,3.229,32.507c0.021,7.971,0.042,15.94,0.063,23.909
	c-1.336,2.408-3.746,4.213-4.056,7.199c-0.339,0.334-0.679,0.668-1.018,1.002c-57.932-0.011-115.862-0.021-173.795-0.033
	c-0.014-26.29-0.027-52.58-0.04-78.869c56.317-0.036,112.635-0.072,168.953-0.107C362.622,289.801,362.622,289.805,364.404,296.775z
	 M197.644,308.725c0.298,0.519,0.596,1.037,0.894,1.557c0.31-0.283,0.858-0.545,0.886-0.854c0.121-1.354-0.921-1.463-1.909-1.566
	c-0.812-0.486-1.624-0.973-2.436-1.459c-1.009-1.445-2.378-2.909-1.156-4.768c0.972-1.48,2.551-0.79,3.979-0.69
	c1.579,0.11,3.18-0.096,4.771-0.165c0.128,0.235,0.17,0.485,0.127,0.749c-0.061,2.077-0.122,4.153-0.182,6.231
	c-0.055,0.143-0.109,0.285-0.164,0.43c0.084-0.115,0.167-0.23,0.25-0.346c1.77-1.648,3.971-3.154,1.993-6.04
	c-0.416-0.935-1.188-1.086-2.09-0.95c-1.176-0.535-2.315-1.186-3.537-1.583c-2.426-0.789-4.963-1.298-6.668,1.282
	c-1.828,2.768-0.62,4.971,1.701,6.799C194.956,308.654,196.019,309.414,197.644,308.725z M212.669,353.797
	c0.126,0.068,0.253,0.136,0.38,0.203C212.922,353.933,212.796,353.864,212.669,353.797c-0.48-1.629-0.419-3.869-2.937-3.62
	c-1.205,0.119-1.089,1.499-0.852,2.431C209.479,354.954,211.027,354.598,212.669,353.797z M257.659,336.838
	c-6.406-3.42-7.537-3.166-9.641,1.689c2.827,3.148,5.795-1.367,8.837,0.41c1.604,0.264,3.202,0.672,4.814,0.736
	c1.007,0.041,2.59,0.479,2.788-1.18c0.172-1.438,0.367-3.213-0.306-4.315c-0.691-1.133-2.46-0.267-3.527,0.198
	C259.493,334.868,258.636,335.991,257.659,336.838z M208.748,321.846c-1.948,0.855-4.483-1.438-6.11,1.139
	c-2.257-3.632-4.295,0.1-6.295-0.328c1.289,1.115,3.767-0.705,4.149,1.934c0.176,1.214-1.344,2.186-3.629,1.844
	c2.271-0.707,4.366,1.816,5.681-0.736c2.825,0.725,5.427,3.109,8.613,1.161c2.67-0.527,2.334-2.486,1.686-4.169
	C212.039,320.601,210.348,321.033,208.748,321.846z M220.666,298.766c-2.798-1.543-3.547,0.41-4.228,2.478
	c-3.188,0.691-2.405,3.081-1.949,5.05c0.571,2.471,2.493,4.07,4.896,4.207c2.038,0.114,4.986,0.006,6.03-1.252
	C228.331,305.74,225.627,300.307,220.666,298.766z M308.539,332.476c0-0.021,0-0.042,0-0.063c-3.997,0-7.995-0.03-11.991,0.009
	c-3.786,0.037-5.954,1.875-5.993,5.777c-0.05,4.996-0.014,9.994-0.007,14.992c0.004,3.591,1.757,6.006,5.375,5.734
	c4.405-0.331,7.295,1.697,9.828,4.77c2.06,2.497,3.997,2.604,6.084,0.018c2.513-3.116,5.519-4.986,9.84-4.83
	c3.475,0.125,4.875-2.488,4.92-5.695c0.07-4.996,0.094-9.996-0.028-14.99c-0.093-3.809-2.176-5.751-6.043-5.728
	C316.528,332.494,312.533,332.476,308.539,332.476z M356.782,310.57c0-3.783,0.05-6.711-0.013-9.637
	c-0.085-3.979-3.171-1.951-4.845-2.086c-1.521-0.121-4.353-1.532-4.33,2.098c0.019,2.924,0.004,5.848,0.004,10.816
	C350.83,306.753,353.569,308.153,356.782,310.57z M239.864,309.735c2.247-0.554,3.589-1.983,4.604-3.669
	c1.222-2.031,4.644-3.948,3.113-6.119c-1.54-2.186-5.241-1.277-7.965-1.029c-1.808,0.164-3.696,1.409-1.33,3.418
	C240.688,304.375,239.316,306.98,239.864,309.735z M217.156,339.123c1.8-0.427,3.164-4.392,4.11-1.44
	c0.905,2.822,2.516,2.007,3.697,2.015c1.85,0.012,4.335,0.787,5.16-2.202c0.354-1.287,1.809,3.933,2.076-0.174
	c0.142-2.171-1.622-1.718-3.005-1.68c-3.371,0.092-6.768,0.403-10.107,0.103C215.985,335.464,216.896,337.135,217.156,339.123z
	 M210.166,336.117c-4.062-1.342-4.062-1.342-15.633,3.427C199.631,338.027,205.84,342.332,210.166,336.117z M202.716,354.555
	c-0.967-2.164-0.586-3.991-2.43-4.488c-1.794-0.485-1.279,2.404-2.78,2.123c-1.2-0.225-1.256-3.378-3.162-1.735
	c-1.24,1.069-0.854,2.549,1.036,3.398C197.632,354.863,199.832,353.7,202.716,354.555z M220.835,325.709
	c-0.1-2.503-0.117-4.444-2.339-4.5c-1.59-0.041-2.73,1.091-2.672,2.922c0.054,1.703,0.114,3.363,2.488,3.501
	C220.375,327.752,220.904,326.655,220.835,325.709z M218.822,349.779c-2.971-0.937-1.677,2.293-2.592,3.461
	c-0.639,0.814,0.594,1.68,1.276,1.291c1.67-0.951,4.817,0.319,4.966-2.827C222.576,349.531,220.598,349.922,218.822,349.779z
	 M238.998,334.563c-1.362,0.139-2.392,0.799-2.511,2.387c-0.118,1.569,0.767,2.51,2.217,2.805c1.911,0.389,2.124-1.27,2.456-2.439
	C241.616,335.71,240.648,334.883,238.998,334.563z M230.543,351.306c0.038-0.468-0.394-1.213-1.339-1.232
	c-1.463-0.03-1.928,1.198-2.071,2.328c-0.128,1.013,0.739,1.323,1.65,1.288C229.989,353.643,230.54,352.97,230.543,351.306z
	 M227.867,323.254c0.427,0.262,0.842,0.465,1.195,0.746c0.847,0.671,1.88,1.32,1.352-0.551
	C230.157,322.541,228.868,322.545,227.867,323.254z"/>
<path fill-rule="evenodd" clip-rule="evenodd" fill="#E94D58" d="M395.268,327.207c-2.706-10.575-5.032-21.24-9.471-31.9
	C394.681,299.197,399.468,315.304,395.268,327.207z"/>
<path fill-rule="evenodd" clip-rule="evenodd" fill="#21221F" d="M364.784,360.613c-0.021-7.969-0.042-15.938-0.063-23.909
	c0.549,0.361,1.052,0.85,1.652,1.065c7.67,2.755,9.51,8.586,8.487,15.95C371.419,355.895,367.675,357.631,364.784,360.613z"/>
<path fill-rule="evenodd" clip-rule="evenodd" fill="#E94D58" d="M387.639,360.365c7.397,6.958,9.733,15.746,8.547,25.474
	c-0.256,2.097,0.639,6.066-2.47,6.122c-1.977,0.035-0.973-3.687-1.278-5.679C391.11,377.631,389.379,369.067,387.639,360.365z"/>
<path fill-rule="evenodd" clip-rule="evenodd" fill="#3E3F3C" d="M377.631,353.139c-0.11-3.35-0.804-6.74,0.733-10.76
	c2.314,3.693,0.918,7.13,1.359,10.301C379.026,352.832,378.328,352.985,377.631,353.139z"/>
<path fill-rule="evenodd" clip-rule="evenodd" fill="#F9F5F4" d="M476.817,171.335c3.944,0.108,7.021,3.468,6.92,7.554
	c-0.116,4.649-2.633,7.066-7.273,6.984c-4.114-0.073-7.06-3.201-6.975-7.406C469.571,174.417,472.85,171.227,476.817,171.335z"/>
<path fill-rule="evenodd" clip-rule="evenodd" fill="#F2C7C8" d="M489.612,182.323c1.334-5.822,1.334-5.822-1.754-7.458
	c2.001-1.599,5.302-1.654,5.692-0.406C494.585,177.765,492.3,180.4,489.612,182.323z"/>
<path fill-rule="evenodd" clip-rule="evenodd" fill="#F9F5F4" d="M58.729,149.296c-0.309,4.584-2.974,6.805-7.692,6.411
	c-3.906-0.326-6.629-3.479-6.444-7.459c0.198-4.233,3.344-7.01,7.637-6.739C56.496,141.777,59.03,144.814,58.729,149.296z"/>
<path fill-rule="evenodd" clip-rule="evenodd" fill="#F2C7C8" d="M62.899,144.662c2.427-0.831,5.458-1.67,5.852,0.008
	c0.715,3.034-1.482,5.684-3.793,8.151C62.704,150.21,69.866,146.106,62.899,144.662z"/>
<path fill-rule="evenodd" clip-rule="evenodd" fill="#F9F5F4" d="M85.677,254.77c-1.789,0.296-3.568,0.703-5.37,0.865
	c-4.45,0.4-7.778-2.667-7.82-7.09c-0.04-4.128,3.125-7.383,7.175-7.378c4.143,0.006,7.516,3.673,7.104,7.926
	c-0.188,1.941-0.757,3.846-1.153,5.767L85.677,254.77z"/>
<path fill-rule="evenodd" clip-rule="evenodd" fill="#F2C7C8" d="M91.294,244.17c1.867-0.498,5.263-1.072,5.476,0.37
	c0.444,2.999-1.241,5.986-4.229,8.136c-0.825-2.505,0.918-3.77,1.432-5.399C94.85,244.493,90.788,246.787,91.294,244.17z"/>
<path fill-rule="evenodd" clip-rule="evenodd" fill="#F9F5F4" d="M85.611,254.859c0.116-0.016,0.232-0.031,0.349-0.047
	c-0.095-0.015-0.188-0.029-0.282-0.043C85.677,254.77,85.611,254.859,85.611,254.859z"/>
<path fill-rule="evenodd" clip-rule="evenodd" fill="#F9F5F4" d="M419.195,168.814c3.154,1.795,9.039-2.745,9.712,4.257
	c0.252,2.626-4.917,8-7.266,7.891c-2.414-0.112-7.292-5.65-7.032-8.129C414.896,170.106,416.534,168.792,419.195,168.814z"/>
<path fill-rule="evenodd" clip-rule="evenodd" fill="#F2C7C8" d="M434.348,175.107c-0.199-2.368,0.712-3.607,2.71-3.623
	c2.137-0.016,3.38,1.322,3.424,3.403c0.051,2.4-1.063,4.319-3.645,4.384C433.504,179.354,435.987,175.825,434.348,175.107z"/>
<path fill-rule="evenodd" clip-rule="evenodd" fill="#F9F5F4" d="M428.84,217.781c-0.02,2.134-4.303,6.986-6.016,6.384
	c-3.013-1.059-5.61-3.105-5.923-6.537c-0.214-2.338,1.916-4.006,3.86-3.323C423.486,215.264,428.289,211.884,428.84,217.781z"/>
<path fill-rule="evenodd" clip-rule="evenodd" fill="#F2C7C8" d="M436.984,220.069c1.02,3.81-1.325,2.928-3.436,2.567
	c-0.219-2.074,1.589-2.336,2.579-3.261C436.413,219.606,436.699,219.837,436.984,220.069z"/>
<path fill-rule="evenodd" clip-rule="evenodd" fill="#F2C7C8" d="M436.128,219.375c0.423-2.092-1.875-0.653-2.285-1.826
	c0.852-1.515,2.177-1.259,3.237-0.471c1.146,0.852,0.825,2.016-0.097,2.991C436.699,219.837,436.413,219.606,436.128,219.375z"/>
<path fill-rule="evenodd" clip-rule="evenodd" fill="#F9F5F4" d="M113.467,200.318c2.94-0.686,6.114-0.869,5.918,3.295
	c-0.146,3.114-2.695,5.297-5.679,6.171c-1.906,0.558-6.123-4.066-5.998-6.369C107.922,199.439,110.582,199.658,113.467,200.318z"/>
<path fill-rule="evenodd" clip-rule="evenodd" fill="#F2C7C8" d="M128.16,205.813c0.255,1.559,0.147,3.429-2.788,2.778
	c-0.731-0.163-1.307-0.547-1.056-1.279c0.489-1.427,3.909-2.643,0.196-4.265c0.417-0.887,1.227-1.12,2.044-0.941
	C128.292,202.484,129.081,203.504,128.16,205.813z"/>
<path fill-rule="evenodd" clip-rule="evenodd" fill="#F9F5F4" d="M66.86,195.008c2.68-0.378,5.541-0.895,5.91,3.083
	c0.204,2.192-4.111,7.173-5.88,6.557c-3.032-1.057-5.906-3.139-5.95-6.581C60.89,194.159,64.11,194.63,66.86,195.008z"/>
<path fill-rule="evenodd" clip-rule="evenodd" fill="#F2C7C8" d="M81.436,199.922c-0.082,0.617-0.301,1.25-0.224,1.847
	c0.317,2.452-1.445,1.754-2.522,1.534c-1.447-0.296-1.166-1.27-0.438-2.207c0.399-0.515,1.151-1.261,1.012-1.594
	c-0.425-1.009-3.09-2.11,0.268-2.588C81.18,196.68,81.764,197.736,81.436,199.922z"/>
<path fill-rule="evenodd" clip-rule="evenodd" fill="#F9F5F4" d="M452.75,123.001c2.711-0.381,5.575-0.924,5.963,3.056
	c0.208,2.13-4,6.579-6.018,6.584c-1.983,0.005-6.077-4.504-6.029-6.644C446.717,123.7,448.095,123.02,452.75,123.001z"/>
<path fill-rule="evenodd" clip-rule="evenodd" fill="#F2C7C8" d="M467.354,128.086c-0.352,1.456,0.848,4.006-2.366,3.387
	c-1.351-0.26-2.334-0.687-1.091-2.231c0.5-0.621,1.476-1.673,1.334-1.866c-0.839-1.138-2.794-2.412,0.465-2.505
	C467.772,124.813,467.845,126.5,467.354,128.086z"/>
<path fill-rule="evenodd" clip-rule="evenodd" fill="#FCFCFB" d="M360.735,393.883c-58.019,0.033-116.036,0.066-174.055,0.088
	c-0.322,0-0.644-0.152-0.966-0.233c0.065-7.642,0.132-15.283,0.197-22.925c55.769-0.005,111.538-0.016,167.307,0.011
	c1.916,0.001,4.056-0.653,5.614,1.194C358.479,379.393,357.868,386.789,360.735,393.883z M241.639,376.778l0.045,0.032
	c-2.852-2.261-4.719-0.492-5.674,1.898c-0.973,2.438,0.344,4.6,2.815,5.413c1.811,0.597,3.84,0.53,5.773,0.758
	c0.192,0.127,0.386,0.254,0.579,0.382c-0.131-0.189-0.261-0.38-0.392-0.569C243.661,382.084,246.522,377.891,241.639,376.778z
	 M279.666,380.824c0.585-4.072-1.519-5.117-5.194-5.113c-3.593,0.004-4.955,1.33-4.979,4.957c-0.024,3.726,1.11,5.382,5.083,5.333
	C278.339,385.954,280.26,384.781,279.666,380.824z M309.457,375.92c-3.677-0.136-6.848-0.697-6.755,3.396
	c0.077,3.396,2.549,5.464,5.518,6.31c2.377,0.677,6.575-3.929,6.339-6.654C314.197,374.802,310.944,376.02,309.457,375.92z
	 M212.26,383.369c0.011-2.394-3.815-7.508-5.573-7.447c-2.008,0.067-5.739,5.461-5.535,8.001c0.09,1.122-0.182,2.512,1.532,2.608
	c1.332,0.074,2.769,0.141,2.886-1.821c0.049-0.811,0.021-1.768,1.152-1.854c1.2-0.091,1.208,0.906,1.265,1.692
	c0.13,1.811,1.296,2.217,2.766,1.988C212.687,386.237,212.129,384.607,212.26,383.369z M342.733,386.682c0,0.007,0,0.014,0,0.021
	c0.661,0,1.33,0.066,1.98-0.014c1.362-0.169,3.289,0.608,3.68-1.492c0.404-2.169-1.315-2.995-3.001-3.137
	c-3.252-0.273-0.946-1.755-0.743-2.788c0.234-1.189,0.252-2.385-0.875-3.111c-0.886-0.571-1.963-0.479-2.821,0.109
	c-1.058,0.725-1.624,1.936-0.866,3.012c1.624,2.31,0.182,2.533-1.605,2.954c-1.236,0.291-1.816,1.355-1.707,2.673
	c0.131,1.558,1.276,1.74,2.49,1.768C340.42,386.702,341.577,386.682,342.733,386.682z"/>
<path fill-rule="evenodd" clip-rule="evenodd" fill="#F9F5F4" d="M358.833,372.018c-1.559-1.848-3.698-1.193-5.614-1.194
	c-55.769-0.026-111.538-0.016-167.308-0.011c0.001-0.678,0.004-1.354,0.006-2.031c57.932,0.012,115.862,0.022,173.794,0.033
	C359.603,369.934,359.701,371.107,358.833,372.018z"/>
<path fill-rule="evenodd" clip-rule="evenodd" fill="#CCE6E9" d="M364.404,296.775c-1.782-6.971-1.782-6.975-9.575-6.971
	c-56.318,0.035-112.636,0.071-168.954,0.106c-0.051-28.121-0.139-56.241-0.139-84.361c0-25.957,0.094-51.914,0.146-77.871
	c59.242,0.031,118.484,0.062,177.727,0.093c0.286,0.028,0.572,0.045,0.86,0.053c0.037,52.49,0.078,104.98,0.104,157.469
	C364.575,289.122,364.463,292.949,364.404,296.775z M264.46,148.45c-2.338,1.119-4.043,2.803-4.774,5.354
	c-6.335,7.193-12.669,14.386-19.003,21.58c-1.959-0.196-3.973-0.78-5.865-0.51c-4.679,0.667-10.555,1.327-12.465,5.486
	c-2.402,5.228-4.146,11.559-0.689,17.523c-9.389,10.946-18.81,21.865-28.142,32.859c-2.233,2.631-2.426,5.671,0.357,7.946
	c2.734,2.236,5.579,1.549,7.91-1.078c9.47-10.675,18.938-21.351,28.403-32.023c2.643,0.074,5.346,0.538,7.914,0.137
	c4.608-0.719,9.327-2.146,11.309-6.814c2.146-5.059,2.982-10.49,0.249-15.795c6.319-7.135,12.638-14.27,18.957-21.405
	c2.205-0.925,3.68-2.463,4.105-4.883c1.058-1.169,2.116-2.339,3.174-3.509c1.766-1.93,3.599-3.803,5.271-5.81
	c1.084-1.301,3.33-2.771,1.979-4.474c-1.983-2.5-4.099-5.477-7.372-6.185c-2.328-0.503-3.577,1.753-4.135,3.966l0.041-0.041
	c-2.142,0.991-3.341,2.923-4.701,4.702C266.142,146.467,265.301,147.458,264.46,148.45z M305.417,171.908
	c1.312-3.758,2.764-7.475,3.87-11.292c0.504-1.741,2.784-3.754,0.774-5.35c-1.725-1.37-4.158-0.27-6.207,0.405
	c-2.03,0.668-3.313,2.081-3.987,4.119c-0.99,2.988-2.057,5.951-3.091,8.925c-2.093,1.268-2.082,3.692-2.824,5.597
	c-1.771,4.548-2.846,9.41-7.089,12.537c-1.839,4.954-3.639,9.924-5.524,14.86c-4.646,12.161-4.648,12.113,7.494,16.084
	c2.134,0.698,3.182,0.482,3.977-1.853c2.398-7.042,5.106-13.978,7.571-20.997c0.566-1.611,1.571-3.393,0.041-5.097
	c0.326-3.105,1.243-6.034,2.245-8.993C303.665,177.91,305.484,175.184,305.417,171.908z M264.881,231.833
	c-5.872-0.129-11.574,1.011-17.285,2.193c-2.419,0.501-3.182,1.729-3.003,4.124c0.988,13.21,6.09,24.457,15.846,33.48
	c0.977,0.903,2.494,1.191,3.769,0.445c2.27-1.328,4.746-1.127,7.207-1.395c6.874-0.748,12.268-4.037,15.621-10.189
	c1.181-2.166,1.998-4.547,2.817-6.887c0.805-2.297,1.666-4.571,4.557-4.504c2.59,0.06,3.539,2.05,4.189,4.271
	c0.512,1.745,1.231,3.431,1.887,5.132c4.292,11.141,14.676,11.46,24.074,13.698c4.986,1.187,5.295-3.703,7.657-5.666
	c9.16-7.61,10.447-18.675,11.689-29.615c0.198-1.74-0.828-2.319-2.259-2.659c-13.387-3.181-26.713-4.614-39.14,3.101
	c-5.804,3.603-11.05,3.553-16.69-0.148C279.503,233.07,272.358,231.68,264.881,231.833z M319.482,173.948
	c-5.574,0.065-8.882,5.948-5.893,11.184c5.178,9.068,10.211,18.296,16.319,26.722c3.22,4.44,6.063-1.659,9.115-2.694
	c1.554-0.527,5.574-0.938,3.035-4.979c-5.383-8.567-10.485-17.31-15.741-25.957C324.775,175.685,322.654,173.944,319.482,173.948z"
	/>
<path fill-rule="evenodd" clip-rule="evenodd" fill="#B9B7B6" d="M185.882,127.68c-0.052,25.957-0.146,51.914-0.146,77.871
	c0,28.12,0.088,56.24,0.139,84.361c0.014,26.29,0.027,52.58,0.041,78.87c-0.001,0.678-0.004,1.354-0.005,2.031
	c-0.064,7.642-0.131,15.283-0.196,22.925c-1.873-1.162-0.931-3.007-0.932-4.497c-0.051-101.743-0.019-203.487-0.142-305.23
	c-0.005-4.313,1.387-5.175,5.389-5.167c56.45,0.12,112.901,0.141,169.352-0.029c4.522-0.013,5.532,1.264,5.429,5.575
	c-0.348,14.473-0.262,28.957-0.342,43.437c-0.288-0.008-0.574-0.026-0.86-0.054c0.044-6.32-0.145-12.655,0.211-18.958
	c0.243-4.298-1.438-5.263-5.453-5.244c-30.448,0.144-60.896,0.078-91.346,0.078c-25.291,0-50.582,0.113-75.871-0.104
	c-4.515-0.039-5.769,1.356-5.501,5.678C186.028,115.356,185.832,121.525,185.882,127.68z M274.631,79.901
	c-27.984,0-55.969,0.076-83.952-0.087c-3.946-0.023-5.328,1.064-5.02,5.031c0.323,4.139,0.41,8.358-0.016,12.478
	c-0.501,4.856,1.564,5.734,5.944,5.722c48.472-0.134,96.944-0.084,145.417-0.084c7.496,0,14.994-0.125,22.486,0.054
	c3.287,0.079,4.438-1.118,4.3-4.349c-0.192-4.489-0.291-9.01,0.032-13.485c0.295-4.096-0.998-5.403-5.24-5.375
	C330.6,79.99,302.614,79.902,274.631,79.901z"/>
<path fill-rule="evenodd" clip-rule="evenodd" fill="#B9B7B6" d="M280.734,412.07c-0.005,6.495-0.146,6.636-6.696,6.621
	c-6.301-0.015-6.476-0.201-6.467-6.904c0.009-6.485,0.012-6.487,6.756-6.468C280.739,405.339,280.739,405.339,280.734,412.07z
	 M278.738,412.095c0.935-4.069-0.93-4.961-4.74-5.033c-3.961-0.076-4.485,1.482-4.56,4.921c-0.081,3.733,1.032,4.826,4.739,4.721
	C277.606,416.605,279.785,416.172,278.738,412.095z"/>
<path fill-rule="evenodd" clip-rule="evenodd" fill="#3E3F3C" d="M323.912,52.813c2.171,0.418,3.681,1.615,3.635,3.931
	c-0.049,2.516-1.58,4.058-4.1,3.904c-2.492-0.152-3.916-1.824-3.647-4.335C320.04,54.067,321.616,52.935,323.912,52.813z"/>
<path fill-rule="evenodd" clip-rule="evenodd" fill="#B9B7B6" d="M331.021,404.848c-4.975,4.816-7.009,9.304,0.831,13.773
	c-4.494-1.004-7.883-3.734-8.151-6.393C323.347,408.742,327.786,407.09,331.021,404.848z"/>
<path fill-rule="evenodd" clip-rule="evenodd" fill="#B9B7B6" d="M231.123,416.439c-4.301,1.076-8.568,1.114-13.297,0.369
	C220.854,414.531,226.918,414.322,231.123,416.439z"/>
<path fill-rule="evenodd" clip-rule="evenodd" fill="#B9B7B6" d="M218.14,412.002c4.328-1.581,8.673-1.251,13.053-0.174
	C226.9,413.383,222.517,413.078,218.14,412.002z"/>
<path fill-rule="evenodd" clip-rule="evenodd" fill="#B9B7B6" d="M218.16,407.782c4.331-1.696,8.664-1.242,12.998-0.289
	C226.827,409.204,222.493,408.67,218.16,407.782z"/>
<path fill-rule="evenodd" clip-rule="evenodd" fill="#CCE6E9" d="M337.346,54.439c1.206,0.093,2.296,0.385,2.429,1.85
	c0.147,1.622-0.692,2.47-2.271,2.488c-1.34,0.016-2.182-0.758-2.24-2.081C335.204,55.356,336.023,54.62,337.346,54.439z"/>
<path fill-rule="evenodd" clip-rule="evenodd" fill="#E94D58" d="M308.539,332.476c3.994,0,7.989,0.019,11.984-0.006
	c3.867-0.023,5.95,1.919,6.043,5.728c0.122,4.994,0.099,9.994,0.028,14.99c-0.045,3.207-1.445,5.82-4.92,5.695
	c-4.321-0.156-7.327,1.714-9.84,4.83c-2.087,2.587-4.024,2.479-6.084-0.018c-2.533-3.072-5.423-5.101-9.828-4.77
	c-3.618,0.271-5.371-2.144-5.375-5.734c-0.007-4.998-0.043-9.996,0.007-14.992c0.039-3.902,2.207-5.74,5.993-5.777
	c3.996-0.039,7.994-0.009,11.991-0.009C308.539,332.434,308.539,332.455,308.539,332.476z M299.205,339.275
	c-2.738,0.209-4.498,1.37-4.489,4.313c0.006,2.233,4.827,7.758,6.904,7.964c2.211,0.219,7.545-5.37,7.312-7.979
	C308.287,336.354,302.163,341.322,299.205,339.275z M317.264,341.877c-1.257-0.002-2.259,0.426-2.819,1.635
	c-0.476,1.029-0.296,2.021,0.481,2.731c0.787,0.719,3.073,0.942,0.28,2.21c-0.574,0.261,0.177,1.107,0.877,1.271
	c1.466,0.342,2.614-0.241,3.482-1.369c0.977-1.269,1.203-2.668,0.621-4.214C319.663,342.756,318.784,341.928,317.264,341.877z"/>
<path fill-rule="evenodd" clip-rule="evenodd" fill="#1F1F1D" d="M356.782,310.57c-3.213-2.417-5.952-3.817-9.184,1.191
	c0-4.969,0.015-7.893-0.004-10.816c-0.022-3.63,2.81-2.219,4.33-2.098c1.674,0.135,4.76-1.893,4.845,2.086
	C356.832,303.859,356.782,306.787,356.782,310.57z"/>
<path fill-rule="evenodd" clip-rule="evenodd" fill="#7F7F7F" d="M239.864,309.735c-0.548-2.755,0.823-5.36-1.578-7.399
	c-2.366-2.009-0.478-3.254,1.33-3.418c2.724-0.248,6.425-1.156,7.965,1.029c1.53,2.171-1.892,4.088-3.113,6.119
	C243.453,307.752,242.111,309.182,239.864,309.735z"/>
<path fill-rule="evenodd" clip-rule="evenodd" fill="#F9F5F4" d="M216.438,301.243c0.681-2.067,1.43-4.021,4.227-2.478
	c0.249,1.625,2.031,1.514,2.847,2.516c1.566,1.928,1.581,4.025,0.443,6.045c-1.049,1.863-2.925,1.994-4.828,1.572
	c-2.259-0.503-3.471-1.953-3.372-4.269C215.804,303.494,216.199,302.371,216.438,301.243z"/>
<path fill-rule="evenodd" clip-rule="evenodd" fill="#768588" d="M217.156,339.123c-0.261-1.988-1.171-3.659,1.932-3.379
	c3.34,0.301,6.736-0.011,10.107-0.103c1.383-0.038,3.146-0.491,3.005,1.68c-0.268,4.106-1.722-1.113-2.076,0.174
	c-0.825,2.989-3.311,2.214-5.16,2.202c-1.182-0.008-2.792,0.808-3.697-2.015C220.32,334.731,218.956,338.696,217.156,339.123z"/>
<path fill-rule="evenodd" clip-rule="evenodd" fill="#7F7F7F" d="M210.166,336.117c-4.326,6.215-10.535,1.91-15.633,3.427
	C206.104,334.775,206.104,334.775,210.166,336.117z"/>
<path fill-rule="evenodd" clip-rule="evenodd" fill="#514B46" d="M216.438,301.243c-0.239,1.128-0.635,2.251-0.684,3.387
	c-0.099,2.315,1.113,3.766,3.372,4.269c1.903,0.422,3.779,0.291,4.828-1.572c1.138-2.02,1.123-4.117-0.443-6.045
	c-0.815-1.002-2.598-0.891-2.847-2.516c4.962,1.541,7.666,6.975,4.751,10.482c-1.044,1.258-3.992,1.366-6.03,1.252
	c-2.403-0.137-4.325-1.736-4.896-4.207C214.033,304.324,213.251,301.935,216.438,301.243z"/>
<path fill-rule="evenodd" clip-rule="evenodd" fill="#B9B7B6" d="M202.638,322.984c1.627-2.577,4.162-0.283,6.11-1.139
	c-1.713,2.881,3.502,2.431,2.409,5.013c-3.187,1.948-5.788-0.437-8.613-1.161C202.575,324.793,202.606,323.889,202.638,322.984z"/>
<path fill-rule="evenodd" clip-rule="evenodd" fill="#B9B7B6" d="M257.659,336.838c0.977-0.847,1.834-1.97,2.966-2.461
	c1.067-0.465,2.836-1.331,3.527-0.198c0.673,1.103,0.478,2.878,0.306,4.315c-0.198,1.658-1.781,1.221-2.788,1.18
	c-1.612-0.064-3.211-0.473-4.815-0.736C257.123,338.238,257.391,337.538,257.659,336.838z"/>
<path fill-rule="evenodd" clip-rule="evenodd" fill="#7F7F7F" d="M257.659,336.838c-0.269,0.7-0.536,1.4-0.805,2.1
	c-3.041-1.777-6.009,2.738-8.836-0.41C250.122,333.672,251.253,333.418,257.659,336.838z"/>
<path fill-rule="evenodd" clip-rule="evenodd" fill="#514B46" d="M202.638,322.984c-0.031,0.904-0.063,1.809-0.094,2.713
	c-1.314,2.553-3.409,0.029-5.681,0.736c2.285,0.342,3.805-0.63,3.629-1.844c-0.383-2.639-2.86-0.818-4.149-1.934
	C198.343,323.084,200.381,319.353,202.638,322.984z"/>
<path fill-rule="evenodd" clip-rule="evenodd" fill="#CCE6E9" d="M202.716,354.555c-2.884-0.854-5.084,0.309-7.336-0.702
	c-1.891-0.85-2.276-2.329-1.036-3.398c1.906-1.643,1.962,1.511,3.162,1.735c1.501,0.281,0.986-2.608,2.78-2.123
	C202.13,350.563,201.749,352.391,202.716,354.555z"/>
<path fill-rule="evenodd" clip-rule="evenodd" fill="#B9B7B6" d="M220.835,325.709c0.069,0.946-0.46,2.043-2.522,1.923
	c-2.374-0.138-2.435-1.798-2.488-3.501c-0.059-1.831,1.082-2.963,2.672-2.922C220.718,321.265,220.735,323.206,220.835,325.709z"/>
<path fill-rule="evenodd" clip-rule="evenodd" fill="#7F7F7F" d="M202.672,300.781c-1.591,0.067-3.191,0.273-4.771,0.163
	c-1.429-0.1-3.008-0.79-3.979,0.69c-1.222,1.858,0.147,3.322,1.156,4.768c-0.325,0.316-0.65,0.635-0.976,0.951
	c-2.32-1.83-3.528-4.033-1.7-6.801c1.705-2.58,4.242-2.071,6.668-1.282c1.222,0.397,2.361,1.048,3.538,1.583
	C202.609,300.854,202.672,300.781,202.672,300.781z"/>
<path fill-rule="evenodd" clip-rule="evenodd" fill="#CCE6E9" d="M218.822,349.779c1.775,0.143,3.754-0.248,3.65,1.925
	c-0.148,3.146-3.296,1.876-4.966,2.827c-0.683,0.389-1.915-0.477-1.276-1.291C217.146,352.072,215.852,348.843,218.822,349.779z"/>
<path fill-rule="evenodd" clip-rule="evenodd" fill="#7F7F7F" d="M238.998,334.563c1.65,0.32,2.618,1.147,2.162,2.752
	c-0.332,1.17-0.545,2.828-2.456,2.439c-1.45-0.295-2.335-1.235-2.217-2.805C236.606,335.361,237.636,334.701,238.998,334.563z"/>
<path fill-rule="evenodd" clip-rule="evenodd" fill="#514B46" d="M211.157,326.858c1.093-2.582-4.122-2.132-2.409-5.013
	c1.6-0.813,3.291-1.245,4.095,0.844C213.491,324.372,213.827,326.331,211.157,326.858z"/>
<path fill-rule="evenodd" clip-rule="evenodd" fill="#CCE6E9" d="M212.669,353.797c-1.642,0.801-3.19,1.157-3.788-1.189
	c-0.237-0.932-0.354-2.312,0.852-2.431C212.25,349.928,212.188,352.168,212.669,353.797L212.669,353.797z"/>
<path fill-rule="evenodd" clip-rule="evenodd" fill="#F9F5F4" d="M204.697,301.804c1.978,2.886-0.224,4.392-1.993,6.04l-0.087-0.085
	c0.061-2.077,0.122-4.153,0.183-6.23C203.432,301.621,204.064,301.712,204.697,301.804z"/>
<path fill-rule="evenodd" clip-rule="evenodd" fill="#CCE6E9" d="M230.543,351.306c-0.003,1.664-0.554,2.337-1.76,2.384
	c-0.911,0.035-1.778-0.275-1.65-1.288c0.144-1.13,0.608-2.358,2.071-2.328C230.149,350.093,230.581,350.838,230.543,351.306z"/>
<path fill-rule="evenodd" clip-rule="evenodd" fill="#F9F5F4" d="M197.514,307.861c0.988,0.104,2.03,0.213,1.909,1.566
	c-0.027,0.309-0.576,0.57-0.886,0.854c-0.298-0.52-0.596-1.038-0.894-1.557C197.634,308.432,197.591,308.144,197.514,307.861z"/>
<path fill-rule="evenodd" clip-rule="evenodd" fill="#3E3F3C" d="M227.867,323.254c1.001-0.709,2.29-0.713,2.547,0.195
	c0.528,1.871-0.505,1.222-1.352,0.551C228.709,323.719,228.294,323.516,227.867,323.254z"/>
<path fill-rule="evenodd" clip-rule="evenodd" fill="#7F7F7F" d="M197.514,307.861c0.077,0.282,0.12,0.57,0.13,0.863
	c-1.625,0.689-2.688-0.07-3.54-1.372c0.324-0.315,0.649-0.634,0.975-0.95C195.89,306.889,196.702,307.375,197.514,307.861z"/>
<path fill-rule="evenodd" clip-rule="evenodd" fill="#7F7F7F" d="M204.697,301.804c-0.633-0.092-1.266-0.183-1.897-0.275
	c0.043-0.264,0.001-0.514-0.127-0.748c-0.001,0.001-0.063,0.073-0.064,0.073C203.51,300.718,204.281,300.869,204.697,301.804z"/>
<path fill-rule="evenodd" clip-rule="evenodd" fill="#F9F5F4" d="M202.704,307.844c-0.083,0.115-0.166,0.23-0.25,0.346
	c0.055-0.145,0.109-0.287,0.164-0.431C202.617,307.759,202.704,307.844,202.704,307.844z"/>
<path fill-rule="evenodd" clip-rule="evenodd" fill="#CCE6E9" d="M212.67,353.797c0.126,0.067,0.252,0.136,0.379,0.203
	C212.922,353.933,212.795,353.865,212.67,353.797L212.67,353.797z"/>
<path fill-rule="evenodd" clip-rule="evenodd" fill="#B9B7B6" d="M279.666,380.824c0.594,3.957-1.327,5.13-5.09,5.177
	c-3.973,0.049-5.107-1.607-5.083-5.333c0.023-3.627,1.386-4.953,4.979-4.957C278.147,375.707,280.251,376.752,279.666,380.824z"/>
<path fill-rule="evenodd" clip-rule="evenodd" fill="#B9B7B6" d="M309.457,375.92c1.487,0.1,4.74-1.118,5.102,3.051
	c0.236,2.726-3.962,7.331-6.339,6.654c-2.969-0.846-5.44-2.913-5.518-6.31C302.609,375.223,305.78,375.784,309.457,375.92z"/>
<path fill-rule="evenodd" clip-rule="evenodd" fill="#2F2F2D" d="M212.267,383.373c-0.138,1.234,0.42,2.864-1.515,3.164
	c-1.47,0.229-2.636-0.178-2.766-1.988c-0.057-0.786-0.064-1.783-1.265-1.692c-1.131,0.086-1.104,1.043-1.152,1.854
	c-0.117,1.962-1.554,1.896-2.886,1.821c-1.714-0.097-1.442-1.486-1.532-2.608c-0.204-2.54,3.527-7.934,5.535-8.001
	C208.444,375.861,212.271,380.976,212.267,383.373z"/>
<path fill-rule="evenodd" clip-rule="evenodd" fill="#B9B7B6" d="M342.733,386.682c-1.156,0-2.313,0.021-3.469-0.006
	c-1.214-0.027-2.359-0.21-2.49-1.768c-0.109-1.317,0.471-2.382,1.707-2.673c1.787-0.421,3.229-0.645,1.605-2.954
	c-0.758-1.076-0.191-2.287,0.866-3.012c0.858-0.588,1.936-0.681,2.821-0.109c1.127,0.727,1.109,1.922,0.875,3.111
	c-0.203,1.033-2.509,2.515,0.743,2.788c1.686,0.142,3.405,0.968,3.001,3.137c-0.391,2.101-2.317,1.323-3.68,1.492
	c-0.65,0.08-1.319,0.014-1.98,0.014C342.733,386.695,342.733,386.688,342.733,386.682z"/>
<path fill-rule="evenodd" clip-rule="evenodd" fill="#B9B7B6" d="M241.639,376.778c4.884,1.112,2.022,5.306,3.147,7.914
	l-0.189,0.189c-1.932-0.229-3.961-0.163-5.771-0.76c-2.472-0.813-3.788-2.976-2.815-5.413c0.955-2.391,2.822-4.159,5.674-1.898
	c-0.794,0.205-1.629,0.313-2.373,0.633c-1.685,0.725-2.021,2.101-1.411,3.689c0.475,1.236,1.536,1.772,2.805,1.432
	c1.786-0.479,2.188-1.886,1.86-3.505C242.404,378.27,241.956,377.537,241.639,376.778z"/>
<path fill-rule="evenodd" clip-rule="evenodd" fill="#B9B7B6" d="M244.786,384.692c0.131,0.189,0.261,0.38,0.392,0.569
	c-0.193-0.128-0.387-0.255-0.58-0.381C244.597,384.882,244.786,384.692,244.786,384.692z"/>
<path fill-rule="evenodd" clip-rule="evenodd" fill="#FCFCFB" d="M185.882,127.68c-0.05-6.154,0.146-12.324-0.233-18.458
	c-0.268-4.321,0.986-5.716,5.501-5.678c25.289,0.217,50.58,0.104,75.871,0.104c30.449,0,60.897,0.065,91.346-0.078
	c4.015-0.019,5.696,0.946,5.453,5.244c-0.355,6.303-0.167,12.638-0.211,18.958C304.366,127.741,245.124,127.71,185.882,127.68z
	 M218.118,117.978c-4.441,1.953-1.1-4.304-4.094-3.869c-0.711,5.619,0.158,6.5,4.818,4.872c0.53-0.231,1.061-0.462,1.591-0.694
	c-0.29-0.367-0.508-0.863-0.886-1.073C218.794,116.795,218.5,117.532,218.118,117.978z M207.479,116.031
	c0.131-3.47-2.927-6.857-6.324-7.008c-3.351-0.149-6.685,2.985-6.873,6.46c-0.186,3.442,2.896,6.865,6.308,7.006
	C203.981,122.629,207.351,119.472,207.479,116.031z M251.598,116.71c1.061,0.576,2.258,1.041,3.23,1.795
	c1.715,1.329,3.7,1.535,5.577,1.096c1.06-0.249,1.548-1.893,1.088-2.958c-1.025-2.371-3.32-0.499-4.521-0.999
	c-5.69-2.369-11.453,2.008-17.022-0.564c-0.494-0.229-1.896-0.234-1.833,0.931c0.027,0.514,1.026,0.959,1.556,1.465
	c3.848,3.674,7.472,3.513,10.918-0.578C250.751,116.706,251.221,116.772,251.598,116.71z"/>
<path fill-rule="evenodd" clip-rule="evenodd" fill="#21221F" d="M264.879,231.833c7.479-0.153,14.624,1.237,20.938,5.38
	c5.641,3.702,10.887,3.751,16.69,0.148c12.427-7.714,25.753-6.282,39.14-3.101c1.431,0.34,2.457,0.919,2.259,2.659
	c-1.242,10.939-2.529,22.004-11.689,29.615c-2.362,1.962-2.671,6.853-7.657,5.666c-9.398-2.238-19.782-2.558-24.074-13.698
	c-0.655-1.701-1.375-3.387-1.887-5.132c-0.65-2.221-1.6-4.21-4.189-4.271c-2.891-0.066-3.752,2.208-4.557,4.504
	c-0.819,2.34-1.637,4.722-2.817,6.887c-3.354,6.152-8.747,9.441-15.621,10.189c-2.461,0.268-4.938,0.066-7.207,1.395
	c-1.274,0.746-2.792,0.458-3.769-0.445c-9.756-9.024-14.857-20.27-15.846-33.48c-0.179-2.395,0.584-3.623,3.003-4.124
	C253.307,232.844,259.009,231.704,264.879,231.833z M320.065,265.999c2.8-0.051,5.523-0.32,7.512-2.661
	c3.91-1.494,5.896-4.804,7.305-8.361c1.74-4.39,3.001-9.022-0.522-13.218c-4.479-5.333-19.565-5.248-24.675,0.032
	c-1.907-0.12-3.492,0.302-4.075,2.415c-3.563,3.61-3.856,9.513-0.742,14.885C308.338,265.079,313.999,267.652,320.065,265.999z
	 M268.402,265.963c8.464,2.408,16.81-4.277,17.265-13.996c0.135-2.879,0.691-6.155-2.938-7.702
	c-0.583-1.839-1.751-3.066-3.672-3.505c-6.57-3.071-13.37-3.848-20.368-1.809c-3.682,1.073-6.136,3.5-6.293,7.487
	c-0.281,7.094,1.903,13.082,8.344,16.91C262.826,265.59,265.538,266,268.402,265.963z"/>
<path fill-rule="evenodd" clip-rule="evenodd" fill="#21221F" d="M319.483,173.946c3.171-0.002,5.292,1.739,6.835,4.277
	c5.256,8.647,10.358,17.39,15.741,25.957c2.539,4.042-1.481,4.453-3.035,4.979c-3.052,1.035-5.896,7.134-9.115,2.694
	c-6.108-8.426-11.142-17.654-16.319-26.722C310.601,179.896,313.908,174.013,319.483,173.946z"/>
<path fill-rule="evenodd" clip-rule="evenodd" fill="#21221F" d="M230.196,205.583c-9.47,10.676-18.938,21.352-28.407,32.027
	c-2.331,2.627-5.176,3.314-7.91,1.078c-2.783-2.275-2.591-5.315-0.357-7.946c9.332-10.994,18.753-21.913,28.142-32.859
	C223.774,201.261,226.829,203.595,230.196,205.583z"/>
<path fill-rule="evenodd" clip-rule="evenodd" fill="#21221F" d="M300.422,189.847c1.53,1.704,0.525,3.486-0.041,5.097
	c-2.465,7.02-5.173,13.956-7.571,20.997c-0.795,2.335-1.843,2.55-3.977,1.853c-12.143-3.971-12.141-3.923-7.494-16.084
	c1.886-4.937,3.686-9.906,5.524-14.861C291.781,186.049,295.598,190.225,300.422,189.847z"/>
<path fill-rule="evenodd" clip-rule="evenodd" fill="#21221F" d="M240.683,175.384c6.334-7.193,12.668-14.387,19.003-21.58
	c4.071,1.399,6.325,4.854,8.936,7.904c-6.319,7.135-12.638,14.27-18.957,21.405C247.452,179.629,244.409,177.109,240.683,175.384z"
	/>
<path fill-rule="evenodd" clip-rule="evenodd" fill="#F0CC6E" d="M240.683,175.384c3.727,1.725,6.77,4.245,8.981,7.729
	c2.733,5.305,1.897,10.737-0.249,15.795c-1.981,4.668-6.7,6.096-11.309,6.814c-2.568,0.401-5.271-0.063-7.912-0.139
	c-3.365-1.989-6.42-4.323-8.531-7.702c-3.456-5.964-1.713-12.295,0.689-17.523c1.91-4.159,7.786-4.819,12.465-5.486
	C236.71,174.604,238.724,175.188,240.683,175.384z M235.864,177.639c-7.313-0.078-13.175,5.497-13.249,12.604
	c-0.073,6.897,6.185,13.473,12.754,13.403c7.05-0.075,13.235-6.083,13.266-12.885C248.669,183.404,243.133,177.716,235.864,177.639z
	"/>
<path fill-rule="evenodd" clip-rule="evenodd" fill="#3E3F3C" d="M300.422,189.847c-4.824,0.378-8.641-3.798-13.559-2.998
	c4.243-3.126,5.317-7.989,7.089-12.537c0.742-1.905,0.731-4.33,2.823-5.597c2.881,1.064,5.762,2.128,8.642,3.193
	c0.067,3.275-1.752,6.002-2.75,8.946C301.665,183.813,300.748,186.742,300.422,189.847z"/>
<path fill-rule="evenodd" clip-rule="evenodd" fill="#E94D58" d="M305.417,171.908c-2.88-1.064-5.761-2.128-8.642-3.193
	c1.035-2.974,2.102-5.937,3.092-8.925c0.675-2.039,1.957-3.451,3.987-4.119c2.049-0.674,4.482-1.774,6.207-0.405
	c2.01,1.595-0.271,3.609-0.774,5.35C308.181,164.433,306.729,168.15,305.417,171.908z"/>
<path fill-rule="evenodd" clip-rule="evenodd" fill="#F0CC6E" d="M271.644,140.814c0.558-2.213,1.807-4.47,4.135-3.966
	c3.273,0.708,5.389,3.684,7.372,6.185c1.351,1.703-0.896,3.173-1.979,4.474c-1.672,2.007-3.505,3.88-5.271,5.814
	c-1.48-1.118-2.064-3.985-4.929-2.437c-0.562,0.304-1.384,0.06-0.992-0.895c1.238-3.022-1.726-3.194-2.99-4.517
	c1.355-1.776,2.555-3.708,4.696-4.699c0.556,1.983-3.538,6.187,2.628,5.532c0.028-0.003,0.068,0.599,0.187,0.884
	c1.27,3.054,1.148,2.906,3.706,0.713c3.188-2.734,2.636-4.518-0.175-7.502C275.086,137.272,273.757,141.575,271.644,140.814z"/>
<path fill-rule="evenodd" clip-rule="evenodd" fill="#3E3F3C" d="M268.621,161.709c-2.61-3.051-4.864-6.505-8.936-7.904
	c0.731-2.551,2.437-4.235,4.774-5.354c1.083,4.442,5.041,6.047,8.267,8.375C272.301,159.246,270.826,160.784,268.621,161.709z"/>
<path fill-rule="evenodd" clip-rule="evenodd" fill="#21221F" d="M272.727,156.826c-3.226-2.328-7.184-3.933-8.267-8.375
	c0.841-0.992,1.682-1.984,2.525-2.977c1.268,1.321,4.231,1.493,2.993,4.516c-0.392,0.955,0.431,1.198,0.992,0.895
	c2.864-1.548,3.448,1.318,4.929,2.437C274.843,154.486,273.784,155.656,272.727,156.826z"/>
<path fill-rule="evenodd" clip-rule="evenodd" fill="#FCFCFB" d="M274.631,79.901c27.983,0,55.969,0.089,83.952-0.094
	c4.242-0.028,5.535,1.28,5.24,5.375c-0.323,4.475-0.225,8.996-0.032,13.485c0.139,3.231-1.013,4.427-4.3,4.349
	c-7.492-0.179-14.99-0.054-22.486-0.054c-48.473,0-96.945-0.05-145.417,0.084c-4.38,0.012-6.445-0.866-5.944-5.722
	c0.426-4.12,0.339-8.339,0.016-12.478c-0.309-3.967,1.073-5.054,5.02-5.031C218.662,79.978,246.646,79.901,274.631,79.901z
	 M195.73,97.571l0.188,0.127c2.459,1.438,5.142,0.599,7.702,0.624c2.139,0.02,5.312,1.163,6.091-1.585
	c0.771-2.718,1.804-6.089-1.07-8.628c-0.313-0.107-0.628-0.215-0.941-0.323c-0.347-0.321-0.693-0.642-1.04-0.963l-0.006-0.019
	c-2.896-2.925-5.783-3.125-8.661,0.024c-0.258,0.186-0.397,0.438-0.421,0.755c-1.493,0.151-2.765,0.548-2.699,2.429
	c-0.219,2.277-0.523,4.556,0.209,6.804C195.298,97.067,195.514,97.319,195.73,97.571z M346.935,95.313
	c2.355-1.224,3.079-3.14,4.325-4.565c0.716-0.819,1.788-1.809,0.679-2.958c-1.022-1.058-2.47-0.688-3.714-0.405
	c-1.296,0.294-1.682,1.085-1.364,2.56C347.192,91.487,346.935,93.157,346.935,95.313z"/>
<path fill-rule="evenodd" clip-rule="evenodd" fill="#21221F" d="M278.738,412.095c1.047,4.077-1.132,4.511-4.561,4.608
	c-3.707,0.105-4.82-0.987-4.739-4.721c0.074-3.438,0.599-4.997,4.56-4.921C277.809,407.134,279.673,408.025,278.738,412.095z"/>
<path fill-rule="evenodd" clip-rule="evenodd" fill="#F9F5F4" d="M299.205,339.275c2.958,2.047,9.082-2.921,9.727,4.299
	c0.233,2.608-5.101,8.197-7.312,7.979c-2.077-0.206-6.898-5.73-6.904-7.964C294.707,340.646,296.467,339.484,299.205,339.275z"/>
<path fill-rule="evenodd" clip-rule="evenodd" fill="#F2C7C8" d="M317.264,341.877c1.521,0.051,2.399,0.879,2.923,2.265
	c0.582,1.546,0.355,2.945-0.621,4.214c-0.868,1.128-2.017,1.711-3.482,1.369c-0.7-0.164-1.451-1.011-0.877-1.271
	c2.793-1.268,0.507-1.491-0.28-2.21c-0.777-0.71-0.957-1.702-0.481-2.731C315.005,342.303,316.007,341.875,317.264,341.877z"/>
<path fill-rule="evenodd" clip-rule="evenodd" fill="#F9F5F4" d="M241.639,376.778c0.317,0.759,0.766,1.491,0.926,2.281
	c0.327,1.619-0.074,3.025-1.86,3.505c-1.269,0.341-2.33-0.195-2.805-1.432c-0.609-1.589-0.273-2.965,1.411-3.689
	c0.744-0.319,1.579-0.428,2.373-0.633L241.639,376.778z"/>
<path fill-rule="evenodd" clip-rule="evenodd" fill="#E94D58" d="M207.479,116.031c-0.129,3.44-3.498,6.598-6.89,6.458
	c-3.412-0.141-6.493-3.563-6.308-7.006c0.188-3.475,3.522-6.609,6.873-6.46C204.553,109.174,207.61,112.562,207.479,116.031z"/>
<path fill-rule="evenodd" clip-rule="evenodd" fill="#7F7F7F" d="M251.598,116.71c-0.377,0.062-0.847-0.005-1.008,0.187
	c-3.446,4.091-7.07,4.252-10.918,0.578c-0.529-0.506-1.528-0.951-1.556-1.465c-0.063-1.165,1.339-1.159,1.833-0.931
	c5.569,2.572,11.332-1.805,17.022,0.564c1.201,0.5,3.496-1.372,4.521,0.999c0.46,1.065-0.028,2.709-1.088,2.958
	c-1.877,0.439-3.862,0.233-5.577-1.096C253.855,117.751,252.658,117.287,251.598,116.71z"/>
<path fill-rule="evenodd" clip-rule="evenodd" fill="#7F7F7F" d="M218.843,118.981c-4.66,1.628-5.529,0.747-4.818-4.872
	c2.994-0.435-0.348,5.821,4.094,3.869C218.359,118.312,218.602,118.646,218.843,118.981z"/>
<path fill-rule="evenodd" clip-rule="evenodd" fill="#7F7F7F" d="M218.118,117.978c0.382-0.446,0.676-1.183,1.43-0.763
	c0.378,0.21,0.596,0.706,0.886,1.073c-0.53,0.231-1.061,0.463-1.591,0.694C218.602,118.646,218.359,118.312,218.118,117.978z"/>
<path fill-rule="evenodd" clip-rule="evenodd" fill="#768588" d="M309.685,241.792c5.109-5.28,20.196-5.365,24.675-0.032
	c3.523,4.196,2.263,8.828,0.522,13.218c-1.409,3.557-3.395,6.867-7.304,8.36c-0.123-1.732-0.587-3.319-1.918-4.54
	C322.635,250.968,319.614,243.134,309.685,241.792z"/>
<path fill-rule="evenodd" clip-rule="evenodd" fill="#768588" d="M260.739,263.352c-6.44-3.831-8.625-9.819-8.344-16.913
	c0.157-3.987,2.611-6.414,6.293-7.487c6.998-2.04,13.798-1.262,20.367,1.809c-9.211,3.112-14.089,9.934-16.299,19.039
	C261.428,260.61,261.14,262.013,260.739,263.352z"/>
<path fill-rule="evenodd" clip-rule="evenodd" fill="#768588" d="M282.729,244.266c3.63,1.547,3.073,4.822,2.938,7.702
	c-0.455,9.719-8.801,16.404-17.264,13.995c0.117-0.633,0.233-1.266,0.35-1.899c1.689-1.111,2.136-2.978,2.458-4.708
	C272.516,252.344,276.28,247.304,282.729,244.266z"/>
<path fill-rule="evenodd" clip-rule="evenodd" fill="#768588" d="M320.067,266c-6.068,1.652-11.729-0.921-15.2-6.908
	c-3.114-5.373-2.82-11.275,0.741-14.884c5.742,2.833,9.946,6.893,11.227,13.492c0.338,1.745,1.25,3.379,1.898,5.063
	C319.178,263.843,319.623,264.921,320.067,266z"/>
<path fill-rule="evenodd" clip-rule="evenodd" fill="#2F2F2D" d="M282.729,244.266c-6.448,3.039-10.213,8.078-11.518,15.089
	c-0.322,1.731-0.769,3.597-2.458,4.707c-1.819-1.675-3.304-3.819-5.996-4.262c2.21-9.105,7.088-15.927,16.299-19.039
	C280.978,241.199,282.146,242.426,282.729,244.266z"/>
<path fill-rule="evenodd" clip-rule="evenodd" fill="#2F2F2D" d="M318.733,262.764c-0.648-1.685-1.561-3.318-1.898-5.063
	c-1.28-6.6-5.484-10.66-11.227-13.492c0.584-2.114,2.169-2.537,4.076-2.417c9.93,1.343,12.95,9.177,15.976,17.006
	C323.24,259.926,322.081,263.255,318.733,262.764z"/>
<path fill-rule="evenodd" clip-rule="evenodd" fill="#514B46" d="M318.733,262.764c3.348,0.491,4.507-2.838,6.927-3.966
	c1.331,1.221,1.795,2.808,1.918,4.54c-1.989,2.342-4.713,2.61-7.512,2.662C319.623,264.921,319.178,263.843,318.733,262.764z"/>
<path fill-rule="evenodd" clip-rule="evenodd" fill="#514B46" d="M262.757,259.799c2.692,0.443,4.177,2.587,5.996,4.262
	c-0.116,0.635-0.232,1.268-0.35,1.901c-2.865,0.038-5.577-0.373-7.664-2.612C261.14,262.013,261.428,260.61,262.757,259.799z"/>
<path fill-rule="evenodd" clip-rule="evenodd" fill="#F9F5F4" d="M235.864,177.639c7.269,0.077,12.805,5.766,12.771,13.122
	c-0.03,6.803-6.216,12.81-13.266,12.885c-6.569,0.07-12.827-6.506-12.754-13.403C222.689,183.136,228.551,177.561,235.864,177.639z"
	/>
<path fill-rule="evenodd" clip-rule="evenodd" fill="#CCE6E9" d="M271.644,140.814c2.113,0.761,3.442-3.542,6.387-0.414
	c2.811,2.985,3.363,4.769,0.175,7.502c-2.558,2.192-2.437,2.341-3.706-0.713c-0.118-0.285-0.158-0.888-0.187-0.884
	c-6.166,0.655-2.072-3.549-2.628-5.532L271.644,140.814z"/>
<path fill-rule="evenodd" clip-rule="evenodd" fill="#2F2F2D" d="M208.641,88.108c2.874,2.54,1.842,5.91,1.07,8.628
	c-0.779,2.748-3.952,1.605-6.091,1.585c-2.561-0.024-5.243,0.814-7.702-0.624c1.223-0.877,3.925-1.108,3.088-2.979
	c-0.781-1.747-1.059-4.692-4.134-4.708c-0.065-1.881,1.206-2.278,2.699-2.429c0.201,0.893,0.218,2.081,1.614,1.64
	c0.457-0.144,1.06-0.914,1.019-1.343c-0.131-1.366-1.36-0.906-2.212-1.052c2.878-3.149,5.766-2.949,8.661-0.024
	c-1.516,0.024-3.868,0.552-2.541,2.117c1.875,2.211,2.332,4.876,3.684,8.181C209.244,93.516,208.538,90.773,208.641,88.108z
	 M202.208,91.057c-1.318,0.189-1.477,1.178-1.476,2.212c0,1.03,0.138,2.184,1.445,2.195c1.328,0.012,1.421-1.193,1.472-2.187
	C203.702,92.231,203.503,91.259,202.208,91.057z"/>
<path fill-rule="evenodd" clip-rule="evenodd" fill="#3E3F3C" d="M346.935,95.313c0-2.156,0.258-3.826-0.074-5.368
	c-0.317-1.475,0.068-2.266,1.364-2.56c1.244-0.282,2.691-0.653,3.714,0.405c1.109,1.148,0.037,2.139-0.679,2.958
	C350.014,92.173,349.29,94.089,346.935,95.313z"/>
<path fill-rule="evenodd" clip-rule="evenodd" fill="#21221F" d="M208.641,88.108c-0.103,2.665,0.604,5.407-0.845,8.993
	c-1.352-3.305-1.809-5.97-3.684-8.181c-1.327-1.564,1.025-2.092,2.541-2.117l0.006,0.019c0.347,0.321,0.693,0.642,1.04,0.963
	C208.013,87.893,208.327,88.001,208.641,88.108z"/>
<path fill-rule="evenodd" clip-rule="evenodd" fill="#21221F" d="M194.872,90.012c3.075,0.016,3.353,2.961,4.134,4.708
	c0.837,1.87-1.865,2.102-3.088,2.979l-0.188-0.127c-0.217-0.252-0.433-0.504-0.649-0.756
	C194.349,94.568,194.653,92.289,194.872,90.012z"/>
<path fill-rule="evenodd" clip-rule="evenodd" fill="#21221F" d="M197.992,86.828c0.852,0.146,2.081-0.314,2.212,1.052
	c0.041,0.429-0.562,1.199-1.019,1.343c-1.396,0.441-1.413-0.747-1.614-1.64C197.595,87.266,197.734,87.014,197.992,86.828z"/>
<path fill-rule="evenodd" clip-rule="evenodd" fill="#2F2F2D" d="M207.699,87.786c-0.347-0.321-0.693-0.642-1.04-0.963
	C207.006,87.144,207.353,87.465,207.699,87.786z"/>
<path fill-rule="evenodd" clip-rule="evenodd" fill="#2F2F2D" d="M195.081,96.815c0.217,0.252,0.433,0.504,0.649,0.756
	C195.514,97.319,195.298,97.067,195.081,96.815z"/>
<path fill-rule="evenodd" clip-rule="evenodd" fill="#21221F" d="M202.203,91.055c1.3,0.204,1.499,1.176,1.446,2.223
	c-0.051,0.994-0.144,2.198-1.472,2.187c-1.308-0.011-1.445-1.166-1.445-2.195C200.731,92.235,200.89,91.246,202.203,91.055z"/>
</svg>
