<?xml version="1.0" encoding="utf-8"?>
<!-- Generator: Adobe Illustrator 16.0.3, SVG Export Plug-In . SVG Version: 6.00 Build 0)  -->
<!DOCTYPE svg PUBLIC "-//W3C//DTD SVG 1.1//EN" "http://www.w3.org/Graphics/SVG/1.1/DTD/svg11.dtd">
<svg version="1.1" id="Capa_1" xmlns="http://www.w3.org/2000/svg" xmlns:xlink="http://www.w3.org/1999/xlink" x="0px" y="0px"
	 width="663.066px" height="457.155px" viewBox="0 0 663.066 457.155" enable-background="new 0 0 663.066 457.155"
	 xml:space="preserve">
<path fill-rule="evenodd" clip-rule="evenodd" fill="#23354E" d="M-669.381,987.453c10.372-0.037,20.744-0.111,31.116-0.068
	c1.698,0.006,3.67-0.742,5.04,1.053c-12,0-24,0-36,0C-669.277,988.109-669.33,987.781-669.381,987.453z"/>
<path fill-rule="evenodd" clip-rule="evenodd" fill="#2E58A6" d="M357.824,277.248c0.354-0.303,0.707-0.606,1.06-0.909
	c7.613-0.051,15.228-0.103,22.843-0.154c-0.124,4.849,2.81,8.949,3.337,13.638c0.232,0.511,0.465,1.022,0.696,1.534l-0.06-0.069
	c-1.316,2.86,1.212,2.861,2.659,3.226c1.848,0.466,3.261-0.53,3.417-2.5c0.168-2.11,0.355-4.471-2.901-4.455
	c-1.871-3.51-3.084-7.203-3.115-11.224c12.015-0.113,24.05,0.492,36.024-1.022c0.635-0.049,1.27-0.098,1.904-0.146
	c0.839-0.08,1.677-0.159,2.516-0.238c4.806,3.553,2.282,8.035,1.558,12.288c-3.163,0.949-2.583,3.205-1.147,4.841
	c1.662,1.895,4.218,2.261,6.074,0.206c1.413-1.564,2.43-3.728-0.872-4.746c0.607-4.438-1.867-9.33,1.951-13.298
	c1.968-0.005,3.937-0.01,5.904-0.015c6.328,0.078,12.656,0.156,18.983,0.235c2.529,0.768,2.319,2.884,2.416,4.867
	c0.671,13.761,1.368,27.517,2.253,41.269c1.109,17.224,2.798,34.436,2.535,51.729c-0.037,2.441,0.424,5.015-1.121,7.246
	c-10.639,0.818-21.36,0.203-31.951,1.85c-1.348,0.063-2.694,0.125-4.041,0.187c-2.976,0.074-5.951,0.164-8.927,0.22
	c-20.003,0.382-40.006,0.758-60.009,1.135c-0.044-0.355-0.235-0.581-0.577-0.676c-0.17-14.924-0.314-29.848-0.533-44.771
	c-0.028-1.93,0.524-4.011-0.899-5.746c0,0,0.23-0.106,0.229-0.11C357.715,313.507,358.984,295.373,357.824,277.248z"/>
<path fill-rule="evenodd" clip-rule="evenodd" fill="#E1E2E1" d="M561.732,372.316c1.729-22.522,3.473-45.043,5.175-67.567
	c0.413-5.468,0.573-10.957,1.073-16.416c0.323-3.533-0.723-5.816-4.722-6.493c-2.298,6.989-1.563,14.342-2.243,21.475
	c-1.499,15.712-2.414,31.486-3.232,47.253c-0.198,3.817-1.377,6.256-4.799,7.84c-3.146,1.456-5.857,3.775-9.251,4.77
	c-0.213-4.661,1.009-9.189,1.153-13.856c0.285-9.252,1.271-18.486,2.043-27.721c1.241-14.832,2.604-29.653,3.802-44.488
	c0.813-10.063,1.362-20.148,2.155-30.214c1.234-15.664,2.539-31.322,3.886-46.977c0.85-9.882,2.196-19.738,2.624-29.636
	c0.272-6.322,1.735-12.675,0.312-19.036c5.77,0.672,11.619,7.464,11.245,12.731c-1.176,16.576-2.188,33.163-3.353,49.739
	c-0.815,11.599-1.652,23.199-2.744,34.773c-0.399,4.23,0.198,6.898,4.677,8.931c12.857,5.838,12.686,6.098,14.059,20.382
	c3.354,34.884,6.758,69.764,10.185,104.641c0.126,1.284,0.698,2.524,1.062,3.785c-0.874,0.721-1.118,1.65-0.722,2.676
	c0.954,2.466-0.072,3.396-2.486,3.39c-8.476-0.019-16.952,0.077-25.426-0.07c-3.729-0.065-5.833-1.999-5.479-6.055
	C561.126,381.56,561.402,376.936,561.732,372.316z M574.408,269.617c-1.638,0.655-3.446,1.217-3.538,3.467
	c-0.08,1.962,0.937,3.146,2.945,3.088c2.048-0.059,3.521-1.241,3.67-3.25C577.62,271.097,576.338,269.99,574.408,269.617z"/>
<path fill-rule="evenodd" clip-rule="evenodd" fill="#E1E2E1" d="M74.688,385.995c1.369-12.539,2.807-25.071,4.093-37.618
	c2.285-22.296,4.484-44.601,6.707-66.903c0.461-4.626,1.141-9.256,1.197-13.891c0.04-3.391,1.48-5.116,4.418-6.332
	c3.684-1.524,7.203-3.44,10.865-5.019c2.203-0.951,2.773-2.402,2.603-4.709c-2.006-26.994-3.931-53.994-5.876-80.992
	c-0.049-0.664-0.068-1.331-0.15-1.99c-1.215-9.743-0.092-11.865,8.702-16.399c1.812,1.04,1.4,2.824,1.507,4.445
	c0.381,5.786,0.699,11.577,1.179,17.354c1.233,14.841,2.576,29.673,3.804,44.514c0.777,9.405,1.387,18.825,2.143,28.232
	c1.262,15.671,2.609,31.335,3.863,47.006c0.779,9.739,1.367,19.494,2.191,29.229c1.115,13.194,3.141,26.323,2.711,39.622
	c-4.087-1.072-7.352-3.726-10.968-5.702c-1.503-0.822-1.798-2.172-1.91-3.764c-1.313-18.687-2.671-37.37-4.028-56.054
	c-0.277-3.802-0.495-7.614-0.959-11.394c-0.166-1.36,1.025-3.928-1.674-3.742c-1.871,0.129-3.922,1.349-4.168,3.673
	c-0.189,1.79,0.104,3.634,0.213,5.452c0.488,8.104,0.986,16.207,1.482,24.31c-1.235,1.419-0.869,3.151-0.856,4.777
	c0.055,7.294,0.397,14.569,0.792,21.859c0.908,16.732,0.876,33.516,1.225,50.278c-7.615,0.021-15.252-0.306-22.838,0.184
	C75.738,392.76,73.975,390.876,74.688,385.995z M94.711,269.581c-1.621,0.64-2.916,1.73-2.831,3.848
	c0.082,2.05,1.424,2.807,3.298,2.818c2.118,0.013,3.542-0.875,3.441-3.172C98.523,270.857,96.785,270.192,94.711,269.581z"/>
<path fill-rule="evenodd" clip-rule="evenodd" fill="#343432" d="M151.988,217.734c9.135-3.009,17.467-7.827,26.226-11.682
	c6.813-3,13.499-6.291,20.268-9.395c1.599-0.733,3.117-2.044,5.108-1.193c5.42,13.963,11.885,27.443,18.854,40.69
	c0.001,2.735-2.474,2.839-4.099,3.646c-19.295,9.596-38.633,19.109-57.949,28.662c-1.328,0.657-2.582,1.463-3.866,2.2
	c-1.529-0.068-2.595,0.761-3.531,1.839c-2.978,0.596-5.55,2.172-8.087,3.669c-3.859,2.277-5.292,0.94-5.6-3.077
	c-0.824-10.742-1.752-21.477-2.589-32.217c-0.373-4.787-2.198-10.261-0.503-14.187c1.746-4.044,8.17-4.294,12.232-6.807
	c0.131-0.082,0.203-0.259,0.303-0.392C150.207,219.594,150.9,218.302,151.988,217.734z"/>
<path fill-rule="evenodd" clip-rule="evenodd" fill="#343432" d="M468.467,191.525c1.955-1.411,3.492,0.136,5.032,0.85
	c13.216,6.124,26.389,12.339,39.593,18.487c1.486,0.692,3.088,1.136,4.636,1.693c1.647-0.256,0.48,3.892,3.161,2.019
	c3.053,2.93,7.47,2.838,10.93,4.954c2.39,1.46,4.334,2.872,4.097,6.023c-1.144,15.193-2.274,30.387-3.361,45.584
	c-0.206,2.889-1.416,2.705-3.53,1.631c-4.124-2.093-8.366-3.954-12.56-5.911c-0.784-0.635-1.465-1.462-2.618-1.41
	c-20.203-10.008-40.415-19.997-60.59-30.06c-1.563-0.78-4.271-0.862-3.428-3.89C456.438,218.357,462.663,205.039,468.467,191.525z"
	/>
<path fill-rule="evenodd" clip-rule="evenodd" fill="#E5D6C3" d="M211.731,196.253c9.688-7.452,19.8-13.93,32.679-13.765
	c2.041,0.026,3.319-0.808,4.582-2.358c4.04-4.962,6.754-10.58,8.902-16.551c0.76-2.109,1.446-5.002,4.327-4.698
	c2.837,0.299,3.72,3.154,4.294,5.548c0.667,2.78,0.363,5.625-1.006,8.229c-1.303,2.48-2.678,4.923-4.02,7.384
	c-0.271,0.391-0.545,0.78-0.818,1.169c-0.388,0.155-0.775,0.309-1.162,0.463c0.086,0.115,0.238,0.336,0.252,0.328
	c0.352-0.21,0.689-0.444,1.029-0.674c0.376-0.283,0.752-0.565,1.129-0.848c4.582-1.934,7.63-5.758,11.172-8.989
	c1.785-1.628,3.709-4.136,6.395-2.384c2.467,1.61,2.402,4.592,1.936,7.303c-0.877,5.094-4.459,8.345-8.008,11.994
	c4.131,0.054,7.941-1.401,11.746-2.768c2.656-0.954,5.167-2.4,7.879-3.084c4.424-1.117,6.363,0.769,5.627,5.324
	c-0.883,5.463-4.685,8.708-9.354,10.875c-3.617,1.68-7.495,2.729-11.594,2.621c-2.336-0.061-3.738,0.888-2.27,3.316
	c4.1,6.778,4.861,14.396,5.8,21.985c-1.923,2.397-5.24,1.889-7.493,3.598c-1.305,0.055-2.609,0.11-3.914,0.165
	c-0.898-5.262-2.059-10.455-4.018-15.443c-1.939-4.942-4.847-9.149-9.506-11.845c-3.588-2.075-7.409-3.563-10.947,0.063
	c-2.759,2.828-2.291,8.078,0.956,11.837c0.965,1.118,2.196,2.027,3.386,2.926c6.355,4.803,14.203,7.328,19.959,13.054
	c0.272,3.077,1.527,6.048,0.989,9.211c-1.659,0.717-3.319,1.435-4.979,2.152c-6.522,1.222-11.849-2.86-17.834-4.022
	c-2.697-3.105-7.18-2.759-10.186-5.269c-1.711-1.562-3.793-1.856-5.993-1.753c-0.351-0.039-0.702-0.079-1.051-0.117
	c-5.401-0.114-7.188-4.115-9.047-8.211c-2.936-6.469-6.126-12.821-9.054-19.293C211.463,201.395,209.924,198.955,211.731,196.253z"
	/>
<path fill-rule="evenodd" clip-rule="evenodd" fill="#E5D6C3" d="M395.799,181.221c-0.329-0.315-0.659-0.629-0.989-0.944
	c-0.313-1.215-0.922-2.197-2.135-2.701c-0.317-0.426-0.635-0.853-0.952-1.279c-0.106-0.653-0.137-1.33-0.334-1.957
	c-1.367-4.375-0.488-12.081,5.791-9.164c6.31,2.931,8.878,10.187,15.578,13.103c0.293,0.127,0.356,1,0.909,0.278
	c-0.316-0.076-0.633-0.151-0.949-0.227c-0.829-0.198-4.861-8.531-5.508-9.861c-1.909-3.925-2.21-8.12-0.453-12.172
	c0.324-0.358,0.648-0.716,0.973-1.073c4.083-0.103,4.987-0.17,6.496,3.639c0.922,2.327,1.281,4.831,2.143,7.17
	c0.84,2.282,2.533,3.417,3.834,5.274c2.037,2.909,3.614,7.484,7.87,7.805c4.053,0.306,6.698-0.468,10.8,1.083
	c4.141,1.566,8.52,2.702,11.757,5.008c1.03,0.734,11.478,6.791,11.267,7.39c-3.962,11.232-9.823,21.61-14.647,32.455
	c-0.302,0.678-1.202,1.089-1.824,1.624c-1.297,0.124-2.593,0.248-3.888,0.372c-2.995,0.288-6.456,1.081-9.767,2.464
	c-0.759,0.317-1.549,1.095-2.385,1.46c-0.719,0.313-1.663-0.615-2.233-0.302c-2.018,1.108-2.123,2.775-4.514,3.502
	c-1.974,0.6-3.866-0.535-4.828,2.065c-0.715,0.296-1.428,0.592-2.142,0.888c-0.402-0.387-0.68-0.22-0.9,0.202
	c-3.675,1.744-7.915,2.244-10.813-0.278c-2.584-2.25-5.043-3.409-8.213-3.696c-0.994-1.352-3.071-1.904-2.988-4.05
	c3.786-2.158,9.278-0.314,11.945-5.093c5.021-2.883,10.074-5.712,15.051-8.67c2.861-1.701,5.523-3.709,7.197-6.701
	c1.951-3.485,2.149-7.021-0.53-10.178c-2.689-3.169-5.931-2.017-9.1-0.682c-6.903,2.909-9.722,9.133-12.533,15.37
	c-1.729,1.405-2.118,3.276-1.874,5.369c0.114,0.198,0.144,0.408,0.088,0.629c-3.619,6.148-8.255,6.937-11.718,1.992
	c-0.104-7.087,1.394-13.842,4.748-20.062c1.455-2.699,1.995-3.922-1.951-4.09c-4.984-0.213-9.79-1.607-14.279-3.901
	c-0.68-0.582-1.36-1.165-2.04-1.747c-0.225-0.171-0.477-0.273-0.759-0.307c-0.401-0.333-0.8-0.666-1.199-0.999
	c0,0,0.023,0.018,0.023,0.018c-0.338-0.338-0.676-0.677-1.014-1.015c0,0,0.03,0.016,0.03,0.016c0.022-0.852-0.233-1.563-0.998-1.996
	c-0.108-0.625-0.216-1.25-0.323-1.875c-0.17-0.712-0.339-1.425-0.505-2.137c0.282-4.327,2.607-5.791,6.699-4.782
	c0.702,0.226,1.404,0.451,2.106,0.677c1.057,1.151,2.453,1.269,3.886,1.278c0,0-0.037-0.016-0.036-0.017
	c0.929,1.534,2.46,1.829,4.064,1.971c0.685,0.28,1.368,0.56,2.053,0.841c3.168,1.299,7.217,2.786,10.654,2.582
	C400.875,183.812,398.132,182.207,395.799,181.221z"/>
<path fill-rule="evenodd" clip-rule="evenodd" fill="#333333" d="M247.848,238.369c5.985,1.162,11.312,5.244,17.835,4.021
	c0.056,0.496,0.022,1.022,0.179,1.485c7,20.803,14.008,41.603,21.036,62.396c2.442,7.229,5.183,14.365,6.794,21.852
	c-5.494,1.919-10.977,3.873-16.486,5.749c-7.062,2.405-8.275,1.818-10.606-5.125c-5.614-16.723-11.202-33.455-16.796-50.185
	c-3.168-9.47-6.32-18.944-9.49-28.413c-2.558-7.639-2.193-8.354,5.678-11.047C246.619,238.885,247.229,238.614,247.848,238.369z
	 M281.483,313.229c0.029-1.319,0.276-2.676,0.048-3.949c-0.798-4.448-5.93-7.167-10.879-5.886c-3.875,1.002-6.836,6.125-5.01,9.86
	c1.391,2.846,1.946,5.828,2.949,8.723c3.311,5.58,7.926,7.183,12.225,4.246C285.031,323.343,285.29,318.311,281.483,313.229z"/>
<path fill-rule="evenodd" clip-rule="evenodd" fill="#F8F8F3" d="M520.889,214.574c-2.681,1.873-1.514-2.275-3.161-2.019
	c1.378-14.407,2.906-28.804,4.028-43.232c0.284-3.656,1.276-5.581,4.935-6.79c9.483-3.134,18.811-6.742,28.191-10.185
	c1.569-0.576,3.103-1.233,4.826-1.096c1.424,6.361-0.039,12.714-0.312,19.036c-0.428,9.897-1.774,19.753-2.624,29.636
	c-1.347,15.654-2.651,31.313-3.886,46.977c-0.793,10.065-1.343,20.15-2.155,30.214c-1.198,14.834-2.561,29.656-3.802,44.488
	c-0.772,9.235-1.758,18.468-2.043,27.721c-0.145,4.667-1.366,9.195-1.153,13.856c-9.149-5.139-16.515-12.812-25.425-18.203
	c-8.657-5.238-11.584-11.496-9.966-21.995c2.651-17.206,3.191-34.736,4.659-52.126c0.153-1.814,0.557-3.606,0.844-5.409
	c1.153-0.052,1.834,0.775,2.617,1.409c-0.254,0.955-0.648,1.899-0.737,2.871c-1.716,18.875-3.224,37.773-5.223,56.618
	c-0.43,4.044,0.845,5.992,4.011,7.892c6.709,4.024,13.261,8.313,19.828,12.569c5.411,3.507,5.616,3.576,6.167-2.895
	c0.988-11.601,1.619-23.232,2.475-34.845c1.599-21.723,3.226-43.443,4.895-65.161c0.802-10.439,1.789-20.864,2.578-31.303
	c1.165-15.421,2.186-30.853,3.364-46.272c0.271-3.547-0.833-4.37-4.269-3.321c-7.001,2.136-14.056,4.155-21.192,5.752
	c-3.374,0.755-4.247,2.695-4.459,5.553c-0.284,3.814-0.523,7.632-0.812,11.446C522.364,195.364,521.623,204.969,520.889,214.574z"/>
<path fill-rule="evenodd" clip-rule="evenodd" fill="#F8F8F3" d="M151.988,217.734c-1.088,0.568-1.781,1.86-3.232,1.757
	c-1.314-15.555-2.672-31.106-3.896-46.668c-0.198-2.524-1.564-3.37-3.684-3.936c-7.388-1.971-14.781-3.928-22.111-6.098
	c-2.965-0.878-3.705-0.259-3.613,2.887c0.279,9.482,1.292,18.893,2.068,28.334c2.189,26.653,4.113,53.33,6.084,80.001
	c1.752,23.693,3.422,47.393,5.141,71.088c0.322,4.431,1.276,4.895,5.191,2.414c5.342-3.384,10.375-7.367,16.006-10.153
	c7.545-3.734,10.623-8.848,8.065-17.101c-0.472-1.521-0.095-3.306-0.109-4.969c0.587-0.317,1.175-0.634,1.761-0.95
	c0.621,6.114,1.215,12.23,1.875,18.34c0.246,2.27-0.021,4.094-2.109,5.642c-10.279,7.622-20.453,15.386-30.668,23.095
	c-1.215,0.916-2.469,1.744-4.11,1.126c0.429-13.297-1.597-26.426-2.712-39.62c-0.824-9.735-1.412-19.49-2.191-29.229
	c-1.254-15.671-2.602-31.335-3.863-47.006c-0.756-9.408-1.365-18.827-2.143-28.232c-1.228-14.841-2.57-29.673-3.804-44.514
	c-0.479-5.777-0.798-11.568-1.179-17.354c-0.106-1.621,0.305-3.405-1.507-4.445c1.744-1.858,3.657-0.968,5.521-0.293
	c9.668,3.505,19.258,7.246,29.023,10.448c3.971,1.302,5.451,3.47,5.73,7.432c0.949,13.396,2.101,26.776,3.252,40.156
	C151,212.518,151.574,215.119,151.988,217.734z"/>
<path fill-rule="evenodd" clip-rule="evenodd" fill="#FCFCFC" d="M74.688,385.995c-0.714,4.881,1.05,6.765,6.267,6.429
	c7.586-0.489,15.223-0.163,22.838-0.183c2.904-0.858,5.154-2.282,4.469-5.827c-0.912-4.713-0.441-9.457-0.474-14.19
	c7.979,0.043,15.958,0.086,23.937,0.128c-0.029,1.254-0.748,2.135-1.541,3.021c-8.389,9.366-17.037,18.521-25.033,28.212
	c-4.801,5.817-9.971,8.066-17.709,7.967c-13.695-0.175-27.419-2.905-41.125-0.216c4.007-5.816,10.064-9.447,15.141-14.119
	C65.709,393.305,70.267,389.723,74.688,385.995z"/>
<path fill-rule="evenodd" clip-rule="evenodd" fill="#FCFCFC" d="M561.732,372.316c-0.33,4.62-0.606,9.244-1.008,13.858
	c-0.354,4.057,1.751,5.99,5.479,6.055c8.474,0.147,16.95,0.051,25.426,0.07c2.414,0.005,3.44-0.924,2.486-3.39
	c-0.396-1.026-0.152-1.955,0.722-2.676c9.164,7.991,18.327,15.982,27.488,23.973c-11.442,0.615-22.898-0.342-34.369,0.863
	c-5.14,0.54-10.527-0.979-15.854-0.784c-1.026,0.038-1.974-0.292-2.686-1.091c-6.286-7.06-12.323-14.365-18.938-21.104
	c-4.567-4.654-7.496-11.013-13.911-13.8c0.379-2.854,2.638-2.001,4.267-2.015C547.801,372.217,554.768,372.291,561.732,372.316z"/>
<path fill-rule="evenodd" clip-rule="evenodd" fill="#51504E" d="M273.756,230.271c2.253-1.709,5.57-1.201,7.493-3.598
	c1.035-0.03,2.069-0.06,3.104-0.092c10.459,31.244,20.918,62.49,31.377,93.735c-3.305,1.854-6.836,3.045-10.58,3.618
	C294.686,292.715,284.221,261.493,273.756,230.271z"/>
<path fill-rule="evenodd" clip-rule="evenodd" fill="#333333" d="M315.73,320.316c-10.459-31.246-20.918-62.491-31.377-93.735
	c7.647-3.705,9.484-2.975,12.066,4.755c8.754,26.203,17.523,52.401,26.266,78.607C325.121,317.24,323.626,319.431,315.73,320.316z"
	/>
<path fill-rule="evenodd" clip-rule="evenodd" fill="#DCE1E1" d="M536.569,374.291c6.415,2.787,9.344,9.146,13.911,13.8
	c6.614,6.739,12.651,14.043,18.938,21.104c0.712,0.799,1.659,1.129,2.686,1.091c5.326-0.196,10.714,1.324,15.854,0.784
	c11.471-1.205,22.927-0.248,34.369-0.863c2.896,5.925,1.832,7.932-4.267,7.938c-14.284,0.014-28.568-0.061-42.852,0.046
	c-2.879,0.021-5.028-0.701-6.933-2.97c-9.918-11.82-19.987-23.512-29.895-35.341C537.135,378.392,534.884,376.88,536.569,374.291z"
	/>
<path fill-rule="evenodd" clip-rule="evenodd" fill="#F8F8F3" d="M273.756,230.271c10.465,31.222,20.93,62.444,31.395,93.663
	c-1.842,1.579-4.063,2.109-6.402,2.306c-0.705-6.319-3.396-12.093-5.311-18.036c-7.329-22.74-15.144-45.323-22.776-67.965
	c0.538-3.163-0.717-6.134-0.989-9.209c0.029-0.205,0.086-0.403,0.17-0.593C271.146,230.381,272.451,230.326,273.756,230.271z"/>
<path fill-rule="evenodd" clip-rule="evenodd" fill="#DCE1E1" d="M46.316,411.336c13.706-2.689,27.43,0.041,41.125,0.216
	c7.738,0.099,12.908-2.15,17.709-7.967c7.996-9.691,16.645-18.846,25.033-28.212c0.793-0.885,1.512-1.766,1.541-3.021
	c2.082,2.295,1.432,4.581-0.275,6.619c-10.441,12.459-20.951,24.861-31.406,37.308c-1.324,1.575-2.971,1.884-4.885,1.88
	c-15.109-0.031-30.221-0.065-45.33,0.007C43.922,418.194,45.84,414.455,46.316,411.336z"/>
<path fill-rule="evenodd" clip-rule="evenodd" fill="#333333" d="M270.661,240.239c7.633,22.642,15.447,45.226,22.776,67.965
	c1.915,5.943,4.605,11.717,5.311,18.036c-1.449,1.261-3.229,1.638-5.057,1.882c-1.611-7.488-4.352-14.624-6.794-21.853
	c-7.028-20.793-14.036-41.593-21.036-62.396c-0.156-0.463-0.123-0.989-0.179-1.485C267.342,241.673,269.002,240.956,270.661,240.239
	z"/>
<path fill-rule="evenodd" clip-rule="evenodd" fill="#DCE1E1" d="M404.699,224.204c-2.667,4.779-8.159,2.936-11.945,5.093
	c-0.593,0.31-1.186,0.619-1.778,0.928c-0.417,0.356-0.834,0.712-1.251,1.068l0.018-0.026c-6.53,2.611-7.579,8.579-7.706,14.29
	c-0.189,8.558,0.883,17.114,2.322,25.584c0.398,1.75,0.158,3.672,1.401,5.194c0.031,4.021,1.244,7.714,3.115,11.224
	c0.734,1.248,1.783,2.563,0.722,3.99c-1.288,1.73-2.543-0.76-3.896-0.26l0.06,0.069c-0.231-0.512-0.464-1.023-0.696-1.534
	c-0.527-4.689-3.461-8.789-3.337-13.637c-0.896-1.942-0.337-4.45-2.319-5.971c0.656-0.875,0.557-1.777,0.092-2.69
	c-0.438-5.089-0.902-10.175-1.308-15.267c-0.829-10.419,0.633-19.964,10.669-25.832c2.188-1.279,1.845-3.294,2.417-5.093
	c3.466,4.945,8.102,4.157,11.718-1.992C403.254,221.069,401.611,223.466,404.699,224.204z"/>
<path fill-rule="evenodd" clip-rule="evenodd" fill="#DCE1E1" d="M417.811,236.231c1.293-3.498,4.954-1.027,6.939-2.754
	c5.948,8.223,8.788,17.453,8.917,27.561c0.021,1.681,0.163,3.335,1.135,4.788c-4.504,2.283-1.519,5.493-1.034,8.394
	c-3.818,3.968-1.344,8.859-1.951,13.297c0.017,1.191-0.097,2.516-1.519,2.643c-1.964,0.175-2.198-1.512-2.536-2.943
	c0.725-4.253,3.248-8.735-1.558-12.288c2.284-2.25,1.805-5.067,1.608-7.826c0.164-9.04-1.108-17.815-4.92-26.1
	C421.857,238.751,420.87,236.364,417.811,236.231z"/>
<path fill-rule="evenodd" clip-rule="evenodd" fill="#F8F8F3" d="M211.731,196.253c-1.808,2.702-0.269,5.142,0.786,7.472
	c2.928,6.472,6.118,12.824,9.054,19.293c1.858,4.096,3.646,8.098,9.047,8.211c-4.499-1.301-4.657,4.591-8.171,4.925
	c-6.973-13.248-13.438-26.728-18.857-40.691C206.568,192.998,208.937,196.827,211.731,196.253z"/>
<path fill-rule="evenodd" clip-rule="evenodd" fill="#CBCFCE" d="M107.788,372.224c0.032,4.733-0.438,9.477,0.474,14.19
	c0.686,3.544-1.564,4.969-4.469,5.827c-0.349-16.763-0.316-33.546-1.225-50.279c-0.395-7.29-0.737-14.565-0.792-21.859
	c-0.013-1.626-0.379-3.358,0.856-4.777c2.273,5.195,1.065,10.799,1.73,16.19c1.363,11.034,1.606,22.204,2.391,33.312
	C106.93,367.305,107.435,369.759,107.788,372.224z"/>
<path fill-rule="evenodd" clip-rule="evenodd" fill="#F8F8F3" d="M445.424,226.671c0.622-0.535,1.522-0.946,1.824-1.624
	c4.824-10.844,10.686-21.222,14.646-32.456c0.592-0.764,1.185-1.527,1.776-2.29c1.882-0.701,3.126,1.095,4.796,1.224
	c-5.804,13.514-12.028,26.833-18.639,39.971C446.914,231.207,445.465,229.582,445.424,226.671z"/>
<path fill-rule="evenodd" clip-rule="evenodd" fill="#E1E2E1" d="M159.658,314.34c-0.586,0.316-1.174,0.633-1.762,0.95
	c-1.172-6.684-1.66-13.435-2.234-20.191c-0.643-7.55-0.639-15.203-2.663-22.598c0.937-1.078,2.002-1.907,3.531-1.839
	c1.024,12.733,2.068,25.465,3.063,38.202C159.735,310.68,159.643,312.515,159.658,314.34z"/>
<path fill-rule="evenodd" clip-rule="evenodd" fill="#4FA0CA" d="M443.41,266.123c3.424-0.275,6.854-0.49,10.27-0.84
	c3.937-0.404,5.617,0.914,4.241,5.01c-0.306,0.911-0.188,1.964-0.264,2.953c-6.137-0.644-11.691-3.985-17.989-3.886
	C440.581,267.893,441.84,266.827,443.41,266.123z"/>
<path fill-rule="evenodd" clip-rule="evenodd" fill="#979895" d="M379.407,270.215c1.982,1.521,1.424,4.029,2.319,5.971
	c-7.615,0.051-15.229,0.102-22.843,0.153c0.76-1.087,1.973-1.061,3.093-1.259c5.373-1.876,11.286-2.097,16.235-5.281
	C378.61,269.938,379.009,270.076,379.407,270.215z"/>
<path fill-rule="evenodd" clip-rule="evenodd" fill="#51504E" d="M443.41,266.123c-1.57,0.705-2.829,1.771-3.741,3.236
	c0.001,1.615,0.002,3.23,0.003,4.846c-1.968,0.005-3.937,0.01-5.904,0.015c-0.484-2.901-3.47-6.111,1.034-8.394
	C437.671,265.927,440.54,266.025,443.41,266.123z"/>
<path fill-rule="evenodd" clip-rule="evenodd" fill="#4FA0CA" d="M378.212,269.799c-4.949,3.185-10.862,3.405-16.235,5.281
	c0.838-2.639-3.429-6.599,2.066-8.028c2.434,1.152,4.833,2.452,7.656,2.402c0.736,0.623,1.521,0.808,2.385,0.26
	C375.46,269.743,376.836,269.771,378.212,269.799z"/>
<path fill-rule="evenodd" clip-rule="evenodd" fill="#979895" d="M439.672,274.205c-0.001-1.615-0.002-3.23-0.003-4.846
	c6.297-0.1,11.852,3.242,17.988,3.886c0.333,0.398,0.666,0.796,0.999,1.194C452.328,274.361,446,274.283,439.672,274.205z"/>
<path fill-rule="evenodd" clip-rule="evenodd" fill="#343432" d="M378.212,269.799c-1.376-0.028-2.752-0.057-4.129-0.085
	c-0.794-0.086-1.589-0.173-2.384-0.26c-2.823,0.05-5.223-1.25-7.656-2.402c5.161,0.16,10.309,0.316,15.456,0.473
	c0.465,0.913,0.564,1.814-0.092,2.69C379.009,270.076,378.61,269.938,378.212,269.799z"/>
<path fill-rule="evenodd" clip-rule="evenodd" fill="#F8F8F3" d="M231.669,231.347c2.2-0.103,4.282,0.191,5.993,1.753
	C235.491,233.107,233.477,232.582,231.669,231.347z"/>
<path fill-rule="evenodd" clip-rule="evenodd" fill="#DCE1E1" d="M425.852,232.468c0.536-1.273,1.064-2.56,2.789-1.321
	C427.917,232.024,427.049,232.591,425.852,232.468z"/>
<path fill-rule="evenodd" clip-rule="evenodd" fill="#DCE1E1" d="M430.923,230.379c0.368-0.393,0.736-0.786,1.101-1.178
	c0.229,0.013,0.46,0.042,0.688,0.091C432.426,230.165,432.03,230.858,430.923,230.379z"/>
<path fill-rule="evenodd" clip-rule="evenodd" fill="#7698B4" d="M377.758,191.533c0.68,0.582,1.36,1.165,2.04,1.747
	C378.676,193.215,377.939,192.697,377.758,191.533z"/>
<path fill-rule="evenodd" clip-rule="evenodd" fill="#F8F8F3" d="M432.712,229.292c-0.229-0.048-0.459-0.078-0.688-0.091
	c0.77-1.058,1.909-0.765,2.955-0.818C434.224,228.687,433.468,228.99,432.712,229.292z"/>
<path fill-rule="evenodd" clip-rule="evenodd" fill="#F8F8F3" d="M435.837,228.288c0.792-1.027,1.942-0.894,3.038-0.938
	C438.017,228.16,436.942,228.273,435.837,228.288z"/>
<path fill-rule="evenodd" clip-rule="evenodd" fill="#F8F8F3" d="M439.854,227.245c0.474-0.708,1.006-0.922,1.649-0.199
	C440.952,227.112,440.403,227.178,439.854,227.245z"/>
<path fill-rule="evenodd" clip-rule="evenodd" fill="#7698B4" d="M400.714,168.377c-0.348-0.348-0.695-0.695-1.043-1.043
	C400.019,167.682,400.366,168.03,400.714,168.377z"/>
<path fill-rule="evenodd" clip-rule="evenodd" fill="#7698B4" d="M402.714,170.365c-0.344-0.344-0.688-0.688-1.033-1.031
	C402.025,169.678,402.37,170.021,402.714,170.365z"/>
<path fill-rule="evenodd" clip-rule="evenodd" fill="#7698B4" d="M403.717,171.369c-0.345-0.345-0.688-0.689-1.033-1.034
	C403.028,170.679,403.372,171.024,403.717,171.369z"/>
<path fill-rule="evenodd" clip-rule="evenodd" fill="#7698B4" d="M404.719,172.372c-0.347-0.347-0.692-0.693-1.038-1.041
	C404.026,171.678,404.372,172.025,404.719,172.372z"/>
<path fill-rule="evenodd" clip-rule="evenodd" fill="#7698B4" d="M401.715,169.368c-0.348-0.344-0.696-0.688-1.044-1.033
	C401.019,168.679,401.366,169.023,401.715,169.368z"/>
<path fill-rule="evenodd" clip-rule="evenodd" fill="#7698B4" d="M375.8,190.227c0.399,0.333,0.798,0.666,1.199,0.999
	C376.601,190.893,376.2,190.56,375.8,190.227z"/>
<path fill-rule="evenodd" clip-rule="evenodd" fill="#51504E" d="M427.813,267.102c0.196,2.759,0.676,5.577-1.608,7.826
	c-0.839,0.079-1.677,0.158-2.516,0.238c-4.107-1.818-8.329-0.511-12.513,0.146c3.536,0,7.072,0,10.608,0
	c-11.975,1.515-24.01,0.91-36.024,1.022c-1.243-1.522-1.003-3.444-1.4-5.191c0.259-1.18,0.008-2.601,1.498-3.21
	c1.248,0.09,2.497,0.181,3.746,0.271C402.379,269.18,415.076,267.458,427.813,267.102z"/>
<path fill-rule="evenodd" clip-rule="evenodd" fill="#767674" d="M427.762,287.216c0.338,1.431,0.572,3.118,2.536,2.943
	c1.422-0.126,1.535-1.452,1.519-2.643c3.302,1.018,2.285,3.182,0.872,4.746c-1.856,2.056-4.412,1.689-6.074-0.206
	C425.179,290.421,424.599,288.165,427.762,287.216z"/>
<path fill-rule="evenodd" clip-rule="evenodd" fill="#767674" d="M385.7,291.288c1.354-0.5,2.608,1.99,3.896,0.26
	c1.062-1.426,0.013-2.742-0.722-3.99c3.257-0.016,3.069,2.344,2.901,4.455c-0.156,1.97-1.569,2.966-3.417,2.5
	C386.912,294.149,384.384,294.148,385.7,291.288z"/>
<path fill-rule="evenodd" clip-rule="evenodd" fill="#343432" d="M421.784,275.312c-3.536,0-7.072,0-10.608,0
	c4.184-0.657,8.405-1.964,12.513-0.146C423.054,275.214,422.419,275.263,421.784,275.312z"/>
<path fill-rule="evenodd" clip-rule="evenodd" fill="#767674" d="M385.063,289.823c0.232,0.511,0.465,1.022,0.696,1.534
	C385.528,290.846,385.296,290.334,385.063,289.823z"/>
<path fill-rule="evenodd" clip-rule="evenodd" fill="#CBCFCE" d="M574.408,269.617c1.93,0.373,3.212,1.48,3.077,3.305
	c-0.148,2.009-1.622,3.191-3.67,3.25c-2.009,0.058-3.025-1.125-2.945-3.088C570.962,270.834,572.771,270.272,574.408,269.617z"/>
<path fill-rule="evenodd" clip-rule="evenodd" fill="#CBCFCE" d="M94.711,269.581c2.074,0.611,3.813,1.276,3.908,3.494
	c0.101,2.298-1.323,3.185-3.441,3.172c-1.874-0.012-3.216-0.769-3.298-2.818C91.795,271.311,93.09,270.221,94.711,269.581z"/>
<path fill-rule="evenodd" clip-rule="evenodd" fill="#349980" d="M152.999,272.501c2.024,7.396,2.021,15.048,2.663,22.598
	c0.574,6.756,1.063,13.507,2.234,20.191c0.016,1.663-0.361,3.447,0.11,4.969c2.558,8.253-0.521,13.367-8.065,17.101
	c-5.631,2.787-10.664,6.77-16.006,10.153c-3.915,2.48-4.869,2.017-5.191-2.414c-1.719-23.696-3.389-47.395-5.141-71.088
	c-1.971-26.671-3.895-53.348-6.084-80.001c-0.776-9.441-1.789-18.852-2.068-28.334c-0.092-3.146,0.648-3.765,3.613-2.887
	c7.33,2.17,14.724,4.127,22.111,6.098c2.119,0.565,3.485,1.412,3.684,3.936c1.225,15.562,2.582,31.113,3.896,46.668
	c-0.1,0.133-0.172,0.311-0.303,0.392c-4.063,2.512-10.486,2.763-12.232,6.807c-1.695,3.926,0.13,9.399,0.503,14.187
	c0.837,10.741,1.765,21.475,2.589,32.217c0.308,4.017,1.74,5.354,5.6,3.077C147.449,274.673,150.021,273.097,152.999,272.501z"/>
<path fill-rule="evenodd" clip-rule="evenodd" fill="#349980" d="M520.889,214.574c0.734-9.605,1.476-19.21,2.2-28.815
	c0.288-3.814,0.527-7.632,0.812-11.446c0.212-2.858,1.085-4.798,4.459-5.553c7.137-1.597,14.191-3.616,21.192-5.752
	c3.436-1.048,4.54-0.226,4.269,3.321c-1.179,15.42-2.199,30.852-3.364,46.272c-0.789,10.439-1.776,20.864-2.578,31.303
	c-1.669,21.717-3.296,43.438-4.895,65.161c-0.855,11.613-1.486,23.244-2.475,34.845c-0.551,6.471-0.756,6.402-6.167,2.895
	c-6.567-4.256-13.119-8.545-19.828-12.569c-3.166-1.9-4.44-3.848-4.011-7.892c1.999-18.845,3.507-37.743,5.223-56.618
	c0.089-0.972,0.483-1.916,0.737-2.871c4.194,1.958,8.437,3.819,12.561,5.913c2.114,1.073,3.324,1.257,3.53-1.631
	c1.087-15.197,2.218-30.391,3.361-45.584c0.237-3.151-1.707-4.563-4.097-6.023C528.358,217.412,523.941,217.503,520.889,214.574z"/>
<path fill-rule="evenodd" clip-rule="evenodd" fill="#7198B7" d="M260.791,181.327c-0.34,0.23-0.678,0.464-1.029,0.674
	c-0.014,0.008-0.166-0.213-0.252-0.328c0.387-0.154,0.774-0.309,1.162-0.463L260.791,181.327z"/>
<path fill-rule="evenodd" clip-rule="evenodd" fill="#7198B7" d="M260.672,181.21c0.273-0.389,0.547-0.778,0.818-1.169
	c0.143,0.142,0.285,0.288,0.428,0.437c-0.375,0.284-0.751,0.567-1.127,0.85L260.672,181.21z"/>
<path fill-rule="evenodd" clip-rule="evenodd" fill="#CBCFCE" d="M395.742,233.347c-2.577-0.355-4.026,1.157-5.094,3.173
	c-2.562,4.839-3.254,9.977-2.604,15.401c0.648,5.412,1.05,10.854,1.56,16.283c-1.25-0.09-2.499-0.181-3.747-0.271
	c-0.091-2.662,0.074-5.361-0.319-7.978c-1.504-10.013-2.03-19.831,4.204-28.689l-0.018,0.026c0.417-0.356,0.834-0.712,1.251-1.068
	c0.593-0.31,1.186-0.619,1.778-0.928C392.671,231.443,394.748,231.996,395.742,233.347z"/>
<path fill-rule="evenodd" clip-rule="evenodd" fill="#DCE1E1" d="M404.784,213.343c-0.117,1.965-0.649,3.785-1.874,5.366
	C402.666,216.619,403.056,214.748,404.784,213.343z"/>
<path fill-rule="evenodd" clip-rule="evenodd" fill="#7698B4" d="M412.716,178.33c0.317,0.076,0.634,0.152,0.951,0.228
	c-0.553,0.722-0.616-0.151-0.909-0.278C412.758,178.279,412.716,178.33,412.716,178.33z"/>
<path fill-rule="evenodd" clip-rule="evenodd" fill="#DCE1E1" d="M415.668,237.12c-0.282,0.149-0.582,0.216-0.9,0.202
	C414.988,236.9,415.266,236.732,415.668,237.12z"/>
<path fill-rule="evenodd" clip-rule="evenodd" fill="#B84C42" d="M281.483,313.229c3.807,5.082,3.548,10.114-0.667,12.994
	c-4.299,2.937-8.914,1.334-12.224-4.241C269.021,312.195,273.377,309.236,281.483,313.229z"/>
<path fill-rule="evenodd" clip-rule="evenodd" fill="#E1C27E" d="M281.483,313.229c-8.106-3.993-12.462-1.034-12.891,8.753
	c-1.004-2.9-1.56-5.882-2.95-8.728c-1.826-3.736,1.135-8.858,5.01-9.86c4.949-1.281,10.081,1.438,10.879,5.886
	C281.76,310.553,281.513,311.91,281.483,313.229z"/>
<path fill-rule="evenodd" clip-rule="evenodd" fill="#7698B4" d="M390.976,230.226c-0.417,0.356-0.834,0.712-1.251,1.068
	C390.142,230.938,390.559,230.582,390.976,230.226z"/>
<path fill-rule="evenodd" clip-rule="evenodd" fill="#979895" d="M371.699,269.454c0.795,0.087,1.59,0.174,2.384,0.26
	C373.22,270.262,372.436,270.077,371.699,269.454z"/>
<g>
	<g>
		<path fill-rule="evenodd" clip-rule="evenodd" fill="#37485B" d="M331.991,145.161c-35.428,0-70.854-0.025-106.282,0.06
			c-2.164,0.005-2.604-0.436-2.6-2.599c0.083-38.934,0.083-77.868,0-116.802c-0.004-2.164,0.436-2.601,2.6-2.598
			c70.854,0.071,141.71,0.071,212.564,0c2.163-0.002,2.604,0.434,2.6,2.598c-0.083,38.934-0.083,77.868,0,116.801
			c0.004,2.164-0.436,2.605-2.6,2.6C402.846,145.136,367.419,145.161,331.991,145.161z M363.232,87.838
			c0.876-0.003,1.753-0.006,2.629-0.008c0.052,0.474,0.043,0.963,0.166,1.417c0.266,0.984-0.796,2.676,1.206,2.757
			c2.085,0.084,1.64-1.593,1.673-2.843c0.04-1.554-0.098-3.125,0.087-4.659c0.196-1.632,1.356-2.554,2.975-2.508
			c1.915,0.054,1.31,1.651,1.357,2.721c0.08,1.791,0.016,3.588,0.031,5.382c0.006,0.702-0.085,1.496,0.832,1.753
			c1.049,0.294,1.909,0.154,2.167-1.118c0.953-2.65,1.015-5.299-0.013-7.946c-0.725-3.289-2.62-4.402-5.797-3.107
			c-0.426,0.174-1.028,0.694-1.213,0.566c-3.687-2.547-3.172,0.545-3.472,2.545c-0.876-0.003-1.753-0.007-2.629-0.01
			c0-0.493,0-0.985,0-1.479c0.002-0.23,0.005-0.461,0.007-0.691c-0.064-0.303-0.129-0.606-0.193-0.91
			c-0.684-1.064,2.35-2.871-0.691-3.464c-0.3-0.158-0.599-0.316-0.898-0.473c-1.669,4.844-1.467,9.861-1.322,14.861
			c0.09,3.086,1.73,1.443,2.981,0.89c0.472-0.456,0.632-0.936,0.117-1.47C363.232,89.308,363.232,88.573,363.232,87.838z
			 M403.825,108.162c-0.005,0.728-0.01,1.457-0.014,2.185c-0.505,0.512-0.38,0.974,0.111,1.406c2.57,1.403,2.967,0.104,3.107-2.209
			c0.164-2.7-1.613-6.468,3.327-7.069c0.911-0.111,1.029-1.203,0.885-2.1c-0.122-0.756-0.814-1.157-1.273-0.847
			c-1.947,1.311-4.139-0.442-6.057,0.615c-0.689,0.712-0.824,1.446-0.088,2.214c0,1.209-0.001,2.417-0.001,3.626
			C403.124,106.711,403.122,107.437,403.825,108.162z M345.973,67.457c2.47,4.02,4.863,5.228,8.156,4.104
			c0.785-0.268,1.695-0.427,1.651-1.572c-0.054-1.42-1.09-1.038-1.838-0.905c-3.026,0.534-4.679-0.58-4.65-3.758
			c0.026-3.02,1.354-4.517,4.548-3.811c0.85,0.188,1.783,0.263,1.82-1.011c0.03-1.038-0.685-1.369-1.598-1.593
			c-3.414-0.838-5.871,0.45-8.123,4.343c-0.57-0.272-1.141-0.545-1.711-0.818c-0.992-3.381-3.471-4.101-6.503-3.385
			c-1.08,0.254-3.044,0.169-2.563,2.217c0.445,1.892,1.785-0.111,2.673,0.411c0.909,0.534,2.722-0.989,2.953,0.944
			c0.249,2.082-1.634,1.143-2.615,1.36c-2.641,0.585-4.608,2.957-3.871,5.125c0.914,2.691,3.008,3.34,5.502,2.282
			c1.132-0.48,1.909-0.499,2.948,0.194c0.788,0.525,1.924,0.563,2.614-0.354c0.946-1.256-0.992-1.358-1.014-2.263
			C344.894,68.463,345.433,67.96,345.973,67.457z M331.987,64.592c1.326-2.091,0.48-2.854-1.708-2.781
			c-1.789,0.061-3.388,0.072-3.403-2.496c-0.02-3.142,2.27-1.577,3.602-1.918c0.566-0.146,1.199-0.022,1.801-0.041
			c0.656-0.02,1.183-0.244,1.252-0.992c0.081-0.881-0.349-1.368-1.228-1.373c-2.411-0.014-4.823-0.048-7.232,0.021
			c-1.441,0.041-1.225,1.233-1.229,2.153c-0.021,4.101-0.022,8.201,0.002,12.301c0.005,0.8-0.218,1.802,0.899,2.1
			c1.034,0.276,1.932,0.095,2.244-1.14C327.512,67.502,328.332,64.833,331.987,64.592z M407.099,64.021
			c-0.209-0.562-0.37-1.146-0.634-1.681c-1.555-3.154-4.774-4.398-7.853-3.058c-3.148,1.371-4.481,5.409-2.975,9.01
			c1.295,3.096,4.637,4.379,7.82,3.126c2.482-0.977,3.085-3.184,3.807-5.356c1.546,1.382,0.317,3.657,1.645,5.109
			c4.962,1.88,1.975-2.866,3.713-4.299c1.314,1.42,2.621,2.937,4.049,4.33c0.747,0.729,1.987,0.852,2.673,0.232
			c1.117-1.009-0.303-1.605-0.816-2.216c-3.591-4.267-3.607-4.252-0.181-8.549c0.286-0.359,0.704-0.685,0.36-1.408
			c-3.622-1.237-3.989,3.451-6.812,4.056c0-2.467,0.064-4.75-0.032-7.026c-0.039-0.927,0.531-2.311-1.245-2.461
			c-1.655-0.14-1.561,1.115-1.79,2.131C407.165,58.415,409.357,61.696,407.099,64.021z M353.954,111.716
			c2.132,1.257,3.112,0.603,3.096-1.826c-0.012-1.681-0.088-3.379,0.119-5.039c0.2-1.609,1.327-2.637,2.973-2.543
			c1.798,0.103,1.359,1.669,1.406,2.787c0.066,1.56,0.085,3.129,0.004,4.688c-0.125,2.42,0.822,3.11,3.012,2.041
			c0.562-0.518,1.123-1.035,1.684-1.552c1.124,1.072,2.167,2.495,3.934,2.153c1.92-0.372,3.693-1.107,5.706-0.038
			c0.799,0.424,2.407-0.683,1.532-1.492c-2.248-2.079-0.986-4.505-1.25-6.74c-0.205-1.754-0.357-3.355-2.185-4.202
			c-2.038-0.944-4.008-0.477-5.942,0.296c-0.852,0.34-0.825,1.146-0.577,1.841c0.293,0.825,0.967,0.413,1.513,0.29
			c0.588-0.131,1.162-0.341,1.755-0.422c1.045-0.143,1.998,0.077,2.232,1.272c0.328,1.676-1.06,1.234-1.879,1.346
			c-2.033,0.278-3.587,1.269-4.738,2.939c-0.556-0.023-1.111-0.046-1.668-0.069c-0.044-0.235-0.12-0.469-0.129-0.706
			c-0.251-6.737-0.249-6.726-6.794-6.363c-0.418,0.023-0.854-0.313-1.286-0.471c-1.754-0.644-2.438,0.142-2.477,1.835
			c-0.06,2.628-0.143,5.256-0.216,7.885c-0.299,0.317-0.598,0.634-0.896,0.952c-3.069-1.057-1.632-3.656-1.726-5.562
			c-0.245-4.97-2.395-6.579-7.221-5.05c-0.866,0.274-2.097,0.179-1.733,1.656c0.39,1.582,1.425,0.733,2.279,0.533
			c1.289-0.302,3.004-0.741,3.309,0.89c0.281,1.504-1.562,1.359-2.638,1.73c-1.011,0.349-2.033,0.712-2.777,1.596
			c-1.848,2.196-0.857,6.033,1.802,5.801c2.93-0.255,5.905,0.737,8.76-0.37C353.275,111.773,353.615,111.745,353.954,111.716z
			 M346.56,90.769c-0.055-3.132-0.12-6.264-0.157-9.397c-0.013-1.04-0.109-1.963-1.466-1.996c-1.43-0.035-1.435,0.978-1.444,1.972
			c-0.018,1.688,0.11,3.392-0.068,5.062c-0.167,1.554-1.123,2.882-2.774,2.775c-1.665-0.108-1.764-1.628-1.744-3.021
			c0.024-1.809,0.004-3.619-0.048-5.427c-0.024-0.837-0.535-1.292-1.381-1.351c-0.84-0.059-1.514,0.283-1.512,1.139
			c0.004,3.12-0.521,6.276,0.329,9.35c0.34,1.229,1.396,2.396,2.595,2.144c2.533-0.531,5.087-0.101,7.592-0.543
			C346.507,91.24,346.533,91.004,346.56,90.769z M250.035,50.773c-3.234,0.294-4.459,2.02-4.441,5.29
			c0.096,18.77,0.093,37.54,0.001,56.31c-0.016,3.256,1.193,5.009,4.44,5.294c1.18,0.818,2.532,0.646,3.844,0.647
			c7.58,0.011,15.159,0.011,22.739,0c1.312-0.001,2.665,0.172,3.845-0.645c0.229-0.259,0.657-0.516,0.66-0.777
			c0.082-7.955,0.118-15.911,0.171-23.866c0.012-1.676-1.183-1.451-2.258-1.518c-6.558-0.409-6.56-0.416-6.48-7.003
			c0.009-0.717,0.064-1.433,0.1-2.158c8.401,1.195,8.637,1.018,8.644-6.459c0.012-10.693,4.642-15.139,15.383-14.77
			c5.343,0.184,5.097,0.199,5.414,5.277c0.219,3.493-1.078,4.484-4.255,4.042c-0.939-0.13-1.945-0.066-2.881,0.115
			c-3.204,0.619-4.174,3.493-3.559,9.424c0.329,3.178,2.648,1.846,4.109,1.886c6.032,0.166,5.976,0.072,5.251,6.143
			c-0.293,2.454-1.277,3.635-3.918,3.572c-1.832-0.044-3.84-0.738-5.538,0.65c0.001,0.226,0.002,0.451,0.002,0.676
			c0.051,7.193,0.081,14.387,0.174,21.58c0.016,1.191-0.611,2.777,1.355,3.188c4.824,1.046,9.647,1.06,14.471-0.01
			c3.358-0.088,5.161-1.739,5.188-5.171c0.732-1.071,0.632-2.297,0.632-3.497c0.005-16.516,0.005-33.031,0-49.547
			c0-1.2,0.101-2.426-0.632-3.497c-0.021-2.992-1.345-4.861-4.467-5.177c-1.065-0.746-2.292-0.648-3.492-0.648
			c-17.003-0.004-34.007-0.004-51.009,0C252.326,50.125,251.101,50.027,250.035,50.773z M335.824,103.519
			c0.238,0.041,0.477,0.083,0.714,0.124c0,2.16,0.007,4.32-0.003,6.48c-0.006,1.172,0.105,2.256,1.686,2.14
			c1.376-0.101,1.321-1.159,1.323-2.133c0.009-4.097,0.017-8.193-0.002-12.291c-0.004-0.906,0.324-2.079-1.149-2.195
			c-1.177-0.092-2.388-0.343-2.89,1.332c-0.619,2.07-1.36,4.119-2.257,6.083c-0.34,0.746-0.06,2.244-1.428,2.11
			c-1.132-0.111-1.179-1.355-1.494-2.247c-0.723-2.04-1.486-4.065-2.207-6.106c-0.556-1.572-1.857-1.245-3.026-1.212
			c-1.486,0.042-1.25,1.191-1.254,2.111c-0.018,4.217-0.009,8.435,0,12.652c0.001,0.859,0.004,1.792,1.175,1.871
			c1.343,0.091,1.553-0.845,1.553-1.903c0-2.216,0-4.432,0-6.647c1.523,1.871,2.298,3.823,2.982,5.807
			c0.348,1.007,0.779,1.625,2.01,1.6c1.221-0.025,1.615-0.625,1.965-1.658C334.201,107.435,335.048,105.488,335.824,103.519z
			 M323.832,83.479c0,2.167-0.057,4.336,0.03,6.499c0.032,0.8,0.187,2.086,0.661,2.295c2.589,1.139,5.092,0.471,7.464-0.882
			c1.907-1.087,3.201-3.066,2.141-4.763c-1.633-2.612-2.037-4.669-0.505-7.455c0.664-1.207-0.61-2.844-2.052-3.39
			c-2.297-0.87-4.939-1.092-7.069-0.212c-1.565,0.647-0.459,3.052-0.651,4.66C323.723,81.3,323.826,82.396,323.832,83.479z
			 M389.54,106.842c-0.027-0.001-0.055-0.002-0.081-0.003c0-1.814,0.017-3.627-0.008-5.441c-0.012-0.865-0.162-2.029-1.277-1.666
			c-1.633,0.532-3.045-0.254-4.559-0.261c-3.142-0.014-5.922,3.059-5.92,6.51c0.002,3.275,2.403,5.788,5.482,5.953
			c1.007,0.054,2.865-1.269,2.909,0.642c0.045,1.937-2.01,1.579-3.418,1.586c-0.479,0.002-0.96-0.106-1.44-0.157
			c-0.772-0.081-1.702-0.652-2.016,0.677c-0.26,1.1,0.553,1.358,1.256,1.853c2.851,2.005,8.229-0.517,8.791-4.266
			C389.527,110.485,389.457,108.653,389.54,106.842z M372.557,59.744c0-1.519,0.009-2.589-0.003-3.661
			c-0.012-1.095,0.09-2.274-1.548-2.28c-1.801-0.007-1.345,1.375-1.358,2.335c-0.054,3.619,0.1,7.245-0.062,10.857
			c-0.13,2.896-0.394,5.014,3.93,4.667c2.537-0.204,4.838,0.157,6.149-2.349c1.467-2.803,1.734-5.838-0.065-8.58
			C378.004,58.305,375.565,58.521,372.557,59.744z M363.434,71.864c1.272-0.343,3.734,0.294,3.621-1.731
			c-0.131-2.341-2.213-0.447-3.402-0.639c-1.578-0.254-3.551-0.53-3.342-2.484c0.194-1.812,2.161-0.562,3.276-0.928
			c1.232-0.404,3.381,0.931,3.624-1.045c0.256-2.073-0.352-4.337-2.527-5.579c-2.037-1.162-4.101-0.872-5.684,0.63
			c-2.153,2.043-2.945,4.666-1.798,7.587C358.278,70.416,360.27,71.902,363.434,71.864z M393.671,65.528
			c0.037-4.399-1.911-6.682-5.709-6.688c-3.55-0.005-5.853,2.456-5.926,6.333c-0.077,4.102,2.194,6.665,5.925,6.685
			C391.627,71.879,393.637,69.65,393.671,65.528z M394.263,106.702c2.249,0,4.041-0.016,5.833,0.007
			c0.931,0.012,1.651-0.107,1.647-1.31c-0.007-2.135-0.365-4.071-2.422-5.254c-2.013-1.159-3.947-0.914-5.694,0.469
			c-2.323,1.839-2.917,6.242-1.311,8.928c1.543,2.582,4.988,3.711,7.918,2.631c0.835-0.308,1.635-0.608,1.39-1.714
			c-0.293-1.328-1.303-0.758-2.011-0.599C397.184,110.408,395.403,109.838,394.263,106.702z M381.272,86.387
			c2.057,0,3.831,0.003,5.605-0.001c0.86-0.002,1.738,0.041,1.76-1.217c0.035-2.157-0.379-4.11-2.407-5.307
			c-1.993-1.176-3.939-0.984-5.719,0.437c-2.412,1.925-3.001,6.152-1.307,8.93c1.607,2.636,4.954,3.71,7.949,2.611
			c0.862-0.316,1.62-0.633,1.4-1.727c-0.275-1.375-1.332-0.776-2.014-0.608C383.932,90.15,382.124,89.545,381.272,86.387z
			 M396.071,81.66c0.728,0.062,1.824,0.904,2.165-0.674c0.171-0.792-0.197-1.331-0.981-1.668c-2.12-0.913-5.658,0.12-6.318,2.064
			c-0.797,2.347-0.188,4.147,2.406,5.051c1.132,0.395,2.993,0.671,2.351,2.49c-0.563,1.593-2.013,0.559-3.126,0.433
			c-0.697-0.079-1.689-0.94-2.013,0.489c-0.276,1.219,0.494,1.671,1.503,2.026c2.756,0.969,6.007-0.052,6.809-2.336
			c1.093-3.109-1.038-4.285-3.363-5.333c-0.793-0.357-2.119-0.487-1.697-1.836C394.107,81.399,395.081,81.456,396.071,81.66z
			 M406.823,81.708c0.892,0.118,2.016,0.699,2.104-0.929c0.073-1.335-0.908-1.521-1.922-1.59c-2.243-0.153-4.488-0.079-5.393,2.464
			c-0.859,2.417,0.563,3.793,2.595,4.814c0.945,0.476,2.564,0.554,1.881,2.397c-0.633,1.706-1.771,0.5-2.703,0.517
			c-0.723,0.014-1.692-0.921-2.093,0.42c-0.363,1.218,0.448,1.681,1.444,2.046c2.737,1.004,6.055,0.005,6.857-2.246
			c1.097-3.074-0.919-4.332-3.296-5.376c-0.796-0.35-2.089-0.564-1.645-1.889C404.989,81.339,405.982,81.546,406.823,81.708z
			 M354.83,81.764c0.489,0.055,1.439,0.623,1.734-0.677c0.173-0.759,0.008-1.547-0.866-1.698c-2.415-0.417-4.941-0.743-6.354,1.911
			c-1.374,2.583,0.267,3.963,2.353,5.111c1.055,0.581,3.095,0.616,2.61,2.35c-0.484,1.735-2.159,0.806-3.399,0.626
			c-0.729-0.106-1.691-0.882-2.063,0.452c-0.344,1.232,0.492,1.657,1.487,2.009c2.753,0.975,6.134-0.034,6.861-2.259
			c0.991-3.028-0.935-4.365-3.354-5.383c-0.813-0.342-2.146-0.585-1.777-1.806C352.399,81.281,353.592,81.532,354.83,81.764z"/>
		<path fill-rule="evenodd" clip-rule="evenodd" fill="#EFF0F0" d="M250.035,117.667c-3.247-0.285-4.456-2.038-4.44-5.294
			c0.092-18.77,0.095-37.541-0.001-56.31c-0.018-3.27,1.207-4.996,4.441-5.29c19.33,0,38.662,0,57.993,0
			c3.122,0.316,4.446,2.185,4.467,5.177c0,18.847,0,37.694,0,56.541c-0.026,3.432-1.829,5.083-5.188,5.171
			c-4.823,0.004-9.647,0.007-14.471,0.01c-1.967-0.412-1.34-1.997-1.355-3.188c-0.093-7.192-0.123-14.386-0.174-21.579
			c0.102-0.226,0.101-0.451-0.002-0.677c1.698-1.388,3.706-0.694,5.538-0.65c2.641,0.063,3.625-1.118,3.918-3.572
			c0.725-6.071,0.781-5.977-5.251-6.143c-1.461-0.04-3.78,1.292-4.109-1.886c-0.615-5.931,0.354-8.805,3.559-9.424
			c0.936-0.181,1.941-0.245,2.881-0.115c3.177,0.441,4.474-0.55,4.255-4.042c-0.317-5.078-0.071-5.093-5.414-5.277
			c-10.741-0.37-15.371,4.077-15.383,14.77c-0.007,7.477-0.242,7.654-8.644,6.459c-0.035,0.725-0.091,1.441-0.1,2.158
			c-0.079,6.587-0.077,6.594,6.48,7.003c1.075,0.067,2.27-0.158,2.258,1.518c-0.053,7.955-0.089,15.911-0.171,23.866
			c-0.003,0.261-0.431,0.518-0.66,0.777C270.32,117.668,260.178,117.667,250.035,117.667z"/>
		<path fill-rule="evenodd" clip-rule="evenodd" fill="#EFF0F0" d="M335.824,103.519c-0.776,1.97-1.623,3.916-2.303,5.919
			c-0.35,1.033-0.744,1.633-1.965,1.658c-1.23,0.025-1.662-0.593-2.01-1.6c-0.685-1.984-1.459-3.936-2.982-5.807
			c0,2.216,0,4.432,0,6.647c0,1.058-0.21,1.994-1.553,1.903c-1.171-0.08-1.174-1.012-1.175-1.871c-0.009-4.218-0.018-8.435,0-12.652
			c0.004-0.92-0.232-2.069,1.254-2.111c1.169-0.033,2.471-0.36,3.026,1.212c0.721,2.041,1.484,4.066,2.207,6.106
			c0.315,0.892,0.362,2.136,1.494,2.247c1.368,0.134,1.088-1.364,1.428-2.11c0.896-1.964,1.638-4.013,2.257-6.083
			c0.502-1.675,1.713-1.424,2.89-1.332c1.474,0.116,1.146,1.289,1.149,2.195c0.019,4.097,0.011,8.194,0.002,12.291
			c-0.002,0.974,0.053,2.032-1.323,2.133c-1.58,0.116-1.691-0.968-1.686-2.14c0.01-2.16,0.003-4.32,0.003-6.48
			C336.301,103.601,336.063,103.56,335.824,103.519z"/>
		<path fill-rule="evenodd" clip-rule="evenodd" fill="#EFF0F0" d="M323.829,83.479c-0.003-1.083-0.106-2.179,0.021-3.247
			c0.192-1.608-0.914-4.013,0.651-4.66c2.13-0.88,4.772-0.658,7.069,0.212c1.441,0.546,2.716,2.184,2.052,3.39
			c-1.532,2.785-1.128,4.843,0.505,7.455c1.061,1.697-0.233,3.676-2.141,4.763c-2.372,1.353-4.875,2.021-7.464,0.882
			c-0.475-0.209-0.629-1.496-0.661-2.295C323.775,87.815,323.832,85.646,323.829,83.479z M326.918,86.304
			c-0.044,1.584-0.049,3.069,2.09,2.976c1.209-0.053,2.189-0.622,2.157-1.879c-0.048-1.879-1.536-2.572-3.105-2.881
			C326.246,84.163,327.247,85.729,326.918,86.304z M328.571,82.06c1.005-0.339,1.869-0.925,1.982-2.171
			c0.148-1.638-0.991-1.989-2.28-2.146c-1.583-0.192-1.323,0.952-1.362,1.877C326.862,80.778,327.069,81.774,328.571,82.06z"/>
		<path fill-rule="evenodd" clip-rule="evenodd" fill="#EFF0F0" d="M389.54,106.842c-0.083,1.811-0.013,3.643-0.28,5.426
			c-0.562,3.75-5.94,6.271-8.791,4.266c-0.703-0.494-1.516-0.752-1.256-1.853c0.313-1.329,1.243-0.757,2.016-0.677
			c0.48,0.05,0.961,0.159,1.44,0.157c1.408-0.007,3.463,0.351,3.418-1.586c-0.044-1.91-1.902-0.588-2.909-0.642
			c-3.079-0.165-5.48-2.678-5.482-5.953c-0.002-3.451,2.778-6.524,5.92-6.51c1.514,0.006,2.926,0.793,4.559,0.261
			c1.115-0.363,1.266,0.801,1.277,1.666c0.024,1.813,0.008,3.627,0.008,5.441C389.485,106.84,389.513,106.841,389.54,106.842z
			 M381.223,105.735c0.009,1.634,0.088,3.339,2.284,3.366c2.67,0.033,2.834-1.961,2.994-3.975c0.149-1.878-0.48-3.209-2.445-3.193
			C381.664,101.954,381.228,103.76,381.223,105.735z"/>
		<path fill-rule="evenodd" clip-rule="evenodd" fill="#EFF0F0" d="M372.557,59.744c3.009-1.223,5.447-1.438,7.043,0.99
			c1.8,2.741,1.532,5.777,0.065,8.58c-1.312,2.506-3.612,2.145-6.149,2.349c-4.323,0.347-4.06-1.771-3.93-4.667
			c0.161-3.612,0.008-7.238,0.062-10.857c0.014-0.961-0.442-2.342,1.358-2.335c1.638,0.006,1.536,1.185,1.548,2.28
			C372.565,57.154,372.557,58.225,372.557,59.744z M372.563,65.614c-0.314,1.951,0.037,3.824,2.469,3.771
			c2.654-0.057,2.669-2.337,2.702-4.28c0.027-1.594-0.061-3.372-2.237-3.426C372.917,61.617,372.27,63.298,372.563,65.614z"/>
		<path fill-rule="evenodd" clip-rule="evenodd" fill="#EFF0F0" d="M408.828,55.962c0.229-1.017,0.135-2.271,1.79-2.131
			c1.776,0.15,1.206,1.534,1.245,2.461c0.097,2.276,0.032,4.56,0.032,7.026c2.822-0.605,3.189-5.293,6.812-4.056
			c0.344,0.723-0.074,1.049-0.36,1.408c-3.427,4.297-3.41,4.282,0.181,8.549c0.514,0.611,1.934,1.208,0.816,2.216
			c-0.686,0.62-1.926,0.497-2.673-0.232c-1.428-1.393-2.734-2.91-4.049-4.33c-1.738,1.433,1.249,6.179-3.713,4.299
			C408.883,66.102,408.855,61.032,408.828,55.962z"/>
		<path fill-rule="evenodd" clip-rule="evenodd" fill="#EFF0F0" d="M344.354,68.966c0.021,0.905,1.96,1.007,1.014,2.263
			c-0.69,0.917-1.826,0.88-2.614,0.354c-1.039-0.693-1.816-0.675-2.948-0.194c-2.494,1.058-4.588,0.409-5.502-2.282
			c-0.737-2.168,1.23-4.54,3.871-5.125c0.981-0.218,2.864,0.722,2.615-1.36c-0.231-1.933-2.044-0.411-2.953-0.944
			c-0.888-0.522-2.228,1.481-2.673-0.411c-0.481-2.047,1.482-1.962,2.563-2.217c3.032-0.715,5.511,0.004,6.503,3.385
			C344.068,64.616,343.882,66.798,344.354,68.966z M339.093,66.115c-0.87,0.383-1.918,0.65-1.922,1.817
			c-0.003,1.121,0.952,1.272,1.788,1.228c0.966-0.05,2.014-0.279,1.851-1.6C340.697,66.66,340.021,66.178,339.093,66.115z"/>
		<path fill-rule="evenodd" clip-rule="evenodd" fill="#EFF0F0" d="M352.937,111.801c-2.854,1.107-5.83,0.115-8.76,0.37
			c-2.659,0.232-3.649-3.604-1.802-5.801c0.744-0.883,1.767-1.247,2.777-1.596c1.076-0.372,2.919-0.227,2.638-1.73
			c-0.305-1.63-2.02-1.191-3.309-0.89c-0.854,0.2-1.89,1.048-2.279-0.533c-0.363-1.477,0.867-1.382,1.733-1.656
			c4.826-1.529,6.976,0.08,7.221,5.05c0.094,1.906-1.344,4.505,1.726,5.562C352.9,110.985,352.918,111.393,352.937,111.801z
			 M348.076,109.099c0.068-1.804-0.028-2.53-1.052-2.439c-1.245,0.111-2.466,0.481-2.619,1.927
			c-0.087,0.814,0.735,1.163,1.497,1.186C347.075,109.81,348.058,109.52,348.076,109.099z"/>
		<path fill-rule="evenodd" clip-rule="evenodd" fill="#EFF0F0" d="M346.48,91.475c-2.505,0.443-5.059,0.012-7.592,0.543
			c-1.198,0.252-2.255-0.914-2.595-2.144c-0.851-3.073-0.325-6.229-0.329-9.35c-0.002-0.856,0.672-1.198,1.512-1.139
			c0.846,0.059,1.356,0.514,1.381,1.351c0.052,1.808,0.072,3.618,0.048,5.427c-0.02,1.393,0.079,2.913,1.744,3.021
			c1.651,0.107,2.607-1.221,2.774-2.775c0.179-1.67,0.051-3.374,0.068-5.062c0.01-0.994,0.015-2.006,1.444-1.972
			c1.356,0.033,1.453,0.956,1.466,1.996c0.037,3.133,0.103,6.265,0.157,9.397C346.465,90.997,346.438,91.232,346.48,91.475z"/>
		<path fill-rule="evenodd" clip-rule="evenodd" fill="#EFF0F0" d="M366.348,107.514c1.151-1.67,2.705-2.661,4.738-2.939
			c0.819-0.112,2.207,0.33,1.879-1.346c-0.234-1.195-1.188-1.415-2.232-1.272c-0.593,0.081-1.167,0.291-1.755,0.422
			c-0.546,0.123-1.22,0.535-1.513-0.29c-0.248-0.694-0.274-1.501,0.577-1.841c1.935-0.773,3.904-1.241,5.942-0.296
			c1.827,0.847,1.979,2.448,2.185,4.202c0.264,2.235-0.998,4.662,1.25,6.74c0.875,0.81-0.733,1.916-1.532,1.492
			c-2.013-1.069-3.786-0.333-5.706,0.038c-1.767,0.341-2.81-1.082-3.934-2.153C366.281,109.352,366.314,108.434,366.348,107.514z
			 M371.126,109.789c1.246-0.101,2.028-0.623,1.961-2.022c-0.048-0.992-0.656-1.185-1.45-1.079c-1.14,0.152-2.242,0.612-2.307,1.868
			C369.279,109.537,370.17,109.889,371.126,109.789z"/>
		<path fill-rule="evenodd" clip-rule="evenodd" fill="#EFF0F0" d="M353.778,109.625c0.073-2.628,0.156-5.256,0.216-7.885
			c0.039-1.693,0.723-2.479,2.477-1.835c0.432,0.158,0.868,0.494,1.286,0.471c6.545-0.363,6.543-0.374,6.794,6.363
			c0.009,0.236,0.085,0.47,0.129,0.706c-0.038,1.459-0.077,2.919-0.116,4.378c-2.189,1.069-3.137,0.379-3.012-2.041
			c0.081-1.559,0.063-3.127-0.004-4.688c-0.047-1.118,0.392-2.685-1.406-2.787c-1.646-0.094-2.772,0.934-2.973,2.543
			c-0.207,1.66-0.131,3.358-0.119,5.039c0.017,2.429-0.964,3.083-3.096,1.827C353.896,111.02,353.837,110.322,353.778,109.625z"/>
		<path fill-rule="evenodd" clip-rule="evenodd" fill="#EFF0F0" d="M407.265,66.063c-0.722,2.172-1.324,4.379-3.807,5.356
			c-3.184,1.253-6.525-0.03-7.82-3.126c-1.507-3.601-0.174-7.639,2.975-9.01c3.078-1.34,6.298-0.097,7.853,3.058
			c0.264,0.535,0.425,1.12,0.634,1.681C407.153,64.702,407.209,65.382,407.265,66.063z M398.037,65.463
			c0.255,1.986,0.689,4.089,3.206,3.938c2.526-0.151,2.689-2.301,2.679-4.314c-0.011-1.983-0.56-3.806-2.86-3.768
			C398.562,61.361,398.195,63.429,398.037,65.463z"/>
		<path fill-rule="evenodd" clip-rule="evenodd" fill="#EFF0F0" d="M363.434,71.864c-3.164,0.038-5.155-1.449-6.231-4.19
			c-1.147-2.921-0.355-5.543,1.798-7.587c1.583-1.502,3.646-1.792,5.684-0.63c2.176,1.242,2.783,3.506,2.527,5.579
			c-0.243,1.977-2.392,0.642-3.624,1.045c-1.115,0.366-3.082-0.884-3.276,0.928c-0.209,1.955,1.764,2.23,3.342,2.484
			c1.189,0.192,3.271-1.702,3.402,0.639C367.168,72.158,364.706,71.521,363.434,71.864z M360.244,62.967
			c0.201,1.106,1.178,0.839,1.912,0.808c0.715-0.031,1.845,0.464,1.855-0.946c0.008-1.046-0.732-1.499-1.633-1.527
			C361.35,61.27,360.531,61.716,360.244,62.967z"/>
		<path fill-rule="evenodd" clip-rule="evenodd" fill="#EFF0F0" d="M393.671,65.528c-0.034,4.122-2.044,6.351-5.71,6.33
			c-3.73-0.021-6.002-2.583-5.925-6.685c0.073-3.877,2.376-6.338,5.926-6.333C391.76,58.846,393.708,61.129,393.671,65.528z
			 M390.827,65.357c-0.006-2.215-0.499-4.04-2.828-4.011c-2.506,0.031-2.991,2.038-2.973,4.08c0.02,2.068,0.65,4.061,3.109,3.976
			C390.746,69.311,390.669,67.019,390.827,65.357z"/>
		<path fill-rule="evenodd" clip-rule="evenodd" fill="#EFF0F0" d="M326.986,70.426c-0.313,1.235-1.21,1.416-2.244,1.14
			c-1.117-0.297-0.895-1.3-0.899-2.1c-0.024-4.1-0.023-8.2-0.002-12.301c0.005-0.92-0.212-2.113,1.229-2.153
			c2.409-0.069,4.821-0.035,7.232-0.021c0.879,0.005,1.309,0.492,1.228,1.373c-0.069,0.748-0.596,0.972-1.252,0.992
			c-0.602,0.019-1.234-0.104-1.801,0.041c-1.332,0.342-3.621-1.223-3.602,1.918c0.016,2.567,1.614,2.556,3.403,2.496
			c2.188-0.073,3.034,0.69,1.708,2.781c-5.14-0.222-5.142-0.222-5.079,4.775C326.912,69.72,326.96,70.072,326.986,70.426z"/>
		<path fill-rule="evenodd" clip-rule="evenodd" fill="#EFF0F0" d="M365.861,82.789c0.3-2-0.215-5.091,3.472-2.544
			c0.185,0.127,0.787-0.393,1.213-0.566c3.177-1.295,5.072-0.182,5.797,3.108c0.005,2.648,0.009,5.297,0.013,7.945
			c-0.258,1.272-1.118,1.412-2.167,1.118c-0.917-0.258-0.826-1.052-0.832-1.753c-0.016-1.794,0.049-3.591-0.031-5.382
			c-0.048-1.07,0.558-2.667-1.357-2.721c-1.618-0.045-2.778,0.876-2.975,2.508c-0.185,1.534-0.047,3.105-0.087,4.659
			c-0.033,1.25,0.412,2.927-1.673,2.843c-2.002-0.081-0.94-1.773-1.206-2.757c-0.123-0.454-0.114-0.943-0.166-1.417
			C365.861,86.149,365.861,84.469,365.861,82.789z"/>
		<path fill-rule="evenodd" clip-rule="evenodd" fill="#EFF0F0" d="M394.263,106.702c1.141,3.136,2.921,3.706,5.351,3.159
			c0.708-0.159,1.718-0.729,2.011,0.599c0.245,1.105-0.555,1.406-1.39,1.714c-2.93,1.08-6.375-0.049-7.918-2.631
			c-1.606-2.687-1.013-7.089,1.311-8.928c1.747-1.382,3.682-1.627,5.694-0.469c2.057,1.184,2.415,3.12,2.422,5.254
			c0.004,1.202-0.717,1.321-1.647,1.31C398.304,106.686,396.512,106.702,394.263,106.702z M394.509,104.693
			c1.593-0.744,3.208,0.659,4.144-1.041c0.376-0.683-0.413-1.34-1.129-1.569C395.925,101.57,395.03,102.285,394.509,104.693z"/>
		<path fill-rule="evenodd" clip-rule="evenodd" fill="#EFF0F0" d="M381.272,86.387c0.852,3.159,2.659,3.764,5.269,3.117
			c0.682-0.168,1.738-0.767,2.014,0.608c0.22,1.094-0.538,1.411-1.4,1.727c-2.995,1.099-6.342,0.025-7.949-2.611
			c-1.694-2.777-1.105-7.004,1.307-8.93c1.779-1.421,3.726-1.613,5.719-0.437c2.028,1.197,2.442,3.15,2.407,5.307
			c-0.021,1.258-0.899,1.215-1.76,1.217C385.104,86.39,383.329,86.387,381.272,86.387z M381.36,84.08
			c1.586-0.224,3.188,0.874,4.207-0.752c0.345-0.55-0.493-1.308-1.193-1.519C382.626,81.283,381.776,82.138,381.36,84.08z"/>
		<path fill-rule="evenodd" clip-rule="evenodd" fill="#EFF0F0" d="M396.071,81.66c-0.99-0.205-1.964-0.261-2.266,0.706
			c-0.422,1.349,0.904,1.479,1.697,1.836c2.325,1.048,4.456,2.224,3.363,5.333c-0.802,2.284-4.053,3.305-6.809,2.336
			c-1.009-0.355-1.779-0.807-1.503-2.026c0.323-1.429,1.315-0.568,2.013-0.489c1.113,0.126,2.563,1.16,3.126-0.433
			c0.643-1.819-1.219-2.095-2.351-2.49c-2.594-0.904-3.203-2.704-2.406-5.051c0.66-1.944,4.198-2.977,6.318-2.064
			c0.784,0.338,1.152,0.876,0.981,1.668C397.896,82.564,396.799,81.722,396.071,81.66z"/>
		<path fill-rule="evenodd" clip-rule="evenodd" fill="#EFF0F0" d="M406.821,81.704c-0.839-0.158-1.832-0.364-2.167,0.634
			c-0.444,1.325,0.849,1.539,1.645,1.889c2.377,1.044,4.393,2.302,3.296,5.376c-0.803,2.251-4.12,3.25-6.857,2.246
			c-0.996-0.366-1.808-0.828-1.444-2.046c0.4-1.342,1.37-0.407,2.093-0.42c0.933-0.017,2.07,1.189,2.703-0.517
			c0.684-1.843-0.936-1.921-1.881-2.397c-2.032-1.021-3.454-2.398-2.595-4.814c0.904-2.542,3.149-2.617,5.393-2.464
			c1.014,0.069,1.995,0.255,1.922,1.59C408.839,82.408,407.715,81.827,406.821,81.704z"/>
		<path fill-rule="evenodd" clip-rule="evenodd" fill="#EFF0F0" d="M354.83,81.764c-1.238-0.232-2.431-0.483-2.768,0.635
			c-0.369,1.221,0.965,1.464,1.777,1.806c2.419,1.018,4.345,2.355,3.354,5.383c-0.728,2.226-4.108,3.234-6.861,2.259
			c-0.995-0.352-1.831-0.776-1.487-2.009c0.372-1.333,1.334-0.558,2.063-0.452c1.24,0.18,2.915,1.109,3.399-0.626
			c0.484-1.734-1.556-1.77-2.61-2.35c-2.086-1.148-3.727-2.528-2.353-5.111c1.412-2.654,3.938-2.328,6.354-1.911
			c0.874,0.151,1.039,0.939,0.866,1.698C356.27,82.387,355.319,81.819,354.83,81.764z"/>
		<path fill-rule="evenodd" clip-rule="evenodd" fill="#EFF0F0" d="M345.939,63.254c2.252-3.893,4.709-5.181,8.123-4.343
			c0.913,0.224,1.628,0.555,1.598,1.593c-0.037,1.274-0.971,1.2-1.82,1.011c-3.193-0.706-4.521,0.792-4.548,3.811
			c-0.028,3.179,1.624,4.292,4.65,3.758c0.748-0.132,1.784-0.515,1.838,0.905c0.044,1.145-0.866,1.304-1.651,1.572
			c-3.293,1.124-5.687-0.084-8.156-4.104C345.962,66.057,345.951,64.655,345.939,63.254z"/>
		<path fill-rule="evenodd" clip-rule="evenodd" fill="#EFF0F0" d="M403.823,105.984c0-1.209,0.001-2.417,0.001-3.626
			c0.029-0.738,0.059-1.477,0.088-2.214c1.918-1.057,4.109,0.696,6.057-0.615c0.459-0.31,1.151,0.09,1.273,0.847
			c0.145,0.897,0.026,1.989-0.885,2.1c-4.94,0.601-3.163,4.369-3.327,7.069c-0.141,2.313-0.537,3.612-3.107,2.209
			c-0.037-0.469-0.074-0.938-0.111-1.407c0.004-0.728,0.009-1.457,0.014-2.185C403.824,107.436,403.824,106.71,403.823,105.984z"/>
		<path fill-rule="evenodd" clip-rule="evenodd" fill="#EFF0F0" d="M363.046,79.7c0.064,0.303,0.129,0.606,0.193,0.909
			c-0.109,0.23-0.111,0.46-0.007,0.692c0,0.493,0,0.986,0,1.479c0,1.686,0,3.373,0,5.059c0,0.735,0,1.47,0,2.205
			c-0.039,0.49-0.078,0.98-0.117,1.47c-1.251,0.553-2.892,2.197-2.981-0.89c-0.145-5-0.347-10.017,1.322-14.861
			c0.3,0.157,0.599,0.315,0.898,0.473C362.121,77.483,360.759,78.956,363.046,79.7z"/>
		<path fill-rule="evenodd" clip-rule="evenodd" fill="#243A4B" d="M308.028,50.773c-19.331,0-38.663,0-57.993,0
			c1.065-0.746,2.291-0.648,3.492-0.648c17.002-0.004,34.006-0.004,51.009,0C305.736,50.125,306.963,50.027,308.028,50.773z"/>
		<path fill-rule="evenodd" clip-rule="evenodd" fill="#243A4B" d="M312.495,112.491c0-18.847,0-37.694,0-56.541
			c0.732,1.071,0.632,2.296,0.632,3.497c0.005,16.516,0.005,33.032,0,49.547C313.127,110.194,313.228,111.42,312.495,112.491z"/>
		<path fill-rule="evenodd" clip-rule="evenodd" fill="#243A4B" d="M250.035,117.667c10.143,0,20.285,0.001,30.428,0.002
			c-1.18,0.816-2.533,0.643-3.845,0.645c-7.58,0.011-15.159,0.011-22.739,0C252.567,118.313,251.215,118.485,250.035,117.667z"/>
		<path fill-rule="evenodd" clip-rule="evenodd" fill="#243A4B" d="M363.232,87.838c0-1.687,0-3.373,0-5.059
			c0.876,0.003,1.753,0.007,2.629,0.01c0,1.68,0,3.36,0,5.041C364.985,87.833,364.108,87.835,363.232,87.838z"/>
		<path fill-rule="evenodd" clip-rule="evenodd" fill="#243A4B" d="M407.265,66.063c-0.056-0.681-0.111-1.361-0.166-2.041
			c2.259-2.326,0.066-5.606,1.729-8.06c0.027,5.07,0.055,10.14,0.081,15.21C407.582,69.72,408.811,67.444,407.265,66.063z"/>
		<path fill-rule="evenodd" clip-rule="evenodd" fill="#243A4B" d="M292.837,117.672c4.823-0.003,9.647-0.006,14.471-0.01
			C302.484,118.732,297.661,118.719,292.837,117.672z"/>
		<path fill-rule="evenodd" clip-rule="evenodd" fill="#243A4B" d="M345.939,63.254c0.012,1.401,0.022,2.803,0.033,4.204
			c-0.54,0.503-1.079,1.006-1.619,1.509c-0.472-2.168-0.285-4.35-0.125-6.53C344.799,62.709,345.369,62.981,345.939,63.254z"/>
		<path fill-rule="evenodd" clip-rule="evenodd" fill="#243A4B" d="M326.986,70.426c-0.026-0.354-0.074-0.706-0.078-1.059
			c-0.063-4.997-0.061-4.997,5.079-4.775C328.332,64.833,327.512,67.502,326.986,70.426z"/>
		<path fill-rule="evenodd" clip-rule="evenodd" fill="#243A4B" d="M376.355,90.731c-0.004-2.648-0.008-5.297-0.013-7.945
			C377.37,85.433,377.309,88.082,376.355,90.731z"/>
		<path fill-rule="evenodd" clip-rule="evenodd" fill="#243A4B" d="M364.563,111.823c0.039-1.459,0.078-2.919,0.116-4.378
			c0.557,0.023,1.112,0.046,1.668,0.069c-0.033,0.919-0.066,1.838-0.101,2.757C365.687,110.788,365.125,111.306,364.563,111.823z"/>
		<path fill-rule="evenodd" clip-rule="evenodd" fill="#243A4B" d="M363.046,79.7c-2.287-0.744-0.925-2.217-0.691-3.464
			C365.396,76.829,362.362,78.636,363.046,79.7z"/>
		<path fill-rule="evenodd" clip-rule="evenodd" fill="#243A4B" d="M403.912,100.144c-0.029,0.738-0.059,1.476-0.088,2.214
			C403.088,101.589,403.223,100.855,403.912,100.144z"/>
		<path fill-rule="evenodd" clip-rule="evenodd" fill="#243A4B" d="M353.778,109.625c0.059,0.697,0.117,1.394,0.176,2.091
			c-0.339,0.028-0.679,0.056-1.018,0.084c-0.019-0.408-0.036-0.816-0.055-1.224C353.181,110.26,353.479,109.943,353.778,109.625z"/>
		<path fill-rule="evenodd" clip-rule="evenodd" fill="#243A4B" d="M403.823,105.984c0.001,0.726,0.001,1.452,0.002,2.178
			C403.122,107.437,403.124,106.711,403.823,105.984z"/>
		<path fill-rule="evenodd" clip-rule="evenodd" fill="#243A4B" d="M363.115,91.513c0.039-0.49,0.078-0.98,0.117-1.47
			C363.747,90.577,363.587,91.057,363.115,91.513z"/>
		<path fill-rule="evenodd" clip-rule="evenodd" fill="#243A4B" d="M403.812,110.347c0.037,0.469,0.074,0.938,0.111,1.407
			C403.432,111.32,403.307,110.859,403.812,110.347z"/>
		<path fill-rule="evenodd" clip-rule="evenodd" fill="#243A4B" d="M346.48,91.475c-0.042-0.243-0.016-0.479,0.079-0.706
			C346.533,91.004,346.507,91.24,346.48,91.475z"/>
		<path fill-rule="evenodd" clip-rule="evenodd" fill="#243A4B" d="M363.232,81.301c-0.104-0.231-0.103-0.462,0.007-0.692
			C363.237,80.84,363.234,81.07,363.232,81.301z"/>
		<path fill-rule="evenodd" clip-rule="evenodd" fill="#243A4B" d="M291.306,92.228c0.103,0.226,0.104,0.451,0.002,0.677
			C291.308,92.679,291.307,92.454,291.306,92.228z"/>
		<path fill-rule="evenodd" clip-rule="evenodd" fill="#37485B" d="M326.918,86.304c0.329-0.575-0.672-2.141,1.142-1.784
			c1.569,0.309,3.058,1.002,3.105,2.881c0.032,1.257-0.948,1.826-2.157,1.879C326.869,89.374,326.874,87.888,326.918,86.304z"/>
		<path fill-rule="evenodd" clip-rule="evenodd" fill="#37485B" d="M328.571,82.06c-1.502-0.285-1.709-1.281-1.66-2.439
			c0.039-0.925-0.221-2.069,1.362-1.877c1.289,0.156,2.429,0.507,2.28,2.146C330.44,81.134,329.576,81.72,328.571,82.06z"/>
		<path fill-rule="evenodd" clip-rule="evenodd" fill="#37485B" d="M381.223,105.735c0.005-1.976,0.441-3.781,2.833-3.802
			c1.965-0.017,2.595,1.315,2.445,3.193c-0.16,2.014-0.324,4.008-2.994,3.975C381.311,109.075,381.231,107.37,381.223,105.735z"/>
		<path fill-rule="evenodd" clip-rule="evenodd" fill="#37485B" d="M372.563,65.614c-0.293-2.316,0.354-3.998,2.934-3.935
			c2.177,0.054,2.265,1.832,2.237,3.426c-0.033,1.943-0.048,4.224-2.702,4.28C372.6,69.438,372.248,67.565,372.563,65.614z"/>
		<path fill-rule="evenodd" clip-rule="evenodd" fill="#37485B" d="M339.093,66.115c0.929,0.063,1.604,0.545,1.717,1.446
			c0.163,1.32-0.885,1.549-1.851,1.6c-0.836,0.044-1.791-0.107-1.788-1.228C337.175,66.765,338.223,66.498,339.093,66.115z"/>
		<path fill-rule="evenodd" clip-rule="evenodd" fill="#37485B" d="M348.076,109.099c-0.019,0.421-1.001,0.71-2.174,0.674
			c-0.762-0.023-1.584-0.372-1.497-1.186c0.153-1.446,1.374-1.816,2.619-1.927C348.048,106.569,348.145,107.295,348.076,109.099z"/>
		<path fill-rule="evenodd" clip-rule="evenodd" fill="#37485B" d="M371.128,109.79c-0.958,0.099-1.849-0.253-1.798-1.234
			c0.064-1.255,1.167-1.716,2.307-1.868c0.794-0.106,1.402,0.087,1.45,1.079C373.154,109.166,372.372,109.688,371.128,109.79z"/>
		<path fill-rule="evenodd" clip-rule="evenodd" fill="#37485B" d="M398.037,65.463c0.158-2.034,0.524-4.102,3.024-4.144
			c2.301-0.038,2.85,1.785,2.86,3.768c0.011,2.014-0.152,4.163-2.679,4.314C398.727,69.552,398.292,67.449,398.037,65.463z"/>
		<path fill-rule="evenodd" clip-rule="evenodd" fill="#37485B" d="M360.244,62.967c0.287-1.251,1.105-1.697,2.135-1.665
			c0.9,0.028,1.641,0.48,1.633,1.527c-0.011,1.41-1.141,0.915-1.855,0.946C361.422,63.806,360.445,64.073,360.244,62.967z"/>
		<path fill-rule="evenodd" clip-rule="evenodd" fill="#37485B" d="M390.827,65.357c-0.158,1.662-0.081,3.954-2.691,4.044
			c-2.459,0.085-3.09-1.908-3.109-3.976c-0.019-2.042,0.467-4.049,2.973-4.08C390.328,61.317,390.821,63.142,390.827,65.357z"/>
		<path fill-rule="evenodd" clip-rule="evenodd" fill="#37485B" d="M394.509,104.693c0.521-2.408,1.416-3.123,3.015-2.61
			c0.716,0.229,1.505,0.886,1.129,1.569C397.717,105.352,396.102,103.949,394.509,104.693z"/>
		<path fill-rule="evenodd" clip-rule="evenodd" fill="#37485B" d="M381.36,84.08c0.416-1.941,1.266-2.797,3.014-2.271
			c0.7,0.21,1.538,0.968,1.193,1.519C384.549,84.953,382.946,83.856,381.36,84.08z"/>
	</g>
</g>
</svg>
