<?xml version="1.0" encoding="utf-8"?>
<!-- Generator: Adobe Illustrator 16.0.3, SVG Export Plug-In . SVG Version: 6.00 Build 0)  -->
<!DOCTYPE svg PUBLIC "-//W3C//DTD SVG 1.1//EN" "http://www.w3.org/Graphics/SVG/1.1/DTD/svg11.dtd">
<svg version="1.1" id="Capa_1" xmlns="http://www.w3.org/2000/svg" xmlns:xlink="http://www.w3.org/1999/xlink" x="0px" y="0px"
	 width="626px" height="626px" viewBox="0 0 626 626" enable-background="new 0 0 626 626" xml:space="preserve">
<path fill-rule="evenodd" clip-rule="evenodd" fill="#F6DBBB" d="M417.922,358.843c3.299-0.155,6.604-0.519,9.896-0.428
	c13.435,0.371,23.347,9.672,25.185,23.459c-5.527-0.033-10.946,0.47-16.064,2.84c-4.153,1.925-7.247,4.762-9.251,9.639
	c11.719-6.987,18.257-8.612,25.63-6.596c-0.655,9.673-5.72,15.939-14.637,19.508c-5.079,2.033-9.968,4.543-15.506,7.098
	c9.746,6.775,12.533,16.299,12.014,27.332c-0.283,6.01-2.719,10.816-7.753,13.729c-13.18,7.621-26.972,12.219-42.187,6.129
	c-1.422-0.57-2.513-0.209-3.807,0.102c-9.202,2.205-18.409,4.398-27.643,6.469c-2.975,0.666-4.767,2.197-6.188,4.984
	c-6.83,13.408-14.961,25.936-25.862,36.49c-8.528,8.256-18.275,14.443-29.904,17.164c-3.007,0.703-3.95,2.643-5.035,4.887
	c-10.128,20.947-20.309,41.871-30.348,62.861c-1.443,3.02-3.033,4.311-6.689,4.23c-53.116-1.143-106.237-2.074-159.355-3.107
	c-1.384-0.027-3.337,0.914-4.079-0.773c-0.654-1.488,1.012-2.656,1.791-3.859c23.98-37.006,47.957-74.014,72.062-110.939
	c1.916-2.934,2.118-5.301,1.065-8.656c-6.527-20.813-4.887-41.742-0.014-62.578c6.857-29.322,19.2-56.551,32.511-83.356
	c2.946-5.935,9.846-7.558,14.885-11.22c0.051,10.29,0.121,20.581,0.146,30.872c0.021,8.199-0.004,8.199,7.494,3.937
	c2.714-1.108,5.428-2.217,8.143-3.324c3.416-1.594,6.922-3.022,10.222-4.826c3.524-1.928,7.011-2.703,10.816-1.08
	c7.389,2.316,14.776,4.634,22.165,6.95c10.465,2.522,21.004,4.609,31.755,5.454c6.534,0.513,12.806,1.705,17.624,6.715
	c0.951,2.932,1.902,5.865,2.854,8.799c-0.062,2.357-0.123,4.716-0.184,7.074c-0.913,1.102-0.867,2.453-0.978,3.765
	c-0.255,0.745-0.51,1.489-0.765,2.234c-5.182,11.897-14.355,18.425-27.103,20.14c-0.952,0.047-1.903,0.094-2.855,0.141
	c-1.405-0.106-2.825-0.322-4.079,0.602c-4.979-0.091-9.959-0.182-14.939-0.271c-5.228-0.615-10.463-1.174-15.68-1.873
	c-1.78-0.238-3.557-1.099-5.194,0.273c-4.409,3.694-9.408,6.675-13.313,10.979c-6.633,4.4-13.295,8.764-18.565,14.871
	c-5.051,1.646-8.319,4.494-7.477,10.441c0.278,1.959,0.048,3.99,0.04,5.988c-0.037,9.992,2.348,12.404,12.309,12.404
	c49.959,0,99.917-0.002,149.875-0.004c1.665,0,3.332-0.053,4.995-0.004c2.492,0.076,3.353-0.689,2.187-3.24
	c-2.045-4.477-2.601-9.26-2.343-14.146c1.789-7.391,6.531-12.4,12.838-16.275c6.599-4.053,14.148-5.439,21.299-7.949
	c7.376-0.254,7.374-0.254,7.372-7.812c-0.003-10.958-0.073-21.917,0.032-32.874C417.371,367.753,416.704,363.251,417.922,358.843z
	 M290.315,381.814c3.825-0.434,8.971-0.615,13.984-1.91c3.26-0.842,4.784-3,4.468-6.232c-0.468-4.778-1.276-9.522-1.758-14.299
	c-0.241-2.396-1.245-3.52-3.692-3.727c-5.776-0.486-11.533-1.193-17.305-1.736c-2.307-0.217-3.637,0.74-4.156,3.227
	c-0.916,4.381-1.774,8.752-2.443,13.189C278.013,379.609,279.646,381.771,290.315,381.814z M398.51,457.941
	c2.581-0.949,7.924,2.258,8.179-3.734c0.426-9.986-1.824-19.475-7.81-27.756c-0.941-1.303-2.064-2.68-4.084-2.33
	c-5.274,0.912-10.873,7.77-11.011,13.121c-0.11,4.307,1.446,8.146,2.737,12.08C389.257,457.654,389.572,457.865,398.51,457.941z"/>
<path fill-rule="evenodd" clip-rule="evenodd" fill="#424244" d="M417.922,358.843c-1.218,4.408-0.551,8.91-0.594,13.365
	c-0.105,10.957-0.035,21.916-0.032,32.874c0.002,7.558,0.004,7.558-7.373,7.812c-0.079-15.004-0.158-30.01-0.238-45.014
	c0.027-13.127,0.055-26.254,0.081-39.381c1.258-0.98,3.129-1.172,3.868-3.074c-1.291-0.221-2.522-0.432-3.755-0.643
	c-0.062-7.363-0.124-14.727-0.186-22.09c0.052-0.664,0.147-1.328,0.147-1.992c0.013-59.991-0.037-119.982,0.131-179.973
	c0.013-4.561-2.381-4.143-5.256-4.142c-61.158,0.022-122.316,0.029-183.474,0.06c-1.479,0-2.96,0.247-4.44,0.379
	c-0.938,0.363-0.78,1.06-0.541,1.782c0.002,0.709,0.004,1.417,0.008,2.126c-0.42,3.943-0.432,7.885,0.012,11.827
	c-0.006,2.062-0.012,4.123-0.018,6.184c-0.422,7.94-0.414,15.88,0,23.82c0.005,2.394,0.01,4.788,0.014,7.182
	c-0.438,6.271-0.44,12.543,0.004,18.814c-0.004,7.392-0.008,14.785-0.012,22.177c-0.406,2.61-0.412,5.219,0.003,7.829
	c-0.001,2.725-0.001,5.45-0.001,8.176c-0.442,8.271-0.416,16.542,0.004,24.814c0,12.742,0,25.484-0.001,38.226
	c0.001,19.691,0.003,39.384,0.005,59.076c-7.498,4.263-7.474,4.263-7.494-3.937c-0.025-10.291-0.096-20.582-0.146-30.872
	c0.064-18.15,0.178-36.302,0.186-54.453c0.023-57.626,0.008-115.252,0.012-172.879c0-9.279,2.641-11.994,11.751-11.994
	c61.624,0.003,123.247,0.016,184.87,0.039c9.288,0.003,11.705,2.464,11.708,11.908c0.015,47.633,0.002,95.266,0.041,142.899
	c0.003,2.973-0.408,5.989,0.475,8.923c-0.863,9.42-0.349,18.862-0.334,28.291c0.017,10.424-0.562,20.862,0.362,31.277
	c-0.463,0.708-0.555,1.412,0.022,2.107c-0.981,8.782-0.408,17.596-0.387,26.389c0.025,10.451-0.618,20.918,0.407,31.356
	C417.784,358.363,417.841,358.605,417.922,358.843z M313.37,105.849c3.809,0,7.618-0.023,11.428,0.009
	c2.152,0.018,4.073-0.216,4.161-2.999c0.088-2.773-1.699-3.186-3.935-3.177c-7.949,0.034-15.898,0.035-23.848,0.004
	c-2.162-0.008-4.166,0.249-4.203,2.967c-0.041,3.02,2.131,3.246,4.473,3.213C305.42,105.812,309.396,105.852,313.37,105.849z"/>
<path fill-rule="evenodd" clip-rule="evenodd" fill="#F2F7F7" d="M453.316,387.757c-7.373-2.017-13.911-0.392-25.63,6.596
	c2.004-4.877,5.098-7.714,9.251-9.639c5.118-2.37,10.537-2.873,16.064-2.84c21.443,2.819,40.828,11.521,59.952,20.971
	c0.741,0.366,1.509,0.691,2.291,0.959c0.271,0.092,0.621-0.053,1.42-0.146c-7.25-10.508-14.63-20.665-20.763-31.612
	c-5.778-10.318-11.218-20.797-13.158-32.658c-2.786-17.027,3.236-29.025,18.616-36.981c12.001-6.208,25.062-8.702,38.271-10.519
	c6.421-0.883,12.891-1.414,19.648-2.138c-1.013-1.974-2.965-2.132-4.462-2.819c-16.794-7.72-33.545-15.455-47.63-27.851
	c-16.211-14.267-19.534-30.984-9.714-50.145c5.533-10.795,13.392-19.822,21.685-28.518c2.182-2.287,4.388-4.549,6.581-6.823
	c0.357-0.447,1.102-1.172,1.013-1.295c-0.722-0.999-1.532-0.32-2.307,0.058c-14.524,4.843-29.128,9.424-44.44,11.027
	c-9.796,1.026-19.632,1.466-29.215-1.557c-11.965-3.774-19.464-12.833-19.846-25.06c4.115,10.858,10.81,17.593,20.81,20.59
	c6.597,1.976,13.426,2.275,20.283,1.947c22.013-1.053,42.213-8.646,62.138-17.224c4.735-2.039,9.429-4.176,14.167-6.208
	c1.311-0.562,2.565-1.753,4.22-0.72c0.486,1.797-1.173,2.131-2.1,2.906c-17.232,14.41-32.894,30.224-43.894,50.064
	c-12.899,23.264-9.67,37.407,11.892,53.23c14.376,10.55,30.732,17.176,47.119,23.74c6.458,2.586,12.919,5.166,19.308,8.679
	c-9.096,0.7-18.211,1.21-27.282,2.144c-16.576,1.705-32.993,4.297-48.457,10.934c-19.863,8.523-24.662,19.229-17.708,39.76
	c6.312,18.637,16.883,35.018,27.755,51.194c4.803,7.146,9.936,14.071,15.31,21.649c-2.678,0.166-3.998-1.152-5.437-1.977
	c-19.945-11.447-40.146-22.338-62.65-28.027C462.156,388.371,457.866,386.878,453.316,387.757z"/>
<path fill-rule="evenodd" clip-rule="evenodd" fill="#F6DBBB" d="M417.708,298.261c-0.924-10.415-0.346-20.853-0.362-31.277
	c-0.015-9.429-0.529-18.871,0.334-28.291c9.252-3.131,18.274-7.317,28.479-5.95c16.962,2.272,27.954,22.799,20.335,38.141
	c-1.97,3.965-4.771,7.387-9.024,8.953C443.708,284.902,430.796,291.765,417.708,298.261z"/>
<path fill-rule="evenodd" clip-rule="evenodd" fill="#F2F7F7" d="M129.96,158.768c8.341,4.103,16.106,9.328,24.801,12.739
	c6.505,2.552,13.024,5.004,20.114,5.459c14.477,0.931,22.245-5.915,22.932-20.507c0.207-4.408,0.35-8.847-0.693-13.222
	c2.205-0.254,1.842,1.428,2.146,2.327c1.616,4.776,2.199,9.764,2.037,14.754c-0.511,15.651-11.058,24.417-27.394,23.023
	c-4.489-0.383-8.926-1.034-13.191-2.514c-4.16-1.443-8.28-3.005-13.27-4.826c4.704,8.163,8.922,15.633,12.015,23.659
	c2.045,5.308,3.544,10.757,4.015,16.415c1.01,12.146-3.577,21.764-13.537,28.779c-10.75,7.571-23.195,10.516-35.806,12.973
	c-3.026,0.59-6.073,1.069-9.171,2.537c5.882,1.837,11.808,3.547,17.638,5.537c14.687,5.013,29,10.875,41.183,20.792
	c10.963,8.925,18.311,19.873,17.102,34.77c-0.963,11.85-7.326,20.735-16.118,28.123c1.747-5.009,4.586-9.449,6.413-14.396
	c6.822-18.482,2.705-33.193-13.155-44.891c-15.639-11.534-33.794-17.671-52.079-23.371c-10.466-3.262-21.055-6.115-31.845-8.148
	c-0.688-0.13-1.257-0.397-1.452-1.646c8.988-0.762,17.973-1.378,26.923-2.315c13.746-1.439,27.423-3.323,39.911-9.868
	c15.078-7.902,19.723-18.279,15.438-34.57c-0.928-3.528-2.012-7.042-3.354-10.432c-5.104-12.891-11.949-24.864-19.502-36.455
	c-0.902-1.385-1.689-2.844-2.529-4.269C129.673,159.072,129.816,158.92,129.96,158.768z"/>
<path fill-rule="evenodd" clip-rule="evenodd" fill="#F6DBBB" d="M417.751,358.114c-1.025-10.438-0.382-20.905-0.407-31.356
	c-0.021-8.793-0.595-17.606,0.387-26.389c6.355-1.074,12.58-2.762,19.21-1.676c10.29,1.688,18.085,8.583,19.872,18.252
	c2.247,12.15-1.908,23.167-11.214,27.973C436.477,349.626,427.046,353.74,417.751,358.114z"/>
<path fill-rule="evenodd" clip-rule="evenodd" fill="#F2F7F7" d="M129.529,159.223c-0.428-0.33-0.771-0.681-0.14-1.114
	c0.026-0.018,0.373,0.429,0.57,0.659C129.816,158.92,129.673,159.072,129.529,159.223z"/>
<path fill-rule="evenodd" clip-rule="evenodd" fill="#F4CE9D" d="M317.003,358.947c-4.818-5.01-11.09-6.202-17.624-6.715
	c-10.751-0.845-21.29-2.932-31.755-5.454c2.756-6.565,8.92-9.69,14.073-13.786c13.579-10.791,15.036-18.724,7.706-31.18
	c-0.166-0.284-0.258-0.612-0.385-0.92c1.539-7.529,0.543-15.229,1.521-22.788c0.406-3.134-0.529-5.388-3.127-7.221
	c-7.109-5.014-11.114-12.1-13.291-20.375c-0.674-2.561-1.553-5.068-2.339-7.6c2.153-2.515,4.062-5.301,6.5-7.501
	c14.093-12.714,19.53-29.143,20.753-47.447c1.326-4.648,2.65-9.297,3.977-13.946c1.006-1.517,1.929-3.097,3.031-4.54
	c8.91-11.65,17.953-11.456,27.171,0.079c2.246,2.812,3.694,6.262,5.51,9.418c2.604,7.745,1.923,15.862,2.693,23.814
	c0.028,1.716,0.057,3.433,0.085,5.148c-0.496,1.055-0.331,2.049,0.272,3.004c0.312,7.027,3.628,12.574,8.63,17.229
	c1.486,1.383,2.723,2.632,2.739,4.931c0.066,9.288-0.598,18.462-3.436,27.375c-0.74,0.563-1.334,1.207-1.208,2.238l-0.156-0.275
	c-3.337,3.17-6.637,6.382-10.032,9.488c-1.233,1.128-1.502,2.424-1.479,3.972c0.074,4.946,0.084,9.893,0.118,14.84
	c-3.589,5.592-7.585,10.969-10.685,16.82c-7.226,13.637-4.871,21.867,8.051,30.323c9.527,6.235,10.636,11.064,4.843,21.089
	C331.775,358.961,324.39,358.954,317.003,358.947z M294.592,277.516c5.853,7.859,11.632,15.89,23.135,13.282
	c6.633-1.502,9.438-7.586,13.793-12.137C318.765,288.247,306.669,287.051,294.592,277.516z"/>
<path fill-rule="evenodd" clip-rule="evenodd" fill="#A48A5B" d="M289.019,300.892c0.127,0.308,0.219,0.636,0.385,0.92
	c7.33,12.456,5.873,20.389-7.706,31.18c-5.153,4.096-11.317,7.221-14.073,13.786c-7.389-2.316-14.776-4.634-22.166-6.95
	c-1.654-5.522-0.954-10.871,1.188-16.113c1.567-1.502,1.264-2.215-0.894-1.979c-3.332,0.364-6.588-0.164-9.849-0.701
	c-2.886-1.966-5.771-3.932-8.657-5.896l-0.105-0.016c1.897-2.158,3.838,0.604,5.748-0.05c2.357,1.052,4.688,1.019,6.992-0.165
	c6.258-1.582,7.51-3.768,5.029-9.32c-1.198-2.682-2.797-5.185-4.214-7.768c-1.573-3.289-3.147-6.577-4.722-9.865
	c-0.411-2.388-0.822-4.775-1.234-7.162c0.086-6.289,3.955-10.808,7.373-15.485c6.037-8.263,9.449-17.276,7.5-27.581
	c-2.244-11.863-3.121-23.749-1.757-35.756c1.567-13.787,4.551-27.156,12.03-39.134c0.482,0.666,1.105,1.271,1.43,2.006
	c5.887,13.366,16.71,19.479,30.692,21.053c2.437,0.274,4.953,0.469,7.026,2.065c-1.223,18.305-6.66,34.733-20.753,47.447
	c-2.438,2.2-4.347,4.986-6.5,7.5c-4.386,3.506-6.639,8.588-9.614,13.123c-3.938,6.002-3.229,16.027,1.672,21.237
	C271.735,285.662,281.549,292.031,289.019,300.892z"/>
<path fill-rule="evenodd" clip-rule="evenodd" fill="#AFBEDC" d="M409.685,367.88c0.08,15.004,0.159,30.01,0.238,45.014
	c-7.149,2.51-14.699,3.896-21.298,7.949c-6.307,3.875-11.049,8.885-12.838,16.275c-51.118-0.025-102.237-0.041-153.356-0.109
	c-2.086-0.002-4.35,0.721-6.239-0.883c0.546-0.844,0.539-1.689-0.003-2.533c0.004-2.641,0.008-5.279,0.012-7.92
	c5.271-6.102,11.934-10.465,18.566-14.865c2.153,4.643,5.768,7.564,10.637,8.961c12.014,3.441,22.295-4.574,23.551-18.34
	c4.98,0.09,9.96,0.181,14.939,0.271c1.83,22.268,20.75,34.82,40.774,27.055c10.417-4.041,18.218-17.002,17.132-28.466
	c-1.244-13.14-10.277-23.536-22.127-25.47c0.061-2.358,0.122-4.717,0.184-7.074c3.648-0.004,7.297-0.006,10.944-0.011
	c26.031-0.03,52.063-0.062,78.093-0.093C409.139,367.783,409.403,367.862,409.685,367.88z M391.91,402.506
	c-0.044-12.37-8.494-17.848-18.184-18.319c-9.164-0.445-17.725,8.766-17.821,18.079c-0.098,9.556,9.198,19.099,18.663,18.376
	C384.916,419.853,392.321,412.669,391.91,402.506z"/>
<path fill-rule="evenodd" clip-rule="evenodd" fill="#484646" d="M216.191,436.126c1.89,1.604,4.153,0.881,6.239,0.883
	c51.119,0.068,102.238,0.084,153.356,0.109c-0.258,4.887,0.298,9.67,2.343,14.146c1.166,2.551,0.306,3.316-2.187,3.24
	c-1.663-0.049-3.33,0.004-4.995,0.004c-49.958,0.002-99.916,0.004-149.875,0.004c-9.961,0-12.346-2.412-12.309-12.404
	c0.008-1.998,0.238-4.029-0.04-5.988c-0.843-5.947,2.426-8.795,7.477-10.441c-0.005,2.635-0.009,5.273-0.013,7.898
	C216.189,434.417,216.19,435.273,216.191,436.126z"/>
<path fill-rule="evenodd" clip-rule="evenodd" fill="#D2D3D3" d="M290.827,400.958c12.748-1.715,21.922-8.242,27.104-20.139
	c15.871,2.861,21.023,21.359,14.362,32.9c-4.822,8.355-15.565,12.863-24.358,10.643C299.095,422.13,289.622,412.49,290.827,400.958z
	"/>
<path fill-rule="evenodd" clip-rule="evenodd" fill="#5EB3CC" d="M232.89,315.073c-1.91,0.653-3.851-2.108-5.731,0.05
	c0.351-0.229,0.685-0.456,1.018-0.684c-0.126-0.088-0.253-0.176-0.38-0.264c-0.184,0.32-0.366,0.643-0.549,0.963
	c2.886,1.965,5.771,3.931,8.656,5.896c0.016,1.659,0.032,3.319,0.049,4.979c-5.355,5.689-8.608,12.609-11.531,19.721
	c-2.715,1.107-5.429,2.216-8.143,3.324c-0.002-19.692-0.004-39.385-0.005-59.077c1.144,2.538,0.341,5.235,0.646,7.841
	c0.128,1.094-0.03,2.608,1.651,2.471c1.24-0.102,1.242-1.387,1.26-2.357c0.051-2.979,0.042-5.959,0.045-8.938
	c0.005-8.158,0.002-8.156,7.914-8.166c2.318-0.004,4.635-0.026,6.951-0.039c0.412,2.387,0.823,4.774,1.234,7.16
	c-0.021,7.472-0.049,14.946-0.057,22.422C235.915,312.605,235.997,314.857,232.89,315.073z"/>
<path fill-rule="evenodd" clip-rule="evenodd" fill="#A8CD3C" d="M408.894,367.642c-26.03,0.031-52.062,0.063-78.093,0.093
	c-3.647,0.005-7.296,0.007-10.944,0.011c-0.951-2.934-1.902-5.867-2.854-8.799c7.387,0.007,14.772,0.015,22.157,0.021
	c-0.626,1.506-1.253,3.012-2.073,4.982c7.035-0.395,12.973-3.023,19.023-5.219c0.658,0.041,1.316,0.105,1.975,0.119
	c10.427,0.199,10.427,0.197,9.601-10.043c1.676-2.332,3.352-4.664,5.027-6.996c0.374,1.434,0.748,2.866,1.122,4.299
	c0.715,1.214-4.134,3.105,0.47,3.845c0.125,1.157,0.431,2.329,0.342,3.472c-0.331,4.294,1.407,5.743,5.802,5.521
	c8.301-0.418,16.633-0.237,24.952-0.306C408.34,360.954,407.951,364.556,408.894,367.642z"/>
<path fill-rule="evenodd" clip-rule="evenodd" fill="#F8EFD7" d="M290.315,381.814c-10.669-0.043-12.303-2.205-10.902-11.488
	c0.669-4.438,1.527-8.809,2.443-13.189c0.52-2.486,1.85-3.443,4.156-3.227c5.771,0.543,11.528,1.25,17.305,1.736
	c2.447,0.207,3.451,1.33,3.692,3.727c0.481,4.776,1.29,9.521,1.758,14.299c0.316,3.232-1.208,5.391-4.468,6.232
	C299.286,381.199,294.141,381.38,290.315,381.814z"/>
<path fill-rule="evenodd" clip-rule="evenodd" fill="#F8EFD7" d="M398.51,457.941c-8.938-0.076-9.253-0.287-11.988-8.619
	c-1.291-3.934-2.848-7.773-2.737-12.08c0.138-5.352,5.736-12.209,11.011-13.121c2.02-0.35,3.143,1.027,4.084,2.33
	c5.985,8.281,8.235,17.77,7.81,27.756C406.434,460.199,401.091,456.992,398.51,457.941z"/>
<path fill-rule="evenodd" clip-rule="evenodd" fill="#D2D3D3" d="M268.954,401.429c-1.256,13.766-11.537,21.781-23.551,18.34
	c-4.869-1.396-8.483-4.318-10.637-8.961c3.905-4.304,8.904-7.284,13.313-10.979c1.638-1.372,3.414-0.512,5.194-0.273
	C258.491,400.255,263.727,400.814,268.954,401.429z"/>
<path fill-rule="evenodd" clip-rule="evenodd" fill="#D2D3D3" d="M319.673,374.82c11.85,1.934,20.883,12.33,22.127,25.47
	c1.086,11.464-6.715,24.425-17.132,28.466c-20.024,7.766-38.944-4.787-40.774-27.055c1.254-0.924,2.674-0.708,4.078-0.602
	c-0.398,15.549,12.803,26.721,25.503,25.965c12.094-0.719,23.097-9.799,24.344-21.5c1.38-12.949-6.483-24.043-19.123-26.979
	C318.806,377.273,318.76,375.921,319.673,374.82z"/>
<path fill-rule="evenodd" clip-rule="evenodd" fill="#AFBEDC" d="M318.695,378.584c12.64,2.937,20.503,14.03,19.123,26.979
	c-1.247,11.701-12.25,20.781-24.344,21.5c-12.7,0.756-25.901-10.416-25.503-25.965c0.953-0.047,1.904-0.094,2.856-0.141
	c-1.206,11.531,8.267,21.172,17.106,23.404c8.793,2.221,19.536-2.287,24.358-10.643c6.661-11.541,1.509-30.039-14.362-32.9
	C318.186,380.074,318.44,379.33,318.695,378.584z"/>
<path fill-rule="evenodd" clip-rule="evenodd" fill="#F4CE9D" d="M224.421,345.734c2.923-7.111,6.176-14.031,11.531-19.722
	c3.58-0.692,6.947-2.377,10.694-2.298c-2.143,5.242-2.843,10.591-1.188,16.113c-3.805-1.623-7.291-0.848-10.815,1.08
	C231.343,342.711,227.837,344.14,224.421,345.734z"/>
<path fill-rule="evenodd" clip-rule="evenodd" fill="#91D2E4" d="M234.741,280.792c-2.316,0.013-4.633,0.035-6.951,0.039
	c-7.912,0.01-7.909,0.008-7.914,8.166c-0.003,2.979,0.006,5.959-0.045,8.938c-0.018,0.971-0.02,2.256-1.26,2.357
	c-1.682,0.138-1.523-1.377-1.651-2.471c-0.306-2.605,0.497-5.303-0.646-7.841c0.001-12.741,0.001-25.483,0.001-38.225
	c0.986-8.271,0.981-16.543-0.004-24.814c0-2.726,0-5.451,0.001-8.176c0.927-2.61,0.924-5.22-0.003-7.829
	c0.004-7.393,0.008-14.785,0.012-22.177c0.979-6.271,0.979-12.543-0.004-18.814c-0.004-2.394-0.009-4.788-0.014-7.182
	c1.006-7.94,1.005-15.88,0-23.821c0.006-2.062,0.012-4.123,0.018-6.184c0.938-3.943,0.957-7.886-0.012-11.827
	c-0.004-0.709-0.006-1.417-0.009-2.126c0.181-0.594,0.362-1.188,0.542-1.782c1.48-0.132,2.961-0.378,4.44-0.379
	c61.157-0.031,122.315-0.037,183.474-0.06c2.875-0.001,5.269-0.419,5.256,4.142c-0.168,59.991-0.118,119.982-0.131,179.973
	c0,0.664-0.096,1.328-0.147,1.993c-2.654-0.041-3.91,1.114-3.807,3.915c0.14,3.809-0.076,7.631,0.05,11.439
	c0.092,2.776-1.094,4-3.806,3.873c-2.285-1.453-4.224-2.857-3.791-6.238c1.624-12.701,0.386-25.209-3.235-37.477
	c-6.804-23.047-15.735-45.657-14.364-70.371c-0.165-8.139-1.235-16.139-3.699-23.924c-0.67-4.809-2.463-9.287-4.251-13.733
	c-7.379-18.343-18.729-32.798-38.611-38.657c-6.97-2.054-14.048-3.125-20.8,0.532c-2.322,1.258-4.541,1.667-7.069,1.716
	c-10.865,0.212-20.944,2.882-29.551,9.893c-7.49,4.749-12.831,11.389-16.871,19.174c-7.479,11.979-10.463,25.348-12.03,39.135
	c-1.364,12.007-0.487,23.893,1.757,35.756c1.949,10.305-1.463,19.318-7.5,27.581C238.696,269.984,234.827,274.504,234.741,280.792z"
	/>
<path fill-rule="evenodd" clip-rule="evenodd" fill="#A48A5B" d="M380.739,207.834c-1.37,24.715,7.562,47.325,14.365,70.372
	c3.621,12.268,4.859,24.776,3.235,37.477c-0.433,3.381,1.506,4.785,3.79,6.236c2.147,2.131,4.624,3.375,7.749,2.863
	c1.232,0.211,2.464,0.422,3.755,0.643c-0.739,1.902-2.61,2.094-3.868,3.073c-2.597,0.101-5.46,0.957-7.738,0.155
	c-5.828-2.053-7.403,0.97-8.121,5.688c-4.645,7.576-11.385,12.522-19.603,15.614c-4.603-0.74,0.246-2.632-0.468-3.847
	c2.163-2.901,2.648-6.08,1.828-10.692c-1.31,2.836-2.13,4.615-2.951,6.395c-1.676,2.332-3.352,4.664-5.027,6.996
	c-3.583,3.629-7.338,7.059-11.575,9.924c-6.051,2.195-11.988,4.824-19.023,5.219c0.82-1.971,1.447-3.477,2.073-4.982
	c5.793-10.024,4.685-14.854-4.843-21.089c-12.922-8.456-15.276-16.687-8.051-30.323c3.1-5.852,7.096-11.229,10.685-16.82
	c4.825-6.559,7.302-14.28,10.515-21.621c0.865-1.976,1.806-4.3,0.879-6.679c0,0,0.156,0.275,0.157,0.274
	c0.977-0.437,1.229-1.263,1.207-2.236c2.838-8.913,3.502-18.087,3.436-27.375c-0.017-2.298-1.253-3.547-2.739-4.931
	c-5.002-4.655-8.318-10.202-8.63-17.229c-0.091-1.001-0.182-2.003-0.272-3.004c-0.028-1.716-0.057-3.432-0.086-5.147
	c0.954-2.417,0.487-4.944,0.474-7.416c-0.015-2.716,0.911-3.376,3.646-2.857C358.449,194.968,370.772,198.663,380.739,207.834z"/>
<path fill-rule="evenodd" clip-rule="evenodd" fill="#5EB3CC" d="M393.906,334.342c0.718-4.719,2.293-7.741,8.121-5.688
	c2.278,0.802,5.142-0.055,7.738-0.155c-0.026,13.128-0.054,26.255-0.081,39.382c-0.281-0.019-0.546-0.098-0.791-0.238
	c-0.942-3.086-0.554-6.688-3.495-8.999C402.36,350.167,399.127,341.785,393.906,334.342z"/>
<path fill-rule="evenodd" clip-rule="evenodd" fill="#D2D3D3" d="M313.37,105.851c-3.975,0.001-7.95-0.039-11.924,0.017
	c-2.342,0.032-4.514-0.193-4.473-3.213c0.037-2.718,2.041-2.975,4.203-2.967c7.949,0.03,15.898,0.03,23.848-0.004
	c2.235-0.009,4.022,0.404,3.935,3.177c-0.088,2.783-2.009,3.017-4.161,2.999C320.988,105.826,317.179,105.849,313.37,105.851z"/>
<path fill-rule="evenodd" clip-rule="evenodd" fill="#5EB3CC" d="M409.879,324.783c-3.125,0.512-5.602-0.732-7.749-2.863
	c2.713,0.129,3.898-1.095,3.807-3.871c-0.126-3.809,0.09-7.631-0.05-11.439c-0.104-2.801,1.152-3.956,3.807-3.915
	C409.755,310.056,409.817,317.419,409.879,324.783z"/>
<path fill-rule="evenodd" clip-rule="evenodd" fill="#5EB3CC" d="M216.271,226.942c0.985,8.271,0.99,16.543,0.004,24.814
	C215.854,243.484,215.828,235.213,216.271,226.942z"/>
<path fill-rule="evenodd" clip-rule="evenodd" fill="#5EB3CC" d="M216.263,138.943c1.005,7.94,1.006,15.881,0,23.821
	C215.849,154.823,215.841,146.883,216.263,138.943z"/>
<path fill-rule="evenodd" clip-rule="evenodd" fill="#5EB3CC" d="M216.276,169.945c0.982,6.271,0.982,12.543,0.004,18.814
	C215.836,182.488,215.839,176.217,216.276,169.945z"/>
<path fill-rule="evenodd" clip-rule="evenodd" fill="#5EB3CC" d="M216.269,120.932c0.969,3.941,0.949,7.884,0.012,11.827
	C215.837,128.817,215.849,124.875,216.269,120.932z"/>
<path fill-rule="evenodd" clip-rule="evenodd" fill="#5EB3CC" d="M216.269,210.937c0.927,2.609,0.93,5.219,0.003,7.829
	C215.856,216.156,215.862,213.547,216.269,210.937z"/>
<path fill-rule="evenodd" clip-rule="evenodd" fill="#5EB3CC" d="M216.802,117.024c-0.18,0.594-0.361,1.188-0.542,1.782
	C216.021,118.084,215.864,117.387,216.802,117.024z"/>
<path fill-rule="evenodd" clip-rule="evenodd" fill="#1B91C0" d="M524.446,172.357c0.774-0.377,1.585-1.056,2.307-0.058
	c0.089,0.123-0.655,0.849-1.013,1.295C525.311,173.183,524.878,172.77,524.446,172.357z"/>
<path fill-rule="evenodd" clip-rule="evenodd" fill="#A48A5B" d="M276.759,143.662c8.606-7.011,18.686-9.681,29.551-9.893
	c2.528-0.049,4.747-0.458,7.069-1.716c6.752-3.657,13.83-2.586,20.8-0.532c19.882,5.859,31.232,20.314,38.611,38.657
	c1.788,4.446,3.581,8.925,4.25,13.731c-2.301,1.952-4.502,0.328-6.543-0.414c-10.29-3.742-20.863-5.25-31.772-4.523
	c-1.815-3.156-3.264-6.606-5.51-9.418c-9.218-11.534-18.261-11.729-27.171-0.079c-1.103,1.442-2.025,3.023-3.031,4.539
	C289.573,167.952,279.475,159,276.759,143.662z"/>
<path fill-rule="evenodd" clip-rule="evenodd" fill="#92754A" d="M276.759,143.662c2.716,15.338,12.814,24.29,26.254,30.353
	c-1.326,4.649-2.65,9.298-3.977,13.946c-2.073-1.596-4.59-1.791-7.026-2.065c-13.982-1.575-24.806-7.688-30.692-21.053
	c-0.324-0.736-0.947-1.34-1.43-2.006C263.928,155.051,269.269,148.41,276.759,143.662z"/>
<path fill-rule="evenodd" clip-rule="evenodd" fill="#42402F" d="M289.019,300.892c-7.47-8.861-17.283-15.23-25.178-23.624
	c-4.9-5.21-5.609-15.235-1.672-21.237c2.976-4.535,5.229-9.617,9.614-13.123c0.786,2.532,1.665,5.039,2.339,7.6
	c2.177,8.276,6.182,15.361,13.291,20.375c2.598,1.833,3.533,4.087,3.127,7.221C289.562,285.664,290.558,293.363,289.019,300.892z"/>
<path fill-rule="evenodd" clip-rule="evenodd" fill="#92754A" d="M338.725,178.972c10.909-0.727,21.482,0.781,31.772,4.523
	c2.041,0.742,4.242,2.366,6.543,0.414c2.465,7.787,3.535,15.787,3.7,23.926c-9.968-9.172-22.291-12.867-35.203-15.32
	c-2.735-0.52-3.661,0.141-3.646,2.857c0.014,2.471,0.48,4.999-0.474,7.416C340.647,194.833,341.328,186.717,338.725,178.972z"/>
<path fill-rule="evenodd" clip-rule="evenodd" fill="#F4B97D" d="M294.592,277.516c12.077,9.535,24.173,10.73,36.928,1.146
	c-4.355,4.551-7.16,10.635-13.793,12.137C306.224,293.406,300.444,285.375,294.592,277.516z"/>
<path fill-rule="evenodd" clip-rule="evenodd" fill="#42402F" d="M348.345,262.436c0.927,2.379-0.014,4.703-0.879,6.679
	c-3.213,7.34-5.689,15.062-10.515,21.621c-0.034-4.947-0.044-9.895-0.118-14.84c-0.022-1.548,0.246-2.843,1.479-3.972
	C341.708,268.818,345.008,265.606,348.345,262.436z"/>
<path fill-rule="evenodd" clip-rule="evenodd" fill="#EF583F" d="M341.503,207.935c0.091,1.001,0.182,2.003,0.272,3.004
	C341.172,209.984,341.007,208.989,341.503,207.935z"/>
<path fill-rule="evenodd" clip-rule="evenodd" fill="#C61C25" d="M349.709,260.474c0.021,0.974-0.23,1.8-1.207,2.236
	C348.375,261.68,348.969,261.037,349.709,260.474z"/>
<path fill-rule="evenodd" clip-rule="evenodd" fill="#91D2E4" d="M232.89,315.073c3.107-0.216,3.025-2.468,3.029-4.698
	c0.008-7.476,0.035-14.95,0.057-22.422c1.574,3.29,3.148,6.578,4.722,9.867c-1.845,5.621-0.395,11.399-0.815,17.088
	C237.578,316.091,235.247,316.125,232.89,315.073z"/>
<path fill-rule="evenodd" clip-rule="evenodd" fill="#5EB3CC" d="M239.882,314.908c0.421-5.688-1.029-11.467,0.815-17.088
	c1.417,2.583,3.016,5.086,4.214,7.768C247.392,311.14,246.14,313.326,239.882,314.908z"/>
<path fill-rule="evenodd" clip-rule="evenodd" fill="#91D2E4" d="M246.646,323.714c-3.747-0.079-7.114,1.605-10.694,2.298
	c-0.017-1.659-0.033-3.319-0.049-4.979c3.262,0.538,6.518,1.066,9.85,0.702C247.91,321.5,248.214,322.212,246.646,323.714z"/>
<path fill-rule="evenodd" clip-rule="evenodd" fill="#D2D3D3" d="M391.91,402.506c0.411,10.163-6.994,17.347-17.342,18.136
	c-9.465,0.723-18.761-8.82-18.663-18.376c0.097-9.313,8.657-18.524,17.821-18.079C383.416,384.659,391.866,390.136,391.91,402.506z
	 M372.672,396.978c-2.046,0-3.879-0.136-5.685,0.029c-3.345,0.305-3.16,2.934-3.022,5.232c0.125,2.086-1.101,5.124,2.485,5.498
	c5.391,0.563,10.794,0.193,16.005-1.297c2.351-0.674,1.311-3.098,1.395-4.772c0.069-1.361,0.496-3.37-1.73-3.451
	C378.836,398.097,375.851,395.96,372.672,396.978z"/>
<path fill-rule="evenodd" clip-rule="evenodd" fill="#F4B97D" d="M216.191,436.126c-0.001-0.854-0.002-1.709-0.003-2.549
	C216.73,434.437,216.737,435.283,216.191,436.126z"/>
<path fill-rule="evenodd" clip-rule="evenodd" fill="#EA1D25" d="M227.247,315.138c0.183-0.32,0.365-0.643,0.549-0.963
	c0.127,0.088,0.254,0.176,0.38,0.264c-0.333,0.228-0.667,0.455-1.018,0.684C227.142,315.123,227.247,315.138,227.247,315.138z"/>
<path fill-rule="evenodd" clip-rule="evenodd" fill="#F4CE9D" d="M393.906,334.342c5.221,7.442,8.454,15.825,11.492,24.301
	c-8.317,0.068-16.649-0.112-24.95,0.306c-4.395,0.222-6.133-1.228-5.802-5.521c0.089-1.143-0.217-2.314-0.342-3.472
	C382.521,346.865,389.262,341.918,393.906,334.342z"/>
<path fill-rule="evenodd" clip-rule="evenodd" fill="#F4CE9D" d="M356.11,358.732c4.237-2.865,7.992-6.295,11.575-9.924
	c0.826,10.24,0.826,10.242-9.601,10.043C357.427,358.837,356.769,358.773,356.11,358.732z"/>
<path fill-rule="evenodd" clip-rule="evenodd" fill="#F4B97D" d="M372.713,341.812c0.821-1.779,1.642-3.559,2.951-6.395
	c0.82,4.612,0.335,7.791-1.828,10.692C373.461,344.678,373.087,343.246,372.713,341.812z"/>
<path fill-rule="evenodd" clip-rule="evenodd" fill="#AFBEDC" d="M372.672,396.978c3.179-1.018,6.164,1.119,9.447,1.239
	c2.227,0.081,1.8,2.09,1.73,3.451c-0.084,1.675,0.956,4.099-1.395,4.772c-5.211,1.49-10.614,1.859-16.005,1.297
	c-3.586-0.374-2.36-3.412-2.485-5.498c-0.138-2.299-0.322-4.928,3.022-5.232C368.793,396.842,370.626,396.978,372.672,396.978z"/>
</svg>
